%TF.GenerationSoftware,KiCad,Pcbnew,(6.0.1)*%
%TF.CreationDate,2022-10-28T15:06:46-07:00*%
%TF.ProjectId,BonkDaddy2HP_Board,426f6e6b-4461-4646-9479-3248505f426f,rev?*%
%TF.SameCoordinates,Original*%
%TF.FileFunction,Copper,L1,Top*%
%TF.FilePolarity,Positive*%
%FSLAX46Y46*%
G04 Gerber Fmt 4.6, Leading zero omitted, Abs format (unit mm)*
G04 Created by KiCad (PCBNEW (6.0.1)) date 2022-10-28 15:06:46*
%MOMM*%
%LPD*%
G01*
G04 APERTURE LIST*
%TA.AperFunction,ComponentPad*%
%ADD10R,1.800000X1.800000*%
%TD*%
%TA.AperFunction,ComponentPad*%
%ADD11C,1.800000*%
%TD*%
%TA.AperFunction,ComponentPad*%
%ADD12C,2.000000*%
%TD*%
%TA.AperFunction,ComponentPad*%
%ADD13R,0.840000X0.840000*%
%TD*%
%TA.AperFunction,ComponentPad*%
%ADD14C,0.840000*%
%TD*%
%TA.AperFunction,ComponentPad*%
%ADD15O,1.850000X0.850000*%
%TD*%
%TA.AperFunction,ComponentPad*%
%ADD16R,1.500000X1.600000*%
%TD*%
%TA.AperFunction,ComponentPad*%
%ADD17C,1.600000*%
%TD*%
%TA.AperFunction,ComponentPad*%
%ADD18C,3.000000*%
%TD*%
%TA.AperFunction,ViaPad*%
%ADD19C,0.500000*%
%TD*%
%TA.AperFunction,ViaPad*%
%ADD20C,0.800000*%
%TD*%
%TA.AperFunction,Conductor*%
%ADD21C,0.200000*%
%TD*%
%TA.AperFunction,Conductor*%
%ADD22C,0.130000*%
%TD*%
%TA.AperFunction,Conductor*%
%ADD23C,0.250000*%
%TD*%
G04 APERTURE END LIST*
D10*
%TO.P,D4,1,K*%
%TO.N,Net-(D4-Pad1)*%
X53730000Y-72000000D03*
D11*
%TO.P,D4,2,A*%
%TO.N,+3V3*%
X56270000Y-72000000D03*
%TD*%
D10*
%TO.P,D1,1,K*%
%TO.N,Net-(D1-Pad1)*%
X53730000Y-102000000D03*
D11*
%TO.P,D1,2,A*%
%TO.N,+3V3*%
X56270000Y-102000000D03*
%TD*%
D10*
%TO.P,D5,1,K*%
%TO.N,Net-(D5-Pad1)*%
X53730000Y-82000000D03*
D11*
%TO.P,D5,2,A*%
%TO.N,+3V3*%
X56270000Y-82000000D03*
%TD*%
D10*
%TO.P,D3,1,K*%
%TO.N,Net-(D3-Pad1)*%
X53730000Y-92000000D03*
D11*
%TO.P,D3,2,A*%
%TO.N,+3V3*%
X56270000Y-92000000D03*
%TD*%
D12*
%TO.P,SW1,1,1*%
%TO.N,Net-(J1-Pad1)*%
X52750000Y-66875000D03*
X52750000Y-60375000D03*
%TO.P,SW1,2,2*%
%TO.N,GND*%
X57250000Y-60375000D03*
X57250000Y-66875000D03*
%TD*%
D10*
%TO.P,D2,1,K*%
%TO.N,Net-(D2-Pad1)*%
X53730000Y-141200000D03*
D11*
%TO.P,D2,2,A*%
%TO.N,Net-(D2-Pad2)*%
X56270000Y-141200000D03*
%TD*%
D13*
%TO.P,J2,1,VBUS*%
%TO.N,Net-(J2-Pad1)*%
X54780000Y-150300000D03*
D14*
%TO.P,J2,2,D-*%
%TO.N,Net-(J2-Pad2)*%
X55780000Y-149650000D03*
%TO.P,J2,3,D+*%
%TO.N,Net-(J2-Pad3)*%
X54780000Y-149000000D03*
%TO.P,J2,4,ID*%
%TO.N,unconnected-(J2-Pad4)*%
X55780000Y-148350000D03*
%TO.P,J2,5,GND*%
%TO.N,GND*%
X54780000Y-147700000D03*
D15*
%TO.P,J2,6,Shield*%
%TO.N,Net-(J2-Pad6)*%
X55000000Y-145425000D03*
X55000000Y-152575000D03*
%TD*%
D16*
%TO.P,J3,1,VBUS*%
%TO.N,Net-(D2-Pad2)*%
X55625000Y-134325000D03*
D17*
%TO.P,J3,2,D-*%
%TO.N,Net-(J2-Pad2)*%
X55625000Y-131825000D03*
%TO.P,J3,3,D+*%
%TO.N,Net-(J2-Pad3)*%
X55625000Y-129825000D03*
%TO.P,J3,4,GND*%
%TO.N,GND*%
X55625000Y-127325000D03*
D18*
%TO.P,J3,5,Shield*%
%TO.N,Net-(J2-Pad6)*%
X52915000Y-124255000D03*
X52915000Y-137395000D03*
%TD*%
D19*
%TO.N,+3V3*%
X54325000Y-106700000D03*
X51090000Y-88190000D03*
X54325000Y-108500000D03*
%TO.N,+12V*%
X50675000Y-113600000D03*
X50350000Y-142575000D03*
%TO.N,Net-(D2-Pad2)*%
X57725000Y-147575000D03*
%TO.N,Net-(J1-Pad3)*%
X53630000Y-85800000D03*
X54325000Y-116150000D03*
%TO.N,Net-(J1-Pad4)*%
X56170000Y-85825000D03*
X57550000Y-115225000D03*
%TO.N,Net-(J1-Pad7)*%
X51100000Y-85825000D03*
X50675000Y-111065489D03*
%TO.N,Net-(J1-Pad10)*%
X55089520Y-104585480D03*
X57550000Y-107600000D03*
D20*
%TO.N,Net-(J2-Pad2)*%
X56600000Y-145500000D03*
D19*
%TO.N,Net-(J2-Pad3)*%
X53525000Y-149000000D03*
X52075000Y-129825000D03*
%TO.N,Net-(Q3-Pad1)*%
X52450000Y-146575000D03*
X51375000Y-148875000D03*
%TO.N,Net-(R4-Pad1)*%
X58710000Y-94265000D03*
X56550000Y-94275000D03*
%TD*%
D21*
%TO.N,+3V3*%
X54325000Y-108500000D02*
X54325000Y-106700000D01*
%TO.N,+12V*%
X50675000Y-113600000D02*
X50575000Y-113600000D01*
X50575000Y-113600000D02*
X50350000Y-113825000D01*
X50350000Y-113825000D02*
X50350000Y-142575000D01*
%TO.N,Net-(D2-Pad2)*%
X56270000Y-144180741D02*
X56270000Y-141200000D01*
X56270000Y-141200000D02*
X56270000Y-133970000D01*
X57725000Y-145635741D02*
X56270000Y-144180741D01*
X57725000Y-147575000D02*
X57725000Y-145635741D01*
%TO.N,Net-(J1-Pad3)*%
X52530489Y-86899511D02*
X53630000Y-85800000D01*
X54325000Y-116150000D02*
X52530489Y-113955489D01*
X52530489Y-113955489D02*
X52530489Y-86899511D01*
D22*
%TO.N,Net-(J1-Pad4)*%
X57550000Y-115225000D02*
X58675000Y-115225000D01*
X59600000Y-91850000D02*
X59650000Y-91900000D01*
X56170000Y-85825000D02*
X56170000Y-88420000D01*
X56170000Y-88420000D02*
X59600000Y-91850000D01*
X58675000Y-115225000D02*
X59650000Y-114250000D01*
X59650000Y-91900000D02*
X59650000Y-114250000D01*
D21*
%TO.N,Net-(J1-Pad7)*%
X51100000Y-85825000D02*
X50540489Y-86384511D01*
X50540489Y-86384511D02*
X50540489Y-111065489D01*
D22*
%TO.N,Net-(J1-Pad10)*%
X57550000Y-105675000D02*
X56460480Y-104585480D01*
X56460480Y-104585480D02*
X55089520Y-104585480D01*
X57550000Y-107600000D02*
X57550000Y-105675000D01*
D21*
%TO.N,Net-(J2-Pad2)*%
X56600000Y-148830000D02*
X55780000Y-149650000D01*
X56600000Y-145500000D02*
X56600000Y-148830000D01*
D22*
%TO.N,Net-(J2-Pad3)*%
X53525000Y-143324022D02*
X53525000Y-149000000D01*
X51150489Y-140949511D02*
X53525000Y-143324022D01*
X52075000Y-129825000D02*
X51100000Y-130675000D01*
X51100000Y-130675000D02*
X51150489Y-140949511D01*
%TO.N,Net-(J2-Pad6)*%
X54060489Y-151635489D02*
X55000000Y-152575000D01*
X55000000Y-145425000D02*
X54060489Y-146364511D01*
X54060489Y-146364511D02*
X54060489Y-151635489D01*
X55000000Y-145425000D02*
X55000000Y-138480000D01*
D23*
X52915000Y-123255000D02*
X52915000Y-136395000D01*
D22*
X55000000Y-138480000D02*
X52915000Y-136395000D01*
D21*
%TO.N,Net-(Q3-Pad1)*%
X52450000Y-147800000D02*
X51375000Y-148875000D01*
X52450000Y-146575000D02*
X52450000Y-147800000D01*
D22*
%TO.N,Net-(R4-Pad1)*%
X58710000Y-94265000D02*
X56560000Y-94265000D01*
X56560000Y-94265000D02*
X56550000Y-94275000D01*
%TD*%
%TA.AperFunction,Conductor*%
%TO.N,+3V3*%
G36*
X59434121Y-50528002D02*
G01*
X59480614Y-50581658D01*
X59492000Y-50634000D01*
X59492000Y-90626758D01*
X59471998Y-90694879D01*
X59418342Y-90741372D01*
X59348068Y-90751476D01*
X59283488Y-90721982D01*
X59276905Y-90715853D01*
X56780405Y-88219354D01*
X56746380Y-88157042D01*
X56743500Y-88130259D01*
X56743500Y-86370569D01*
X56764552Y-86300842D01*
X56844990Y-86179773D01*
X56848891Y-86173902D01*
X56909319Y-86014825D01*
X56933001Y-85846313D01*
X56933299Y-85825000D01*
X56914331Y-85655892D01*
X56908063Y-85637891D01*
X56860686Y-85501846D01*
X56858368Y-85495189D01*
X56852383Y-85485610D01*
X56830420Y-85450464D01*
X56768192Y-85350879D01*
X56648286Y-85230132D01*
X56632039Y-85219821D01*
X56592645Y-85194821D01*
X56504608Y-85138951D01*
X56344300Y-85081868D01*
X56175329Y-85061720D01*
X56168326Y-85062456D01*
X56168325Y-85062456D01*
X56013101Y-85078770D01*
X56013097Y-85078771D01*
X56006093Y-85079507D01*
X55999422Y-85081778D01*
X55851673Y-85132075D01*
X55851670Y-85132076D01*
X55845003Y-85134346D01*
X55839005Y-85138036D01*
X55839003Y-85138037D01*
X55706065Y-85219821D01*
X55706063Y-85219823D01*
X55700066Y-85223512D01*
X55578486Y-85342573D01*
X55574675Y-85348487D01*
X55574673Y-85348489D01*
X55498148Y-85467232D01*
X55486304Y-85485610D01*
X55483894Y-85492232D01*
X55435848Y-85624238D01*
X55428103Y-85645516D01*
X55406775Y-85814343D01*
X55423381Y-85983699D01*
X55477094Y-86145167D01*
X55480741Y-86151189D01*
X55480742Y-86151191D01*
X55494497Y-86173902D01*
X55565246Y-86290723D01*
X55570141Y-86295792D01*
X55570329Y-86296036D01*
X55596045Y-86362212D01*
X55596500Y-86372914D01*
X55596500Y-88374150D01*
X55595422Y-88390596D01*
X55591551Y-88420000D01*
X55596500Y-88457592D01*
X55611261Y-88569714D01*
X55669048Y-88709224D01*
X55715012Y-88769125D01*
X55755946Y-88822472D01*
X55755949Y-88822475D01*
X55760975Y-88829025D01*
X55767530Y-88834055D01*
X55784510Y-88847085D01*
X55796901Y-88857952D01*
X59039595Y-92100647D01*
X59073621Y-92162959D01*
X59076500Y-92189742D01*
X59076500Y-93411691D01*
X59056498Y-93479812D01*
X59002842Y-93526305D01*
X58932568Y-93536409D01*
X58908234Y-93530390D01*
X58890945Y-93524234D01*
X58890944Y-93524234D01*
X58884300Y-93521868D01*
X58715329Y-93501720D01*
X58708326Y-93502456D01*
X58708325Y-93502456D01*
X58553101Y-93518770D01*
X58553097Y-93518771D01*
X58546093Y-93519507D01*
X58539422Y-93521778D01*
X58391673Y-93572075D01*
X58391670Y-93572076D01*
X58385003Y-93574346D01*
X58379005Y-93578036D01*
X58379003Y-93578037D01*
X58368748Y-93584346D01*
X58240066Y-93663512D01*
X58238119Y-93665419D01*
X58173713Y-93690967D01*
X58162133Y-93691500D01*
X57082805Y-93691500D01*
X57015291Y-93671885D01*
X56955272Y-93633796D01*
X56884608Y-93588951D01*
X56783859Y-93553076D01*
X56726395Y-93511382D01*
X56700595Y-93445239D01*
X56714650Y-93375648D01*
X56764098Y-93324702D01*
X56780146Y-93317066D01*
X56790155Y-93313143D01*
X56988778Y-93215838D01*
X56997636Y-93210559D01*
X57055097Y-93169572D01*
X57063497Y-93158874D01*
X57056510Y-93145721D01*
X56282811Y-92372021D01*
X56268868Y-92364408D01*
X56267034Y-92364539D01*
X56260420Y-92368790D01*
X55480180Y-93149031D01*
X55473423Y-93161406D01*
X55478704Y-93168461D01*
X55655080Y-93271527D01*
X55664363Y-93275974D01*
X55871003Y-93354883D01*
X55880901Y-93357759D01*
X56102716Y-93402887D01*
X56102265Y-93405104D01*
X56158798Y-93429295D01*
X56198608Y-93488080D01*
X56200318Y-93559056D01*
X56163383Y-93619688D01*
X56144627Y-93633794D01*
X56080066Y-93673512D01*
X55958486Y-93792573D01*
X55866304Y-93935610D01*
X55808103Y-94095516D01*
X55786775Y-94264343D01*
X55803381Y-94433699D01*
X55857094Y-94595167D01*
X55945246Y-94740723D01*
X56063455Y-94863132D01*
X56069351Y-94866990D01*
X56184669Y-94942452D01*
X56205846Y-94956310D01*
X56212450Y-94958766D01*
X56212452Y-94958767D01*
X56248844Y-94972301D01*
X56365341Y-95015626D01*
X56534015Y-95038132D01*
X56541026Y-95037494D01*
X56541030Y-95037494D01*
X56696462Y-95023348D01*
X56703483Y-95022709D01*
X56710185Y-95020531D01*
X56710187Y-95020531D01*
X56858623Y-94972301D01*
X56858626Y-94972300D01*
X56865322Y-94970124D01*
X57011490Y-94882990D01*
X57016590Y-94878133D01*
X57016593Y-94878131D01*
X57021715Y-94873254D01*
X57084840Y-94840762D01*
X57108606Y-94838500D01*
X58163533Y-94838500D01*
X58232526Y-94859068D01*
X58261658Y-94878131D01*
X58365846Y-94946310D01*
X58372450Y-94948766D01*
X58372452Y-94948767D01*
X58435733Y-94972301D01*
X58525341Y-95005626D01*
X58694015Y-95028132D01*
X58701026Y-95027494D01*
X58701030Y-95027494D01*
X58856462Y-95013348D01*
X58863483Y-95012709D01*
X58911566Y-94997086D01*
X58982530Y-94995058D01*
X59043329Y-95031720D01*
X59074654Y-95095432D01*
X59076500Y-95116919D01*
X59076500Y-113960259D01*
X59056498Y-114028380D01*
X59039595Y-114049354D01*
X58474354Y-114614595D01*
X58412042Y-114648621D01*
X58385259Y-114651500D01*
X58097980Y-114651500D01*
X58029859Y-114631498D01*
X58029099Y-114630950D01*
X58028286Y-114630132D01*
X57884608Y-114538951D01*
X57724300Y-114481868D01*
X57555329Y-114461720D01*
X57548326Y-114462456D01*
X57548325Y-114462456D01*
X57393101Y-114478770D01*
X57393097Y-114478771D01*
X57386093Y-114479507D01*
X57379422Y-114481778D01*
X57231673Y-114532075D01*
X57231670Y-114532076D01*
X57225003Y-114534346D01*
X57219005Y-114538036D01*
X57219003Y-114538037D01*
X57086065Y-114619821D01*
X57086063Y-114619823D01*
X57080066Y-114623512D01*
X56958486Y-114742573D01*
X56866304Y-114885610D01*
X56808103Y-115045516D01*
X56786775Y-115214343D01*
X56803381Y-115383699D01*
X56805605Y-115390384D01*
X56805605Y-115390385D01*
X56820162Y-115434146D01*
X56857094Y-115545167D01*
X56860741Y-115551189D01*
X56860742Y-115551191D01*
X56939875Y-115681854D01*
X56945246Y-115690723D01*
X57063455Y-115813132D01*
X57205846Y-115906310D01*
X57212450Y-115908766D01*
X57212452Y-115908767D01*
X57248844Y-115922301D01*
X57365341Y-115965626D01*
X57534015Y-115988132D01*
X57541026Y-115987494D01*
X57541030Y-115987494D01*
X57696462Y-115973348D01*
X57703483Y-115972709D01*
X57710185Y-115970531D01*
X57710187Y-115970531D01*
X57858623Y-115922301D01*
X57858626Y-115922300D01*
X57865322Y-115920124D01*
X58011490Y-115832990D01*
X58016592Y-115828131D01*
X58021853Y-115824138D01*
X58088207Y-115798884D01*
X58098034Y-115798500D01*
X58629150Y-115798500D01*
X58645597Y-115799578D01*
X58675000Y-115803449D01*
X58683188Y-115802371D01*
X58704404Y-115799578D01*
X58744586Y-115794288D01*
X58824714Y-115783739D01*
X58964224Y-115725952D01*
X59035995Y-115670880D01*
X59077472Y-115639054D01*
X59077475Y-115639051D01*
X59084025Y-115634025D01*
X59089055Y-115627470D01*
X59102085Y-115610490D01*
X59112952Y-115598099D01*
X59276905Y-115434146D01*
X59339217Y-115400120D01*
X59410032Y-115405185D01*
X59466868Y-115447732D01*
X59491679Y-115514252D01*
X59492000Y-115523241D01*
X59492000Y-159366000D01*
X59471998Y-159434121D01*
X59418342Y-159480614D01*
X59366000Y-159492000D01*
X50634000Y-159492000D01*
X50565879Y-159471998D01*
X50519386Y-159418342D01*
X50508000Y-159366000D01*
X50508000Y-157107655D01*
X53239858Y-157107655D01*
X53275104Y-157366638D01*
X53276412Y-157371124D01*
X53276412Y-157371126D01*
X53296098Y-157438664D01*
X53348243Y-157617567D01*
X53457668Y-157854928D01*
X53460231Y-157858837D01*
X53598410Y-158069596D01*
X53598414Y-158069601D01*
X53600976Y-158073509D01*
X53775018Y-158268506D01*
X53975970Y-158435637D01*
X53979973Y-158438066D01*
X54195422Y-158568804D01*
X54195426Y-158568806D01*
X54199419Y-158571229D01*
X54440455Y-158672303D01*
X54693783Y-158736641D01*
X54698434Y-158737109D01*
X54698438Y-158737110D01*
X54891308Y-158756531D01*
X54910867Y-158758500D01*
X55066354Y-158758500D01*
X55068679Y-158758327D01*
X55068685Y-158758327D01*
X55256000Y-158744407D01*
X55256004Y-158744406D01*
X55260652Y-158744061D01*
X55265200Y-158743032D01*
X55265206Y-158743031D01*
X55451601Y-158700853D01*
X55515577Y-158686377D01*
X55551769Y-158672303D01*
X55754824Y-158593340D01*
X55754827Y-158593339D01*
X55759177Y-158591647D01*
X55986098Y-158461951D01*
X56191357Y-158300138D01*
X56370443Y-158109763D01*
X56519424Y-157895009D01*
X56635025Y-157660593D01*
X56714707Y-157411665D01*
X56756721Y-157153693D01*
X56760142Y-156892345D01*
X56724896Y-156633362D01*
X56710473Y-156583877D01*
X56653068Y-156386932D01*
X56651757Y-156382433D01*
X56542332Y-156145072D01*
X56509519Y-156095024D01*
X56401590Y-155930404D01*
X56401586Y-155930399D01*
X56399024Y-155926491D01*
X56224982Y-155731494D01*
X56024030Y-155564363D01*
X55976844Y-155535730D01*
X55804578Y-155431196D01*
X55804574Y-155431194D01*
X55800581Y-155428771D01*
X55559545Y-155327697D01*
X55306217Y-155263359D01*
X55301566Y-155262891D01*
X55301562Y-155262890D01*
X55092271Y-155241816D01*
X55089133Y-155241500D01*
X54933646Y-155241500D01*
X54931321Y-155241673D01*
X54931315Y-155241673D01*
X54744000Y-155255593D01*
X54743996Y-155255594D01*
X54739348Y-155255939D01*
X54734800Y-155256968D01*
X54734794Y-155256969D01*
X54548399Y-155299147D01*
X54484423Y-155313623D01*
X54480071Y-155315315D01*
X54480069Y-155315316D01*
X54245176Y-155406660D01*
X54245173Y-155406661D01*
X54240823Y-155408353D01*
X54013902Y-155538049D01*
X53808643Y-155699862D01*
X53629557Y-155890237D01*
X53480576Y-156104991D01*
X53364975Y-156339407D01*
X53285293Y-156588335D01*
X53243279Y-156846307D01*
X53239858Y-157107655D01*
X50508000Y-157107655D01*
X50508000Y-149358985D01*
X50528002Y-149290864D01*
X50581658Y-149244371D01*
X50651932Y-149234267D01*
X50716512Y-149263761D01*
X50741775Y-149293712D01*
X50770246Y-149340723D01*
X50888455Y-149463132D01*
X51030846Y-149556310D01*
X51037450Y-149558766D01*
X51037452Y-149558767D01*
X51102785Y-149583064D01*
X51190341Y-149615626D01*
X51359015Y-149638132D01*
X51366026Y-149637494D01*
X51366030Y-149637494D01*
X51521462Y-149623348D01*
X51528483Y-149622709D01*
X51535185Y-149620531D01*
X51535187Y-149620531D01*
X51683623Y-149572301D01*
X51683626Y-149572300D01*
X51690322Y-149570124D01*
X51836490Y-149482990D01*
X51841584Y-149478139D01*
X51841588Y-149478136D01*
X51908833Y-149414099D01*
X51959721Y-149365639D01*
X52053891Y-149223902D01*
X52114319Y-149064825D01*
X52119668Y-149026762D01*
X52148955Y-148962088D01*
X52155347Y-148955202D01*
X52717006Y-148393543D01*
X52779318Y-148359517D01*
X52850133Y-148364582D01*
X52906969Y-148407129D01*
X52931780Y-148473649D01*
X52916689Y-148543023D01*
X52912014Y-148550891D01*
X52841304Y-148660610D01*
X52783103Y-148820516D01*
X52761775Y-148989343D01*
X52778381Y-149158699D01*
X52780605Y-149165384D01*
X52780605Y-149165385D01*
X52800071Y-149223902D01*
X52832094Y-149320167D01*
X52835741Y-149326189D01*
X52835742Y-149326191D01*
X52915608Y-149458064D01*
X52920246Y-149465723D01*
X53038455Y-149588132D01*
X53044351Y-149591990D01*
X53143032Y-149656565D01*
X53180846Y-149681310D01*
X53187450Y-149683766D01*
X53187452Y-149683767D01*
X53260593Y-149710968D01*
X53340341Y-149740626D01*
X53377653Y-149745604D01*
X53442529Y-149774439D01*
X53481518Y-149833771D01*
X53486989Y-149870497D01*
X53486989Y-151589639D01*
X53485911Y-151606085D01*
X53482040Y-151635489D01*
X53486989Y-151673081D01*
X53501750Y-151785203D01*
X53559537Y-151924713D01*
X53645622Y-152036900D01*
X53671222Y-152103120D01*
X53660766Y-152164853D01*
X53607298Y-152284944D01*
X53566500Y-152476885D01*
X53566500Y-152673115D01*
X53607298Y-152865056D01*
X53687112Y-153044321D01*
X53802453Y-153203074D01*
X53948280Y-153334377D01*
X54118220Y-153432492D01*
X54124506Y-153434534D01*
X54124505Y-153434534D01*
X54298566Y-153491090D01*
X54298567Y-153491090D01*
X54304845Y-153493130D01*
X54311408Y-153493820D01*
X54311409Y-153493820D01*
X54334405Y-153496237D01*
X54451078Y-153508500D01*
X55548922Y-153508500D01*
X55665595Y-153496237D01*
X55688591Y-153493820D01*
X55688592Y-153493820D01*
X55695155Y-153493130D01*
X55701433Y-153491090D01*
X55701434Y-153491090D01*
X55875495Y-153434534D01*
X55875494Y-153434534D01*
X55881780Y-153432492D01*
X56051720Y-153334377D01*
X56197547Y-153203074D01*
X56312888Y-153044321D01*
X56392702Y-152865056D01*
X56433500Y-152673115D01*
X56433500Y-152476885D01*
X56392702Y-152284944D01*
X56312888Y-152105679D01*
X56197547Y-151946926D01*
X56051720Y-151815623D01*
X55881780Y-151717508D01*
X55804059Y-151692255D01*
X55701434Y-151658910D01*
X55701433Y-151658910D01*
X55695155Y-151656870D01*
X55688592Y-151656180D01*
X55688591Y-151656180D01*
X55665595Y-151653763D01*
X55548922Y-151641500D01*
X54929741Y-151641500D01*
X54861620Y-151621498D01*
X54840646Y-151604595D01*
X54679646Y-151443595D01*
X54645620Y-151381283D01*
X54650685Y-151310468D01*
X54693232Y-151253632D01*
X54759752Y-151228821D01*
X54768741Y-151228500D01*
X55248134Y-151228500D01*
X55310316Y-151221745D01*
X55446705Y-151170615D01*
X55563261Y-151083261D01*
X55650615Y-150966705D01*
X55701745Y-150830316D01*
X55708500Y-150768134D01*
X55708500Y-150704500D01*
X55728502Y-150636379D01*
X55782158Y-150589886D01*
X55834500Y-150578500D01*
X55877589Y-150578500D01*
X55884042Y-150577128D01*
X55884046Y-150577128D01*
X55973046Y-150558210D01*
X56068503Y-150537920D01*
X56074534Y-150535235D01*
X56240777Y-150461218D01*
X56240779Y-150461217D01*
X56246807Y-150458533D01*
X56404710Y-150343810D01*
X56535310Y-150198765D01*
X56632899Y-150029735D01*
X56693212Y-149844109D01*
X56703566Y-149745604D01*
X56712924Y-149656565D01*
X56713614Y-149650000D01*
X56712924Y-149643435D01*
X56712924Y-149636830D01*
X56714194Y-149636830D01*
X56725721Y-149573811D01*
X56749162Y-149541387D01*
X56996234Y-149294315D01*
X57008625Y-149283448D01*
X57027437Y-149269013D01*
X57033987Y-149263987D01*
X57058474Y-149232075D01*
X57058480Y-149232069D01*
X57126496Y-149143429D01*
X57126497Y-149143427D01*
X57131524Y-149136876D01*
X57192838Y-148988851D01*
X57201013Y-148926754D01*
X57208500Y-148869885D01*
X57208500Y-148869880D01*
X57213750Y-148830000D01*
X57209578Y-148798307D01*
X57208500Y-148781864D01*
X57208500Y-148373182D01*
X57228502Y-148305061D01*
X57282158Y-148258568D01*
X57352432Y-148248464D01*
X57380478Y-148257300D01*
X57380846Y-148256310D01*
X57540341Y-148315626D01*
X57709015Y-148338132D01*
X57716026Y-148337494D01*
X57716030Y-148337494D01*
X57871462Y-148323348D01*
X57878483Y-148322709D01*
X57885185Y-148320531D01*
X57885187Y-148320531D01*
X58033623Y-148272301D01*
X58033626Y-148272300D01*
X58040322Y-148270124D01*
X58186490Y-148182990D01*
X58191584Y-148178139D01*
X58191588Y-148178136D01*
X58281810Y-148092218D01*
X58309721Y-148065639D01*
X58403891Y-147923902D01*
X58464319Y-147764825D01*
X58488001Y-147596313D01*
X58488299Y-147575000D01*
X58469331Y-147405892D01*
X58413368Y-147245189D01*
X58352645Y-147148013D01*
X58333500Y-147081245D01*
X58333500Y-145683877D01*
X58334578Y-145667431D01*
X58337672Y-145643929D01*
X58338750Y-145635741D01*
X58333500Y-145595861D01*
X58333500Y-145595856D01*
X58317838Y-145476891D01*
X58317838Y-145476890D01*
X58256524Y-145328865D01*
X58183478Y-145233670D01*
X58183474Y-145233666D01*
X58183471Y-145233662D01*
X58164016Y-145208307D01*
X58164013Y-145208304D01*
X58158987Y-145201754D01*
X58152432Y-145196724D01*
X58133621Y-145182289D01*
X58121230Y-145171422D01*
X56915405Y-143965597D01*
X56881379Y-143903285D01*
X56878500Y-143876502D01*
X56878500Y-142548999D01*
X56898502Y-142480878D01*
X56949065Y-142435850D01*
X56993684Y-142413991D01*
X57182243Y-142279494D01*
X57346303Y-142116005D01*
X57481458Y-141927917D01*
X57584078Y-141720280D01*
X57651408Y-141498671D01*
X57681640Y-141269041D01*
X57683327Y-141200000D01*
X57672919Y-141073402D01*
X57664773Y-140974318D01*
X57664772Y-140974312D01*
X57664349Y-140969167D01*
X57607925Y-140744533D01*
X57582096Y-140685130D01*
X57517630Y-140536868D01*
X57517628Y-140536865D01*
X57515570Y-140532131D01*
X57389764Y-140337665D01*
X57233887Y-140166358D01*
X57229836Y-140163159D01*
X57229832Y-140163155D01*
X57056177Y-140026011D01*
X57056172Y-140026008D01*
X57052123Y-140022810D01*
X57047608Y-140020317D01*
X57047595Y-140020309D01*
X56943606Y-139962904D01*
X56893636Y-139912472D01*
X56878500Y-139852596D01*
X56878500Y-135225985D01*
X56879237Y-135212378D01*
X56883131Y-135176533D01*
X56883131Y-135176529D01*
X56883500Y-135173134D01*
X56883500Y-133476866D01*
X56876745Y-133414684D01*
X56825615Y-133278295D01*
X56738261Y-133161739D01*
X56621705Y-133074385D01*
X56613296Y-133071233D01*
X56613295Y-133071232D01*
X56563638Y-133052617D01*
X56517223Y-133035217D01*
X56460459Y-132992576D01*
X56435759Y-132926015D01*
X56450966Y-132856666D01*
X56472358Y-132828140D01*
X56631198Y-132669300D01*
X56762523Y-132481749D01*
X56764846Y-132476767D01*
X56764849Y-132476762D01*
X56856961Y-132279225D01*
X56856961Y-132279224D01*
X56859284Y-132274243D01*
X56918543Y-132053087D01*
X56938498Y-131825000D01*
X56918543Y-131596913D01*
X56859284Y-131375757D01*
X56856961Y-131370775D01*
X56764849Y-131173238D01*
X56764846Y-131173233D01*
X56762523Y-131168251D01*
X56631198Y-130980700D01*
X56564593Y-130914095D01*
X56530567Y-130851783D01*
X56535632Y-130780968D01*
X56564593Y-130735905D01*
X56631198Y-130669300D01*
X56762523Y-130481749D01*
X56764846Y-130476767D01*
X56764849Y-130476762D01*
X56856961Y-130279225D01*
X56856961Y-130279224D01*
X56859284Y-130274243D01*
X56918543Y-130053087D01*
X56938498Y-129825000D01*
X56918543Y-129596913D01*
X56859284Y-129375757D01*
X56790590Y-129228441D01*
X56764849Y-129173238D01*
X56764846Y-129173233D01*
X56762523Y-129168251D01*
X56631198Y-128980700D01*
X56469300Y-128818802D01*
X56464792Y-128815645D01*
X56464789Y-128815643D01*
X56286253Y-128690631D01*
X56281749Y-128687477D01*
X56276767Y-128685154D01*
X56274973Y-128684118D01*
X56225981Y-128632734D01*
X56212546Y-128563021D01*
X56238934Y-128497110D01*
X56274973Y-128465882D01*
X56276767Y-128464846D01*
X56281749Y-128462523D01*
X56361124Y-128406944D01*
X56464789Y-128334357D01*
X56464792Y-128334355D01*
X56469300Y-128331198D01*
X56631198Y-128169300D01*
X56762523Y-127981749D01*
X56764846Y-127976767D01*
X56764849Y-127976762D01*
X56856961Y-127779225D01*
X56856961Y-127779224D01*
X56859284Y-127774243D01*
X56918543Y-127553087D01*
X56938498Y-127325000D01*
X56918543Y-127096913D01*
X56859284Y-126875757D01*
X56856961Y-126870775D01*
X56764849Y-126673238D01*
X56764846Y-126673233D01*
X56762523Y-126668251D01*
X56631198Y-126480700D01*
X56469300Y-126318802D01*
X56464792Y-126315645D01*
X56464789Y-126315643D01*
X56372190Y-126250805D01*
X56281749Y-126187477D01*
X56276767Y-126185154D01*
X56276762Y-126185151D01*
X56079225Y-126093039D01*
X56079224Y-126093039D01*
X56074243Y-126090716D01*
X56068935Y-126089294D01*
X56068933Y-126089293D01*
X55858402Y-126032881D01*
X55858400Y-126032881D01*
X55853087Y-126031457D01*
X55625000Y-126011502D01*
X55396913Y-126031457D01*
X55391600Y-126032881D01*
X55391598Y-126032881D01*
X55181067Y-126089293D01*
X55181065Y-126089294D01*
X55175757Y-126090716D01*
X55170776Y-126093039D01*
X55170775Y-126093039D01*
X54973238Y-126185151D01*
X54973233Y-126185154D01*
X54968251Y-126187477D01*
X54877810Y-126250805D01*
X54785211Y-126315643D01*
X54785208Y-126315645D01*
X54780700Y-126318802D01*
X54618802Y-126480700D01*
X54487477Y-126668251D01*
X54485154Y-126673233D01*
X54485151Y-126673238D01*
X54393039Y-126870775D01*
X54390716Y-126875757D01*
X54331457Y-127096913D01*
X54311502Y-127325000D01*
X54331457Y-127553087D01*
X54390716Y-127774243D01*
X54393039Y-127779224D01*
X54393039Y-127779225D01*
X54485151Y-127976762D01*
X54485154Y-127976767D01*
X54487477Y-127981749D01*
X54618802Y-128169300D01*
X54780700Y-128331198D01*
X54785208Y-128334355D01*
X54785211Y-128334357D01*
X54888876Y-128406944D01*
X54968251Y-128462523D01*
X54973233Y-128464846D01*
X54975027Y-128465882D01*
X55024019Y-128517266D01*
X55037454Y-128586979D01*
X55011066Y-128652890D01*
X54975027Y-128684118D01*
X54973233Y-128685154D01*
X54968251Y-128687477D01*
X54963747Y-128690631D01*
X54785211Y-128815643D01*
X54785208Y-128815645D01*
X54780700Y-128818802D01*
X54618802Y-128980700D01*
X54487477Y-129168251D01*
X54485154Y-129173233D01*
X54485151Y-129173238D01*
X54459410Y-129228441D01*
X54390716Y-129375757D01*
X54331457Y-129596913D01*
X54311502Y-129825000D01*
X54331457Y-130053087D01*
X54390716Y-130274243D01*
X54393039Y-130279224D01*
X54393039Y-130279225D01*
X54485151Y-130476762D01*
X54485154Y-130476767D01*
X54487477Y-130481749D01*
X54618802Y-130669300D01*
X54685407Y-130735905D01*
X54719433Y-130798217D01*
X54714368Y-130869032D01*
X54685407Y-130914095D01*
X54618802Y-130980700D01*
X54487477Y-131168251D01*
X54485154Y-131173233D01*
X54485151Y-131173238D01*
X54393039Y-131370775D01*
X54390716Y-131375757D01*
X54331457Y-131596913D01*
X54311502Y-131825000D01*
X54331457Y-132053087D01*
X54390716Y-132274243D01*
X54393039Y-132279224D01*
X54393039Y-132279225D01*
X54485151Y-132476762D01*
X54485154Y-132476767D01*
X54487477Y-132481749D01*
X54618802Y-132669300D01*
X54777642Y-132828140D01*
X54811668Y-132890452D01*
X54806603Y-132961267D01*
X54764056Y-133018103D01*
X54732777Y-133035216D01*
X54686362Y-133052617D01*
X54636705Y-133071232D01*
X54636704Y-133071233D01*
X54628295Y-133074385D01*
X54511739Y-133161739D01*
X54424385Y-133278295D01*
X54373255Y-133414684D01*
X54366500Y-133476866D01*
X54366500Y-135173134D01*
X54373255Y-135235316D01*
X54424385Y-135371705D01*
X54511739Y-135488261D01*
X54628295Y-135575615D01*
X54764684Y-135626745D01*
X54826866Y-135633500D01*
X55535500Y-135633500D01*
X55603621Y-135653502D01*
X55650114Y-135707158D01*
X55661500Y-135759500D01*
X55661500Y-138028822D01*
X55641498Y-138096943D01*
X55587842Y-138143436D01*
X55517568Y-138153540D01*
X55452988Y-138124046D01*
X55435541Y-138105530D01*
X55432110Y-138101059D01*
X55432107Y-138101055D01*
X55414051Y-138077524D01*
X55414048Y-138077521D01*
X55409025Y-138070975D01*
X55402479Y-138065952D01*
X55402476Y-138065949D01*
X55385490Y-138052915D01*
X55373099Y-138042048D01*
X54956320Y-137625269D01*
X54922294Y-137562957D01*
X54919914Y-137524973D01*
X54927531Y-137439627D01*
X54927531Y-137439625D01*
X54927751Y-137437161D01*
X54928193Y-137395000D01*
X54909567Y-137121778D01*
X54854032Y-136853612D01*
X54762617Y-136595465D01*
X54637013Y-136352112D01*
X54479545Y-136128057D01*
X54293125Y-135927445D01*
X54289810Y-135924731D01*
X54289806Y-135924728D01*
X54084523Y-135756706D01*
X54081205Y-135753990D01*
X53847704Y-135610901D01*
X53843768Y-135609173D01*
X53623854Y-135512637D01*
X53569519Y-135466941D01*
X53548500Y-135397264D01*
X53548500Y-126250805D01*
X53568502Y-126182684D01*
X53626282Y-126134396D01*
X53726126Y-126093039D01*
X53810136Y-126058241D01*
X54046582Y-125920073D01*
X54262089Y-125751094D01*
X54303809Y-125708043D01*
X54449686Y-125557509D01*
X54452669Y-125554431D01*
X54455202Y-125550983D01*
X54455206Y-125550978D01*
X54612257Y-125337178D01*
X54614795Y-125333723D01*
X54639191Y-125288791D01*
X54743418Y-125096830D01*
X54743419Y-125096828D01*
X54745468Y-125093054D01*
X54842269Y-124836877D01*
X54903407Y-124569933D01*
X54927751Y-124297161D01*
X54928193Y-124255000D01*
X54909567Y-123981778D01*
X54854032Y-123713612D01*
X54762617Y-123455465D01*
X54637013Y-123212112D01*
X54624380Y-123194136D01*
X54482008Y-122991562D01*
X54479545Y-122988057D01*
X54293125Y-122787445D01*
X54289810Y-122784731D01*
X54289806Y-122784728D01*
X54084523Y-122616706D01*
X54081205Y-122613990D01*
X53847704Y-122470901D01*
X53843768Y-122469173D01*
X53600873Y-122362549D01*
X53600869Y-122362548D01*
X53596945Y-122360825D01*
X53333566Y-122285800D01*
X53329324Y-122285196D01*
X53329318Y-122285195D01*
X53128834Y-122256662D01*
X53062443Y-122247213D01*
X52918589Y-122246460D01*
X52792877Y-122245802D01*
X52792871Y-122245802D01*
X52788591Y-122245780D01*
X52784347Y-122246339D01*
X52784343Y-122246339D01*
X52665302Y-122262011D01*
X52517078Y-122281525D01*
X52512938Y-122282658D01*
X52512936Y-122282658D01*
X52440008Y-122302609D01*
X52252928Y-122353788D01*
X52248980Y-122355472D01*
X52004982Y-122459546D01*
X52004978Y-122459548D01*
X52001030Y-122461232D01*
X51981125Y-122473145D01*
X51769725Y-122599664D01*
X51769721Y-122599667D01*
X51766043Y-122601868D01*
X51552318Y-122773094D01*
X51363808Y-122971742D01*
X51204002Y-123194136D01*
X51201999Y-123197920D01*
X51201991Y-123197932D01*
X51195854Y-123209523D01*
X51146302Y-123260366D01*
X51077127Y-123276348D01*
X51010294Y-123252394D01*
X50967020Y-123196110D01*
X50958500Y-123150564D01*
X50958500Y-114385672D01*
X50978502Y-114317551D01*
X51019982Y-114277443D01*
X51045277Y-114262364D01*
X51136490Y-114207990D01*
X51141584Y-114203139D01*
X51141588Y-114203136D01*
X51234833Y-114114339D01*
X51259721Y-114090639D01*
X51264235Y-114083846D01*
X51341951Y-113966873D01*
X51353891Y-113948902D01*
X51414319Y-113789825D01*
X51438001Y-113621313D01*
X51438299Y-113600000D01*
X51419331Y-113430892D01*
X51363368Y-113270189D01*
X51273192Y-113125879D01*
X51153286Y-113005132D01*
X51009608Y-112913951D01*
X50849300Y-112856868D01*
X50680329Y-112836720D01*
X50673326Y-112837456D01*
X50673325Y-112837456D01*
X50647170Y-112840205D01*
X50577332Y-112827433D01*
X50525485Y-112778930D01*
X50508000Y-112714895D01*
X50508000Y-111952400D01*
X50528002Y-111884279D01*
X50581658Y-111837786D01*
X50644970Y-111828355D01*
X50644987Y-111827542D01*
X50649757Y-111827642D01*
X50650662Y-111827507D01*
X50652030Y-111827689D01*
X50659015Y-111828621D01*
X50666026Y-111827983D01*
X50666030Y-111827983D01*
X50821462Y-111813837D01*
X50828483Y-111813198D01*
X50835185Y-111811020D01*
X50835187Y-111811020D01*
X50983623Y-111762790D01*
X50983626Y-111762789D01*
X50990322Y-111760613D01*
X51136490Y-111673479D01*
X51141584Y-111668628D01*
X51141588Y-111668625D01*
X51208833Y-111604588D01*
X51259721Y-111556128D01*
X51353891Y-111414391D01*
X51414319Y-111255314D01*
X51438001Y-111086802D01*
X51438299Y-111065489D01*
X51419331Y-110896381D01*
X51363368Y-110735678D01*
X51273192Y-110591368D01*
X51185582Y-110503144D01*
X51151776Y-110440714D01*
X51148989Y-110414361D01*
X51148989Y-86899511D01*
X51916739Y-86899511D01*
X51917817Y-86907699D01*
X51920911Y-86931201D01*
X51921989Y-86947647D01*
X51921989Y-113876937D01*
X51921480Y-113887107D01*
X51919801Y-113894252D01*
X51920057Y-113902506D01*
X51921929Y-113962973D01*
X51921989Y-113966873D01*
X51921989Y-113995374D01*
X51922526Y-113999455D01*
X51922730Y-114002567D01*
X51923417Y-114011033D01*
X51924760Y-114054397D01*
X51930689Y-114074067D01*
X51934971Y-114093980D01*
X51937651Y-114114339D01*
X51954248Y-114154408D01*
X51958476Y-114166259D01*
X51968615Y-114199894D01*
X51968617Y-114199898D01*
X51970999Y-114207801D01*
X51975345Y-114214818D01*
X51975346Y-114214820D01*
X51981815Y-114225264D01*
X51991103Y-114243384D01*
X51998965Y-114262364D01*
X52003995Y-114268919D01*
X52003996Y-114268921D01*
X52025372Y-114296779D01*
X52030172Y-114303726D01*
X52032006Y-114306295D01*
X52034183Y-114309810D01*
X52052240Y-114331891D01*
X52054654Y-114334938D01*
X52096502Y-114389476D01*
X52102323Y-114393943D01*
X52109157Y-114401496D01*
X53538956Y-116150000D01*
X53541933Y-116153641D01*
X53569792Y-116221106D01*
X53578381Y-116308699D01*
X53632094Y-116470167D01*
X53635741Y-116476189D01*
X53635742Y-116476191D01*
X53649497Y-116498902D01*
X53720246Y-116615723D01*
X53838455Y-116738132D01*
X53980846Y-116831310D01*
X53987450Y-116833766D01*
X53987452Y-116833767D01*
X54023844Y-116847301D01*
X54140341Y-116890626D01*
X54309015Y-116913132D01*
X54316026Y-116912494D01*
X54316030Y-116912494D01*
X54471462Y-116898348D01*
X54478483Y-116897709D01*
X54485185Y-116895531D01*
X54485187Y-116895531D01*
X54633623Y-116847301D01*
X54633626Y-116847300D01*
X54640322Y-116845124D01*
X54786490Y-116757990D01*
X54791584Y-116753139D01*
X54791588Y-116753136D01*
X54858833Y-116689099D01*
X54909721Y-116640639D01*
X55003891Y-116498902D01*
X55064319Y-116339825D01*
X55088001Y-116171313D01*
X55088299Y-116150000D01*
X55069331Y-115980892D01*
X55066482Y-115972709D01*
X55015686Y-115826846D01*
X55013368Y-115820189D01*
X55008959Y-115813132D01*
X54935632Y-115695787D01*
X54923192Y-115675879D01*
X54886624Y-115639054D01*
X54808248Y-115560129D01*
X54803286Y-115555132D01*
X54659608Y-115463951D01*
X54538093Y-115420682D01*
X54482821Y-115381745D01*
X53167449Y-113773174D01*
X53139811Y-113707778D01*
X53138989Y-113693413D01*
X53138989Y-104574823D01*
X54326295Y-104574823D01*
X54342901Y-104744179D01*
X54396614Y-104905647D01*
X54484766Y-105051203D01*
X54602975Y-105173612D01*
X54745366Y-105266790D01*
X54751970Y-105269246D01*
X54751972Y-105269247D01*
X54788364Y-105282781D01*
X54904861Y-105326106D01*
X55073535Y-105348612D01*
X55080546Y-105347974D01*
X55080550Y-105347974D01*
X55235982Y-105333828D01*
X55243003Y-105333189D01*
X55249705Y-105331011D01*
X55249707Y-105331011D01*
X55398143Y-105282781D01*
X55398146Y-105282780D01*
X55404842Y-105280604D01*
X55551010Y-105193470D01*
X55556112Y-105188611D01*
X55561373Y-105184618D01*
X55627727Y-105159364D01*
X55637554Y-105158980D01*
X56170739Y-105158980D01*
X56238860Y-105178982D01*
X56259834Y-105195885D01*
X56939595Y-105875646D01*
X56973621Y-105937958D01*
X56976500Y-105964741D01*
X56976500Y-107052537D01*
X56956411Y-107120793D01*
X56866304Y-107260610D01*
X56808103Y-107420516D01*
X56786775Y-107589343D01*
X56803381Y-107758699D01*
X56857094Y-107920167D01*
X56860741Y-107926189D01*
X56860742Y-107926191D01*
X56874497Y-107948902D01*
X56945246Y-108065723D01*
X57063455Y-108188132D01*
X57205846Y-108281310D01*
X57212450Y-108283766D01*
X57212452Y-108283767D01*
X57248844Y-108297301D01*
X57365341Y-108340626D01*
X57534015Y-108363132D01*
X57541026Y-108362494D01*
X57541030Y-108362494D01*
X57696462Y-108348348D01*
X57703483Y-108347709D01*
X57710185Y-108345531D01*
X57710187Y-108345531D01*
X57858623Y-108297301D01*
X57858626Y-108297300D01*
X57865322Y-108295124D01*
X58011490Y-108207990D01*
X58016584Y-108203139D01*
X58016588Y-108203136D01*
X58083833Y-108139099D01*
X58134721Y-108090639D01*
X58228891Y-107948902D01*
X58289319Y-107789825D01*
X58313001Y-107621313D01*
X58313299Y-107600000D01*
X58294331Y-107430892D01*
X58238368Y-107270189D01*
X58234634Y-107264213D01*
X58151928Y-107131857D01*
X58151926Y-107131854D01*
X58148192Y-107125879D01*
X58148785Y-107125509D01*
X58124117Y-107064569D01*
X58123500Y-107052112D01*
X58123500Y-105720850D01*
X58124578Y-105704404D01*
X58127371Y-105683188D01*
X58128449Y-105675000D01*
X58108739Y-105525286D01*
X58050952Y-105385776D01*
X57982107Y-105296056D01*
X57959025Y-105265975D01*
X57952470Y-105260945D01*
X57935490Y-105247915D01*
X57923099Y-105237048D01*
X56898428Y-104212377D01*
X56887561Y-104199986D01*
X56874531Y-104183005D01*
X56869505Y-104176455D01*
X56749704Y-104084528D01*
X56610194Y-104026741D01*
X56498072Y-104011980D01*
X56460480Y-104007031D01*
X56452291Y-104008109D01*
X56431075Y-104010902D01*
X56414630Y-104011980D01*
X55637500Y-104011980D01*
X55569379Y-103991978D01*
X55568619Y-103991430D01*
X55567806Y-103990612D01*
X55424128Y-103899431D01*
X55263820Y-103842348D01*
X55094849Y-103822200D01*
X55087846Y-103822936D01*
X55087845Y-103822936D01*
X54932621Y-103839250D01*
X54932617Y-103839251D01*
X54925613Y-103839987D01*
X54918942Y-103842258D01*
X54771193Y-103892555D01*
X54771190Y-103892556D01*
X54764523Y-103894826D01*
X54758525Y-103898516D01*
X54758523Y-103898517D01*
X54625585Y-103980301D01*
X54625583Y-103980303D01*
X54619586Y-103983992D01*
X54614553Y-103988921D01*
X54511788Y-104089557D01*
X54498006Y-104103053D01*
X54405824Y-104246090D01*
X54347623Y-104405996D01*
X54326295Y-104574823D01*
X53138989Y-104574823D01*
X53138989Y-103534500D01*
X53158991Y-103466379D01*
X53212647Y-103419886D01*
X53264989Y-103408500D01*
X54678134Y-103408500D01*
X54740316Y-103401745D01*
X54876705Y-103350615D01*
X54993261Y-103263261D01*
X55069597Y-103161406D01*
X55473423Y-103161406D01*
X55478704Y-103168461D01*
X55655080Y-103271527D01*
X55664363Y-103275974D01*
X55871003Y-103354883D01*
X55880901Y-103357759D01*
X56097653Y-103401857D01*
X56107883Y-103403076D01*
X56328914Y-103411182D01*
X56339223Y-103410714D01*
X56558623Y-103382608D01*
X56568688Y-103380468D01*
X56780557Y-103316905D01*
X56790152Y-103313144D01*
X56988778Y-103215838D01*
X56997636Y-103210559D01*
X57055097Y-103169572D01*
X57063497Y-103158874D01*
X57056510Y-103145721D01*
X56282811Y-102372021D01*
X56268868Y-102364408D01*
X56267034Y-102364539D01*
X56260420Y-102368790D01*
X55480180Y-103149031D01*
X55473423Y-103161406D01*
X55069597Y-103161406D01*
X55080615Y-103146705D01*
X55131745Y-103010316D01*
X55138500Y-102948134D01*
X55138500Y-102824480D01*
X55158502Y-102756359D01*
X55175405Y-102735384D01*
X55897979Y-102012811D01*
X55904356Y-102001132D01*
X56634408Y-102001132D01*
X56634539Y-102002966D01*
X56638790Y-102009580D01*
X57416307Y-102787096D01*
X57428313Y-102793652D01*
X57440052Y-102784684D01*
X57478010Y-102731859D01*
X57483321Y-102723020D01*
X57581318Y-102524737D01*
X57585117Y-102515142D01*
X57649415Y-102303517D01*
X57651594Y-102293436D01*
X57680702Y-102072338D01*
X57681221Y-102065663D01*
X57682744Y-102003364D01*
X57682550Y-101996646D01*
X57664279Y-101774400D01*
X57662596Y-101764238D01*
X57608710Y-101549708D01*
X57605389Y-101539953D01*
X57517193Y-101337118D01*
X57512315Y-101328020D01*
X57439224Y-101215038D01*
X57428538Y-101205835D01*
X57418973Y-101210238D01*
X56642021Y-101987189D01*
X56634408Y-102001132D01*
X55904356Y-102001132D01*
X55905592Y-101998868D01*
X55905461Y-101997034D01*
X55901210Y-101990420D01*
X55175405Y-101264616D01*
X55141380Y-101202303D01*
X55138500Y-101175520D01*
X55138500Y-101051866D01*
X55131745Y-100989684D01*
X55080615Y-100853295D01*
X55071184Y-100840711D01*
X55475508Y-100840711D01*
X55482251Y-100853040D01*
X56257189Y-101627979D01*
X56271132Y-101635592D01*
X56272966Y-101635461D01*
X56279580Y-101631210D01*
X57058994Y-100851795D01*
X57066011Y-100838944D01*
X57058237Y-100828274D01*
X57055902Y-100826430D01*
X57047320Y-100820729D01*
X56853678Y-100713833D01*
X56844272Y-100709606D01*
X56635772Y-100635772D01*
X56625809Y-100633140D01*
X56408047Y-100594350D01*
X56397796Y-100593381D01*
X56176616Y-100590679D01*
X56166332Y-100591399D01*
X55947693Y-100624855D01*
X55937666Y-100627244D01*
X55727426Y-100695961D01*
X55717916Y-100699958D01*
X55521725Y-100802089D01*
X55513007Y-100807578D01*
X55483961Y-100829386D01*
X55475508Y-100840711D01*
X55071184Y-100840711D01*
X54993261Y-100736739D01*
X54876705Y-100649385D01*
X54740316Y-100598255D01*
X54678134Y-100591500D01*
X53264989Y-100591500D01*
X53196868Y-100571498D01*
X53150375Y-100517842D01*
X53138989Y-100465500D01*
X53138989Y-93534500D01*
X53158991Y-93466379D01*
X53212647Y-93419886D01*
X53264989Y-93408500D01*
X54678134Y-93408500D01*
X54740316Y-93401745D01*
X54876705Y-93350615D01*
X54993261Y-93263261D01*
X55080615Y-93146705D01*
X55131745Y-93010316D01*
X55138500Y-92948134D01*
X55138500Y-92824480D01*
X55158502Y-92756359D01*
X55175405Y-92735384D01*
X55897979Y-92012811D01*
X55904356Y-92001132D01*
X56634408Y-92001132D01*
X56634539Y-92002966D01*
X56638790Y-92009580D01*
X57416307Y-92787096D01*
X57428313Y-92793652D01*
X57440052Y-92784684D01*
X57478010Y-92731859D01*
X57483321Y-92723020D01*
X57581318Y-92524737D01*
X57585117Y-92515142D01*
X57649415Y-92303517D01*
X57651594Y-92293436D01*
X57680702Y-92072338D01*
X57681221Y-92065663D01*
X57682744Y-92003364D01*
X57682550Y-91996646D01*
X57664279Y-91774400D01*
X57662596Y-91764238D01*
X57608710Y-91549708D01*
X57605389Y-91539953D01*
X57517193Y-91337118D01*
X57512315Y-91328020D01*
X57439224Y-91215038D01*
X57428538Y-91205835D01*
X57418973Y-91210238D01*
X56642021Y-91987189D01*
X56634408Y-92001132D01*
X55904356Y-92001132D01*
X55905592Y-91998868D01*
X55905461Y-91997034D01*
X55901210Y-91990420D01*
X55175405Y-91264616D01*
X55141380Y-91202303D01*
X55138500Y-91175520D01*
X55138500Y-91051866D01*
X55131745Y-90989684D01*
X55080615Y-90853295D01*
X55071184Y-90840711D01*
X55475508Y-90840711D01*
X55482251Y-90853040D01*
X56257189Y-91627979D01*
X56271132Y-91635592D01*
X56272966Y-91635461D01*
X56279580Y-91631210D01*
X57058994Y-90851795D01*
X57066011Y-90838944D01*
X57058237Y-90828274D01*
X57055902Y-90826430D01*
X57047320Y-90820729D01*
X56853678Y-90713833D01*
X56844272Y-90709606D01*
X56635772Y-90635772D01*
X56625809Y-90633140D01*
X56408047Y-90594350D01*
X56397796Y-90593381D01*
X56176616Y-90590679D01*
X56166332Y-90591399D01*
X55947693Y-90624855D01*
X55937666Y-90627244D01*
X55727426Y-90695961D01*
X55717916Y-90699958D01*
X55521725Y-90802089D01*
X55513007Y-90807578D01*
X55483961Y-90829386D01*
X55475508Y-90840711D01*
X55071184Y-90840711D01*
X54993261Y-90736739D01*
X54876705Y-90649385D01*
X54740316Y-90598255D01*
X54678134Y-90591500D01*
X53264989Y-90591500D01*
X53196868Y-90571498D01*
X53150375Y-90517842D01*
X53138989Y-90465500D01*
X53138989Y-87203750D01*
X53158991Y-87135629D01*
X53175894Y-87114655D01*
X53706621Y-86583928D01*
X53770382Y-86549596D01*
X53776463Y-86548348D01*
X53783483Y-86547709D01*
X53808747Y-86539500D01*
X53938623Y-86497301D01*
X53938626Y-86497300D01*
X53945322Y-86495124D01*
X54091490Y-86407990D01*
X54096584Y-86403139D01*
X54096588Y-86403136D01*
X54188468Y-86315639D01*
X54214721Y-86290639D01*
X54218671Y-86284695D01*
X54304990Y-86154773D01*
X54308891Y-86148902D01*
X54369319Y-85989825D01*
X54393001Y-85821313D01*
X54393299Y-85800000D01*
X54374331Y-85630892D01*
X54318368Y-85470189D01*
X54312383Y-85460610D01*
X54290420Y-85425464D01*
X54228192Y-85325879D01*
X54108286Y-85205132D01*
X54098834Y-85199133D01*
X54009956Y-85142730D01*
X53964608Y-85113951D01*
X53804300Y-85056868D01*
X53635329Y-85036720D01*
X53628326Y-85037456D01*
X53628325Y-85037456D01*
X53473101Y-85053770D01*
X53473097Y-85053771D01*
X53466093Y-85054507D01*
X53459422Y-85056778D01*
X53311673Y-85107075D01*
X53311670Y-85107076D01*
X53305003Y-85109346D01*
X53299005Y-85113036D01*
X53299003Y-85113037D01*
X53166065Y-85194821D01*
X53166063Y-85194823D01*
X53160066Y-85198512D01*
X53038486Y-85317573D01*
X53034675Y-85323487D01*
X53034673Y-85323489D01*
X53013171Y-85356854D01*
X52946304Y-85460610D01*
X52888103Y-85620516D01*
X52884713Y-85647348D01*
X52856333Y-85712421D01*
X52848803Y-85720648D01*
X52134255Y-86435196D01*
X52121864Y-86446063D01*
X52096502Y-86465524D01*
X52072015Y-86497436D01*
X52072012Y-86497439D01*
X52072006Y-86497447D01*
X52011133Y-86576778D01*
X51998965Y-86592635D01*
X51998965Y-86592636D01*
X51937651Y-86740661D01*
X51921989Y-86859626D01*
X51921989Y-86859631D01*
X51916739Y-86899511D01*
X51148989Y-86899511D01*
X51148989Y-86696120D01*
X51168991Y-86627999D01*
X51222647Y-86581506D01*
X51248107Y-86573198D01*
X51253483Y-86572709D01*
X51260178Y-86570534D01*
X51260181Y-86570533D01*
X51408623Y-86522301D01*
X51408626Y-86522300D01*
X51415322Y-86520124D01*
X51561490Y-86432990D01*
X51566584Y-86428139D01*
X51566588Y-86428136D01*
X51635814Y-86362212D01*
X51684721Y-86315639D01*
X51778891Y-86173902D01*
X51839319Y-86014825D01*
X51863001Y-85846313D01*
X51863299Y-85825000D01*
X51844331Y-85655892D01*
X51838063Y-85637891D01*
X51790686Y-85501846D01*
X51788368Y-85495189D01*
X51782383Y-85485610D01*
X51760420Y-85450464D01*
X51698192Y-85350879D01*
X51578286Y-85230132D01*
X51562039Y-85219821D01*
X51522645Y-85194821D01*
X51434608Y-85138951D01*
X51274300Y-85081868D01*
X51105329Y-85061720D01*
X51098326Y-85062456D01*
X51098325Y-85062456D01*
X50943101Y-85078770D01*
X50943097Y-85078771D01*
X50936093Y-85079507D01*
X50929422Y-85081778D01*
X50781673Y-85132075D01*
X50781670Y-85132076D01*
X50775003Y-85134346D01*
X50769007Y-85138034D01*
X50769000Y-85138038D01*
X50700023Y-85180474D01*
X50631522Y-85199133D01*
X50563807Y-85177795D01*
X50518379Y-85123235D01*
X50508000Y-85073157D01*
X50508000Y-82948134D01*
X52321500Y-82948134D01*
X52328255Y-83010316D01*
X52379385Y-83146705D01*
X52466739Y-83263261D01*
X52583295Y-83350615D01*
X52719684Y-83401745D01*
X52781866Y-83408500D01*
X54678134Y-83408500D01*
X54740316Y-83401745D01*
X54876705Y-83350615D01*
X54993261Y-83263261D01*
X55069597Y-83161406D01*
X55473423Y-83161406D01*
X55478704Y-83168461D01*
X55655080Y-83271527D01*
X55664363Y-83275974D01*
X55871003Y-83354883D01*
X55880901Y-83357759D01*
X56097653Y-83401857D01*
X56107883Y-83403076D01*
X56328914Y-83411182D01*
X56339223Y-83410714D01*
X56558623Y-83382608D01*
X56568688Y-83380468D01*
X56780557Y-83316905D01*
X56790152Y-83313144D01*
X56988778Y-83215838D01*
X56997636Y-83210559D01*
X57055097Y-83169572D01*
X57063497Y-83158874D01*
X57056510Y-83145721D01*
X56282811Y-82372021D01*
X56268868Y-82364408D01*
X56267034Y-82364539D01*
X56260420Y-82368790D01*
X55480180Y-83149031D01*
X55473423Y-83161406D01*
X55069597Y-83161406D01*
X55080615Y-83146705D01*
X55131745Y-83010316D01*
X55138500Y-82948134D01*
X55138500Y-82824480D01*
X55158502Y-82756359D01*
X55175405Y-82735384D01*
X55897979Y-82012811D01*
X55904356Y-82001132D01*
X56634408Y-82001132D01*
X56634539Y-82002966D01*
X56638790Y-82009580D01*
X57416307Y-82787096D01*
X57428313Y-82793652D01*
X57440052Y-82784684D01*
X57478010Y-82731859D01*
X57483321Y-82723020D01*
X57581318Y-82524737D01*
X57585117Y-82515142D01*
X57649415Y-82303517D01*
X57651594Y-82293436D01*
X57680702Y-82072338D01*
X57681221Y-82065663D01*
X57682744Y-82003364D01*
X57682550Y-81996646D01*
X57664279Y-81774400D01*
X57662596Y-81764238D01*
X57608710Y-81549708D01*
X57605389Y-81539953D01*
X57517193Y-81337118D01*
X57512315Y-81328020D01*
X57439224Y-81215038D01*
X57428538Y-81205835D01*
X57418973Y-81210238D01*
X56642021Y-81987189D01*
X56634408Y-82001132D01*
X55904356Y-82001132D01*
X55905592Y-81998868D01*
X55905461Y-81997034D01*
X55901210Y-81990420D01*
X55175405Y-81264616D01*
X55141380Y-81202303D01*
X55138500Y-81175520D01*
X55138500Y-81051866D01*
X55131745Y-80989684D01*
X55080615Y-80853295D01*
X55071184Y-80840711D01*
X55475508Y-80840711D01*
X55482251Y-80853040D01*
X56257189Y-81627979D01*
X56271132Y-81635592D01*
X56272966Y-81635461D01*
X56279580Y-81631210D01*
X57058994Y-80851795D01*
X57066011Y-80838944D01*
X57058237Y-80828274D01*
X57055902Y-80826430D01*
X57047320Y-80820729D01*
X56853678Y-80713833D01*
X56844272Y-80709606D01*
X56635772Y-80635772D01*
X56625809Y-80633140D01*
X56408047Y-80594350D01*
X56397796Y-80593381D01*
X56176616Y-80590679D01*
X56166332Y-80591399D01*
X55947693Y-80624855D01*
X55937666Y-80627244D01*
X55727426Y-80695961D01*
X55717916Y-80699958D01*
X55521725Y-80802089D01*
X55513007Y-80807578D01*
X55483961Y-80829386D01*
X55475508Y-80840711D01*
X55071184Y-80840711D01*
X54993261Y-80736739D01*
X54876705Y-80649385D01*
X54740316Y-80598255D01*
X54678134Y-80591500D01*
X52781866Y-80591500D01*
X52719684Y-80598255D01*
X52583295Y-80649385D01*
X52466739Y-80736739D01*
X52379385Y-80853295D01*
X52328255Y-80989684D01*
X52321500Y-81051866D01*
X52321500Y-82948134D01*
X50508000Y-82948134D01*
X50508000Y-72948134D01*
X52321500Y-72948134D01*
X52328255Y-73010316D01*
X52379385Y-73146705D01*
X52466739Y-73263261D01*
X52583295Y-73350615D01*
X52719684Y-73401745D01*
X52781866Y-73408500D01*
X54678134Y-73408500D01*
X54740316Y-73401745D01*
X54876705Y-73350615D01*
X54993261Y-73263261D01*
X55069597Y-73161406D01*
X55473423Y-73161406D01*
X55478704Y-73168461D01*
X55655080Y-73271527D01*
X55664363Y-73275974D01*
X55871003Y-73354883D01*
X55880901Y-73357759D01*
X56097653Y-73401857D01*
X56107883Y-73403076D01*
X56328914Y-73411182D01*
X56339223Y-73410714D01*
X56558623Y-73382608D01*
X56568688Y-73380468D01*
X56780557Y-73316905D01*
X56790152Y-73313144D01*
X56988778Y-73215838D01*
X56997636Y-73210559D01*
X57055097Y-73169572D01*
X57063497Y-73158874D01*
X57056510Y-73145721D01*
X56282811Y-72372021D01*
X56268868Y-72364408D01*
X56267034Y-72364539D01*
X56260420Y-72368790D01*
X55480180Y-73149031D01*
X55473423Y-73161406D01*
X55069597Y-73161406D01*
X55080615Y-73146705D01*
X55131745Y-73010316D01*
X55138500Y-72948134D01*
X55138500Y-72824480D01*
X55158502Y-72756359D01*
X55175405Y-72735384D01*
X55897979Y-72012811D01*
X55904356Y-72001132D01*
X56634408Y-72001132D01*
X56634539Y-72002966D01*
X56638790Y-72009580D01*
X57416307Y-72787096D01*
X57428313Y-72793652D01*
X57440052Y-72784684D01*
X57478010Y-72731859D01*
X57483321Y-72723020D01*
X57581318Y-72524737D01*
X57585117Y-72515142D01*
X57649415Y-72303517D01*
X57651594Y-72293436D01*
X57680702Y-72072338D01*
X57681221Y-72065663D01*
X57682744Y-72003364D01*
X57682550Y-71996646D01*
X57664279Y-71774400D01*
X57662596Y-71764238D01*
X57608710Y-71549708D01*
X57605389Y-71539953D01*
X57517193Y-71337118D01*
X57512315Y-71328020D01*
X57439224Y-71215038D01*
X57428538Y-71205835D01*
X57418973Y-71210238D01*
X56642021Y-71987189D01*
X56634408Y-72001132D01*
X55904356Y-72001132D01*
X55905592Y-71998868D01*
X55905461Y-71997034D01*
X55901210Y-71990420D01*
X55175405Y-71264616D01*
X55141380Y-71202303D01*
X55138500Y-71175520D01*
X55138500Y-71051866D01*
X55131745Y-70989684D01*
X55080615Y-70853295D01*
X55071184Y-70840711D01*
X55475508Y-70840711D01*
X55482251Y-70853040D01*
X56257189Y-71627979D01*
X56271132Y-71635592D01*
X56272966Y-71635461D01*
X56279580Y-71631210D01*
X57058994Y-70851795D01*
X57066011Y-70838944D01*
X57058237Y-70828274D01*
X57055902Y-70826430D01*
X57047320Y-70820729D01*
X56853678Y-70713833D01*
X56844272Y-70709606D01*
X56635772Y-70635772D01*
X56625809Y-70633140D01*
X56408047Y-70594350D01*
X56397796Y-70593381D01*
X56176616Y-70590679D01*
X56166332Y-70591399D01*
X55947693Y-70624855D01*
X55937666Y-70627244D01*
X55727426Y-70695961D01*
X55717916Y-70699958D01*
X55521725Y-70802089D01*
X55513007Y-70807578D01*
X55483961Y-70829386D01*
X55475508Y-70840711D01*
X55071184Y-70840711D01*
X54993261Y-70736739D01*
X54876705Y-70649385D01*
X54740316Y-70598255D01*
X54678134Y-70591500D01*
X52781866Y-70591500D01*
X52719684Y-70598255D01*
X52583295Y-70649385D01*
X52466739Y-70736739D01*
X52379385Y-70853295D01*
X52328255Y-70989684D01*
X52321500Y-71051866D01*
X52321500Y-72948134D01*
X50508000Y-72948134D01*
X50508000Y-66875000D01*
X51236835Y-66875000D01*
X51255465Y-67111711D01*
X51310895Y-67342594D01*
X51401760Y-67561963D01*
X51404346Y-67566183D01*
X51523241Y-67760202D01*
X51523245Y-67760208D01*
X51525824Y-67764416D01*
X51680031Y-67944969D01*
X51860584Y-68099176D01*
X51864792Y-68101755D01*
X51864798Y-68101759D01*
X52058817Y-68220654D01*
X52063037Y-68223240D01*
X52067607Y-68225133D01*
X52067611Y-68225135D01*
X52277833Y-68312211D01*
X52282406Y-68314105D01*
X52362609Y-68333360D01*
X52508476Y-68368380D01*
X52508482Y-68368381D01*
X52513289Y-68369535D01*
X52750000Y-68388165D01*
X52986711Y-68369535D01*
X52991518Y-68368381D01*
X52991524Y-68368380D01*
X53137391Y-68333360D01*
X53217594Y-68314105D01*
X53222167Y-68312211D01*
X53432389Y-68225135D01*
X53432393Y-68225133D01*
X53436963Y-68223240D01*
X53441183Y-68220654D01*
X53635202Y-68101759D01*
X53635208Y-68101755D01*
X53639416Y-68099176D01*
X53819969Y-67944969D01*
X53974176Y-67764416D01*
X53976755Y-67760208D01*
X53976759Y-67760202D01*
X54095654Y-67566183D01*
X54098240Y-67561963D01*
X54189105Y-67342594D01*
X54244535Y-67111711D01*
X54263165Y-66875000D01*
X55736835Y-66875000D01*
X55755465Y-67111711D01*
X55810895Y-67342594D01*
X55901760Y-67561963D01*
X55904346Y-67566183D01*
X56023241Y-67760202D01*
X56023245Y-67760208D01*
X56025824Y-67764416D01*
X56180031Y-67944969D01*
X56360584Y-68099176D01*
X56364792Y-68101755D01*
X56364798Y-68101759D01*
X56558817Y-68220654D01*
X56563037Y-68223240D01*
X56567607Y-68225133D01*
X56567611Y-68225135D01*
X56777833Y-68312211D01*
X56782406Y-68314105D01*
X56862609Y-68333360D01*
X57008476Y-68368380D01*
X57008482Y-68368381D01*
X57013289Y-68369535D01*
X57250000Y-68388165D01*
X57486711Y-68369535D01*
X57491518Y-68368381D01*
X57491524Y-68368380D01*
X57637391Y-68333360D01*
X57717594Y-68314105D01*
X57722167Y-68312211D01*
X57932389Y-68225135D01*
X57932393Y-68225133D01*
X57936963Y-68223240D01*
X57941183Y-68220654D01*
X58135202Y-68101759D01*
X58135208Y-68101755D01*
X58139416Y-68099176D01*
X58319969Y-67944969D01*
X58474176Y-67764416D01*
X58476755Y-67760208D01*
X58476759Y-67760202D01*
X58595654Y-67566183D01*
X58598240Y-67561963D01*
X58689105Y-67342594D01*
X58744535Y-67111711D01*
X58763165Y-66875000D01*
X58744535Y-66638289D01*
X58689105Y-66407406D01*
X58598240Y-66188037D01*
X58595654Y-66183817D01*
X58476759Y-65989798D01*
X58476755Y-65989792D01*
X58474176Y-65985584D01*
X58319969Y-65805031D01*
X58139416Y-65650824D01*
X58135208Y-65648245D01*
X58135202Y-65648241D01*
X57941183Y-65529346D01*
X57936963Y-65526760D01*
X57932393Y-65524867D01*
X57932389Y-65524865D01*
X57722167Y-65437789D01*
X57722165Y-65437788D01*
X57717594Y-65435895D01*
X57637391Y-65416640D01*
X57491524Y-65381620D01*
X57491518Y-65381619D01*
X57486711Y-65380465D01*
X57250000Y-65361835D01*
X57013289Y-65380465D01*
X57008482Y-65381619D01*
X57008476Y-65381620D01*
X56862609Y-65416640D01*
X56782406Y-65435895D01*
X56777835Y-65437788D01*
X56777833Y-65437789D01*
X56567611Y-65524865D01*
X56567607Y-65524867D01*
X56563037Y-65526760D01*
X56558817Y-65529346D01*
X56364798Y-65648241D01*
X56364792Y-65648245D01*
X56360584Y-65650824D01*
X56180031Y-65805031D01*
X56025824Y-65985584D01*
X56023245Y-65989792D01*
X56023241Y-65989798D01*
X55904346Y-66183817D01*
X55901760Y-66188037D01*
X55810895Y-66407406D01*
X55755465Y-66638289D01*
X55736835Y-66875000D01*
X54263165Y-66875000D01*
X54244535Y-66638289D01*
X54189105Y-66407406D01*
X54098240Y-66188037D01*
X54095654Y-66183817D01*
X53976759Y-65989798D01*
X53976755Y-65989792D01*
X53974176Y-65985584D01*
X53819969Y-65805031D01*
X53639416Y-65650824D01*
X53635208Y-65648245D01*
X53635202Y-65648241D01*
X53441183Y-65529346D01*
X53436963Y-65526760D01*
X53432393Y-65524867D01*
X53432389Y-65524865D01*
X53222167Y-65437789D01*
X53222165Y-65437788D01*
X53217594Y-65435895D01*
X53137391Y-65416640D01*
X52991524Y-65381620D01*
X52991518Y-65381619D01*
X52986711Y-65380465D01*
X52750000Y-65361835D01*
X52513289Y-65380465D01*
X52508482Y-65381619D01*
X52508476Y-65381620D01*
X52362609Y-65416640D01*
X52282406Y-65435895D01*
X52277835Y-65437788D01*
X52277833Y-65437789D01*
X52067611Y-65524865D01*
X52067607Y-65524867D01*
X52063037Y-65526760D01*
X52058817Y-65529346D01*
X51864798Y-65648241D01*
X51864792Y-65648245D01*
X51860584Y-65650824D01*
X51680031Y-65805031D01*
X51525824Y-65985584D01*
X51523245Y-65989792D01*
X51523241Y-65989798D01*
X51404346Y-66183817D01*
X51401760Y-66188037D01*
X51310895Y-66407406D01*
X51255465Y-66638289D01*
X51236835Y-66875000D01*
X50508000Y-66875000D01*
X50508000Y-60375000D01*
X51236835Y-60375000D01*
X51255465Y-60611711D01*
X51310895Y-60842594D01*
X51401760Y-61061963D01*
X51404346Y-61066183D01*
X51523241Y-61260202D01*
X51523245Y-61260208D01*
X51525824Y-61264416D01*
X51680031Y-61444969D01*
X51860584Y-61599176D01*
X51864792Y-61601755D01*
X51864798Y-61601759D01*
X52058817Y-61720654D01*
X52063037Y-61723240D01*
X52067607Y-61725133D01*
X52067611Y-61725135D01*
X52277833Y-61812211D01*
X52282406Y-61814105D01*
X52362609Y-61833360D01*
X52508476Y-61868380D01*
X52508482Y-61868381D01*
X52513289Y-61869535D01*
X52750000Y-61888165D01*
X52986711Y-61869535D01*
X52991518Y-61868381D01*
X52991524Y-61868380D01*
X53137391Y-61833360D01*
X53217594Y-61814105D01*
X53222167Y-61812211D01*
X53432389Y-61725135D01*
X53432393Y-61725133D01*
X53436963Y-61723240D01*
X53441183Y-61720654D01*
X53635202Y-61601759D01*
X53635208Y-61601755D01*
X53639416Y-61599176D01*
X53819969Y-61444969D01*
X53974176Y-61264416D01*
X53976755Y-61260208D01*
X53976759Y-61260202D01*
X54095654Y-61066183D01*
X54098240Y-61061963D01*
X54189105Y-60842594D01*
X54244535Y-60611711D01*
X54263165Y-60375000D01*
X55736835Y-60375000D01*
X55755465Y-60611711D01*
X55810895Y-60842594D01*
X55901760Y-61061963D01*
X55904346Y-61066183D01*
X56023241Y-61260202D01*
X56023245Y-61260208D01*
X56025824Y-61264416D01*
X56180031Y-61444969D01*
X56360584Y-61599176D01*
X56364792Y-61601755D01*
X56364798Y-61601759D01*
X56558817Y-61720654D01*
X56563037Y-61723240D01*
X56567607Y-61725133D01*
X56567611Y-61725135D01*
X56777833Y-61812211D01*
X56782406Y-61814105D01*
X56862609Y-61833360D01*
X57008476Y-61868380D01*
X57008482Y-61868381D01*
X57013289Y-61869535D01*
X57250000Y-61888165D01*
X57486711Y-61869535D01*
X57491518Y-61868381D01*
X57491524Y-61868380D01*
X57637391Y-61833360D01*
X57717594Y-61814105D01*
X57722167Y-61812211D01*
X57932389Y-61725135D01*
X57932393Y-61725133D01*
X57936963Y-61723240D01*
X57941183Y-61720654D01*
X58135202Y-61601759D01*
X58135208Y-61601755D01*
X58139416Y-61599176D01*
X58319969Y-61444969D01*
X58474176Y-61264416D01*
X58476755Y-61260208D01*
X58476759Y-61260202D01*
X58595654Y-61066183D01*
X58598240Y-61061963D01*
X58689105Y-60842594D01*
X58744535Y-60611711D01*
X58763165Y-60375000D01*
X58744535Y-60138289D01*
X58689105Y-59907406D01*
X58598240Y-59688037D01*
X58595654Y-59683817D01*
X58476759Y-59489798D01*
X58476755Y-59489792D01*
X58474176Y-59485584D01*
X58319969Y-59305031D01*
X58139416Y-59150824D01*
X58135208Y-59148245D01*
X58135202Y-59148241D01*
X57941183Y-59029346D01*
X57936963Y-59026760D01*
X57932393Y-59024867D01*
X57932389Y-59024865D01*
X57722167Y-58937789D01*
X57722165Y-58937788D01*
X57717594Y-58935895D01*
X57637391Y-58916640D01*
X57491524Y-58881620D01*
X57491518Y-58881619D01*
X57486711Y-58880465D01*
X57250000Y-58861835D01*
X57013289Y-58880465D01*
X57008482Y-58881619D01*
X57008476Y-58881620D01*
X56862609Y-58916640D01*
X56782406Y-58935895D01*
X56777835Y-58937788D01*
X56777833Y-58937789D01*
X56567611Y-59024865D01*
X56567607Y-59024867D01*
X56563037Y-59026760D01*
X56558817Y-59029346D01*
X56364798Y-59148241D01*
X56364792Y-59148245D01*
X56360584Y-59150824D01*
X56180031Y-59305031D01*
X56025824Y-59485584D01*
X56023245Y-59489792D01*
X56023241Y-59489798D01*
X55904346Y-59683817D01*
X55901760Y-59688037D01*
X55810895Y-59907406D01*
X55755465Y-60138289D01*
X55736835Y-60375000D01*
X54263165Y-60375000D01*
X54244535Y-60138289D01*
X54189105Y-59907406D01*
X54098240Y-59688037D01*
X54095654Y-59683817D01*
X53976759Y-59489798D01*
X53976755Y-59489792D01*
X53974176Y-59485584D01*
X53819969Y-59305031D01*
X53639416Y-59150824D01*
X53635208Y-59148245D01*
X53635202Y-59148241D01*
X53441183Y-59029346D01*
X53436963Y-59026760D01*
X53432393Y-59024867D01*
X53432389Y-59024865D01*
X53222167Y-58937789D01*
X53222165Y-58937788D01*
X53217594Y-58935895D01*
X53137391Y-58916640D01*
X52991524Y-58881620D01*
X52991518Y-58881619D01*
X52986711Y-58880465D01*
X52750000Y-58861835D01*
X52513289Y-58880465D01*
X52508482Y-58881619D01*
X52508476Y-58881620D01*
X52362609Y-58916640D01*
X52282406Y-58935895D01*
X52277835Y-58937788D01*
X52277833Y-58937789D01*
X52067611Y-59024865D01*
X52067607Y-59024867D01*
X52063037Y-59026760D01*
X52058817Y-59029346D01*
X51864798Y-59148241D01*
X51864792Y-59148245D01*
X51860584Y-59150824D01*
X51680031Y-59305031D01*
X51525824Y-59485584D01*
X51523245Y-59489792D01*
X51523241Y-59489798D01*
X51404346Y-59683817D01*
X51401760Y-59688037D01*
X51310895Y-59907406D01*
X51255465Y-60138289D01*
X51236835Y-60375000D01*
X50508000Y-60375000D01*
X50508000Y-54107655D01*
X53239858Y-54107655D01*
X53275104Y-54366638D01*
X53276412Y-54371124D01*
X53276412Y-54371126D01*
X53296098Y-54438664D01*
X53348243Y-54617567D01*
X53457668Y-54854928D01*
X53460231Y-54858837D01*
X53598410Y-55069596D01*
X53598414Y-55069601D01*
X53600976Y-55073509D01*
X53775018Y-55268506D01*
X53975970Y-55435637D01*
X53979973Y-55438066D01*
X54195422Y-55568804D01*
X54195426Y-55568806D01*
X54199419Y-55571229D01*
X54440455Y-55672303D01*
X54693783Y-55736641D01*
X54698434Y-55737109D01*
X54698438Y-55737110D01*
X54891308Y-55756531D01*
X54910867Y-55758500D01*
X55066354Y-55758500D01*
X55068679Y-55758327D01*
X55068685Y-55758327D01*
X55256000Y-55744407D01*
X55256004Y-55744406D01*
X55260652Y-55744061D01*
X55265200Y-55743032D01*
X55265206Y-55743031D01*
X55451601Y-55700853D01*
X55515577Y-55686377D01*
X55551769Y-55672303D01*
X55754824Y-55593340D01*
X55754827Y-55593339D01*
X55759177Y-55591647D01*
X55986098Y-55461951D01*
X56191357Y-55300138D01*
X56370443Y-55109763D01*
X56519424Y-54895009D01*
X56635025Y-54660593D01*
X56714707Y-54411665D01*
X56756721Y-54153693D01*
X56760142Y-53892345D01*
X56724896Y-53633362D01*
X56710473Y-53583877D01*
X56653068Y-53386932D01*
X56651757Y-53382433D01*
X56542332Y-53145072D01*
X56509519Y-53095024D01*
X56401590Y-52930404D01*
X56401586Y-52930399D01*
X56399024Y-52926491D01*
X56224982Y-52731494D01*
X56024030Y-52564363D01*
X55976844Y-52535730D01*
X55804578Y-52431196D01*
X55804574Y-52431194D01*
X55800581Y-52428771D01*
X55559545Y-52327697D01*
X55306217Y-52263359D01*
X55301566Y-52262891D01*
X55301562Y-52262890D01*
X55092271Y-52241816D01*
X55089133Y-52241500D01*
X54933646Y-52241500D01*
X54931321Y-52241673D01*
X54931315Y-52241673D01*
X54744000Y-52255593D01*
X54743996Y-52255594D01*
X54739348Y-52255939D01*
X54734800Y-52256968D01*
X54734794Y-52256969D01*
X54548399Y-52299147D01*
X54484423Y-52313623D01*
X54480071Y-52315315D01*
X54480069Y-52315316D01*
X54245176Y-52406660D01*
X54245173Y-52406661D01*
X54240823Y-52408353D01*
X54013902Y-52538049D01*
X53808643Y-52699862D01*
X53629557Y-52890237D01*
X53480576Y-53104991D01*
X53364975Y-53339407D01*
X53285293Y-53588335D01*
X53243279Y-53846307D01*
X53239858Y-54107655D01*
X50508000Y-54107655D01*
X50508000Y-50634000D01*
X50528002Y-50565879D01*
X50581658Y-50519386D01*
X50634000Y-50508000D01*
X59366000Y-50508000D01*
X59434121Y-50528002D01*
G37*
%TD.AperFunction*%
%TD*%
M02*
