%TF.GenerationSoftware,KiCad,Pcbnew,(6.0.1)*%
%TF.CreationDate,2022-10-28T15:06:46-07:00*%
%TF.ProjectId,BonkDaddy2HP_Board,426f6e6b-4461-4646-9479-3248505f426f,rev?*%
%TF.SameCoordinates,Original*%
%TF.FileFunction,Legend,Top*%
%TF.FilePolarity,Positive*%
%FSLAX46Y46*%
G04 Gerber Fmt 4.6, Leading zero omitted, Abs format (unit mm)*
G04 Created by KiCad (PCBNEW (6.0.1)) date 2022-10-28 15:06:46*
%MOMM*%
%LPD*%
G01*
G04 APERTURE LIST*
%ADD10C,0.150000*%
%ADD11C,0.120000*%
G04 APERTURE END LIST*
D10*
%TO.C,D4*%
X54261904Y-69492380D02*
X54261904Y-68492380D01*
X54500000Y-68492380D01*
X54642857Y-68540000D01*
X54738095Y-68635238D01*
X54785714Y-68730476D01*
X54833333Y-68920952D01*
X54833333Y-69063809D01*
X54785714Y-69254285D01*
X54738095Y-69349523D01*
X54642857Y-69444761D01*
X54500000Y-69492380D01*
X54261904Y-69492380D01*
X55690476Y-68825714D02*
X55690476Y-69492380D01*
X55452380Y-68444761D02*
X55214285Y-69159047D01*
X55833333Y-69159047D01*
%TO.C,D1*%
X54261904Y-99492380D02*
X54261904Y-98492380D01*
X54500000Y-98492380D01*
X54642857Y-98540000D01*
X54738095Y-98635238D01*
X54785714Y-98730476D01*
X54833333Y-98920952D01*
X54833333Y-99063809D01*
X54785714Y-99254285D01*
X54738095Y-99349523D01*
X54642857Y-99444761D01*
X54500000Y-99492380D01*
X54261904Y-99492380D01*
X55785714Y-99492380D02*
X55214285Y-99492380D01*
X55500000Y-99492380D02*
X55500000Y-98492380D01*
X55404761Y-98635238D01*
X55309523Y-98730476D01*
X55214285Y-98778095D01*
%TO.C,D5*%
X54261904Y-79492380D02*
X54261904Y-78492380D01*
X54500000Y-78492380D01*
X54642857Y-78540000D01*
X54738095Y-78635238D01*
X54785714Y-78730476D01*
X54833333Y-78920952D01*
X54833333Y-79063809D01*
X54785714Y-79254285D01*
X54738095Y-79349523D01*
X54642857Y-79444761D01*
X54500000Y-79492380D01*
X54261904Y-79492380D01*
X55738095Y-78492380D02*
X55261904Y-78492380D01*
X55214285Y-78968571D01*
X55261904Y-78920952D01*
X55357142Y-78873333D01*
X55595238Y-78873333D01*
X55690476Y-78920952D01*
X55738095Y-78968571D01*
X55785714Y-79063809D01*
X55785714Y-79301904D01*
X55738095Y-79397142D01*
X55690476Y-79444761D01*
X55595238Y-79492380D01*
X55357142Y-79492380D01*
X55261904Y-79444761D01*
X55214285Y-79397142D01*
%TO.C,D3*%
X54261904Y-89492380D02*
X54261904Y-88492380D01*
X54500000Y-88492380D01*
X54642857Y-88540000D01*
X54738095Y-88635238D01*
X54785714Y-88730476D01*
X54833333Y-88920952D01*
X54833333Y-89063809D01*
X54785714Y-89254285D01*
X54738095Y-89349523D01*
X54642857Y-89444761D01*
X54500000Y-89492380D01*
X54261904Y-89492380D01*
X55166666Y-88492380D02*
X55785714Y-88492380D01*
X55452380Y-88873333D01*
X55595238Y-88873333D01*
X55690476Y-88920952D01*
X55738095Y-88968571D01*
X55785714Y-89063809D01*
X55785714Y-89301904D01*
X55738095Y-89397142D01*
X55690476Y-89444761D01*
X55595238Y-89492380D01*
X55309523Y-89492380D01*
X55214285Y-89444761D01*
X55166666Y-89397142D01*
%TO.C,SW1*%
X51154761Y-64958333D02*
X51202380Y-64815476D01*
X51202380Y-64577380D01*
X51154761Y-64482142D01*
X51107142Y-64434523D01*
X51011904Y-64386904D01*
X50916666Y-64386904D01*
X50821428Y-64434523D01*
X50773809Y-64482142D01*
X50726190Y-64577380D01*
X50678571Y-64767857D01*
X50630952Y-64863095D01*
X50583333Y-64910714D01*
X50488095Y-64958333D01*
X50392857Y-64958333D01*
X50297619Y-64910714D01*
X50250000Y-64863095D01*
X50202380Y-64767857D01*
X50202380Y-64529761D01*
X50250000Y-64386904D01*
X50202380Y-64053571D02*
X51202380Y-63815476D01*
X50488095Y-63625000D01*
X51202380Y-63434523D01*
X50202380Y-63196428D01*
X51202380Y-62291666D02*
X51202380Y-62863095D01*
X51202380Y-62577380D02*
X50202380Y-62577380D01*
X50345238Y-62672619D01*
X50440476Y-62767857D01*
X50488095Y-62863095D01*
%TO.C,D2*%
X56486904Y-138677380D02*
X56486904Y-137677380D01*
X56725000Y-137677380D01*
X56867857Y-137725000D01*
X56963095Y-137820238D01*
X57010714Y-137915476D01*
X57058333Y-138105952D01*
X57058333Y-138248809D01*
X57010714Y-138439285D01*
X56963095Y-138534523D01*
X56867857Y-138629761D01*
X56725000Y-138677380D01*
X56486904Y-138677380D01*
X57439285Y-137772619D02*
X57486904Y-137725000D01*
X57582142Y-137677380D01*
X57820238Y-137677380D01*
X57915476Y-137725000D01*
X57963095Y-137772619D01*
X58010714Y-137867857D01*
X58010714Y-137963095D01*
X57963095Y-138105952D01*
X57391666Y-138677380D01*
X58010714Y-138677380D01*
%TO.C,J2*%
X51752380Y-149333333D02*
X52466666Y-149333333D01*
X52609523Y-149380952D01*
X52704761Y-149476190D01*
X52752380Y-149619047D01*
X52752380Y-149714285D01*
X51847619Y-148904761D02*
X51800000Y-148857142D01*
X51752380Y-148761904D01*
X51752380Y-148523809D01*
X51800000Y-148428571D01*
X51847619Y-148380952D01*
X51942857Y-148333333D01*
X52038095Y-148333333D01*
X52180952Y-148380952D01*
X52752380Y-148952380D01*
X52752380Y-148333333D01*
D11*
%TO.C,D4*%
X53440000Y-73080000D02*
X53440000Y-73236000D01*
X53440000Y-70764000D02*
X53440000Y-70920000D01*
X56672335Y-70921392D02*
G75*
G03*
X53440000Y-70764484I-1672335J-1078609D01*
G01*
X53440000Y-73235516D02*
G75*
G03*
X56672335Y-73078608I1560000J1235517D01*
G01*
X56041130Y-70920163D02*
G75*
G03*
X53959039Y-70920000I-1041130J-1079837D01*
G01*
X53959039Y-73080000D02*
G75*
G03*
X56041130Y-73079837I1040961J1080000D01*
G01*
%TO.C,D1*%
X53440000Y-100764000D02*
X53440000Y-100920000D01*
X53440000Y-103080000D02*
X53440000Y-103236000D01*
X56041130Y-100920163D02*
G75*
G03*
X53959039Y-100920000I-1041130J-1079837D01*
G01*
X53959039Y-103080000D02*
G75*
G03*
X56041130Y-103079837I1040961J1080000D01*
G01*
X53440000Y-103235516D02*
G75*
G03*
X56672335Y-103078608I1560000J1235517D01*
G01*
X56672335Y-100921392D02*
G75*
G03*
X53440000Y-100764484I-1672335J-1078609D01*
G01*
%TO.C,D5*%
X53440000Y-80764000D02*
X53440000Y-80920000D01*
X53440000Y-83080000D02*
X53440000Y-83236000D01*
X53959039Y-83080000D02*
G75*
G03*
X56041130Y-83079837I1040961J1080000D01*
G01*
X56041130Y-80920163D02*
G75*
G03*
X53959039Y-80920000I-1041130J-1079837D01*
G01*
X56672335Y-80921392D02*
G75*
G03*
X53440000Y-80764484I-1672335J-1078609D01*
G01*
X53440000Y-83235516D02*
G75*
G03*
X56672335Y-83078608I1560000J1235517D01*
G01*
%TO.C,D3*%
X53440000Y-90764000D02*
X53440000Y-90920000D01*
X53440000Y-93080000D02*
X53440000Y-93236000D01*
X53440000Y-93235516D02*
G75*
G03*
X56672335Y-93078608I1560000J1235517D01*
G01*
X53959039Y-93080000D02*
G75*
G03*
X56041130Y-93079837I1040961J1080000D01*
G01*
X56041130Y-90920163D02*
G75*
G03*
X53959039Y-90920000I-1041130J-1079837D01*
G01*
X56672335Y-90921392D02*
G75*
G03*
X53440000Y-90764484I-1672335J-1078609D01*
G01*
%TO.C,SW1*%
X54250000Y-67125000D02*
X55750000Y-67125000D01*
X51750000Y-61375000D02*
X51750000Y-65875000D01*
X55750000Y-60125000D02*
X54250000Y-60125000D01*
X58250000Y-65875000D02*
X58250000Y-61375000D01*
%TO.C,D2*%
X53440000Y-142280000D02*
X53440000Y-142436000D01*
X53440000Y-139964000D02*
X53440000Y-140120000D01*
X53440000Y-142435516D02*
G75*
G03*
X56672335Y-142278608I1560000J1235517D01*
G01*
X53959039Y-142280000D02*
G75*
G03*
X56041130Y-142279837I1040961J1080000D01*
G01*
X56672335Y-140121392D02*
G75*
G03*
X53440000Y-139964484I-1672335J-1078609D01*
G01*
X56041130Y-140120163D02*
G75*
G03*
X53959039Y-140120000I-1041130J-1079837D01*
G01*
D10*
%TO.C,J2*%
X56600000Y-144850000D02*
X56125000Y-144850000D01*
X53400000Y-144850000D02*
X53875000Y-144850000D01*
X56600000Y-153150000D02*
X56600000Y-144850000D01*
X56125000Y-153150000D02*
X56600000Y-153150000D01*
X53100000Y-151300000D02*
X53100000Y-149300000D01*
X53400000Y-153150000D02*
X53400000Y-144850000D01*
X53875000Y-153150000D02*
X53400000Y-153150000D01*
%TD*%
M02*
