%TF.GenerationSoftware,KiCad,Pcbnew,(6.0.1)*%
%TF.CreationDate,2023-12-22T21:12:25-08:00*%
%TF.ProjectId,BonkDaddy2HP_Board,426f6e6b-4461-4646-9479-3248505f426f,1.1*%
%TF.SameCoordinates,Original*%
%TF.FileFunction,Paste,Bot*%
%TF.FilePolarity,Positive*%
%FSLAX46Y46*%
G04 Gerber Fmt 4.6, Leading zero omitted, Abs format (unit mm)*
G04 Created by KiCad (PCBNEW (6.0.1)) date 2023-12-22 21:12:25*
%MOMM*%
%LPD*%
G01*
G04 APERTURE LIST*
G04 Aperture macros list*
%AMRoundRect*
0 Rectangle with rounded corners*
0 $1 Rounding radius*
0 $2 $3 $4 $5 $6 $7 $8 $9 X,Y pos of 4 corners*
0 Add a 4 corners polygon primitive as box body*
4,1,4,$2,$3,$4,$5,$6,$7,$8,$9,$2,$3,0*
0 Add four circle primitives for the rounded corners*
1,1,$1+$1,$2,$3*
1,1,$1+$1,$4,$5*
1,1,$1+$1,$6,$7*
1,1,$1+$1,$8,$9*
0 Add four rect primitives between the rounded corners*
20,1,$1+$1,$2,$3,$4,$5,0*
20,1,$1+$1,$4,$5,$6,$7,0*
20,1,$1+$1,$6,$7,$8,$9,0*
20,1,$1+$1,$8,$9,$2,$3,0*%
G04 Aperture macros list end*
%ADD10RoundRect,0.250000X0.350000X0.450000X-0.350000X0.450000X-0.350000X-0.450000X0.350000X-0.450000X0*%
%ADD11R,3.150000X1.000000*%
%ADD12RoundRect,0.250000X-0.250000X-0.475000X0.250000X-0.475000X0.250000X0.475000X-0.250000X0.475000X0*%
%ADD13RoundRect,0.250000X-0.475000X0.250000X-0.475000X-0.250000X0.475000X-0.250000X0.475000X0.250000X0*%
%ADD14RoundRect,0.150000X-0.150000X0.587500X-0.150000X-0.587500X0.150000X-0.587500X0.150000X0.587500X0*%
%ADD15RoundRect,0.250000X-0.450000X0.350000X-0.450000X-0.350000X0.450000X-0.350000X0.450000X0.350000X0*%
%ADD16RoundRect,0.150000X0.150000X-0.587500X0.150000X0.587500X-0.150000X0.587500X-0.150000X-0.587500X0*%
%ADD17RoundRect,0.150000X-0.150000X0.825000X-0.150000X-0.825000X0.150000X-0.825000X0.150000X0.825000X0*%
%ADD18RoundRect,0.250000X-0.350000X-0.450000X0.350000X-0.450000X0.350000X0.450000X-0.350000X0.450000X0*%
G04 APERTURE END LIST*
D10*
%TO.C,R5*%
X55725000Y-79550000D03*
X53725000Y-79550000D03*
%TD*%
D11*
%TO.C,J1*%
X52500000Y-118680000D03*
X57550000Y-118680000D03*
X52500000Y-116140000D03*
X57550000Y-116140000D03*
X52500000Y-113600000D03*
X57550000Y-113600000D03*
X52500000Y-111060000D03*
X57550000Y-111060000D03*
X52500000Y-108520000D03*
X57550000Y-108520000D03*
%TD*%
D12*
%TO.C,C1*%
X54325000Y-105700000D03*
X56225000Y-105700000D03*
%TD*%
D10*
%TO.C,R2*%
X55750000Y-75900000D03*
X53750000Y-75900000D03*
%TD*%
D13*
%TO.C,C3*%
X51075000Y-145800000D03*
X51075000Y-147700000D03*
%TD*%
D14*
%TO.C,Q3*%
X50850000Y-149687500D03*
X52750000Y-149687500D03*
X51800000Y-151562500D03*
%TD*%
D15*
%TO.C,R8*%
X58925000Y-154225000D03*
X58925000Y-156225000D03*
%TD*%
%TO.C,R1*%
X53750000Y-97775000D03*
X53750000Y-99775000D03*
%TD*%
%TO.C,R6*%
X53100000Y-145700000D03*
X53100000Y-147700000D03*
%TD*%
D16*
%TO.C,Q4*%
X59150000Y-150312500D03*
X57250000Y-150312500D03*
X58200000Y-148437500D03*
%TD*%
D10*
%TO.C,R3*%
X56850000Y-143775000D03*
X54850000Y-143775000D03*
%TD*%
%TO.C,R7*%
X53050000Y-143775000D03*
X51050000Y-143775000D03*
%TD*%
%TO.C,R4*%
X55725000Y-94275000D03*
X53725000Y-94275000D03*
%TD*%
D17*
%TO.C,U1*%
X51090000Y-84550000D03*
X52360000Y-84550000D03*
X53630000Y-84550000D03*
X54900000Y-84550000D03*
X56170000Y-84550000D03*
X57440000Y-84550000D03*
X58710000Y-84550000D03*
X58710000Y-89500000D03*
X57440000Y-89500000D03*
X56170000Y-89500000D03*
X54900000Y-89500000D03*
X53630000Y-89500000D03*
X52360000Y-89500000D03*
X51090000Y-89500000D03*
%TD*%
D18*
%TO.C,R9*%
X57050000Y-152325000D03*
X59050000Y-152325000D03*
%TD*%
M02*
