%TF.GenerationSoftware,KiCad,Pcbnew,(6.0.1)*%
%TF.CreationDate,2022-10-28T15:06:46-07:00*%
%TF.ProjectId,BonkDaddy2HP_Board,426f6e6b-4461-4646-9479-3248505f426f,rev?*%
%TF.SameCoordinates,Original*%
%TF.FileFunction,Soldermask,Bot*%
%TF.FilePolarity,Negative*%
%FSLAX46Y46*%
G04 Gerber Fmt 4.6, Leading zero omitted, Abs format (unit mm)*
G04 Created by KiCad (PCBNEW (6.0.1)) date 2022-10-28 15:06:46*
%MOMM*%
%LPD*%
G01*
G04 APERTURE LIST*
G04 Aperture macros list*
%AMRoundRect*
0 Rectangle with rounded corners*
0 $1 Rounding radius*
0 $2 $3 $4 $5 $6 $7 $8 $9 X,Y pos of 4 corners*
0 Add a 4 corners polygon primitive as box body*
4,1,4,$2,$3,$4,$5,$6,$7,$8,$9,$2,$3,0*
0 Add four circle primitives for the rounded corners*
1,1,$1+$1,$2,$3*
1,1,$1+$1,$4,$5*
1,1,$1+$1,$6,$7*
1,1,$1+$1,$8,$9*
0 Add four rect primitives between the rounded corners*
20,1,$1+$1,$2,$3,$4,$5,0*
20,1,$1+$1,$4,$5,$6,$7,0*
20,1,$1+$1,$6,$7,$8,$9,0*
20,1,$1+$1,$8,$9,$2,$3,0*%
G04 Aperture macros list end*
%ADD10C,2.500000*%
%ADD11R,1.800000X1.800000*%
%ADD12C,1.800000*%
%ADD13C,2.000000*%
%ADD14R,0.840000X0.840000*%
%ADD15C,0.840000*%
%ADD16O,1.850000X0.850000*%
%ADD17RoundRect,0.250000X0.350000X0.450000X-0.350000X0.450000X-0.350000X-0.450000X0.350000X-0.450000X0*%
%ADD18R,1.500000X1.600000*%
%ADD19C,1.600000*%
%ADD20C,3.000000*%
%ADD21R,3.150000X1.000000*%
%ADD22RoundRect,0.250000X-0.250000X-0.475000X0.250000X-0.475000X0.250000X0.475000X-0.250000X0.475000X0*%
%ADD23RoundRect,0.250000X-0.475000X0.250000X-0.475000X-0.250000X0.475000X-0.250000X0.475000X0.250000X0*%
%ADD24RoundRect,0.150000X-0.150000X0.587500X-0.150000X-0.587500X0.150000X-0.587500X0.150000X0.587500X0*%
%ADD25RoundRect,0.250000X-0.450000X0.350000X-0.450000X-0.350000X0.450000X-0.350000X0.450000X0.350000X0*%
%ADD26RoundRect,0.150000X0.150000X-0.587500X0.150000X0.587500X-0.150000X0.587500X-0.150000X-0.587500X0*%
%ADD27RoundRect,0.150000X-0.150000X0.825000X-0.150000X-0.825000X0.150000X-0.825000X0.150000X0.825000X0*%
%ADD28RoundRect,0.250000X-0.350000X-0.450000X0.350000X-0.450000X0.350000X0.450000X-0.350000X0.450000X0*%
G04 APERTURE END LIST*
D10*
%TO.C,H2*%
X55000000Y-157000000D03*
%TD*%
D11*
%TO.C,D4*%
X53730000Y-72000000D03*
D12*
X56270000Y-72000000D03*
%TD*%
D11*
%TO.C,D1*%
X53730000Y-102000000D03*
D12*
X56270000Y-102000000D03*
%TD*%
D11*
%TO.C,D5*%
X53730000Y-82000000D03*
D12*
X56270000Y-82000000D03*
%TD*%
D11*
%TO.C,D3*%
X53730000Y-92000000D03*
D12*
X56270000Y-92000000D03*
%TD*%
D13*
%TO.C,SW1*%
X52750000Y-66875000D03*
X52750000Y-60375000D03*
X57250000Y-60375000D03*
X57250000Y-66875000D03*
%TD*%
D11*
%TO.C,D2*%
X53730000Y-141200000D03*
D12*
X56270000Y-141200000D03*
%TD*%
D14*
%TO.C,J2*%
X54780000Y-150300000D03*
D15*
X55780000Y-149650000D03*
X54780000Y-149000000D03*
X55780000Y-148350000D03*
X54780000Y-147700000D03*
D16*
X55000000Y-145425000D03*
X55000000Y-152575000D03*
%TD*%
D10*
%TO.C,H1*%
X55000000Y-54000000D03*
%TD*%
D17*
%TO.C,R5*%
X55725000Y-79550000D03*
X53725000Y-79550000D03*
%TD*%
D18*
%TO.C,J3*%
X55625000Y-134325000D03*
D19*
X55625000Y-131825000D03*
X55625000Y-129825000D03*
X55625000Y-127325000D03*
D20*
X52915000Y-124255000D03*
X52915000Y-137395000D03*
%TD*%
D21*
%TO.C,J1*%
X52500000Y-118680000D03*
X57550000Y-118680000D03*
X52500000Y-116140000D03*
X57550000Y-116140000D03*
X52500000Y-113600000D03*
X57550000Y-113600000D03*
X52500000Y-111060000D03*
X57550000Y-111060000D03*
X52500000Y-108520000D03*
X57550000Y-108520000D03*
%TD*%
D22*
%TO.C,C1*%
X54325000Y-105700000D03*
X56225000Y-105700000D03*
%TD*%
D17*
%TO.C,R2*%
X55750000Y-75900000D03*
X53750000Y-75900000D03*
%TD*%
D23*
%TO.C,C3*%
X51075000Y-145800000D03*
X51075000Y-147700000D03*
%TD*%
D24*
%TO.C,Q3*%
X50850000Y-149687500D03*
X52750000Y-149687500D03*
X51800000Y-151562500D03*
%TD*%
D25*
%TO.C,R8*%
X58925000Y-154225000D03*
X58925000Y-156225000D03*
%TD*%
%TO.C,R1*%
X53750000Y-97775000D03*
X53750000Y-99775000D03*
%TD*%
%TO.C,R6*%
X53100000Y-145700000D03*
X53100000Y-147700000D03*
%TD*%
D26*
%TO.C,Q4*%
X59150000Y-150312500D03*
X57250000Y-150312500D03*
X58200000Y-148437500D03*
%TD*%
D17*
%TO.C,R3*%
X56850000Y-143775000D03*
X54850000Y-143775000D03*
%TD*%
%TO.C,R7*%
X53050000Y-143775000D03*
X51050000Y-143775000D03*
%TD*%
%TO.C,R4*%
X55725000Y-94275000D03*
X53725000Y-94275000D03*
%TD*%
D27*
%TO.C,U1*%
X51090000Y-84550000D03*
X52360000Y-84550000D03*
X53630000Y-84550000D03*
X54900000Y-84550000D03*
X56170000Y-84550000D03*
X57440000Y-84550000D03*
X58710000Y-84550000D03*
X58710000Y-89500000D03*
X57440000Y-89500000D03*
X56170000Y-89500000D03*
X54900000Y-89500000D03*
X53630000Y-89500000D03*
X52360000Y-89500000D03*
X51090000Y-89500000D03*
%TD*%
D28*
%TO.C,R9*%
X57050000Y-152325000D03*
X59050000Y-152325000D03*
%TD*%
M02*
