%TF.GenerationSoftware,KiCad,Pcbnew,(6.0.1)*%
%TF.CreationDate,2023-12-22T21:12:26-08:00*%
%TF.ProjectId,BonkDaddy2HP_Board,426f6e6b-4461-4646-9479-3248505f426f,1.1*%
%TF.SameCoordinates,Original*%
%TF.FileFunction,Legend,Bot*%
%TF.FilePolarity,Positive*%
%FSLAX46Y46*%
G04 Gerber Fmt 4.6, Leading zero omitted, Abs format (unit mm)*
G04 Created by KiCad (PCBNEW (6.0.1)) date 2023-12-22 21:12:26*
%MOMM*%
%LPD*%
G01*
G04 APERTURE LIST*
%ADD10C,0.120000*%
%ADD11C,1.000000*%
%ADD12C,0.150000*%
%ADD13C,0.300000*%
%ADD14C,0.070000*%
G04 APERTURE END LIST*
D10*
X50075000Y-118100000D02*
X50075000Y-119325000D01*
D11*
X51000000Y-119900000D02*
X59000000Y-119900000D01*
D10*
X50075000Y-118100000D02*
X50875000Y-118700000D01*
X56400000Y-104437500D02*
X59800000Y-104437500D01*
X59800000Y-104437500D02*
X59800000Y-97087500D01*
X59800000Y-97087500D02*
X56400000Y-97087500D01*
X56400000Y-97087500D02*
X56400000Y-104437500D01*
G36*
X56400000Y-104437500D02*
G01*
X59800000Y-104437500D01*
X59800000Y-97087500D01*
X56400000Y-97087500D01*
X56400000Y-104437500D01*
G37*
X50875000Y-118700000D02*
X50075000Y-119325000D01*
D12*
X56288095Y-62798571D02*
X56145238Y-62846190D01*
X56097619Y-62893809D01*
X56050000Y-62989047D01*
X56050000Y-63131904D01*
X56097619Y-63227142D01*
X56145238Y-63274761D01*
X56240476Y-63322380D01*
X56621428Y-63322380D01*
X56621428Y-62322380D01*
X56288095Y-62322380D01*
X56192857Y-62370000D01*
X56145238Y-62417619D01*
X56097619Y-62512857D01*
X56097619Y-62608095D01*
X56145238Y-62703333D01*
X56192857Y-62750952D01*
X56288095Y-62798571D01*
X56621428Y-62798571D01*
X55478571Y-63322380D02*
X55573809Y-63274761D01*
X55621428Y-63227142D01*
X55669047Y-63131904D01*
X55669047Y-62846190D01*
X55621428Y-62750952D01*
X55573809Y-62703333D01*
X55478571Y-62655714D01*
X55335714Y-62655714D01*
X55240476Y-62703333D01*
X55192857Y-62750952D01*
X55145238Y-62846190D01*
X55145238Y-63131904D01*
X55192857Y-63227142D01*
X55240476Y-63274761D01*
X55335714Y-63322380D01*
X55478571Y-63322380D01*
X54716666Y-62655714D02*
X54716666Y-63322380D01*
X54716666Y-62750952D02*
X54669047Y-62703333D01*
X54573809Y-62655714D01*
X54430952Y-62655714D01*
X54335714Y-62703333D01*
X54288095Y-62798571D01*
X54288095Y-63322380D01*
X53811904Y-63322380D02*
X53811904Y-62322380D01*
X53716666Y-62941428D02*
X53430952Y-63322380D01*
X53430952Y-62655714D02*
X53811904Y-63036666D01*
X57050000Y-64932380D02*
X57050000Y-63932380D01*
X56811904Y-63932380D01*
X56669047Y-63980000D01*
X56573809Y-64075238D01*
X56526190Y-64170476D01*
X56478571Y-64360952D01*
X56478571Y-64503809D01*
X56526190Y-64694285D01*
X56573809Y-64789523D01*
X56669047Y-64884761D01*
X56811904Y-64932380D01*
X57050000Y-64932380D01*
X55621428Y-64932380D02*
X55621428Y-64408571D01*
X55669047Y-64313333D01*
X55764285Y-64265714D01*
X55954761Y-64265714D01*
X56050000Y-64313333D01*
X55621428Y-64884761D02*
X55716666Y-64932380D01*
X55954761Y-64932380D01*
X56050000Y-64884761D01*
X56097619Y-64789523D01*
X56097619Y-64694285D01*
X56050000Y-64599047D01*
X55954761Y-64551428D01*
X55716666Y-64551428D01*
X55621428Y-64503809D01*
X54716666Y-64932380D02*
X54716666Y-63932380D01*
X54716666Y-64884761D02*
X54811904Y-64932380D01*
X55002380Y-64932380D01*
X55097619Y-64884761D01*
X55145238Y-64837142D01*
X55192857Y-64741904D01*
X55192857Y-64456190D01*
X55145238Y-64360952D01*
X55097619Y-64313333D01*
X55002380Y-64265714D01*
X54811904Y-64265714D01*
X54716666Y-64313333D01*
X53811904Y-64932380D02*
X53811904Y-63932380D01*
X53811904Y-64884761D02*
X53907142Y-64932380D01*
X54097619Y-64932380D01*
X54192857Y-64884761D01*
X54240476Y-64837142D01*
X54288095Y-64741904D01*
X54288095Y-64456190D01*
X54240476Y-64360952D01*
X54192857Y-64313333D01*
X54097619Y-64265714D01*
X53907142Y-64265714D01*
X53811904Y-64313333D01*
X53430952Y-64265714D02*
X53192857Y-64932380D01*
X52954761Y-64265714D02*
X53192857Y-64932380D01*
X53288095Y-65170476D01*
X53335714Y-65218095D01*
X53430952Y-65265714D01*
X56603571Y-68385714D02*
X56365476Y-69052380D01*
X56127380Y-68385714D01*
X55222619Y-69052380D02*
X55794047Y-69052380D01*
X55508333Y-69052380D02*
X55508333Y-68052380D01*
X55603571Y-68195238D01*
X55698809Y-68290476D01*
X55794047Y-68338095D01*
X54794047Y-68957142D02*
X54746428Y-69004761D01*
X54794047Y-69052380D01*
X54841666Y-69004761D01*
X54794047Y-68957142D01*
X54794047Y-69052380D01*
X53794047Y-69052380D02*
X54365476Y-69052380D01*
X54079761Y-69052380D02*
X54079761Y-68052380D01*
X54175000Y-68195238D01*
X54270238Y-68290476D01*
X54365476Y-68338095D01*
D13*
X58703571Y-93750000D02*
X58703571Y-92892857D01*
X58703571Y-93321428D02*
X57203571Y-93321428D01*
X57417857Y-93178571D01*
X57560714Y-93035714D01*
X57632142Y-92892857D01*
X58560714Y-94392857D02*
X58632142Y-94464285D01*
X58703571Y-94392857D01*
X58632142Y-94321428D01*
X58560714Y-94392857D01*
X58703571Y-94392857D01*
X58703571Y-95892857D02*
X58703571Y-95035714D01*
X58703571Y-95464285D02*
X57203571Y-95464285D01*
X57417857Y-95321428D01*
X57560714Y-95178571D01*
X57632142Y-95035714D01*
X58560714Y-96535714D02*
X58632142Y-96607142D01*
X58703571Y-96535714D01*
X58632142Y-96464285D01*
X58560714Y-96535714D01*
X58703571Y-96535714D01*
D12*
X57952380Y-55945000D02*
X58047619Y-55897380D01*
X58190476Y-55897380D01*
X58333333Y-55945000D01*
X58428571Y-56040238D01*
X58476190Y-56135476D01*
X58523809Y-56325952D01*
X58523809Y-56468809D01*
X58476190Y-56659285D01*
X58428571Y-56754523D01*
X58333333Y-56849761D01*
X58190476Y-56897380D01*
X58095238Y-56897380D01*
X57952380Y-56849761D01*
X57904761Y-56802142D01*
X57904761Y-56468809D01*
X58095238Y-56468809D01*
X57476190Y-56897380D02*
X57476190Y-56230714D01*
X57476190Y-56421190D02*
X57428571Y-56325952D01*
X57380952Y-56278333D01*
X57285714Y-56230714D01*
X57190476Y-56230714D01*
X56476190Y-56849761D02*
X56571428Y-56897380D01*
X56761904Y-56897380D01*
X56857142Y-56849761D01*
X56904761Y-56754523D01*
X56904761Y-56373571D01*
X56857142Y-56278333D01*
X56761904Y-56230714D01*
X56571428Y-56230714D01*
X56476190Y-56278333D01*
X56428571Y-56373571D01*
X56428571Y-56468809D01*
X56904761Y-56564047D01*
X55619047Y-56849761D02*
X55714285Y-56897380D01*
X55904761Y-56897380D01*
X56000000Y-56849761D01*
X56047619Y-56754523D01*
X56047619Y-56373571D01*
X56000000Y-56278333D01*
X55904761Y-56230714D01*
X55714285Y-56230714D01*
X55619047Y-56278333D01*
X55571428Y-56373571D01*
X55571428Y-56468809D01*
X56047619Y-56564047D01*
X55142857Y-56230714D02*
X55142857Y-56897380D01*
X55142857Y-56325952D02*
X55095238Y-56278333D01*
X54999999Y-56230714D01*
X54857142Y-56230714D01*
X54761904Y-56278333D01*
X54714285Y-56373571D01*
X54714285Y-56897380D01*
X54380952Y-56230714D02*
X53999999Y-56230714D01*
X54238095Y-56897380D02*
X54238095Y-56040238D01*
X54190476Y-55945000D01*
X54095238Y-55897380D01*
X53999999Y-55897380D01*
X53238095Y-56897380D02*
X53238095Y-56373571D01*
X53285714Y-56278333D01*
X53380952Y-56230714D01*
X53571428Y-56230714D01*
X53666666Y-56278333D01*
X53238095Y-56849761D02*
X53333333Y-56897380D01*
X53571428Y-56897380D01*
X53666666Y-56849761D01*
X53714285Y-56754523D01*
X53714285Y-56659285D01*
X53666666Y-56564047D01*
X53571428Y-56516428D01*
X53333333Y-56516428D01*
X53238095Y-56468809D01*
X52333333Y-56849761D02*
X52428571Y-56897380D01*
X52619047Y-56897380D01*
X52714285Y-56849761D01*
X52761904Y-56802142D01*
X52809523Y-56706904D01*
X52809523Y-56421190D01*
X52761904Y-56325952D01*
X52714285Y-56278333D01*
X52619047Y-56230714D01*
X52428571Y-56230714D01*
X52333333Y-56278333D01*
X51523809Y-56849761D02*
X51619047Y-56897380D01*
X51809523Y-56897380D01*
X51904761Y-56849761D01*
X51952380Y-56754523D01*
X51952380Y-56373571D01*
X51904761Y-56278333D01*
X51809523Y-56230714D01*
X51619047Y-56230714D01*
X51523809Y-56278333D01*
X51476190Y-56373571D01*
X51476190Y-56468809D01*
X51952380Y-56564047D01*
X56000000Y-58507380D02*
X56476190Y-58507380D01*
X56476190Y-57507380D01*
X55238095Y-58507380D02*
X55238095Y-57983571D01*
X55285714Y-57888333D01*
X55380952Y-57840714D01*
X55571428Y-57840714D01*
X55666666Y-57888333D01*
X55238095Y-58459761D02*
X55333333Y-58507380D01*
X55571428Y-58507380D01*
X55666666Y-58459761D01*
X55714285Y-58364523D01*
X55714285Y-58269285D01*
X55666666Y-58174047D01*
X55571428Y-58126428D01*
X55333333Y-58126428D01*
X55238095Y-58078809D01*
X54761904Y-58507380D02*
X54761904Y-57507380D01*
X54761904Y-57888333D02*
X54666666Y-57840714D01*
X54476190Y-57840714D01*
X54380952Y-57888333D01*
X54333333Y-57935952D01*
X54285714Y-58031190D01*
X54285714Y-58316904D01*
X54333333Y-58412142D01*
X54380952Y-58459761D01*
X54476190Y-58507380D01*
X54666666Y-58507380D01*
X54761904Y-58459761D01*
X53904761Y-58459761D02*
X53809523Y-58507380D01*
X53619047Y-58507380D01*
X53523809Y-58459761D01*
X53476190Y-58364523D01*
X53476190Y-58316904D01*
X53523809Y-58221666D01*
X53619047Y-58174047D01*
X53761904Y-58174047D01*
X53857142Y-58126428D01*
X53904761Y-58031190D01*
X53904761Y-57983571D01*
X53857142Y-57888333D01*
X53761904Y-57840714D01*
X53619047Y-57840714D01*
X53523809Y-57888333D01*
%TO.C,R5*%
X54891666Y-78352380D02*
X55225000Y-77876190D01*
X55463095Y-78352380D02*
X55463095Y-77352380D01*
X55082142Y-77352380D01*
X54986904Y-77400000D01*
X54939285Y-77447619D01*
X54891666Y-77542857D01*
X54891666Y-77685714D01*
X54939285Y-77780952D01*
X54986904Y-77828571D01*
X55082142Y-77876190D01*
X55463095Y-77876190D01*
X53986904Y-77352380D02*
X54463095Y-77352380D01*
X54510714Y-77828571D01*
X54463095Y-77780952D01*
X54367857Y-77733333D01*
X54129761Y-77733333D01*
X54034523Y-77780952D01*
X53986904Y-77828571D01*
X53939285Y-77923809D01*
X53939285Y-78161904D01*
X53986904Y-78257142D01*
X54034523Y-78304761D01*
X54129761Y-78352380D01*
X54367857Y-78352380D01*
X54463095Y-78304761D01*
X54510714Y-78257142D01*
%TO.C,J3*%
X58267380Y-130491666D02*
X58981666Y-130491666D01*
X59124523Y-130444047D01*
X59219761Y-130348809D01*
X59267380Y-130205952D01*
X59267380Y-130110714D01*
X58267380Y-130872619D02*
X58267380Y-131491666D01*
X58648333Y-131158333D01*
X58648333Y-131301190D01*
X58695952Y-131396428D01*
X58743571Y-131444047D01*
X58838809Y-131491666D01*
X59076904Y-131491666D01*
X59172142Y-131444047D01*
X59219761Y-131396428D01*
X59267380Y-131301190D01*
X59267380Y-131015476D01*
X59219761Y-130920238D01*
X59172142Y-130872619D01*
%TO.C,J1*%
X55333333Y-120577380D02*
X55333333Y-121291666D01*
X55380952Y-121434523D01*
X55476190Y-121529761D01*
X55619047Y-121577380D01*
X55714285Y-121577380D01*
X54333333Y-121577380D02*
X54904761Y-121577380D01*
X54619047Y-121577380D02*
X54619047Y-120577380D01*
X54714285Y-120720238D01*
X54809523Y-120815476D01*
X54904761Y-120863095D01*
%TO.C,C1*%
X57941666Y-106082142D02*
X57989285Y-106129761D01*
X58132142Y-106177380D01*
X58227380Y-106177380D01*
X58370238Y-106129761D01*
X58465476Y-106034523D01*
X58513095Y-105939285D01*
X58560714Y-105748809D01*
X58560714Y-105605952D01*
X58513095Y-105415476D01*
X58465476Y-105320238D01*
X58370238Y-105225000D01*
X58227380Y-105177380D01*
X58132142Y-105177380D01*
X57989285Y-105225000D01*
X57941666Y-105272619D01*
X56989285Y-106177380D02*
X57560714Y-106177380D01*
X57275000Y-106177380D02*
X57275000Y-105177380D01*
X57370238Y-105320238D01*
X57465476Y-105415476D01*
X57560714Y-105463095D01*
%TO.C,R2*%
X54916666Y-74702380D02*
X55250000Y-74226190D01*
X55488095Y-74702380D02*
X55488095Y-73702380D01*
X55107142Y-73702380D01*
X55011904Y-73750000D01*
X54964285Y-73797619D01*
X54916666Y-73892857D01*
X54916666Y-74035714D01*
X54964285Y-74130952D01*
X55011904Y-74178571D01*
X55107142Y-74226190D01*
X55488095Y-74226190D01*
X54535714Y-73797619D02*
X54488095Y-73750000D01*
X54392857Y-73702380D01*
X54154761Y-73702380D01*
X54059523Y-73750000D01*
X54011904Y-73797619D01*
X53964285Y-73892857D01*
X53964285Y-73988095D01*
X54011904Y-74130952D01*
X54583333Y-74702380D01*
X53964285Y-74702380D01*
D14*
%TO.C,C3*%
X50491666Y-145192857D02*
X50510714Y-145211904D01*
X50567857Y-145230952D01*
X50605952Y-145230952D01*
X50663095Y-145211904D01*
X50701190Y-145173809D01*
X50720238Y-145135714D01*
X50739285Y-145059523D01*
X50739285Y-145002380D01*
X50720238Y-144926190D01*
X50701190Y-144888095D01*
X50663095Y-144850000D01*
X50605952Y-144830952D01*
X50567857Y-144830952D01*
X50510714Y-144850000D01*
X50491666Y-144869047D01*
X50358333Y-144830952D02*
X50110714Y-144830952D01*
X50244047Y-144983333D01*
X50186904Y-144983333D01*
X50148809Y-145002380D01*
X50129761Y-145021428D01*
X50110714Y-145059523D01*
X50110714Y-145154761D01*
X50129761Y-145192857D01*
X50148809Y-145211904D01*
X50186904Y-145230952D01*
X50301190Y-145230952D01*
X50339285Y-145211904D01*
X50358333Y-145192857D01*
D12*
%TO.C,Q3*%
X51895238Y-153872619D02*
X51990476Y-153825000D01*
X52085714Y-153729761D01*
X52228571Y-153586904D01*
X52323809Y-153539285D01*
X52419047Y-153539285D01*
X52371428Y-153777380D02*
X52466666Y-153729761D01*
X52561904Y-153634523D01*
X52609523Y-153444047D01*
X52609523Y-153110714D01*
X52561904Y-152920238D01*
X52466666Y-152825000D01*
X52371428Y-152777380D01*
X52180952Y-152777380D01*
X52085714Y-152825000D01*
X51990476Y-152920238D01*
X51942857Y-153110714D01*
X51942857Y-153444047D01*
X51990476Y-153634523D01*
X52085714Y-153729761D01*
X52180952Y-153777380D01*
X52371428Y-153777380D01*
X51609523Y-152777380D02*
X50990476Y-152777380D01*
X51323809Y-153158333D01*
X51180952Y-153158333D01*
X51085714Y-153205952D01*
X51038095Y-153253571D01*
X50990476Y-153348809D01*
X50990476Y-153586904D01*
X51038095Y-153682142D01*
X51085714Y-153729761D01*
X51180952Y-153777380D01*
X51466666Y-153777380D01*
X51561904Y-153729761D01*
X51609523Y-153682142D01*
%TO.C,R8*%
X59066666Y-158227380D02*
X59400000Y-157751190D01*
X59638095Y-158227380D02*
X59638095Y-157227380D01*
X59257142Y-157227380D01*
X59161904Y-157275000D01*
X59114285Y-157322619D01*
X59066666Y-157417857D01*
X59066666Y-157560714D01*
X59114285Y-157655952D01*
X59161904Y-157703571D01*
X59257142Y-157751190D01*
X59638095Y-157751190D01*
X58495238Y-157655952D02*
X58590476Y-157608333D01*
X58638095Y-157560714D01*
X58685714Y-157465476D01*
X58685714Y-157417857D01*
X58638095Y-157322619D01*
X58590476Y-157275000D01*
X58495238Y-157227380D01*
X58304761Y-157227380D01*
X58209523Y-157275000D01*
X58161904Y-157322619D01*
X58114285Y-157417857D01*
X58114285Y-157465476D01*
X58161904Y-157560714D01*
X58209523Y-157608333D01*
X58304761Y-157655952D01*
X58495238Y-157655952D01*
X58590476Y-157703571D01*
X58638095Y-157751190D01*
X58685714Y-157846428D01*
X58685714Y-158036904D01*
X58638095Y-158132142D01*
X58590476Y-158179761D01*
X58495238Y-158227380D01*
X58304761Y-158227380D01*
X58209523Y-158179761D01*
X58161904Y-158132142D01*
X58114285Y-158036904D01*
X58114285Y-157846428D01*
X58161904Y-157751190D01*
X58209523Y-157703571D01*
X58304761Y-157655952D01*
%TO.C,R1*%
X52552380Y-98608333D02*
X52076190Y-98275000D01*
X52552380Y-98036904D02*
X51552380Y-98036904D01*
X51552380Y-98417857D01*
X51600000Y-98513095D01*
X51647619Y-98560714D01*
X51742857Y-98608333D01*
X51885714Y-98608333D01*
X51980952Y-98560714D01*
X52028571Y-98513095D01*
X52076190Y-98417857D01*
X52076190Y-98036904D01*
X52552380Y-99560714D02*
X52552380Y-98989285D01*
X52552380Y-99275000D02*
X51552380Y-99275000D01*
X51695238Y-99179761D01*
X51790476Y-99084523D01*
X51838095Y-98989285D01*
%TO.C,R6*%
X55141666Y-147152380D02*
X55475000Y-146676190D01*
X55713095Y-147152380D02*
X55713095Y-146152380D01*
X55332142Y-146152380D01*
X55236904Y-146200000D01*
X55189285Y-146247619D01*
X55141666Y-146342857D01*
X55141666Y-146485714D01*
X55189285Y-146580952D01*
X55236904Y-146628571D01*
X55332142Y-146676190D01*
X55713095Y-146676190D01*
X54284523Y-146152380D02*
X54475000Y-146152380D01*
X54570238Y-146200000D01*
X54617857Y-146247619D01*
X54713095Y-146390476D01*
X54760714Y-146580952D01*
X54760714Y-146961904D01*
X54713095Y-147057142D01*
X54665476Y-147104761D01*
X54570238Y-147152380D01*
X54379761Y-147152380D01*
X54284523Y-147104761D01*
X54236904Y-147057142D01*
X54189285Y-146961904D01*
X54189285Y-146723809D01*
X54236904Y-146628571D01*
X54284523Y-146580952D01*
X54379761Y-146533333D01*
X54570238Y-146533333D01*
X54665476Y-146580952D01*
X54713095Y-146628571D01*
X54760714Y-146723809D01*
%TO.C,Q4*%
X58295238Y-147322619D02*
X58390476Y-147275000D01*
X58485714Y-147179761D01*
X58628571Y-147036904D01*
X58723809Y-146989285D01*
X58819047Y-146989285D01*
X58771428Y-147227380D02*
X58866666Y-147179761D01*
X58961904Y-147084523D01*
X59009523Y-146894047D01*
X59009523Y-146560714D01*
X58961904Y-146370238D01*
X58866666Y-146275000D01*
X58771428Y-146227380D01*
X58580952Y-146227380D01*
X58485714Y-146275000D01*
X58390476Y-146370238D01*
X58342857Y-146560714D01*
X58342857Y-146894047D01*
X58390476Y-147084523D01*
X58485714Y-147179761D01*
X58580952Y-147227380D01*
X58771428Y-147227380D01*
X57485714Y-146560714D02*
X57485714Y-147227380D01*
X57723809Y-146179761D02*
X57961904Y-146894047D01*
X57342857Y-146894047D01*
%TO.C,R3*%
X58766666Y-144227380D02*
X59100000Y-143751190D01*
X59338095Y-144227380D02*
X59338095Y-143227380D01*
X58957142Y-143227380D01*
X58861904Y-143275000D01*
X58814285Y-143322619D01*
X58766666Y-143417857D01*
X58766666Y-143560714D01*
X58814285Y-143655952D01*
X58861904Y-143703571D01*
X58957142Y-143751190D01*
X59338095Y-143751190D01*
X58433333Y-143227380D02*
X57814285Y-143227380D01*
X58147619Y-143608333D01*
X58004761Y-143608333D01*
X57909523Y-143655952D01*
X57861904Y-143703571D01*
X57814285Y-143798809D01*
X57814285Y-144036904D01*
X57861904Y-144132142D01*
X57909523Y-144179761D01*
X58004761Y-144227380D01*
X58290476Y-144227380D01*
X58385714Y-144179761D01*
X58433333Y-144132142D01*
%TO.C,R7*%
X51391666Y-142702380D02*
X51725000Y-142226190D01*
X51963095Y-142702380D02*
X51963095Y-141702380D01*
X51582142Y-141702380D01*
X51486904Y-141750000D01*
X51439285Y-141797619D01*
X51391666Y-141892857D01*
X51391666Y-142035714D01*
X51439285Y-142130952D01*
X51486904Y-142178571D01*
X51582142Y-142226190D01*
X51963095Y-142226190D01*
X51058333Y-141702380D02*
X50391666Y-141702380D01*
X50820238Y-142702380D01*
%TO.C,R4*%
X52577380Y-94158333D02*
X52101190Y-93825000D01*
X52577380Y-93586904D02*
X51577380Y-93586904D01*
X51577380Y-93967857D01*
X51625000Y-94063095D01*
X51672619Y-94110714D01*
X51767857Y-94158333D01*
X51910714Y-94158333D01*
X52005952Y-94110714D01*
X52053571Y-94063095D01*
X52101190Y-93967857D01*
X52101190Y-93586904D01*
X51910714Y-95015476D02*
X52577380Y-95015476D01*
X51529761Y-94777380D02*
X52244047Y-94539285D01*
X52244047Y-95158333D01*
%TO.C,U1*%
X52161904Y-91102380D02*
X52161904Y-91911904D01*
X52114285Y-92007142D01*
X52066666Y-92054761D01*
X51971428Y-92102380D01*
X51780952Y-92102380D01*
X51685714Y-92054761D01*
X51638095Y-92007142D01*
X51590476Y-91911904D01*
X51590476Y-91102380D01*
X50590476Y-92102380D02*
X51161904Y-92102380D01*
X50876190Y-92102380D02*
X50876190Y-91102380D01*
X50971428Y-91245238D01*
X51066666Y-91340476D01*
X51161904Y-91388095D01*
%TO.C,R9*%
X57191666Y-154427380D02*
X57525000Y-153951190D01*
X57763095Y-154427380D02*
X57763095Y-153427380D01*
X57382142Y-153427380D01*
X57286904Y-153475000D01*
X57239285Y-153522619D01*
X57191666Y-153617857D01*
X57191666Y-153760714D01*
X57239285Y-153855952D01*
X57286904Y-153903571D01*
X57382142Y-153951190D01*
X57763095Y-153951190D01*
X56715476Y-154427380D02*
X56525000Y-154427380D01*
X56429761Y-154379761D01*
X56382142Y-154332142D01*
X56286904Y-154189285D01*
X56239285Y-153998809D01*
X56239285Y-153617857D01*
X56286904Y-153522619D01*
X56334523Y-153475000D01*
X56429761Y-153427380D01*
X56620238Y-153427380D01*
X56715476Y-153475000D01*
X56763095Y-153522619D01*
X56810714Y-153617857D01*
X56810714Y-153855952D01*
X56763095Y-153951190D01*
X56715476Y-153998809D01*
X56620238Y-154046428D01*
X56429761Y-154046428D01*
X56334523Y-153998809D01*
X56286904Y-153951190D01*
X56239285Y-153855952D01*
D10*
%TO.C,R5*%
X54952064Y-80285000D02*
X54497936Y-80285000D01*
X54952064Y-78815000D02*
X54497936Y-78815000D01*
%TO.C,J3*%
X58005000Y-124165000D02*
X54675000Y-124165000D01*
X51125000Y-137445000D02*
X51125000Y-124125000D01*
X58225000Y-135225000D02*
X58225000Y-133425000D01*
X58005000Y-137485000D02*
X54675000Y-137485000D01*
X58005000Y-137485000D02*
X58005000Y-124165000D01*
%TO.C,J1*%
X57625000Y-115380000D02*
X57625000Y-114360000D01*
X52425000Y-107190000D02*
X57625000Y-107190000D01*
X52425000Y-115380000D02*
X52425000Y-114360000D01*
X57625000Y-112840000D02*
X57625000Y-111820000D01*
X57625000Y-107760000D02*
X57625000Y-107190000D01*
X52425000Y-120010000D02*
X52425000Y-119440000D01*
X52425000Y-110300000D02*
X52425000Y-109280000D01*
X52425000Y-107760000D02*
X52425000Y-107190000D01*
X57625000Y-120010000D02*
X57625000Y-119440000D01*
X52425000Y-120010000D02*
X57625000Y-120010000D01*
X52425000Y-117920000D02*
X52425000Y-116900000D01*
X57625000Y-117920000D02*
X57625000Y-116900000D01*
X52425000Y-112840000D02*
X52425000Y-111820000D01*
X57625000Y-110300000D02*
X57625000Y-109280000D01*
X50985000Y-119440000D02*
X52425000Y-119440000D01*
%TO.C,C1*%
X55013748Y-106435000D02*
X55536252Y-106435000D01*
X55013748Y-104965000D02*
X55536252Y-104965000D01*
%TO.C,R2*%
X54977064Y-76635000D02*
X54522936Y-76635000D01*
X54977064Y-75165000D02*
X54522936Y-75165000D01*
%TO.C,C3*%
X51810000Y-146488748D02*
X51810000Y-147011252D01*
X50340000Y-146488748D02*
X50340000Y-147011252D01*
%TO.C,Q3*%
X53360000Y-150625000D02*
X53360000Y-149975000D01*
X50240000Y-150625000D02*
X50240000Y-148950000D01*
X50240000Y-150625000D02*
X50240000Y-151275000D01*
X53360000Y-150625000D02*
X53360000Y-151275000D01*
%TO.C,R8*%
X59660000Y-154997936D02*
X59660000Y-155452064D01*
X58190000Y-154997936D02*
X58190000Y-155452064D01*
%TO.C,R1*%
X53015000Y-98547936D02*
X53015000Y-99002064D01*
X54485000Y-98547936D02*
X54485000Y-99002064D01*
%TO.C,R6*%
X52365000Y-146472936D02*
X52365000Y-146927064D01*
X53835000Y-146472936D02*
X53835000Y-146927064D01*
%TO.C,Q4*%
X59760000Y-149375000D02*
X59760000Y-148725000D01*
X59760000Y-149375000D02*
X59760000Y-151050000D01*
X56640000Y-149375000D02*
X56640000Y-148725000D01*
X56640000Y-149375000D02*
X56640000Y-150025000D01*
%TO.C,R3*%
X56077064Y-144510000D02*
X55622936Y-144510000D01*
X56077064Y-143040000D02*
X55622936Y-143040000D01*
%TO.C,R7*%
X52277064Y-143040000D02*
X51822936Y-143040000D01*
X52277064Y-144510000D02*
X51822936Y-144510000D01*
%TO.C,R4*%
X54952064Y-93540000D02*
X54497936Y-93540000D01*
X54952064Y-95010000D02*
X54497936Y-95010000D01*
%TO.C,U1*%
X59335000Y-87025000D02*
X59335000Y-88975000D01*
X50465000Y-87025000D02*
X50465000Y-88975000D01*
X59335000Y-87025000D02*
X59335000Y-85075000D01*
X50465000Y-87025000D02*
X50465000Y-83575000D01*
%TO.C,R9*%
X57822936Y-153060000D02*
X58277064Y-153060000D01*
X57822936Y-151590000D02*
X58277064Y-151590000D01*
%TD*%
M02*
