M48
; DRILL file {KiCad (6.0.1)} date Fri Dec 22 21:12:23 2023
; FORMAT={-:-/ absolute / inch / decimal}
; #@! TF.CreationDate,2023-12-22T21:12:23-08:00
; #@! TF.GenerationSoftware,Kicad,Pcbnew,(6.0.1)
; #@! TF.FileFunction,Plated,1,2,PTH
FMAT,2
INCH
; #@! TA.AperFunction,Plated,PTH,ViaDrill
T1C0.0118
; #@! TA.AperFunction,Plated,PTH,ComponentDrill
T2C0.0138
; #@! TA.AperFunction,Plated,PTH,ViaDrill
T3C0.0157
; #@! TA.AperFunction,Plated,PTH,ComponentDrill
T4C0.0173
; #@! TA.AperFunction,Plated,PTH,ComponentDrill
T5C0.0354
; #@! TA.AperFunction,Plated,PTH,ComponentDrill
T6C0.0374
; #@! TA.AperFunction,Plated,PTH,ComponentDrill
T7C0.0433
; #@! TA.AperFunction,Plated,PTH,ComponentDrill
T8C0.0906
%
G90
G05
T1
X1.9823Y-5.6132
X1.9951Y-4.3727
X1.9951Y-4.4724
X2.0114Y-3.472
X2.0118Y-3.3789
X2.0226Y-5.8612
X2.0502Y-5.1112
X2.065Y-5.7707
X2.1073Y-5.8661
X2.1114Y-3.378
X2.1388Y-4.2008
X2.1388Y-4.2717
X2.1388Y-4.5728
X2.1689Y-4.1175
X2.2114Y-3.3789
X2.2264Y-3.7116
X2.2657Y-4.2362
X2.2657Y-4.5364
X2.2726Y-5.81
X2.3114Y-3.7112
T3
X2.2283Y-5.7283
T4
X2.1567Y-5.815
X2.1567Y-5.8661
X2.1567Y-5.9173
X2.1961Y-5.8406
X2.1961Y-5.8917
T5
X2.1154Y-2.8346
X2.1154Y-3.2283
X2.1154Y-3.622
X2.1154Y-4.0157
X2.1154Y-5.5591
X2.2154Y-2.8346
X2.2154Y-3.2283
X2.2154Y-3.622
X2.2154Y-4.0157
X2.2154Y-5.5591
T6
X2.19Y-5.0128
X2.19Y-5.1112
X2.19Y-5.19
X2.19Y-5.2884
T7
X2.0768Y-2.377
X2.0768Y-2.6329
X2.2539Y-2.377
X2.2539Y-2.6329
T8
X2.0833Y-4.8919
X2.0833Y-5.4093
T2
G00X2.1457Y-5.7254
M15
G01X2.185Y-5.7254
M16
G05
G00X2.1457Y-6.0069
M15
G01X2.185Y-6.0069
M16
G05
T0
M30
