%TF.GenerationSoftware,KiCad,Pcbnew,(6.0.1)*%
%TF.CreationDate,2023-06-05T12:30:56-07:00*%
%TF.ProjectId,main_board,6d61696e-5f62-46f6-9172-642e6b696361,4.2*%
%TF.SameCoordinates,Original*%
%TF.FileFunction,Paste,Bot*%
%TF.FilePolarity,Positive*%
%FSLAX46Y46*%
G04 Gerber Fmt 4.6, Leading zero omitted, Abs format (unit mm)*
G04 Created by KiCad (PCBNEW (6.0.1)) date 2023-06-05 12:30:56*
%MOMM*%
%LPD*%
G01*
G04 APERTURE LIST*
G04 Aperture macros list*
%AMRoundRect*
0 Rectangle with rounded corners*
0 $1 Rounding radius*
0 $2 $3 $4 $5 $6 $7 $8 $9 X,Y pos of 4 corners*
0 Add a 4 corners polygon primitive as box body*
4,1,4,$2,$3,$4,$5,$6,$7,$8,$9,$2,$3,0*
0 Add four circle primitives for the rounded corners*
1,1,$1+$1,$2,$3*
1,1,$1+$1,$4,$5*
1,1,$1+$1,$6,$7*
1,1,$1+$1,$8,$9*
0 Add four rect primitives between the rounded corners*
20,1,$1+$1,$2,$3,$4,$5,0*
20,1,$1+$1,$4,$5,$6,$7,0*
20,1,$1+$1,$6,$7,$8,$9,0*
20,1,$1+$1,$8,$9,$2,$3,0*%
G04 Aperture macros list end*
%ADD10RoundRect,0.250000X-0.450000X0.350000X-0.450000X-0.350000X0.450000X-0.350000X0.450000X0.350000X0*%
%ADD11RoundRect,0.250000X-0.337500X-0.475000X0.337500X-0.475000X0.337500X0.475000X-0.337500X0.475000X0*%
%ADD12RoundRect,0.200000X-0.200000X-0.275000X0.200000X-0.275000X0.200000X0.275000X-0.200000X0.275000X0*%
%ADD13RoundRect,0.125000X0.825000X0.125000X-0.825000X0.125000X-0.825000X-0.125000X0.825000X-0.125000X0*%
%ADD14RoundRect,0.250000X-0.350000X-0.450000X0.350000X-0.450000X0.350000X0.450000X-0.350000X0.450000X0*%
%ADD15RoundRect,0.250000X0.350000X0.450000X-0.350000X0.450000X-0.350000X-0.450000X0.350000X-0.450000X0*%
%ADD16RoundRect,0.250000X0.475000X-0.337500X0.475000X0.337500X-0.475000X0.337500X-0.475000X-0.337500X0*%
%ADD17RoundRect,0.250000X0.337500X0.475000X-0.337500X0.475000X-0.337500X-0.475000X0.337500X-0.475000X0*%
%ADD18RoundRect,0.150000X0.587500X0.150000X-0.587500X0.150000X-0.587500X-0.150000X0.587500X-0.150000X0*%
%ADD19RoundRect,0.150000X-0.150000X0.825000X-0.150000X-0.825000X0.150000X-0.825000X0.150000X0.825000X0*%
%ADD20RoundRect,0.250000X0.450000X-0.325000X0.450000X0.325000X-0.450000X0.325000X-0.450000X-0.325000X0*%
%ADD21RoundRect,0.250000X-0.475000X0.337500X-0.475000X-0.337500X0.475000X-0.337500X0.475000X0.337500X0*%
%ADD22RoundRect,0.150000X-0.825000X-0.150000X0.825000X-0.150000X0.825000X0.150000X-0.825000X0.150000X0*%
%ADD23RoundRect,0.150000X0.825000X0.150000X-0.825000X0.150000X-0.825000X-0.150000X0.825000X-0.150000X0*%
%ADD24RoundRect,0.250000X0.450000X-0.350000X0.450000X0.350000X-0.450000X0.350000X-0.450000X-0.350000X0*%
%ADD25R,1.100000X0.250000*%
%ADD26RoundRect,0.230000X-0.230000X-0.375000X0.230000X-0.375000X0.230000X0.375000X-0.230000X0.375000X0*%
%ADD27RoundRect,0.250000X0.325000X0.450000X-0.325000X0.450000X-0.325000X-0.450000X0.325000X-0.450000X0*%
%ADD28RoundRect,0.250000X-0.450000X0.325000X-0.450000X-0.325000X0.450000X-0.325000X0.450000X0.325000X0*%
%ADD29R,0.450000X0.600000*%
%ADD30RoundRect,0.230000X-0.375000X0.230000X-0.375000X-0.230000X0.375000X-0.230000X0.375000X0.230000X0*%
%ADD31RoundRect,0.230000X0.230000X0.375000X-0.230000X0.375000X-0.230000X-0.375000X0.230000X-0.375000X0*%
%ADD32R,1.600000X1.300000*%
%ADD33R,1.600000X2.000000*%
%ADD34RoundRect,0.200000X-0.275000X0.200000X-0.275000X-0.200000X0.275000X-0.200000X0.275000X0.200000X0*%
%ADD35RoundRect,0.250000X-0.325000X-0.450000X0.325000X-0.450000X0.325000X0.450000X-0.325000X0.450000X0*%
%ADD36RoundRect,0.250000X-0.550000X1.500000X-0.550000X-1.500000X0.550000X-1.500000X0.550000X1.500000X0*%
%ADD37RoundRect,0.100000X0.100000X-0.637500X0.100000X0.637500X-0.100000X0.637500X-0.100000X-0.637500X0*%
%ADD38RoundRect,0.200000X0.275000X-0.200000X0.275000X0.200000X-0.275000X0.200000X-0.275000X-0.200000X0*%
%ADD39RoundRect,0.230000X0.375000X-0.230000X0.375000X0.230000X-0.375000X0.230000X-0.375000X-0.230000X0*%
%ADD40RoundRect,0.150000X0.150000X-0.825000X0.150000X0.825000X-0.150000X0.825000X-0.150000X-0.825000X0*%
%ADD41R,0.900000X1.200000*%
%ADD42RoundRect,0.150000X0.150000X-0.587500X0.150000X0.587500X-0.150000X0.587500X-0.150000X-0.587500X0*%
%ADD43RoundRect,0.250000X-1.500000X-0.550000X1.500000X-0.550000X1.500000X0.550000X-1.500000X0.550000X0*%
G04 APERTURE END LIST*
D10*
X117175000Y-85675000D03*
X117175000Y-87675000D03*
D11*
X113437500Y-98325000D03*
X115512500Y-98325000D03*
D12*
X63350000Y-74650000D03*
X65000000Y-74650000D03*
D13*
X98675000Y-103250000D03*
X98675000Y-103900000D03*
X98675000Y-104550000D03*
X98675000Y-105200000D03*
X98675000Y-105850000D03*
X98675000Y-106500000D03*
X98675000Y-107150000D03*
X98675000Y-107800000D03*
X98675000Y-108450000D03*
X98675000Y-109100000D03*
X91675000Y-109100000D03*
X91675000Y-108450000D03*
X91675000Y-107800000D03*
X91675000Y-107150000D03*
X91675000Y-106500000D03*
X91675000Y-105850000D03*
X91675000Y-105200000D03*
X91675000Y-104550000D03*
X91675000Y-103900000D03*
X91675000Y-103250000D03*
D14*
X77050000Y-158650000D03*
X79050000Y-158650000D03*
X98200000Y-91250000D03*
X100200000Y-91250000D03*
D15*
X88850000Y-122100000D03*
X86850000Y-122100000D03*
D16*
X83200000Y-89537500D03*
X83200000Y-87462500D03*
D15*
X85050000Y-117795000D03*
X83050000Y-117795000D03*
D16*
X80600000Y-115875000D03*
X80600000Y-113800000D03*
D15*
X88900000Y-83150000D03*
X86900000Y-83150000D03*
D14*
X66250000Y-98850000D03*
X68250000Y-98850000D03*
D17*
X110537500Y-154200000D03*
X108462500Y-154200000D03*
D18*
X55237500Y-72800000D03*
X55237500Y-74700000D03*
X53362500Y-73750000D03*
D19*
X111130000Y-102515000D03*
X112400000Y-102515000D03*
X113670000Y-102515000D03*
X114940000Y-102515000D03*
X116210000Y-102515000D03*
X117480000Y-102515000D03*
X118750000Y-102515000D03*
X120020000Y-102515000D03*
X120020000Y-107465000D03*
X118750000Y-107465000D03*
X117480000Y-107465000D03*
X116210000Y-107465000D03*
X114940000Y-107465000D03*
X113670000Y-107465000D03*
X112400000Y-107465000D03*
X111130000Y-107465000D03*
D20*
X63750000Y-141675000D03*
X63750000Y-139625000D03*
D14*
X98150000Y-119200000D03*
X100150000Y-119200000D03*
D21*
X69400000Y-79312500D03*
X69400000Y-81387500D03*
D22*
X91025000Y-95305000D03*
X91025000Y-94035000D03*
X91025000Y-92765000D03*
X91025000Y-91495000D03*
X95975000Y-91495000D03*
X95975000Y-92765000D03*
X95975000Y-94035000D03*
X95975000Y-95305000D03*
D15*
X88850000Y-144250000D03*
X86850000Y-144250000D03*
D23*
X88775000Y-59895000D03*
X88775000Y-61165000D03*
X88775000Y-62435000D03*
X88775000Y-63705000D03*
X83825000Y-63705000D03*
X83825000Y-62435000D03*
X83825000Y-61165000D03*
X83825000Y-59895000D03*
D15*
X88850000Y-96150000D03*
X86850000Y-96150000D03*
D21*
X81100000Y-59975000D03*
X81100000Y-62050000D03*
D15*
X78850000Y-141650000D03*
X76850000Y-141650000D03*
D24*
X96050000Y-115800000D03*
X96050000Y-113800000D03*
D15*
X88000000Y-87625000D03*
X86000000Y-87625000D03*
D14*
X98200000Y-145150000D03*
X100200000Y-145150000D03*
X98200000Y-93200000D03*
X100200000Y-93200000D03*
D21*
X96000000Y-147112500D03*
X96000000Y-149187500D03*
D10*
X103275000Y-96950000D03*
X103275000Y-98950000D03*
D25*
X97175000Y-131600000D03*
X97175000Y-131100000D03*
X97175000Y-130600000D03*
X97175000Y-130100000D03*
X97175000Y-129600000D03*
X101475000Y-129600000D03*
X101475000Y-130100000D03*
X101475000Y-130600000D03*
X101475000Y-131100000D03*
X101475000Y-131600000D03*
D10*
X61100000Y-53150000D03*
X61100000Y-55150000D03*
D26*
X92930000Y-144200000D03*
X94070000Y-142700000D03*
X94070000Y-144200000D03*
X92930000Y-142700000D03*
D22*
X91025000Y-145355000D03*
X91025000Y-144085000D03*
X91025000Y-142815000D03*
X91025000Y-141545000D03*
X95975000Y-141545000D03*
X95975000Y-142815000D03*
X95975000Y-144085000D03*
X95975000Y-145355000D03*
D14*
X98150000Y-117250000D03*
X100150000Y-117250000D03*
D27*
X78075000Y-133550000D03*
X76025000Y-133550000D03*
D11*
X55172500Y-111450000D03*
X57247500Y-111450000D03*
D21*
X64550000Y-109812500D03*
X64550000Y-111887500D03*
D15*
X88850000Y-98400000D03*
X86850000Y-98400000D03*
D24*
X96000000Y-139800000D03*
X96000000Y-137800000D03*
D14*
X63750000Y-137700000D03*
X65750000Y-137700000D03*
X99100000Y-81200000D03*
X101100000Y-81200000D03*
D21*
X67650000Y-102812500D03*
X67650000Y-104887500D03*
D15*
X88850000Y-92050000D03*
X86850000Y-92050000D03*
D23*
X71775000Y-141670000D03*
X71775000Y-142940000D03*
X71775000Y-144210000D03*
X71775000Y-145480000D03*
X66825000Y-145480000D03*
X66825000Y-144210000D03*
X66825000Y-142940000D03*
X66825000Y-141670000D03*
D22*
X91025000Y-121355000D03*
X91025000Y-120085000D03*
X91025000Y-118815000D03*
X91025000Y-117545000D03*
X95975000Y-117545000D03*
X95975000Y-118815000D03*
X95975000Y-120085000D03*
X95975000Y-121355000D03*
D28*
X64550000Y-146275000D03*
X64550000Y-148325000D03*
D29*
X51550000Y-92650000D03*
X51550000Y-90550000D03*
D30*
X117050000Y-142420000D03*
X118550000Y-141280000D03*
X118550000Y-142420000D03*
X117050000Y-141280000D03*
D19*
X115895000Y-139375000D03*
X117165000Y-139375000D03*
X118435000Y-139375000D03*
X119705000Y-139375000D03*
X119705000Y-144325000D03*
X118435000Y-144325000D03*
X117165000Y-144325000D03*
X115895000Y-144325000D03*
D30*
X117050000Y-92030000D03*
X117050000Y-93170000D03*
X118550000Y-92030000D03*
X118550000Y-93170000D03*
D19*
X115895000Y-90125000D03*
X117165000Y-90125000D03*
X118435000Y-90125000D03*
X119705000Y-90125000D03*
X119705000Y-95075000D03*
X118435000Y-95075000D03*
X117165000Y-95075000D03*
X115895000Y-95075000D03*
D16*
X88800000Y-135637500D03*
X88800000Y-133562500D03*
D14*
X98200000Y-143200000D03*
X100200000Y-143200000D03*
D31*
X86870000Y-129200000D03*
X85730000Y-129200000D03*
X85730000Y-130700000D03*
X86870000Y-130700000D03*
D23*
X88775000Y-128045000D03*
X88775000Y-129315000D03*
X88775000Y-130585000D03*
X88775000Y-131855000D03*
X83825000Y-131855000D03*
X83825000Y-130585000D03*
X83825000Y-129315000D03*
X83825000Y-128045000D03*
D21*
X119625000Y-110937500D03*
X119625000Y-113012500D03*
D11*
X88962500Y-115650000D03*
X91037500Y-115650000D03*
D15*
X88850000Y-94050000D03*
X86850000Y-94050000D03*
D32*
X72350000Y-74550000D03*
D33*
X69450000Y-75800000D03*
D32*
X72350000Y-77050000D03*
D11*
X88962500Y-139650000D03*
X91037500Y-139650000D03*
D17*
X80987500Y-96400000D03*
X78912500Y-96400000D03*
D15*
X88900000Y-81150000D03*
X86900000Y-81150000D03*
D14*
X63850000Y-113700000D03*
X65850000Y-113700000D03*
X75000000Y-115875000D03*
X77000000Y-115875000D03*
D10*
X117175000Y-111025000D03*
X117175000Y-113025000D03*
D16*
X102025000Y-117437500D03*
X102025000Y-115362500D03*
D34*
X67600000Y-76625000D03*
X67600000Y-78275000D03*
D28*
X58750000Y-79800000D03*
X58750000Y-81850000D03*
D14*
X86850000Y-126100000D03*
X88850000Y-126100000D03*
D30*
X118550000Y-67380000D03*
X117050000Y-67380000D03*
X118550000Y-68520000D03*
X117050000Y-68520000D03*
D19*
X115895000Y-65475000D03*
X117165000Y-65475000D03*
X118435000Y-65475000D03*
X119705000Y-65475000D03*
X119705000Y-70425000D03*
X118435000Y-70425000D03*
X117165000Y-70425000D03*
X115895000Y-70425000D03*
D15*
X87620000Y-103450000D03*
X85620000Y-103450000D03*
D35*
X71350000Y-132075000D03*
X73400000Y-132075000D03*
D14*
X98200000Y-95150000D03*
X100200000Y-95150000D03*
D10*
X65600000Y-104650000D03*
X65600000Y-106650000D03*
D11*
X78762500Y-131500000D03*
X80837500Y-131500000D03*
D20*
X65550000Y-130475000D03*
X65550000Y-128425000D03*
D10*
X65225000Y-66250000D03*
X65225000Y-68250000D03*
D17*
X79050000Y-154250000D03*
X76975000Y-154250000D03*
D21*
X70950000Y-137937500D03*
X70950000Y-140012500D03*
D15*
X88850000Y-142250000D03*
X86850000Y-142250000D03*
X87600000Y-100450000D03*
X85600000Y-100450000D03*
D36*
X61750000Y-84325000D03*
X61750000Y-89725000D03*
D24*
X70200000Y-100450000D03*
X70200000Y-98450000D03*
X77650000Y-62075000D03*
X77650000Y-60075000D03*
D28*
X63650000Y-152075000D03*
X63650000Y-154125000D03*
D14*
X58875000Y-145375000D03*
X60875000Y-145375000D03*
D15*
X92900000Y-129200000D03*
X90900000Y-129200000D03*
D11*
X117687500Y-83425000D03*
X119762500Y-83425000D03*
D14*
X60775000Y-105725000D03*
X62775000Y-105725000D03*
D21*
X96050000Y-85062500D03*
X96050000Y-87137500D03*
D15*
X88850000Y-146250000D03*
X86850000Y-146250000D03*
D14*
X98150000Y-121150000D03*
X100150000Y-121150000D03*
D26*
X94070000Y-80700000D03*
X94070000Y-82200000D03*
X92930000Y-82200000D03*
X92930000Y-80700000D03*
D22*
X91025000Y-83355000D03*
X91025000Y-82085000D03*
X91025000Y-80815000D03*
X91025000Y-79545000D03*
X95975000Y-79545000D03*
X95975000Y-80815000D03*
X95975000Y-82085000D03*
X95975000Y-83355000D03*
D21*
X119750000Y-85587500D03*
X119750000Y-87662500D03*
D37*
X75775000Y-96512500D03*
X75125000Y-96512500D03*
X74475000Y-96512500D03*
X73825000Y-96512500D03*
X73175000Y-96512500D03*
X72525000Y-96512500D03*
X71875000Y-96512500D03*
X71225000Y-96512500D03*
X71225000Y-90787500D03*
X71875000Y-90787500D03*
X72525000Y-90787500D03*
X73175000Y-90787500D03*
X73825000Y-90787500D03*
X74475000Y-90787500D03*
X75125000Y-90787500D03*
X75775000Y-90787500D03*
D38*
X51600000Y-74325000D03*
X51600000Y-72675000D03*
D14*
X72750000Y-129875000D03*
X74750000Y-129875000D03*
D10*
X89475000Y-100350000D03*
X89475000Y-102350000D03*
D21*
X119650000Y-61087500D03*
X119650000Y-63162500D03*
D10*
X78800000Y-125600000D03*
X78800000Y-127600000D03*
D14*
X99100000Y-79200000D03*
X101100000Y-79200000D03*
D17*
X95987500Y-75700000D03*
X93912500Y-75700000D03*
D21*
X115675000Y-146937500D03*
X115675000Y-149012500D03*
D15*
X90000000Y-85150000D03*
X88000000Y-85150000D03*
D17*
X88862500Y-152225000D03*
X86787500Y-152225000D03*
D39*
X79350000Y-121470000D03*
X77850000Y-121470000D03*
X79350000Y-120330000D03*
X77850000Y-120330000D03*
D40*
X80505000Y-123375000D03*
X79235000Y-123375000D03*
X77965000Y-123375000D03*
X76695000Y-123375000D03*
X76695000Y-118425000D03*
X77965000Y-118425000D03*
X79235000Y-118425000D03*
X80505000Y-118425000D03*
D28*
X76970000Y-146185000D03*
X76970000Y-148235000D03*
D17*
X69612500Y-94075000D03*
X67537500Y-94075000D03*
D24*
X72000000Y-128000000D03*
X72000000Y-126000000D03*
D11*
X88962500Y-89600000D03*
X91037500Y-89600000D03*
D21*
X96050000Y-123162500D03*
X96050000Y-125237500D03*
D15*
X80800000Y-129500000D03*
X78800000Y-129500000D03*
D29*
X57250000Y-74900000D03*
X57250000Y-72800000D03*
D10*
X102025000Y-145150000D03*
X102025000Y-147150000D03*
D21*
X71250000Y-66450000D03*
X71250000Y-68525000D03*
D20*
X69750000Y-119125000D03*
X69750000Y-117075000D03*
X79070000Y-149552500D03*
X79070000Y-147502500D03*
D11*
X53982500Y-135950000D03*
X56057500Y-135950000D03*
X53312500Y-148030000D03*
X55387500Y-148030000D03*
D16*
X76800000Y-127637500D03*
X76800000Y-125562500D03*
D15*
X88850000Y-148250000D03*
X86850000Y-148250000D03*
D11*
X82312500Y-123525000D03*
X84387500Y-123525000D03*
D24*
X65600000Y-102800000D03*
X65600000Y-100800000D03*
D10*
X58425000Y-105425000D03*
X58425000Y-107425000D03*
D15*
X110475000Y-158650000D03*
X108475000Y-158650000D03*
D41*
X111775000Y-156400000D03*
X108475000Y-156400000D03*
D14*
X60375000Y-107750000D03*
X62375000Y-107750000D03*
D28*
X63450000Y-128425000D03*
X63450000Y-130475000D03*
D17*
X56077500Y-142110000D03*
X54002500Y-142110000D03*
D14*
X102200000Y-85175000D03*
X104200000Y-85175000D03*
D21*
X119600000Y-134862500D03*
X119600000Y-136937500D03*
D15*
X96450000Y-89550000D03*
X94450000Y-89550000D03*
D11*
X105312500Y-56700000D03*
X107387500Y-56700000D03*
D10*
X87275000Y-51300000D03*
X87275000Y-53300000D03*
D17*
X101512500Y-133500000D03*
X99437500Y-133500000D03*
D21*
X96000000Y-97062500D03*
X96000000Y-99137500D03*
D15*
X88750000Y-74400000D03*
X86750000Y-74400000D03*
D11*
X105122500Y-98955000D03*
X107197500Y-98955000D03*
D27*
X75000000Y-118025000D03*
X72950000Y-118025000D03*
D14*
X90900000Y-133100000D03*
X92900000Y-133100000D03*
D35*
X72775000Y-120450000D03*
X74825000Y-120450000D03*
D42*
X55250000Y-92437500D03*
X53350000Y-92437500D03*
X54300000Y-90562500D03*
D24*
X72950000Y-139975000D03*
X72950000Y-137975000D03*
D15*
X101100000Y-83200000D03*
X99100000Y-83200000D03*
D24*
X94800000Y-130950000D03*
X94800000Y-128950000D03*
D20*
X57050000Y-92400000D03*
X57050000Y-90350000D03*
D15*
X88850000Y-120100000D03*
X86850000Y-120100000D03*
D14*
X62625000Y-144225000D03*
X64625000Y-144225000D03*
D30*
X117050000Y-117380000D03*
X117050000Y-118520000D03*
X118550000Y-118520000D03*
X118550000Y-117380000D03*
D19*
X115895000Y-115475000D03*
X117165000Y-115475000D03*
X118435000Y-115475000D03*
X119705000Y-115475000D03*
X119705000Y-120425000D03*
X118435000Y-120425000D03*
X117165000Y-120425000D03*
X115895000Y-120425000D03*
D15*
X97200000Y-77700000D03*
X95200000Y-77700000D03*
D20*
X69750000Y-122875000D03*
X69750000Y-120825000D03*
D21*
X77500000Y-90962500D03*
X77500000Y-93037500D03*
D22*
X58225000Y-103655000D03*
X58225000Y-102385000D03*
X58225000Y-101115000D03*
X58225000Y-99845000D03*
X63175000Y-99845000D03*
X63175000Y-101115000D03*
X63175000Y-102385000D03*
X63175000Y-103655000D03*
D14*
X63500000Y-126500000D03*
X65500000Y-126500000D03*
D18*
X61137500Y-74100000D03*
X61137500Y-76000000D03*
X59262500Y-75050000D03*
D15*
X88850000Y-118100000D03*
X86850000Y-118100000D03*
X76050000Y-144210000D03*
X74050000Y-144210000D03*
D14*
X63650000Y-150150000D03*
X65650000Y-150150000D03*
D15*
X61200000Y-77850000D03*
X59200000Y-77850000D03*
X88850000Y-124100000D03*
X86850000Y-124100000D03*
D28*
X60760000Y-141515000D03*
X60760000Y-143565000D03*
D17*
X113787500Y-92050000D03*
X111712500Y-92050000D03*
D24*
X118450000Y-148575000D03*
X118450000Y-146575000D03*
X118425000Y-124725000D03*
X118425000Y-122725000D03*
X71900000Y-116000000D03*
X71900000Y-114000000D03*
D10*
X117150000Y-61100000D03*
X117150000Y-63100000D03*
D19*
X92655000Y-153700000D03*
X93925000Y-153700000D03*
X95195000Y-153700000D03*
X96465000Y-153700000D03*
X97735000Y-153700000D03*
X99005000Y-153700000D03*
X100275000Y-153700000D03*
X101545000Y-153700000D03*
X101545000Y-158650000D03*
X100275000Y-158650000D03*
X99005000Y-158650000D03*
X97735000Y-158650000D03*
X96465000Y-158650000D03*
X95195000Y-158650000D03*
X93925000Y-158650000D03*
X92655000Y-158650000D03*
D21*
X115850000Y-122612500D03*
X115850000Y-124687500D03*
D24*
X83000000Y-115900000D03*
X83000000Y-113900000D03*
D16*
X70150000Y-104837500D03*
X70150000Y-102762500D03*
D41*
X79050000Y-156425000D03*
X75750000Y-156425000D03*
D24*
X118450000Y-99500000D03*
X118450000Y-97500000D03*
D21*
X89455000Y-104487500D03*
X89455000Y-106562500D03*
D16*
X82000000Y-112037500D03*
X82000000Y-109962500D03*
D11*
X53332500Y-123930000D03*
X55407500Y-123930000D03*
D21*
X115700000Y-72612500D03*
X115700000Y-74687500D03*
D24*
X72175000Y-152000000D03*
X72175000Y-150000000D03*
D14*
X98200000Y-141250000D03*
X100200000Y-141250000D03*
D11*
X103987500Y-147150000D03*
X106062500Y-147150000D03*
D10*
X117175000Y-134975000D03*
X117175000Y-136975000D03*
D11*
X90862500Y-131150000D03*
X92937500Y-131150000D03*
D21*
X72550000Y-98562500D03*
X72550000Y-100637500D03*
D18*
X69137500Y-66250000D03*
X69137500Y-68150000D03*
X67262500Y-67200000D03*
D24*
X118425000Y-74825000D03*
X118425000Y-72825000D03*
D14*
X86850000Y-150225000D03*
X88850000Y-150225000D03*
D20*
X64500000Y-135775000D03*
X64500000Y-133725000D03*
D24*
X76750000Y-131600000D03*
X76750000Y-129600000D03*
D43*
X59000000Y-95350000D03*
X64400000Y-95350000D03*
D10*
X89850000Y-51275000D03*
X89850000Y-53275000D03*
D24*
X102000000Y-121175000D03*
X102000000Y-119175000D03*
D34*
X60650000Y-79875000D03*
X60650000Y-81525000D03*
D21*
X66425000Y-89962500D03*
X66425000Y-92037500D03*
D20*
X58770000Y-143532500D03*
X58770000Y-141482500D03*
M02*
