M48
; DRILL file {KiCad (6.0.1)} date Thu Sep 29 23:20:50 2022
; FORMAT={-:-/ absolute / inch / decimal}
; #@! TF.CreationDate,2022-09-29T23:20:50-07:00
; #@! TF.GenerationSoftware,Kicad,Pcbnew,(6.0.1)
; #@! TF.FileFunction,Plated,1,4,PTH
FMAT,2
INCH
; #@! TA.AperFunction,Plated,PTH,ViaDrill
T1C0.0079
; #@! TA.AperFunction,Plated,PTH,ViaDrill
T2C0.0118
; #@! TA.AperFunction,Plated,PTH,ViaDrill
T3C0.0157
; #@! TA.AperFunction,Plated,PTH,ComponentDrill
T4C0.0354
; #@! TA.AperFunction,Plated,PTH,ComponentDrill
T5C0.0394
; #@! TA.AperFunction,Plated,PTH,ComponentDrill
T6C0.0402
; #@! TA.AperFunction,Plated,PTH,ComponentDrill
T7C0.0433
; #@! TA.AperFunction,Plated,PTH,ComponentDrill
T8C0.0591
; #@! TA.AperFunction,Plated,PTH,ComponentDrill
T9C0.0630
; #@! TA.AperFunction,Plated,PTH,ComponentDrill
T10C0.0709
%
G90
G05
T1
X1.9941Y-2.6969
X2.0217Y-2.2047
X2.0531Y-2.7736
X2.1732Y-4.4862
X2.2165Y-3.5571
X2.2421Y-2.8543
X2.252Y-4.1496
X2.2864Y-5.69
X2.2864Y-6.0276
X2.2864Y-4.934
X2.3128Y-5.986
X2.4035Y-3.1693
X2.4055Y-2.0492
X2.4715Y-5.9872
X2.5Y-4.9331
X2.5049Y-5.7589
X2.5098Y-5.4596
X2.5098Y-5.6161
X2.5354Y-4.1988
X2.5394Y-3.9803
X2.5394Y-4.1201
X2.5413Y-4.2874
X2.56Y-4.5148
X2.5694Y-3.5418
X2.5809Y-5.5776
X2.5906Y-3.6752
X2.6191Y-5.1368
X2.6476Y-2.6831
X2.6644Y-5.6486
X2.6658Y-5.6988
X2.7106Y-4.0492
X2.7106Y-4.2008
X2.7165Y-3.9547
X2.7254Y-5.7382
X2.7423Y-5.0618
X2.7554Y-5.5123
X2.7618Y-3.5423
X2.7726Y-5.1998
X2.7854Y-3.6309
X2.8095Y-4.7977
X2.811Y-3.9178
X2.811Y-4.2559
X2.813Y-3.3612
X2.8278Y-3.0846
X2.8297Y-3.5344
X2.8307Y-3.8376
X2.8346Y-3.2539
X2.8356Y-3.7412
X2.8366Y-2.315
X2.8504Y-3.1122
X2.8553Y-3.6102
X2.8553Y-3.7608
X2.8738Y-5.7276
X2.8809Y-3.6102
X2.8809Y-3.6988
X2.8976Y-5.0866
X2.9055Y-3.6545
X2.9065Y-3.7628
X2.9193Y-5.2362
X2.935Y-6.0886
X2.9488Y-5.2077
X2.9567Y-3.6102
X2.9577Y-3.6772
X2.9764Y-5.1722
X2.9823Y-6.0689
X2.9833Y-3.624
X2.9843Y-4.2559
X2.9862Y-4.7421
X2.9862Y-4.9882
X3.0079Y-2.8622
X3.0089Y-3.5817
X3.0236Y-4.9075
X3.0256Y-5.0669
X3.0374Y-2.2933
X3.0374Y-3.1122
X3.0734Y-4.6096
X3.0866Y-3.6201
X3.0866Y-4.126
X3.0901Y-5.7515
X3.1102Y-3.3976
X3.1102Y-4.1732
X3.1132Y-5.2579
X3.1234Y-4.9041
X3.137Y-3.5055
X3.1417Y-3.6988
X3.1432Y-4.6088
X3.1457Y-4.9882
X3.1457Y-5.1762
X3.1476Y-5.564
X3.1811Y-5.0463
X3.1831Y-3.9547
X3.1836Y-4.8086
X3.1934Y-5.4031
X3.1988Y-2.7343
X3.2037Y-3.7461
X3.2037Y-3.8504
X3.2047Y-3.7205
X3.2087Y-3.0079
X3.2126Y-5.0227
X3.2283Y-3.7579
X3.2362Y-3.2323
X3.237Y-2.5071
X3.2402Y-4.8179
X3.2539Y-5.0669
X3.2559Y-4.2008
X3.2559Y-5.565
X3.2579Y-3.4016
X3.2579Y-4.6801
X3.2677Y-5.5276
X3.2746Y-3.9547
X3.2815Y-4.6142
X3.2874Y-5.0217
X3.3002Y-5.1152
X3.3189Y-3.8917
X3.3189Y-4.0374
X3.3209Y-2.3366
X3.3327Y-3.5039
X3.3366Y-3.0059
X3.3406Y-4.0728
X3.3484Y-3.8504
X3.3484Y-5.5654
X3.351Y-2.4581
X3.3612Y-4.9016
X3.3803Y-2.3855
X3.3813Y-2.0207
X3.3917Y-5.0335
X3.4094Y-3.4016
X3.4183Y-5.1939
X3.4213Y-3.313
X3.4222Y-5.0128
X3.436Y-2.7126
X3.437Y-3.4114
X3.4528Y-3.5827
X3.4528Y-3.7028
X3.4528Y-4.2008
X3.4547Y-4.8071
X3.4587Y-4.6811
X3.4596Y-5.0719
X3.4606Y-5.6368
X3.4803Y-2.124
X3.4803Y-4.2343
X3.5Y-3.9547
X3.5114Y-5.3873
X3.5305Y-5.1624
X3.5374Y-2.6673
X3.5472Y-4.9744
X3.5472Y-5.0177
X3.553Y-6.0274
X3.5591Y-2.3839
X3.5768Y-4.8071
X3.5827Y-5.748
X3.5837Y-3.312
X3.5837Y-3.7805
X3.5842Y-5.5335
X3.5846Y-2.5492
X3.624Y-5.2736
X3.6947Y-5.1911
X3.7028Y-3.0591
X3.7707Y-5.1624
X3.7795Y-5.1122
X3.7864Y-2.8533
X3.7864Y-5.1378
X3.7874Y-2.7549
X3.8478Y-3.1817
X3.8481Y-2.9984
X3.8484Y-3.2598
X3.9055Y-4.6161
X3.9065Y-4.6929
X3.9075Y-3.6063
X3.9075Y-5.0768
X3.9075Y-5.1811
X3.9094Y-5.561
X3.9331Y-5.122
X3.9429Y-3.1969
X3.9547Y-5.0866
X3.9547Y-5.1545
X3.9833Y-5.6378
X4.002Y-4.2343
X4.0098Y-3.6693
X4.0155Y-4.0374
X4.0221Y-5.216
X4.0266Y-5.1417
X4.0276Y-4.2559
X4.0354Y-3.2756
X4.1043Y-4.1398
X4.1614Y-6.0177
X4.1693Y-5.6378
X4.187Y-2.2362
X4.1909Y-4.3484
X4.1909Y-4.4488
X4.1939Y-6.0374
X4.1949Y-2.6673
X4.2421Y-3.8917
X4.25Y-2.9075
X4.3012Y-4.3484
X4.3385Y-2.75
X4.3898Y-2.4803
X4.3898Y-4.4488
X4.3898Y-5.3858
X4.3898Y-5.8504
X4.429Y-3.8712
X4.5443Y-3.688
X4.5551Y-2.4409
X4.5628Y-2.5295
X4.5628Y-2.823
X4.5628Y-4.7915
X4.5628Y-5.7394
X4.6128Y-2.8254
X4.6128Y-3.8199
X4.6128Y-5.7337
X4.6142Y-4.8041
X4.6628Y-2.8252
X4.6628Y-3.7959
X4.6628Y-4.8018
X4.7128Y-2.5236
X4.7128Y-3.49
X4.7128Y-4.488
X4.7128Y-5.4329
T2
X2.0591Y-2.8071
X2.2657Y-3.8071
X2.2923Y-3.8986
X2.311Y-3.2972
X2.4872Y-4.1132
X2.8858Y-4.6949
X2.9513Y-5.7279
X3.0079Y-3.3976
X3.0882Y-2.9886
X3.1417Y-5.7579
X3.1462Y-3.5812
X3.1732Y-4.6043
X3.372Y-3.5413
X3.4961Y-5.2185
X3.5827Y-4.6004
X3.5842Y-3.5753
X3.5846Y-3.0669
X3.7795Y-3.7815
X3.7795Y-5.752
X3.7815Y-3.3071
X3.7815Y-4.8091
X4.1358Y-3.6792
X4.1614Y-2.8484
X4.1929Y-4.8051
T3
X2.3248Y-3.815
T4
X2.8346Y-4.4094
X2.8346Y-4.8819
X2.8346Y-5.3543
X2.8346Y-5.8268
X2.9346Y-4.4094
X2.9346Y-4.8819
X2.9346Y-5.3543
X2.9346Y-5.8268
X3.2126Y-4.752
X3.2126Y-4.9488
X3.2126Y-5.6969
X3.2126Y-5.8937
X3.3126Y-4.752
X3.3126Y-4.9488
X3.3126Y-5.6969
X3.3126Y-5.8937
X4.3898Y-2.3425
X4.3898Y-2.5394
X4.3898Y-2.815
X4.3898Y-3.0098
X4.3898Y-3.2874
X4.3898Y-3.485
X4.3898Y-3.7598
X4.3898Y-3.9567
X4.3898Y-4.311
X4.3898Y-4.5079
X4.3898Y-4.7835
X4.3898Y-4.9803
X4.3898Y-5.2559
X4.3898Y-5.4528
X4.3898Y-5.7283
X4.3898Y-5.9252
X4.4898Y-2.3425
X4.4898Y-2.5394
X4.4898Y-2.815
X4.4898Y-3.0098
X4.4898Y-3.2874
X4.4898Y-3.485
X4.4898Y-3.7598
X4.4898Y-3.9567
X4.4898Y-4.311
X4.4898Y-4.5079
X4.4898Y-4.7835
X4.4898Y-4.9803
X4.4898Y-5.2559
X4.4898Y-5.4528
X4.4898Y-5.7283
X4.4898Y-5.9252
T5
X2.0669Y-3.7535
X2.0669Y-3.8535
X2.0669Y-3.9535
X2.0669Y-4.0535
X2.0669Y-4.1535
X2.0906Y-3.0449
X2.0906Y-3.1449
X2.0906Y-3.2449
X2.0906Y-3.3449
X2.0906Y-3.4449
X2.1669Y-3.7535
X2.1669Y-3.8535
X2.1669Y-3.9535
X2.1669Y-4.0535
X2.1669Y-4.1535
X2.1906Y-3.0449
X2.1906Y-3.1449
X2.1906Y-3.2449
X2.1906Y-3.3449
X2.1906Y-3.4449
X2.537Y-2.2071
X2.537Y-2.8071
X2.637Y-2.2071
X2.637Y-2.8071
X2.7047Y-3.5984
X2.7047Y-3.7953
X2.737Y-2.2071
X2.737Y-2.8071
X2.837Y-2.2071
X2.837Y-2.8071
X2.937Y-2.2071
X2.937Y-2.8071
X3.037Y-2.2071
X3.037Y-2.8071
X3.137Y-2.2071
X3.137Y-2.8071
X3.237Y-2.2071
X3.237Y-2.8071
X3.2756Y-3.5984
X3.2756Y-3.6969
X3.2756Y-3.7953
X3.337Y-2.2071
X3.337Y-2.8071
X3.437Y-2.2071
X3.437Y-2.8071
X3.537Y-2.2071
X3.537Y-2.8071
X3.637Y-2.2071
X3.637Y-2.8071
X3.737Y-2.2071
X3.737Y-2.8071
X3.7376Y-2.0591
X3.837Y-2.2071
X3.837Y-2.8071
X3.8376Y-2.0591
X3.937Y-2.2071
X3.937Y-2.8071
T6
X2.8323Y-2.0866
X2.9323Y-2.0866
X3.0323Y-2.0866
X3.1323Y-2.0866
T7
X2.0472Y-4.2815
X2.0472Y-4.5374
X2.0472Y-4.7539
X2.0472Y-5.0098
X2.0472Y-5.2264
X2.0472Y-5.4823
X2.0472Y-5.6988
X2.0472Y-5.9547
X2.1476Y-2.5709
X2.1476Y-2.748
X2.1496Y-2.2677
X2.1496Y-2.4449
X2.2244Y-4.2815
X2.2244Y-4.5374
X2.2244Y-4.7539
X2.2244Y-5.0098
X2.2244Y-5.2264
X2.2244Y-5.4823
X2.2244Y-5.6988
X2.2244Y-5.9547
X2.4035Y-2.5709
X2.4035Y-2.748
X2.4055Y-2.2677
X2.4055Y-2.4449
X2.6457Y-3.1693
X2.6457Y-3.3465
X2.9016Y-3.1693
X2.9016Y-3.3465
X3.0591Y-3.1693
X3.0591Y-3.3465
X3.315Y-3.1693
X3.315Y-3.3465
X4.0945Y-2.313
X4.0945Y-2.5689
X4.0945Y-2.7854
X4.0945Y-3.0413
X4.0945Y-3.2579
X4.0945Y-3.5138
X4.0945Y-3.7303
X4.0945Y-3.9862
X4.0945Y-4.2815
X4.0945Y-4.5374
X4.0945Y-4.7539
X4.0945Y-5.0098
X4.0945Y-5.2264
X4.0945Y-5.4823
X4.0945Y-5.6988
X4.0945Y-5.9547
X4.2717Y-2.313
X4.2717Y-2.5689
X4.2717Y-2.7854
X4.2717Y-3.0413
X4.2717Y-3.2579
X4.2717Y-3.5138
X4.2717Y-3.7303
X4.2717Y-3.9862
X4.2717Y-4.2815
X4.2717Y-4.5374
X4.2717Y-4.7539
X4.2717Y-5.0098
X4.2717Y-5.2264
X4.2717Y-5.4823
X4.2717Y-5.6988
X4.2717Y-5.9547
T8
X2.3689Y-4.4429
X2.3689Y-4.9154
X2.3689Y-5.3878
X2.3689Y-5.8602
X2.4535Y-4.3839
X2.4535Y-4.8563
X2.4535Y-5.3287
X2.4535Y-5.8012
X2.6287Y-4.3839
X2.6287Y-4.8563
X2.6287Y-5.3287
X2.6287Y-5.8012
X2.7193Y-4.4429
X2.7193Y-4.9154
X2.7193Y-5.3878
X2.7193Y-5.8602
X3.0579Y-4.4429
X3.0579Y-5.3878
X3.1425Y-4.3839
X3.1425Y-5.3287
X3.3177Y-4.3839
X3.3177Y-5.3287
X3.4083Y-4.4429
X3.4083Y-5.3878
X3.6091Y-2.4744
X3.6091Y-2.9469
X3.6091Y-3.4193
X3.6091Y-3.8917
X3.6091Y-4.4429
X3.6091Y-4.9154
X3.6091Y-5.3878
X3.6091Y-5.8602
X3.6937Y-2.4154
X3.6937Y-2.8878
X3.6937Y-3.3602
X3.6937Y-3.8327
X3.6937Y-4.3839
X3.6937Y-4.8563
X3.6937Y-5.3287
X3.6937Y-5.8012
X3.8689Y-2.4154
X3.8689Y-2.8878
X3.8689Y-3.3602
X3.8689Y-3.8327
X3.8689Y-4.3839
X3.8689Y-4.8563
X3.8689Y-5.3287
X3.8689Y-5.8012
X3.9594Y-2.4744
X3.9594Y-2.9469
X3.9594Y-3.4193
X3.9594Y-3.8917
X3.9594Y-4.4429
X3.9594Y-4.9154
X3.9594Y-5.3878
X3.9594Y-5.8602
T9
X2.4106Y-4.5433
X2.4106Y-5.0157
X2.4106Y-5.4882
X2.4106Y-5.9606
X2.6929Y-6.1811
X2.9843Y-4.0906
X3.0996Y-4.5433
X3.0996Y-5.4882
X3.6508Y-2.5748
X3.6508Y-3.0472
X3.6508Y-3.5197
X3.6508Y-3.9921
X3.6508Y-4.5433
X3.6508Y-5.0157
X3.6508Y-5.4882
X3.6508Y-5.9606
X3.7677Y-6.1811
T9
G00X2.6539Y-4.5433
M15
G01X2.6933Y-4.5433
M16
G05
G00X2.6539Y-5.0157
M15
G01X2.6933Y-5.0157
M16
G05
G00X2.6539Y-5.4882
M15
G01X2.6933Y-5.4882
M16
G05
G00X2.6539Y-5.9606
M15
G01X2.6933Y-5.9606
M16
G05
G00X3.3429Y-4.5433
M15
G01X3.3823Y-4.5433
M16
G05
G00X3.3429Y-5.4882
M15
G01X3.3823Y-5.4882
M16
G05
G00X3.8941Y-2.5748
M15
G01X3.9335Y-2.5748
M16
G05
G00X3.8941Y-3.0472
M15
G01X3.9335Y-3.0472
M16
G05
G00X3.8941Y-3.5197
M15
G01X3.9335Y-3.5197
M16
G05
G00X3.8941Y-3.9921
M15
G01X3.9335Y-3.9921
M16
G05
G00X3.8941Y-4.5433
M15
G01X3.9335Y-4.5433
M16
G05
G00X3.8941Y-5.0157
M15
G01X3.9335Y-5.0157
M16
G05
G00X3.8941Y-5.4882
M15
G01X3.9335Y-5.4882
M16
G05
G00X3.8941Y-5.9606
M15
G01X3.9335Y-5.9606
M16
G05
T10
G00X2.9646Y-3.4724
M15
G01X2.9961Y-3.4724
M16
G05
G00X2.9646Y-3.9213
M15
G01X2.9961Y-3.9213
M16
G05
T0
M30
