M48
; DRILL file {KiCad (6.0.1)} date Thu Mar 31 06:37:52 2022
; FORMAT={-:-/ absolute / inch / decimal}
; #@! TF.CreationDate,2022-03-31T06:37:52-07:00
; #@! TF.GenerationSoftware,Kicad,Pcbnew,(6.0.1)
; #@! TF.FileFunction,Plated,1,4,PTH
FMAT,2
INCH
; #@! TA.AperFunction,Plated,PTH,ViaDrill
T1C0.0079
; #@! TA.AperFunction,Plated,PTH,ViaDrill
T2C0.0118
; #@! TA.AperFunction,Plated,PTH,ViaDrill
T3C0.0157
; #@! TA.AperFunction,Plated,PTH,ComponentDrill
T4C0.0354
; #@! TA.AperFunction,Plated,PTH,ComponentDrill
T5C0.0394
; #@! TA.AperFunction,Plated,PTH,ComponentDrill
T6C0.0402
; #@! TA.AperFunction,Plated,PTH,ComponentDrill
T7C0.0433
; #@! TA.AperFunction,Plated,PTH,ComponentDrill
T8C0.0591
; #@! TA.AperFunction,Plated,PTH,ComponentDrill
T9C0.0630
; #@! TA.AperFunction,Plated,PTH,ComponentDrill
T10C0.0709
%
G90
G05
T1
X1.9941Y-2.6969
X2.0217Y-2.2047
X2.0531Y-2.7736
X2.0551Y-4.9094
X2.061Y-5.3386
X2.2421Y-2.8543
X2.2854Y-4.75
X2.2864Y-5.69
X2.2864Y-6.0276
X2.3051Y-4.6535
X2.3128Y-5.986
X2.3543Y-2.998
X2.3543Y-4.1201
X2.3819Y-4.5965
X2.3819Y-4.7244
X2.4035Y-3.1693
X2.4055Y-2.0492
X2.4429Y-5.7126
X2.4626Y-4.6476
X2.4626Y-4.6988
X2.4715Y-5.9872
X2.5Y-4.9331
X2.5049Y-5.7589
X2.5098Y-5.6161
X2.5138Y-4.622
X2.5354Y-4.7815
X2.5394Y-3.9803
X2.5394Y-4.1201
X2.5394Y-4.8642
X2.5394Y-5.313
X2.5413Y-4.2874
X2.5453Y-4.622
X2.5727Y-5.2242
X2.5807Y-4.6476
X2.5809Y-5.5776
X2.5906Y-3.6752
X2.5945Y-4.6988
X2.6063Y-4.6732
X2.6083Y-4.7244
X2.6083Y-4.3071
X2.6101Y-5.7068
X2.6191Y-5.1368
X2.6673Y-5.6476
X2.685Y-2.6181
X2.6929Y-4.6988
X2.7106Y-4.0492
X2.7106Y-4.2008
X2.7165Y-3.9547
X2.7554Y-5.5123
X2.7657Y-3.5413
X2.7785Y-5.8996
X2.7854Y-3.6309
X2.8065Y-6.0476
X2.8095Y-4.7977
X2.811Y-3.9178
X2.811Y-4.2559
X2.813Y-3.3612
X2.8278Y-3.0846
X2.8297Y-3.5344
X2.8307Y-3.8376
X2.8346Y-3.2539
X2.8356Y-3.7412
X2.8366Y-2.313
X2.8504Y-3.1122
X2.8553Y-3.6102
X2.8553Y-3.7608
X2.8738Y-5.7276
X2.8809Y-3.6102
X2.8809Y-3.6988
X2.8976Y-5.0866
X2.9055Y-3.6545
X2.9065Y-3.7628
X2.9144Y-4.5217
X2.9146Y-4.5894
X2.935Y-6.0886
X2.9449Y-4.1142
X2.9567Y-3.6102
X2.9577Y-3.6772
X2.9606Y-5.9557
X2.9819Y-4.5217
X2.9823Y-4.2244
X2.9823Y-6.0689
X2.9833Y-3.624
X2.9843Y-4.2559
X2.9862Y-4.7421
X2.9862Y-4.9882
X3.0079Y-2.8622
X3.0089Y-3.5817
X3.0236Y-4.9075
X3.0256Y-5.0669
X3.0374Y-2.2933
X3.0374Y-3.1122
X3.0571Y-2.562
X3.061Y-5.8789
X3.063Y-5.1437
X3.0669Y-4.2992
X3.0689Y-5.5768
X3.0734Y-4.6096
X3.0866Y-3.6201
X3.0866Y-4.126
X3.1053Y-5.9163
X3.1102Y-3.3976
X3.122Y-5.4124
X3.1234Y-4.9041
X3.1417Y-3.6988
X3.1432Y-4.6088
X3.1457Y-4.9882
X3.1734Y-4.81
X3.1776Y-4.2287
X3.1811Y-5.0423
X3.185Y-5.2244
X3.1934Y-5.4031
X3.1988Y-2.7343
X3.2037Y-3.7461
X3.2037Y-3.8504
X3.2047Y-3.7205
X3.2087Y-3.0079
X3.2106Y-4.0
X3.2283Y-3.7579
X3.2362Y-3.2323
X3.2362Y-4.6535
X3.237Y-2.5071
X3.2559Y-4.2008
X3.2559Y-4.6811
X3.2559Y-5.0669
X3.2559Y-5.565
X3.2579Y-3.4016
X3.2638Y-4.8179
X3.2654Y-5.5949
X3.2801Y-5.0211
X3.2815Y-4.6142
X3.2825Y-5.3967
X3.2874Y-4.3012
X3.3002Y-5.1161
X3.3071Y-5.5285
X3.3126Y-6.0476
X3.3189Y-3.8917
X3.3189Y-4.0374
X3.3209Y-2.3366
X3.3327Y-3.5039
X3.3366Y-3.0059
X3.3406Y-4.0728
X3.3484Y-3.8504
X3.3502Y-5.1911
X3.351Y-2.4581
X3.374Y-4.9026
X3.3803Y-2.3855
X3.3813Y-2.0207
X3.3917Y-5.0335
X3.4094Y-3.4016
X3.4094Y-4.2283
X3.4193Y-5.0118
X3.437Y-2.6929
X3.437Y-3.3091
X3.437Y-3.4114
X3.4587Y-3.6063
X3.4587Y-3.7028
X3.4587Y-4.2008
X3.4587Y-4.6811
X3.4587Y-4.8071
X3.4596Y-5.0719
X3.4646Y-5.5364
X3.4803Y-2.124
X3.4803Y-4.2343
X3.5Y-3.9547
X3.5177Y-5.9193
X3.5305Y-5.1624
X3.5374Y-2.7126
X3.5472Y-4.9744
X3.553Y-6.0274
X3.5591Y-2.3839
X3.5768Y-4.8071
X3.5809Y-5.0411
X3.5827Y-5.748
X3.5837Y-3.312
X3.5837Y-3.7805
X3.5842Y-5.5335
X3.5846Y-2.5492
X3.624Y-5.2736
X3.6841Y-4.9724
X3.6947Y-5.1911
X3.7028Y-3.0591
X3.7707Y-5.1624
X3.7933Y-5.1083
X3.8191Y-5.2109
X3.8287Y-5.003
X3.8478Y-3.1817
X3.8481Y-2.9984
X3.8484Y-3.2598
X3.9035Y-4.6929
X3.9055Y-3.6063
X3.9055Y-4.6161
X3.9094Y-5.561
X3.9154Y-5.0768
X3.9429Y-3.1969
X3.9748Y-5.0772
X3.9833Y-5.6378
X4.002Y-4.2343
X4.0098Y-3.6693
X4.0155Y-4.0374
X4.0276Y-4.2559
X4.0354Y-3.2756
X4.1043Y-4.1398
X4.1339Y-4.2047
X4.1614Y-6.0177
X4.187Y-2.2362
X4.1909Y-4.3484
X4.1909Y-5.1398
X4.1939Y-6.0374
X4.1949Y-2.6929
X4.2421Y-3.8917
X4.25Y-2.9075
X4.2913Y-3.4173
X4.2992Y-2.7087
X4.3012Y-4.3484
X4.3091Y-6.0236
X4.3385Y-2.75
X4.3602Y-4.9154
X4.3642Y-2.876
X4.3661Y-4.4035
X4.3701Y-3.3878
X4.374Y-3.0984
X4.374Y-4.0472
X4.376Y-5.5335
X4.437Y-5.3622
X4.4469Y-5.0709
X4.4685Y-2.1713
X4.4685Y-3.6083
X4.4961Y-2.685
X4.5059Y-5.6398
X4.5079Y-2.9213
X4.5079Y-4.689
X4.5118Y-3.1969
X4.5138Y-4.4055
X4.5197Y-5.3346
X4.5256Y-4.2047
X4.5315Y-3.4213
X4.5398Y-4.5693
X4.5551Y-2.4409
X4.5551Y-4.3366
X4.561Y-3.4035
X4.5628Y-2.5295
X4.5628Y-4.7915
X4.5628Y-5.4372
X4.5628Y-5.7364
X4.563Y-3.5
X4.563Y-3.6949
X4.5965Y-2.8228
X4.5965Y-3.7913
X4.6004Y-4.7913
X4.6032Y-3.8909
X4.6063Y-6.0236
X4.6128Y-5.7337
X4.6319Y-2.8937
X4.6319Y-5.9016
X4.6358Y-3.9409
X4.6358Y-4.0098
X4.6378Y-2.9744
X4.6378Y-3.0591
X4.6378Y-4.9429
X4.6398Y-5.0335
X4.6628Y-3.7959
X4.6628Y-4.8018
X4.7128Y-2.6238
X4.7128Y-3.49
X4.7128Y-4.488
X4.7128Y-5.4329
T2
X1.9961Y-5.4173
X2.0591Y-2.8071
X2.2165Y-3.5571
X2.2657Y-3.8071
X2.2923Y-3.8986
X2.311Y-3.2972
X2.4587Y-3.5413
X2.4872Y-4.1132
X2.5354Y-4.1988
X2.8858Y-4.6949
X2.9513Y-5.7279
X3.0079Y-3.3976
X3.1102Y-4.1732
X3.1417Y-5.7579
X3.1462Y-3.5812
X3.1732Y-4.6043
X3.3484Y-5.5654
X3.372Y-3.5413
X3.4961Y-5.2185
X3.5827Y-4.6004
X3.5842Y-3.5753
X3.5846Y-3.0669
X3.7795Y-3.7815
X3.7795Y-5.752
X3.7815Y-3.3071
X3.7815Y-4.8091
X4.1358Y-3.6792
X4.1614Y-2.8484
X4.1929Y-4.8051
T3
X2.3248Y-3.815
T4
X2.8346Y-4.4094
X2.8346Y-4.8819
X2.8346Y-5.3543
X2.8346Y-5.8268
X2.9346Y-4.4094
X2.9346Y-4.8819
X2.9346Y-5.3543
X2.9346Y-5.8268
X3.2126Y-4.752
X3.2126Y-4.9488
X3.2126Y-5.6969
X3.2126Y-5.8937
X3.3126Y-4.752
X3.3126Y-4.9488
X3.3126Y-5.6969
X3.3126Y-5.8937
X4.3898Y-2.3425
X4.3898Y-2.5394
X4.3898Y-2.815
X4.3898Y-3.0098
X4.3898Y-3.2874
X4.3898Y-3.485
X4.3898Y-3.7598
X4.3898Y-3.9567
X4.3898Y-4.311
X4.3898Y-4.5079
X4.3898Y-4.7835
X4.3898Y-4.9803
X4.3898Y-5.2559
X4.3898Y-5.4528
X4.3898Y-5.7283
X4.3898Y-5.9252
X4.4898Y-2.3425
X4.4898Y-2.5394
X4.4898Y-2.815
X4.4898Y-3.0098
X4.4898Y-3.2874
X4.4898Y-3.485
X4.4898Y-3.7598
X4.4898Y-3.9567
X4.4898Y-4.311
X4.4898Y-4.5079
X4.4898Y-4.7835
X4.4898Y-4.9803
X4.4898Y-5.2559
X4.4898Y-5.4528
X4.4898Y-5.7283
X4.4898Y-5.9252
T5
X2.0669Y-3.0449
X2.0669Y-3.1449
X2.0669Y-3.2449
X2.0669Y-3.3449
X2.0669Y-3.4449
X2.0669Y-3.7535
X2.0669Y-3.8535
X2.0669Y-3.9535
X2.0669Y-4.0535
X2.0669Y-4.1535
X2.1669Y-3.0449
X2.1669Y-3.1449
X2.1669Y-3.2449
X2.1669Y-3.3449
X2.1669Y-3.4449
X2.1669Y-3.7535
X2.1669Y-3.8535
X2.1669Y-3.9535
X2.1669Y-4.0535
X2.1669Y-4.1535
X2.537Y-2.2071
X2.537Y-2.8071
X2.637Y-2.2071
X2.637Y-2.8071
X2.7047Y-3.5984
X2.7047Y-3.7953
X2.737Y-2.2071
X2.737Y-2.8071
X2.837Y-2.2071
X2.837Y-2.8071
X2.937Y-2.2071
X2.937Y-2.8071
X3.037Y-2.2071
X3.037Y-2.8071
X3.137Y-2.2071
X3.137Y-2.8071
X3.237Y-2.2071
X3.237Y-2.8071
X3.2756Y-3.5984
X3.2756Y-3.6969
X3.2756Y-3.7953
X3.337Y-2.2071
X3.337Y-2.8071
X3.437Y-2.2071
X3.437Y-2.8071
X3.537Y-2.2071
X3.537Y-2.8071
X3.637Y-2.2071
X3.637Y-2.8071
X3.737Y-2.2071
X3.737Y-2.8071
X3.7376Y-2.0591
X3.837Y-2.2071
X3.837Y-2.8071
X3.8376Y-2.0591
X3.937Y-2.2071
X3.937Y-2.8071
T6
X2.8323Y-2.126
X2.9323Y-2.126
X3.0323Y-2.126
X3.1323Y-2.126
T7
X2.0472Y-4.2815
X2.0472Y-4.5374
X2.0472Y-4.7539
X2.0472Y-5.0098
X2.0472Y-5.2264
X2.0472Y-5.4823
X2.0472Y-5.6988
X2.0472Y-5.9547
X2.1476Y-2.5709
X2.1476Y-2.748
X2.1496Y-2.2677
X2.1496Y-2.4449
X2.2244Y-4.2815
X2.2244Y-4.5374
X2.2244Y-4.7539
X2.2244Y-5.0098
X2.2244Y-5.2264
X2.2244Y-5.4823
X2.2244Y-5.6988
X2.2244Y-5.9547
X2.4035Y-2.5709
X2.4035Y-2.748
X2.4055Y-2.2677
X2.4055Y-2.4449
X2.6457Y-3.1693
X2.6457Y-3.3465
X2.9016Y-3.1693
X2.9016Y-3.3465
X3.0591Y-3.1693
X3.0591Y-3.3465
X3.315Y-3.1693
X3.315Y-3.3465
X4.0945Y-2.313
X4.0945Y-2.5689
X4.0945Y-2.7854
X4.0945Y-3.0413
X4.0945Y-3.2579
X4.0945Y-3.5138
X4.0945Y-3.7303
X4.0945Y-3.9862
X4.0945Y-4.2815
X4.0945Y-4.5374
X4.0945Y-4.7539
X4.0945Y-5.0098
X4.0945Y-5.2264
X4.0945Y-5.4823
X4.0945Y-5.6988
X4.0945Y-5.9547
X4.2717Y-2.313
X4.2717Y-2.5689
X4.2717Y-2.7854
X4.2717Y-3.0413
X4.2717Y-3.2579
X4.2717Y-3.5138
X4.2717Y-3.7303
X4.2717Y-3.9862
X4.2717Y-4.2815
X4.2717Y-4.5374
X4.2717Y-4.7539
X4.2717Y-5.0098
X4.2717Y-5.2264
X4.2717Y-5.4823
X4.2717Y-5.6988
X4.2717Y-5.9547
T8
X2.3689Y-4.4429
X2.3689Y-4.9154
X2.3689Y-5.3878
X2.3689Y-5.8602
X2.4535Y-4.3839
X2.4535Y-4.8563
X2.4535Y-5.3287
X2.4535Y-5.8012
X2.6287Y-4.3839
X2.6287Y-4.8563
X2.6287Y-5.3287
X2.6287Y-5.8012
X2.7193Y-4.4429
X2.7193Y-4.9154
X2.7193Y-5.3878
X2.7193Y-5.8602
X3.0579Y-4.4429
X3.0579Y-5.3878
X3.1425Y-4.3839
X3.1425Y-5.3287
X3.3177Y-4.3839
X3.3177Y-5.3287
X3.4083Y-4.4429
X3.4083Y-5.3878
X3.6091Y-2.4744
X3.6091Y-2.9469
X3.6091Y-3.4193
X3.6091Y-3.8917
X3.6091Y-4.4429
X3.6091Y-4.9154
X3.6091Y-5.3878
X3.6091Y-5.8602
X3.6937Y-2.4154
X3.6937Y-2.8878
X3.6937Y-3.3602
X3.6937Y-3.8327
X3.6937Y-4.3839
X3.6937Y-4.8563
X3.6937Y-5.3287
X3.6937Y-5.8012
X3.8689Y-2.4154
X3.8689Y-2.8878
X3.8689Y-3.3602
X3.8689Y-3.8327
X3.8689Y-4.3839
X3.8689Y-4.8563
X3.8689Y-5.3287
X3.8689Y-5.8012
X3.9594Y-2.4744
X3.9594Y-2.9469
X3.9594Y-3.4193
X3.9594Y-3.8917
X3.9594Y-4.4429
X3.9594Y-4.9154
X3.9594Y-5.3878
X3.9594Y-5.8602
T9
X2.4106Y-4.5433
X2.4106Y-5.0157
X2.4106Y-5.4882
X2.4106Y-5.9606
X2.6929Y-6.1791
X3.0996Y-4.5433
X3.0996Y-5.4882
X3.6508Y-2.5748
X3.6508Y-3.0472
X3.6508Y-3.5197
X3.6508Y-3.9921
X3.6508Y-4.5433
X3.6508Y-5.0157
X3.6508Y-5.4882
X3.6508Y-5.9606
X3.7677Y-6.1654
T9
G00X2.6539Y-4.5433
M15
G01X2.6933Y-4.5433
M16
G05
G00X2.6539Y-5.0157
M15
G01X2.6933Y-5.0157
M16
G05
G00X2.6539Y-5.4882
M15
G01X2.6933Y-5.4882
M16
G05
G00X2.6539Y-5.9606
M15
G01X2.6933Y-5.9606
M16
G05
G00X3.3429Y-4.5433
M15
G01X3.3823Y-4.5433
M16
G05
G00X3.3429Y-5.4882
M15
G01X3.3823Y-5.4882
M16
G05
G00X3.8941Y-2.5748
M15
G01X3.9335Y-2.5748
M16
G05
G00X3.8941Y-3.0472
M15
G01X3.9335Y-3.0472
M16
G05
G00X3.8941Y-3.5197
M15
G01X3.9335Y-3.5197
M16
G05
G00X3.8941Y-3.9921
M15
G01X3.9335Y-3.9921
M16
G05
G00X3.8941Y-4.5433
M15
G01X3.9335Y-4.5433
M16
G05
G00X3.8941Y-5.0157
M15
G01X3.9335Y-5.0157
M16
G05
G00X3.8941Y-5.4882
M15
G01X3.9335Y-5.4882
M16
G05
G00X3.8941Y-5.9606
M15
G01X3.9335Y-5.9606
M16
G05
T10
G00X2.9646Y-3.4724
M15
G01X2.9961Y-3.4724
M16
G05
G00X2.9646Y-3.9213
M15
G01X2.9961Y-3.9213
M16
G05
T0
M30
