%TF.GenerationSoftware,KiCad,Pcbnew,(6.0.1)*%
%TF.CreationDate,2022-09-18T13:33:57-07:00*%
%TF.ProjectId,main_board,6d61696e-5f62-46f6-9172-642e6b696361,2.3*%
%TF.SameCoordinates,Original*%
%TF.FileFunction,Legend,Top*%
%TF.FilePolarity,Positive*%
%FSLAX46Y46*%
G04 Gerber Fmt 4.6, Leading zero omitted, Abs format (unit mm)*
G04 Created by KiCad (PCBNEW (6.0.1)) date 2022-09-18 13:33:57*
%MOMM*%
%LPD*%
G01*
G04 APERTURE LIST*
%ADD10C,0.150000*%
%ADD11C,0.120000*%
%ADD12C,0.100000*%
G04 APERTURE END LIST*
D10*
X115535714Y-88952380D02*
X115535714Y-87952380D01*
X115773809Y-87952380D01*
X115916666Y-88000000D01*
X116011904Y-88095238D01*
X116059523Y-88190476D01*
X116107142Y-88380952D01*
X116107142Y-88523809D01*
X116059523Y-88714285D01*
X116011904Y-88809523D01*
X115916666Y-88904761D01*
X115773809Y-88952380D01*
X115535714Y-88952380D01*
X116488095Y-88047619D02*
X116535714Y-88000000D01*
X116630952Y-87952380D01*
X116869047Y-87952380D01*
X116964285Y-88000000D01*
X117011904Y-88047619D01*
X117059523Y-88142857D01*
X117059523Y-88238095D01*
X117011904Y-88380952D01*
X116440476Y-88952380D01*
X117059523Y-88952380D01*
X117392857Y-87952380D02*
X118011904Y-87952380D01*
X117678571Y-88333333D01*
X117821428Y-88333333D01*
X117916666Y-88380952D01*
X117964285Y-88428571D01*
X118011904Y-88523809D01*
X118011904Y-88761904D01*
X117964285Y-88857142D01*
X117916666Y-88904761D01*
X117821428Y-88952380D01*
X117535714Y-88952380D01*
X117440476Y-88904761D01*
X117392857Y-88857142D01*
X115485714Y-139052380D02*
X115485714Y-138052380D01*
X115723809Y-138052380D01*
X115866666Y-138100000D01*
X115961904Y-138195238D01*
X116009523Y-138290476D01*
X116057142Y-138480952D01*
X116057142Y-138623809D01*
X116009523Y-138814285D01*
X115961904Y-138909523D01*
X115866666Y-139004761D01*
X115723809Y-139052380D01*
X115485714Y-139052380D01*
X116390476Y-138052380D02*
X117009523Y-138052380D01*
X116676190Y-138433333D01*
X116819047Y-138433333D01*
X116914285Y-138480952D01*
X116961904Y-138528571D01*
X117009523Y-138623809D01*
X117009523Y-138861904D01*
X116961904Y-138957142D01*
X116914285Y-139004761D01*
X116819047Y-139052380D01*
X116533333Y-139052380D01*
X116438095Y-139004761D01*
X116390476Y-138957142D01*
X117961904Y-139052380D02*
X117390476Y-139052380D01*
X117676190Y-139052380D02*
X117676190Y-138052380D01*
X117580952Y-138195238D01*
X117485714Y-138290476D01*
X117390476Y-138338095D01*
X111555714Y-118992380D02*
X111555714Y-117992380D01*
X111793809Y-117992380D01*
X111936666Y-118040000D01*
X112031904Y-118135238D01*
X112079523Y-118230476D01*
X112127142Y-118420952D01*
X112127142Y-118563809D01*
X112079523Y-118754285D01*
X112031904Y-118849523D01*
X111936666Y-118944761D01*
X111793809Y-118992380D01*
X111555714Y-118992380D01*
X112460476Y-117992380D02*
X113079523Y-117992380D01*
X112746190Y-118373333D01*
X112889047Y-118373333D01*
X112984285Y-118420952D01*
X113031904Y-118468571D01*
X113079523Y-118563809D01*
X113079523Y-118801904D01*
X113031904Y-118897142D01*
X112984285Y-118944761D01*
X112889047Y-118992380D01*
X112603333Y-118992380D01*
X112508095Y-118944761D01*
X112460476Y-118897142D01*
X113936666Y-118325714D02*
X113936666Y-118992380D01*
X113698571Y-117944761D02*
X113460476Y-118659047D01*
X114079523Y-118659047D01*
X104540476Y-141904761D02*
X104683333Y-141952380D01*
X104921428Y-141952380D01*
X105016666Y-141904761D01*
X105064285Y-141857142D01*
X105111904Y-141761904D01*
X105111904Y-141666666D01*
X105064285Y-141571428D01*
X105016666Y-141523809D01*
X104921428Y-141476190D01*
X104730952Y-141428571D01*
X104635714Y-141380952D01*
X104588095Y-141333333D01*
X104540476Y-141238095D01*
X104540476Y-141142857D01*
X104588095Y-141047619D01*
X104635714Y-141000000D01*
X104730952Y-140952380D01*
X104969047Y-140952380D01*
X105111904Y-141000000D01*
X105445238Y-140952380D02*
X105683333Y-141952380D01*
X105873809Y-141238095D01*
X106064285Y-141952380D01*
X106302380Y-140952380D01*
X107207142Y-141952380D02*
X106635714Y-141952380D01*
X106921428Y-141952380D02*
X106921428Y-140952380D01*
X106826190Y-141095238D01*
X106730952Y-141190476D01*
X106635714Y-141238095D01*
X108064285Y-140952380D02*
X107873809Y-140952380D01*
X107778571Y-141000000D01*
X107730952Y-141047619D01*
X107635714Y-141190476D01*
X107588095Y-141380952D01*
X107588095Y-141761904D01*
X107635714Y-141857142D01*
X107683333Y-141904761D01*
X107778571Y-141952380D01*
X107969047Y-141952380D01*
X108064285Y-141904761D01*
X108111904Y-141857142D01*
X108159523Y-141761904D01*
X108159523Y-141523809D01*
X108111904Y-141428571D01*
X108064285Y-141380952D01*
X107969047Y-141333333D01*
X107778571Y-141333333D01*
X107683333Y-141380952D01*
X107635714Y-141428571D01*
X107588095Y-141523809D01*
X80010714Y-129227380D02*
X80010714Y-128227380D01*
X80248809Y-128227380D01*
X80391666Y-128275000D01*
X80486904Y-128370238D01*
X80534523Y-128465476D01*
X80582142Y-128655952D01*
X80582142Y-128798809D01*
X80534523Y-128989285D01*
X80486904Y-129084523D01*
X80391666Y-129179761D01*
X80248809Y-129227380D01*
X80010714Y-129227380D01*
X81534523Y-129227380D02*
X80963095Y-129227380D01*
X81248809Y-129227380D02*
X81248809Y-128227380D01*
X81153571Y-128370238D01*
X81058333Y-128465476D01*
X80963095Y-128513095D01*
X82010714Y-129227380D02*
X82201190Y-129227380D01*
X82296428Y-129179761D01*
X82344047Y-129132142D01*
X82439285Y-128989285D01*
X82486904Y-128798809D01*
X82486904Y-128417857D01*
X82439285Y-128322619D01*
X82391666Y-128275000D01*
X82296428Y-128227380D01*
X82105952Y-128227380D01*
X82010714Y-128275000D01*
X81963095Y-128322619D01*
X81915476Y-128417857D01*
X81915476Y-128655952D01*
X81963095Y-128751190D01*
X82010714Y-128798809D01*
X82105952Y-128846428D01*
X82296428Y-128846428D01*
X82391666Y-128798809D01*
X82439285Y-128751190D01*
X82486904Y-128655952D01*
X104340476Y-154104761D02*
X104483333Y-154152380D01*
X104721428Y-154152380D01*
X104816666Y-154104761D01*
X104864285Y-154057142D01*
X104911904Y-153961904D01*
X104911904Y-153866666D01*
X104864285Y-153771428D01*
X104816666Y-153723809D01*
X104721428Y-153676190D01*
X104530952Y-153628571D01*
X104435714Y-153580952D01*
X104388095Y-153533333D01*
X104340476Y-153438095D01*
X104340476Y-153342857D01*
X104388095Y-153247619D01*
X104435714Y-153200000D01*
X104530952Y-153152380D01*
X104769047Y-153152380D01*
X104911904Y-153200000D01*
X105245238Y-153152380D02*
X105483333Y-154152380D01*
X105673809Y-153438095D01*
X105864285Y-154152380D01*
X106102380Y-153152380D01*
X107007142Y-154152380D02*
X106435714Y-154152380D01*
X106721428Y-154152380D02*
X106721428Y-153152380D01*
X106626190Y-153295238D01*
X106530952Y-153390476D01*
X106435714Y-153438095D01*
X107340476Y-153152380D02*
X108007142Y-153152380D01*
X107578571Y-154152380D01*
X92690476Y-143402380D02*
X92690476Y-144116666D01*
X92642857Y-144259523D01*
X92547619Y-144354761D01*
X92404761Y-144402380D01*
X92309523Y-144402380D01*
X93690476Y-144402380D02*
X93119047Y-144402380D01*
X93404761Y-144402380D02*
X93404761Y-143402380D01*
X93309523Y-143545238D01*
X93214285Y-143640476D01*
X93119047Y-143688095D01*
X94595238Y-143402380D02*
X94119047Y-143402380D01*
X94071428Y-143878571D01*
X94119047Y-143830952D01*
X94214285Y-143783333D01*
X94452380Y-143783333D01*
X94547619Y-143830952D01*
X94595238Y-143878571D01*
X94642857Y-143973809D01*
X94642857Y-144211904D01*
X94595238Y-144307142D01*
X94547619Y-144354761D01*
X94452380Y-144402380D01*
X94214285Y-144402380D01*
X94119047Y-144354761D01*
X94071428Y-144307142D01*
X104490476Y-67954761D02*
X104633333Y-68002380D01*
X104871428Y-68002380D01*
X104966666Y-67954761D01*
X105014285Y-67907142D01*
X105061904Y-67811904D01*
X105061904Y-67716666D01*
X105014285Y-67621428D01*
X104966666Y-67573809D01*
X104871428Y-67526190D01*
X104680952Y-67478571D01*
X104585714Y-67430952D01*
X104538095Y-67383333D01*
X104490476Y-67288095D01*
X104490476Y-67192857D01*
X104538095Y-67097619D01*
X104585714Y-67050000D01*
X104680952Y-67002380D01*
X104919047Y-67002380D01*
X105061904Y-67050000D01*
X105395238Y-67002380D02*
X105633333Y-68002380D01*
X105823809Y-67288095D01*
X106014285Y-68002380D01*
X106252380Y-67002380D01*
X107157142Y-68002380D02*
X106585714Y-68002380D01*
X106871428Y-68002380D02*
X106871428Y-67002380D01*
X106776190Y-67145238D01*
X106680952Y-67240476D01*
X106585714Y-67288095D01*
X107776190Y-67002380D02*
X107871428Y-67002380D01*
X107966666Y-67050000D01*
X108014285Y-67097619D01*
X108061904Y-67192857D01*
X108109523Y-67383333D01*
X108109523Y-67621428D01*
X108061904Y-67811904D01*
X108014285Y-67907142D01*
X107966666Y-67954761D01*
X107871428Y-68002380D01*
X107776190Y-68002380D01*
X107680952Y-67954761D01*
X107633333Y-67907142D01*
X107585714Y-67811904D01*
X107538095Y-67621428D01*
X107538095Y-67383333D01*
X107585714Y-67192857D01*
X107633333Y-67097619D01*
X107680952Y-67050000D01*
X107776190Y-67002380D01*
X115560714Y-100952380D02*
X115560714Y-99952380D01*
X115798809Y-99952380D01*
X115941666Y-100000000D01*
X116036904Y-100095238D01*
X116084523Y-100190476D01*
X116132142Y-100380952D01*
X116132142Y-100523809D01*
X116084523Y-100714285D01*
X116036904Y-100809523D01*
X115941666Y-100904761D01*
X115798809Y-100952380D01*
X115560714Y-100952380D01*
X116513095Y-100047619D02*
X116560714Y-100000000D01*
X116655952Y-99952380D01*
X116894047Y-99952380D01*
X116989285Y-100000000D01*
X117036904Y-100047619D01*
X117084523Y-100142857D01*
X117084523Y-100238095D01*
X117036904Y-100380952D01*
X116465476Y-100952380D01*
X117084523Y-100952380D01*
X117941666Y-100285714D02*
X117941666Y-100952380D01*
X117703571Y-99904761D02*
X117465476Y-100619047D01*
X118084523Y-100619047D01*
X115385714Y-59952380D02*
X115385714Y-58952380D01*
X115623809Y-58952380D01*
X115766666Y-59000000D01*
X115861904Y-59095238D01*
X115909523Y-59190476D01*
X115957142Y-59380952D01*
X115957142Y-59523809D01*
X115909523Y-59714285D01*
X115861904Y-59809523D01*
X115766666Y-59904761D01*
X115623809Y-59952380D01*
X115385714Y-59952380D01*
X116338095Y-59047619D02*
X116385714Y-59000000D01*
X116480952Y-58952380D01*
X116719047Y-58952380D01*
X116814285Y-59000000D01*
X116861904Y-59047619D01*
X116909523Y-59142857D01*
X116909523Y-59238095D01*
X116861904Y-59380952D01*
X116290476Y-59952380D01*
X116909523Y-59952380D01*
X117814285Y-58952380D02*
X117338095Y-58952380D01*
X117290476Y-59428571D01*
X117338095Y-59380952D01*
X117433333Y-59333333D01*
X117671428Y-59333333D01*
X117766666Y-59380952D01*
X117814285Y-59428571D01*
X117861904Y-59523809D01*
X117861904Y-59761904D01*
X117814285Y-59857142D01*
X117766666Y-59904761D01*
X117671428Y-59952380D01*
X117433333Y-59952380D01*
X117338095Y-59904761D01*
X117290476Y-59857142D01*
X104540476Y-130004761D02*
X104683333Y-130052380D01*
X104921428Y-130052380D01*
X105016666Y-130004761D01*
X105064285Y-129957142D01*
X105111904Y-129861904D01*
X105111904Y-129766666D01*
X105064285Y-129671428D01*
X105016666Y-129623809D01*
X104921428Y-129576190D01*
X104730952Y-129528571D01*
X104635714Y-129480952D01*
X104588095Y-129433333D01*
X104540476Y-129338095D01*
X104540476Y-129242857D01*
X104588095Y-129147619D01*
X104635714Y-129100000D01*
X104730952Y-129052380D01*
X104969047Y-129052380D01*
X105111904Y-129100000D01*
X105445238Y-129052380D02*
X105683333Y-130052380D01*
X105873809Y-129338095D01*
X106064285Y-130052380D01*
X106302380Y-129052380D01*
X107207142Y-130052380D02*
X106635714Y-130052380D01*
X106921428Y-130052380D02*
X106921428Y-129052380D01*
X106826190Y-129195238D01*
X106730952Y-129290476D01*
X106635714Y-129338095D01*
X108111904Y-129052380D02*
X107635714Y-129052380D01*
X107588095Y-129528571D01*
X107635714Y-129480952D01*
X107730952Y-129433333D01*
X107969047Y-129433333D01*
X108064285Y-129480952D01*
X108111904Y-129528571D01*
X108159523Y-129623809D01*
X108159523Y-129861904D01*
X108111904Y-129957142D01*
X108064285Y-130004761D01*
X107969047Y-130052380D01*
X107730952Y-130052380D01*
X107635714Y-130004761D01*
X107588095Y-129957142D01*
X111555714Y-142992380D02*
X111555714Y-141992380D01*
X111793809Y-141992380D01*
X111936666Y-142040000D01*
X112031904Y-142135238D01*
X112079523Y-142230476D01*
X112127142Y-142420952D01*
X112127142Y-142563809D01*
X112079523Y-142754285D01*
X112031904Y-142849523D01*
X111936666Y-142944761D01*
X111793809Y-142992380D01*
X111555714Y-142992380D01*
X112460476Y-141992380D02*
X113079523Y-141992380D01*
X112746190Y-142373333D01*
X112889047Y-142373333D01*
X112984285Y-142420952D01*
X113031904Y-142468571D01*
X113079523Y-142563809D01*
X113079523Y-142801904D01*
X113031904Y-142897142D01*
X112984285Y-142944761D01*
X112889047Y-142992380D01*
X112603333Y-142992380D01*
X112508095Y-142944761D01*
X112460476Y-142897142D01*
X113936666Y-141992380D02*
X113746190Y-141992380D01*
X113650952Y-142040000D01*
X113603333Y-142087619D01*
X113508095Y-142230476D01*
X113460476Y-142420952D01*
X113460476Y-142801904D01*
X113508095Y-142897142D01*
X113555714Y-142944761D01*
X113650952Y-142992380D01*
X113841428Y-142992380D01*
X113936666Y-142944761D01*
X113984285Y-142897142D01*
X114031904Y-142801904D01*
X114031904Y-142563809D01*
X113984285Y-142468571D01*
X113936666Y-142420952D01*
X113841428Y-142373333D01*
X113650952Y-142373333D01*
X113555714Y-142420952D01*
X113508095Y-142468571D01*
X113460476Y-142563809D01*
X56516666Y-55554761D02*
X56659523Y-55602380D01*
X56897619Y-55602380D01*
X56992857Y-55554761D01*
X57040476Y-55507142D01*
X57088095Y-55411904D01*
X57088095Y-55316666D01*
X57040476Y-55221428D01*
X56992857Y-55173809D01*
X56897619Y-55126190D01*
X56707142Y-55078571D01*
X56611904Y-55030952D01*
X56564285Y-54983333D01*
X56516666Y-54888095D01*
X56516666Y-54792857D01*
X56564285Y-54697619D01*
X56611904Y-54650000D01*
X56707142Y-54602380D01*
X56945238Y-54602380D01*
X57088095Y-54650000D01*
X57421428Y-54602380D02*
X57659523Y-55602380D01*
X57850000Y-54888095D01*
X58040476Y-55602380D01*
X58278571Y-54602380D01*
X59088095Y-54602380D02*
X58897619Y-54602380D01*
X58802380Y-54650000D01*
X58754761Y-54697619D01*
X58659523Y-54840476D01*
X58611904Y-55030952D01*
X58611904Y-55411904D01*
X58659523Y-55507142D01*
X58707142Y-55554761D01*
X58802380Y-55602380D01*
X58992857Y-55602380D01*
X59088095Y-55554761D01*
X59135714Y-55507142D01*
X59183333Y-55411904D01*
X59183333Y-55173809D01*
X59135714Y-55078571D01*
X59088095Y-55030952D01*
X58992857Y-54983333D01*
X58802380Y-54983333D01*
X58707142Y-55030952D01*
X58659523Y-55078571D01*
X58611904Y-55173809D01*
X115285714Y-71952380D02*
X115285714Y-70952380D01*
X115523809Y-70952380D01*
X115666666Y-71000000D01*
X115761904Y-71095238D01*
X115809523Y-71190476D01*
X115857142Y-71380952D01*
X115857142Y-71523809D01*
X115809523Y-71714285D01*
X115761904Y-71809523D01*
X115666666Y-71904761D01*
X115523809Y-71952380D01*
X115285714Y-71952380D01*
X116238095Y-71047619D02*
X116285714Y-71000000D01*
X116380952Y-70952380D01*
X116619047Y-70952380D01*
X116714285Y-71000000D01*
X116761904Y-71047619D01*
X116809523Y-71142857D01*
X116809523Y-71238095D01*
X116761904Y-71380952D01*
X116190476Y-71952380D01*
X116809523Y-71952380D01*
X117666666Y-70952380D02*
X117476190Y-70952380D01*
X117380952Y-71000000D01*
X117333333Y-71047619D01*
X117238095Y-71190476D01*
X117190476Y-71380952D01*
X117190476Y-71761904D01*
X117238095Y-71857142D01*
X117285714Y-71904761D01*
X117380952Y-71952380D01*
X117571428Y-71952380D01*
X117666666Y-71904761D01*
X117714285Y-71857142D01*
X117761904Y-71761904D01*
X117761904Y-71523809D01*
X117714285Y-71428571D01*
X117666666Y-71380952D01*
X117571428Y-71333333D01*
X117380952Y-71333333D01*
X117285714Y-71380952D01*
X117238095Y-71428571D01*
X117190476Y-71523809D01*
X95916666Y-57352380D02*
X95916666Y-58066666D01*
X95869047Y-58209523D01*
X95773809Y-58304761D01*
X95630952Y-58352380D01*
X95535714Y-58352380D01*
X96535714Y-57780952D02*
X96440476Y-57733333D01*
X96392857Y-57685714D01*
X96345238Y-57590476D01*
X96345238Y-57542857D01*
X96392857Y-57447619D01*
X96440476Y-57400000D01*
X96535714Y-57352380D01*
X96726190Y-57352380D01*
X96821428Y-57400000D01*
X96869047Y-57447619D01*
X96916666Y-57542857D01*
X96916666Y-57590476D01*
X96869047Y-57685714D01*
X96821428Y-57733333D01*
X96726190Y-57780952D01*
X96535714Y-57780952D01*
X96440476Y-57828571D01*
X96392857Y-57876190D01*
X96345238Y-57971428D01*
X96345238Y-58161904D01*
X96392857Y-58257142D01*
X96440476Y-58304761D01*
X96535714Y-58352380D01*
X96726190Y-58352380D01*
X96821428Y-58304761D01*
X96869047Y-58257142D01*
X96916666Y-58161904D01*
X96916666Y-57971428D01*
X96869047Y-57876190D01*
X96821428Y-57828571D01*
X96726190Y-57780952D01*
X104290476Y-92004761D02*
X104433333Y-92052380D01*
X104671428Y-92052380D01*
X104766666Y-92004761D01*
X104814285Y-91957142D01*
X104861904Y-91861904D01*
X104861904Y-91766666D01*
X104814285Y-91671428D01*
X104766666Y-91623809D01*
X104671428Y-91576190D01*
X104480952Y-91528571D01*
X104385714Y-91480952D01*
X104338095Y-91433333D01*
X104290476Y-91338095D01*
X104290476Y-91242857D01*
X104338095Y-91147619D01*
X104385714Y-91100000D01*
X104480952Y-91052380D01*
X104719047Y-91052380D01*
X104861904Y-91100000D01*
X105195238Y-91052380D02*
X105433333Y-92052380D01*
X105623809Y-91338095D01*
X105814285Y-92052380D01*
X106052380Y-91052380D01*
X106957142Y-92052380D02*
X106385714Y-92052380D01*
X106671428Y-92052380D02*
X106671428Y-91052380D01*
X106576190Y-91195238D01*
X106480952Y-91290476D01*
X106385714Y-91338095D01*
X107338095Y-91147619D02*
X107385714Y-91100000D01*
X107480952Y-91052380D01*
X107719047Y-91052380D01*
X107814285Y-91100000D01*
X107861904Y-91147619D01*
X107909523Y-91242857D01*
X107909523Y-91338095D01*
X107861904Y-91480952D01*
X107290476Y-92052380D01*
X107909523Y-92052380D01*
X81440476Y-107052380D02*
X81440476Y-107766666D01*
X81392857Y-107909523D01*
X81297619Y-108004761D01*
X81154761Y-108052380D01*
X81059523Y-108052380D01*
X82440476Y-108052380D02*
X81869047Y-108052380D01*
X82154761Y-108052380D02*
X82154761Y-107052380D01*
X82059523Y-107195238D01*
X81964285Y-107290476D01*
X81869047Y-107338095D01*
X83297619Y-107052380D02*
X83107142Y-107052380D01*
X83011904Y-107100000D01*
X82964285Y-107147619D01*
X82869047Y-107290476D01*
X82821428Y-107480952D01*
X82821428Y-107861904D01*
X82869047Y-107957142D01*
X82916666Y-108004761D01*
X83011904Y-108052380D01*
X83202380Y-108052380D01*
X83297619Y-108004761D01*
X83345238Y-107957142D01*
X83392857Y-107861904D01*
X83392857Y-107623809D01*
X83345238Y-107528571D01*
X83297619Y-107480952D01*
X83202380Y-107433333D01*
X83011904Y-107433333D01*
X82916666Y-107480952D01*
X82869047Y-107528571D01*
X82821428Y-107623809D01*
X56466666Y-72204761D02*
X56609523Y-72252380D01*
X56847619Y-72252380D01*
X56942857Y-72204761D01*
X56990476Y-72157142D01*
X57038095Y-72061904D01*
X57038095Y-71966666D01*
X56990476Y-71871428D01*
X56942857Y-71823809D01*
X56847619Y-71776190D01*
X56657142Y-71728571D01*
X56561904Y-71680952D01*
X56514285Y-71633333D01*
X56466666Y-71538095D01*
X56466666Y-71442857D01*
X56514285Y-71347619D01*
X56561904Y-71300000D01*
X56657142Y-71252380D01*
X56895238Y-71252380D01*
X57038095Y-71300000D01*
X57371428Y-71252380D02*
X57609523Y-72252380D01*
X57800000Y-71538095D01*
X57990476Y-72252380D01*
X58228571Y-71252380D01*
X58514285Y-71252380D02*
X59180952Y-71252380D01*
X58752380Y-72252380D01*
X53266666Y-154004761D02*
X53409523Y-154052380D01*
X53647619Y-154052380D01*
X53742857Y-154004761D01*
X53790476Y-153957142D01*
X53838095Y-153861904D01*
X53838095Y-153766666D01*
X53790476Y-153671428D01*
X53742857Y-153623809D01*
X53647619Y-153576190D01*
X53457142Y-153528571D01*
X53361904Y-153480952D01*
X53314285Y-153433333D01*
X53266666Y-153338095D01*
X53266666Y-153242857D01*
X53314285Y-153147619D01*
X53361904Y-153100000D01*
X53457142Y-153052380D01*
X53695238Y-153052380D01*
X53838095Y-153100000D01*
X54171428Y-153052380D02*
X54409523Y-154052380D01*
X54600000Y-153338095D01*
X54790476Y-154052380D01*
X55028571Y-153052380D01*
X55838095Y-153385714D02*
X55838095Y-154052380D01*
X55600000Y-153004761D02*
X55361904Y-153719047D01*
X55980952Y-153719047D01*
X66704761Y-95658333D02*
X66752380Y-95515476D01*
X66752380Y-95277380D01*
X66704761Y-95182142D01*
X66657142Y-95134523D01*
X66561904Y-95086904D01*
X66466666Y-95086904D01*
X66371428Y-95134523D01*
X66323809Y-95182142D01*
X66276190Y-95277380D01*
X66228571Y-95467857D01*
X66180952Y-95563095D01*
X66133333Y-95610714D01*
X66038095Y-95658333D01*
X65942857Y-95658333D01*
X65847619Y-95610714D01*
X65800000Y-95563095D01*
X65752380Y-95467857D01*
X65752380Y-95229761D01*
X65800000Y-95086904D01*
X65752380Y-94753571D02*
X66752380Y-94515476D01*
X66038095Y-94325000D01*
X66752380Y-94134523D01*
X65752380Y-93896428D01*
X65752380Y-93039285D02*
X65752380Y-93515476D01*
X66228571Y-93563095D01*
X66180952Y-93515476D01*
X66133333Y-93420238D01*
X66133333Y-93182142D01*
X66180952Y-93086904D01*
X66228571Y-93039285D01*
X66323809Y-92991666D01*
X66561904Y-92991666D01*
X66657142Y-93039285D01*
X66704761Y-93086904D01*
X66752380Y-93182142D01*
X66752380Y-93420238D01*
X66704761Y-93515476D01*
X66657142Y-93563095D01*
X72055714Y-109492380D02*
X72055714Y-108492380D01*
X72293809Y-108492380D01*
X72436666Y-108540000D01*
X72531904Y-108635238D01*
X72579523Y-108730476D01*
X72627142Y-108920952D01*
X72627142Y-109063809D01*
X72579523Y-109254285D01*
X72531904Y-109349523D01*
X72436666Y-109444761D01*
X72293809Y-109492380D01*
X72055714Y-109492380D01*
X73579523Y-109492380D02*
X73008095Y-109492380D01*
X73293809Y-109492380D02*
X73293809Y-108492380D01*
X73198571Y-108635238D01*
X73103333Y-108730476D01*
X73008095Y-108778095D01*
X73960476Y-108587619D02*
X74008095Y-108540000D01*
X74103333Y-108492380D01*
X74341428Y-108492380D01*
X74436666Y-108540000D01*
X74484285Y-108587619D01*
X74531904Y-108682857D01*
X74531904Y-108778095D01*
X74484285Y-108920952D01*
X73912857Y-109492380D01*
X74531904Y-109492380D01*
X104790476Y-117954761D02*
X104933333Y-118002380D01*
X105171428Y-118002380D01*
X105266666Y-117954761D01*
X105314285Y-117907142D01*
X105361904Y-117811904D01*
X105361904Y-117716666D01*
X105314285Y-117621428D01*
X105266666Y-117573809D01*
X105171428Y-117526190D01*
X104980952Y-117478571D01*
X104885714Y-117430952D01*
X104838095Y-117383333D01*
X104790476Y-117288095D01*
X104790476Y-117192857D01*
X104838095Y-117097619D01*
X104885714Y-117050000D01*
X104980952Y-117002380D01*
X105219047Y-117002380D01*
X105361904Y-117050000D01*
X105695238Y-117002380D02*
X105933333Y-118002380D01*
X106123809Y-117288095D01*
X106314285Y-118002380D01*
X106552380Y-117002380D01*
X107457142Y-118002380D02*
X106885714Y-118002380D01*
X107171428Y-118002380D02*
X107171428Y-117002380D01*
X107076190Y-117145238D01*
X106980952Y-117240476D01*
X106885714Y-117288095D01*
X108314285Y-117335714D02*
X108314285Y-118002380D01*
X108076190Y-116954761D02*
X107838095Y-117669047D01*
X108457142Y-117669047D01*
X53016666Y-118054761D02*
X53159523Y-118102380D01*
X53397619Y-118102380D01*
X53492857Y-118054761D01*
X53540476Y-118007142D01*
X53588095Y-117911904D01*
X53588095Y-117816666D01*
X53540476Y-117721428D01*
X53492857Y-117673809D01*
X53397619Y-117626190D01*
X53207142Y-117578571D01*
X53111904Y-117530952D01*
X53064285Y-117483333D01*
X53016666Y-117388095D01*
X53016666Y-117292857D01*
X53064285Y-117197619D01*
X53111904Y-117150000D01*
X53207142Y-117102380D01*
X53445238Y-117102380D01*
X53588095Y-117150000D01*
X53921428Y-117102380D02*
X54159523Y-118102380D01*
X54350000Y-117388095D01*
X54540476Y-118102380D01*
X54778571Y-117102380D01*
X55683333Y-118102380D02*
X55111904Y-118102380D01*
X55397619Y-118102380D02*
X55397619Y-117102380D01*
X55302380Y-117245238D01*
X55207142Y-117340476D01*
X55111904Y-117388095D01*
X81660714Y-142327380D02*
X81660714Y-141327380D01*
X81898809Y-141327380D01*
X82041666Y-141375000D01*
X82136904Y-141470238D01*
X82184523Y-141565476D01*
X82232142Y-141755952D01*
X82232142Y-141898809D01*
X82184523Y-142089285D01*
X82136904Y-142184523D01*
X82041666Y-142279761D01*
X81898809Y-142327380D01*
X81660714Y-142327380D01*
X82565476Y-141327380D02*
X83184523Y-141327380D01*
X82851190Y-141708333D01*
X82994047Y-141708333D01*
X83089285Y-141755952D01*
X83136904Y-141803571D01*
X83184523Y-141898809D01*
X83184523Y-142136904D01*
X83136904Y-142232142D01*
X83089285Y-142279761D01*
X82994047Y-142327380D01*
X82708333Y-142327380D01*
X82613095Y-142279761D01*
X82565476Y-142232142D01*
X83755952Y-141755952D02*
X83660714Y-141708333D01*
X83613095Y-141660714D01*
X83565476Y-141565476D01*
X83565476Y-141517857D01*
X83613095Y-141422619D01*
X83660714Y-141375000D01*
X83755952Y-141327380D01*
X83946428Y-141327380D01*
X84041666Y-141375000D01*
X84089285Y-141422619D01*
X84136904Y-141517857D01*
X84136904Y-141565476D01*
X84089285Y-141660714D01*
X84041666Y-141708333D01*
X83946428Y-141755952D01*
X83755952Y-141755952D01*
X83660714Y-141803571D01*
X83613095Y-141851190D01*
X83565476Y-141946428D01*
X83565476Y-142136904D01*
X83613095Y-142232142D01*
X83660714Y-142279761D01*
X83755952Y-142327380D01*
X83946428Y-142327380D01*
X84041666Y-142279761D01*
X84089285Y-142232142D01*
X84136904Y-142136904D01*
X84136904Y-141946428D01*
X84089285Y-141851190D01*
X84041666Y-141803571D01*
X83946428Y-141755952D01*
X115385714Y-64952380D02*
X115385714Y-63952380D01*
X115623809Y-63952380D01*
X115766666Y-64000000D01*
X115861904Y-64095238D01*
X115909523Y-64190476D01*
X115957142Y-64380952D01*
X115957142Y-64523809D01*
X115909523Y-64714285D01*
X115861904Y-64809523D01*
X115766666Y-64904761D01*
X115623809Y-64952380D01*
X115385714Y-64952380D01*
X116338095Y-64047619D02*
X116385714Y-64000000D01*
X116480952Y-63952380D01*
X116719047Y-63952380D01*
X116814285Y-64000000D01*
X116861904Y-64047619D01*
X116909523Y-64142857D01*
X116909523Y-64238095D01*
X116861904Y-64380952D01*
X116290476Y-64952380D01*
X116909523Y-64952380D01*
X117861904Y-64952380D02*
X117290476Y-64952380D01*
X117576190Y-64952380D02*
X117576190Y-63952380D01*
X117480952Y-64095238D01*
X117385714Y-64190476D01*
X117290476Y-64238095D01*
X81440476Y-131052380D02*
X81440476Y-131766666D01*
X81392857Y-131909523D01*
X81297619Y-132004761D01*
X81154761Y-132052380D01*
X81059523Y-132052380D01*
X82440476Y-132052380D02*
X81869047Y-132052380D01*
X82154761Y-132052380D02*
X82154761Y-131052380D01*
X82059523Y-131195238D01*
X81964285Y-131290476D01*
X81869047Y-131338095D01*
X82773809Y-131052380D02*
X83440476Y-131052380D01*
X83011904Y-132052380D01*
X82710714Y-118377380D02*
X82710714Y-117377380D01*
X82948809Y-117377380D01*
X83091666Y-117425000D01*
X83186904Y-117520238D01*
X83234523Y-117615476D01*
X83282142Y-117805952D01*
X83282142Y-117948809D01*
X83234523Y-118139285D01*
X83186904Y-118234523D01*
X83091666Y-118329761D01*
X82948809Y-118377380D01*
X82710714Y-118377380D01*
X83615476Y-117377380D02*
X84234523Y-117377380D01*
X83901190Y-117758333D01*
X84044047Y-117758333D01*
X84139285Y-117805952D01*
X84186904Y-117853571D01*
X84234523Y-117948809D01*
X84234523Y-118186904D01*
X84186904Y-118282142D01*
X84139285Y-118329761D01*
X84044047Y-118377380D01*
X83758333Y-118377380D01*
X83663095Y-118329761D01*
X83615476Y-118282142D01*
X84567857Y-117377380D02*
X85234523Y-117377380D01*
X84805952Y-118377380D01*
X53116666Y-142004761D02*
X53259523Y-142052380D01*
X53497619Y-142052380D01*
X53592857Y-142004761D01*
X53640476Y-141957142D01*
X53688095Y-141861904D01*
X53688095Y-141766666D01*
X53640476Y-141671428D01*
X53592857Y-141623809D01*
X53497619Y-141576190D01*
X53307142Y-141528571D01*
X53211904Y-141480952D01*
X53164285Y-141433333D01*
X53116666Y-141338095D01*
X53116666Y-141242857D01*
X53164285Y-141147619D01*
X53211904Y-141100000D01*
X53307142Y-141052380D01*
X53545238Y-141052380D01*
X53688095Y-141100000D01*
X54021428Y-141052380D02*
X54259523Y-142052380D01*
X54450000Y-141338095D01*
X54640476Y-142052380D01*
X54878571Y-141052380D01*
X55164285Y-141052380D02*
X55783333Y-141052380D01*
X55450000Y-141433333D01*
X55592857Y-141433333D01*
X55688095Y-141480952D01*
X55735714Y-141528571D01*
X55783333Y-141623809D01*
X55783333Y-141861904D01*
X55735714Y-141957142D01*
X55688095Y-142004761D01*
X55592857Y-142052380D01*
X55307142Y-142052380D01*
X55211904Y-142004761D01*
X55164285Y-141957142D01*
X95440476Y-107052380D02*
X95440476Y-107766666D01*
X95392857Y-107909523D01*
X95297619Y-108004761D01*
X95154761Y-108052380D01*
X95059523Y-108052380D01*
X96440476Y-108052380D02*
X95869047Y-108052380D01*
X96154761Y-108052380D02*
X96154761Y-107052380D01*
X96059523Y-107195238D01*
X95964285Y-107290476D01*
X95869047Y-107338095D01*
X96821428Y-107147619D02*
X96869047Y-107100000D01*
X96964285Y-107052380D01*
X97202380Y-107052380D01*
X97297619Y-107100000D01*
X97345238Y-107147619D01*
X97392857Y-107242857D01*
X97392857Y-107338095D01*
X97345238Y-107480952D01*
X96773809Y-108052380D01*
X97392857Y-108052380D01*
X72055714Y-133492380D02*
X72055714Y-132492380D01*
X72293809Y-132492380D01*
X72436666Y-132540000D01*
X72531904Y-132635238D01*
X72579523Y-132730476D01*
X72627142Y-132920952D01*
X72627142Y-133063809D01*
X72579523Y-133254285D01*
X72531904Y-133349523D01*
X72436666Y-133444761D01*
X72293809Y-133492380D01*
X72055714Y-133492380D01*
X73579523Y-133492380D02*
X73008095Y-133492380D01*
X73293809Y-133492380D02*
X73293809Y-132492380D01*
X73198571Y-132635238D01*
X73103333Y-132730476D01*
X73008095Y-132778095D01*
X74198571Y-132492380D02*
X74293809Y-132492380D01*
X74389047Y-132540000D01*
X74436666Y-132587619D01*
X74484285Y-132682857D01*
X74531904Y-132873333D01*
X74531904Y-133111428D01*
X74484285Y-133301904D01*
X74436666Y-133397142D01*
X74389047Y-133444761D01*
X74293809Y-133492380D01*
X74198571Y-133492380D01*
X74103333Y-133444761D01*
X74055714Y-133397142D01*
X74008095Y-133301904D01*
X73960476Y-133111428D01*
X73960476Y-132873333D01*
X74008095Y-132682857D01*
X74055714Y-132587619D01*
X74103333Y-132540000D01*
X74198571Y-132492380D01*
X111555714Y-130992380D02*
X111555714Y-129992380D01*
X111793809Y-129992380D01*
X111936666Y-130040000D01*
X112031904Y-130135238D01*
X112079523Y-130230476D01*
X112127142Y-130420952D01*
X112127142Y-130563809D01*
X112079523Y-130754285D01*
X112031904Y-130849523D01*
X111936666Y-130944761D01*
X111793809Y-130992380D01*
X111555714Y-130992380D01*
X112460476Y-129992380D02*
X113079523Y-129992380D01*
X112746190Y-130373333D01*
X112889047Y-130373333D01*
X112984285Y-130420952D01*
X113031904Y-130468571D01*
X113079523Y-130563809D01*
X113079523Y-130801904D01*
X113031904Y-130897142D01*
X112984285Y-130944761D01*
X112889047Y-130992380D01*
X112603333Y-130992380D01*
X112508095Y-130944761D01*
X112460476Y-130897142D01*
X113984285Y-129992380D02*
X113508095Y-129992380D01*
X113460476Y-130468571D01*
X113508095Y-130420952D01*
X113603333Y-130373333D01*
X113841428Y-130373333D01*
X113936666Y-130420952D01*
X113984285Y-130468571D01*
X114031904Y-130563809D01*
X114031904Y-130801904D01*
X113984285Y-130897142D01*
X113936666Y-130944761D01*
X113841428Y-130992380D01*
X113603333Y-130992380D01*
X113508095Y-130944761D01*
X113460476Y-130897142D01*
X81655714Y-153112380D02*
X81655714Y-152112380D01*
X81893809Y-152112380D01*
X82036666Y-152160000D01*
X82131904Y-152255238D01*
X82179523Y-152350476D01*
X82227142Y-152540952D01*
X82227142Y-152683809D01*
X82179523Y-152874285D01*
X82131904Y-152969523D01*
X82036666Y-153064761D01*
X81893809Y-153112380D01*
X81655714Y-153112380D01*
X82608095Y-152207619D02*
X82655714Y-152160000D01*
X82750952Y-152112380D01*
X82989047Y-152112380D01*
X83084285Y-152160000D01*
X83131904Y-152207619D01*
X83179523Y-152302857D01*
X83179523Y-152398095D01*
X83131904Y-152540952D01*
X82560476Y-153112380D01*
X83179523Y-153112380D01*
X83798571Y-152112380D02*
X83893809Y-152112380D01*
X83989047Y-152160000D01*
X84036666Y-152207619D01*
X84084285Y-152302857D01*
X84131904Y-152493333D01*
X84131904Y-152731428D01*
X84084285Y-152921904D01*
X84036666Y-153017142D01*
X83989047Y-153064761D01*
X83893809Y-153112380D01*
X83798571Y-153112380D01*
X83703333Y-153064761D01*
X83655714Y-153017142D01*
X83608095Y-152921904D01*
X83560476Y-152731428D01*
X83560476Y-152493333D01*
X83608095Y-152302857D01*
X83655714Y-152207619D01*
X83703333Y-152160000D01*
X83798571Y-152112380D01*
X72531904Y-121492380D02*
X72531904Y-120492380D01*
X72770000Y-120492380D01*
X72912857Y-120540000D01*
X73008095Y-120635238D01*
X73055714Y-120730476D01*
X73103333Y-120920952D01*
X73103333Y-121063809D01*
X73055714Y-121254285D01*
X73008095Y-121349523D01*
X72912857Y-121444761D01*
X72770000Y-121492380D01*
X72531904Y-121492380D01*
X73579523Y-121492380D02*
X73770000Y-121492380D01*
X73865238Y-121444761D01*
X73912857Y-121397142D01*
X74008095Y-121254285D01*
X74055714Y-121063809D01*
X74055714Y-120682857D01*
X74008095Y-120587619D01*
X73960476Y-120540000D01*
X73865238Y-120492380D01*
X73674761Y-120492380D01*
X73579523Y-120540000D01*
X73531904Y-120587619D01*
X73484285Y-120682857D01*
X73484285Y-120920952D01*
X73531904Y-121016190D01*
X73579523Y-121063809D01*
X73674761Y-121111428D01*
X73865238Y-121111428D01*
X73960476Y-121063809D01*
X74008095Y-121016190D01*
X74055714Y-120920952D01*
X64416666Y-107052380D02*
X64416666Y-107766666D01*
X64369047Y-107909523D01*
X64273809Y-108004761D01*
X64130952Y-108052380D01*
X64035714Y-108052380D01*
X65416666Y-108052380D02*
X64845238Y-108052380D01*
X65130952Y-108052380D02*
X65130952Y-107052380D01*
X65035714Y-107195238D01*
X64940476Y-107290476D01*
X64845238Y-107338095D01*
X115610714Y-95802380D02*
X115610714Y-94802380D01*
X115848809Y-94802380D01*
X115991666Y-94850000D01*
X116086904Y-94945238D01*
X116134523Y-95040476D01*
X116182142Y-95230952D01*
X116182142Y-95373809D01*
X116134523Y-95564285D01*
X116086904Y-95659523D01*
X115991666Y-95754761D01*
X115848809Y-95802380D01*
X115610714Y-95802380D01*
X116563095Y-94897619D02*
X116610714Y-94850000D01*
X116705952Y-94802380D01*
X116944047Y-94802380D01*
X117039285Y-94850000D01*
X117086904Y-94897619D01*
X117134523Y-94992857D01*
X117134523Y-95088095D01*
X117086904Y-95230952D01*
X116515476Y-95802380D01*
X117134523Y-95802380D01*
X117705952Y-95230952D02*
X117610714Y-95183333D01*
X117563095Y-95135714D01*
X117515476Y-95040476D01*
X117515476Y-94992857D01*
X117563095Y-94897619D01*
X117610714Y-94850000D01*
X117705952Y-94802380D01*
X117896428Y-94802380D01*
X117991666Y-94850000D01*
X118039285Y-94897619D01*
X118086904Y-94992857D01*
X118086904Y-95040476D01*
X118039285Y-95135714D01*
X117991666Y-95183333D01*
X117896428Y-95230952D01*
X117705952Y-95230952D01*
X117610714Y-95278571D01*
X117563095Y-95326190D01*
X117515476Y-95421428D01*
X117515476Y-95611904D01*
X117563095Y-95707142D01*
X117610714Y-95754761D01*
X117705952Y-95802380D01*
X117896428Y-95802380D01*
X117991666Y-95754761D01*
X118039285Y-95707142D01*
X118086904Y-95611904D01*
X118086904Y-95421428D01*
X118039285Y-95326190D01*
X117991666Y-95278571D01*
X117896428Y-95230952D01*
X64416666Y-119052380D02*
X64416666Y-119766666D01*
X64369047Y-119909523D01*
X64273809Y-120004761D01*
X64130952Y-120052380D01*
X64035714Y-120052380D01*
X64845238Y-119147619D02*
X64892857Y-119100000D01*
X64988095Y-119052380D01*
X65226190Y-119052380D01*
X65321428Y-119100000D01*
X65369047Y-119147619D01*
X65416666Y-119242857D01*
X65416666Y-119338095D01*
X65369047Y-119480952D01*
X64797619Y-120052380D01*
X65416666Y-120052380D01*
X64416666Y-131052380D02*
X64416666Y-131766666D01*
X64369047Y-131909523D01*
X64273809Y-132004761D01*
X64130952Y-132052380D01*
X64035714Y-132052380D01*
X64797619Y-131052380D02*
X65416666Y-131052380D01*
X65083333Y-131433333D01*
X65226190Y-131433333D01*
X65321428Y-131480952D01*
X65369047Y-131528571D01*
X65416666Y-131623809D01*
X65416666Y-131861904D01*
X65369047Y-131957142D01*
X65321428Y-132004761D01*
X65226190Y-132052380D01*
X64940476Y-132052380D01*
X64845238Y-132004761D01*
X64797619Y-131957142D01*
X95440476Y-131052380D02*
X95440476Y-131766666D01*
X95392857Y-131909523D01*
X95297619Y-132004761D01*
X95154761Y-132052380D01*
X95059523Y-132052380D01*
X96440476Y-132052380D02*
X95869047Y-132052380D01*
X96154761Y-132052380D02*
X96154761Y-131052380D01*
X96059523Y-131195238D01*
X95964285Y-131290476D01*
X95869047Y-131338095D01*
X97297619Y-131385714D02*
X97297619Y-132052380D01*
X97059523Y-131004761D02*
X96821428Y-131719047D01*
X97440476Y-131719047D01*
X115485714Y-151002380D02*
X115485714Y-150002380D01*
X115723809Y-150002380D01*
X115866666Y-150050000D01*
X115961904Y-150145238D01*
X116009523Y-150240476D01*
X116057142Y-150430952D01*
X116057142Y-150573809D01*
X116009523Y-150764285D01*
X115961904Y-150859523D01*
X115866666Y-150954761D01*
X115723809Y-151002380D01*
X115485714Y-151002380D01*
X116390476Y-150002380D02*
X117009523Y-150002380D01*
X116676190Y-150383333D01*
X116819047Y-150383333D01*
X116914285Y-150430952D01*
X116961904Y-150478571D01*
X117009523Y-150573809D01*
X117009523Y-150811904D01*
X116961904Y-150907142D01*
X116914285Y-150954761D01*
X116819047Y-151002380D01*
X116533333Y-151002380D01*
X116438095Y-150954761D01*
X116390476Y-150907142D01*
X117390476Y-150097619D02*
X117438095Y-150050000D01*
X117533333Y-150002380D01*
X117771428Y-150002380D01*
X117866666Y-150050000D01*
X117914285Y-150097619D01*
X117961904Y-150192857D01*
X117961904Y-150288095D01*
X117914285Y-150430952D01*
X117342857Y-151002380D01*
X117961904Y-151002380D01*
X115385714Y-126952380D02*
X115385714Y-125952380D01*
X115623809Y-125952380D01*
X115766666Y-126000000D01*
X115861904Y-126095238D01*
X115909523Y-126190476D01*
X115957142Y-126380952D01*
X115957142Y-126523809D01*
X115909523Y-126714285D01*
X115861904Y-126809523D01*
X115766666Y-126904761D01*
X115623809Y-126952380D01*
X115385714Y-126952380D01*
X116290476Y-125952380D02*
X116909523Y-125952380D01*
X116576190Y-126333333D01*
X116719047Y-126333333D01*
X116814285Y-126380952D01*
X116861904Y-126428571D01*
X116909523Y-126523809D01*
X116909523Y-126761904D01*
X116861904Y-126857142D01*
X116814285Y-126904761D01*
X116719047Y-126952380D01*
X116433333Y-126952380D01*
X116338095Y-126904761D01*
X116290476Y-126857142D01*
X117528571Y-125952380D02*
X117623809Y-125952380D01*
X117719047Y-126000000D01*
X117766666Y-126047619D01*
X117814285Y-126142857D01*
X117861904Y-126333333D01*
X117861904Y-126571428D01*
X117814285Y-126761904D01*
X117766666Y-126857142D01*
X117719047Y-126904761D01*
X117623809Y-126952380D01*
X117528571Y-126952380D01*
X117433333Y-126904761D01*
X117385714Y-126857142D01*
X117338095Y-126761904D01*
X117290476Y-126571428D01*
X117290476Y-126333333D01*
X117338095Y-126142857D01*
X117385714Y-126047619D01*
X117433333Y-126000000D01*
X117528571Y-125952380D01*
X104340476Y-104004761D02*
X104483333Y-104052380D01*
X104721428Y-104052380D01*
X104816666Y-104004761D01*
X104864285Y-103957142D01*
X104911904Y-103861904D01*
X104911904Y-103766666D01*
X104864285Y-103671428D01*
X104816666Y-103623809D01*
X104721428Y-103576190D01*
X104530952Y-103528571D01*
X104435714Y-103480952D01*
X104388095Y-103433333D01*
X104340476Y-103338095D01*
X104340476Y-103242857D01*
X104388095Y-103147619D01*
X104435714Y-103100000D01*
X104530952Y-103052380D01*
X104769047Y-103052380D01*
X104911904Y-103100000D01*
X105245238Y-103052380D02*
X105483333Y-104052380D01*
X105673809Y-103338095D01*
X105864285Y-104052380D01*
X106102380Y-103052380D01*
X107007142Y-104052380D02*
X106435714Y-104052380D01*
X106721428Y-104052380D02*
X106721428Y-103052380D01*
X106626190Y-103195238D01*
X106530952Y-103290476D01*
X106435714Y-103338095D01*
X107340476Y-103052380D02*
X107959523Y-103052380D01*
X107626190Y-103433333D01*
X107769047Y-103433333D01*
X107864285Y-103480952D01*
X107911904Y-103528571D01*
X107959523Y-103623809D01*
X107959523Y-103861904D01*
X107911904Y-103957142D01*
X107864285Y-104004761D01*
X107769047Y-104052380D01*
X107483333Y-104052380D01*
X107388095Y-104004761D01*
X107340476Y-103957142D01*
X115485714Y-83952380D02*
X115485714Y-82952380D01*
X115723809Y-82952380D01*
X115866666Y-83000000D01*
X115961904Y-83095238D01*
X116009523Y-83190476D01*
X116057142Y-83380952D01*
X116057142Y-83523809D01*
X116009523Y-83714285D01*
X115961904Y-83809523D01*
X115866666Y-83904761D01*
X115723809Y-83952380D01*
X115485714Y-83952380D01*
X116438095Y-83047619D02*
X116485714Y-83000000D01*
X116580952Y-82952380D01*
X116819047Y-82952380D01*
X116914285Y-83000000D01*
X116961904Y-83047619D01*
X117009523Y-83142857D01*
X117009523Y-83238095D01*
X116961904Y-83380952D01*
X116390476Y-83952380D01*
X117009523Y-83952380D01*
X117342857Y-82952380D02*
X118009523Y-82952380D01*
X117580952Y-83952380D01*
X115335714Y-77002380D02*
X115335714Y-76002380D01*
X115573809Y-76002380D01*
X115716666Y-76050000D01*
X115811904Y-76145238D01*
X115859523Y-76240476D01*
X115907142Y-76430952D01*
X115907142Y-76573809D01*
X115859523Y-76764285D01*
X115811904Y-76859523D01*
X115716666Y-76954761D01*
X115573809Y-77002380D01*
X115335714Y-77002380D01*
X116288095Y-76097619D02*
X116335714Y-76050000D01*
X116430952Y-76002380D01*
X116669047Y-76002380D01*
X116764285Y-76050000D01*
X116811904Y-76097619D01*
X116859523Y-76192857D01*
X116859523Y-76288095D01*
X116811904Y-76430952D01*
X116240476Y-77002380D01*
X116859523Y-77002380D01*
X117240476Y-76097619D02*
X117288095Y-76050000D01*
X117383333Y-76002380D01*
X117621428Y-76002380D01*
X117716666Y-76050000D01*
X117764285Y-76097619D01*
X117811904Y-76192857D01*
X117811904Y-76288095D01*
X117764285Y-76430952D01*
X117192857Y-77002380D01*
X117811904Y-77002380D01*
X95290476Y-81452380D02*
X95290476Y-82166666D01*
X95242857Y-82309523D01*
X95147619Y-82404761D01*
X95004761Y-82452380D01*
X94909523Y-82452380D01*
X96290476Y-82452380D02*
X95719047Y-82452380D01*
X96004761Y-82452380D02*
X96004761Y-81452380D01*
X95909523Y-81595238D01*
X95814285Y-81690476D01*
X95719047Y-81738095D01*
X96909523Y-81452380D02*
X97004761Y-81452380D01*
X97100000Y-81500000D01*
X97147619Y-81547619D01*
X97195238Y-81642857D01*
X97242857Y-81833333D01*
X97242857Y-82071428D01*
X97195238Y-82261904D01*
X97147619Y-82357142D01*
X97100000Y-82404761D01*
X97004761Y-82452380D01*
X96909523Y-82452380D01*
X96814285Y-82404761D01*
X96766666Y-82357142D01*
X96719047Y-82261904D01*
X96671428Y-82071428D01*
X96671428Y-81833333D01*
X96719047Y-81642857D01*
X96766666Y-81547619D01*
X96814285Y-81500000D01*
X96909523Y-81452380D01*
X104490476Y-80004761D02*
X104633333Y-80052380D01*
X104871428Y-80052380D01*
X104966666Y-80004761D01*
X105014285Y-79957142D01*
X105061904Y-79861904D01*
X105061904Y-79766666D01*
X105014285Y-79671428D01*
X104966666Y-79623809D01*
X104871428Y-79576190D01*
X104680952Y-79528571D01*
X104585714Y-79480952D01*
X104538095Y-79433333D01*
X104490476Y-79338095D01*
X104490476Y-79242857D01*
X104538095Y-79147619D01*
X104585714Y-79100000D01*
X104680952Y-79052380D01*
X104919047Y-79052380D01*
X105061904Y-79100000D01*
X105395238Y-79052380D02*
X105633333Y-80052380D01*
X105823809Y-79338095D01*
X106014285Y-80052380D01*
X106252380Y-79052380D01*
X107157142Y-80052380D02*
X106585714Y-80052380D01*
X106871428Y-80052380D02*
X106871428Y-79052380D01*
X106776190Y-79195238D01*
X106680952Y-79290476D01*
X106585714Y-79338095D01*
X108109523Y-80052380D02*
X107538095Y-80052380D01*
X107823809Y-80052380D02*
X107823809Y-79052380D01*
X107728571Y-79195238D01*
X107633333Y-79290476D01*
X107538095Y-79338095D01*
X95440476Y-119052380D02*
X95440476Y-119766666D01*
X95392857Y-119909523D01*
X95297619Y-120004761D01*
X95154761Y-120052380D01*
X95059523Y-120052380D01*
X96440476Y-120052380D02*
X95869047Y-120052380D01*
X96154761Y-120052380D02*
X96154761Y-119052380D01*
X96059523Y-119195238D01*
X95964285Y-119290476D01*
X95869047Y-119338095D01*
X96773809Y-119052380D02*
X97392857Y-119052380D01*
X97059523Y-119433333D01*
X97202380Y-119433333D01*
X97297619Y-119480952D01*
X97345238Y-119528571D01*
X97392857Y-119623809D01*
X97392857Y-119861904D01*
X97345238Y-119957142D01*
X97297619Y-120004761D01*
X97202380Y-120052380D01*
X96916666Y-120052380D01*
X96821428Y-120004761D01*
X96773809Y-119957142D01*
X95290476Y-93302380D02*
X95290476Y-94016666D01*
X95242857Y-94159523D01*
X95147619Y-94254761D01*
X95004761Y-94302380D01*
X94909523Y-94302380D01*
X96290476Y-94302380D02*
X95719047Y-94302380D01*
X96004761Y-94302380D02*
X96004761Y-93302380D01*
X95909523Y-93445238D01*
X95814285Y-93540476D01*
X95719047Y-93588095D01*
X97242857Y-94302380D02*
X96671428Y-94302380D01*
X96957142Y-94302380D02*
X96957142Y-93302380D01*
X96861904Y-93445238D01*
X96766666Y-93540476D01*
X96671428Y-93588095D01*
X115385714Y-114902380D02*
X115385714Y-113902380D01*
X115623809Y-113902380D01*
X115766666Y-113950000D01*
X115861904Y-114045238D01*
X115909523Y-114140476D01*
X115957142Y-114330952D01*
X115957142Y-114473809D01*
X115909523Y-114664285D01*
X115861904Y-114759523D01*
X115766666Y-114854761D01*
X115623809Y-114902380D01*
X115385714Y-114902380D01*
X116338095Y-113997619D02*
X116385714Y-113950000D01*
X116480952Y-113902380D01*
X116719047Y-113902380D01*
X116814285Y-113950000D01*
X116861904Y-113997619D01*
X116909523Y-114092857D01*
X116909523Y-114188095D01*
X116861904Y-114330952D01*
X116290476Y-114902380D01*
X116909523Y-114902380D01*
X117385714Y-114902380D02*
X117576190Y-114902380D01*
X117671428Y-114854761D01*
X117719047Y-114807142D01*
X117814285Y-114664285D01*
X117861904Y-114473809D01*
X117861904Y-114092857D01*
X117814285Y-113997619D01*
X117766666Y-113950000D01*
X117671428Y-113902380D01*
X117480952Y-113902380D01*
X117385714Y-113950000D01*
X117338095Y-113997619D01*
X117290476Y-114092857D01*
X117290476Y-114330952D01*
X117338095Y-114426190D01*
X117385714Y-114473809D01*
X117480952Y-114521428D01*
X117671428Y-114521428D01*
X117766666Y-114473809D01*
X117814285Y-114426190D01*
X117861904Y-114330952D01*
X64416666Y-143052380D02*
X64416666Y-143766666D01*
X64369047Y-143909523D01*
X64273809Y-144004761D01*
X64130952Y-144052380D01*
X64035714Y-144052380D01*
X65321428Y-143385714D02*
X65321428Y-144052380D01*
X65083333Y-143004761D02*
X64845238Y-143719047D01*
X65464285Y-143719047D01*
X68491666Y-52327380D02*
X68491666Y-53041666D01*
X68444047Y-53184523D01*
X68348809Y-53279761D01*
X68205952Y-53327380D01*
X68110714Y-53327380D01*
X69444047Y-52327380D02*
X68967857Y-52327380D01*
X68920238Y-52803571D01*
X68967857Y-52755952D01*
X69063095Y-52708333D01*
X69301190Y-52708333D01*
X69396428Y-52755952D01*
X69444047Y-52803571D01*
X69491666Y-52898809D01*
X69491666Y-53136904D01*
X69444047Y-53232142D01*
X69396428Y-53279761D01*
X69301190Y-53327380D01*
X69063095Y-53327380D01*
X68967857Y-53279761D01*
X68920238Y-53232142D01*
X53116666Y-130004761D02*
X53259523Y-130052380D01*
X53497619Y-130052380D01*
X53592857Y-130004761D01*
X53640476Y-129957142D01*
X53688095Y-129861904D01*
X53688095Y-129766666D01*
X53640476Y-129671428D01*
X53592857Y-129623809D01*
X53497619Y-129576190D01*
X53307142Y-129528571D01*
X53211904Y-129480952D01*
X53164285Y-129433333D01*
X53116666Y-129338095D01*
X53116666Y-129242857D01*
X53164285Y-129147619D01*
X53211904Y-129100000D01*
X53307142Y-129052380D01*
X53545238Y-129052380D01*
X53688095Y-129100000D01*
X54021428Y-129052380D02*
X54259523Y-130052380D01*
X54450000Y-129338095D01*
X54640476Y-130052380D01*
X54878571Y-129052380D01*
X55211904Y-129147619D02*
X55259523Y-129100000D01*
X55354761Y-129052380D01*
X55592857Y-129052380D01*
X55688095Y-129100000D01*
X55735714Y-129147619D01*
X55783333Y-129242857D01*
X55783333Y-129338095D01*
X55735714Y-129480952D01*
X55164285Y-130052380D01*
X55783333Y-130052380D01*
X95916666Y-69052380D02*
X95916666Y-69766666D01*
X95869047Y-69909523D01*
X95773809Y-70004761D01*
X95630952Y-70052380D01*
X95535714Y-70052380D01*
X96440476Y-70052380D02*
X96630952Y-70052380D01*
X96726190Y-70004761D01*
X96773809Y-69957142D01*
X96869047Y-69814285D01*
X96916666Y-69623809D01*
X96916666Y-69242857D01*
X96869047Y-69147619D01*
X96821428Y-69100000D01*
X96726190Y-69052380D01*
X96535714Y-69052380D01*
X96440476Y-69100000D01*
X96392857Y-69147619D01*
X96345238Y-69242857D01*
X96345238Y-69480952D01*
X96392857Y-69576190D01*
X96440476Y-69623809D01*
X96535714Y-69671428D01*
X96726190Y-69671428D01*
X96821428Y-69623809D01*
X96869047Y-69576190D01*
X96916666Y-69480952D01*
X109015714Y-107562380D02*
X109015714Y-106562380D01*
X109253809Y-106562380D01*
X109396666Y-106610000D01*
X109491904Y-106705238D01*
X109539523Y-106800476D01*
X109587142Y-106990952D01*
X109587142Y-107133809D01*
X109539523Y-107324285D01*
X109491904Y-107419523D01*
X109396666Y-107514761D01*
X109253809Y-107562380D01*
X109015714Y-107562380D01*
X109920476Y-106562380D02*
X110539523Y-106562380D01*
X110206190Y-106943333D01*
X110349047Y-106943333D01*
X110444285Y-106990952D01*
X110491904Y-107038571D01*
X110539523Y-107133809D01*
X110539523Y-107371904D01*
X110491904Y-107467142D01*
X110444285Y-107514761D01*
X110349047Y-107562380D01*
X110063333Y-107562380D01*
X109968095Y-107514761D01*
X109920476Y-107467142D01*
X110872857Y-106562380D02*
X111491904Y-106562380D01*
X111158571Y-106943333D01*
X111301428Y-106943333D01*
X111396666Y-106990952D01*
X111444285Y-107038571D01*
X111491904Y-107133809D01*
X111491904Y-107371904D01*
X111444285Y-107467142D01*
X111396666Y-107514761D01*
X111301428Y-107562380D01*
X111015714Y-107562380D01*
X110920476Y-107514761D01*
X110872857Y-107467142D01*
X72055714Y-145492380D02*
X72055714Y-144492380D01*
X72293809Y-144492380D01*
X72436666Y-144540000D01*
X72531904Y-144635238D01*
X72579523Y-144730476D01*
X72627142Y-144920952D01*
X72627142Y-145063809D01*
X72579523Y-145254285D01*
X72531904Y-145349523D01*
X72436666Y-145444761D01*
X72293809Y-145492380D01*
X72055714Y-145492380D01*
X73579523Y-145492380D02*
X73008095Y-145492380D01*
X73293809Y-145492380D02*
X73293809Y-144492380D01*
X73198571Y-144635238D01*
X73103333Y-144730476D01*
X73008095Y-144778095D01*
X74531904Y-145492380D02*
X73960476Y-145492380D01*
X74246190Y-145492380D02*
X74246190Y-144492380D01*
X74150952Y-144635238D01*
X74055714Y-144730476D01*
X73960476Y-144778095D01*
X79616666Y-78904761D02*
X79759523Y-78952380D01*
X79997619Y-78952380D01*
X80092857Y-78904761D01*
X80140476Y-78857142D01*
X80188095Y-78761904D01*
X80188095Y-78666666D01*
X80140476Y-78571428D01*
X80092857Y-78523809D01*
X79997619Y-78476190D01*
X79807142Y-78428571D01*
X79711904Y-78380952D01*
X79664285Y-78333333D01*
X79616666Y-78238095D01*
X79616666Y-78142857D01*
X79664285Y-78047619D01*
X79711904Y-78000000D01*
X79807142Y-77952380D01*
X80045238Y-77952380D01*
X80188095Y-78000000D01*
X80521428Y-77952380D02*
X80759523Y-78952380D01*
X80950000Y-78238095D01*
X81140476Y-78952380D01*
X81378571Y-77952380D01*
X81807142Y-78952380D02*
X81997619Y-78952380D01*
X82092857Y-78904761D01*
X82140476Y-78857142D01*
X82235714Y-78714285D01*
X82283333Y-78523809D01*
X82283333Y-78142857D01*
X82235714Y-78047619D01*
X82188095Y-78000000D01*
X82092857Y-77952380D01*
X81902380Y-77952380D01*
X81807142Y-78000000D01*
X81759523Y-78047619D01*
X81711904Y-78142857D01*
X81711904Y-78380952D01*
X81759523Y-78476190D01*
X81807142Y-78523809D01*
X81902380Y-78571428D01*
X82092857Y-78571428D01*
X82188095Y-78523809D01*
X82235714Y-78476190D01*
X82283333Y-78380952D01*
X69116666Y-78904761D02*
X69259523Y-78952380D01*
X69497619Y-78952380D01*
X69592857Y-78904761D01*
X69640476Y-78857142D01*
X69688095Y-78761904D01*
X69688095Y-78666666D01*
X69640476Y-78571428D01*
X69592857Y-78523809D01*
X69497619Y-78476190D01*
X69307142Y-78428571D01*
X69211904Y-78380952D01*
X69164285Y-78333333D01*
X69116666Y-78238095D01*
X69116666Y-78142857D01*
X69164285Y-78047619D01*
X69211904Y-78000000D01*
X69307142Y-77952380D01*
X69545238Y-77952380D01*
X69688095Y-78000000D01*
X70021428Y-77952380D02*
X70259523Y-78952380D01*
X70450000Y-78238095D01*
X70640476Y-78952380D01*
X70878571Y-77952380D01*
X71402380Y-78380952D02*
X71307142Y-78333333D01*
X71259523Y-78285714D01*
X71211904Y-78190476D01*
X71211904Y-78142857D01*
X71259523Y-78047619D01*
X71307142Y-78000000D01*
X71402380Y-77952380D01*
X71592857Y-77952380D01*
X71688095Y-78000000D01*
X71735714Y-78047619D01*
X71783333Y-78142857D01*
X71783333Y-78190476D01*
X71735714Y-78285714D01*
X71688095Y-78333333D01*
X71592857Y-78380952D01*
X71402380Y-78380952D01*
X71307142Y-78428571D01*
X71259523Y-78476190D01*
X71211904Y-78571428D01*
X71211904Y-78761904D01*
X71259523Y-78857142D01*
X71307142Y-78904761D01*
X71402380Y-78952380D01*
X71592857Y-78952380D01*
X71688095Y-78904761D01*
X71735714Y-78857142D01*
X71783333Y-78761904D01*
X71783333Y-78571428D01*
X71735714Y-78476190D01*
X71688095Y-78428571D01*
X71592857Y-78380952D01*
D11*
X111210000Y-89600000D02*
X111210000Y-89756000D01*
X111210000Y-87284000D02*
X111210000Y-87440000D01*
X113811130Y-87440163D02*
G75*
G03*
X111729039Y-87440000I-1041130J-1079837D01*
G01*
X114442335Y-87441392D02*
G75*
G03*
X111210000Y-87284484I-1672335J-1078609D01*
G01*
X111210000Y-89755516D02*
G75*
G03*
X114442335Y-89598608I1560000J1235517D01*
G01*
X111729039Y-89600000D02*
G75*
G03*
X113811130Y-89599837I1040961J1080000D01*
G01*
X111210000Y-139580000D02*
X111210000Y-139736000D01*
X111210000Y-137264000D02*
X111210000Y-137420000D01*
X111729039Y-139580000D02*
G75*
G03*
X113811130Y-139579837I1040961J1080000D01*
G01*
X113811130Y-137420163D02*
G75*
G03*
X111729039Y-137420000I-1041130J-1079837D01*
G01*
X111210000Y-139735516D02*
G75*
G03*
X114442335Y-139578608I1560000J1235517D01*
G01*
X114442335Y-137421392D02*
G75*
G03*
X111210000Y-137264484I-1672335J-1078609D01*
G01*
X111210000Y-120264000D02*
X111210000Y-120420000D01*
X111210000Y-122580000D02*
X111210000Y-122736000D01*
X111210000Y-122735516D02*
G75*
G03*
X114442335Y-122578608I1560000J1235517D01*
G01*
X113811130Y-120420163D02*
G75*
G03*
X111729039Y-120420000I-1041130J-1079837D01*
G01*
X111729039Y-122580000D02*
G75*
G03*
X113811130Y-122579837I1040961J1080000D01*
G01*
X114442335Y-120421392D02*
G75*
G03*
X111210000Y-120264484I-1672335J-1078609D01*
G01*
X103000000Y-133750000D02*
X103000000Y-138250000D01*
X107000000Y-132500000D02*
X105500000Y-132500000D01*
X105500000Y-139500000D02*
X107000000Y-139500000D01*
X109500000Y-138250000D02*
X109500000Y-133750000D01*
X84430000Y-126936000D02*
X84430000Y-126780000D01*
X84430000Y-124620000D02*
X84430000Y-124464000D01*
X81828870Y-126779837D02*
G75*
G03*
X83910961Y-126780000I1041130J1079837D01*
G01*
X81197665Y-126778608D02*
G75*
G03*
X84430000Y-126935516I1672335J1078609D01*
G01*
X83910961Y-124620000D02*
G75*
G03*
X81828870Y-124620163I-1040961J-1080000D01*
G01*
X84430000Y-124464484D02*
G75*
G03*
X81197665Y-124621392I-1560000J-1235517D01*
G01*
X105500000Y-151500000D02*
X107000000Y-151500000D01*
X107000000Y-144500000D02*
X105500000Y-144500000D01*
X103000000Y-145750000D02*
X103000000Y-150250000D01*
X109500000Y-150250000D02*
X109500000Y-145750000D01*
X89870000Y-152900000D02*
X89870000Y-144800000D01*
X89870000Y-144800000D02*
X102130000Y-144800000D01*
X89870000Y-152900000D02*
X102130000Y-152900000D01*
X102130000Y-144800000D02*
X102130000Y-152900000D01*
X107000000Y-58500000D02*
X105500000Y-58500000D01*
X103000000Y-59750000D02*
X103000000Y-64250000D01*
X109500000Y-64250000D02*
X109500000Y-59750000D01*
X105500000Y-65500000D02*
X107000000Y-65500000D01*
X111210000Y-99264000D02*
X111210000Y-99420000D01*
X111210000Y-101580000D02*
X111210000Y-101736000D01*
X111729039Y-101580000D02*
G75*
G03*
X113811130Y-101579837I1040961J1080000D01*
G01*
X113811130Y-99420163D02*
G75*
G03*
X111729039Y-99420000I-1041130J-1079837D01*
G01*
X114442335Y-99421392D02*
G75*
G03*
X111210000Y-99264484I-1672335J-1078609D01*
G01*
X111210000Y-101735516D02*
G75*
G03*
X114442335Y-101578608I1560000J1235517D01*
G01*
X111210000Y-60580000D02*
X111210000Y-60736000D01*
X111210000Y-58264000D02*
X111210000Y-58420000D01*
X113811130Y-58420163D02*
G75*
G03*
X111729039Y-58420000I-1041130J-1079837D01*
G01*
X111729039Y-60580000D02*
G75*
G03*
X113811130Y-60579837I1040961J1080000D01*
G01*
X111210000Y-60735516D02*
G75*
G03*
X114442335Y-60578608I1560000J1235517D01*
G01*
X114442335Y-58421392D02*
G75*
G03*
X111210000Y-58264484I-1672335J-1078609D01*
G01*
X109500000Y-126250000D02*
X109500000Y-121750000D01*
X105500000Y-127500000D02*
X107000000Y-127500000D01*
X107000000Y-120500000D02*
X105500000Y-120500000D01*
X103000000Y-121750000D02*
X103000000Y-126250000D01*
X111210000Y-144264000D02*
X111210000Y-144420000D01*
X111210000Y-146580000D02*
X111210000Y-146736000D01*
X111210000Y-146735516D02*
G75*
G03*
X114442335Y-146578608I1560000J1235517D01*
G01*
X111729039Y-146580000D02*
G75*
G03*
X113811130Y-146579837I1040961J1080000D01*
G01*
X113811130Y-144420163D02*
G75*
G03*
X111729039Y-144420000I-1041130J-1079837D01*
G01*
X114442335Y-144421392D02*
G75*
G03*
X111210000Y-144264484I-1672335J-1078609D01*
G01*
X61350000Y-60600000D02*
X61350000Y-59100000D01*
X60100000Y-56600000D02*
X55600000Y-56600000D01*
X54350000Y-59100000D02*
X54350000Y-60600000D01*
X55600000Y-63100000D02*
X60100000Y-63100000D01*
X111210000Y-70264000D02*
X111210000Y-70420000D01*
X111210000Y-72580000D02*
X111210000Y-72736000D01*
X114442335Y-70421392D02*
G75*
G03*
X111210000Y-70264484I-1672335J-1078609D01*
G01*
X113811130Y-70420163D02*
G75*
G03*
X111729039Y-70420000I-1041130J-1079837D01*
G01*
X111729039Y-72580000D02*
G75*
G03*
X113811130Y-72579837I1040961J1080000D01*
G01*
X111210000Y-72735516D02*
G75*
G03*
X114442335Y-72578608I1560000J1235517D01*
G01*
X102130000Y-58800000D02*
X102130000Y-66900000D01*
X89870000Y-66900000D02*
X89870000Y-58800000D01*
X89870000Y-58800000D02*
X102130000Y-58800000D01*
X89870000Y-66900000D02*
X102130000Y-66900000D01*
X109500000Y-88250000D02*
X109500000Y-83750000D01*
X103000000Y-83750000D02*
X103000000Y-88250000D01*
X105500000Y-89500000D02*
X107000000Y-89500000D01*
X107000000Y-82500000D02*
X105500000Y-82500000D01*
X88130000Y-108800000D02*
X88130000Y-116900000D01*
X75870000Y-108800000D02*
X88130000Y-108800000D01*
X75870000Y-116900000D02*
X88130000Y-116900000D01*
X75870000Y-116900000D02*
X75870000Y-108800000D01*
X54300000Y-66800000D02*
X54300000Y-68300000D01*
X61300000Y-68300000D02*
X61300000Y-66800000D01*
X60050000Y-64300000D02*
X55550000Y-64300000D01*
X55550000Y-70800000D02*
X60050000Y-70800000D01*
X51000000Y-145750000D02*
X51000000Y-150250000D01*
X53500000Y-151500000D02*
X55000000Y-151500000D01*
X57500000Y-150250000D02*
X57500000Y-145750000D01*
X55000000Y-144500000D02*
X53500000Y-144500000D01*
D12*
X82525000Y-87525000D02*
X82525000Y-88325000D01*
X68875000Y-87525000D02*
X69375000Y-87525000D01*
X82525000Y-99325000D02*
X82525000Y-100275000D01*
X68875000Y-99425000D02*
X68875000Y-100275000D01*
X68875000Y-100275000D02*
X69550000Y-100275000D01*
X68875000Y-88225000D02*
X68875000Y-87525000D01*
X82525000Y-100275000D02*
X81850000Y-100275000D01*
X81950000Y-87525000D02*
X82525000Y-87525000D01*
D11*
X71710000Y-113080000D02*
X71710000Y-113236000D01*
X71710000Y-110764000D02*
X71710000Y-110920000D01*
X71710000Y-113235516D02*
G75*
G03*
X74942335Y-113078608I1560000J1235517D01*
G01*
X72229039Y-113080000D02*
G75*
G03*
X74311130Y-113079837I1040961J1080000D01*
G01*
X74311130Y-110920163D02*
G75*
G03*
X72229039Y-110920000I-1041130J-1079837D01*
G01*
X74942335Y-110921392D02*
G75*
G03*
X71710000Y-110764484I-1672335J-1078609D01*
G01*
X103000000Y-109750000D02*
X103000000Y-114250000D01*
X107000000Y-108500000D02*
X105500000Y-108500000D01*
X109500000Y-114250000D02*
X109500000Y-109750000D01*
X105500000Y-115500000D02*
X107000000Y-115500000D01*
X55000000Y-108500000D02*
X53500000Y-108500000D01*
X51000000Y-109750000D02*
X51000000Y-114250000D01*
X57500000Y-114250000D02*
X57500000Y-109750000D01*
X53500000Y-115500000D02*
X55000000Y-115500000D01*
X84430000Y-145936000D02*
X84430000Y-145780000D01*
X84430000Y-143620000D02*
X84430000Y-143464000D01*
X81197665Y-145778608D02*
G75*
G03*
X84430000Y-145935516I1672335J1078609D01*
G01*
X83910961Y-143620000D02*
G75*
G03*
X81828870Y-143620163I-1040961J-1080000D01*
G01*
X84430000Y-143464484D02*
G75*
G03*
X81197665Y-143621392I-1560000J-1235517D01*
G01*
X81828870Y-145779837D02*
G75*
G03*
X83910961Y-145780000I1041130J1079837D01*
G01*
X111210000Y-63264000D02*
X111210000Y-63420000D01*
X111210000Y-65580000D02*
X111210000Y-65736000D01*
X111729039Y-65580000D02*
G75*
G03*
X113811130Y-65579837I1040961J1080000D01*
G01*
X113811130Y-63420163D02*
G75*
G03*
X111729039Y-63420000I-1041130J-1079837D01*
G01*
X111210000Y-65735516D02*
G75*
G03*
X114442335Y-65578608I1560000J1235517D01*
G01*
X114442335Y-63421392D02*
G75*
G03*
X111210000Y-63264484I-1672335J-1078609D01*
G01*
X75870000Y-140900000D02*
X88130000Y-140900000D01*
X75870000Y-140900000D02*
X75870000Y-132800000D01*
X75870000Y-132800000D02*
X88130000Y-132800000D01*
X88130000Y-132800000D02*
X88130000Y-140900000D01*
X84430000Y-121936000D02*
X84430000Y-121780000D01*
X84430000Y-119620000D02*
X84430000Y-119464000D01*
X84430000Y-119464484D02*
G75*
G03*
X81197665Y-119621392I-1560000J-1235517D01*
G01*
X81828870Y-121779837D02*
G75*
G03*
X83910961Y-121780000I1041130J1079837D01*
G01*
X81197665Y-121778608D02*
G75*
G03*
X84430000Y-121935516I1672335J1078609D01*
G01*
X83910961Y-119620000D02*
G75*
G03*
X81828870Y-119620163I-1040961J-1080000D01*
G01*
X55000000Y-132500000D02*
X53500000Y-132500000D01*
X51000000Y-133750000D02*
X51000000Y-138250000D01*
X57500000Y-138250000D02*
X57500000Y-133750000D01*
X53500000Y-139500000D02*
X55000000Y-139500000D01*
X89870000Y-116900000D02*
X102130000Y-116900000D01*
X89870000Y-108800000D02*
X102130000Y-108800000D01*
X102130000Y-108800000D02*
X102130000Y-116900000D01*
X89870000Y-116900000D02*
X89870000Y-108800000D01*
X71710000Y-134764000D02*
X71710000Y-134920000D01*
X71710000Y-137080000D02*
X71710000Y-137236000D01*
X71710000Y-137235516D02*
G75*
G03*
X74942335Y-137078608I1560000J1235517D01*
G01*
X72229039Y-137080000D02*
G75*
G03*
X74311130Y-137079837I1040961J1080000D01*
G01*
X74311130Y-134920163D02*
G75*
G03*
X72229039Y-134920000I-1041130J-1079837D01*
G01*
X74942335Y-134921392D02*
G75*
G03*
X71710000Y-134764484I-1672335J-1078609D01*
G01*
X111210000Y-134580000D02*
X111210000Y-134736000D01*
X111210000Y-132264000D02*
X111210000Y-132420000D01*
X111729039Y-134580000D02*
G75*
G03*
X113811130Y-134579837I1040961J1080000D01*
G01*
X111210000Y-134735516D02*
G75*
G03*
X114442335Y-134578608I1560000J1235517D01*
G01*
X114442335Y-132421392D02*
G75*
G03*
X111210000Y-132264484I-1672335J-1078609D01*
G01*
X113811130Y-132420163D02*
G75*
G03*
X111729039Y-132420000I-1041130J-1079837D01*
G01*
X84430000Y-148620000D02*
X84430000Y-148464000D01*
X84430000Y-150936000D02*
X84430000Y-150780000D01*
X83910961Y-148620000D02*
G75*
G03*
X81828870Y-148620163I-1040961J-1080000D01*
G01*
X84430000Y-148464484D02*
G75*
G03*
X81197665Y-148621392I-1560000J-1235517D01*
G01*
X81197665Y-150778608D02*
G75*
G03*
X84430000Y-150935516I1672335J1078609D01*
G01*
X81828870Y-150779837D02*
G75*
G03*
X83910961Y-150780000I1041130J1079837D01*
G01*
X71710000Y-122764000D02*
X71710000Y-122920000D01*
X71710000Y-125080000D02*
X71710000Y-125236000D01*
X72229039Y-125080000D02*
G75*
G03*
X74311130Y-125079837I1040961J1080000D01*
G01*
X74942335Y-122921392D02*
G75*
G03*
X71710000Y-122764484I-1672335J-1078609D01*
G01*
X71710000Y-125235516D02*
G75*
G03*
X74942335Y-125078608I1560000J1235517D01*
G01*
X74311130Y-122920163D02*
G75*
G03*
X72229039Y-122920000I-1041130J-1079837D01*
G01*
X70630000Y-108800000D02*
X70630000Y-116900000D01*
X58370000Y-108800000D02*
X70630000Y-108800000D01*
X58370000Y-116900000D02*
X70630000Y-116900000D01*
X58370000Y-116900000D02*
X58370000Y-108800000D01*
X111210000Y-96580000D02*
X111210000Y-96736000D01*
X111210000Y-94264000D02*
X111210000Y-94420000D01*
X111210000Y-96735516D02*
G75*
G03*
X114442335Y-96578608I1560000J1235517D01*
G01*
X114442335Y-94421392D02*
G75*
G03*
X111210000Y-94264484I-1672335J-1078609D01*
G01*
X113811130Y-94420163D02*
G75*
G03*
X111729039Y-94420000I-1041130J-1079837D01*
G01*
X111729039Y-96580000D02*
G75*
G03*
X113811130Y-96579837I1040961J1080000D01*
G01*
X58370000Y-128900000D02*
X70630000Y-128900000D01*
X58370000Y-120800000D02*
X70630000Y-120800000D01*
X70630000Y-120800000D02*
X70630000Y-128900000D01*
X58370000Y-128900000D02*
X58370000Y-120800000D01*
X70630000Y-132800000D02*
X70630000Y-140900000D01*
X58370000Y-140900000D02*
X70630000Y-140900000D01*
X58370000Y-140900000D02*
X58370000Y-132800000D01*
X58370000Y-132800000D02*
X70630000Y-132800000D01*
X89870000Y-140900000D02*
X89870000Y-132800000D01*
X102130000Y-132800000D02*
X102130000Y-140900000D01*
X89870000Y-140900000D02*
X102130000Y-140900000D01*
X89870000Y-132800000D02*
X102130000Y-132800000D01*
X111210000Y-151580000D02*
X111210000Y-151736000D01*
X111210000Y-149264000D02*
X111210000Y-149420000D01*
X114442335Y-149421392D02*
G75*
G03*
X111210000Y-149264484I-1672335J-1078609D01*
G01*
X111210000Y-151735516D02*
G75*
G03*
X114442335Y-151578608I1560000J1235517D01*
G01*
X111729039Y-151580000D02*
G75*
G03*
X113811130Y-151579837I1040961J1080000D01*
G01*
X113811130Y-149420163D02*
G75*
G03*
X111729039Y-149420000I-1041130J-1079837D01*
G01*
X111210000Y-127580000D02*
X111210000Y-127736000D01*
X111210000Y-125264000D02*
X111210000Y-125420000D01*
X111729039Y-127580000D02*
G75*
G03*
X113811130Y-127579837I1040961J1080000D01*
G01*
X114442335Y-125421392D02*
G75*
G03*
X111210000Y-125264484I-1672335J-1078609D01*
G01*
X111210000Y-127735516D02*
G75*
G03*
X114442335Y-127578608I1560000J1235517D01*
G01*
X113811130Y-125420163D02*
G75*
G03*
X111729039Y-125420000I-1041130J-1079837D01*
G01*
X103000000Y-95750000D02*
X103000000Y-100250000D01*
X109500000Y-100250000D02*
X109500000Y-95750000D01*
X107000000Y-94500000D02*
X105500000Y-94500000D01*
X105500000Y-101500000D02*
X107000000Y-101500000D01*
X111210000Y-82264000D02*
X111210000Y-82420000D01*
X111210000Y-84580000D02*
X111210000Y-84736000D01*
X113811130Y-82420163D02*
G75*
G03*
X111729039Y-82420000I-1041130J-1079837D01*
G01*
X111729039Y-84580000D02*
G75*
G03*
X113811130Y-84579837I1040961J1080000D01*
G01*
X114442335Y-82421392D02*
G75*
G03*
X111210000Y-82264484I-1672335J-1078609D01*
G01*
X111210000Y-84735516D02*
G75*
G03*
X114442335Y-84578608I1560000J1235517D01*
G01*
X111210000Y-75214000D02*
X111210000Y-75370000D01*
X111210000Y-77530000D02*
X111210000Y-77686000D01*
X113811130Y-75370163D02*
G75*
G03*
X111729039Y-75370000I-1041130J-1079837D01*
G01*
X111729039Y-77530000D02*
G75*
G03*
X113811130Y-77529837I1040961J1080000D01*
G01*
X114442335Y-75371392D02*
G75*
G03*
X111210000Y-75214484I-1672335J-1078609D01*
G01*
X111210000Y-77685516D02*
G75*
G03*
X114442335Y-77528608I1560000J1235517D01*
G01*
X89870000Y-82800000D02*
X102130000Y-82800000D01*
X89870000Y-90900000D02*
X89870000Y-82800000D01*
X102130000Y-82800000D02*
X102130000Y-90900000D01*
X89870000Y-90900000D02*
X102130000Y-90900000D01*
X105500000Y-77500000D02*
X107000000Y-77500000D01*
X103000000Y-71750000D02*
X103000000Y-76250000D01*
X109500000Y-76250000D02*
X109500000Y-71750000D01*
X107000000Y-70500000D02*
X105500000Y-70500000D01*
X89870000Y-128900000D02*
X89870000Y-120800000D01*
X89870000Y-120800000D02*
X102130000Y-120800000D01*
X89870000Y-128900000D02*
X102130000Y-128900000D01*
X102130000Y-120800000D02*
X102130000Y-128900000D01*
X89870000Y-94800000D02*
X102130000Y-94800000D01*
X89870000Y-102900000D02*
X89870000Y-94800000D01*
X89870000Y-102900000D02*
X102130000Y-102900000D01*
X102130000Y-94800000D02*
X102130000Y-102900000D01*
X111210000Y-113264000D02*
X111210000Y-113420000D01*
X111210000Y-115580000D02*
X111210000Y-115736000D01*
X111210000Y-115735516D02*
G75*
G03*
X114442335Y-115578608I1560000J1235517D01*
G01*
X114442335Y-113421392D02*
G75*
G03*
X111210000Y-113264484I-1672335J-1078609D01*
G01*
X111729039Y-115580000D02*
G75*
G03*
X113811130Y-115579837I1040961J1080000D01*
G01*
X113811130Y-113420163D02*
G75*
G03*
X111729039Y-113420000I-1041130J-1079837D01*
G01*
X58370000Y-152900000D02*
X58370000Y-144800000D01*
X58370000Y-144800000D02*
X70630000Y-144800000D01*
X70630000Y-144800000D02*
X70630000Y-152900000D01*
X58370000Y-152900000D02*
X70630000Y-152900000D01*
D12*
X70640000Y-54500000D02*
X71140000Y-54500000D01*
X70640000Y-51500000D02*
X70640000Y-52000000D01*
X70640000Y-54500000D02*
X70640000Y-54000000D01*
X70640000Y-51500000D02*
X71140000Y-51500000D01*
D11*
X51000000Y-121750000D02*
X51000000Y-126250000D01*
X55000000Y-120500000D02*
X53500000Y-120500000D01*
X53500000Y-127500000D02*
X55000000Y-127500000D01*
X57500000Y-126250000D02*
X57500000Y-121750000D01*
X89870000Y-78900000D02*
X89870000Y-70800000D01*
X89870000Y-78900000D02*
X102130000Y-78900000D01*
X102130000Y-70800000D02*
X102130000Y-78900000D01*
X89870000Y-70800000D02*
X102130000Y-70800000D01*
X111210000Y-110580000D02*
X111210000Y-110736000D01*
X111210000Y-108264000D02*
X111210000Y-108420000D01*
X113811130Y-108420163D02*
G75*
G03*
X111729039Y-108420000I-1041130J-1079837D01*
G01*
X111729039Y-110580000D02*
G75*
G03*
X113811130Y-110579837I1040961J1080000D01*
G01*
X111210000Y-110735516D02*
G75*
G03*
X114442335Y-110578608I1560000J1235517D01*
G01*
X114442335Y-108421392D02*
G75*
G03*
X111210000Y-108264484I-1672335J-1078609D01*
G01*
X71710000Y-146764000D02*
X71710000Y-146920000D01*
X71710000Y-149080000D02*
X71710000Y-149236000D01*
X72229039Y-149080000D02*
G75*
G03*
X74311130Y-149079837I1040961J1080000D01*
G01*
X74311130Y-146920163D02*
G75*
G03*
X72229039Y-146920000I-1041130J-1079837D01*
G01*
X71710000Y-149235516D02*
G75*
G03*
X74942335Y-149078608I1560000J1235517D01*
G01*
X74942335Y-146921392D02*
G75*
G03*
X71710000Y-146764484I-1672335J-1078609D01*
G01*
X84450000Y-83500000D02*
X84450000Y-82000000D01*
X77450000Y-82000000D02*
X77450000Y-83500000D01*
X78700000Y-86000000D02*
X83200000Y-86000000D01*
X83200000Y-79500000D02*
X78700000Y-79500000D01*
X72700000Y-79500000D02*
X68200000Y-79500000D01*
X68200000Y-86000000D02*
X72700000Y-86000000D01*
X73950000Y-83500000D02*
X73950000Y-82000000D01*
X66950000Y-82000000D02*
X66950000Y-83500000D01*
M02*
