G04 #@! TF.GenerationSoftware,KiCad,Pcbnew,(6.0.1)*
G04 #@! TF.CreationDate,2022-02-15T10:48:45-08:00*
G04 #@! TF.ProjectId,panel,70616e65-6c2e-46b6-9963-61645f706362,rev?*
G04 #@! TF.SameCoordinates,Original*
G04 #@! TF.FileFunction,Copper,L2,Bot*
G04 #@! TF.FilePolarity,Positive*
%FSLAX46Y46*%
G04 Gerber Fmt 4.6, Leading zero omitted, Abs format (unit mm)*
G04 Created by KiCad (PCBNEW (6.0.1)) date 2022-02-15 10:48:45*
%MOMM*%
%LPD*%
G01*
G04 APERTURE LIST*
G04 #@! TA.AperFunction,ComponentPad*
%ADD10C,5.000000*%
G04 #@! TD*
G04 APERTURE END LIST*
D10*
X62500000Y-43750000D03*
X98000000Y-43750000D03*
X98000000Y-166150000D03*
X62500000Y-166150000D03*
G04 #@! TA.AperFunction,NonConductor*
G36*
X60507956Y-41278002D02*
G01*
X60554449Y-41331658D01*
X60564553Y-41401932D01*
X60535059Y-41466512D01*
X60518622Y-41482328D01*
X60483509Y-41510459D01*
X60239466Y-41757071D01*
X60237225Y-41759929D01*
X60180732Y-41831978D01*
X60025386Y-42030098D01*
X60023493Y-42033187D01*
X60023491Y-42033190D01*
X59977233Y-42108676D01*
X59844105Y-42325921D01*
X59842580Y-42329206D01*
X59842578Y-42329210D01*
X59803505Y-42413386D01*
X59698027Y-42640620D01*
X59589087Y-42970023D01*
X59518730Y-43309764D01*
X59487888Y-43655341D01*
X59487983Y-43658971D01*
X59487983Y-43658972D01*
X59490367Y-43750000D01*
X59496970Y-44002171D01*
X59545856Y-44345660D01*
X59633897Y-44681253D01*
X59759927Y-45004503D01*
X59761624Y-45007708D01*
X59895113Y-45259825D01*
X59922275Y-45311126D01*
X59924325Y-45314109D01*
X59924327Y-45314112D01*
X60116733Y-45594064D01*
X60116739Y-45594071D01*
X60118790Y-45597056D01*
X60346866Y-45858505D01*
X60349551Y-45860948D01*
X60559268Y-46051775D01*
X60603481Y-46092006D01*
X60885233Y-46294466D01*
X61188388Y-46463200D01*
X61508928Y-46595972D01*
X61512422Y-46596967D01*
X61512424Y-46596968D01*
X61839103Y-46690025D01*
X61839108Y-46690026D01*
X61842604Y-46691022D01*
X62039304Y-46723233D01*
X62181412Y-46746504D01*
X62181419Y-46746505D01*
X62184993Y-46747090D01*
X62358276Y-46755262D01*
X62527931Y-46763263D01*
X62527932Y-46763263D01*
X62531558Y-46763434D01*
X62540415Y-46762830D01*
X62874073Y-46740084D01*
X62874081Y-46740083D01*
X62877704Y-46739836D01*
X62881279Y-46739173D01*
X62881282Y-46739173D01*
X63215279Y-46677270D01*
X63215283Y-46677269D01*
X63218844Y-46676609D01*
X63550456Y-46574592D01*
X63868145Y-46435136D01*
X64112511Y-46292341D01*
X64164560Y-46261926D01*
X64164562Y-46261925D01*
X64167700Y-46260091D01*
X64170609Y-46257907D01*
X64442244Y-46053958D01*
X64442248Y-46053955D01*
X64445151Y-46051775D01*
X64696819Y-45812950D01*
X64919370Y-45546783D01*
X65109853Y-45256799D01*
X65238446Y-45001121D01*
X65264117Y-44950080D01*
X65264120Y-44950072D01*
X65265744Y-44946844D01*
X65384977Y-44621026D01*
X65385822Y-44617504D01*
X65385825Y-44617496D01*
X65465124Y-44287191D01*
X65465125Y-44287187D01*
X65465971Y-44283662D01*
X65500035Y-44002171D01*
X65507316Y-43942004D01*
X65507316Y-43941997D01*
X65507652Y-43939225D01*
X65513599Y-43750000D01*
X65513438Y-43747204D01*
X65493836Y-43407246D01*
X65493835Y-43407241D01*
X65493627Y-43403626D01*
X65433976Y-43061842D01*
X65335437Y-42729180D01*
X65199316Y-42410048D01*
X65149569Y-42322831D01*
X65029208Y-42111816D01*
X65027417Y-42108676D01*
X64822018Y-41829060D01*
X64585842Y-41574904D01*
X64474502Y-41479810D01*
X64435692Y-41420361D01*
X64435185Y-41349366D01*
X64473142Y-41289367D01*
X64537510Y-41259414D01*
X64556332Y-41258000D01*
X95939835Y-41258000D01*
X96007956Y-41278002D01*
X96054449Y-41331658D01*
X96064553Y-41401932D01*
X96035059Y-41466512D01*
X96018622Y-41482328D01*
X95983509Y-41510459D01*
X95739466Y-41757071D01*
X95737225Y-41759929D01*
X95680732Y-41831978D01*
X95525386Y-42030098D01*
X95523493Y-42033187D01*
X95523491Y-42033190D01*
X95477233Y-42108676D01*
X95344105Y-42325921D01*
X95342580Y-42329206D01*
X95342578Y-42329210D01*
X95303505Y-42413386D01*
X95198027Y-42640620D01*
X95089087Y-42970023D01*
X95018730Y-43309764D01*
X94987888Y-43655341D01*
X94987983Y-43658971D01*
X94987983Y-43658972D01*
X94990367Y-43750000D01*
X94996970Y-44002171D01*
X95045856Y-44345660D01*
X95133897Y-44681253D01*
X95259927Y-45004503D01*
X95261624Y-45007708D01*
X95395113Y-45259825D01*
X95422275Y-45311126D01*
X95424325Y-45314109D01*
X95424327Y-45314112D01*
X95616733Y-45594064D01*
X95616739Y-45594071D01*
X95618790Y-45597056D01*
X95846866Y-45858505D01*
X95849551Y-45860948D01*
X96059268Y-46051775D01*
X96103481Y-46092006D01*
X96385233Y-46294466D01*
X96688388Y-46463200D01*
X97008928Y-46595972D01*
X97012422Y-46596967D01*
X97012424Y-46596968D01*
X97339103Y-46690025D01*
X97339108Y-46690026D01*
X97342604Y-46691022D01*
X97539304Y-46723233D01*
X97681412Y-46746504D01*
X97681419Y-46746505D01*
X97684993Y-46747090D01*
X97858276Y-46755262D01*
X98027931Y-46763263D01*
X98027932Y-46763263D01*
X98031558Y-46763434D01*
X98040415Y-46762830D01*
X98374073Y-46740084D01*
X98374081Y-46740083D01*
X98377704Y-46739836D01*
X98381279Y-46739173D01*
X98381282Y-46739173D01*
X98715279Y-46677270D01*
X98715283Y-46677269D01*
X98718844Y-46676609D01*
X99050456Y-46574592D01*
X99368145Y-46435136D01*
X99612511Y-46292341D01*
X99664560Y-46261926D01*
X99664562Y-46261925D01*
X99667700Y-46260091D01*
X99670609Y-46257907D01*
X99942244Y-46053958D01*
X99942248Y-46053955D01*
X99945151Y-46051775D01*
X100196819Y-45812950D01*
X100419370Y-45546783D01*
X100609853Y-45256799D01*
X100738446Y-45001121D01*
X100764117Y-44950080D01*
X100764120Y-44950072D01*
X100765744Y-44946844D01*
X100884977Y-44621026D01*
X100885822Y-44617504D01*
X100885825Y-44617496D01*
X100965124Y-44287191D01*
X100965125Y-44287187D01*
X100965971Y-44283662D01*
X101000035Y-44002171D01*
X101007316Y-43942004D01*
X101007316Y-43941997D01*
X101007652Y-43939225D01*
X101013599Y-43750000D01*
X101013438Y-43747204D01*
X100993836Y-43407246D01*
X100993835Y-43407241D01*
X100993627Y-43403626D01*
X100933976Y-43061842D01*
X100835437Y-42729180D01*
X100699316Y-42410048D01*
X100649569Y-42322831D01*
X100529208Y-42111816D01*
X100527417Y-42108676D01*
X100322018Y-41829060D01*
X100085842Y-41574904D01*
X99974502Y-41479810D01*
X99935692Y-41420361D01*
X99935185Y-41349366D01*
X99973142Y-41289367D01*
X100037510Y-41259414D01*
X100056332Y-41258000D01*
X109766000Y-41258000D01*
X109834121Y-41278002D01*
X109880614Y-41331658D01*
X109892000Y-41384000D01*
X109892000Y-168516000D01*
X109871998Y-168584121D01*
X109818342Y-168630614D01*
X109766000Y-168642000D01*
X100060517Y-168642000D01*
X99992396Y-168621998D01*
X99945903Y-168568342D01*
X99935799Y-168498068D01*
X99965293Y-168433488D01*
X99973784Y-168424603D01*
X100194180Y-168215454D01*
X100196819Y-168212950D01*
X100419370Y-167946783D01*
X100609853Y-167656799D01*
X100738446Y-167401121D01*
X100764117Y-167350080D01*
X100764120Y-167350072D01*
X100765744Y-167346844D01*
X100884977Y-167021026D01*
X100885822Y-167017504D01*
X100885825Y-167017496D01*
X100965124Y-166687191D01*
X100965125Y-166687187D01*
X100965971Y-166683662D01*
X101000035Y-166402171D01*
X101007316Y-166342004D01*
X101007316Y-166341997D01*
X101007652Y-166339225D01*
X101013599Y-166150000D01*
X101013438Y-166147204D01*
X100993836Y-165807246D01*
X100993835Y-165807241D01*
X100993627Y-165803626D01*
X100933976Y-165461842D01*
X100835437Y-165129180D01*
X100699316Y-164810048D01*
X100649569Y-164722831D01*
X100529208Y-164511816D01*
X100527417Y-164508676D01*
X100322018Y-164229060D01*
X100085842Y-163974904D01*
X99822019Y-163749578D01*
X99534047Y-163556069D01*
X99225741Y-163396940D01*
X98901189Y-163274302D01*
X98897668Y-163273418D01*
X98897663Y-163273416D01*
X98736378Y-163232904D01*
X98564692Y-163189780D01*
X98542476Y-163186855D01*
X98224315Y-163144968D01*
X98224307Y-163144967D01*
X98220711Y-163144494D01*
X98076045Y-163142221D01*
X97877446Y-163139101D01*
X97877442Y-163139101D01*
X97873804Y-163139044D01*
X97870190Y-163139405D01*
X97870184Y-163139405D01*
X97626843Y-163163694D01*
X97528569Y-163173503D01*
X97189583Y-163247414D01*
X97186156Y-163248587D01*
X97186150Y-163248589D01*
X97107296Y-163275587D01*
X96861339Y-163359797D01*
X96548188Y-163509163D01*
X96254279Y-163693532D01*
X96251443Y-163695804D01*
X96251436Y-163695809D01*
X96007384Y-163891332D01*
X95983509Y-163910459D01*
X95739466Y-164157071D01*
X95737225Y-164159929D01*
X95680732Y-164231978D01*
X95525386Y-164430098D01*
X95523493Y-164433187D01*
X95523491Y-164433190D01*
X95477233Y-164508676D01*
X95344105Y-164725921D01*
X95342580Y-164729206D01*
X95342578Y-164729210D01*
X95303505Y-164813386D01*
X95198027Y-165040620D01*
X95089087Y-165370023D01*
X95018730Y-165709764D01*
X94987888Y-166055341D01*
X94987983Y-166058971D01*
X94987983Y-166058972D01*
X94990367Y-166150000D01*
X94996970Y-166402171D01*
X95045856Y-166745660D01*
X95133897Y-167081253D01*
X95259927Y-167404503D01*
X95261624Y-167407708D01*
X95395113Y-167659825D01*
X95422275Y-167711126D01*
X95424325Y-167714109D01*
X95424327Y-167714112D01*
X95616733Y-167994064D01*
X95616739Y-167994071D01*
X95618790Y-167997056D01*
X95846866Y-168258505D01*
X95849551Y-168260948D01*
X96027431Y-168422806D01*
X96064354Y-168483447D01*
X96062631Y-168554422D01*
X96022809Y-168613199D01*
X95957531Y-168641116D01*
X95942632Y-168642000D01*
X64560517Y-168642000D01*
X64492396Y-168621998D01*
X64445903Y-168568342D01*
X64435799Y-168498068D01*
X64465293Y-168433488D01*
X64473784Y-168424603D01*
X64694180Y-168215454D01*
X64696819Y-168212950D01*
X64919370Y-167946783D01*
X65109853Y-167656799D01*
X65238446Y-167401121D01*
X65264117Y-167350080D01*
X65264120Y-167350072D01*
X65265744Y-167346844D01*
X65384977Y-167021026D01*
X65385822Y-167017504D01*
X65385825Y-167017496D01*
X65465124Y-166687191D01*
X65465125Y-166687187D01*
X65465971Y-166683662D01*
X65500035Y-166402171D01*
X65507316Y-166342004D01*
X65507316Y-166341997D01*
X65507652Y-166339225D01*
X65513599Y-166150000D01*
X65513438Y-166147204D01*
X65493836Y-165807246D01*
X65493835Y-165807241D01*
X65493627Y-165803626D01*
X65433976Y-165461842D01*
X65335437Y-165129180D01*
X65199316Y-164810048D01*
X65149569Y-164722831D01*
X65029208Y-164511816D01*
X65027417Y-164508676D01*
X64822018Y-164229060D01*
X64585842Y-163974904D01*
X64322019Y-163749578D01*
X64034047Y-163556069D01*
X63725741Y-163396940D01*
X63401189Y-163274302D01*
X63397668Y-163273418D01*
X63397663Y-163273416D01*
X63236378Y-163232904D01*
X63064692Y-163189780D01*
X63042476Y-163186855D01*
X62724315Y-163144968D01*
X62724307Y-163144967D01*
X62720711Y-163144494D01*
X62576045Y-163142221D01*
X62377446Y-163139101D01*
X62377442Y-163139101D01*
X62373804Y-163139044D01*
X62370190Y-163139405D01*
X62370184Y-163139405D01*
X62126843Y-163163694D01*
X62028569Y-163173503D01*
X61689583Y-163247414D01*
X61686156Y-163248587D01*
X61686150Y-163248589D01*
X61607296Y-163275587D01*
X61361339Y-163359797D01*
X61048188Y-163509163D01*
X60754279Y-163693532D01*
X60751443Y-163695804D01*
X60751436Y-163695809D01*
X60507384Y-163891332D01*
X60483509Y-163910459D01*
X60239466Y-164157071D01*
X60237225Y-164159929D01*
X60180732Y-164231978D01*
X60025386Y-164430098D01*
X60023493Y-164433187D01*
X60023491Y-164433190D01*
X59977233Y-164508676D01*
X59844105Y-164725921D01*
X59842580Y-164729206D01*
X59842578Y-164729210D01*
X59803505Y-164813386D01*
X59698027Y-165040620D01*
X59589087Y-165370023D01*
X59518730Y-165709764D01*
X59487888Y-166055341D01*
X59487983Y-166058971D01*
X59487983Y-166058972D01*
X59490367Y-166150000D01*
X59496970Y-166402171D01*
X59545856Y-166745660D01*
X59633897Y-167081253D01*
X59759927Y-167404503D01*
X59761624Y-167407708D01*
X59895113Y-167659825D01*
X59922275Y-167711126D01*
X59924325Y-167714109D01*
X59924327Y-167714112D01*
X60116733Y-167994064D01*
X60116739Y-167994071D01*
X60118790Y-167997056D01*
X60346866Y-168258505D01*
X60349551Y-168260948D01*
X60527431Y-168422806D01*
X60564354Y-168483447D01*
X60562631Y-168554422D01*
X60522809Y-168613199D01*
X60457531Y-168641116D01*
X60442632Y-168642000D01*
X50634000Y-168642000D01*
X50565879Y-168621998D01*
X50519386Y-168568342D01*
X50508000Y-168516000D01*
X50508000Y-157107655D01*
X52239858Y-157107655D01*
X52275104Y-157366638D01*
X52276412Y-157371124D01*
X52276412Y-157371126D01*
X52296098Y-157438664D01*
X52348243Y-157617567D01*
X52457668Y-157854928D01*
X52460231Y-157858837D01*
X52598410Y-158069596D01*
X52598414Y-158069601D01*
X52600976Y-158073509D01*
X52775018Y-158268506D01*
X52975970Y-158435637D01*
X52979973Y-158438066D01*
X53195422Y-158568804D01*
X53195426Y-158568806D01*
X53199419Y-158571229D01*
X53440455Y-158672303D01*
X53693783Y-158736641D01*
X53698434Y-158737109D01*
X53698438Y-158737110D01*
X53891308Y-158756531D01*
X53910867Y-158758500D01*
X54066354Y-158758500D01*
X54068679Y-158758327D01*
X54068685Y-158758327D01*
X54256000Y-158744407D01*
X54256004Y-158744406D01*
X54260652Y-158744061D01*
X54265200Y-158743032D01*
X54265206Y-158743031D01*
X54451601Y-158700853D01*
X54515577Y-158686377D01*
X54551769Y-158672303D01*
X54754824Y-158593340D01*
X54754827Y-158593339D01*
X54759177Y-158591647D01*
X54986098Y-158461951D01*
X55191357Y-158300138D01*
X55370443Y-158109763D01*
X55519424Y-157895009D01*
X55635025Y-157660593D01*
X55714707Y-157411665D01*
X55756721Y-157153693D01*
X55757324Y-157107655D01*
X105239858Y-157107655D01*
X105275104Y-157366638D01*
X105276412Y-157371124D01*
X105276412Y-157371126D01*
X105296098Y-157438664D01*
X105348243Y-157617567D01*
X105457668Y-157854928D01*
X105460231Y-157858837D01*
X105598410Y-158069596D01*
X105598414Y-158069601D01*
X105600976Y-158073509D01*
X105775018Y-158268506D01*
X105975970Y-158435637D01*
X105979973Y-158438066D01*
X106195422Y-158568804D01*
X106195426Y-158568806D01*
X106199419Y-158571229D01*
X106440455Y-158672303D01*
X106693783Y-158736641D01*
X106698434Y-158737109D01*
X106698438Y-158737110D01*
X106891308Y-158756531D01*
X106910867Y-158758500D01*
X107066354Y-158758500D01*
X107068679Y-158758327D01*
X107068685Y-158758327D01*
X107256000Y-158744407D01*
X107256004Y-158744406D01*
X107260652Y-158744061D01*
X107265200Y-158743032D01*
X107265206Y-158743031D01*
X107451601Y-158700853D01*
X107515577Y-158686377D01*
X107551769Y-158672303D01*
X107754824Y-158593340D01*
X107754827Y-158593339D01*
X107759177Y-158591647D01*
X107986098Y-158461951D01*
X108191357Y-158300138D01*
X108370443Y-158109763D01*
X108519424Y-157895009D01*
X108635025Y-157660593D01*
X108714707Y-157411665D01*
X108756721Y-157153693D01*
X108760142Y-156892345D01*
X108724896Y-156633362D01*
X108710473Y-156583877D01*
X108653068Y-156386932D01*
X108651757Y-156382433D01*
X108542332Y-156145072D01*
X108509519Y-156095024D01*
X108401590Y-155930404D01*
X108401586Y-155930399D01*
X108399024Y-155926491D01*
X108224982Y-155731494D01*
X108024030Y-155564363D01*
X107976844Y-155535730D01*
X107804578Y-155431196D01*
X107804574Y-155431194D01*
X107800581Y-155428771D01*
X107559545Y-155327697D01*
X107306217Y-155263359D01*
X107301566Y-155262891D01*
X107301562Y-155262890D01*
X107092271Y-155241816D01*
X107089133Y-155241500D01*
X106933646Y-155241500D01*
X106931321Y-155241673D01*
X106931315Y-155241673D01*
X106744000Y-155255593D01*
X106743996Y-155255594D01*
X106739348Y-155255939D01*
X106734800Y-155256968D01*
X106734794Y-155256969D01*
X106548399Y-155299147D01*
X106484423Y-155313623D01*
X106480071Y-155315315D01*
X106480069Y-155315316D01*
X106245176Y-155406660D01*
X106245173Y-155406661D01*
X106240823Y-155408353D01*
X106013902Y-155538049D01*
X105808643Y-155699862D01*
X105629557Y-155890237D01*
X105480576Y-156104991D01*
X105364975Y-156339407D01*
X105285293Y-156588335D01*
X105243279Y-156846307D01*
X105239858Y-157107655D01*
X55757324Y-157107655D01*
X55760142Y-156892345D01*
X55724896Y-156633362D01*
X55710473Y-156583877D01*
X55653068Y-156386932D01*
X55651757Y-156382433D01*
X55542332Y-156145072D01*
X55509519Y-156095024D01*
X55401590Y-155930404D01*
X55401586Y-155930399D01*
X55399024Y-155926491D01*
X55224982Y-155731494D01*
X55024030Y-155564363D01*
X54976844Y-155535730D01*
X54804578Y-155431196D01*
X54804574Y-155431194D01*
X54800581Y-155428771D01*
X54559545Y-155327697D01*
X54306217Y-155263359D01*
X54301566Y-155262891D01*
X54301562Y-155262890D01*
X54092271Y-155241816D01*
X54089133Y-155241500D01*
X53933646Y-155241500D01*
X53931321Y-155241673D01*
X53931315Y-155241673D01*
X53744000Y-155255593D01*
X53743996Y-155255594D01*
X53739348Y-155255939D01*
X53734800Y-155256968D01*
X53734794Y-155256969D01*
X53548399Y-155299147D01*
X53484423Y-155313623D01*
X53480071Y-155315315D01*
X53480069Y-155315316D01*
X53245176Y-155406660D01*
X53245173Y-155406661D01*
X53240823Y-155408353D01*
X53013902Y-155538049D01*
X52808643Y-155699862D01*
X52629557Y-155890237D01*
X52480576Y-156104991D01*
X52364975Y-156339407D01*
X52285293Y-156588335D01*
X52243279Y-156846307D01*
X52239858Y-157107655D01*
X50508000Y-157107655D01*
X50508000Y-148000000D01*
X51886439Y-148000000D01*
X51906660Y-148308507D01*
X51966975Y-148611735D01*
X51968300Y-148615639D01*
X51968301Y-148615642D01*
X52003668Y-148719830D01*
X52066354Y-148904496D01*
X52068177Y-148908192D01*
X52068180Y-148908200D01*
X52172485Y-149119708D01*
X52203096Y-149181780D01*
X52205390Y-149185213D01*
X52205391Y-149185215D01*
X52371273Y-149433475D01*
X52374861Y-149438845D01*
X52377575Y-149441939D01*
X52377579Y-149441945D01*
X52543312Y-149630926D01*
X52578710Y-149671290D01*
X52581799Y-149673999D01*
X52808055Y-149872421D01*
X52808061Y-149872425D01*
X52811155Y-149875139D01*
X52814581Y-149877428D01*
X52814586Y-149877432D01*
X53039982Y-150028036D01*
X53068220Y-150046904D01*
X53071923Y-150048730D01*
X53341800Y-150181820D01*
X53341808Y-150181823D01*
X53345504Y-150183646D01*
X53349419Y-150184975D01*
X53634358Y-150281699D01*
X53634361Y-150281700D01*
X53638265Y-150283025D01*
X53864961Y-150328117D01*
X53937450Y-150342536D01*
X53937453Y-150342536D01*
X53941493Y-150343340D01*
X53945604Y-150343609D01*
X53945608Y-150343610D01*
X54170737Y-150358366D01*
X54170746Y-150358366D01*
X54172786Y-150358500D01*
X54327214Y-150358500D01*
X54329254Y-150358366D01*
X54329263Y-150358366D01*
X54554392Y-150343610D01*
X54554396Y-150343609D01*
X54558507Y-150343340D01*
X54562547Y-150342536D01*
X54562550Y-150342536D01*
X54635039Y-150328117D01*
X54861735Y-150283025D01*
X54865639Y-150281700D01*
X54865642Y-150281699D01*
X55150581Y-150184975D01*
X55154496Y-150183646D01*
X55158192Y-150181823D01*
X55158200Y-150181820D01*
X55428077Y-150048730D01*
X55431780Y-150046904D01*
X55460018Y-150028036D01*
X55685414Y-149877432D01*
X55685419Y-149877428D01*
X55688845Y-149875139D01*
X55691939Y-149872425D01*
X55691945Y-149872421D01*
X55918201Y-149673999D01*
X55921290Y-149671290D01*
X55956688Y-149630926D01*
X56122421Y-149441945D01*
X56122425Y-149441939D01*
X56125139Y-149438845D01*
X56128728Y-149433475D01*
X56294610Y-149185214D01*
X56296904Y-149181781D01*
X56433646Y-148904496D01*
X56496332Y-148719830D01*
X56531699Y-148615642D01*
X56531700Y-148615639D01*
X56533025Y-148611735D01*
X56593340Y-148308507D01*
X56613561Y-148000000D01*
X61756548Y-148000000D01*
X61776343Y-148377709D01*
X61776856Y-148380949D01*
X61776857Y-148380957D01*
X61804082Y-148552842D01*
X61835511Y-148751279D01*
X61933403Y-149116618D01*
X62068947Y-149469723D01*
X62070445Y-149472663D01*
X62236313Y-149798196D01*
X62240659Y-149806726D01*
X62446656Y-150123934D01*
X62684682Y-150417871D01*
X62952129Y-150685318D01*
X63246066Y-150923344D01*
X63563274Y-151129341D01*
X63566208Y-151130836D01*
X63566215Y-151130840D01*
X63897337Y-151299555D01*
X63900277Y-151301053D01*
X64253382Y-151436597D01*
X64618721Y-151534489D01*
X64817158Y-151565918D01*
X64989043Y-151593143D01*
X64989051Y-151593144D01*
X64992291Y-151593657D01*
X65275511Y-151608500D01*
X65464489Y-151608500D01*
X65747709Y-151593657D01*
X65750949Y-151593144D01*
X65750957Y-151593143D01*
X65922842Y-151565918D01*
X66121279Y-151534489D01*
X66486618Y-151436597D01*
X66839723Y-151301053D01*
X66842663Y-151299555D01*
X67173785Y-151130840D01*
X67173792Y-151130836D01*
X67176726Y-151129341D01*
X67493934Y-150923344D01*
X67787871Y-150685318D01*
X68055318Y-150417871D01*
X68293344Y-150123934D01*
X68499341Y-149806726D01*
X68503688Y-149798196D01*
X68669555Y-149472663D01*
X68671053Y-149469723D01*
X68806597Y-149116618D01*
X68904489Y-148751279D01*
X68935918Y-148552842D01*
X68963143Y-148380957D01*
X68963144Y-148380949D01*
X68963657Y-148377709D01*
X68976497Y-148132703D01*
X71160743Y-148132703D01*
X71198268Y-148417734D01*
X71274129Y-148695036D01*
X71386923Y-148959476D01*
X71398693Y-148979142D01*
X71480971Y-149116618D01*
X71534561Y-149206161D01*
X71714313Y-149430528D01*
X71922851Y-149628423D01*
X72156317Y-149796186D01*
X72160112Y-149798195D01*
X72160113Y-149798196D01*
X72181453Y-149809495D01*
X72410392Y-149930712D01*
X72680373Y-150029511D01*
X72961264Y-150090755D01*
X72989841Y-150093004D01*
X73184282Y-150108307D01*
X73184291Y-150108307D01*
X73186739Y-150108500D01*
X73342271Y-150108500D01*
X73344407Y-150108354D01*
X73344418Y-150108354D01*
X73552548Y-150094165D01*
X73552554Y-150094164D01*
X73556825Y-150093873D01*
X73561020Y-150093004D01*
X73561022Y-150093004D01*
X73697584Y-150064723D01*
X73838342Y-150035574D01*
X74109343Y-149939607D01*
X74364812Y-149807750D01*
X74368313Y-149805289D01*
X74368317Y-149805287D01*
X74563370Y-149668201D01*
X74600023Y-149642441D01*
X74782726Y-149472663D01*
X74807479Y-149449661D01*
X74807481Y-149449658D01*
X74810622Y-149446740D01*
X74992713Y-149224268D01*
X75142927Y-148979142D01*
X75258483Y-148715898D01*
X75337244Y-148439406D01*
X75377751Y-148154784D01*
X75377845Y-148136951D01*
X75378562Y-148000000D01*
X93256548Y-148000000D01*
X93276343Y-148377709D01*
X93276856Y-148380949D01*
X93276857Y-148380957D01*
X93304082Y-148552842D01*
X93335511Y-148751279D01*
X93433403Y-149116618D01*
X93568947Y-149469723D01*
X93570445Y-149472663D01*
X93736313Y-149798196D01*
X93740659Y-149806726D01*
X93946656Y-150123934D01*
X94184682Y-150417871D01*
X94452129Y-150685318D01*
X94746066Y-150923344D01*
X95063274Y-151129341D01*
X95066208Y-151130836D01*
X95066215Y-151130840D01*
X95397337Y-151299555D01*
X95400277Y-151301053D01*
X95753382Y-151436597D01*
X96118721Y-151534489D01*
X96317158Y-151565918D01*
X96489043Y-151593143D01*
X96489051Y-151593144D01*
X96492291Y-151593657D01*
X96775511Y-151608500D01*
X96964489Y-151608500D01*
X97247709Y-151593657D01*
X97250949Y-151593144D01*
X97250957Y-151593143D01*
X97422842Y-151565918D01*
X97621279Y-151534489D01*
X97986618Y-151436597D01*
X98339723Y-151301053D01*
X98342663Y-151299555D01*
X98673785Y-151130840D01*
X98673792Y-151130836D01*
X98676726Y-151129341D01*
X98993934Y-150923344D01*
X99287871Y-150685318D01*
X99555318Y-150417871D01*
X99793344Y-150123934D01*
X99999341Y-149806726D01*
X100003688Y-149798196D01*
X100169555Y-149472663D01*
X100171053Y-149469723D01*
X100306597Y-149116618D01*
X100404489Y-148751279D01*
X100435918Y-148552842D01*
X100463143Y-148380957D01*
X100463144Y-148380949D01*
X100463657Y-148377709D01*
X100483452Y-148000000D01*
X103886439Y-148000000D01*
X103906660Y-148308507D01*
X103966975Y-148611735D01*
X103968300Y-148615639D01*
X103968301Y-148615642D01*
X104003668Y-148719830D01*
X104066354Y-148904496D01*
X104068177Y-148908192D01*
X104068180Y-148908200D01*
X104172485Y-149119708D01*
X104203096Y-149181780D01*
X104205390Y-149185213D01*
X104205391Y-149185215D01*
X104371273Y-149433475D01*
X104374861Y-149438845D01*
X104377575Y-149441939D01*
X104377579Y-149441945D01*
X104543312Y-149630926D01*
X104578710Y-149671290D01*
X104581799Y-149673999D01*
X104808055Y-149872421D01*
X104808061Y-149872425D01*
X104811155Y-149875139D01*
X104814581Y-149877428D01*
X104814586Y-149877432D01*
X105039982Y-150028036D01*
X105068220Y-150046904D01*
X105071923Y-150048730D01*
X105341800Y-150181820D01*
X105341808Y-150181823D01*
X105345504Y-150183646D01*
X105349419Y-150184975D01*
X105634358Y-150281699D01*
X105634361Y-150281700D01*
X105638265Y-150283025D01*
X105864961Y-150328117D01*
X105937450Y-150342536D01*
X105937453Y-150342536D01*
X105941493Y-150343340D01*
X105945604Y-150343609D01*
X105945608Y-150343610D01*
X106170737Y-150358366D01*
X106170746Y-150358366D01*
X106172786Y-150358500D01*
X106327214Y-150358500D01*
X106329254Y-150358366D01*
X106329263Y-150358366D01*
X106554392Y-150343610D01*
X106554396Y-150343609D01*
X106558507Y-150343340D01*
X106562547Y-150342536D01*
X106562550Y-150342536D01*
X106635039Y-150328117D01*
X106861735Y-150283025D01*
X106865639Y-150281700D01*
X106865642Y-150281699D01*
X107150581Y-150184975D01*
X107154496Y-150183646D01*
X107158192Y-150181823D01*
X107158200Y-150181820D01*
X107428077Y-150048730D01*
X107431780Y-150046904D01*
X107460018Y-150028036D01*
X107685414Y-149877432D01*
X107685419Y-149877428D01*
X107688845Y-149875139D01*
X107691939Y-149872425D01*
X107691945Y-149872421D01*
X107918201Y-149673999D01*
X107921290Y-149671290D01*
X107956688Y-149630926D01*
X108122421Y-149441945D01*
X108122425Y-149441939D01*
X108125139Y-149438845D01*
X108128728Y-149433475D01*
X108294610Y-149185214D01*
X108296904Y-149181781D01*
X108433646Y-148904496D01*
X108496332Y-148719830D01*
X108531699Y-148615642D01*
X108531700Y-148615639D01*
X108533025Y-148611735D01*
X108593340Y-148308507D01*
X108613561Y-148000000D01*
X108593340Y-147691493D01*
X108533025Y-147388265D01*
X108497667Y-147284102D01*
X108434975Y-147099419D01*
X108433646Y-147095504D01*
X108431822Y-147091806D01*
X108431820Y-147091800D01*
X108298730Y-146821923D01*
X108296904Y-146818220D01*
X108294610Y-146814787D01*
X108294609Y-146814785D01*
X108127432Y-146564586D01*
X108127428Y-146564581D01*
X108125139Y-146561155D01*
X108122425Y-146558061D01*
X108122421Y-146558055D01*
X107923999Y-146331799D01*
X107921290Y-146328710D01*
X107917599Y-146325473D01*
X107691945Y-146127579D01*
X107691939Y-146127575D01*
X107688845Y-146124861D01*
X107685419Y-146122572D01*
X107685414Y-146122568D01*
X107435215Y-145955391D01*
X107435213Y-145955390D01*
X107431780Y-145953096D01*
X107343393Y-145909508D01*
X107158200Y-145818180D01*
X107158192Y-145818177D01*
X107154496Y-145816354D01*
X107150581Y-145815025D01*
X106865642Y-145718301D01*
X106865639Y-145718300D01*
X106861735Y-145716975D01*
X106635039Y-145671883D01*
X106562550Y-145657464D01*
X106562547Y-145657464D01*
X106558507Y-145656660D01*
X106554396Y-145656391D01*
X106554392Y-145656390D01*
X106329263Y-145641634D01*
X106329254Y-145641634D01*
X106327214Y-145641500D01*
X106172786Y-145641500D01*
X106170746Y-145641634D01*
X106170737Y-145641634D01*
X105945608Y-145656390D01*
X105945604Y-145656391D01*
X105941493Y-145656660D01*
X105937453Y-145657464D01*
X105937450Y-145657464D01*
X105864961Y-145671883D01*
X105638265Y-145716975D01*
X105634361Y-145718300D01*
X105634358Y-145718301D01*
X105349419Y-145815025D01*
X105345504Y-145816354D01*
X105341808Y-145818177D01*
X105341800Y-145818180D01*
X105156607Y-145909508D01*
X105068220Y-145953096D01*
X105064787Y-145955390D01*
X105064785Y-145955391D01*
X104814586Y-146122568D01*
X104814581Y-146122572D01*
X104811155Y-146124861D01*
X104808061Y-146127575D01*
X104808055Y-146127579D01*
X104582401Y-146325473D01*
X104578710Y-146328710D01*
X104576001Y-146331799D01*
X104377579Y-146558055D01*
X104377575Y-146558061D01*
X104374861Y-146561155D01*
X104372572Y-146564581D01*
X104372568Y-146564586D01*
X104263354Y-146728036D01*
X104203096Y-146818219D01*
X104066354Y-147095504D01*
X104065029Y-147099409D01*
X104065028Y-147099410D01*
X104002334Y-147284102D01*
X103966975Y-147388265D01*
X103906660Y-147691493D01*
X103886439Y-148000000D01*
X100483452Y-148000000D01*
X100463657Y-147622291D01*
X100453232Y-147556466D01*
X100425972Y-147384358D01*
X100404489Y-147248721D01*
X100306597Y-146883382D01*
X100277779Y-146808307D01*
X100187381Y-146572814D01*
X100171053Y-146530277D01*
X100075346Y-146342441D01*
X100000840Y-146196215D01*
X100000836Y-146196208D01*
X99999341Y-146193274D01*
X99971019Y-146149661D01*
X99795146Y-145878841D01*
X99793344Y-145876066D01*
X99555318Y-145582129D01*
X99287871Y-145314682D01*
X98993934Y-145076656D01*
X98676726Y-144870659D01*
X98673792Y-144869164D01*
X98673785Y-144869160D01*
X98342663Y-144700445D01*
X98339723Y-144698947D01*
X98007928Y-144571583D01*
X97989708Y-144564589D01*
X97989706Y-144564588D01*
X97986618Y-144563403D01*
X97621279Y-144465511D01*
X97422842Y-144434082D01*
X97250957Y-144406857D01*
X97250949Y-144406856D01*
X97247709Y-144406343D01*
X96964489Y-144391500D01*
X96775511Y-144391500D01*
X96492291Y-144406343D01*
X96489051Y-144406856D01*
X96489043Y-144406857D01*
X96317158Y-144434082D01*
X96118721Y-144465511D01*
X95753382Y-144563403D01*
X95750294Y-144564588D01*
X95750292Y-144564589D01*
X95732072Y-144571583D01*
X95400277Y-144698947D01*
X95397337Y-144700445D01*
X95066215Y-144869160D01*
X95066208Y-144869164D01*
X95063274Y-144870659D01*
X94746066Y-145076656D01*
X94452129Y-145314682D01*
X94184682Y-145582129D01*
X93946656Y-145876066D01*
X93944854Y-145878841D01*
X93768982Y-146149661D01*
X93740659Y-146193274D01*
X93739164Y-146196208D01*
X93739160Y-146196215D01*
X93664654Y-146342441D01*
X93568947Y-146530277D01*
X93552619Y-146572814D01*
X93462222Y-146808307D01*
X93433403Y-146883382D01*
X93335511Y-147248721D01*
X93314028Y-147384358D01*
X93286769Y-147556466D01*
X93276343Y-147622291D01*
X93256548Y-148000000D01*
X75378562Y-148000000D01*
X75379235Y-147871583D01*
X75379235Y-147871576D01*
X75379257Y-147867297D01*
X75341732Y-147582266D01*
X75265871Y-147304964D01*
X75153077Y-147040524D01*
X75060940Y-146886574D01*
X75007643Y-146797521D01*
X75007640Y-146797517D01*
X75005439Y-146793839D01*
X74825687Y-146569472D01*
X74617149Y-146371577D01*
X74383683Y-146203814D01*
X74363777Y-146193274D01*
X74275889Y-146146740D01*
X74129608Y-146069288D01*
X73859627Y-145970489D01*
X73578736Y-145909245D01*
X73547685Y-145906801D01*
X73355718Y-145891693D01*
X73355709Y-145891693D01*
X73353261Y-145891500D01*
X73197729Y-145891500D01*
X73195593Y-145891646D01*
X73195582Y-145891646D01*
X72987452Y-145905835D01*
X72987446Y-145905836D01*
X72983175Y-145906127D01*
X72978980Y-145906996D01*
X72978978Y-145906996D01*
X72913219Y-145920614D01*
X72701658Y-145964426D01*
X72430657Y-146060393D01*
X72426848Y-146062359D01*
X72294773Y-146130528D01*
X72175188Y-146192250D01*
X72171687Y-146194711D01*
X72171683Y-146194713D01*
X72169546Y-146196215D01*
X71939977Y-146357559D01*
X71924892Y-146371577D01*
X71750791Y-146533362D01*
X71729378Y-146553260D01*
X71547287Y-146775732D01*
X71397073Y-147020858D01*
X71281517Y-147284102D01*
X71202756Y-147560594D01*
X71162249Y-147845216D01*
X71162227Y-147849505D01*
X71162226Y-147849512D01*
X71160765Y-148128417D01*
X71160743Y-148132703D01*
X68976497Y-148132703D01*
X68983452Y-148000000D01*
X68963657Y-147622291D01*
X68953232Y-147556466D01*
X68925972Y-147384358D01*
X68904489Y-147248721D01*
X68806597Y-146883382D01*
X68777779Y-146808307D01*
X68687381Y-146572814D01*
X68671053Y-146530277D01*
X68575346Y-146342441D01*
X68500840Y-146196215D01*
X68500836Y-146196208D01*
X68499341Y-146193274D01*
X68471019Y-146149661D01*
X68295146Y-145878841D01*
X68293344Y-145876066D01*
X68055318Y-145582129D01*
X67787871Y-145314682D01*
X67493934Y-145076656D01*
X67176726Y-144870659D01*
X67173792Y-144869164D01*
X67173785Y-144869160D01*
X67102234Y-144832703D01*
X80760743Y-144832703D01*
X80761302Y-144836947D01*
X80761302Y-144836951D01*
X80765740Y-144870659D01*
X80798268Y-145117734D01*
X80874129Y-145395036D01*
X80875813Y-145398984D01*
X80979313Y-145641634D01*
X80986923Y-145659476D01*
X81022129Y-145718301D01*
X81125787Y-145891500D01*
X81134561Y-145906161D01*
X81314313Y-146130528D01*
X81522851Y-146328423D01*
X81756317Y-146496186D01*
X81760112Y-146498195D01*
X81760113Y-146498196D01*
X81781869Y-146509715D01*
X82010392Y-146630712D01*
X82280373Y-146729511D01*
X82561264Y-146790755D01*
X82589841Y-146793004D01*
X82784282Y-146808307D01*
X82784291Y-146808307D01*
X82786739Y-146808500D01*
X82942271Y-146808500D01*
X82944407Y-146808354D01*
X82944418Y-146808354D01*
X83152548Y-146794165D01*
X83152554Y-146794164D01*
X83156825Y-146793873D01*
X83161020Y-146793004D01*
X83161022Y-146793004D01*
X83297583Y-146764724D01*
X83438342Y-146735574D01*
X83709343Y-146639607D01*
X83838752Y-146572814D01*
X83961005Y-146509715D01*
X83961006Y-146509715D01*
X83964812Y-146507750D01*
X83968313Y-146505289D01*
X83968317Y-146505287D01*
X84154369Y-146374527D01*
X84200023Y-146342441D01*
X84278403Y-146269606D01*
X84407479Y-146149661D01*
X84407481Y-146149658D01*
X84410622Y-146146740D01*
X84592713Y-145924268D01*
X84742927Y-145679142D01*
X84752915Y-145656390D01*
X84856757Y-145419830D01*
X84858483Y-145415898D01*
X84886648Y-145317026D01*
X84936068Y-145143534D01*
X84937244Y-145139406D01*
X84977751Y-144854784D01*
X84977845Y-144836951D01*
X84979235Y-144571583D01*
X84979235Y-144571576D01*
X84979257Y-144567297D01*
X84941732Y-144282266D01*
X84865871Y-144004964D01*
X84753077Y-143740524D01*
X84605439Y-143493839D01*
X84425687Y-143269472D01*
X84217149Y-143071577D01*
X83983683Y-142903814D01*
X83961843Y-142892250D01*
X83938654Y-142879972D01*
X83729608Y-142769288D01*
X83459627Y-142670489D01*
X83178736Y-142609245D01*
X83147685Y-142606801D01*
X82955718Y-142591693D01*
X82955709Y-142591693D01*
X82953261Y-142591500D01*
X82797729Y-142591500D01*
X82795593Y-142591646D01*
X82795582Y-142591646D01*
X82587452Y-142605835D01*
X82587446Y-142605836D01*
X82583175Y-142606127D01*
X82578980Y-142606996D01*
X82578978Y-142606996D01*
X82442417Y-142635276D01*
X82301658Y-142664426D01*
X82030657Y-142760393D01*
X81775188Y-142892250D01*
X81771687Y-142894711D01*
X81771683Y-142894713D01*
X81761594Y-142901804D01*
X81539977Y-143057559D01*
X81329378Y-143253260D01*
X81147287Y-143475732D01*
X80997073Y-143720858D01*
X80881517Y-143984102D01*
X80802756Y-144260594D01*
X80762249Y-144545216D01*
X80762227Y-144549505D01*
X80762226Y-144549512D01*
X80760765Y-144828417D01*
X80760743Y-144832703D01*
X67102234Y-144832703D01*
X66842663Y-144700445D01*
X66839723Y-144698947D01*
X66507928Y-144571583D01*
X66489708Y-144564589D01*
X66489706Y-144564588D01*
X66486618Y-144563403D01*
X66121279Y-144465511D01*
X65922842Y-144434082D01*
X65750957Y-144406857D01*
X65750949Y-144406856D01*
X65747709Y-144406343D01*
X65464489Y-144391500D01*
X65275511Y-144391500D01*
X64992291Y-144406343D01*
X64989051Y-144406856D01*
X64989043Y-144406857D01*
X64817158Y-144434082D01*
X64618721Y-144465511D01*
X64253382Y-144563403D01*
X64250294Y-144564588D01*
X64250292Y-144564589D01*
X64232072Y-144571583D01*
X63900277Y-144698947D01*
X63897337Y-144700445D01*
X63566215Y-144869160D01*
X63566208Y-144869164D01*
X63563274Y-144870659D01*
X63246066Y-145076656D01*
X62952129Y-145314682D01*
X62684682Y-145582129D01*
X62446656Y-145876066D01*
X62444854Y-145878841D01*
X62268982Y-146149661D01*
X62240659Y-146193274D01*
X62239164Y-146196208D01*
X62239160Y-146196215D01*
X62164654Y-146342441D01*
X62068947Y-146530277D01*
X62052619Y-146572814D01*
X61962222Y-146808307D01*
X61933403Y-146883382D01*
X61835511Y-147248721D01*
X61814028Y-147384358D01*
X61786769Y-147556466D01*
X61776343Y-147622291D01*
X61756548Y-148000000D01*
X56613561Y-148000000D01*
X56593340Y-147691493D01*
X56533025Y-147388265D01*
X56497667Y-147284102D01*
X56434975Y-147099419D01*
X56433646Y-147095504D01*
X56431822Y-147091806D01*
X56431820Y-147091800D01*
X56298730Y-146821923D01*
X56296904Y-146818220D01*
X56294610Y-146814787D01*
X56294609Y-146814785D01*
X56127432Y-146564586D01*
X56127428Y-146564581D01*
X56125139Y-146561155D01*
X56122425Y-146558061D01*
X56122421Y-146558055D01*
X55923999Y-146331799D01*
X55921290Y-146328710D01*
X55917599Y-146325473D01*
X55691945Y-146127579D01*
X55691939Y-146127575D01*
X55688845Y-146124861D01*
X55685419Y-146122572D01*
X55685414Y-146122568D01*
X55435215Y-145955391D01*
X55435213Y-145955390D01*
X55431780Y-145953096D01*
X55343393Y-145909508D01*
X55158200Y-145818180D01*
X55158192Y-145818177D01*
X55154496Y-145816354D01*
X55150581Y-145815025D01*
X54865642Y-145718301D01*
X54865639Y-145718300D01*
X54861735Y-145716975D01*
X54635039Y-145671883D01*
X54562550Y-145657464D01*
X54562547Y-145657464D01*
X54558507Y-145656660D01*
X54554396Y-145656391D01*
X54554392Y-145656390D01*
X54329263Y-145641634D01*
X54329254Y-145641634D01*
X54327214Y-145641500D01*
X54172786Y-145641500D01*
X54170746Y-145641634D01*
X54170737Y-145641634D01*
X53945608Y-145656390D01*
X53945604Y-145656391D01*
X53941493Y-145656660D01*
X53937453Y-145657464D01*
X53937450Y-145657464D01*
X53864961Y-145671883D01*
X53638265Y-145716975D01*
X53634361Y-145718300D01*
X53634358Y-145718301D01*
X53349419Y-145815025D01*
X53345504Y-145816354D01*
X53341808Y-145818177D01*
X53341800Y-145818180D01*
X53156607Y-145909508D01*
X53068220Y-145953096D01*
X53064787Y-145955390D01*
X53064785Y-145955391D01*
X52814586Y-146122568D01*
X52814581Y-146122572D01*
X52811155Y-146124861D01*
X52808061Y-146127575D01*
X52808055Y-146127579D01*
X52582401Y-146325473D01*
X52578710Y-146328710D01*
X52576001Y-146331799D01*
X52377579Y-146558055D01*
X52377575Y-146558061D01*
X52374861Y-146561155D01*
X52372572Y-146564581D01*
X52372568Y-146564586D01*
X52263354Y-146728036D01*
X52203096Y-146818219D01*
X52066354Y-147095504D01*
X52065029Y-147099409D01*
X52065028Y-147099410D01*
X52002334Y-147284102D01*
X51966975Y-147388265D01*
X51906660Y-147691493D01*
X51886439Y-148000000D01*
X50508000Y-148000000D01*
X50508000Y-136000000D01*
X51886439Y-136000000D01*
X51906660Y-136308507D01*
X51966975Y-136611735D01*
X51968300Y-136615639D01*
X51968301Y-136615642D01*
X52003668Y-136719830D01*
X52066354Y-136904496D01*
X52068177Y-136908192D01*
X52068180Y-136908200D01*
X52172485Y-137119708D01*
X52203096Y-137181780D01*
X52205390Y-137185213D01*
X52205391Y-137185215D01*
X52371273Y-137433475D01*
X52374861Y-137438845D01*
X52377575Y-137441939D01*
X52377579Y-137441945D01*
X52543312Y-137630926D01*
X52578710Y-137671290D01*
X52581799Y-137673999D01*
X52808055Y-137872421D01*
X52808061Y-137872425D01*
X52811155Y-137875139D01*
X52814581Y-137877428D01*
X52814586Y-137877432D01*
X53039982Y-138028036D01*
X53068220Y-138046904D01*
X53071923Y-138048730D01*
X53341800Y-138181820D01*
X53341808Y-138181823D01*
X53345504Y-138183646D01*
X53349419Y-138184975D01*
X53634358Y-138281699D01*
X53634361Y-138281700D01*
X53638265Y-138283025D01*
X53864961Y-138328117D01*
X53937450Y-138342536D01*
X53937453Y-138342536D01*
X53941493Y-138343340D01*
X53945604Y-138343609D01*
X53945608Y-138343610D01*
X54170737Y-138358366D01*
X54170746Y-138358366D01*
X54172786Y-138358500D01*
X54327214Y-138358500D01*
X54329254Y-138358366D01*
X54329263Y-138358366D01*
X54554392Y-138343610D01*
X54554396Y-138343609D01*
X54558507Y-138343340D01*
X54562547Y-138342536D01*
X54562550Y-138342536D01*
X54635039Y-138328117D01*
X54861735Y-138283025D01*
X54865639Y-138281700D01*
X54865642Y-138281699D01*
X55150581Y-138184975D01*
X55154496Y-138183646D01*
X55158192Y-138181823D01*
X55158200Y-138181820D01*
X55428077Y-138048730D01*
X55431780Y-138046904D01*
X55460018Y-138028036D01*
X55685414Y-137877432D01*
X55685419Y-137877428D01*
X55688845Y-137875139D01*
X55691939Y-137872425D01*
X55691945Y-137872421D01*
X55918201Y-137673999D01*
X55921290Y-137671290D01*
X55956688Y-137630926D01*
X56122421Y-137441945D01*
X56122425Y-137441939D01*
X56125139Y-137438845D01*
X56128728Y-137433475D01*
X56294610Y-137185214D01*
X56296904Y-137181781D01*
X56433646Y-136904496D01*
X56496332Y-136719830D01*
X56531699Y-136615642D01*
X56531700Y-136615639D01*
X56533025Y-136611735D01*
X56593340Y-136308507D01*
X56613561Y-136000000D01*
X61756548Y-136000000D01*
X61776343Y-136377709D01*
X61776856Y-136380949D01*
X61776857Y-136380957D01*
X61804082Y-136552842D01*
X61835511Y-136751279D01*
X61933403Y-137116618D01*
X62068947Y-137469723D01*
X62070445Y-137472663D01*
X62236313Y-137798196D01*
X62240659Y-137806726D01*
X62446656Y-138123934D01*
X62684682Y-138417871D01*
X62952129Y-138685318D01*
X63246066Y-138923344D01*
X63563274Y-139129341D01*
X63566208Y-139130836D01*
X63566215Y-139130840D01*
X63897337Y-139299555D01*
X63900277Y-139301053D01*
X64253382Y-139436597D01*
X64618721Y-139534489D01*
X64817158Y-139565918D01*
X64989043Y-139593143D01*
X64989051Y-139593144D01*
X64992291Y-139593657D01*
X65275511Y-139608500D01*
X65464489Y-139608500D01*
X65747709Y-139593657D01*
X65750949Y-139593144D01*
X65750957Y-139593143D01*
X65922842Y-139565918D01*
X66121279Y-139534489D01*
X66486618Y-139436597D01*
X66839723Y-139301053D01*
X66842663Y-139299555D01*
X67173785Y-139130840D01*
X67173792Y-139130836D01*
X67176726Y-139129341D01*
X67493934Y-138923344D01*
X67787871Y-138685318D01*
X68055318Y-138417871D01*
X68293344Y-138123934D01*
X68499341Y-137806726D01*
X68503688Y-137798196D01*
X68669555Y-137472663D01*
X68671053Y-137469723D01*
X68806597Y-137116618D01*
X68904489Y-136751279D01*
X68935918Y-136552842D01*
X68963143Y-136380957D01*
X68963144Y-136380949D01*
X68963657Y-136377709D01*
X68976497Y-136132703D01*
X71160743Y-136132703D01*
X71198268Y-136417734D01*
X71274129Y-136695036D01*
X71386923Y-136959476D01*
X71398693Y-136979142D01*
X71480971Y-137116618D01*
X71534561Y-137206161D01*
X71714313Y-137430528D01*
X71922851Y-137628423D01*
X72156317Y-137796186D01*
X72160112Y-137798195D01*
X72160113Y-137798196D01*
X72181453Y-137809495D01*
X72410392Y-137930712D01*
X72680373Y-138029511D01*
X72961264Y-138090755D01*
X72989841Y-138093004D01*
X73184282Y-138108307D01*
X73184291Y-138108307D01*
X73186739Y-138108500D01*
X73342271Y-138108500D01*
X73344407Y-138108354D01*
X73344418Y-138108354D01*
X73552548Y-138094165D01*
X73552554Y-138094164D01*
X73556825Y-138093873D01*
X73561020Y-138093004D01*
X73561022Y-138093004D01*
X73697584Y-138064723D01*
X73838342Y-138035574D01*
X74109343Y-137939607D01*
X74364812Y-137807750D01*
X74368313Y-137805289D01*
X74368317Y-137805287D01*
X74563370Y-137668201D01*
X74600023Y-137642441D01*
X74782726Y-137472663D01*
X74807479Y-137449661D01*
X74807481Y-137449658D01*
X74810622Y-137446740D01*
X74992713Y-137224268D01*
X75142927Y-136979142D01*
X75258483Y-136715898D01*
X75337244Y-136439406D01*
X75377751Y-136154784D01*
X75377845Y-136136951D01*
X75378562Y-136000000D01*
X79256548Y-136000000D01*
X79276343Y-136377709D01*
X79276856Y-136380949D01*
X79276857Y-136380957D01*
X79304082Y-136552842D01*
X79335511Y-136751279D01*
X79433403Y-137116618D01*
X79568947Y-137469723D01*
X79570445Y-137472663D01*
X79736313Y-137798196D01*
X79740659Y-137806726D01*
X79946656Y-138123934D01*
X80184682Y-138417871D01*
X80452129Y-138685318D01*
X80746066Y-138923344D01*
X81063274Y-139129341D01*
X81066208Y-139130836D01*
X81066215Y-139130840D01*
X81397337Y-139299555D01*
X81400277Y-139301053D01*
X81753382Y-139436597D01*
X82118721Y-139534489D01*
X82317158Y-139565918D01*
X82489043Y-139593143D01*
X82489051Y-139593144D01*
X82492291Y-139593657D01*
X82775511Y-139608500D01*
X82964489Y-139608500D01*
X83247709Y-139593657D01*
X83250949Y-139593144D01*
X83250957Y-139593143D01*
X83422842Y-139565918D01*
X83621279Y-139534489D01*
X83986618Y-139436597D01*
X84339723Y-139301053D01*
X84342663Y-139299555D01*
X84673785Y-139130840D01*
X84673792Y-139130836D01*
X84676726Y-139129341D01*
X84993934Y-138923344D01*
X85287871Y-138685318D01*
X85555318Y-138417871D01*
X85793344Y-138123934D01*
X85999341Y-137806726D01*
X86003688Y-137798196D01*
X86169555Y-137472663D01*
X86171053Y-137469723D01*
X86306597Y-137116618D01*
X86404489Y-136751279D01*
X86435918Y-136552842D01*
X86463143Y-136380957D01*
X86463144Y-136380949D01*
X86463657Y-136377709D01*
X86483452Y-136000000D01*
X93256548Y-136000000D01*
X93276343Y-136377709D01*
X93276856Y-136380949D01*
X93276857Y-136380957D01*
X93304082Y-136552842D01*
X93335511Y-136751279D01*
X93433403Y-137116618D01*
X93568947Y-137469723D01*
X93570445Y-137472663D01*
X93736313Y-137798196D01*
X93740659Y-137806726D01*
X93946656Y-138123934D01*
X94184682Y-138417871D01*
X94452129Y-138685318D01*
X94746066Y-138923344D01*
X95063274Y-139129341D01*
X95066208Y-139130836D01*
X95066215Y-139130840D01*
X95397337Y-139299555D01*
X95400277Y-139301053D01*
X95753382Y-139436597D01*
X96118721Y-139534489D01*
X96317158Y-139565918D01*
X96489043Y-139593143D01*
X96489051Y-139593144D01*
X96492291Y-139593657D01*
X96775511Y-139608500D01*
X96964489Y-139608500D01*
X97247709Y-139593657D01*
X97250949Y-139593144D01*
X97250957Y-139593143D01*
X97422842Y-139565918D01*
X97621279Y-139534489D01*
X97986618Y-139436597D01*
X98339723Y-139301053D01*
X98342663Y-139299555D01*
X98673785Y-139130840D01*
X98673792Y-139130836D01*
X98676726Y-139129341D01*
X98993934Y-138923344D01*
X99287871Y-138685318D01*
X99555318Y-138417871D01*
X99793344Y-138123934D01*
X99999341Y-137806726D01*
X100003688Y-137798196D01*
X100169555Y-137472663D01*
X100171053Y-137469723D01*
X100306597Y-137116618D01*
X100404489Y-136751279D01*
X100435918Y-136552842D01*
X100463143Y-136380957D01*
X100463144Y-136380949D01*
X100463657Y-136377709D01*
X100483452Y-136000000D01*
X103886439Y-136000000D01*
X103906660Y-136308507D01*
X103966975Y-136611735D01*
X103968300Y-136615639D01*
X103968301Y-136615642D01*
X104003668Y-136719830D01*
X104066354Y-136904496D01*
X104068177Y-136908192D01*
X104068180Y-136908200D01*
X104172485Y-137119708D01*
X104203096Y-137181780D01*
X104205390Y-137185213D01*
X104205391Y-137185215D01*
X104371273Y-137433475D01*
X104374861Y-137438845D01*
X104377575Y-137441939D01*
X104377579Y-137441945D01*
X104543312Y-137630926D01*
X104578710Y-137671290D01*
X104581799Y-137673999D01*
X104808055Y-137872421D01*
X104808061Y-137872425D01*
X104811155Y-137875139D01*
X104814581Y-137877428D01*
X104814586Y-137877432D01*
X105039982Y-138028036D01*
X105068220Y-138046904D01*
X105071923Y-138048730D01*
X105341800Y-138181820D01*
X105341808Y-138181823D01*
X105345504Y-138183646D01*
X105349419Y-138184975D01*
X105634358Y-138281699D01*
X105634361Y-138281700D01*
X105638265Y-138283025D01*
X105864961Y-138328117D01*
X105937450Y-138342536D01*
X105937453Y-138342536D01*
X105941493Y-138343340D01*
X105945604Y-138343609D01*
X105945608Y-138343610D01*
X106170737Y-138358366D01*
X106170746Y-138358366D01*
X106172786Y-138358500D01*
X106327214Y-138358500D01*
X106329254Y-138358366D01*
X106329263Y-138358366D01*
X106554392Y-138343610D01*
X106554396Y-138343609D01*
X106558507Y-138343340D01*
X106562547Y-138342536D01*
X106562550Y-138342536D01*
X106635039Y-138328117D01*
X106861735Y-138283025D01*
X106865639Y-138281700D01*
X106865642Y-138281699D01*
X107150581Y-138184975D01*
X107154496Y-138183646D01*
X107158192Y-138181823D01*
X107158200Y-138181820D01*
X107428077Y-138048730D01*
X107431780Y-138046904D01*
X107460018Y-138028036D01*
X107685414Y-137877432D01*
X107685419Y-137877428D01*
X107688845Y-137875139D01*
X107691939Y-137872425D01*
X107691945Y-137872421D01*
X107918201Y-137673999D01*
X107921290Y-137671290D01*
X107956688Y-137630926D01*
X108122421Y-137441945D01*
X108122425Y-137441939D01*
X108125139Y-137438845D01*
X108128728Y-137433475D01*
X108294610Y-137185214D01*
X108296904Y-137181781D01*
X108433646Y-136904496D01*
X108496332Y-136719830D01*
X108531699Y-136615642D01*
X108531700Y-136615639D01*
X108533025Y-136611735D01*
X108593340Y-136308507D01*
X108613561Y-136000000D01*
X108593340Y-135691493D01*
X108533025Y-135388265D01*
X108497667Y-135284102D01*
X108434975Y-135099419D01*
X108433646Y-135095504D01*
X108431822Y-135091806D01*
X108431820Y-135091800D01*
X108298730Y-134821923D01*
X108296904Y-134818220D01*
X108294610Y-134814787D01*
X108294609Y-134814785D01*
X108127432Y-134564586D01*
X108127428Y-134564581D01*
X108125139Y-134561155D01*
X108122425Y-134558061D01*
X108122421Y-134558055D01*
X107923999Y-134331799D01*
X107921290Y-134328710D01*
X107918201Y-134326001D01*
X107691945Y-134127579D01*
X107691939Y-134127575D01*
X107688845Y-134124861D01*
X107685419Y-134122572D01*
X107685414Y-134122568D01*
X107435215Y-133955391D01*
X107435213Y-133955390D01*
X107431780Y-133953096D01*
X107344711Y-133910158D01*
X107158200Y-133818180D01*
X107158192Y-133818177D01*
X107154496Y-133816354D01*
X107150581Y-133815025D01*
X106865642Y-133718301D01*
X106865639Y-133718300D01*
X106861735Y-133716975D01*
X106635039Y-133671883D01*
X106562550Y-133657464D01*
X106562547Y-133657464D01*
X106558507Y-133656660D01*
X106554396Y-133656391D01*
X106554392Y-133656390D01*
X106329263Y-133641634D01*
X106329254Y-133641634D01*
X106327214Y-133641500D01*
X106172786Y-133641500D01*
X106170746Y-133641634D01*
X106170737Y-133641634D01*
X105945608Y-133656390D01*
X105945604Y-133656391D01*
X105941493Y-133656660D01*
X105937453Y-133657464D01*
X105937450Y-133657464D01*
X105864961Y-133671883D01*
X105638265Y-133716975D01*
X105634361Y-133718300D01*
X105634358Y-133718301D01*
X105349419Y-133815025D01*
X105345504Y-133816354D01*
X105341808Y-133818177D01*
X105341800Y-133818180D01*
X105155289Y-133910158D01*
X105068220Y-133953096D01*
X105064787Y-133955390D01*
X105064785Y-133955391D01*
X104814586Y-134122568D01*
X104814581Y-134122572D01*
X104811155Y-134124861D01*
X104808061Y-134127575D01*
X104808055Y-134127579D01*
X104581799Y-134326001D01*
X104578710Y-134328710D01*
X104576001Y-134331799D01*
X104377579Y-134558055D01*
X104377575Y-134558061D01*
X104374861Y-134561155D01*
X104372572Y-134564581D01*
X104372568Y-134564586D01*
X104243121Y-134758318D01*
X104203096Y-134818219D01*
X104066354Y-135095504D01*
X104065029Y-135099409D01*
X104065028Y-135099410D01*
X104002334Y-135284102D01*
X103966975Y-135388265D01*
X103906660Y-135691493D01*
X103886439Y-136000000D01*
X100483452Y-136000000D01*
X100463657Y-135622291D01*
X100453232Y-135556466D01*
X100425972Y-135384358D01*
X100404489Y-135248721D01*
X100306597Y-134883382D01*
X100171053Y-134530277D01*
X100069923Y-134331799D01*
X100000840Y-134196215D01*
X100000836Y-134196208D01*
X99999341Y-134193274D01*
X99793344Y-133876066D01*
X99555318Y-133582129D01*
X99287871Y-133314682D01*
X98993934Y-133076656D01*
X98676726Y-132870659D01*
X98673792Y-132869164D01*
X98673785Y-132869160D01*
X98342663Y-132700445D01*
X98339723Y-132698947D01*
X97986618Y-132563403D01*
X97621279Y-132465511D01*
X97422842Y-132434082D01*
X97250957Y-132406857D01*
X97250949Y-132406856D01*
X97247709Y-132406343D01*
X96964489Y-132391500D01*
X96775511Y-132391500D01*
X96492291Y-132406343D01*
X96489051Y-132406856D01*
X96489043Y-132406857D01*
X96317158Y-132434082D01*
X96118721Y-132465511D01*
X95753382Y-132563403D01*
X95400277Y-132698947D01*
X95397337Y-132700445D01*
X95066215Y-132869160D01*
X95066208Y-132869164D01*
X95063274Y-132870659D01*
X94746066Y-133076656D01*
X94452129Y-133314682D01*
X94184682Y-133582129D01*
X93946656Y-133876066D01*
X93740659Y-134193274D01*
X93739164Y-134196208D01*
X93739160Y-134196215D01*
X93670077Y-134331799D01*
X93568947Y-134530277D01*
X93433403Y-134883382D01*
X93335511Y-135248721D01*
X93314028Y-135384358D01*
X93286769Y-135556466D01*
X93276343Y-135622291D01*
X93256548Y-136000000D01*
X86483452Y-136000000D01*
X86463657Y-135622291D01*
X86453232Y-135556466D01*
X86425972Y-135384358D01*
X86404489Y-135248721D01*
X86306597Y-134883382D01*
X86171053Y-134530277D01*
X86069923Y-134331799D01*
X86000840Y-134196215D01*
X86000836Y-134196208D01*
X85999341Y-134193274D01*
X85793344Y-133876066D01*
X85555318Y-133582129D01*
X85287871Y-133314682D01*
X84993934Y-133076656D01*
X84676726Y-132870659D01*
X84673792Y-132869164D01*
X84673785Y-132869160D01*
X84342663Y-132700445D01*
X84339723Y-132698947D01*
X83986618Y-132563403D01*
X83621279Y-132465511D01*
X83422842Y-132434082D01*
X83250957Y-132406857D01*
X83250949Y-132406856D01*
X83247709Y-132406343D01*
X82964489Y-132391500D01*
X82775511Y-132391500D01*
X82492291Y-132406343D01*
X82489051Y-132406856D01*
X82489043Y-132406857D01*
X82317158Y-132434082D01*
X82118721Y-132465511D01*
X81753382Y-132563403D01*
X81400277Y-132698947D01*
X81397337Y-132700445D01*
X81066215Y-132869160D01*
X81066208Y-132869164D01*
X81063274Y-132870659D01*
X80746066Y-133076656D01*
X80452129Y-133314682D01*
X80184682Y-133582129D01*
X79946656Y-133876066D01*
X79740659Y-134193274D01*
X79739164Y-134196208D01*
X79739160Y-134196215D01*
X79670077Y-134331799D01*
X79568947Y-134530277D01*
X79433403Y-134883382D01*
X79335511Y-135248721D01*
X79314028Y-135384358D01*
X79286769Y-135556466D01*
X79276343Y-135622291D01*
X79256548Y-136000000D01*
X75378562Y-136000000D01*
X75379235Y-135871583D01*
X75379235Y-135871576D01*
X75379257Y-135867297D01*
X75341732Y-135582266D01*
X75265871Y-135304964D01*
X75153077Y-135040524D01*
X75060940Y-134886574D01*
X75007643Y-134797521D01*
X75007640Y-134797517D01*
X75005439Y-134793839D01*
X74825687Y-134569472D01*
X74617149Y-134371577D01*
X74383683Y-134203814D01*
X74363777Y-134193274D01*
X74239700Y-134127579D01*
X74129608Y-134069288D01*
X73859627Y-133970489D01*
X73578736Y-133909245D01*
X73547685Y-133906801D01*
X73355718Y-133891693D01*
X73355709Y-133891693D01*
X73353261Y-133891500D01*
X73197729Y-133891500D01*
X73195593Y-133891646D01*
X73195582Y-133891646D01*
X72987452Y-133905835D01*
X72987446Y-133905836D01*
X72983175Y-133906127D01*
X72978980Y-133906996D01*
X72978978Y-133906996D01*
X72842416Y-133935277D01*
X72701658Y-133964426D01*
X72430657Y-134060393D01*
X72175188Y-134192250D01*
X72171687Y-134194711D01*
X72171683Y-134194713D01*
X72169546Y-134196215D01*
X71939977Y-134357559D01*
X71924892Y-134371577D01*
X71750791Y-134533362D01*
X71729378Y-134553260D01*
X71547287Y-134775732D01*
X71397073Y-135020858D01*
X71281517Y-135284102D01*
X71202756Y-135560594D01*
X71162249Y-135845216D01*
X71162227Y-135849505D01*
X71162226Y-135849512D01*
X71160765Y-136128417D01*
X71160743Y-136132703D01*
X68976497Y-136132703D01*
X68983452Y-136000000D01*
X68963657Y-135622291D01*
X68953232Y-135556466D01*
X68925972Y-135384358D01*
X68904489Y-135248721D01*
X68806597Y-134883382D01*
X68671053Y-134530277D01*
X68569923Y-134331799D01*
X68500840Y-134196215D01*
X68500836Y-134196208D01*
X68499341Y-134193274D01*
X68293344Y-133876066D01*
X68055318Y-133582129D01*
X67787871Y-133314682D01*
X67493934Y-133076656D01*
X67176726Y-132870659D01*
X67173792Y-132869164D01*
X67173785Y-132869160D01*
X66842663Y-132700445D01*
X66839723Y-132698947D01*
X66486618Y-132563403D01*
X66121279Y-132465511D01*
X65922842Y-132434082D01*
X65750957Y-132406857D01*
X65750949Y-132406856D01*
X65747709Y-132406343D01*
X65464489Y-132391500D01*
X65275511Y-132391500D01*
X64992291Y-132406343D01*
X64989051Y-132406856D01*
X64989043Y-132406857D01*
X64817158Y-132434082D01*
X64618721Y-132465511D01*
X64253382Y-132563403D01*
X63900277Y-132698947D01*
X63897337Y-132700445D01*
X63566215Y-132869160D01*
X63566208Y-132869164D01*
X63563274Y-132870659D01*
X63246066Y-133076656D01*
X62952129Y-133314682D01*
X62684682Y-133582129D01*
X62446656Y-133876066D01*
X62240659Y-134193274D01*
X62239164Y-134196208D01*
X62239160Y-134196215D01*
X62170077Y-134331799D01*
X62068947Y-134530277D01*
X61933403Y-134883382D01*
X61835511Y-135248721D01*
X61814028Y-135384358D01*
X61786769Y-135556466D01*
X61776343Y-135622291D01*
X61756548Y-136000000D01*
X56613561Y-136000000D01*
X56593340Y-135691493D01*
X56533025Y-135388265D01*
X56497667Y-135284102D01*
X56434975Y-135099419D01*
X56433646Y-135095504D01*
X56431822Y-135091806D01*
X56431820Y-135091800D01*
X56298730Y-134821923D01*
X56296904Y-134818220D01*
X56294610Y-134814787D01*
X56294609Y-134814785D01*
X56127432Y-134564586D01*
X56127428Y-134564581D01*
X56125139Y-134561155D01*
X56122425Y-134558061D01*
X56122421Y-134558055D01*
X55923999Y-134331799D01*
X55921290Y-134328710D01*
X55918201Y-134326001D01*
X55691945Y-134127579D01*
X55691939Y-134127575D01*
X55688845Y-134124861D01*
X55685419Y-134122572D01*
X55685414Y-134122568D01*
X55435215Y-133955391D01*
X55435213Y-133955390D01*
X55431780Y-133953096D01*
X55344711Y-133910158D01*
X55158200Y-133818180D01*
X55158192Y-133818177D01*
X55154496Y-133816354D01*
X55150581Y-133815025D01*
X54865642Y-133718301D01*
X54865639Y-133718300D01*
X54861735Y-133716975D01*
X54635039Y-133671883D01*
X54562550Y-133657464D01*
X54562547Y-133657464D01*
X54558507Y-133656660D01*
X54554396Y-133656391D01*
X54554392Y-133656390D01*
X54329263Y-133641634D01*
X54329254Y-133641634D01*
X54327214Y-133641500D01*
X54172786Y-133641500D01*
X54170746Y-133641634D01*
X54170737Y-133641634D01*
X53945608Y-133656390D01*
X53945604Y-133656391D01*
X53941493Y-133656660D01*
X53937453Y-133657464D01*
X53937450Y-133657464D01*
X53864961Y-133671883D01*
X53638265Y-133716975D01*
X53634361Y-133718300D01*
X53634358Y-133718301D01*
X53349419Y-133815025D01*
X53345504Y-133816354D01*
X53341808Y-133818177D01*
X53341800Y-133818180D01*
X53155289Y-133910158D01*
X53068220Y-133953096D01*
X53064787Y-133955390D01*
X53064785Y-133955391D01*
X52814586Y-134122568D01*
X52814581Y-134122572D01*
X52811155Y-134124861D01*
X52808061Y-134127575D01*
X52808055Y-134127579D01*
X52581799Y-134326001D01*
X52578710Y-134328710D01*
X52576001Y-134331799D01*
X52377579Y-134558055D01*
X52377575Y-134558061D01*
X52374861Y-134561155D01*
X52372572Y-134564581D01*
X52372568Y-134564586D01*
X52243121Y-134758318D01*
X52203096Y-134818219D01*
X52066354Y-135095504D01*
X52065029Y-135099409D01*
X52065028Y-135099410D01*
X52002334Y-135284102D01*
X51966975Y-135388265D01*
X51906660Y-135691493D01*
X51886439Y-136000000D01*
X50508000Y-136000000D01*
X50508000Y-124000000D01*
X51886439Y-124000000D01*
X51906660Y-124308507D01*
X51966975Y-124611735D01*
X51968300Y-124615639D01*
X51968301Y-124615642D01*
X52003668Y-124719830D01*
X52066354Y-124904496D01*
X52068177Y-124908192D01*
X52068180Y-124908200D01*
X52172485Y-125119708D01*
X52203096Y-125181780D01*
X52205390Y-125185213D01*
X52205391Y-125185215D01*
X52371273Y-125433475D01*
X52374861Y-125438845D01*
X52377575Y-125441939D01*
X52377579Y-125441945D01*
X52543312Y-125630926D01*
X52578710Y-125671290D01*
X52581799Y-125673999D01*
X52808055Y-125872421D01*
X52808061Y-125872425D01*
X52811155Y-125875139D01*
X52814581Y-125877428D01*
X52814586Y-125877432D01*
X53039982Y-126028036D01*
X53068220Y-126046904D01*
X53071923Y-126048730D01*
X53341800Y-126181820D01*
X53341808Y-126181823D01*
X53345504Y-126183646D01*
X53349419Y-126184975D01*
X53634358Y-126281699D01*
X53634361Y-126281700D01*
X53638265Y-126283025D01*
X53864961Y-126328117D01*
X53937450Y-126342536D01*
X53937453Y-126342536D01*
X53941493Y-126343340D01*
X53945604Y-126343609D01*
X53945608Y-126343610D01*
X54170737Y-126358366D01*
X54170746Y-126358366D01*
X54172786Y-126358500D01*
X54327214Y-126358500D01*
X54329254Y-126358366D01*
X54329263Y-126358366D01*
X54554392Y-126343610D01*
X54554396Y-126343609D01*
X54558507Y-126343340D01*
X54562547Y-126342536D01*
X54562550Y-126342536D01*
X54635039Y-126328117D01*
X54861735Y-126283025D01*
X54865639Y-126281700D01*
X54865642Y-126281699D01*
X55150581Y-126184975D01*
X55154496Y-126183646D01*
X55158192Y-126181823D01*
X55158200Y-126181820D01*
X55428077Y-126048730D01*
X55431780Y-126046904D01*
X55460018Y-126028036D01*
X55685414Y-125877432D01*
X55685419Y-125877428D01*
X55688845Y-125875139D01*
X55691939Y-125872425D01*
X55691945Y-125872421D01*
X55918201Y-125673999D01*
X55921290Y-125671290D01*
X55956688Y-125630926D01*
X56122421Y-125441945D01*
X56122425Y-125441939D01*
X56125139Y-125438845D01*
X56128728Y-125433475D01*
X56294610Y-125185214D01*
X56296904Y-125181781D01*
X56433646Y-124904496D01*
X56496332Y-124719830D01*
X56531699Y-124615642D01*
X56531700Y-124615639D01*
X56533025Y-124611735D01*
X56593340Y-124308507D01*
X56613561Y-124000000D01*
X61756548Y-124000000D01*
X61776343Y-124377709D01*
X61776856Y-124380949D01*
X61776857Y-124380957D01*
X61804082Y-124552842D01*
X61835511Y-124751279D01*
X61933403Y-125116618D01*
X62068947Y-125469723D01*
X62070445Y-125472663D01*
X62236313Y-125798196D01*
X62240659Y-125806726D01*
X62446656Y-126123934D01*
X62684682Y-126417871D01*
X62952129Y-126685318D01*
X63246066Y-126923344D01*
X63563274Y-127129341D01*
X63566208Y-127130836D01*
X63566215Y-127130840D01*
X63897337Y-127299555D01*
X63900277Y-127301053D01*
X64253382Y-127436597D01*
X64618721Y-127534489D01*
X64817158Y-127565918D01*
X64989043Y-127593143D01*
X64989051Y-127593144D01*
X64992291Y-127593657D01*
X65275511Y-127608500D01*
X65464489Y-127608500D01*
X65747709Y-127593657D01*
X65750949Y-127593144D01*
X65750957Y-127593143D01*
X65922842Y-127565918D01*
X66121279Y-127534489D01*
X66486618Y-127436597D01*
X66839723Y-127301053D01*
X66842663Y-127299555D01*
X67173785Y-127130840D01*
X67173792Y-127130836D01*
X67176726Y-127129341D01*
X67493934Y-126923344D01*
X67787871Y-126685318D01*
X68055318Y-126417871D01*
X68293344Y-126123934D01*
X68499341Y-125806726D01*
X68503688Y-125798196D01*
X68669555Y-125472663D01*
X68671053Y-125469723D01*
X68806597Y-125116618D01*
X68904489Y-124751279D01*
X68935918Y-124552842D01*
X68963143Y-124380957D01*
X68963144Y-124380949D01*
X68963657Y-124377709D01*
X68976497Y-124132703D01*
X71160743Y-124132703D01*
X71198268Y-124417734D01*
X71274129Y-124695036D01*
X71386923Y-124959476D01*
X71398693Y-124979142D01*
X71480971Y-125116618D01*
X71534561Y-125206161D01*
X71714313Y-125430528D01*
X71922851Y-125628423D01*
X72156317Y-125796186D01*
X72160112Y-125798195D01*
X72160113Y-125798196D01*
X72181453Y-125809495D01*
X72410392Y-125930712D01*
X72680373Y-126029511D01*
X72961264Y-126090755D01*
X72989841Y-126093004D01*
X73184282Y-126108307D01*
X73184291Y-126108307D01*
X73186739Y-126108500D01*
X73342271Y-126108500D01*
X73344407Y-126108354D01*
X73344418Y-126108354D01*
X73552548Y-126094165D01*
X73552554Y-126094164D01*
X73556825Y-126093873D01*
X73561020Y-126093004D01*
X73561022Y-126093004D01*
X73697584Y-126064723D01*
X73838342Y-126035574D01*
X74109343Y-125939607D01*
X74364812Y-125807750D01*
X74368313Y-125805289D01*
X74368317Y-125805287D01*
X74563370Y-125668201D01*
X74600023Y-125642441D01*
X74782726Y-125472663D01*
X74807479Y-125449661D01*
X74807481Y-125449658D01*
X74810622Y-125446740D01*
X74992713Y-125224268D01*
X75142927Y-124979142D01*
X75258483Y-124715898D01*
X75337244Y-124439406D01*
X75377751Y-124154784D01*
X75377845Y-124136951D01*
X75378562Y-124000000D01*
X93256548Y-124000000D01*
X93276343Y-124377709D01*
X93276856Y-124380949D01*
X93276857Y-124380957D01*
X93304082Y-124552842D01*
X93335511Y-124751279D01*
X93433403Y-125116618D01*
X93568947Y-125469723D01*
X93570445Y-125472663D01*
X93736313Y-125798196D01*
X93740659Y-125806726D01*
X93946656Y-126123934D01*
X94184682Y-126417871D01*
X94452129Y-126685318D01*
X94746066Y-126923344D01*
X95063274Y-127129341D01*
X95066208Y-127130836D01*
X95066215Y-127130840D01*
X95397337Y-127299555D01*
X95400277Y-127301053D01*
X95753382Y-127436597D01*
X96118721Y-127534489D01*
X96317158Y-127565918D01*
X96489043Y-127593143D01*
X96489051Y-127593144D01*
X96492291Y-127593657D01*
X96775511Y-127608500D01*
X96964489Y-127608500D01*
X97247709Y-127593657D01*
X97250949Y-127593144D01*
X97250957Y-127593143D01*
X97422842Y-127565918D01*
X97621279Y-127534489D01*
X97986618Y-127436597D01*
X98339723Y-127301053D01*
X98342663Y-127299555D01*
X98673785Y-127130840D01*
X98673792Y-127130836D01*
X98676726Y-127129341D01*
X98993934Y-126923344D01*
X99287871Y-126685318D01*
X99555318Y-126417871D01*
X99793344Y-126123934D01*
X99999341Y-125806726D01*
X100003688Y-125798196D01*
X100169555Y-125472663D01*
X100171053Y-125469723D01*
X100306597Y-125116618D01*
X100404489Y-124751279D01*
X100435918Y-124552842D01*
X100463143Y-124380957D01*
X100463144Y-124380949D01*
X100463657Y-124377709D01*
X100483452Y-124000000D01*
X103886439Y-124000000D01*
X103906660Y-124308507D01*
X103966975Y-124611735D01*
X103968300Y-124615639D01*
X103968301Y-124615642D01*
X104003668Y-124719830D01*
X104066354Y-124904496D01*
X104068177Y-124908192D01*
X104068180Y-124908200D01*
X104172485Y-125119708D01*
X104203096Y-125181780D01*
X104205390Y-125185213D01*
X104205391Y-125185215D01*
X104371273Y-125433475D01*
X104374861Y-125438845D01*
X104377575Y-125441939D01*
X104377579Y-125441945D01*
X104543312Y-125630926D01*
X104578710Y-125671290D01*
X104581799Y-125673999D01*
X104808055Y-125872421D01*
X104808061Y-125872425D01*
X104811155Y-125875139D01*
X104814581Y-125877428D01*
X104814586Y-125877432D01*
X105039982Y-126028036D01*
X105068220Y-126046904D01*
X105071923Y-126048730D01*
X105341800Y-126181820D01*
X105341808Y-126181823D01*
X105345504Y-126183646D01*
X105349419Y-126184975D01*
X105634358Y-126281699D01*
X105634361Y-126281700D01*
X105638265Y-126283025D01*
X105864961Y-126328117D01*
X105937450Y-126342536D01*
X105937453Y-126342536D01*
X105941493Y-126343340D01*
X105945604Y-126343609D01*
X105945608Y-126343610D01*
X106170737Y-126358366D01*
X106170746Y-126358366D01*
X106172786Y-126358500D01*
X106327214Y-126358500D01*
X106329254Y-126358366D01*
X106329263Y-126358366D01*
X106554392Y-126343610D01*
X106554396Y-126343609D01*
X106558507Y-126343340D01*
X106562547Y-126342536D01*
X106562550Y-126342536D01*
X106635039Y-126328117D01*
X106861735Y-126283025D01*
X106865639Y-126281700D01*
X106865642Y-126281699D01*
X107150581Y-126184975D01*
X107154496Y-126183646D01*
X107158192Y-126181823D01*
X107158200Y-126181820D01*
X107428077Y-126048730D01*
X107431780Y-126046904D01*
X107460018Y-126028036D01*
X107685414Y-125877432D01*
X107685419Y-125877428D01*
X107688845Y-125875139D01*
X107691939Y-125872425D01*
X107691945Y-125872421D01*
X107918201Y-125673999D01*
X107921290Y-125671290D01*
X107956688Y-125630926D01*
X108122421Y-125441945D01*
X108122425Y-125441939D01*
X108125139Y-125438845D01*
X108128728Y-125433475D01*
X108294610Y-125185214D01*
X108296904Y-125181781D01*
X108433646Y-124904496D01*
X108496332Y-124719830D01*
X108531699Y-124615642D01*
X108531700Y-124615639D01*
X108533025Y-124611735D01*
X108593340Y-124308507D01*
X108613561Y-124000000D01*
X108593340Y-123691493D01*
X108533025Y-123388265D01*
X108497667Y-123284102D01*
X108434975Y-123099419D01*
X108433646Y-123095504D01*
X108431822Y-123091806D01*
X108431820Y-123091800D01*
X108298730Y-122821923D01*
X108296904Y-122818220D01*
X108294610Y-122814787D01*
X108294609Y-122814785D01*
X108127432Y-122564586D01*
X108127428Y-122564581D01*
X108125139Y-122561155D01*
X108122425Y-122558061D01*
X108122421Y-122558055D01*
X107923999Y-122331799D01*
X107921290Y-122328710D01*
X107917599Y-122325473D01*
X107691945Y-122127579D01*
X107691939Y-122127575D01*
X107688845Y-122124861D01*
X107685419Y-122122572D01*
X107685414Y-122122568D01*
X107435215Y-121955391D01*
X107435213Y-121955390D01*
X107431780Y-121953096D01*
X107343393Y-121909508D01*
X107158200Y-121818180D01*
X107158192Y-121818177D01*
X107154496Y-121816354D01*
X107150581Y-121815025D01*
X106865642Y-121718301D01*
X106865639Y-121718300D01*
X106861735Y-121716975D01*
X106635039Y-121671883D01*
X106562550Y-121657464D01*
X106562547Y-121657464D01*
X106558507Y-121656660D01*
X106554396Y-121656391D01*
X106554392Y-121656390D01*
X106329263Y-121641634D01*
X106329254Y-121641634D01*
X106327214Y-121641500D01*
X106172786Y-121641500D01*
X106170746Y-121641634D01*
X106170737Y-121641634D01*
X105945608Y-121656390D01*
X105945604Y-121656391D01*
X105941493Y-121656660D01*
X105937453Y-121657464D01*
X105937450Y-121657464D01*
X105864961Y-121671883D01*
X105638265Y-121716975D01*
X105634361Y-121718300D01*
X105634358Y-121718301D01*
X105349419Y-121815025D01*
X105345504Y-121816354D01*
X105341808Y-121818177D01*
X105341800Y-121818180D01*
X105156607Y-121909508D01*
X105068220Y-121953096D01*
X105064787Y-121955390D01*
X105064785Y-121955391D01*
X104814586Y-122122568D01*
X104814581Y-122122572D01*
X104811155Y-122124861D01*
X104808061Y-122127575D01*
X104808055Y-122127579D01*
X104582401Y-122325473D01*
X104578710Y-122328710D01*
X104576001Y-122331799D01*
X104377579Y-122558055D01*
X104377575Y-122558061D01*
X104374861Y-122561155D01*
X104372572Y-122564581D01*
X104372568Y-122564586D01*
X104263354Y-122728036D01*
X104203096Y-122818219D01*
X104066354Y-123095504D01*
X104065029Y-123099409D01*
X104065028Y-123099410D01*
X104002334Y-123284102D01*
X103966975Y-123388265D01*
X103906660Y-123691493D01*
X103886439Y-124000000D01*
X100483452Y-124000000D01*
X100463657Y-123622291D01*
X100453232Y-123556466D01*
X100425972Y-123384358D01*
X100404489Y-123248721D01*
X100306597Y-122883382D01*
X100277779Y-122808307D01*
X100187381Y-122572814D01*
X100171053Y-122530277D01*
X100075346Y-122342441D01*
X100000840Y-122196215D01*
X100000836Y-122196208D01*
X99999341Y-122193274D01*
X99971019Y-122149661D01*
X99795146Y-121878841D01*
X99793344Y-121876066D01*
X99555318Y-121582129D01*
X99287871Y-121314682D01*
X98993934Y-121076656D01*
X98676726Y-120870659D01*
X98673792Y-120869164D01*
X98673785Y-120869160D01*
X98342663Y-120700445D01*
X98339723Y-120698947D01*
X98007928Y-120571583D01*
X97989708Y-120564589D01*
X97989706Y-120564588D01*
X97986618Y-120563403D01*
X97621279Y-120465511D01*
X97422842Y-120434082D01*
X97250957Y-120406857D01*
X97250949Y-120406856D01*
X97247709Y-120406343D01*
X96964489Y-120391500D01*
X96775511Y-120391500D01*
X96492291Y-120406343D01*
X96489051Y-120406856D01*
X96489043Y-120406857D01*
X96317158Y-120434082D01*
X96118721Y-120465511D01*
X95753382Y-120563403D01*
X95750294Y-120564588D01*
X95750292Y-120564589D01*
X95732072Y-120571583D01*
X95400277Y-120698947D01*
X95397337Y-120700445D01*
X95066215Y-120869160D01*
X95066208Y-120869164D01*
X95063274Y-120870659D01*
X94746066Y-121076656D01*
X94452129Y-121314682D01*
X94184682Y-121582129D01*
X93946656Y-121876066D01*
X93944854Y-121878841D01*
X93768982Y-122149661D01*
X93740659Y-122193274D01*
X93739164Y-122196208D01*
X93739160Y-122196215D01*
X93664654Y-122342441D01*
X93568947Y-122530277D01*
X93552619Y-122572814D01*
X93462222Y-122808307D01*
X93433403Y-122883382D01*
X93335511Y-123248721D01*
X93314028Y-123384358D01*
X93286769Y-123556466D01*
X93276343Y-123622291D01*
X93256548Y-124000000D01*
X75378562Y-124000000D01*
X75379235Y-123871583D01*
X75379235Y-123871576D01*
X75379257Y-123867297D01*
X75341732Y-123582266D01*
X75265871Y-123304964D01*
X75153077Y-123040524D01*
X75060940Y-122886574D01*
X75007643Y-122797521D01*
X75007640Y-122797517D01*
X75005439Y-122793839D01*
X74825687Y-122569472D01*
X74617149Y-122371577D01*
X74383683Y-122203814D01*
X74363777Y-122193274D01*
X74275889Y-122146740D01*
X74129608Y-122069288D01*
X73859627Y-121970489D01*
X73578736Y-121909245D01*
X73547685Y-121906801D01*
X73355718Y-121891693D01*
X73355709Y-121891693D01*
X73353261Y-121891500D01*
X73197729Y-121891500D01*
X73195593Y-121891646D01*
X73195582Y-121891646D01*
X72987452Y-121905835D01*
X72987446Y-121905836D01*
X72983175Y-121906127D01*
X72978980Y-121906996D01*
X72978978Y-121906996D01*
X72913219Y-121920614D01*
X72701658Y-121964426D01*
X72430657Y-122060393D01*
X72426848Y-122062359D01*
X72294773Y-122130528D01*
X72175188Y-122192250D01*
X72171687Y-122194711D01*
X72171683Y-122194713D01*
X72169546Y-122196215D01*
X71939977Y-122357559D01*
X71924892Y-122371577D01*
X71750791Y-122533362D01*
X71729378Y-122553260D01*
X71547287Y-122775732D01*
X71397073Y-123020858D01*
X71281517Y-123284102D01*
X71202756Y-123560594D01*
X71162249Y-123845216D01*
X71162227Y-123849505D01*
X71162226Y-123849512D01*
X71160765Y-124128417D01*
X71160743Y-124132703D01*
X68976497Y-124132703D01*
X68983452Y-124000000D01*
X68963657Y-123622291D01*
X68953232Y-123556466D01*
X68925972Y-123384358D01*
X68904489Y-123248721D01*
X68806597Y-122883382D01*
X68777779Y-122808307D01*
X68687381Y-122572814D01*
X68671053Y-122530277D01*
X68575346Y-122342441D01*
X68500840Y-122196215D01*
X68500836Y-122196208D01*
X68499341Y-122193274D01*
X68471019Y-122149661D01*
X68295146Y-121878841D01*
X68293344Y-121876066D01*
X68055318Y-121582129D01*
X67787871Y-121314682D01*
X67493934Y-121076656D01*
X67176726Y-120870659D01*
X67173792Y-120869164D01*
X67173785Y-120869160D01*
X67102234Y-120832703D01*
X80760743Y-120832703D01*
X80761302Y-120836947D01*
X80761302Y-120836951D01*
X80765740Y-120870659D01*
X80798268Y-121117734D01*
X80874129Y-121395036D01*
X80875813Y-121398984D01*
X80979313Y-121641634D01*
X80986923Y-121659476D01*
X81022129Y-121718301D01*
X81125787Y-121891500D01*
X81134561Y-121906161D01*
X81314313Y-122130528D01*
X81522851Y-122328423D01*
X81756317Y-122496186D01*
X81760112Y-122498195D01*
X81760113Y-122498196D01*
X81781869Y-122509715D01*
X82010392Y-122630712D01*
X82280373Y-122729511D01*
X82561264Y-122790755D01*
X82589841Y-122793004D01*
X82784282Y-122808307D01*
X82784291Y-122808307D01*
X82786739Y-122808500D01*
X82942271Y-122808500D01*
X82944407Y-122808354D01*
X82944418Y-122808354D01*
X83152548Y-122794165D01*
X83152554Y-122794164D01*
X83156825Y-122793873D01*
X83161020Y-122793004D01*
X83161022Y-122793004D01*
X83297583Y-122764724D01*
X83438342Y-122735574D01*
X83709343Y-122639607D01*
X83838752Y-122572814D01*
X83961005Y-122509715D01*
X83961006Y-122509715D01*
X83964812Y-122507750D01*
X83968313Y-122505289D01*
X83968317Y-122505287D01*
X84154369Y-122374527D01*
X84200023Y-122342441D01*
X84278403Y-122269606D01*
X84407479Y-122149661D01*
X84407481Y-122149658D01*
X84410622Y-122146740D01*
X84592713Y-121924268D01*
X84742927Y-121679142D01*
X84752915Y-121656390D01*
X84856757Y-121419830D01*
X84858483Y-121415898D01*
X84886648Y-121317026D01*
X84936068Y-121143534D01*
X84937244Y-121139406D01*
X84977751Y-120854784D01*
X84977845Y-120836951D01*
X84979235Y-120571583D01*
X84979235Y-120571576D01*
X84979257Y-120567297D01*
X84941732Y-120282266D01*
X84865871Y-120004964D01*
X84753077Y-119740524D01*
X84605439Y-119493839D01*
X84425687Y-119269472D01*
X84217149Y-119071577D01*
X83983683Y-118903814D01*
X83961843Y-118892250D01*
X83938654Y-118879972D01*
X83729608Y-118769288D01*
X83459627Y-118670489D01*
X83178736Y-118609245D01*
X83147685Y-118606801D01*
X82955718Y-118591693D01*
X82955709Y-118591693D01*
X82953261Y-118591500D01*
X82797729Y-118591500D01*
X82795593Y-118591646D01*
X82795582Y-118591646D01*
X82587452Y-118605835D01*
X82587446Y-118605836D01*
X82583175Y-118606127D01*
X82578980Y-118606996D01*
X82578978Y-118606996D01*
X82442416Y-118635277D01*
X82301658Y-118664426D01*
X82030657Y-118760393D01*
X81775188Y-118892250D01*
X81771687Y-118894711D01*
X81771683Y-118894713D01*
X81761594Y-118901804D01*
X81539977Y-119057559D01*
X81329378Y-119253260D01*
X81147287Y-119475732D01*
X80997073Y-119720858D01*
X80881517Y-119984102D01*
X80802756Y-120260594D01*
X80762249Y-120545216D01*
X80762227Y-120549505D01*
X80762226Y-120549512D01*
X80760765Y-120828417D01*
X80760743Y-120832703D01*
X67102234Y-120832703D01*
X66842663Y-120700445D01*
X66839723Y-120698947D01*
X66507928Y-120571583D01*
X66489708Y-120564589D01*
X66489706Y-120564588D01*
X66486618Y-120563403D01*
X66121279Y-120465511D01*
X65922842Y-120434082D01*
X65750957Y-120406857D01*
X65750949Y-120406856D01*
X65747709Y-120406343D01*
X65464489Y-120391500D01*
X65275511Y-120391500D01*
X64992291Y-120406343D01*
X64989051Y-120406856D01*
X64989043Y-120406857D01*
X64817158Y-120434082D01*
X64618721Y-120465511D01*
X64253382Y-120563403D01*
X64250294Y-120564588D01*
X64250292Y-120564589D01*
X64232072Y-120571583D01*
X63900277Y-120698947D01*
X63897337Y-120700445D01*
X63566215Y-120869160D01*
X63566208Y-120869164D01*
X63563274Y-120870659D01*
X63246066Y-121076656D01*
X62952129Y-121314682D01*
X62684682Y-121582129D01*
X62446656Y-121876066D01*
X62444854Y-121878841D01*
X62268982Y-122149661D01*
X62240659Y-122193274D01*
X62239164Y-122196208D01*
X62239160Y-122196215D01*
X62164654Y-122342441D01*
X62068947Y-122530277D01*
X62052619Y-122572814D01*
X61962222Y-122808307D01*
X61933403Y-122883382D01*
X61835511Y-123248721D01*
X61814028Y-123384358D01*
X61786769Y-123556466D01*
X61776343Y-123622291D01*
X61756548Y-124000000D01*
X56613561Y-124000000D01*
X56593340Y-123691493D01*
X56533025Y-123388265D01*
X56497667Y-123284102D01*
X56434975Y-123099419D01*
X56433646Y-123095504D01*
X56431822Y-123091806D01*
X56431820Y-123091800D01*
X56298730Y-122821923D01*
X56296904Y-122818220D01*
X56294610Y-122814787D01*
X56294609Y-122814785D01*
X56127432Y-122564586D01*
X56127428Y-122564581D01*
X56125139Y-122561155D01*
X56122425Y-122558061D01*
X56122421Y-122558055D01*
X55923999Y-122331799D01*
X55921290Y-122328710D01*
X55917599Y-122325473D01*
X55691945Y-122127579D01*
X55691939Y-122127575D01*
X55688845Y-122124861D01*
X55685419Y-122122572D01*
X55685414Y-122122568D01*
X55435215Y-121955391D01*
X55435213Y-121955390D01*
X55431780Y-121953096D01*
X55343393Y-121909508D01*
X55158200Y-121818180D01*
X55158192Y-121818177D01*
X55154496Y-121816354D01*
X55150581Y-121815025D01*
X54865642Y-121718301D01*
X54865639Y-121718300D01*
X54861735Y-121716975D01*
X54635039Y-121671883D01*
X54562550Y-121657464D01*
X54562547Y-121657464D01*
X54558507Y-121656660D01*
X54554396Y-121656391D01*
X54554392Y-121656390D01*
X54329263Y-121641634D01*
X54329254Y-121641634D01*
X54327214Y-121641500D01*
X54172786Y-121641500D01*
X54170746Y-121641634D01*
X54170737Y-121641634D01*
X53945608Y-121656390D01*
X53945604Y-121656391D01*
X53941493Y-121656660D01*
X53937453Y-121657464D01*
X53937450Y-121657464D01*
X53864961Y-121671883D01*
X53638265Y-121716975D01*
X53634361Y-121718300D01*
X53634358Y-121718301D01*
X53349419Y-121815025D01*
X53345504Y-121816354D01*
X53341808Y-121818177D01*
X53341800Y-121818180D01*
X53156607Y-121909508D01*
X53068220Y-121953096D01*
X53064787Y-121955390D01*
X53064785Y-121955391D01*
X52814586Y-122122568D01*
X52814581Y-122122572D01*
X52811155Y-122124861D01*
X52808061Y-122127575D01*
X52808055Y-122127579D01*
X52582401Y-122325473D01*
X52578710Y-122328710D01*
X52576001Y-122331799D01*
X52377579Y-122558055D01*
X52377575Y-122558061D01*
X52374861Y-122561155D01*
X52372572Y-122564581D01*
X52372568Y-122564586D01*
X52263354Y-122728036D01*
X52203096Y-122818219D01*
X52066354Y-123095504D01*
X52065029Y-123099409D01*
X52065028Y-123099410D01*
X52002334Y-123284102D01*
X51966975Y-123388265D01*
X51906660Y-123691493D01*
X51886439Y-124000000D01*
X50508000Y-124000000D01*
X50508000Y-112000000D01*
X51886439Y-112000000D01*
X51906660Y-112308507D01*
X51966975Y-112611735D01*
X51968300Y-112615639D01*
X51968301Y-112615642D01*
X52003668Y-112719830D01*
X52066354Y-112904496D01*
X52068177Y-112908192D01*
X52068180Y-112908200D01*
X52172485Y-113119708D01*
X52203096Y-113181780D01*
X52205390Y-113185213D01*
X52205391Y-113185215D01*
X52371273Y-113433475D01*
X52374861Y-113438845D01*
X52377575Y-113441939D01*
X52377579Y-113441945D01*
X52543312Y-113630926D01*
X52578710Y-113671290D01*
X52581799Y-113673999D01*
X52808055Y-113872421D01*
X52808061Y-113872425D01*
X52811155Y-113875139D01*
X52814581Y-113877428D01*
X52814586Y-113877432D01*
X53039982Y-114028036D01*
X53068220Y-114046904D01*
X53071923Y-114048730D01*
X53341800Y-114181820D01*
X53341808Y-114181823D01*
X53345504Y-114183646D01*
X53349419Y-114184975D01*
X53634358Y-114281699D01*
X53634361Y-114281700D01*
X53638265Y-114283025D01*
X53864961Y-114328117D01*
X53937450Y-114342536D01*
X53937453Y-114342536D01*
X53941493Y-114343340D01*
X53945604Y-114343609D01*
X53945608Y-114343610D01*
X54170737Y-114358366D01*
X54170746Y-114358366D01*
X54172786Y-114358500D01*
X54327214Y-114358500D01*
X54329254Y-114358366D01*
X54329263Y-114358366D01*
X54554392Y-114343610D01*
X54554396Y-114343609D01*
X54558507Y-114343340D01*
X54562547Y-114342536D01*
X54562550Y-114342536D01*
X54635039Y-114328117D01*
X54861735Y-114283025D01*
X54865639Y-114281700D01*
X54865642Y-114281699D01*
X55150581Y-114184975D01*
X55154496Y-114183646D01*
X55158192Y-114181823D01*
X55158200Y-114181820D01*
X55428077Y-114048730D01*
X55431780Y-114046904D01*
X55460018Y-114028036D01*
X55685414Y-113877432D01*
X55685419Y-113877428D01*
X55688845Y-113875139D01*
X55691939Y-113872425D01*
X55691945Y-113872421D01*
X55918201Y-113673999D01*
X55921290Y-113671290D01*
X55956688Y-113630926D01*
X56122421Y-113441945D01*
X56122425Y-113441939D01*
X56125139Y-113438845D01*
X56128728Y-113433475D01*
X56294610Y-113185214D01*
X56296904Y-113181781D01*
X56433646Y-112904496D01*
X56496332Y-112719830D01*
X56531699Y-112615642D01*
X56531700Y-112615639D01*
X56533025Y-112611735D01*
X56593340Y-112308507D01*
X56613561Y-112000000D01*
X61756548Y-112000000D01*
X61776343Y-112377709D01*
X61776856Y-112380949D01*
X61776857Y-112380957D01*
X61804082Y-112552842D01*
X61835511Y-112751279D01*
X61933403Y-113116618D01*
X62068947Y-113469723D01*
X62070445Y-113472663D01*
X62236313Y-113798196D01*
X62240659Y-113806726D01*
X62446656Y-114123934D01*
X62684682Y-114417871D01*
X62952129Y-114685318D01*
X63246066Y-114923344D01*
X63563274Y-115129341D01*
X63566208Y-115130836D01*
X63566215Y-115130840D01*
X63897337Y-115299555D01*
X63900277Y-115301053D01*
X64253382Y-115436597D01*
X64618721Y-115534489D01*
X64817158Y-115565918D01*
X64989043Y-115593143D01*
X64989051Y-115593144D01*
X64992291Y-115593657D01*
X65275511Y-115608500D01*
X65464489Y-115608500D01*
X65747709Y-115593657D01*
X65750949Y-115593144D01*
X65750957Y-115593143D01*
X65922842Y-115565918D01*
X66121279Y-115534489D01*
X66486618Y-115436597D01*
X66839723Y-115301053D01*
X66842663Y-115299555D01*
X67173785Y-115130840D01*
X67173792Y-115130836D01*
X67176726Y-115129341D01*
X67493934Y-114923344D01*
X67787871Y-114685318D01*
X68055318Y-114417871D01*
X68293344Y-114123934D01*
X68499341Y-113806726D01*
X68503688Y-113798196D01*
X68669555Y-113472663D01*
X68671053Y-113469723D01*
X68806597Y-113116618D01*
X68904489Y-112751279D01*
X68935918Y-112552842D01*
X68963143Y-112380957D01*
X68963144Y-112380949D01*
X68963657Y-112377709D01*
X68976497Y-112132703D01*
X71160743Y-112132703D01*
X71198268Y-112417734D01*
X71274129Y-112695036D01*
X71386923Y-112959476D01*
X71398693Y-112979142D01*
X71480971Y-113116618D01*
X71534561Y-113206161D01*
X71714313Y-113430528D01*
X71922851Y-113628423D01*
X72156317Y-113796186D01*
X72160112Y-113798195D01*
X72160113Y-113798196D01*
X72181453Y-113809495D01*
X72410392Y-113930712D01*
X72680373Y-114029511D01*
X72961264Y-114090755D01*
X72989841Y-114093004D01*
X73184282Y-114108307D01*
X73184291Y-114108307D01*
X73186739Y-114108500D01*
X73342271Y-114108500D01*
X73344407Y-114108354D01*
X73344418Y-114108354D01*
X73552548Y-114094165D01*
X73552554Y-114094164D01*
X73556825Y-114093873D01*
X73561020Y-114093004D01*
X73561022Y-114093004D01*
X73697584Y-114064723D01*
X73838342Y-114035574D01*
X74109343Y-113939607D01*
X74364812Y-113807750D01*
X74368313Y-113805289D01*
X74368317Y-113805287D01*
X74563370Y-113668201D01*
X74600023Y-113642441D01*
X74782726Y-113472663D01*
X74807479Y-113449661D01*
X74807481Y-113449658D01*
X74810622Y-113446740D01*
X74992713Y-113224268D01*
X75142927Y-112979142D01*
X75258483Y-112715898D01*
X75337244Y-112439406D01*
X75377751Y-112154784D01*
X75377845Y-112136951D01*
X75378562Y-112000000D01*
X79256548Y-112000000D01*
X79276343Y-112377709D01*
X79276856Y-112380949D01*
X79276857Y-112380957D01*
X79304082Y-112552842D01*
X79335511Y-112751279D01*
X79433403Y-113116618D01*
X79568947Y-113469723D01*
X79570445Y-113472663D01*
X79736313Y-113798196D01*
X79740659Y-113806726D01*
X79946656Y-114123934D01*
X80184682Y-114417871D01*
X80452129Y-114685318D01*
X80746066Y-114923344D01*
X81063274Y-115129341D01*
X81066208Y-115130836D01*
X81066215Y-115130840D01*
X81397337Y-115299555D01*
X81400277Y-115301053D01*
X81753382Y-115436597D01*
X82118721Y-115534489D01*
X82317158Y-115565918D01*
X82489043Y-115593143D01*
X82489051Y-115593144D01*
X82492291Y-115593657D01*
X82775511Y-115608500D01*
X82964489Y-115608500D01*
X83247709Y-115593657D01*
X83250949Y-115593144D01*
X83250957Y-115593143D01*
X83422842Y-115565918D01*
X83621279Y-115534489D01*
X83986618Y-115436597D01*
X84339723Y-115301053D01*
X84342663Y-115299555D01*
X84673785Y-115130840D01*
X84673792Y-115130836D01*
X84676726Y-115129341D01*
X84993934Y-114923344D01*
X85287871Y-114685318D01*
X85555318Y-114417871D01*
X85793344Y-114123934D01*
X85999341Y-113806726D01*
X86003688Y-113798196D01*
X86169555Y-113472663D01*
X86171053Y-113469723D01*
X86306597Y-113116618D01*
X86404489Y-112751279D01*
X86435918Y-112552842D01*
X86463143Y-112380957D01*
X86463144Y-112380949D01*
X86463657Y-112377709D01*
X86483452Y-112000000D01*
X93256548Y-112000000D01*
X93276343Y-112377709D01*
X93276856Y-112380949D01*
X93276857Y-112380957D01*
X93304082Y-112552842D01*
X93335511Y-112751279D01*
X93433403Y-113116618D01*
X93568947Y-113469723D01*
X93570445Y-113472663D01*
X93736313Y-113798196D01*
X93740659Y-113806726D01*
X93946656Y-114123934D01*
X94184682Y-114417871D01*
X94452129Y-114685318D01*
X94746066Y-114923344D01*
X95063274Y-115129341D01*
X95066208Y-115130836D01*
X95066215Y-115130840D01*
X95397337Y-115299555D01*
X95400277Y-115301053D01*
X95753382Y-115436597D01*
X96118721Y-115534489D01*
X96317158Y-115565918D01*
X96489043Y-115593143D01*
X96489051Y-115593144D01*
X96492291Y-115593657D01*
X96775511Y-115608500D01*
X96964489Y-115608500D01*
X97247709Y-115593657D01*
X97250949Y-115593144D01*
X97250957Y-115593143D01*
X97422842Y-115565918D01*
X97621279Y-115534489D01*
X97986618Y-115436597D01*
X98339723Y-115301053D01*
X98342663Y-115299555D01*
X98673785Y-115130840D01*
X98673792Y-115130836D01*
X98676726Y-115129341D01*
X98993934Y-114923344D01*
X99287871Y-114685318D01*
X99555318Y-114417871D01*
X99793344Y-114123934D01*
X99999341Y-113806726D01*
X100003688Y-113798196D01*
X100169555Y-113472663D01*
X100171053Y-113469723D01*
X100306597Y-113116618D01*
X100404489Y-112751279D01*
X100435918Y-112552842D01*
X100463143Y-112380957D01*
X100463144Y-112380949D01*
X100463657Y-112377709D01*
X100483452Y-112000000D01*
X103886439Y-112000000D01*
X103906660Y-112308507D01*
X103966975Y-112611735D01*
X103968300Y-112615639D01*
X103968301Y-112615642D01*
X104003668Y-112719830D01*
X104066354Y-112904496D01*
X104068177Y-112908192D01*
X104068180Y-112908200D01*
X104172485Y-113119708D01*
X104203096Y-113181780D01*
X104205390Y-113185213D01*
X104205391Y-113185215D01*
X104371273Y-113433475D01*
X104374861Y-113438845D01*
X104377575Y-113441939D01*
X104377579Y-113441945D01*
X104543312Y-113630926D01*
X104578710Y-113671290D01*
X104581799Y-113673999D01*
X104808055Y-113872421D01*
X104808061Y-113872425D01*
X104811155Y-113875139D01*
X104814581Y-113877428D01*
X104814586Y-113877432D01*
X105039982Y-114028036D01*
X105068220Y-114046904D01*
X105071923Y-114048730D01*
X105341800Y-114181820D01*
X105341808Y-114181823D01*
X105345504Y-114183646D01*
X105349419Y-114184975D01*
X105634358Y-114281699D01*
X105634361Y-114281700D01*
X105638265Y-114283025D01*
X105864961Y-114328117D01*
X105937450Y-114342536D01*
X105937453Y-114342536D01*
X105941493Y-114343340D01*
X105945604Y-114343609D01*
X105945608Y-114343610D01*
X106170737Y-114358366D01*
X106170746Y-114358366D01*
X106172786Y-114358500D01*
X106327214Y-114358500D01*
X106329254Y-114358366D01*
X106329263Y-114358366D01*
X106554392Y-114343610D01*
X106554396Y-114343609D01*
X106558507Y-114343340D01*
X106562547Y-114342536D01*
X106562550Y-114342536D01*
X106635039Y-114328117D01*
X106861735Y-114283025D01*
X106865639Y-114281700D01*
X106865642Y-114281699D01*
X107150581Y-114184975D01*
X107154496Y-114183646D01*
X107158192Y-114181823D01*
X107158200Y-114181820D01*
X107428077Y-114048730D01*
X107431780Y-114046904D01*
X107460018Y-114028036D01*
X107685414Y-113877432D01*
X107685419Y-113877428D01*
X107688845Y-113875139D01*
X107691939Y-113872425D01*
X107691945Y-113872421D01*
X107918201Y-113673999D01*
X107921290Y-113671290D01*
X107956688Y-113630926D01*
X108122421Y-113441945D01*
X108122425Y-113441939D01*
X108125139Y-113438845D01*
X108128728Y-113433475D01*
X108294610Y-113185214D01*
X108296904Y-113181781D01*
X108433646Y-112904496D01*
X108496332Y-112719830D01*
X108531699Y-112615642D01*
X108531700Y-112615639D01*
X108533025Y-112611735D01*
X108593340Y-112308507D01*
X108613561Y-112000000D01*
X108593340Y-111691493D01*
X108533025Y-111388265D01*
X108497667Y-111284102D01*
X108434975Y-111099419D01*
X108433646Y-111095504D01*
X108431822Y-111091806D01*
X108431820Y-111091800D01*
X108298730Y-110821923D01*
X108296904Y-110818220D01*
X108294610Y-110814787D01*
X108294609Y-110814785D01*
X108127432Y-110564586D01*
X108127428Y-110564581D01*
X108125139Y-110561155D01*
X108122425Y-110558061D01*
X108122421Y-110558055D01*
X107923999Y-110331799D01*
X107921290Y-110328710D01*
X107918201Y-110326001D01*
X107691945Y-110127579D01*
X107691939Y-110127575D01*
X107688845Y-110124861D01*
X107685419Y-110122572D01*
X107685414Y-110122568D01*
X107435215Y-109955391D01*
X107435213Y-109955390D01*
X107431780Y-109953096D01*
X107344711Y-109910158D01*
X107158200Y-109818180D01*
X107158192Y-109818177D01*
X107154496Y-109816354D01*
X107150581Y-109815025D01*
X106865642Y-109718301D01*
X106865639Y-109718300D01*
X106861735Y-109716975D01*
X106635039Y-109671883D01*
X106562550Y-109657464D01*
X106562547Y-109657464D01*
X106558507Y-109656660D01*
X106554396Y-109656391D01*
X106554392Y-109656390D01*
X106329263Y-109641634D01*
X106329254Y-109641634D01*
X106327214Y-109641500D01*
X106172786Y-109641500D01*
X106170746Y-109641634D01*
X106170737Y-109641634D01*
X105945608Y-109656390D01*
X105945604Y-109656391D01*
X105941493Y-109656660D01*
X105937453Y-109657464D01*
X105937450Y-109657464D01*
X105864961Y-109671883D01*
X105638265Y-109716975D01*
X105634361Y-109718300D01*
X105634358Y-109718301D01*
X105349419Y-109815025D01*
X105345504Y-109816354D01*
X105341808Y-109818177D01*
X105341800Y-109818180D01*
X105155289Y-109910158D01*
X105068220Y-109953096D01*
X105064787Y-109955390D01*
X105064785Y-109955391D01*
X104814586Y-110122568D01*
X104814581Y-110122572D01*
X104811155Y-110124861D01*
X104808061Y-110127575D01*
X104808055Y-110127579D01*
X104581799Y-110326001D01*
X104578710Y-110328710D01*
X104576001Y-110331799D01*
X104377579Y-110558055D01*
X104377575Y-110558061D01*
X104374861Y-110561155D01*
X104372572Y-110564581D01*
X104372568Y-110564586D01*
X104243121Y-110758318D01*
X104203096Y-110818219D01*
X104066354Y-111095504D01*
X104065029Y-111099409D01*
X104065028Y-111099410D01*
X104002334Y-111284102D01*
X103966975Y-111388265D01*
X103906660Y-111691493D01*
X103886439Y-112000000D01*
X100483452Y-112000000D01*
X100463657Y-111622291D01*
X100453232Y-111556466D01*
X100425972Y-111384358D01*
X100404489Y-111248721D01*
X100306597Y-110883382D01*
X100171053Y-110530277D01*
X100069923Y-110331799D01*
X100000840Y-110196215D01*
X100000836Y-110196208D01*
X99999341Y-110193274D01*
X99793344Y-109876066D01*
X99555318Y-109582129D01*
X99287871Y-109314682D01*
X98993934Y-109076656D01*
X98676726Y-108870659D01*
X98673792Y-108869164D01*
X98673785Y-108869160D01*
X98342663Y-108700445D01*
X98339723Y-108698947D01*
X97986618Y-108563403D01*
X97621279Y-108465511D01*
X97422842Y-108434082D01*
X97250957Y-108406857D01*
X97250949Y-108406856D01*
X97247709Y-108406343D01*
X96964489Y-108391500D01*
X96775511Y-108391500D01*
X96492291Y-108406343D01*
X96489051Y-108406856D01*
X96489043Y-108406857D01*
X96317158Y-108434082D01*
X96118721Y-108465511D01*
X95753382Y-108563403D01*
X95400277Y-108698947D01*
X95397337Y-108700445D01*
X95066215Y-108869160D01*
X95066208Y-108869164D01*
X95063274Y-108870659D01*
X94746066Y-109076656D01*
X94452129Y-109314682D01*
X94184682Y-109582129D01*
X93946656Y-109876066D01*
X93740659Y-110193274D01*
X93739164Y-110196208D01*
X93739160Y-110196215D01*
X93670077Y-110331799D01*
X93568947Y-110530277D01*
X93433403Y-110883382D01*
X93335511Y-111248721D01*
X93314028Y-111384358D01*
X93286769Y-111556466D01*
X93276343Y-111622291D01*
X93256548Y-112000000D01*
X86483452Y-112000000D01*
X86463657Y-111622291D01*
X86453232Y-111556466D01*
X86425972Y-111384358D01*
X86404489Y-111248721D01*
X86306597Y-110883382D01*
X86171053Y-110530277D01*
X86069923Y-110331799D01*
X86000840Y-110196215D01*
X86000836Y-110196208D01*
X85999341Y-110193274D01*
X85793344Y-109876066D01*
X85555318Y-109582129D01*
X85287871Y-109314682D01*
X84993934Y-109076656D01*
X84676726Y-108870659D01*
X84673792Y-108869164D01*
X84673785Y-108869160D01*
X84342663Y-108700445D01*
X84339723Y-108698947D01*
X83986618Y-108563403D01*
X83621279Y-108465511D01*
X83422842Y-108434082D01*
X83250957Y-108406857D01*
X83250949Y-108406856D01*
X83247709Y-108406343D01*
X82964489Y-108391500D01*
X82775511Y-108391500D01*
X82492291Y-108406343D01*
X82489051Y-108406856D01*
X82489043Y-108406857D01*
X82317158Y-108434082D01*
X82118721Y-108465511D01*
X81753382Y-108563403D01*
X81400277Y-108698947D01*
X81397337Y-108700445D01*
X81066215Y-108869160D01*
X81066208Y-108869164D01*
X81063274Y-108870659D01*
X80746066Y-109076656D01*
X80452129Y-109314682D01*
X80184682Y-109582129D01*
X79946656Y-109876066D01*
X79740659Y-110193274D01*
X79739164Y-110196208D01*
X79739160Y-110196215D01*
X79670077Y-110331799D01*
X79568947Y-110530277D01*
X79433403Y-110883382D01*
X79335511Y-111248721D01*
X79314028Y-111384358D01*
X79286769Y-111556466D01*
X79276343Y-111622291D01*
X79256548Y-112000000D01*
X75378562Y-112000000D01*
X75379235Y-111871583D01*
X75379235Y-111871576D01*
X75379257Y-111867297D01*
X75341732Y-111582266D01*
X75265871Y-111304964D01*
X75153077Y-111040524D01*
X75060940Y-110886574D01*
X75007643Y-110797521D01*
X75007640Y-110797517D01*
X75005439Y-110793839D01*
X74825687Y-110569472D01*
X74617149Y-110371577D01*
X74383683Y-110203814D01*
X74363777Y-110193274D01*
X74239700Y-110127579D01*
X74129608Y-110069288D01*
X73859627Y-109970489D01*
X73578736Y-109909245D01*
X73547685Y-109906801D01*
X73355718Y-109891693D01*
X73355709Y-109891693D01*
X73353261Y-109891500D01*
X73197729Y-109891500D01*
X73195593Y-109891646D01*
X73195582Y-109891646D01*
X72987452Y-109905835D01*
X72987446Y-109905836D01*
X72983175Y-109906127D01*
X72978980Y-109906996D01*
X72978978Y-109906996D01*
X72842417Y-109935276D01*
X72701658Y-109964426D01*
X72430657Y-110060393D01*
X72175188Y-110192250D01*
X72171687Y-110194711D01*
X72171683Y-110194713D01*
X72169546Y-110196215D01*
X71939977Y-110357559D01*
X71924892Y-110371577D01*
X71750791Y-110533362D01*
X71729378Y-110553260D01*
X71547287Y-110775732D01*
X71397073Y-111020858D01*
X71281517Y-111284102D01*
X71202756Y-111560594D01*
X71162249Y-111845216D01*
X71162227Y-111849505D01*
X71162226Y-111849512D01*
X71160765Y-112128417D01*
X71160743Y-112132703D01*
X68976497Y-112132703D01*
X68983452Y-112000000D01*
X68963657Y-111622291D01*
X68953232Y-111556466D01*
X68925972Y-111384358D01*
X68904489Y-111248721D01*
X68806597Y-110883382D01*
X68671053Y-110530277D01*
X68569923Y-110331799D01*
X68500840Y-110196215D01*
X68500836Y-110196208D01*
X68499341Y-110193274D01*
X68293344Y-109876066D01*
X68055318Y-109582129D01*
X67787871Y-109314682D01*
X67493934Y-109076656D01*
X67176726Y-108870659D01*
X67173792Y-108869164D01*
X67173785Y-108869160D01*
X66842663Y-108700445D01*
X66839723Y-108698947D01*
X66486618Y-108563403D01*
X66121279Y-108465511D01*
X65922842Y-108434082D01*
X65750957Y-108406857D01*
X65750949Y-108406856D01*
X65747709Y-108406343D01*
X65464489Y-108391500D01*
X65275511Y-108391500D01*
X64992291Y-108406343D01*
X64989051Y-108406856D01*
X64989043Y-108406857D01*
X64817158Y-108434082D01*
X64618721Y-108465511D01*
X64253382Y-108563403D01*
X63900277Y-108698947D01*
X63897337Y-108700445D01*
X63566215Y-108869160D01*
X63566208Y-108869164D01*
X63563274Y-108870659D01*
X63246066Y-109076656D01*
X62952129Y-109314682D01*
X62684682Y-109582129D01*
X62446656Y-109876066D01*
X62240659Y-110193274D01*
X62239164Y-110196208D01*
X62239160Y-110196215D01*
X62170077Y-110331799D01*
X62068947Y-110530277D01*
X61933403Y-110883382D01*
X61835511Y-111248721D01*
X61814028Y-111384358D01*
X61786769Y-111556466D01*
X61776343Y-111622291D01*
X61756548Y-112000000D01*
X56613561Y-112000000D01*
X56593340Y-111691493D01*
X56533025Y-111388265D01*
X56497667Y-111284102D01*
X56434975Y-111099419D01*
X56433646Y-111095504D01*
X56431822Y-111091806D01*
X56431820Y-111091800D01*
X56298730Y-110821923D01*
X56296904Y-110818220D01*
X56294610Y-110814787D01*
X56294609Y-110814785D01*
X56127432Y-110564586D01*
X56127428Y-110564581D01*
X56125139Y-110561155D01*
X56122425Y-110558061D01*
X56122421Y-110558055D01*
X55923999Y-110331799D01*
X55921290Y-110328710D01*
X55918201Y-110326001D01*
X55691945Y-110127579D01*
X55691939Y-110127575D01*
X55688845Y-110124861D01*
X55685419Y-110122572D01*
X55685414Y-110122568D01*
X55435215Y-109955391D01*
X55435213Y-109955390D01*
X55431780Y-109953096D01*
X55344711Y-109910158D01*
X55158200Y-109818180D01*
X55158192Y-109818177D01*
X55154496Y-109816354D01*
X55150581Y-109815025D01*
X54865642Y-109718301D01*
X54865639Y-109718300D01*
X54861735Y-109716975D01*
X54635039Y-109671883D01*
X54562550Y-109657464D01*
X54562547Y-109657464D01*
X54558507Y-109656660D01*
X54554396Y-109656391D01*
X54554392Y-109656390D01*
X54329263Y-109641634D01*
X54329254Y-109641634D01*
X54327214Y-109641500D01*
X54172786Y-109641500D01*
X54170746Y-109641634D01*
X54170737Y-109641634D01*
X53945608Y-109656390D01*
X53945604Y-109656391D01*
X53941493Y-109656660D01*
X53937453Y-109657464D01*
X53937450Y-109657464D01*
X53864961Y-109671883D01*
X53638265Y-109716975D01*
X53634361Y-109718300D01*
X53634358Y-109718301D01*
X53349419Y-109815025D01*
X53345504Y-109816354D01*
X53341808Y-109818177D01*
X53341800Y-109818180D01*
X53155289Y-109910158D01*
X53068220Y-109953096D01*
X53064787Y-109955390D01*
X53064785Y-109955391D01*
X52814586Y-110122568D01*
X52814581Y-110122572D01*
X52811155Y-110124861D01*
X52808061Y-110127575D01*
X52808055Y-110127579D01*
X52581799Y-110326001D01*
X52578710Y-110328710D01*
X52576001Y-110331799D01*
X52377579Y-110558055D01*
X52377575Y-110558061D01*
X52374861Y-110561155D01*
X52372572Y-110564581D01*
X52372568Y-110564586D01*
X52243121Y-110758318D01*
X52203096Y-110818219D01*
X52066354Y-111095504D01*
X52065029Y-111099409D01*
X52065028Y-111099410D01*
X52002334Y-111284102D01*
X51966975Y-111388265D01*
X51906660Y-111691493D01*
X51886439Y-112000000D01*
X50508000Y-112000000D01*
X50508000Y-98000000D01*
X93256548Y-98000000D01*
X93276343Y-98377709D01*
X93335511Y-98751279D01*
X93433403Y-99116618D01*
X93568947Y-99469723D01*
X93570445Y-99472663D01*
X93671651Y-99671290D01*
X93740659Y-99806726D01*
X93946656Y-100123934D01*
X94184682Y-100417871D01*
X94452129Y-100685318D01*
X94746066Y-100923344D01*
X95063274Y-101129341D01*
X95066208Y-101130836D01*
X95066215Y-101130840D01*
X95397337Y-101299555D01*
X95400277Y-101301053D01*
X95753382Y-101436597D01*
X96118721Y-101534489D01*
X96317158Y-101565918D01*
X96489043Y-101593143D01*
X96489051Y-101593144D01*
X96492291Y-101593657D01*
X96775511Y-101608500D01*
X96964489Y-101608500D01*
X97247709Y-101593657D01*
X97250949Y-101593144D01*
X97250957Y-101593143D01*
X97422842Y-101565918D01*
X97621279Y-101534489D01*
X97986618Y-101436597D01*
X98339723Y-101301053D01*
X98342663Y-101299555D01*
X98673785Y-101130840D01*
X98673792Y-101130836D01*
X98676726Y-101129341D01*
X98993934Y-100923344D01*
X99287871Y-100685318D01*
X99555318Y-100417871D01*
X99793344Y-100123934D01*
X99999341Y-99806726D01*
X100068350Y-99671290D01*
X100169555Y-99472663D01*
X100171053Y-99469723D01*
X100306597Y-99116618D01*
X100404489Y-98751279D01*
X100463657Y-98377709D01*
X100483452Y-98000000D01*
X103886439Y-98000000D01*
X103906660Y-98308507D01*
X103966975Y-98611735D01*
X104066354Y-98904496D01*
X104068177Y-98908192D01*
X104068180Y-98908200D01*
X104172485Y-99119708D01*
X104203096Y-99181780D01*
X104205390Y-99185213D01*
X104205391Y-99185214D01*
X104374861Y-99438845D01*
X104377575Y-99441939D01*
X104377579Y-99441945D01*
X104576001Y-99668201D01*
X104578710Y-99671290D01*
X104581799Y-99673999D01*
X104808055Y-99872421D01*
X104808061Y-99872425D01*
X104811155Y-99875139D01*
X104814581Y-99877428D01*
X104814586Y-99877432D01*
X105064785Y-100044609D01*
X105068220Y-100046904D01*
X105071923Y-100048730D01*
X105341800Y-100181820D01*
X105341808Y-100181823D01*
X105345504Y-100183646D01*
X105349419Y-100184975D01*
X105634358Y-100281699D01*
X105634361Y-100281700D01*
X105638265Y-100283025D01*
X105864961Y-100328117D01*
X105937450Y-100342536D01*
X105937453Y-100342536D01*
X105941493Y-100343340D01*
X105945604Y-100343609D01*
X105945608Y-100343610D01*
X106170737Y-100358366D01*
X106170746Y-100358366D01*
X106172786Y-100358500D01*
X106327214Y-100358500D01*
X106329254Y-100358366D01*
X106329263Y-100358366D01*
X106554392Y-100343610D01*
X106554396Y-100343609D01*
X106558507Y-100343340D01*
X106562547Y-100342536D01*
X106562550Y-100342536D01*
X106635039Y-100328117D01*
X106861735Y-100283025D01*
X106865639Y-100281700D01*
X106865642Y-100281699D01*
X107150581Y-100184975D01*
X107154496Y-100183646D01*
X107158192Y-100181823D01*
X107158200Y-100181820D01*
X107428077Y-100048730D01*
X107431780Y-100046904D01*
X107435215Y-100044609D01*
X107685414Y-99877432D01*
X107685419Y-99877428D01*
X107688845Y-99875139D01*
X107691939Y-99872425D01*
X107691945Y-99872421D01*
X107918201Y-99673999D01*
X107921290Y-99671290D01*
X107923999Y-99668201D01*
X108122421Y-99441945D01*
X108122425Y-99441939D01*
X108125139Y-99438845D01*
X108296904Y-99181781D01*
X108433646Y-98904496D01*
X108533025Y-98611735D01*
X108593340Y-98308507D01*
X108613561Y-98000000D01*
X108593340Y-97691493D01*
X108533025Y-97388265D01*
X108433646Y-97095504D01*
X108431822Y-97091806D01*
X108431820Y-97091800D01*
X108298730Y-96821923D01*
X108296904Y-96818220D01*
X108294610Y-96814787D01*
X108294609Y-96814785D01*
X108127432Y-96564586D01*
X108127428Y-96564581D01*
X108125139Y-96561155D01*
X108122425Y-96558061D01*
X108122421Y-96558055D01*
X107923999Y-96331799D01*
X107921290Y-96328710D01*
X107763698Y-96190505D01*
X107691945Y-96127579D01*
X107691939Y-96127575D01*
X107688845Y-96124861D01*
X107685419Y-96122572D01*
X107685414Y-96122568D01*
X107435215Y-95955391D01*
X107435213Y-95955390D01*
X107431780Y-95953096D01*
X107382352Y-95928721D01*
X107158200Y-95818180D01*
X107158192Y-95818177D01*
X107154496Y-95816354D01*
X107134493Y-95809564D01*
X106865642Y-95718301D01*
X106865639Y-95718300D01*
X106861735Y-95716975D01*
X106635039Y-95671883D01*
X106562550Y-95657464D01*
X106562547Y-95657464D01*
X106558507Y-95656660D01*
X106554396Y-95656391D01*
X106554392Y-95656390D01*
X106329263Y-95641634D01*
X106329254Y-95641634D01*
X106327214Y-95641500D01*
X106172786Y-95641500D01*
X106170746Y-95641634D01*
X106170737Y-95641634D01*
X105945608Y-95656390D01*
X105945604Y-95656391D01*
X105941493Y-95656660D01*
X105937453Y-95657464D01*
X105937450Y-95657464D01*
X105864961Y-95671883D01*
X105638265Y-95716975D01*
X105634361Y-95718300D01*
X105634358Y-95718301D01*
X105365507Y-95809564D01*
X105345504Y-95816354D01*
X105341808Y-95818177D01*
X105341800Y-95818180D01*
X105117648Y-95928721D01*
X105068220Y-95953096D01*
X105064787Y-95955390D01*
X105064785Y-95955391D01*
X104814586Y-96122568D01*
X104814581Y-96122572D01*
X104811155Y-96124861D01*
X104808061Y-96127575D01*
X104808055Y-96127579D01*
X104736302Y-96190505D01*
X104578710Y-96328710D01*
X104576001Y-96331799D01*
X104377579Y-96558055D01*
X104377575Y-96558061D01*
X104374861Y-96561155D01*
X104203096Y-96818219D01*
X104066354Y-97095504D01*
X103966975Y-97388265D01*
X103906660Y-97691493D01*
X103886439Y-98000000D01*
X100483452Y-98000000D01*
X100463657Y-97622291D01*
X100457210Y-97581583D01*
X100405005Y-97251982D01*
X100404489Y-97248721D01*
X100306597Y-96883382D01*
X100171053Y-96530277D01*
X100169555Y-96527337D01*
X100000840Y-96196215D01*
X100000836Y-96196208D01*
X99999341Y-96193274D01*
X99793344Y-95876066D01*
X99555318Y-95582129D01*
X99287871Y-95314682D01*
X98993934Y-95076656D01*
X98676726Y-94870659D01*
X98673792Y-94869164D01*
X98673785Y-94869160D01*
X98342663Y-94700445D01*
X98339723Y-94698947D01*
X97986618Y-94563403D01*
X97621279Y-94465511D01*
X97422842Y-94434082D01*
X97250957Y-94406857D01*
X97250949Y-94406856D01*
X97247709Y-94406343D01*
X96964489Y-94391500D01*
X96775511Y-94391500D01*
X96492291Y-94406343D01*
X96489051Y-94406856D01*
X96489043Y-94406857D01*
X96317158Y-94434082D01*
X96118721Y-94465511D01*
X95753382Y-94563403D01*
X95400277Y-94698947D01*
X95397337Y-94700445D01*
X95066215Y-94869160D01*
X95066208Y-94869164D01*
X95063274Y-94870659D01*
X94746066Y-95076656D01*
X94452129Y-95314682D01*
X94184682Y-95582129D01*
X93946656Y-95876066D01*
X93740659Y-96193274D01*
X93739164Y-96196208D01*
X93739160Y-96196215D01*
X93570445Y-96527337D01*
X93568947Y-96530277D01*
X93433403Y-96883382D01*
X93335511Y-97248721D01*
X93334995Y-97251982D01*
X93282791Y-97581583D01*
X93276343Y-97622291D01*
X93256548Y-98000000D01*
X50508000Y-98000000D01*
X50508000Y-93950000D01*
X71986411Y-93950000D01*
X72006754Y-94338176D01*
X72007267Y-94341416D01*
X72007268Y-94341424D01*
X72017632Y-94406857D01*
X72067562Y-94722099D01*
X72168167Y-95097562D01*
X72307468Y-95460453D01*
X72308966Y-95463393D01*
X72438173Y-95716975D01*
X72483938Y-95806794D01*
X72485734Y-95809560D01*
X72485736Y-95809563D01*
X72577761Y-95951270D01*
X72695643Y-96132793D01*
X72817955Y-96283835D01*
X72856796Y-96331799D01*
X72940266Y-96434876D01*
X73215124Y-96709734D01*
X73517207Y-96954357D01*
X73519970Y-96956152D01*
X73519971Y-96956152D01*
X73734556Y-97095504D01*
X73843206Y-97166062D01*
X73846140Y-97167557D01*
X73846147Y-97167561D01*
X73999174Y-97245532D01*
X74189547Y-97342532D01*
X74552438Y-97481833D01*
X74927901Y-97582438D01*
X75131793Y-97614732D01*
X75308576Y-97642732D01*
X75308584Y-97642733D01*
X75311824Y-97643246D01*
X75602894Y-97658500D01*
X75797106Y-97658500D01*
X76088176Y-97643246D01*
X76091416Y-97642733D01*
X76091424Y-97642732D01*
X76268207Y-97614732D01*
X76472099Y-97582438D01*
X76847562Y-97481833D01*
X77210453Y-97342532D01*
X77400826Y-97245532D01*
X77553853Y-97167561D01*
X77553860Y-97167557D01*
X77556794Y-97166062D01*
X77665445Y-97095504D01*
X77880029Y-96956152D01*
X77880030Y-96956152D01*
X77882793Y-96954357D01*
X78184876Y-96709734D01*
X78459734Y-96434876D01*
X78543205Y-96331799D01*
X78582046Y-96283834D01*
X78704357Y-96132793D01*
X78908669Y-95818180D01*
X78914264Y-95809564D01*
X78914266Y-95809561D01*
X78916062Y-95806795D01*
X78917562Y-95803853D01*
X79091034Y-95463393D01*
X79092532Y-95460453D01*
X79231833Y-95097562D01*
X79332438Y-94722099D01*
X79382368Y-94406857D01*
X79392732Y-94341424D01*
X79392733Y-94341416D01*
X79393246Y-94338176D01*
X79413589Y-93950000D01*
X79393246Y-93561824D01*
X79332438Y-93177901D01*
X79231833Y-92802438D01*
X79092532Y-92439547D01*
X78916062Y-92093206D01*
X78704357Y-91767207D01*
X78459734Y-91465124D01*
X78184876Y-91190266D01*
X77882793Y-90945643D01*
X77556794Y-90733938D01*
X77553860Y-90732443D01*
X77553853Y-90732439D01*
X77213393Y-90558966D01*
X77210453Y-90557468D01*
X76847562Y-90418167D01*
X76472099Y-90317562D01*
X76268207Y-90285268D01*
X76091424Y-90257268D01*
X76091416Y-90257267D01*
X76088176Y-90256754D01*
X75797106Y-90241500D01*
X75602894Y-90241500D01*
X75311824Y-90256754D01*
X75308584Y-90257267D01*
X75308576Y-90257268D01*
X75131793Y-90285268D01*
X74927901Y-90317562D01*
X74552438Y-90418167D01*
X74189547Y-90557468D01*
X74186607Y-90558966D01*
X73846147Y-90732439D01*
X73846140Y-90732443D01*
X73843206Y-90733938D01*
X73517207Y-90945643D01*
X73215124Y-91190266D01*
X72940266Y-91465124D01*
X72695643Y-91767207D01*
X72693848Y-91769970D01*
X72693848Y-91769971D01*
X72485736Y-92090436D01*
X72485734Y-92090439D01*
X72483938Y-92093205D01*
X72482443Y-92096139D01*
X72482439Y-92096146D01*
X72308966Y-92436607D01*
X72307468Y-92439547D01*
X72168167Y-92802438D01*
X72067562Y-93177901D01*
X72006754Y-93561824D01*
X71986411Y-93950000D01*
X50508000Y-93950000D01*
X50508000Y-86000000D01*
X93256548Y-86000000D01*
X93276343Y-86377709D01*
X93335511Y-86751279D01*
X93433403Y-87116618D01*
X93568947Y-87469723D01*
X93570445Y-87472663D01*
X93671651Y-87671290D01*
X93740659Y-87806726D01*
X93946656Y-88123934D01*
X94184682Y-88417871D01*
X94452129Y-88685318D01*
X94746066Y-88923344D01*
X95063274Y-89129341D01*
X95066208Y-89130836D01*
X95066215Y-89130840D01*
X95397337Y-89299555D01*
X95400277Y-89301053D01*
X95753382Y-89436597D01*
X96118721Y-89534489D01*
X96317158Y-89565918D01*
X96489043Y-89593143D01*
X96489051Y-89593144D01*
X96492291Y-89593657D01*
X96775511Y-89608500D01*
X96964489Y-89608500D01*
X97247709Y-89593657D01*
X97250949Y-89593144D01*
X97250957Y-89593143D01*
X97422842Y-89565918D01*
X97621279Y-89534489D01*
X97986618Y-89436597D01*
X98339723Y-89301053D01*
X98342663Y-89299555D01*
X98673785Y-89130840D01*
X98673792Y-89130836D01*
X98676726Y-89129341D01*
X98993934Y-88923344D01*
X99287871Y-88685318D01*
X99555318Y-88417871D01*
X99793344Y-88123934D01*
X99999341Y-87806726D01*
X100068350Y-87671290D01*
X100169555Y-87472663D01*
X100171053Y-87469723D01*
X100306597Y-87116618D01*
X100404489Y-86751279D01*
X100463657Y-86377709D01*
X100483452Y-86000000D01*
X103886439Y-86000000D01*
X103906660Y-86308507D01*
X103966975Y-86611735D01*
X104066354Y-86904496D01*
X104068177Y-86908192D01*
X104068180Y-86908200D01*
X104172485Y-87119708D01*
X104203096Y-87181780D01*
X104205390Y-87185213D01*
X104205391Y-87185214D01*
X104374861Y-87438845D01*
X104377575Y-87441939D01*
X104377579Y-87441945D01*
X104576001Y-87668201D01*
X104578710Y-87671290D01*
X104581799Y-87673999D01*
X104808055Y-87872421D01*
X104808061Y-87872425D01*
X104811155Y-87875139D01*
X104814581Y-87877428D01*
X104814586Y-87877432D01*
X105064785Y-88044609D01*
X105068220Y-88046904D01*
X105071923Y-88048730D01*
X105341800Y-88181820D01*
X105341808Y-88181823D01*
X105345504Y-88183646D01*
X105349419Y-88184975D01*
X105634358Y-88281699D01*
X105634361Y-88281700D01*
X105638265Y-88283025D01*
X105864961Y-88328117D01*
X105937450Y-88342536D01*
X105937453Y-88342536D01*
X105941493Y-88343340D01*
X105945604Y-88343609D01*
X105945608Y-88343610D01*
X106170737Y-88358366D01*
X106170746Y-88358366D01*
X106172786Y-88358500D01*
X106327214Y-88358500D01*
X106329254Y-88358366D01*
X106329263Y-88358366D01*
X106554392Y-88343610D01*
X106554396Y-88343609D01*
X106558507Y-88343340D01*
X106562547Y-88342536D01*
X106562550Y-88342536D01*
X106635039Y-88328117D01*
X106861735Y-88283025D01*
X106865639Y-88281700D01*
X106865642Y-88281699D01*
X107150581Y-88184975D01*
X107154496Y-88183646D01*
X107158192Y-88181823D01*
X107158200Y-88181820D01*
X107428077Y-88048730D01*
X107431780Y-88046904D01*
X107435215Y-88044609D01*
X107685414Y-87877432D01*
X107685419Y-87877428D01*
X107688845Y-87875139D01*
X107691939Y-87872425D01*
X107691945Y-87872421D01*
X107918201Y-87673999D01*
X107921290Y-87671290D01*
X107923999Y-87668201D01*
X108122421Y-87441945D01*
X108122425Y-87441939D01*
X108125139Y-87438845D01*
X108296904Y-87181781D01*
X108433646Y-86904496D01*
X108533025Y-86611735D01*
X108593340Y-86308507D01*
X108613561Y-86000000D01*
X108593340Y-85691493D01*
X108533025Y-85388265D01*
X108433646Y-85095504D01*
X108431822Y-85091806D01*
X108431820Y-85091800D01*
X108298730Y-84821923D01*
X108296904Y-84818220D01*
X108294610Y-84814787D01*
X108294609Y-84814785D01*
X108127432Y-84564586D01*
X108127428Y-84564581D01*
X108125139Y-84561155D01*
X108122425Y-84558061D01*
X108122421Y-84558055D01*
X107923999Y-84331799D01*
X107921290Y-84328710D01*
X107761805Y-84188845D01*
X107691945Y-84127579D01*
X107691939Y-84127575D01*
X107688845Y-84124861D01*
X107685419Y-84122572D01*
X107685414Y-84122568D01*
X107435215Y-83955391D01*
X107435213Y-83955390D01*
X107431780Y-83953096D01*
X107381047Y-83928077D01*
X107158200Y-83818180D01*
X107158192Y-83818177D01*
X107154496Y-83816354D01*
X107150581Y-83815025D01*
X106865642Y-83718301D01*
X106865639Y-83718300D01*
X106861735Y-83716975D01*
X106635039Y-83671883D01*
X106562550Y-83657464D01*
X106562547Y-83657464D01*
X106558507Y-83656660D01*
X106554396Y-83656391D01*
X106554392Y-83656390D01*
X106329263Y-83641634D01*
X106329254Y-83641634D01*
X106327214Y-83641500D01*
X106172786Y-83641500D01*
X106170746Y-83641634D01*
X106170737Y-83641634D01*
X105945608Y-83656390D01*
X105945604Y-83656391D01*
X105941493Y-83656660D01*
X105937453Y-83657464D01*
X105937450Y-83657464D01*
X105864961Y-83671883D01*
X105638265Y-83716975D01*
X105634361Y-83718300D01*
X105634358Y-83718301D01*
X105349419Y-83815025D01*
X105345504Y-83816354D01*
X105341808Y-83818177D01*
X105341800Y-83818180D01*
X105118953Y-83928077D01*
X105068220Y-83953096D01*
X105064787Y-83955390D01*
X105064785Y-83955391D01*
X104814586Y-84122568D01*
X104814581Y-84122572D01*
X104811155Y-84124861D01*
X104808061Y-84127575D01*
X104808055Y-84127579D01*
X104738195Y-84188845D01*
X104578710Y-84328710D01*
X104576001Y-84331799D01*
X104377579Y-84558055D01*
X104377575Y-84558061D01*
X104374861Y-84561155D01*
X104203096Y-84818219D01*
X104066354Y-85095504D01*
X103966975Y-85388265D01*
X103906660Y-85691493D01*
X103886439Y-86000000D01*
X100483452Y-86000000D01*
X100463657Y-85622291D01*
X100404489Y-85248721D01*
X100306597Y-84883382D01*
X100171053Y-84530277D01*
X100069923Y-84331799D01*
X100000840Y-84196215D01*
X100000836Y-84196208D01*
X99999341Y-84193274D01*
X99793344Y-83876066D01*
X99555318Y-83582129D01*
X99287871Y-83314682D01*
X98993934Y-83076656D01*
X98676726Y-82870659D01*
X98673792Y-82869164D01*
X98673785Y-82869160D01*
X98342663Y-82700445D01*
X98339723Y-82698947D01*
X97986618Y-82563403D01*
X97621279Y-82465511D01*
X97422842Y-82434082D01*
X97250957Y-82406857D01*
X97250949Y-82406856D01*
X97247709Y-82406343D01*
X96964489Y-82391500D01*
X96775511Y-82391500D01*
X96492291Y-82406343D01*
X96489051Y-82406856D01*
X96489043Y-82406857D01*
X96317158Y-82434082D01*
X96118721Y-82465511D01*
X95753382Y-82563403D01*
X95400277Y-82698947D01*
X95397337Y-82700445D01*
X95066215Y-82869160D01*
X95066208Y-82869164D01*
X95063274Y-82870659D01*
X94746066Y-83076656D01*
X94452129Y-83314682D01*
X94184682Y-83582129D01*
X93946656Y-83876066D01*
X93740659Y-84193274D01*
X93739164Y-84196208D01*
X93739160Y-84196215D01*
X93670077Y-84331799D01*
X93568947Y-84530277D01*
X93433403Y-84883382D01*
X93335511Y-85248721D01*
X93276343Y-85622291D01*
X93256548Y-86000000D01*
X50508000Y-86000000D01*
X50508000Y-82750000D01*
X68586439Y-82750000D01*
X68586709Y-82754119D01*
X68594348Y-82870659D01*
X68606660Y-83058507D01*
X68607464Y-83062547D01*
X68607464Y-83062550D01*
X68610270Y-83076656D01*
X68666975Y-83361735D01*
X68766354Y-83654496D01*
X68768177Y-83658192D01*
X68768180Y-83658200D01*
X68846174Y-83816354D01*
X68903096Y-83931780D01*
X68905390Y-83935213D01*
X68905391Y-83935214D01*
X69074861Y-84188845D01*
X69077575Y-84191939D01*
X69077579Y-84191945D01*
X69197519Y-84328710D01*
X69278710Y-84421290D01*
X69281799Y-84423999D01*
X69508055Y-84622421D01*
X69508061Y-84622425D01*
X69511155Y-84625139D01*
X69514581Y-84627428D01*
X69514586Y-84627432D01*
X69764785Y-84794609D01*
X69768220Y-84796904D01*
X69771923Y-84798730D01*
X70041800Y-84931820D01*
X70041808Y-84931823D01*
X70045504Y-84933646D01*
X70049419Y-84934975D01*
X70334358Y-85031699D01*
X70334361Y-85031700D01*
X70338265Y-85033025D01*
X70564961Y-85078117D01*
X70637450Y-85092536D01*
X70637453Y-85092536D01*
X70641493Y-85093340D01*
X70645604Y-85093609D01*
X70645608Y-85093610D01*
X70870737Y-85108366D01*
X70870746Y-85108366D01*
X70872786Y-85108500D01*
X71027214Y-85108500D01*
X71029254Y-85108366D01*
X71029263Y-85108366D01*
X71254392Y-85093610D01*
X71254396Y-85093609D01*
X71258507Y-85093340D01*
X71262547Y-85092536D01*
X71262550Y-85092536D01*
X71335039Y-85078117D01*
X71561735Y-85033025D01*
X71565639Y-85031700D01*
X71565642Y-85031699D01*
X71850581Y-84934975D01*
X71854496Y-84933646D01*
X71858192Y-84931823D01*
X71858200Y-84931820D01*
X72128077Y-84798730D01*
X72131780Y-84796904D01*
X72135215Y-84794609D01*
X72385414Y-84627432D01*
X72385419Y-84627428D01*
X72388845Y-84625139D01*
X72391939Y-84622425D01*
X72391945Y-84622421D01*
X72618201Y-84423999D01*
X72621290Y-84421290D01*
X72702481Y-84328710D01*
X72822421Y-84191945D01*
X72822425Y-84191939D01*
X72825139Y-84188845D01*
X72996904Y-83931781D01*
X73133646Y-83654496D01*
X73233025Y-83361735D01*
X73289730Y-83076656D01*
X73292536Y-83062550D01*
X73292536Y-83062547D01*
X73293340Y-83058507D01*
X73305653Y-82870659D01*
X73313291Y-82754119D01*
X73313561Y-82750000D01*
X78586439Y-82750000D01*
X78586709Y-82754119D01*
X78594348Y-82870659D01*
X78606660Y-83058507D01*
X78607464Y-83062547D01*
X78607464Y-83062550D01*
X78610270Y-83076656D01*
X78666975Y-83361735D01*
X78766354Y-83654496D01*
X78768177Y-83658192D01*
X78768180Y-83658200D01*
X78846174Y-83816354D01*
X78903096Y-83931780D01*
X78905390Y-83935213D01*
X78905391Y-83935214D01*
X79074861Y-84188845D01*
X79077575Y-84191939D01*
X79077579Y-84191945D01*
X79197519Y-84328710D01*
X79278710Y-84421290D01*
X79281799Y-84423999D01*
X79508055Y-84622421D01*
X79508061Y-84622425D01*
X79511155Y-84625139D01*
X79514581Y-84627428D01*
X79514586Y-84627432D01*
X79764785Y-84794609D01*
X79768220Y-84796904D01*
X79771923Y-84798730D01*
X80041800Y-84931820D01*
X80041808Y-84931823D01*
X80045504Y-84933646D01*
X80049419Y-84934975D01*
X80334358Y-85031699D01*
X80334361Y-85031700D01*
X80338265Y-85033025D01*
X80564961Y-85078117D01*
X80637450Y-85092536D01*
X80637453Y-85092536D01*
X80641493Y-85093340D01*
X80645604Y-85093609D01*
X80645608Y-85093610D01*
X80870737Y-85108366D01*
X80870746Y-85108366D01*
X80872786Y-85108500D01*
X81027214Y-85108500D01*
X81029254Y-85108366D01*
X81029263Y-85108366D01*
X81254392Y-85093610D01*
X81254396Y-85093609D01*
X81258507Y-85093340D01*
X81262547Y-85092536D01*
X81262550Y-85092536D01*
X81335039Y-85078117D01*
X81561735Y-85033025D01*
X81565639Y-85031700D01*
X81565642Y-85031699D01*
X81850581Y-84934975D01*
X81854496Y-84933646D01*
X81858192Y-84931823D01*
X81858200Y-84931820D01*
X82128077Y-84798730D01*
X82131780Y-84796904D01*
X82135215Y-84794609D01*
X82385414Y-84627432D01*
X82385419Y-84627428D01*
X82388845Y-84625139D01*
X82391939Y-84622425D01*
X82391945Y-84622421D01*
X82618201Y-84423999D01*
X82621290Y-84421290D01*
X82702481Y-84328710D01*
X82822421Y-84191945D01*
X82822425Y-84191939D01*
X82825139Y-84188845D01*
X82996904Y-83931781D01*
X83133646Y-83654496D01*
X83233025Y-83361735D01*
X83289730Y-83076656D01*
X83292536Y-83062550D01*
X83292536Y-83062547D01*
X83293340Y-83058507D01*
X83305653Y-82870659D01*
X83313291Y-82754119D01*
X83313561Y-82750000D01*
X83301275Y-82562548D01*
X83293610Y-82445608D01*
X83293609Y-82445604D01*
X83293340Y-82441493D01*
X83233025Y-82138265D01*
X83133646Y-81845504D01*
X83131822Y-81841806D01*
X83131820Y-81841800D01*
X82998730Y-81571923D01*
X82996904Y-81568220D01*
X82994610Y-81564787D01*
X82994609Y-81564785D01*
X82827432Y-81314586D01*
X82827428Y-81314581D01*
X82825139Y-81311155D01*
X82822425Y-81308061D01*
X82822421Y-81308055D01*
X82623999Y-81081799D01*
X82621290Y-81078710D01*
X82618201Y-81076001D01*
X82391945Y-80877579D01*
X82391939Y-80877575D01*
X82388845Y-80874861D01*
X82385419Y-80872572D01*
X82385414Y-80872568D01*
X82135215Y-80705391D01*
X82135213Y-80705390D01*
X82131780Y-80703096D01*
X82082352Y-80678721D01*
X81858200Y-80568180D01*
X81858192Y-80568177D01*
X81854496Y-80566354D01*
X81850581Y-80565025D01*
X81565642Y-80468301D01*
X81565639Y-80468300D01*
X81561735Y-80466975D01*
X81335039Y-80421883D01*
X81262550Y-80407464D01*
X81262547Y-80407464D01*
X81258507Y-80406660D01*
X81254396Y-80406391D01*
X81254392Y-80406390D01*
X81029263Y-80391634D01*
X81029254Y-80391634D01*
X81027214Y-80391500D01*
X80872786Y-80391500D01*
X80870746Y-80391634D01*
X80870737Y-80391634D01*
X80645608Y-80406390D01*
X80645604Y-80406391D01*
X80641493Y-80406660D01*
X80637453Y-80407464D01*
X80637450Y-80407464D01*
X80564961Y-80421883D01*
X80338265Y-80466975D01*
X80334361Y-80468300D01*
X80334358Y-80468301D01*
X80049419Y-80565025D01*
X80045504Y-80566354D01*
X80041808Y-80568177D01*
X80041800Y-80568180D01*
X79817648Y-80678721D01*
X79768220Y-80703096D01*
X79764787Y-80705390D01*
X79764785Y-80705391D01*
X79514586Y-80872568D01*
X79514581Y-80872572D01*
X79511155Y-80874861D01*
X79508061Y-80877575D01*
X79508055Y-80877579D01*
X79281799Y-81076001D01*
X79278710Y-81078710D01*
X79276001Y-81081799D01*
X79077579Y-81308055D01*
X79077575Y-81308061D01*
X79074861Y-81311155D01*
X78903096Y-81568219D01*
X78766354Y-81845504D01*
X78666975Y-82138265D01*
X78606660Y-82441493D01*
X78606391Y-82445604D01*
X78606390Y-82445608D01*
X78598725Y-82562548D01*
X78586439Y-82750000D01*
X73313561Y-82750000D01*
X73301275Y-82562548D01*
X73293610Y-82445608D01*
X73293609Y-82445604D01*
X73293340Y-82441493D01*
X73233025Y-82138265D01*
X73133646Y-81845504D01*
X73131822Y-81841806D01*
X73131820Y-81841800D01*
X72998730Y-81571923D01*
X72996904Y-81568220D01*
X72994610Y-81564787D01*
X72994609Y-81564785D01*
X72827432Y-81314586D01*
X72827428Y-81314581D01*
X72825139Y-81311155D01*
X72822425Y-81308061D01*
X72822421Y-81308055D01*
X72623999Y-81081799D01*
X72621290Y-81078710D01*
X72618201Y-81076001D01*
X72391945Y-80877579D01*
X72391939Y-80877575D01*
X72388845Y-80874861D01*
X72385419Y-80872572D01*
X72385414Y-80872568D01*
X72135215Y-80705391D01*
X72135213Y-80705390D01*
X72131780Y-80703096D01*
X72082352Y-80678721D01*
X71858200Y-80568180D01*
X71858192Y-80568177D01*
X71854496Y-80566354D01*
X71850581Y-80565025D01*
X71565642Y-80468301D01*
X71565639Y-80468300D01*
X71561735Y-80466975D01*
X71335039Y-80421883D01*
X71262550Y-80407464D01*
X71262547Y-80407464D01*
X71258507Y-80406660D01*
X71254396Y-80406391D01*
X71254392Y-80406390D01*
X71029263Y-80391634D01*
X71029254Y-80391634D01*
X71027214Y-80391500D01*
X70872786Y-80391500D01*
X70870746Y-80391634D01*
X70870737Y-80391634D01*
X70645608Y-80406390D01*
X70645604Y-80406391D01*
X70641493Y-80406660D01*
X70637453Y-80407464D01*
X70637450Y-80407464D01*
X70564961Y-80421883D01*
X70338265Y-80466975D01*
X70334361Y-80468300D01*
X70334358Y-80468301D01*
X70049419Y-80565025D01*
X70045504Y-80566354D01*
X70041808Y-80568177D01*
X70041800Y-80568180D01*
X69817648Y-80678721D01*
X69768220Y-80703096D01*
X69764787Y-80705390D01*
X69764785Y-80705391D01*
X69514586Y-80872568D01*
X69514581Y-80872572D01*
X69511155Y-80874861D01*
X69508061Y-80877575D01*
X69508055Y-80877579D01*
X69281799Y-81076001D01*
X69278710Y-81078710D01*
X69276001Y-81081799D01*
X69077579Y-81308055D01*
X69077575Y-81308061D01*
X69074861Y-81311155D01*
X68903096Y-81568219D01*
X68766354Y-81845504D01*
X68666975Y-82138265D01*
X68606660Y-82441493D01*
X68606391Y-82445604D01*
X68606390Y-82445608D01*
X68598725Y-82562548D01*
X68586439Y-82750000D01*
X50508000Y-82750000D01*
X50508000Y-74000000D01*
X93256548Y-74000000D01*
X93276343Y-74377709D01*
X93335511Y-74751279D01*
X93433403Y-75116618D01*
X93568947Y-75469723D01*
X93570445Y-75472663D01*
X93671651Y-75671290D01*
X93740659Y-75806726D01*
X93946656Y-76123934D01*
X94184682Y-76417871D01*
X94452129Y-76685318D01*
X94746066Y-76923344D01*
X95063274Y-77129341D01*
X95066208Y-77130836D01*
X95066215Y-77130840D01*
X95397337Y-77299555D01*
X95400277Y-77301053D01*
X95753382Y-77436597D01*
X96118721Y-77534489D01*
X96317158Y-77565918D01*
X96489043Y-77593143D01*
X96489051Y-77593144D01*
X96492291Y-77593657D01*
X96775511Y-77608500D01*
X96964489Y-77608500D01*
X97247709Y-77593657D01*
X97250949Y-77593144D01*
X97250957Y-77593143D01*
X97422842Y-77565918D01*
X97621279Y-77534489D01*
X97986618Y-77436597D01*
X98339723Y-77301053D01*
X98342663Y-77299555D01*
X98673785Y-77130840D01*
X98673792Y-77130836D01*
X98676726Y-77129341D01*
X98993934Y-76923344D01*
X99287871Y-76685318D01*
X99555318Y-76417871D01*
X99793344Y-76123934D01*
X99999341Y-75806726D01*
X100068350Y-75671290D01*
X100169555Y-75472663D01*
X100171053Y-75469723D01*
X100306597Y-75116618D01*
X100404489Y-74751279D01*
X100463657Y-74377709D01*
X100483452Y-74000000D01*
X103886439Y-74000000D01*
X103906660Y-74308507D01*
X103966975Y-74611735D01*
X104066354Y-74904496D01*
X104068177Y-74908192D01*
X104068180Y-74908200D01*
X104172485Y-75119708D01*
X104203096Y-75181780D01*
X104205390Y-75185213D01*
X104205391Y-75185214D01*
X104374861Y-75438845D01*
X104377575Y-75441939D01*
X104377579Y-75441945D01*
X104576001Y-75668201D01*
X104578710Y-75671290D01*
X104581799Y-75673999D01*
X104808055Y-75872421D01*
X104808061Y-75872425D01*
X104811155Y-75875139D01*
X104814581Y-75877428D01*
X104814586Y-75877432D01*
X105064785Y-76044609D01*
X105068220Y-76046904D01*
X105071923Y-76048730D01*
X105341800Y-76181820D01*
X105341808Y-76181823D01*
X105345504Y-76183646D01*
X105349419Y-76184975D01*
X105634358Y-76281699D01*
X105634361Y-76281700D01*
X105638265Y-76283025D01*
X105864961Y-76328117D01*
X105937450Y-76342536D01*
X105937453Y-76342536D01*
X105941493Y-76343340D01*
X105945604Y-76343609D01*
X105945608Y-76343610D01*
X106170737Y-76358366D01*
X106170746Y-76358366D01*
X106172786Y-76358500D01*
X106327214Y-76358500D01*
X106329254Y-76358366D01*
X106329263Y-76358366D01*
X106554392Y-76343610D01*
X106554396Y-76343609D01*
X106558507Y-76343340D01*
X106562547Y-76342536D01*
X106562550Y-76342536D01*
X106635039Y-76328117D01*
X106861735Y-76283025D01*
X106865639Y-76281700D01*
X106865642Y-76281699D01*
X107150581Y-76184975D01*
X107154496Y-76183646D01*
X107158192Y-76181823D01*
X107158200Y-76181820D01*
X107428077Y-76048730D01*
X107431780Y-76046904D01*
X107435215Y-76044609D01*
X107685414Y-75877432D01*
X107685419Y-75877428D01*
X107688845Y-75875139D01*
X107691939Y-75872425D01*
X107691945Y-75872421D01*
X107918201Y-75673999D01*
X107921290Y-75671290D01*
X107923999Y-75668201D01*
X108122421Y-75441945D01*
X108122425Y-75441939D01*
X108125139Y-75438845D01*
X108296904Y-75181781D01*
X108433646Y-74904496D01*
X108533025Y-74611735D01*
X108593340Y-74308507D01*
X108613561Y-74000000D01*
X108593340Y-73691493D01*
X108533025Y-73388265D01*
X108433646Y-73095504D01*
X108431822Y-73091806D01*
X108431820Y-73091800D01*
X108298730Y-72821923D01*
X108296904Y-72818220D01*
X108294610Y-72814787D01*
X108294609Y-72814785D01*
X108127432Y-72564586D01*
X108127428Y-72564581D01*
X108125139Y-72561155D01*
X108122425Y-72558061D01*
X108122421Y-72558055D01*
X107923999Y-72331799D01*
X107921290Y-72328710D01*
X107840434Y-72257801D01*
X107691945Y-72127579D01*
X107691939Y-72127575D01*
X107688845Y-72124861D01*
X107685419Y-72122572D01*
X107685414Y-72122568D01*
X107435215Y-71955391D01*
X107435213Y-71955390D01*
X107431780Y-71953096D01*
X107371287Y-71923264D01*
X107158200Y-71818180D01*
X107158192Y-71818177D01*
X107154496Y-71816354D01*
X107081143Y-71791454D01*
X106865642Y-71718301D01*
X106865639Y-71718300D01*
X106861735Y-71716975D01*
X106635039Y-71671883D01*
X106562550Y-71657464D01*
X106562547Y-71657464D01*
X106558507Y-71656660D01*
X106554396Y-71656391D01*
X106554392Y-71656390D01*
X106329263Y-71641634D01*
X106329254Y-71641634D01*
X106327214Y-71641500D01*
X106172786Y-71641500D01*
X106170746Y-71641634D01*
X106170737Y-71641634D01*
X105945608Y-71656390D01*
X105945604Y-71656391D01*
X105941493Y-71656660D01*
X105937453Y-71657464D01*
X105937450Y-71657464D01*
X105864961Y-71671883D01*
X105638265Y-71716975D01*
X105634361Y-71718300D01*
X105634358Y-71718301D01*
X105418857Y-71791454D01*
X105345504Y-71816354D01*
X105341808Y-71818177D01*
X105341800Y-71818180D01*
X105128713Y-71923264D01*
X105068220Y-71953096D01*
X105064787Y-71955390D01*
X105064785Y-71955391D01*
X104814586Y-72122568D01*
X104814581Y-72122572D01*
X104811155Y-72124861D01*
X104808061Y-72127575D01*
X104808055Y-72127579D01*
X104659566Y-72257801D01*
X104578710Y-72328710D01*
X104576001Y-72331799D01*
X104377579Y-72558055D01*
X104377575Y-72558061D01*
X104374861Y-72561155D01*
X104203096Y-72818219D01*
X104066354Y-73095504D01*
X103966975Y-73388265D01*
X103906660Y-73691493D01*
X103886439Y-74000000D01*
X100483452Y-74000000D01*
X100463657Y-73622291D01*
X100404489Y-73248721D01*
X100306597Y-72883382D01*
X100171053Y-72530277D01*
X100069923Y-72331799D01*
X100000840Y-72196215D01*
X100000836Y-72196208D01*
X99999341Y-72193274D01*
X99994671Y-72186082D01*
X99803158Y-71891179D01*
X99793344Y-71876066D01*
X99555318Y-71582129D01*
X99287871Y-71314682D01*
X98993934Y-71076656D01*
X98676726Y-70870659D01*
X98673792Y-70869164D01*
X98673785Y-70869160D01*
X98342663Y-70700445D01*
X98339723Y-70698947D01*
X97986618Y-70563403D01*
X97621279Y-70465511D01*
X97422842Y-70434082D01*
X97250957Y-70406857D01*
X97250949Y-70406856D01*
X97247709Y-70406343D01*
X96964489Y-70391500D01*
X96775511Y-70391500D01*
X96492291Y-70406343D01*
X96489051Y-70406856D01*
X96489043Y-70406857D01*
X96317158Y-70434082D01*
X96118721Y-70465511D01*
X95753382Y-70563403D01*
X95400277Y-70698947D01*
X95397337Y-70700445D01*
X95066215Y-70869160D01*
X95066208Y-70869164D01*
X95063274Y-70870659D01*
X94746066Y-71076656D01*
X94452129Y-71314682D01*
X94184682Y-71582129D01*
X93946656Y-71876066D01*
X93936842Y-71891179D01*
X93745330Y-72186082D01*
X93740659Y-72193274D01*
X93739164Y-72196208D01*
X93739160Y-72196215D01*
X93670077Y-72331799D01*
X93568947Y-72530277D01*
X93433403Y-72883382D01*
X93335511Y-73248721D01*
X93276343Y-73622291D01*
X93256548Y-74000000D01*
X50508000Y-74000000D01*
X50508000Y-71819652D01*
X62191524Y-71819652D01*
X62193990Y-71828281D01*
X62193991Y-71828286D01*
X62199639Y-71848048D01*
X62203217Y-71864809D01*
X62206130Y-71885152D01*
X62206133Y-71885162D01*
X62207405Y-71894045D01*
X62218021Y-71917395D01*
X62224464Y-71934907D01*
X62231512Y-71959565D01*
X62247274Y-71984548D01*
X62255404Y-71999614D01*
X62267633Y-72026510D01*
X62284374Y-72045939D01*
X62295479Y-72060947D01*
X62309160Y-72082631D01*
X62315888Y-72088573D01*
X62331296Y-72102181D01*
X62343340Y-72114373D01*
X62362619Y-72136747D01*
X62370147Y-72141626D01*
X62370150Y-72141629D01*
X62384139Y-72150696D01*
X62399013Y-72161986D01*
X62418228Y-72178956D01*
X62426354Y-72182771D01*
X62426355Y-72182772D01*
X62432021Y-72185432D01*
X62444966Y-72191510D01*
X62459935Y-72199824D01*
X62484727Y-72215893D01*
X62501650Y-72220954D01*
X62509290Y-72223239D01*
X62526736Y-72229901D01*
X62549948Y-72240799D01*
X62579130Y-72245343D01*
X62595849Y-72249126D01*
X62615536Y-72255014D01*
X62615539Y-72255015D01*
X62624141Y-72257587D01*
X62633116Y-72257642D01*
X62633117Y-72257642D01*
X62639810Y-72257683D01*
X62658556Y-72257797D01*
X62659328Y-72257830D01*
X62660423Y-72258000D01*
X62691298Y-72258000D01*
X62692068Y-72258002D01*
X62765716Y-72258452D01*
X62765717Y-72258452D01*
X62769652Y-72258476D01*
X62770996Y-72258092D01*
X62772341Y-72258000D01*
X88691298Y-72258000D01*
X88692069Y-72258002D01*
X88769652Y-72258476D01*
X88778281Y-72256010D01*
X88778286Y-72256009D01*
X88798048Y-72250361D01*
X88814809Y-72246783D01*
X88835152Y-72243870D01*
X88835162Y-72243867D01*
X88844045Y-72242595D01*
X88867395Y-72231979D01*
X88884907Y-72225536D01*
X88900937Y-72220954D01*
X88909565Y-72218488D01*
X88934548Y-72202726D01*
X88949614Y-72194596D01*
X88976510Y-72182367D01*
X88995939Y-72165626D01*
X89010947Y-72154521D01*
X89025039Y-72145630D01*
X89032631Y-72140840D01*
X89052182Y-72118703D01*
X89064374Y-72106659D01*
X89079949Y-72093239D01*
X89079950Y-72093237D01*
X89086747Y-72087381D01*
X89091626Y-72079853D01*
X89091629Y-72079850D01*
X89100696Y-72065861D01*
X89111986Y-72050987D01*
X89123012Y-72038502D01*
X89128956Y-72031772D01*
X89141510Y-72005034D01*
X89149824Y-71990065D01*
X89165893Y-71965273D01*
X89173239Y-71940709D01*
X89179901Y-71923264D01*
X89186983Y-71908179D01*
X89190799Y-71900052D01*
X89195343Y-71870870D01*
X89199126Y-71854151D01*
X89205014Y-71834464D01*
X89205015Y-71834461D01*
X89207587Y-71825859D01*
X89207797Y-71791444D01*
X89207830Y-71790672D01*
X89208000Y-71789577D01*
X89208000Y-71758702D01*
X89208002Y-71757932D01*
X89208452Y-71684284D01*
X89208452Y-71684283D01*
X89208476Y-71680348D01*
X89208092Y-71679004D01*
X89208000Y-71677659D01*
X89208000Y-62000000D01*
X93256548Y-62000000D01*
X93276343Y-62377709D01*
X93335511Y-62751279D01*
X93433403Y-63116618D01*
X93568947Y-63469723D01*
X93570445Y-63472663D01*
X93671651Y-63671290D01*
X93740659Y-63806726D01*
X93946656Y-64123934D01*
X94184682Y-64417871D01*
X94452129Y-64685318D01*
X94746066Y-64923344D01*
X95063274Y-65129341D01*
X95066208Y-65130836D01*
X95066215Y-65130840D01*
X95397337Y-65299555D01*
X95400277Y-65301053D01*
X95753382Y-65436597D01*
X96118721Y-65534489D01*
X96317158Y-65565918D01*
X96489043Y-65593143D01*
X96489051Y-65593144D01*
X96492291Y-65593657D01*
X96775511Y-65608500D01*
X96964489Y-65608500D01*
X97247709Y-65593657D01*
X97250949Y-65593144D01*
X97250957Y-65593143D01*
X97422842Y-65565918D01*
X97621279Y-65534489D01*
X97986618Y-65436597D01*
X98339723Y-65301053D01*
X98342663Y-65299555D01*
X98673785Y-65130840D01*
X98673792Y-65130836D01*
X98676726Y-65129341D01*
X98993934Y-64923344D01*
X99287871Y-64685318D01*
X99555318Y-64417871D01*
X99793344Y-64123934D01*
X99999341Y-63806726D01*
X100068350Y-63671290D01*
X100169555Y-63472663D01*
X100171053Y-63469723D01*
X100306597Y-63116618D01*
X100404489Y-62751279D01*
X100463657Y-62377709D01*
X100483452Y-62000000D01*
X103886439Y-62000000D01*
X103906660Y-62308507D01*
X103966975Y-62611735D01*
X104066354Y-62904496D01*
X104068177Y-62908192D01*
X104068180Y-62908200D01*
X104172485Y-63119708D01*
X104203096Y-63181780D01*
X104205390Y-63185213D01*
X104205391Y-63185214D01*
X104374861Y-63438845D01*
X104377575Y-63441939D01*
X104377579Y-63441945D01*
X104576001Y-63668201D01*
X104578710Y-63671290D01*
X104581799Y-63673999D01*
X104808055Y-63872421D01*
X104808061Y-63872425D01*
X104811155Y-63875139D01*
X104814581Y-63877428D01*
X104814586Y-63877432D01*
X105064785Y-64044609D01*
X105068220Y-64046904D01*
X105071923Y-64048730D01*
X105341800Y-64181820D01*
X105341808Y-64181823D01*
X105345504Y-64183646D01*
X105349419Y-64184975D01*
X105634358Y-64281699D01*
X105634361Y-64281700D01*
X105638265Y-64283025D01*
X105864961Y-64328117D01*
X105937450Y-64342536D01*
X105937453Y-64342536D01*
X105941493Y-64343340D01*
X105945604Y-64343609D01*
X105945608Y-64343610D01*
X106170737Y-64358366D01*
X106170746Y-64358366D01*
X106172786Y-64358500D01*
X106327214Y-64358500D01*
X106329254Y-64358366D01*
X106329263Y-64358366D01*
X106554392Y-64343610D01*
X106554396Y-64343609D01*
X106558507Y-64343340D01*
X106562547Y-64342536D01*
X106562550Y-64342536D01*
X106635039Y-64328117D01*
X106861735Y-64283025D01*
X106865639Y-64281700D01*
X106865642Y-64281699D01*
X107150581Y-64184975D01*
X107154496Y-64183646D01*
X107158192Y-64181823D01*
X107158200Y-64181820D01*
X107428077Y-64048730D01*
X107431780Y-64046904D01*
X107435215Y-64044609D01*
X107685414Y-63877432D01*
X107685419Y-63877428D01*
X107688845Y-63875139D01*
X107691939Y-63872425D01*
X107691945Y-63872421D01*
X107918201Y-63673999D01*
X107921290Y-63671290D01*
X107923999Y-63668201D01*
X108122421Y-63441945D01*
X108122425Y-63441939D01*
X108125139Y-63438845D01*
X108296904Y-63181781D01*
X108433646Y-62904496D01*
X108533025Y-62611735D01*
X108593340Y-62308507D01*
X108613561Y-62000000D01*
X108595696Y-61727432D01*
X108593610Y-61695608D01*
X108593609Y-61695604D01*
X108593340Y-61691493D01*
X108533025Y-61388265D01*
X108499277Y-61288845D01*
X108434975Y-61099419D01*
X108433646Y-61095504D01*
X108431822Y-61091806D01*
X108431820Y-61091800D01*
X108298730Y-60821923D01*
X108296904Y-60818220D01*
X108294610Y-60814787D01*
X108294609Y-60814785D01*
X108127432Y-60564586D01*
X108127428Y-60564581D01*
X108125139Y-60561155D01*
X108122425Y-60558061D01*
X108122421Y-60558055D01*
X107923999Y-60331799D01*
X107921290Y-60328710D01*
X107763698Y-60190505D01*
X107691945Y-60127579D01*
X107691939Y-60127575D01*
X107688845Y-60124861D01*
X107685419Y-60122572D01*
X107685414Y-60122568D01*
X107435215Y-59955391D01*
X107435213Y-59955390D01*
X107431780Y-59953096D01*
X107382352Y-59928721D01*
X107158200Y-59818180D01*
X107158192Y-59818177D01*
X107154496Y-59816354D01*
X107150581Y-59815025D01*
X106865642Y-59718301D01*
X106865639Y-59718300D01*
X106861735Y-59716975D01*
X106635039Y-59671883D01*
X106562550Y-59657464D01*
X106562547Y-59657464D01*
X106558507Y-59656660D01*
X106554396Y-59656391D01*
X106554392Y-59656390D01*
X106329263Y-59641634D01*
X106329254Y-59641634D01*
X106327214Y-59641500D01*
X106172786Y-59641500D01*
X106170746Y-59641634D01*
X106170737Y-59641634D01*
X105945608Y-59656390D01*
X105945604Y-59656391D01*
X105941493Y-59656660D01*
X105937453Y-59657464D01*
X105937450Y-59657464D01*
X105864961Y-59671883D01*
X105638265Y-59716975D01*
X105634361Y-59718300D01*
X105634358Y-59718301D01*
X105349419Y-59815025D01*
X105345504Y-59816354D01*
X105341808Y-59818177D01*
X105341800Y-59818180D01*
X105117648Y-59928721D01*
X105068220Y-59953096D01*
X105064787Y-59955390D01*
X105064785Y-59955391D01*
X104814586Y-60122568D01*
X104814581Y-60122572D01*
X104811155Y-60124861D01*
X104808061Y-60127575D01*
X104808055Y-60127579D01*
X104736302Y-60190505D01*
X104578710Y-60328710D01*
X104576001Y-60331799D01*
X104377579Y-60558055D01*
X104377575Y-60558061D01*
X104374861Y-60561155D01*
X104203096Y-60818219D01*
X104066354Y-61095504D01*
X104065029Y-61099409D01*
X104065028Y-61099410D01*
X104000724Y-61288845D01*
X103966975Y-61388265D01*
X103906660Y-61691493D01*
X103906391Y-61695604D01*
X103906390Y-61695608D01*
X103904304Y-61727432D01*
X103886439Y-62000000D01*
X100483452Y-62000000D01*
X100463657Y-61622291D01*
X100404489Y-61248721D01*
X100306597Y-60883382D01*
X100171053Y-60530277D01*
X100069923Y-60331799D01*
X100000840Y-60196215D01*
X100000836Y-60196208D01*
X99999341Y-60193274D01*
X99793344Y-59876066D01*
X99555318Y-59582129D01*
X99287871Y-59314682D01*
X98993934Y-59076656D01*
X98676726Y-58870659D01*
X98673792Y-58869164D01*
X98673785Y-58869160D01*
X98342663Y-58700445D01*
X98339723Y-58698947D01*
X97986618Y-58563403D01*
X97621279Y-58465511D01*
X97422842Y-58434082D01*
X97250957Y-58406857D01*
X97250949Y-58406856D01*
X97247709Y-58406343D01*
X96964489Y-58391500D01*
X96775511Y-58391500D01*
X96492291Y-58406343D01*
X96489051Y-58406856D01*
X96489043Y-58406857D01*
X96317158Y-58434082D01*
X96118721Y-58465511D01*
X95753382Y-58563403D01*
X95400277Y-58698947D01*
X95397337Y-58700445D01*
X95066215Y-58869160D01*
X95066208Y-58869164D01*
X95063274Y-58870659D01*
X94746066Y-59076656D01*
X94452129Y-59314682D01*
X94184682Y-59582129D01*
X93946656Y-59876066D01*
X93740659Y-60193274D01*
X93739164Y-60196208D01*
X93739160Y-60196215D01*
X93670077Y-60331799D01*
X93568947Y-60530277D01*
X93433403Y-60883382D01*
X93335511Y-61248721D01*
X93276343Y-61622291D01*
X93256548Y-62000000D01*
X89208000Y-62000000D01*
X89208000Y-56758702D01*
X89208002Y-56757932D01*
X89208421Y-56689322D01*
X89208476Y-56680348D01*
X89206010Y-56671719D01*
X89206009Y-56671714D01*
X89200361Y-56651952D01*
X89196783Y-56635191D01*
X89193870Y-56614848D01*
X89193867Y-56614838D01*
X89192595Y-56605955D01*
X89181979Y-56582605D01*
X89175536Y-56565093D01*
X89170954Y-56549063D01*
X89168488Y-56540435D01*
X89152726Y-56515452D01*
X89144596Y-56500386D01*
X89132367Y-56473490D01*
X89115626Y-56454061D01*
X89104521Y-56439053D01*
X89095630Y-56424961D01*
X89090840Y-56417369D01*
X89068703Y-56397818D01*
X89056659Y-56385626D01*
X89043239Y-56370051D01*
X89043237Y-56370050D01*
X89037381Y-56363253D01*
X89029853Y-56358374D01*
X89029850Y-56358371D01*
X89015861Y-56349304D01*
X89000987Y-56338014D01*
X88988502Y-56326988D01*
X88981772Y-56321044D01*
X88973646Y-56317229D01*
X88973645Y-56317228D01*
X88967979Y-56314568D01*
X88955034Y-56308490D01*
X88940065Y-56300176D01*
X88915273Y-56284107D01*
X88890709Y-56276761D01*
X88873264Y-56270099D01*
X88868827Y-56268016D01*
X88850052Y-56259201D01*
X88820870Y-56254657D01*
X88804151Y-56250874D01*
X88784464Y-56244986D01*
X88784461Y-56244985D01*
X88775859Y-56242413D01*
X88766884Y-56242358D01*
X88766883Y-56242358D01*
X88760190Y-56242317D01*
X88741444Y-56242203D01*
X88740672Y-56242170D01*
X88739577Y-56242000D01*
X88708702Y-56242000D01*
X88707932Y-56241998D01*
X88634284Y-56241548D01*
X88634283Y-56241548D01*
X88630348Y-56241524D01*
X88629004Y-56241908D01*
X88627659Y-56242000D01*
X62708702Y-56242000D01*
X62707932Y-56241998D01*
X62707078Y-56241993D01*
X62630348Y-56241524D01*
X62621719Y-56243990D01*
X62621714Y-56243991D01*
X62601952Y-56249639D01*
X62585191Y-56253217D01*
X62564848Y-56256130D01*
X62564838Y-56256133D01*
X62555955Y-56257405D01*
X62532605Y-56268021D01*
X62515093Y-56274464D01*
X62507057Y-56276761D01*
X62490435Y-56281512D01*
X62465452Y-56297274D01*
X62450386Y-56305404D01*
X62423490Y-56317633D01*
X62404061Y-56334374D01*
X62389053Y-56345479D01*
X62367369Y-56359160D01*
X62361427Y-56365888D01*
X62347819Y-56381296D01*
X62335627Y-56393340D01*
X62313253Y-56412619D01*
X62308374Y-56420147D01*
X62308371Y-56420150D01*
X62299304Y-56434139D01*
X62288014Y-56449013D01*
X62271044Y-56468228D01*
X62258490Y-56494966D01*
X62250176Y-56509935D01*
X62234107Y-56534727D01*
X62231535Y-56543327D01*
X62226761Y-56559290D01*
X62220099Y-56576736D01*
X62209201Y-56599948D01*
X62204658Y-56629128D01*
X62200874Y-56645849D01*
X62194986Y-56665536D01*
X62194985Y-56665539D01*
X62192413Y-56674141D01*
X62192358Y-56683116D01*
X62192358Y-56683117D01*
X62192203Y-56708546D01*
X62192170Y-56709328D01*
X62192000Y-56710423D01*
X62192000Y-56741298D01*
X62191998Y-56742068D01*
X62191524Y-56819652D01*
X62191908Y-56820996D01*
X62192000Y-56822341D01*
X62192000Y-71741298D01*
X62191998Y-71742068D01*
X62191524Y-71819652D01*
X50508000Y-71819652D01*
X50508000Y-67700000D01*
X55486439Y-67700000D01*
X55506660Y-68008507D01*
X55566975Y-68311735D01*
X55666354Y-68604496D01*
X55668177Y-68608192D01*
X55668180Y-68608200D01*
X55778721Y-68832352D01*
X55803096Y-68881780D01*
X55805390Y-68885213D01*
X55805391Y-68885214D01*
X55974861Y-69138845D01*
X55977575Y-69141939D01*
X55977579Y-69141945D01*
X56176001Y-69368201D01*
X56178710Y-69371290D01*
X56181799Y-69373999D01*
X56408055Y-69572421D01*
X56408061Y-69572425D01*
X56411155Y-69575139D01*
X56414581Y-69577428D01*
X56414586Y-69577432D01*
X56664785Y-69744609D01*
X56668220Y-69746904D01*
X56671923Y-69748730D01*
X56941800Y-69881820D01*
X56941808Y-69881823D01*
X56945504Y-69883646D01*
X56949419Y-69884975D01*
X57234358Y-69981699D01*
X57234361Y-69981700D01*
X57238265Y-69983025D01*
X57464961Y-70028117D01*
X57537450Y-70042536D01*
X57537453Y-70042536D01*
X57541493Y-70043340D01*
X57545604Y-70043609D01*
X57545608Y-70043610D01*
X57770737Y-70058366D01*
X57770746Y-70058366D01*
X57772786Y-70058500D01*
X57927214Y-70058500D01*
X57929254Y-70058366D01*
X57929263Y-70058366D01*
X58154392Y-70043610D01*
X58154396Y-70043609D01*
X58158507Y-70043340D01*
X58162547Y-70042536D01*
X58162550Y-70042536D01*
X58235039Y-70028117D01*
X58461735Y-69983025D01*
X58465639Y-69981700D01*
X58465642Y-69981699D01*
X58750581Y-69884975D01*
X58754496Y-69883646D01*
X58758192Y-69881823D01*
X58758200Y-69881820D01*
X59028077Y-69748730D01*
X59031780Y-69746904D01*
X59035215Y-69744609D01*
X59285414Y-69577432D01*
X59285419Y-69577428D01*
X59288845Y-69575139D01*
X59291939Y-69572425D01*
X59291945Y-69572421D01*
X59518201Y-69373999D01*
X59521290Y-69371290D01*
X59523999Y-69368201D01*
X59722421Y-69141945D01*
X59722425Y-69141939D01*
X59725139Y-69138845D01*
X59896904Y-68881781D01*
X60033646Y-68604496D01*
X60133025Y-68311735D01*
X60193340Y-68008507D01*
X60213561Y-67700000D01*
X60193340Y-67391493D01*
X60133025Y-67088265D01*
X60033646Y-66795504D01*
X60031822Y-66791806D01*
X60031820Y-66791800D01*
X59898730Y-66521923D01*
X59896904Y-66518220D01*
X59894610Y-66514787D01*
X59894609Y-66514785D01*
X59727432Y-66264586D01*
X59727428Y-66264581D01*
X59725139Y-66261155D01*
X59722425Y-66258061D01*
X59722421Y-66258055D01*
X59523999Y-66031799D01*
X59521290Y-66028710D01*
X59518201Y-66026001D01*
X59291945Y-65827579D01*
X59291939Y-65827575D01*
X59288845Y-65824861D01*
X59285419Y-65822572D01*
X59285414Y-65822568D01*
X59035215Y-65655391D01*
X59035213Y-65655390D01*
X59031780Y-65653096D01*
X58911599Y-65593829D01*
X58758200Y-65518180D01*
X58758192Y-65518177D01*
X58754496Y-65516354D01*
X58750581Y-65515025D01*
X58465642Y-65418301D01*
X58465639Y-65418300D01*
X58461735Y-65416975D01*
X58235039Y-65371883D01*
X58162550Y-65357464D01*
X58162547Y-65357464D01*
X58158507Y-65356660D01*
X58154396Y-65356391D01*
X58154392Y-65356390D01*
X57929263Y-65341634D01*
X57929254Y-65341634D01*
X57927214Y-65341500D01*
X57772786Y-65341500D01*
X57770746Y-65341634D01*
X57770737Y-65341634D01*
X57545608Y-65356390D01*
X57545604Y-65356391D01*
X57541493Y-65356660D01*
X57537453Y-65357464D01*
X57537450Y-65357464D01*
X57464961Y-65371883D01*
X57238265Y-65416975D01*
X57234361Y-65418300D01*
X57234358Y-65418301D01*
X56949419Y-65515025D01*
X56945504Y-65516354D01*
X56941808Y-65518177D01*
X56941800Y-65518180D01*
X56788401Y-65593829D01*
X56668220Y-65653096D01*
X56664787Y-65655390D01*
X56664785Y-65655391D01*
X56414586Y-65822568D01*
X56414581Y-65822572D01*
X56411155Y-65824861D01*
X56408061Y-65827575D01*
X56408055Y-65827579D01*
X56181799Y-66026001D01*
X56178710Y-66028710D01*
X56176001Y-66031799D01*
X55977579Y-66258055D01*
X55977575Y-66258061D01*
X55974861Y-66261155D01*
X55803096Y-66518219D01*
X55666354Y-66795504D01*
X55566975Y-67088265D01*
X55506660Y-67391493D01*
X55486439Y-67700000D01*
X50508000Y-67700000D01*
X50508000Y-59850000D01*
X55486439Y-59850000D01*
X55486709Y-59854119D01*
X55504455Y-60124861D01*
X55506660Y-60158507D01*
X55566975Y-60461735D01*
X55568300Y-60465639D01*
X55568301Y-60465642D01*
X55601888Y-60564586D01*
X55666354Y-60754496D01*
X55668177Y-60758192D01*
X55668180Y-60758200D01*
X55697779Y-60818220D01*
X55803096Y-61031780D01*
X55805390Y-61035213D01*
X55805391Y-61035214D01*
X55974861Y-61288845D01*
X55977575Y-61291939D01*
X55977579Y-61291945D01*
X56062050Y-61388265D01*
X56178710Y-61521290D01*
X56181799Y-61523999D01*
X56408055Y-61722421D01*
X56408061Y-61722425D01*
X56411155Y-61725139D01*
X56414581Y-61727428D01*
X56414586Y-61727432D01*
X56664785Y-61894609D01*
X56668220Y-61896904D01*
X56671923Y-61898730D01*
X56941800Y-62031820D01*
X56941808Y-62031823D01*
X56945504Y-62033646D01*
X56949419Y-62034975D01*
X57234358Y-62131699D01*
X57234361Y-62131700D01*
X57238265Y-62133025D01*
X57464961Y-62178117D01*
X57537450Y-62192536D01*
X57537453Y-62192536D01*
X57541493Y-62193340D01*
X57545604Y-62193609D01*
X57545608Y-62193610D01*
X57770737Y-62208366D01*
X57770746Y-62208366D01*
X57772786Y-62208500D01*
X57927214Y-62208500D01*
X57929254Y-62208366D01*
X57929263Y-62208366D01*
X58154392Y-62193610D01*
X58154396Y-62193609D01*
X58158507Y-62193340D01*
X58162547Y-62192536D01*
X58162550Y-62192536D01*
X58235039Y-62178117D01*
X58461735Y-62133025D01*
X58465639Y-62131700D01*
X58465642Y-62131699D01*
X58750581Y-62034975D01*
X58754496Y-62033646D01*
X58758192Y-62031823D01*
X58758200Y-62031820D01*
X59028077Y-61898730D01*
X59031780Y-61896904D01*
X59035215Y-61894609D01*
X59285414Y-61727432D01*
X59285419Y-61727428D01*
X59288845Y-61725139D01*
X59291939Y-61722425D01*
X59291945Y-61722421D01*
X59518201Y-61523999D01*
X59521290Y-61521290D01*
X59637950Y-61388265D01*
X59722421Y-61291945D01*
X59722425Y-61291939D01*
X59725139Y-61288845D01*
X59749771Y-61251982D01*
X59894610Y-61035214D01*
X59896904Y-61031781D01*
X60033646Y-60754496D01*
X60098112Y-60564586D01*
X60131699Y-60465642D01*
X60131700Y-60465639D01*
X60133025Y-60461735D01*
X60193340Y-60158507D01*
X60195546Y-60124861D01*
X60213291Y-59854119D01*
X60213561Y-59850000D01*
X60196172Y-59584704D01*
X60193610Y-59545608D01*
X60193609Y-59545604D01*
X60193340Y-59541493D01*
X60133025Y-59238265D01*
X60077555Y-59074854D01*
X60034975Y-58949419D01*
X60033646Y-58945504D01*
X60031822Y-58941806D01*
X60031820Y-58941800D01*
X59898730Y-58671923D01*
X59896904Y-58668220D01*
X59894610Y-58664787D01*
X59894609Y-58664785D01*
X59727432Y-58414586D01*
X59727428Y-58414581D01*
X59725139Y-58411155D01*
X59722425Y-58408061D01*
X59722421Y-58408055D01*
X59523999Y-58181799D01*
X59521290Y-58178710D01*
X59518201Y-58176001D01*
X59291945Y-57977579D01*
X59291939Y-57977575D01*
X59288845Y-57974861D01*
X59285419Y-57972572D01*
X59285414Y-57972568D01*
X59035215Y-57805391D01*
X59035213Y-57805390D01*
X59031780Y-57803096D01*
X58982352Y-57778721D01*
X58758200Y-57668180D01*
X58758192Y-57668177D01*
X58754496Y-57666354D01*
X58750581Y-57665025D01*
X58465642Y-57568301D01*
X58465639Y-57568300D01*
X58461735Y-57566975D01*
X58235039Y-57521883D01*
X58162550Y-57507464D01*
X58162547Y-57507464D01*
X58158507Y-57506660D01*
X58154396Y-57506391D01*
X58154392Y-57506390D01*
X57929263Y-57491634D01*
X57929254Y-57491634D01*
X57927214Y-57491500D01*
X57772786Y-57491500D01*
X57770746Y-57491634D01*
X57770737Y-57491634D01*
X57545608Y-57506390D01*
X57545604Y-57506391D01*
X57541493Y-57506660D01*
X57537453Y-57507464D01*
X57537450Y-57507464D01*
X57464961Y-57521883D01*
X57238265Y-57566975D01*
X57234361Y-57568300D01*
X57234358Y-57568301D01*
X56949419Y-57665025D01*
X56945504Y-57666354D01*
X56941808Y-57668177D01*
X56941800Y-57668180D01*
X56717648Y-57778721D01*
X56668220Y-57803096D01*
X56664787Y-57805390D01*
X56664785Y-57805391D01*
X56414586Y-57972568D01*
X56414581Y-57972572D01*
X56411155Y-57974861D01*
X56408061Y-57977575D01*
X56408055Y-57977579D01*
X56181799Y-58176001D01*
X56178710Y-58178710D01*
X56176001Y-58181799D01*
X55977579Y-58408055D01*
X55977575Y-58408061D01*
X55974861Y-58411155D01*
X55803096Y-58668219D01*
X55801272Y-58671918D01*
X55801269Y-58671923D01*
X55787204Y-58700445D01*
X55666354Y-58945504D01*
X55665029Y-58949409D01*
X55665028Y-58949410D01*
X55622446Y-59074854D01*
X55566975Y-59238265D01*
X55506660Y-59541493D01*
X55506391Y-59545604D01*
X55506390Y-59545608D01*
X55503828Y-59584704D01*
X55486439Y-59850000D01*
X50508000Y-59850000D01*
X50508000Y-53107655D01*
X52239858Y-53107655D01*
X52275104Y-53366638D01*
X52276412Y-53371124D01*
X52276412Y-53371126D01*
X52296098Y-53438664D01*
X52348243Y-53617567D01*
X52457668Y-53854928D01*
X52460231Y-53858837D01*
X52598410Y-54069596D01*
X52598414Y-54069601D01*
X52600976Y-54073509D01*
X52775018Y-54268506D01*
X52975970Y-54435637D01*
X52979973Y-54438066D01*
X53195422Y-54568804D01*
X53195426Y-54568806D01*
X53199419Y-54571229D01*
X53440455Y-54672303D01*
X53693783Y-54736641D01*
X53698434Y-54737109D01*
X53698438Y-54737110D01*
X53891308Y-54756531D01*
X53910867Y-54758500D01*
X54066354Y-54758500D01*
X54068679Y-54758327D01*
X54068685Y-54758327D01*
X54256000Y-54744407D01*
X54256004Y-54744406D01*
X54260652Y-54744061D01*
X54265200Y-54743032D01*
X54265206Y-54743031D01*
X54451601Y-54700853D01*
X54515577Y-54686377D01*
X54551769Y-54672303D01*
X54754824Y-54593340D01*
X54754827Y-54593339D01*
X54759177Y-54591647D01*
X54986098Y-54461951D01*
X55191357Y-54300138D01*
X55370443Y-54109763D01*
X55519424Y-53895009D01*
X55635025Y-53660593D01*
X55714707Y-53411665D01*
X55756721Y-53153693D01*
X55757324Y-53107655D01*
X105239858Y-53107655D01*
X105275104Y-53366638D01*
X105276412Y-53371124D01*
X105276412Y-53371126D01*
X105296098Y-53438664D01*
X105348243Y-53617567D01*
X105457668Y-53854928D01*
X105460231Y-53858837D01*
X105598410Y-54069596D01*
X105598414Y-54069601D01*
X105600976Y-54073509D01*
X105775018Y-54268506D01*
X105975970Y-54435637D01*
X105979973Y-54438066D01*
X106195422Y-54568804D01*
X106195426Y-54568806D01*
X106199419Y-54571229D01*
X106440455Y-54672303D01*
X106693783Y-54736641D01*
X106698434Y-54737109D01*
X106698438Y-54737110D01*
X106891308Y-54756531D01*
X106910867Y-54758500D01*
X107066354Y-54758500D01*
X107068679Y-54758327D01*
X107068685Y-54758327D01*
X107256000Y-54744407D01*
X107256004Y-54744406D01*
X107260652Y-54744061D01*
X107265200Y-54743032D01*
X107265206Y-54743031D01*
X107451601Y-54700853D01*
X107515577Y-54686377D01*
X107551769Y-54672303D01*
X107754824Y-54593340D01*
X107754827Y-54593339D01*
X107759177Y-54591647D01*
X107986098Y-54461951D01*
X108191357Y-54300138D01*
X108370443Y-54109763D01*
X108519424Y-53895009D01*
X108635025Y-53660593D01*
X108714707Y-53411665D01*
X108756721Y-53153693D01*
X108760142Y-52892345D01*
X108724896Y-52633362D01*
X108710473Y-52583877D01*
X108653068Y-52386932D01*
X108651757Y-52382433D01*
X108542332Y-52145072D01*
X108509519Y-52095024D01*
X108401590Y-51930404D01*
X108401586Y-51930399D01*
X108399024Y-51926491D01*
X108224982Y-51731494D01*
X108024030Y-51564363D01*
X107976844Y-51535730D01*
X107804578Y-51431196D01*
X107804574Y-51431194D01*
X107800581Y-51428771D01*
X107559545Y-51327697D01*
X107306217Y-51263359D01*
X107301566Y-51262891D01*
X107301562Y-51262890D01*
X107092271Y-51241816D01*
X107089133Y-51241500D01*
X106933646Y-51241500D01*
X106931321Y-51241673D01*
X106931315Y-51241673D01*
X106744000Y-51255593D01*
X106743996Y-51255594D01*
X106739348Y-51255939D01*
X106734800Y-51256968D01*
X106734794Y-51256969D01*
X106548399Y-51299147D01*
X106484423Y-51313623D01*
X106480071Y-51315315D01*
X106480069Y-51315316D01*
X106245176Y-51406660D01*
X106245173Y-51406661D01*
X106240823Y-51408353D01*
X106013902Y-51538049D01*
X105808643Y-51699862D01*
X105629557Y-51890237D01*
X105480576Y-52104991D01*
X105364975Y-52339407D01*
X105285293Y-52588335D01*
X105243279Y-52846307D01*
X105239858Y-53107655D01*
X55757324Y-53107655D01*
X55760142Y-52892345D01*
X55724896Y-52633362D01*
X55710473Y-52583877D01*
X55653068Y-52386932D01*
X55651757Y-52382433D01*
X55542332Y-52145072D01*
X55509519Y-52095024D01*
X55401590Y-51930404D01*
X55401586Y-51930399D01*
X55399024Y-51926491D01*
X55224982Y-51731494D01*
X55024030Y-51564363D01*
X54976844Y-51535730D01*
X54804578Y-51431196D01*
X54804574Y-51431194D01*
X54800581Y-51428771D01*
X54559545Y-51327697D01*
X54306217Y-51263359D01*
X54301566Y-51262891D01*
X54301562Y-51262890D01*
X54092271Y-51241816D01*
X54089133Y-51241500D01*
X53933646Y-51241500D01*
X53931321Y-51241673D01*
X53931315Y-51241673D01*
X53744000Y-51255593D01*
X53743996Y-51255594D01*
X53739348Y-51255939D01*
X53734800Y-51256968D01*
X53734794Y-51256969D01*
X53548399Y-51299147D01*
X53484423Y-51313623D01*
X53480071Y-51315315D01*
X53480069Y-51315316D01*
X53245176Y-51406660D01*
X53245173Y-51406661D01*
X53240823Y-51408353D01*
X53013902Y-51538049D01*
X52808643Y-51699862D01*
X52629557Y-51890237D01*
X52480576Y-52104991D01*
X52364975Y-52339407D01*
X52285293Y-52588335D01*
X52243279Y-52846307D01*
X52239858Y-53107655D01*
X50508000Y-53107655D01*
X50508000Y-41384000D01*
X50528002Y-41315879D01*
X50581658Y-41269386D01*
X50634000Y-41258000D01*
X60439835Y-41258000D01*
X60507956Y-41278002D01*
G37*
G04 #@! TD.AperFunction*
M02*
