M48
; DRILL file {KiCad (6.0.1)} date Tue Feb 15 11:42:01 2022
; FORMAT={-:-/ absolute / inch / decimal}
; #@! TF.CreationDate,2022-02-15T11:42:01-08:00
; #@! TF.GenerationSoftware,Kicad,Pcbnew,(6.0.1)
; #@! TF.FileFunction,Plated,1,4,PTH
FMAT,2
INCH
; #@! TA.AperFunction,Plated,PTH,ViaDrill
T1C0.0079
; #@! TA.AperFunction,Plated,PTH,ViaDrill
T2C0.0118
; #@! TA.AperFunction,Plated,PTH,ViaDrill
T3C0.0157
; #@! TA.AperFunction,Plated,PTH,ComponentDrill
T4C0.0354
; #@! TA.AperFunction,Plated,PTH,ComponentDrill
T5C0.0394
; #@! TA.AperFunction,Plated,PTH,ComponentDrill
T6C0.0402
; #@! TA.AperFunction,Plated,PTH,ComponentDrill
T7C0.0433
; #@! TA.AperFunction,Plated,PTH,ComponentDrill
T8C0.0591
; #@! TA.AperFunction,Plated,PTH,ComponentDrill
T9C0.0630
; #@! TA.AperFunction,Plated,PTH,ComponentDrill
T10C0.0709
%
G90
G05
T1
X1.9941Y-2.6969
X2.0217Y-2.2047
X2.1122Y-4.6693
X2.1673Y-4.5906
X2.2421Y-2.8543
X2.3661Y-4.613
X2.3702Y-4.6692
X2.376Y-5.5571
X2.4035Y-3.1693
X2.4586Y-2.1457
X2.4586Y-3.1929
X2.5236Y-5.122
X2.5394Y-3.9803
X2.5394Y-4.1201
X2.5413Y-4.2874
X2.5846Y-2.9134
X2.5906Y-3.6752
X2.6339Y-2.6713
X2.7106Y-2.2697
X2.7106Y-4.0492
X2.7106Y-4.2008
X2.7362Y-3.1122
X2.7362Y-3.4862
X2.7594Y-2.3858
X2.7594Y-2.5614
X2.8031Y-3.7638
X2.8061Y-3.6919
X2.811Y-3.9178
X2.811Y-4.2559
X2.8287Y-3.5413
X2.8346Y-3.2539
X2.8563Y-4.1693
X2.8602Y-2.5256
X2.9055Y-3.6102
X2.9065Y-3.7707
X2.9094Y-2.6024
X2.9311Y-3.6102
X2.935Y-3.7697
X2.935Y-6.0886
X2.9547Y-3.6102
X2.9587Y-2.7598
X2.9587Y-3.8327
X2.9594Y-2.385
X2.9823Y-4.2244
X2.9823Y-6.0689
X2.9843Y-4.2559
X2.9862Y-4.7421
X2.9862Y-4.9882
X3.0079Y-2.8622
X3.0089Y-3.5817
X3.0236Y-4.9075
X3.0256Y-5.0669
X3.0295Y-5.5217
X3.0374Y-3.1122
X3.0531Y-3.7776
X3.0591Y-2.3898
X3.0591Y-2.7402
X3.063Y-5.1437
X3.0734Y-4.6096
X3.0754Y-5.9573
X3.1094Y-2.8622
X3.1102Y-3.3976
X3.1173Y-5.8689
X3.1234Y-4.9041
X3.1417Y-3.6339
X3.1673Y-2.5256
X3.1673Y-2.6752
X3.1673Y-5.8622
X3.1693Y-5.9587
X3.1776Y-3.9563
X3.1776Y-4.2287
X3.1781Y-5.3967
X3.1791Y-4.9882
X3.185Y-5.2244
X3.2087Y-3.0079
X3.2087Y-3.7303
X3.2146Y-2.3898
X3.2173Y-5.861
X3.2244Y-3.872
X3.2362Y-3.2323
X3.237Y-2.5583
X3.2559Y-4.2008
X3.2559Y-4.6811
X3.2559Y-5.0669
X3.2579Y-3.4016
X3.2801Y-5.0211
X3.2815Y-4.6142
X3.2815Y-5.4016
X3.3002Y-5.1161
X3.3169Y-5.8661
X3.3189Y-3.876
X3.3189Y-3.9843
X3.3327Y-3.5039
X3.3366Y-2.2736
X3.3366Y-3.0059
X3.3484Y-3.8504
X3.3502Y-5.1911
X3.3524Y-4.8524
X3.3632Y-5.9616
X3.3681Y-5.872
X3.374Y-4.9291
X3.377Y-4.999
X3.4091Y-3.9563
X3.4094Y-3.4016
X3.4193Y-5.0118
X3.437Y-3.3091
X3.437Y-3.4114
X3.4587Y-3.6063
X3.4587Y-3.7028
X3.4587Y-4.2008
X3.4587Y-4.6811
X3.4587Y-4.8071
X3.4596Y-5.0719
X3.4803Y-2.124
X3.4803Y-4.2343
X3.5305Y-5.1624
X3.539Y-3.7929
X3.5472Y-4.9744
X3.553Y-6.0274
X3.5689Y-3.9843
X3.5768Y-4.8071
X3.5809Y-5.0411
X3.5827Y-5.748
X3.5837Y-3.312
X3.5837Y-3.7805
X3.5842Y-5.5335
X3.5846Y-2.5492
X3.624Y-5.2736
X3.6947Y-5.1911
X3.7028Y-3.0591
X3.7677Y-5.1417
X3.7933Y-5.1083
X3.8191Y-5.2109
X3.8478Y-3.1817
X3.8481Y-2.9984
X3.8484Y-3.2598
X3.9035Y-4.6929
X3.9055Y-3.6063
X3.9055Y-4.6161
X3.9055Y-5.6378
X3.9094Y-5.561
X3.9154Y-5.0768
X3.9429Y-3.1969
X3.9748Y-5.0772
X4.002Y-4.2343
X4.0098Y-3.6693
X4.0155Y-3.984
X4.0276Y-4.2559
X4.0354Y-3.2756
X4.0577Y-2.1352
X4.1614Y-6.0177
X4.1929Y-4.4114
X4.1939Y-6.0374
X4.2913Y-4.4114
T2
X2.0138Y-5.5472
X2.0591Y-2.8071
X2.1378Y-4.8425
X2.2165Y-3.5571
X2.2245Y-4.6456
X2.2264Y-5.6358
X2.2657Y-3.8071
X2.2923Y-3.8986
X2.311Y-3.2972
X2.378Y-5.685
X2.3819Y-5.6083
X2.4567Y-4.7421
X2.4803Y-5.6594
X2.4862Y-4.7185
X2.4872Y-4.1132
X2.4902Y-2.2677
X2.4902Y-2.6024
X2.5098Y-5.6358
X2.5354Y-4.1988
X2.5374Y-4.6161
X2.5669Y-3.5413
X2.5709Y-4.6909
X2.5945Y-4.6654
X2.5965Y-4.7165
X2.5965Y-5.5335
X2.6063Y-5.6083
X2.7598Y-2.8602
X2.7599Y-3.3347
X2.7776Y-5.6339
X2.7776Y-6.0571
X2.7835Y-4.7146
X2.8071Y-3.8484
X2.8091Y-2.7283
X2.811Y-3.311
X2.8563Y-3.5079
X2.8799Y-3.5413
X2.8858Y-4.6929
X2.937Y-2.9134
X2.9513Y-5.7279
X2.9783Y-5.6339
X3.0079Y-3.3976
X3.0866Y-2.5886
X3.1102Y-4.1732
X3.1173Y-5.9488
X3.1417Y-5.7579
X3.1462Y-3.5812
X3.1732Y-4.6043
X3.189Y-5.5925
X3.2559Y-5.565
X3.2927Y-2.5886
X3.3484Y-5.5654
X3.372Y-3.5413
X3.4961Y-5.2185
X3.5827Y-4.6004
X3.5842Y-3.5753
X3.5846Y-3.0669
X3.7795Y-3.7815
X3.7795Y-5.752
X3.7815Y-3.3071
X3.7815Y-4.8091
X4.1358Y-3.6792
X4.1614Y-2.8484
X4.1929Y-4.8051
X4.1949Y-2.5965
T3
X2.3248Y-3.815
T4
X2.8346Y-4.4094
X2.8346Y-4.8819
X2.8346Y-5.3543
X2.8346Y-5.8268
X2.9346Y-4.4094
X2.9346Y-4.8819
X2.9346Y-5.3543
X2.9346Y-5.8268
X3.2126Y-4.752
X3.2126Y-5.6969
X3.3126Y-4.752
X3.3126Y-5.6969
T5
X2.0669Y-3.0449
X2.0669Y-3.1449
X2.0669Y-3.2449
X2.0669Y-3.3449
X2.0669Y-3.4449
X2.0669Y-3.7535
X2.0669Y-3.8535
X2.0669Y-3.9535
X2.0669Y-4.0535
X2.0669Y-4.1535
X2.1669Y-3.0449
X2.1669Y-3.1449
X2.1669Y-3.2449
X2.1669Y-3.3449
X2.1669Y-3.4449
X2.1669Y-3.7535
X2.1669Y-3.8535
X2.1669Y-3.9535
X2.1669Y-4.0535
X2.1669Y-4.1535
X2.537Y-2.2071
X2.537Y-2.8071
X2.637Y-2.2071
X2.637Y-2.8071
X2.7047Y-3.5984
X2.7047Y-3.7953
X2.737Y-2.2071
X2.737Y-2.8071
X2.837Y-2.2071
X2.837Y-2.8071
X2.937Y-2.2071
X2.937Y-2.8071
X3.037Y-2.2071
X3.037Y-2.8071
X3.137Y-2.2071
X3.137Y-2.8071
X3.237Y-2.2071
X3.237Y-2.8071
X3.2756Y-3.5984
X3.2756Y-3.6969
X3.2756Y-3.7953
X3.337Y-2.2071
X3.337Y-2.8071
X3.437Y-2.2071
X3.437Y-2.8071
X3.537Y-2.2071
X3.537Y-2.8071
X3.637Y-2.2071
X3.637Y-2.8071
X3.737Y-2.2071
X3.737Y-2.8071
X3.837Y-2.2071
X3.837Y-2.8071
X3.937Y-2.2071
X3.937Y-2.8071
T6
X2.8323Y-2.126
X2.9323Y-2.126
X3.0323Y-2.126
X3.1323Y-2.126
T7
X2.0472Y-4.2815
X2.0472Y-4.5374
X2.0472Y-4.7539
X2.0472Y-5.0098
X2.0472Y-5.2264
X2.0472Y-5.4823
X2.0472Y-5.6988
X2.0472Y-5.9547
X2.1476Y-2.5709
X2.1476Y-2.748
X2.1496Y-2.2677
X2.1496Y-2.4449
X2.2244Y-4.2815
X2.2244Y-4.5374
X2.2244Y-4.7539
X2.2244Y-5.0098
X2.2244Y-5.2264
X2.2244Y-5.4823
X2.2244Y-5.6988
X2.2244Y-5.9547
X2.4035Y-2.5709
X2.4035Y-2.748
X2.4055Y-2.2677
X2.4055Y-2.4449
X2.6457Y-3.1693
X2.6457Y-3.3465
X2.9016Y-3.1693
X2.9016Y-3.3465
X3.0591Y-3.1693
X3.0591Y-3.3465
X3.315Y-3.1693
X3.315Y-3.3465
X4.0945Y-2.313
X4.0945Y-2.5689
X4.0945Y-2.7854
X4.0945Y-3.0413
X4.0945Y-3.2579
X4.0945Y-3.5138
X4.0945Y-3.7303
X4.0945Y-3.9862
X4.0945Y-4.2815
X4.0945Y-4.5374
X4.0945Y-4.7539
X4.0945Y-5.0098
X4.0945Y-5.2264
X4.0945Y-5.4823
X4.0945Y-5.6988
X4.0945Y-5.9547
X4.2717Y-2.313
X4.2717Y-2.5689
X4.2717Y-2.7854
X4.2717Y-3.0413
X4.2717Y-3.2579
X4.2717Y-3.5138
X4.2717Y-3.7303
X4.2717Y-3.9862
X4.2717Y-4.2815
X4.2717Y-4.5374
X4.2717Y-4.7539
X4.2717Y-5.0098
X4.2717Y-5.2264
X4.2717Y-5.4823
X4.2717Y-5.6988
X4.2717Y-5.9547
T8
X2.3689Y-4.4429
X2.3689Y-4.9154
X2.3689Y-5.3878
X2.3689Y-5.8602
X2.4535Y-4.3839
X2.4535Y-4.8563
X2.4535Y-5.3287
X2.4535Y-5.8012
X2.6287Y-4.3839
X2.6287Y-4.8563
X2.6287Y-5.3287
X2.6287Y-5.8012
X2.7193Y-4.4429
X2.7193Y-4.9154
X2.7193Y-5.3878
X2.7193Y-5.8602
X3.0579Y-4.4429
X3.0579Y-5.3878
X3.1425Y-4.3839
X3.1425Y-5.3287
X3.3177Y-4.3839
X3.3177Y-5.3287
X3.4083Y-4.4429
X3.4083Y-5.3878
X3.6091Y-2.4744
X3.6091Y-2.9469
X3.6091Y-3.4193
X3.6091Y-3.8917
X3.6091Y-4.4429
X3.6091Y-4.9154
X3.6091Y-5.3878
X3.6091Y-5.8602
X3.6937Y-2.4154
X3.6937Y-2.8878
X3.6937Y-3.3602
X3.6937Y-3.8327
X3.6937Y-4.3839
X3.6937Y-4.8563
X3.6937Y-5.3287
X3.6937Y-5.8012
X3.8689Y-2.4154
X3.8689Y-2.8878
X3.8689Y-3.3602
X3.8689Y-3.8327
X3.8689Y-4.3839
X3.8689Y-4.8563
X3.8689Y-5.3287
X3.8689Y-5.8012
X3.9594Y-2.4744
X3.9594Y-2.9469
X3.9594Y-3.4193
X3.9594Y-3.8917
X3.9594Y-4.4429
X3.9594Y-4.9154
X3.9594Y-5.3878
X3.9594Y-5.8602
T9
X2.4106Y-4.5433
X2.4106Y-5.0157
X2.4106Y-5.4882
X2.4106Y-5.9606
X2.5571Y-6.1654
X3.0996Y-4.5433
X3.0996Y-5.4882
X3.6508Y-2.5748
X3.6508Y-3.0472
X3.6508Y-3.5197
X3.6508Y-3.9921
X3.6508Y-4.5433
X3.6508Y-5.0157
X3.6508Y-5.4882
X3.6508Y-5.9606
X3.7677Y-6.1654
T9
G00X2.6539Y-4.5433
M15
G01X2.6933Y-4.5433
M16
G05
G00X2.6539Y-5.0157
M15
G01X2.6933Y-5.0157
M16
G05
G00X2.6539Y-5.4882
M15
G01X2.6933Y-5.4882
M16
G05
G00X2.6539Y-5.9606
M15
G01X2.6933Y-5.9606
M16
G05
G00X3.3429Y-4.5433
M15
G01X3.3823Y-4.5433
M16
G05
G00X3.3429Y-5.4882
M15
G01X3.3823Y-5.4882
M16
G05
G00X3.8941Y-2.5748
M15
G01X3.9335Y-2.5748
M16
G05
G00X3.8941Y-3.0472
M15
G01X3.9335Y-3.0472
M16
G05
G00X3.8941Y-3.5197
M15
G01X3.9335Y-3.5197
M16
G05
G00X3.8941Y-3.9921
M15
G01X3.9335Y-3.9921
M16
G05
G00X3.8941Y-4.5433
M15
G01X3.9335Y-4.5433
M16
G05
G00X3.8941Y-5.0157
M15
G01X3.9335Y-5.0157
M16
G05
G00X3.8941Y-5.4882
M15
G01X3.9335Y-5.4882
M16
G05
G00X3.8941Y-5.9606
M15
G01X3.9335Y-5.9606
M16
G05
T10
G00X2.9646Y-3.4724
M15
G01X2.9961Y-3.4724
M16
G05
G00X2.9646Y-3.9213
M15
G01X2.9961Y-3.9213
M16
G05
T0
M30
