%TF.GenerationSoftware,KiCad,Pcbnew,(6.0.1)*%
%TF.CreationDate,2022-03-20T11:31:47-07:00*%
%TF.ProjectId,main_board,6d61696e-5f62-46f6-9172-642e6b696361,2.0*%
%TF.SameCoordinates,Original*%
%TF.FileFunction,Paste,Bot*%
%TF.FilePolarity,Positive*%
%FSLAX46Y46*%
G04 Gerber Fmt 4.6, Leading zero omitted, Abs format (unit mm)*
G04 Created by KiCad (PCBNEW (6.0.1)) date 2022-03-20 11:31:47*
%MOMM*%
%LPD*%
G01*
G04 APERTURE LIST*
G04 Aperture macros list*
%AMRoundRect*
0 Rectangle with rounded corners*
0 $1 Rounding radius*
0 $2 $3 $4 $5 $6 $7 $8 $9 X,Y pos of 4 corners*
0 Add a 4 corners polygon primitive as box body*
4,1,4,$2,$3,$4,$5,$6,$7,$8,$9,$2,$3,0*
0 Add four circle primitives for the rounded corners*
1,1,$1+$1,$2,$3*
1,1,$1+$1,$4,$5*
1,1,$1+$1,$6,$7*
1,1,$1+$1,$8,$9*
0 Add four rect primitives between the rounded corners*
20,1,$1+$1,$2,$3,$4,$5,0*
20,1,$1+$1,$4,$5,$6,$7,0*
20,1,$1+$1,$6,$7,$8,$9,0*
20,1,$1+$1,$8,$9,$2,$3,0*%
G04 Aperture macros list end*
%ADD10RoundRect,0.250000X-0.450000X0.350000X-0.450000X-0.350000X0.450000X-0.350000X0.450000X0.350000X0*%
%ADD11RoundRect,0.250000X0.450000X-0.350000X0.450000X0.350000X-0.450000X0.350000X-0.450000X-0.350000X0*%
%ADD12RoundRect,0.250000X0.337500X0.475000X-0.337500X0.475000X-0.337500X-0.475000X0.337500X-0.475000X0*%
%ADD13RoundRect,0.250000X-0.350000X-0.450000X0.350000X-0.450000X0.350000X0.450000X-0.350000X0.450000X0*%
%ADD14RoundRect,0.250000X0.350000X0.450000X-0.350000X0.450000X-0.350000X-0.450000X0.350000X-0.450000X0*%
%ADD15RoundRect,0.250000X0.475000X-0.337500X0.475000X0.337500X-0.475000X0.337500X-0.475000X-0.337500X0*%
%ADD16RoundRect,0.250000X0.450000X-0.325000X0.450000X0.325000X-0.450000X0.325000X-0.450000X-0.325000X0*%
%ADD17RoundRect,0.230000X-0.230000X-0.375000X0.230000X-0.375000X0.230000X0.375000X-0.230000X0.375000X0*%
%ADD18RoundRect,0.150000X-0.825000X-0.150000X0.825000X-0.150000X0.825000X0.150000X-0.825000X0.150000X0*%
%ADD19RoundRect,0.150000X0.825000X0.150000X-0.825000X0.150000X-0.825000X-0.150000X0.825000X-0.150000X0*%
%ADD20RoundRect,0.250000X-0.475000X0.337500X-0.475000X-0.337500X0.475000X-0.337500X0.475000X0.337500X0*%
%ADD21R,2.000000X0.650000*%
%ADD22RoundRect,0.250000X0.325000X0.450000X-0.325000X0.450000X-0.325000X-0.450000X0.325000X-0.450000X0*%
%ADD23RoundRect,0.250000X-0.450000X0.325000X-0.450000X-0.325000X0.450000X-0.325000X0.450000X0.325000X0*%
%ADD24RoundRect,0.230000X-0.375000X0.230000X-0.375000X-0.230000X0.375000X-0.230000X0.375000X0.230000X0*%
%ADD25RoundRect,0.150000X-0.150000X0.825000X-0.150000X-0.825000X0.150000X-0.825000X0.150000X0.825000X0*%
%ADD26RoundRect,0.230000X0.230000X0.375000X-0.230000X0.375000X-0.230000X-0.375000X0.230000X-0.375000X0*%
%ADD27RoundRect,0.250000X-0.337500X-0.475000X0.337500X-0.475000X0.337500X0.475000X-0.337500X0.475000X0*%
%ADD28RoundRect,0.250000X1.500000X0.550000X-1.500000X0.550000X-1.500000X-0.550000X1.500000X-0.550000X0*%
%ADD29R,0.450000X1.050000*%
%ADD30R,0.537000X0.882000*%
%ADD31RoundRect,0.230000X0.375000X-0.230000X0.375000X0.230000X-0.375000X0.230000X-0.375000X-0.230000X0*%
%ADD32RoundRect,0.150000X0.150000X-0.825000X0.150000X0.825000X-0.150000X0.825000X-0.150000X-0.825000X0*%
%ADD33RoundRect,0.100000X0.637500X0.100000X-0.637500X0.100000X-0.637500X-0.100000X0.637500X-0.100000X0*%
%ADD34RoundRect,0.250000X-0.325000X-0.450000X0.325000X-0.450000X0.325000X0.450000X-0.325000X0.450000X0*%
%ADD35RoundRect,0.150000X-0.512500X-0.150000X0.512500X-0.150000X0.512500X0.150000X-0.512500X0.150000X0*%
%ADD36RoundRect,0.250000X-1.500000X-0.550000X1.500000X-0.550000X1.500000X0.550000X-1.500000X0.550000X0*%
%ADD37RoundRect,0.250000X0.312500X0.275000X-0.312500X0.275000X-0.312500X-0.275000X0.312500X-0.275000X0*%
G04 APERTURE END LIST*
D10*
X89850000Y-51275000D03*
X89850000Y-53275000D03*
X87275000Y-51300000D03*
X87275000Y-53300000D03*
D11*
X77650000Y-62075000D03*
X77650000Y-60075000D03*
D10*
X61100000Y-53150000D03*
X61100000Y-55150000D03*
D12*
X69612500Y-94075000D03*
X67537500Y-94075000D03*
D13*
X104550000Y-86800000D03*
X106550000Y-86800000D03*
D11*
X110300000Y-68800000D03*
X110300000Y-66800000D03*
D13*
X98200000Y-91250000D03*
X100200000Y-91250000D03*
D14*
X113550000Y-143250000D03*
X111550000Y-143250000D03*
X88850000Y-122100000D03*
X86850000Y-122100000D03*
D15*
X83200000Y-89537500D03*
X83200000Y-87462500D03*
X80600000Y-115875000D03*
X80600000Y-113800000D03*
D14*
X88900000Y-82950000D03*
X86900000Y-82950000D03*
D13*
X66250000Y-98850000D03*
X68250000Y-98850000D03*
D14*
X114200000Y-90550000D03*
X112200000Y-90550000D03*
D16*
X63750000Y-141675000D03*
X63750000Y-139625000D03*
D13*
X98150000Y-119200000D03*
X100150000Y-119200000D03*
D17*
X94070000Y-92650000D03*
X92930000Y-92650000D03*
X94070000Y-94150000D03*
X92930000Y-94150000D03*
D18*
X91025000Y-95305000D03*
X91025000Y-94035000D03*
X91025000Y-92765000D03*
X91025000Y-91495000D03*
X95975000Y-91495000D03*
X95975000Y-92765000D03*
X95975000Y-94035000D03*
X95975000Y-95305000D03*
D10*
X117750000Y-97250000D03*
X117750000Y-99250000D03*
D13*
X111950000Y-102800000D03*
X113950000Y-102800000D03*
D14*
X88850000Y-144250000D03*
X86850000Y-144250000D03*
D19*
X88775000Y-59895000D03*
X88775000Y-61165000D03*
X88775000Y-62435000D03*
X88775000Y-63705000D03*
X83825000Y-63705000D03*
X83825000Y-62435000D03*
X83825000Y-61165000D03*
X83825000Y-59895000D03*
D14*
X88850000Y-96150000D03*
X86850000Y-96150000D03*
D20*
X81100000Y-59975000D03*
X81100000Y-62050000D03*
D14*
X78850000Y-141450000D03*
X76850000Y-141450000D03*
D13*
X112200000Y-69250000D03*
X114200000Y-69250000D03*
D11*
X96050000Y-115800000D03*
X96050000Y-113800000D03*
D13*
X98200000Y-145150000D03*
X100200000Y-145150000D03*
X98200000Y-93200000D03*
X100200000Y-93200000D03*
D14*
X109450000Y-130550000D03*
X107450000Y-130550000D03*
D20*
X96000000Y-147112500D03*
X96000000Y-149187500D03*
D10*
X119650000Y-146950000D03*
X119650000Y-148950000D03*
D13*
X111500000Y-56200000D03*
X113500000Y-56200000D03*
D21*
X77290000Y-108100000D03*
X77290000Y-107150000D03*
X77290000Y-106200000D03*
X80710000Y-106200000D03*
X80710000Y-108100000D03*
D13*
X111800000Y-111850000D03*
X113800000Y-111850000D03*
D17*
X92930000Y-144200000D03*
X94070000Y-142700000D03*
X94070000Y-144200000D03*
X92930000Y-142700000D03*
D18*
X91025000Y-145355000D03*
X91025000Y-144085000D03*
X91025000Y-142815000D03*
X91025000Y-141545000D03*
X95975000Y-141545000D03*
X95975000Y-142815000D03*
X95975000Y-144085000D03*
X95975000Y-145355000D03*
D15*
X59450000Y-116737500D03*
X59450000Y-114662500D03*
D13*
X98150000Y-117250000D03*
X100150000Y-117250000D03*
D14*
X113500000Y-119100000D03*
X111500000Y-119100000D03*
D13*
X112000000Y-86050000D03*
X114000000Y-86050000D03*
D14*
X114200000Y-116500000D03*
X112200000Y-116500000D03*
D22*
X78075000Y-133550000D03*
X76025000Y-133550000D03*
D20*
X64550000Y-109812500D03*
X64550000Y-111887500D03*
D13*
X111500000Y-123600000D03*
X113500000Y-123600000D03*
D14*
X88850000Y-98400000D03*
X86850000Y-98400000D03*
D11*
X96000000Y-139800000D03*
X96000000Y-137800000D03*
D13*
X63750000Y-137700000D03*
X65750000Y-137700000D03*
X99100000Y-81200000D03*
X101100000Y-81200000D03*
D11*
X115700000Y-113000000D03*
X115700000Y-111000000D03*
D20*
X67650000Y-102812500D03*
X67650000Y-104887500D03*
D14*
X88850000Y-92050000D03*
X86850000Y-92050000D03*
D17*
X92930000Y-118700000D03*
X94070000Y-118700000D03*
X94070000Y-120200000D03*
X92930000Y-120200000D03*
D18*
X91025000Y-121355000D03*
X91025000Y-120085000D03*
X91025000Y-118815000D03*
X91025000Y-117545000D03*
X95975000Y-117545000D03*
X95975000Y-118815000D03*
X95975000Y-120085000D03*
X95975000Y-121355000D03*
D23*
X64550000Y-146275000D03*
X64550000Y-148325000D03*
D14*
X117800000Y-78700000D03*
X115800000Y-78700000D03*
D24*
X117050000Y-142420000D03*
X118550000Y-141280000D03*
X118550000Y-142420000D03*
X117050000Y-141280000D03*
D25*
X115895000Y-139375000D03*
X117165000Y-139375000D03*
X118435000Y-139375000D03*
X119705000Y-139375000D03*
X119705000Y-144325000D03*
X118435000Y-144325000D03*
X117165000Y-144325000D03*
X115895000Y-144325000D03*
D24*
X117050000Y-92030000D03*
X117050000Y-93170000D03*
X118550000Y-92030000D03*
X118550000Y-93170000D03*
D25*
X115895000Y-90125000D03*
X117165000Y-90125000D03*
X118435000Y-90125000D03*
X119705000Y-90125000D03*
X119705000Y-95075000D03*
X118435000Y-95075000D03*
X117165000Y-95075000D03*
X115895000Y-95075000D03*
D15*
X88800000Y-135637500D03*
X88800000Y-133562500D03*
D20*
X63150000Y-106012500D03*
X63150000Y-108087500D03*
D13*
X98200000Y-143200000D03*
X100200000Y-143200000D03*
D11*
X64500000Y-124500000D03*
X64500000Y-122500000D03*
D26*
X86870000Y-129200000D03*
X85730000Y-129200000D03*
X85730000Y-130700000D03*
X86870000Y-130700000D03*
D19*
X88775000Y-128045000D03*
X88775000Y-129315000D03*
X88775000Y-130585000D03*
X88775000Y-131855000D03*
X83825000Y-131855000D03*
X83825000Y-130585000D03*
X83825000Y-129315000D03*
X83825000Y-128045000D03*
D11*
X117650000Y-113000000D03*
X117650000Y-111000000D03*
D15*
X115800000Y-124650000D03*
X115800000Y-122575000D03*
D27*
X88962500Y-115650000D03*
X91037500Y-115650000D03*
D14*
X88850000Y-94050000D03*
X86850000Y-94050000D03*
D10*
X117650000Y-146950000D03*
X117650000Y-148950000D03*
D14*
X79650000Y-68300000D03*
X77650000Y-68300000D03*
D27*
X88962500Y-139650000D03*
X91037500Y-139650000D03*
D13*
X111500000Y-92600000D03*
X113500000Y-92600000D03*
D12*
X80987500Y-96400000D03*
X78912500Y-96400000D03*
D11*
X117650000Y-63150000D03*
X117650000Y-61150000D03*
D14*
X88900000Y-80950000D03*
X86900000Y-80950000D03*
D13*
X63850000Y-113700000D03*
X65850000Y-113700000D03*
D11*
X80750000Y-127600000D03*
X80750000Y-125600000D03*
D13*
X107350000Y-113000000D03*
X109350000Y-113000000D03*
D11*
X115850000Y-109200000D03*
X115850000Y-107200000D03*
D13*
X110300000Y-153000000D03*
X112300000Y-153000000D03*
D16*
X58750000Y-81850000D03*
X58750000Y-79800000D03*
D14*
X113800000Y-135500000D03*
X111800000Y-135500000D03*
D25*
X76640000Y-147675000D03*
X77910000Y-147675000D03*
X79180000Y-147675000D03*
X80450000Y-147675000D03*
X81720000Y-147675000D03*
X82990000Y-147675000D03*
X84260000Y-147675000D03*
X84260000Y-152625000D03*
X82990000Y-152625000D03*
X81720000Y-152625000D03*
X80450000Y-152625000D03*
X79180000Y-152625000D03*
X77910000Y-152625000D03*
X76640000Y-152625000D03*
D13*
X86850000Y-126100000D03*
X88850000Y-126100000D03*
D24*
X118550000Y-67380000D03*
X117050000Y-67380000D03*
X118550000Y-68520000D03*
X117050000Y-68520000D03*
D25*
X115895000Y-65475000D03*
X117165000Y-65475000D03*
X118435000Y-65475000D03*
X119705000Y-65475000D03*
X119705000Y-70425000D03*
X118435000Y-70425000D03*
X117165000Y-70425000D03*
X115895000Y-70425000D03*
D14*
X87850000Y-103450000D03*
X85850000Y-103450000D03*
D16*
X82050000Y-135625000D03*
X82050000Y-133575000D03*
D13*
X98200000Y-95150000D03*
X100200000Y-95150000D03*
D10*
X65600000Y-104650000D03*
X65600000Y-106650000D03*
D27*
X78762500Y-131500000D03*
X80837500Y-131500000D03*
D16*
X65550000Y-130475000D03*
X65550000Y-128425000D03*
D27*
X77062500Y-155000000D03*
X79137500Y-155000000D03*
D14*
X76800000Y-103450000D03*
X74800000Y-103450000D03*
X88850000Y-142250000D03*
X86850000Y-142250000D03*
X87600000Y-100450000D03*
X85600000Y-100450000D03*
D28*
X64400000Y-87700000D03*
X59000000Y-87700000D03*
D14*
X113500000Y-131150000D03*
X111500000Y-131150000D03*
D11*
X70200000Y-100450000D03*
X70200000Y-98450000D03*
D23*
X63650000Y-152075000D03*
X63650000Y-154125000D03*
D14*
X92900000Y-129200000D03*
X90900000Y-129200000D03*
D10*
X83200000Y-99600000D03*
X83200000Y-101600000D03*
D20*
X96050000Y-85062500D03*
X96050000Y-87137500D03*
D14*
X88850000Y-146250000D03*
X86850000Y-146250000D03*
D13*
X98150000Y-121150000D03*
X100150000Y-121150000D03*
D17*
X94070000Y-80700000D03*
X94070000Y-82200000D03*
X92930000Y-82200000D03*
X92930000Y-80700000D03*
D18*
X91025000Y-83355000D03*
X91025000Y-82085000D03*
X91025000Y-80815000D03*
X91025000Y-79545000D03*
X95975000Y-79545000D03*
X95975000Y-80815000D03*
X95975000Y-82085000D03*
X95975000Y-83355000D03*
D15*
X115750000Y-99287500D03*
X115750000Y-97212500D03*
D29*
X75775000Y-96525000D03*
X75125000Y-96525000D03*
X74475000Y-96525000D03*
X73825000Y-96525000D03*
X73175000Y-96525000D03*
X72525000Y-96525000D03*
X71875000Y-96525000D03*
X71225000Y-96525000D03*
X71225000Y-90975000D03*
X71875000Y-90975000D03*
X72525000Y-90975000D03*
X73175000Y-90975000D03*
X73825000Y-90975000D03*
X74475000Y-90975000D03*
X75125000Y-90975000D03*
X75775000Y-90975000D03*
D30*
X73947500Y-94485000D03*
X72157500Y-94485000D03*
X74842500Y-94485000D03*
X72157500Y-93015000D03*
X73052500Y-93015000D03*
X73052500Y-94485000D03*
X74842500Y-93015000D03*
X73947500Y-93015000D03*
D13*
X112050000Y-128800000D03*
X114050000Y-128800000D03*
D11*
X84950000Y-126150000D03*
X84950000Y-124150000D03*
D15*
X115700000Y-74587500D03*
X115700000Y-72512500D03*
D10*
X78800000Y-125600000D03*
X78800000Y-127600000D03*
D13*
X99100000Y-79200000D03*
X101100000Y-79200000D03*
D12*
X95987500Y-75700000D03*
X93912500Y-75700000D03*
D15*
X119600000Y-137037500D03*
X119600000Y-134962500D03*
D14*
X90000000Y-85150000D03*
X88000000Y-85150000D03*
D31*
X79450000Y-121470000D03*
X77950000Y-121470000D03*
X79450000Y-120330000D03*
X77950000Y-120330000D03*
D32*
X80605000Y-123375000D03*
X79335000Y-123375000D03*
X78065000Y-123375000D03*
X76795000Y-123375000D03*
X76795000Y-118425000D03*
X78065000Y-118425000D03*
X79335000Y-118425000D03*
X80605000Y-118425000D03*
D11*
X115850000Y-83850000D03*
X115850000Y-81850000D03*
D10*
X119700000Y-97250000D03*
X119700000Y-99250000D03*
D11*
X72000000Y-128000000D03*
X72000000Y-126000000D03*
D10*
X117800000Y-122600000D03*
X117800000Y-124600000D03*
D27*
X88962500Y-89600000D03*
X91037500Y-89600000D03*
D20*
X96050000Y-123162500D03*
X96050000Y-125237500D03*
D14*
X80800000Y-129500000D03*
X78800000Y-129500000D03*
X113500000Y-61900000D03*
X111500000Y-61900000D03*
D16*
X69750000Y-119125000D03*
X69750000Y-117075000D03*
D20*
X96050000Y-133312500D03*
X96050000Y-135387500D03*
D15*
X76800000Y-127637500D03*
X76800000Y-125562500D03*
D14*
X88850000Y-148250000D03*
X86850000Y-148250000D03*
D10*
X119600000Y-72550000D03*
X119600000Y-74550000D03*
D14*
X57050000Y-118200000D03*
X55050000Y-118200000D03*
D15*
X82950000Y-126187500D03*
X82950000Y-124112500D03*
D10*
X119750000Y-122600000D03*
X119750000Y-124600000D03*
D14*
X113600000Y-97850000D03*
X111600000Y-97850000D03*
D33*
X67262500Y-116750000D03*
X67262500Y-117400000D03*
X67262500Y-118050000D03*
X67262500Y-118700000D03*
X67262500Y-119350000D03*
X67262500Y-120000000D03*
X67262500Y-120650000D03*
X61537500Y-120650000D03*
X61537500Y-120000000D03*
X61537500Y-119350000D03*
X61537500Y-118700000D03*
X61537500Y-118050000D03*
X61537500Y-117400000D03*
X61537500Y-116750000D03*
D11*
X65600000Y-102800000D03*
X65600000Y-100800000D03*
D23*
X63450000Y-128425000D03*
X63450000Y-130475000D03*
D13*
X112050000Y-78700000D03*
X114050000Y-78700000D03*
D15*
X77000000Y-145487500D03*
X77000000Y-143412500D03*
D13*
X111500000Y-147450000D03*
X113500000Y-147450000D03*
D14*
X117850000Y-128800000D03*
X115850000Y-128800000D03*
X69500000Y-76100000D03*
X67500000Y-76100000D03*
D15*
X115650000Y-148987500D03*
X115650000Y-146912500D03*
D14*
X96450000Y-89550000D03*
X94450000Y-89550000D03*
D27*
X105312500Y-56700000D03*
X107387500Y-56700000D03*
D12*
X74737500Y-108100000D03*
X72662500Y-108100000D03*
D20*
X96000000Y-97062500D03*
X96000000Y-99137500D03*
D14*
X88750000Y-76100000D03*
X86750000Y-76100000D03*
D16*
X74700000Y-118425000D03*
X74700000Y-116375000D03*
D14*
X114200000Y-66800000D03*
X112200000Y-66800000D03*
D13*
X90900000Y-133100000D03*
X92900000Y-133100000D03*
D34*
X72775000Y-120450000D03*
X74825000Y-120450000D03*
D11*
X72000000Y-140000000D03*
X72000000Y-138000000D03*
D14*
X101100000Y-83200000D03*
X99100000Y-83200000D03*
D11*
X94800000Y-130600000D03*
X94800000Y-128600000D03*
D34*
X52475000Y-90350000D03*
X54525000Y-90350000D03*
D14*
X117750000Y-102800000D03*
X115750000Y-102800000D03*
X88850000Y-120100000D03*
X86850000Y-120100000D03*
D11*
X86250000Y-152250000D03*
X86250000Y-150250000D03*
D24*
X117050000Y-117380000D03*
X117050000Y-118520000D03*
X118550000Y-118520000D03*
X118550000Y-117380000D03*
D25*
X115895000Y-115475000D03*
X117165000Y-115475000D03*
X118435000Y-115475000D03*
X119705000Y-115475000D03*
X119705000Y-120425000D03*
X118435000Y-120425000D03*
X117165000Y-120425000D03*
X115895000Y-120425000D03*
D14*
X97200000Y-77700000D03*
X95200000Y-77700000D03*
D16*
X69750000Y-122875000D03*
X69750000Y-120825000D03*
D20*
X77500000Y-90962500D03*
X77500000Y-93037500D03*
D13*
X112050000Y-140550000D03*
X114050000Y-140550000D03*
D17*
X60130000Y-102500000D03*
X61270000Y-101000000D03*
X60130000Y-101000000D03*
X61270000Y-102500000D03*
D18*
X58225000Y-103655000D03*
X58225000Y-102385000D03*
X58225000Y-101115000D03*
X58225000Y-99845000D03*
X63175000Y-99845000D03*
X63175000Y-101115000D03*
X63175000Y-102385000D03*
X63175000Y-103655000D03*
D13*
X63500000Y-126500000D03*
X65500000Y-126500000D03*
D14*
X88850000Y-118100000D03*
X86850000Y-118100000D03*
X113500000Y-74200000D03*
X111500000Y-74200000D03*
D13*
X77650000Y-66250000D03*
X79650000Y-66250000D03*
X63650000Y-150150000D03*
X65650000Y-150150000D03*
D14*
X88850000Y-124100000D03*
X86850000Y-124100000D03*
D15*
X119750000Y-87687500D03*
X119750000Y-85612500D03*
D13*
X107550000Y-148900000D03*
X109550000Y-148900000D03*
X107500000Y-124850000D03*
X109500000Y-124850000D03*
D11*
X72000000Y-116000000D03*
X72000000Y-114000000D03*
X117800000Y-87650000D03*
X117800000Y-85650000D03*
D13*
X107050000Y-63000000D03*
X109050000Y-63000000D03*
D15*
X119650000Y-112987500D03*
X119650000Y-110912500D03*
D35*
X58912500Y-107900000D03*
X58912500Y-106950000D03*
X58912500Y-106000000D03*
X61187500Y-106000000D03*
X61187500Y-106950000D03*
X61187500Y-107900000D03*
D14*
X111500000Y-106800000D03*
X109500000Y-106800000D03*
D11*
X83000000Y-115900000D03*
X83000000Y-113900000D03*
D27*
X52462500Y-92450000D03*
X54537500Y-92450000D03*
D14*
X116050000Y-153000000D03*
X114050000Y-153000000D03*
D13*
X104600000Y-98850000D03*
X106600000Y-98850000D03*
D11*
X115850000Y-87650000D03*
X115850000Y-85650000D03*
X115650000Y-136950000D03*
X115650000Y-134950000D03*
D13*
X111500000Y-81200000D03*
X113500000Y-81200000D03*
D11*
X115700000Y-63150000D03*
X115700000Y-61150000D03*
D15*
X119650000Y-63187500D03*
X119650000Y-61112500D03*
D14*
X55300000Y-135600000D03*
X53300000Y-135600000D03*
D11*
X72000000Y-152000000D03*
X72000000Y-150000000D03*
D13*
X98200000Y-141250000D03*
X100200000Y-141250000D03*
D14*
X55050000Y-124700000D03*
X53050000Y-124700000D03*
D13*
X107800000Y-136800000D03*
X109800000Y-136800000D03*
D27*
X90862500Y-131150000D03*
X92937500Y-131150000D03*
D20*
X72550000Y-98362500D03*
X72550000Y-100437500D03*
D13*
X107050000Y-73850000D03*
X109050000Y-73850000D03*
D16*
X64500000Y-135775000D03*
X64500000Y-133725000D03*
D11*
X117600000Y-136950000D03*
X117600000Y-134950000D03*
D21*
X97540000Y-131650000D03*
X97540000Y-130700000D03*
X97540000Y-129750000D03*
X100960000Y-129750000D03*
X100960000Y-131650000D03*
D13*
X59600000Y-141700000D03*
X61600000Y-141700000D03*
D11*
X76750000Y-131600000D03*
X76750000Y-129600000D03*
D36*
X59000000Y-95350000D03*
X64400000Y-95350000D03*
D10*
X117650000Y-72550000D03*
X117650000Y-74550000D03*
D37*
X61087500Y-109550000D03*
X59312500Y-109550000D03*
M02*
