%TF.GenerationSoftware,KiCad,Pcbnew,(6.0.1)*%
%TF.CreationDate,2022-02-15T11:42:12-08:00*%
%TF.ProjectId,main_board,6d61696e-5f62-46f6-9172-642e6b696361,rev?*%
%TF.SameCoordinates,Original*%
%TF.FileFunction,Soldermask,Bot*%
%TF.FilePolarity,Negative*%
%FSLAX46Y46*%
G04 Gerber Fmt 4.6, Leading zero omitted, Abs format (unit mm)*
G04 Created by KiCad (PCBNEW (6.0.1)) date 2022-02-15 11:42:13*
%MOMM*%
%LPD*%
G01*
G04 APERTURE LIST*
G04 Aperture macros list*
%AMRoundRect*
0 Rectangle with rounded corners*
0 $1 Rounding radius*
0 $2 $3 $4 $5 $6 $7 $8 $9 X,Y pos of 4 corners*
0 Add a 4 corners polygon primitive as box body*
4,1,4,$2,$3,$4,$5,$6,$7,$8,$9,$2,$3,0*
0 Add four circle primitives for the rounded corners*
1,1,$1+$1,$2,$3*
1,1,$1+$1,$4,$5*
1,1,$1+$1,$6,$7*
1,1,$1+$1,$8,$9*
0 Add four rect primitives between the rounded corners*
20,1,$1+$1,$2,$3,$4,$5,0*
20,1,$1+$1,$4,$5,$6,$7,0*
20,1,$1+$1,$6,$7,$8,$9,0*
20,1,$1+$1,$8,$9,$2,$3,0*%
G04 Aperture macros list end*
%ADD10C,2.000000*%
%ADD11R,1.800000X1.800000*%
%ADD12C,1.800000*%
%ADD13C,2.250000*%
%ADD14O,2.600000X1.600000*%
%ADD15C,1.600000*%
%ADD16C,2.500000*%
%ADD17R,3.600000X2.800000*%
%ADD18RoundRect,0.250000X-0.350000X-0.450000X0.350000X-0.450000X0.350000X0.450000X-0.350000X0.450000X0*%
%ADD19RoundRect,0.250000X0.350000X0.450000X-0.350000X0.450000X-0.350000X-0.450000X0.350000X-0.450000X0*%
%ADD20RoundRect,0.250000X0.475000X-0.337500X0.475000X0.337500X-0.475000X0.337500X-0.475000X-0.337500X0*%
%ADD21RoundRect,0.250000X0.450000X-0.325000X0.450000X0.325000X-0.450000X0.325000X-0.450000X-0.325000X0*%
%ADD22RoundRect,0.150000X-0.825000X-0.150000X0.825000X-0.150000X0.825000X0.150000X-0.825000X0.150000X0*%
%ADD23R,2.290000X3.000000*%
%ADD24RoundRect,0.250000X0.450000X-0.350000X0.450000X0.350000X-0.450000X0.350000X-0.450000X-0.350000X0*%
%ADD25RoundRect,0.250000X-0.475000X0.337500X-0.475000X-0.337500X0.475000X-0.337500X0.475000X0.337500X0*%
%ADD26R,2.000000X0.650000*%
%ADD27RoundRect,0.250000X0.325000X0.450000X-0.325000X0.450000X-0.325000X-0.450000X0.325000X-0.450000X0*%
%ADD28RoundRect,0.150000X-0.150000X0.875000X-0.150000X-0.875000X0.150000X-0.875000X0.150000X0.875000X0*%
%ADD29RoundRect,0.150000X0.825000X0.150000X-0.825000X0.150000X-0.825000X-0.150000X0.825000X-0.150000X0*%
%ADD30RoundRect,0.250000X-0.337500X-0.475000X0.337500X-0.475000X0.337500X0.475000X-0.337500X0.475000X0*%
%ADD31RoundRect,0.250000X0.337500X0.475000X-0.337500X0.475000X-0.337500X-0.475000X0.337500X-0.475000X0*%
%ADD32RoundRect,0.150000X-0.150000X0.825000X-0.150000X-0.825000X0.150000X-0.825000X0.150000X0.825000X0*%
%ADD33RoundRect,0.100000X0.637500X0.100000X-0.637500X0.100000X-0.637500X-0.100000X0.637500X-0.100000X0*%
%ADD34RoundRect,0.250000X-0.450000X0.350000X-0.450000X-0.350000X0.450000X-0.350000X0.450000X0.350000X0*%
%ADD35RoundRect,0.250000X1.500000X0.550000X-1.500000X0.550000X-1.500000X-0.550000X1.500000X-0.550000X0*%
%ADD36R,0.450000X1.050000*%
%ADD37R,0.895000X1.470000*%
%ADD38R,1.600000X1.600000*%
%ADD39O,1.600000X1.600000*%
%ADD40RoundRect,0.150000X0.150000X-0.825000X0.150000X0.825000X-0.150000X0.825000X-0.150000X-0.825000X0*%
%ADD41R,3.000000X2.290000*%
%ADD42R,1.700000X1.700000*%
%ADD43O,1.700000X1.700000*%
%ADD44RoundRect,0.250000X-0.450000X0.325000X-0.450000X-0.325000X0.450000X-0.325000X0.450000X0.325000X0*%
%ADD45RoundRect,0.250000X-0.325000X-0.450000X0.325000X-0.450000X0.325000X0.450000X-0.325000X0.450000X0*%
%ADD46C,2.800000*%
%ADD47RoundRect,0.150000X-0.512500X-0.150000X0.512500X-0.150000X0.512500X0.150000X-0.512500X0.150000X0*%
%ADD48RoundRect,0.250000X-1.500000X-0.550000X1.500000X-0.550000X1.500000X0.550000X-1.500000X0.550000X0*%
%ADD49RoundRect,0.250000X0.312500X0.275000X-0.312500X0.275000X-0.312500X-0.275000X0.312500X-0.275000X0*%
G04 APERTURE END LIST*
D10*
X104000000Y-139250000D03*
X104000000Y-132750000D03*
X108500000Y-139250000D03*
X108500000Y-132750000D03*
D11*
X84140000Y-120700000D03*
D12*
X81600000Y-120700000D03*
D10*
X104000000Y-151250000D03*
X104000000Y-144750000D03*
X108500000Y-144750000D03*
X108500000Y-151250000D03*
D13*
X91670000Y-148850000D03*
X100570000Y-148850000D03*
X93820000Y-147350000D03*
X98270000Y-147350000D03*
D14*
X99410000Y-151400000D03*
D15*
X92730000Y-151400000D03*
D10*
X104000000Y-58750000D03*
X104000000Y-65250000D03*
X108500000Y-65250000D03*
X108500000Y-58750000D03*
X104000000Y-127250000D03*
X104000000Y-120750000D03*
X108500000Y-127250000D03*
X108500000Y-120750000D03*
X61100000Y-62100000D03*
X54600000Y-62100000D03*
X54600000Y-57600000D03*
X61100000Y-57600000D03*
D16*
X107000000Y-53000000D03*
D13*
X91670000Y-62850000D03*
X100570000Y-62850000D03*
X93820000Y-61350000D03*
X98270000Y-61350000D03*
D14*
X99410000Y-65400000D03*
D15*
X92730000Y-65400000D03*
D10*
X104000000Y-82750000D03*
X104000000Y-89250000D03*
X108500000Y-82750000D03*
X108500000Y-89250000D03*
D13*
X77670000Y-112850000D03*
X86570000Y-112850000D03*
X79820000Y-111350000D03*
X84270000Y-111350000D03*
D14*
X85410000Y-115400000D03*
D15*
X78730000Y-115400000D03*
D10*
X61050000Y-69800000D03*
X54550000Y-69800000D03*
X54550000Y-65300000D03*
X61050000Y-65300000D03*
X52000000Y-144750000D03*
X52000000Y-151250000D03*
X56500000Y-144750000D03*
X56500000Y-151250000D03*
X68700000Y-96400000D03*
X68700000Y-91400000D03*
D17*
X75700000Y-99600000D03*
X75700000Y-88200000D03*
D10*
X83200000Y-96400000D03*
X83200000Y-91400000D03*
X83200000Y-93900000D03*
D11*
X72000000Y-112000000D03*
D12*
X74540000Y-112000000D03*
D10*
X104000000Y-108750000D03*
X104000000Y-115250000D03*
X108500000Y-108750000D03*
X108500000Y-115250000D03*
X52000000Y-108750000D03*
X52000000Y-115250000D03*
X56500000Y-115250000D03*
X56500000Y-108750000D03*
D13*
X77670000Y-136850000D03*
X86570000Y-136850000D03*
X79820000Y-135350000D03*
X84270000Y-135350000D03*
D14*
X85410000Y-139400000D03*
D15*
X78730000Y-139400000D03*
D10*
X52000000Y-132750000D03*
X52000000Y-139250000D03*
X56500000Y-139250000D03*
X56500000Y-132750000D03*
D16*
X54000000Y-53000000D03*
X64050000Y-78500000D03*
D13*
X91670000Y-112850000D03*
X100570000Y-112850000D03*
X93820000Y-111350000D03*
X98270000Y-111350000D03*
D14*
X99410000Y-115400000D03*
D15*
X92730000Y-115400000D03*
D11*
X72000000Y-136000000D03*
D12*
X74540000Y-136000000D03*
D11*
X84140000Y-144700000D03*
D12*
X81600000Y-144700000D03*
D16*
X107000000Y-157000000D03*
D11*
X72000000Y-124000000D03*
D12*
X74540000Y-124000000D03*
D13*
X60170000Y-112850000D03*
X69070000Y-112850000D03*
X62320000Y-111350000D03*
X66770000Y-111350000D03*
D14*
X67910000Y-115400000D03*
D15*
X61230000Y-115400000D03*
D13*
X60170000Y-124850000D03*
X69070000Y-124850000D03*
X62320000Y-123350000D03*
X66770000Y-123350000D03*
D14*
X67910000Y-127400000D03*
D15*
X61230000Y-127400000D03*
D13*
X60170000Y-136850000D03*
X69070000Y-136850000D03*
X62320000Y-135350000D03*
X66770000Y-135350000D03*
D14*
X67910000Y-139400000D03*
D15*
X61230000Y-139400000D03*
D13*
X91670000Y-136850000D03*
X100570000Y-136850000D03*
X93820000Y-135350000D03*
X98270000Y-135350000D03*
D14*
X99410000Y-139400000D03*
D15*
X92730000Y-139400000D03*
D16*
X54000000Y-157000000D03*
D10*
X104000000Y-94750000D03*
X104000000Y-101250000D03*
X108500000Y-94750000D03*
X108500000Y-101250000D03*
D16*
X87450000Y-78500000D03*
D13*
X91670000Y-86850000D03*
X100570000Y-86850000D03*
X93820000Y-85350000D03*
X98270000Y-85350000D03*
D14*
X99410000Y-89400000D03*
D15*
X92730000Y-89400000D03*
D10*
X104000000Y-70750000D03*
X104000000Y-77250000D03*
X108500000Y-70750000D03*
X108500000Y-77250000D03*
D13*
X91670000Y-124850000D03*
X100570000Y-124850000D03*
X93820000Y-123350000D03*
X98270000Y-123350000D03*
D14*
X99410000Y-127400000D03*
D15*
X92730000Y-127400000D03*
D13*
X91670000Y-98850000D03*
X100570000Y-98850000D03*
X93820000Y-97350000D03*
X98270000Y-97350000D03*
D14*
X99410000Y-101400000D03*
D15*
X92730000Y-101400000D03*
D13*
X60170000Y-148850000D03*
X69070000Y-148850000D03*
X62320000Y-147350000D03*
X66770000Y-147350000D03*
D14*
X67910000Y-151400000D03*
D15*
X61230000Y-151400000D03*
D11*
X71940000Y-54000000D03*
D12*
X74480000Y-54000000D03*
X77020000Y-54000000D03*
X79560000Y-54000000D03*
D10*
X52000000Y-120750000D03*
X52000000Y-127250000D03*
X56500000Y-120750000D03*
X56500000Y-127250000D03*
D13*
X91670000Y-74850000D03*
X100570000Y-74850000D03*
X93820000Y-73350000D03*
X98270000Y-73350000D03*
D14*
X99410000Y-77400000D03*
D15*
X92730000Y-77400000D03*
D11*
X72000000Y-148000000D03*
D12*
X74540000Y-148000000D03*
D10*
X77700000Y-80500000D03*
X84200000Y-80500000D03*
X77700000Y-85000000D03*
X84200000Y-85000000D03*
X73700000Y-80500000D03*
X67200000Y-80500000D03*
X67200000Y-85000000D03*
X73700000Y-85000000D03*
D18*
X98200000Y-91250000D03*
X100200000Y-91250000D03*
D19*
X88850000Y-122100000D03*
X86850000Y-122100000D03*
D20*
X83200000Y-89537500D03*
X83200000Y-87462500D03*
X80600000Y-115875000D03*
X80600000Y-113800000D03*
D19*
X88900000Y-82950000D03*
X86900000Y-82950000D03*
D18*
X66250000Y-98850000D03*
X68250000Y-98850000D03*
D21*
X69400000Y-144300000D03*
X69400000Y-142250000D03*
D18*
X98150000Y-119200000D03*
X100150000Y-119200000D03*
D22*
X91025000Y-95305000D03*
X91025000Y-94035000D03*
X91025000Y-92765000D03*
X91025000Y-91495000D03*
X95975000Y-91495000D03*
X95975000Y-92765000D03*
X95975000Y-94035000D03*
X95975000Y-95305000D03*
D23*
X93500000Y-93400000D03*
D19*
X88850000Y-144250000D03*
X86850000Y-144250000D03*
X88850000Y-96150000D03*
X86850000Y-96150000D03*
D20*
X59100000Y-117187500D03*
X59100000Y-115112500D03*
D19*
X78850000Y-141450000D03*
X76850000Y-141450000D03*
D24*
X96050000Y-115800000D03*
X96050000Y-113800000D03*
D18*
X98200000Y-145150000D03*
X100200000Y-145150000D03*
X98200000Y-93200000D03*
X100200000Y-93200000D03*
D25*
X96000000Y-147112500D03*
X96000000Y-149187500D03*
D26*
X77290000Y-108100000D03*
X77290000Y-107150000D03*
X77290000Y-106200000D03*
X80710000Y-106200000D03*
X80710000Y-108100000D03*
D22*
X91025000Y-145355000D03*
X91025000Y-144085000D03*
X91025000Y-142815000D03*
X91025000Y-141545000D03*
X95975000Y-141545000D03*
X95975000Y-142815000D03*
X95975000Y-144085000D03*
X95975000Y-145355000D03*
D23*
X93500000Y-143450000D03*
D20*
X65893750Y-67143750D03*
X65893750Y-65068750D03*
D18*
X98150000Y-117250000D03*
X100150000Y-117250000D03*
D27*
X78075000Y-133550000D03*
X76025000Y-133550000D03*
D25*
X64550000Y-109812500D03*
X64550000Y-111887500D03*
D19*
X88850000Y-98400000D03*
X86850000Y-98400000D03*
D24*
X96000000Y-139800000D03*
X96000000Y-137800000D03*
D18*
X63750000Y-137700000D03*
X65750000Y-137700000D03*
X99100000Y-81200000D03*
X101100000Y-81200000D03*
D25*
X67650000Y-102812500D03*
X67650000Y-104887500D03*
D19*
X88850000Y-92050000D03*
X86850000Y-92050000D03*
D22*
X91025000Y-121355000D03*
X91025000Y-120085000D03*
X91025000Y-118815000D03*
X91025000Y-117545000D03*
X95975000Y-117545000D03*
X95975000Y-118815000D03*
X95975000Y-120085000D03*
X95975000Y-121355000D03*
D23*
X93500000Y-119450000D03*
D21*
X58850000Y-146575000D03*
X58850000Y-144525000D03*
D28*
X68820000Y-59050000D03*
X70090000Y-59050000D03*
X71360000Y-59050000D03*
X72630000Y-59050000D03*
X73900000Y-59050000D03*
X75170000Y-59050000D03*
X76440000Y-59050000D03*
X77710000Y-59050000D03*
X78980000Y-59050000D03*
X78980000Y-68350000D03*
X77710000Y-68350000D03*
X76440000Y-68350000D03*
X75170000Y-68350000D03*
X73900000Y-68350000D03*
X72630000Y-68350000D03*
X71360000Y-68350000D03*
X70090000Y-68350000D03*
X68820000Y-68350000D03*
D20*
X88800000Y-135637500D03*
X88800000Y-133562500D03*
D25*
X63150000Y-106012500D03*
X63150000Y-108087500D03*
D18*
X98200000Y-143200000D03*
X100200000Y-143200000D03*
D29*
X88775000Y-128045000D03*
X88775000Y-129315000D03*
X88775000Y-130585000D03*
X88775000Y-131855000D03*
X83825000Y-131855000D03*
X83825000Y-130585000D03*
X83825000Y-129315000D03*
X83825000Y-128045000D03*
D23*
X86300000Y-129950000D03*
D30*
X88962500Y-115650000D03*
X91037500Y-115650000D03*
D19*
X88850000Y-94050000D03*
X86850000Y-94050000D03*
D30*
X88962500Y-139650000D03*
X91037500Y-139650000D03*
D31*
X80987500Y-96400000D03*
X78912500Y-96400000D03*
D19*
X88900000Y-80950000D03*
X86900000Y-80950000D03*
D18*
X63850000Y-113700000D03*
X65850000Y-113700000D03*
D24*
X80750000Y-127600000D03*
X80750000Y-125600000D03*
D31*
X59337500Y-141750000D03*
X57262500Y-141750000D03*
D21*
X58750000Y-81850000D03*
X58750000Y-79800000D03*
D32*
X76640000Y-147675000D03*
X77910000Y-147675000D03*
X79180000Y-147675000D03*
X80450000Y-147675000D03*
X81720000Y-147675000D03*
X82990000Y-147675000D03*
X84260000Y-147675000D03*
X84260000Y-152625000D03*
X82990000Y-152625000D03*
X81720000Y-152625000D03*
X80450000Y-152625000D03*
X79180000Y-152625000D03*
X77910000Y-152625000D03*
X76640000Y-152625000D03*
D18*
X86850000Y-126100000D03*
X88850000Y-126100000D03*
D33*
X67312500Y-141150000D03*
X67312500Y-141800000D03*
X67312500Y-142450000D03*
X67312500Y-143100000D03*
X67312500Y-143750000D03*
X67312500Y-144400000D03*
X67312500Y-145050000D03*
X61587500Y-145050000D03*
X61587500Y-144400000D03*
X61587500Y-143750000D03*
X61587500Y-143100000D03*
X61587500Y-142450000D03*
X61587500Y-141800000D03*
X61587500Y-141150000D03*
D21*
X82050000Y-135625000D03*
X82050000Y-133575000D03*
D18*
X98200000Y-95150000D03*
X100200000Y-95150000D03*
D34*
X65600000Y-104650000D03*
X65600000Y-106650000D03*
D30*
X78762500Y-131500000D03*
X80837500Y-131500000D03*
D21*
X59200000Y-121525000D03*
X59200000Y-119475000D03*
D30*
X77062500Y-155000000D03*
X79137500Y-155000000D03*
D19*
X88850000Y-142250000D03*
X86850000Y-142250000D03*
D35*
X64400000Y-87700000D03*
X59000000Y-87700000D03*
D27*
X55125000Y-147100000D03*
X53075000Y-147100000D03*
D19*
X92900000Y-129200000D03*
X90900000Y-129200000D03*
D25*
X96050000Y-85062500D03*
X96050000Y-87137500D03*
D19*
X88850000Y-146250000D03*
X86850000Y-146250000D03*
D18*
X98150000Y-121150000D03*
X100150000Y-121150000D03*
D22*
X91025000Y-83355000D03*
X91025000Y-82085000D03*
X91025000Y-80815000D03*
X91025000Y-79545000D03*
X95975000Y-79545000D03*
X95975000Y-80815000D03*
X95975000Y-82085000D03*
X95975000Y-83355000D03*
D23*
X93500000Y-81450000D03*
D36*
X75775000Y-96525000D03*
X75125000Y-96525000D03*
X74475000Y-96525000D03*
X73825000Y-96525000D03*
X73175000Y-96525000D03*
X72525000Y-96525000D03*
X71875000Y-96525000D03*
X71225000Y-96525000D03*
X71225000Y-90975000D03*
X71875000Y-90975000D03*
X72525000Y-90975000D03*
X73175000Y-90975000D03*
X73825000Y-90975000D03*
X74475000Y-90975000D03*
X75125000Y-90975000D03*
X75775000Y-90975000D03*
D37*
X73947500Y-94485000D03*
X72157500Y-94485000D03*
X74842500Y-94485000D03*
X72157500Y-93015000D03*
X73052500Y-93015000D03*
X73052500Y-94485000D03*
X74842500Y-93015000D03*
X73947500Y-93015000D03*
D24*
X84950000Y-126150000D03*
X84950000Y-124150000D03*
D34*
X78800000Y-125600000D03*
X78800000Y-127600000D03*
D18*
X99100000Y-79200000D03*
X101100000Y-79200000D03*
D38*
X100000000Y-56060000D03*
D39*
X97460000Y-56060000D03*
X94920000Y-56060000D03*
X92380000Y-56060000D03*
X89840000Y-56060000D03*
X87300000Y-56060000D03*
X84760000Y-56060000D03*
X82220000Y-56060000D03*
X79680000Y-56060000D03*
X77140000Y-56060000D03*
X74600000Y-56060000D03*
X72060000Y-56060000D03*
X69520000Y-56060000D03*
X66980000Y-56060000D03*
X64440000Y-56060000D03*
D31*
X95987500Y-75700000D03*
X93912500Y-75700000D03*
D19*
X90000000Y-85150000D03*
X88000000Y-85150000D03*
D40*
X80605000Y-123375000D03*
X79335000Y-123375000D03*
X78065000Y-123375000D03*
X76795000Y-123375000D03*
X76795000Y-118425000D03*
X78065000Y-118425000D03*
X79335000Y-118425000D03*
X80605000Y-118425000D03*
D41*
X78700000Y-120900000D03*
D42*
X52500000Y-87500000D03*
D43*
X55040000Y-87500000D03*
X52500000Y-84960000D03*
X55040000Y-84960000D03*
X52500000Y-82420000D03*
X55040000Y-82420000D03*
X52500000Y-79880000D03*
X55040000Y-79880000D03*
X52500000Y-77340000D03*
X55040000Y-77340000D03*
D24*
X72000000Y-128000000D03*
X72000000Y-126000000D03*
D30*
X88962500Y-89600000D03*
X91037500Y-89600000D03*
D25*
X96050000Y-123162500D03*
X96050000Y-125237500D03*
D19*
X80800000Y-129500000D03*
X78800000Y-129500000D03*
D38*
X100000000Y-71300000D03*
D39*
X97460000Y-71300000D03*
X94920000Y-71300000D03*
X92380000Y-71300000D03*
X89840000Y-71300000D03*
X87300000Y-71300000D03*
X84760000Y-71300000D03*
X82220000Y-71300000D03*
X79680000Y-71300000D03*
X77140000Y-71300000D03*
X74600000Y-71300000D03*
X72060000Y-71300000D03*
X69520000Y-71300000D03*
X66980000Y-71300000D03*
X64440000Y-71300000D03*
D44*
X54300000Y-123975000D03*
X54300000Y-126025000D03*
D25*
X96050000Y-133312500D03*
X96050000Y-135387500D03*
D20*
X76800000Y-127637500D03*
X76800000Y-125562500D03*
D19*
X88850000Y-148250000D03*
X86850000Y-148250000D03*
D20*
X82950000Y-126187500D03*
X82950000Y-124112500D03*
D33*
X67062500Y-117200000D03*
X67062500Y-117850000D03*
X67062500Y-118500000D03*
X67062500Y-119150000D03*
X67062500Y-119800000D03*
X67062500Y-120450000D03*
X67062500Y-121100000D03*
X61337500Y-121100000D03*
X61337500Y-120450000D03*
X61337500Y-119800000D03*
X61337500Y-119150000D03*
X61337500Y-118500000D03*
X61337500Y-117850000D03*
X61337500Y-117200000D03*
D24*
X65600000Y-102800000D03*
X65600000Y-100800000D03*
D44*
X59150000Y-130025000D03*
X59150000Y-132075000D03*
D20*
X77000000Y-145487500D03*
X77000000Y-143412500D03*
D42*
X52500000Y-105500000D03*
D43*
X55040000Y-105500000D03*
X52500000Y-102960000D03*
X55040000Y-102960000D03*
X52500000Y-100420000D03*
X55040000Y-100420000D03*
X52500000Y-97880000D03*
X55040000Y-97880000D03*
X52500000Y-95340000D03*
X55040000Y-95340000D03*
D19*
X96450000Y-89550000D03*
X94450000Y-89550000D03*
D30*
X105312500Y-56700000D03*
X107387500Y-56700000D03*
D31*
X74737500Y-108100000D03*
X72662500Y-108100000D03*
D25*
X96000000Y-97062500D03*
X96000000Y-99137500D03*
D19*
X88750000Y-76100000D03*
X86750000Y-76100000D03*
D21*
X74700000Y-118425000D03*
X74700000Y-116375000D03*
D18*
X90900000Y-133100000D03*
X92900000Y-133100000D03*
D45*
X72775000Y-120450000D03*
X74825000Y-120450000D03*
D24*
X72000000Y-140000000D03*
X72000000Y-138000000D03*
D19*
X101100000Y-83200000D03*
X99100000Y-83200000D03*
D24*
X94800000Y-130600000D03*
X94800000Y-128600000D03*
D45*
X52475000Y-90350000D03*
X54525000Y-90350000D03*
D19*
X88850000Y-120100000D03*
X86850000Y-120100000D03*
D24*
X86250000Y-152250000D03*
X86250000Y-150250000D03*
D19*
X97200000Y-77700000D03*
X95200000Y-77700000D03*
D21*
X69250000Y-120575000D03*
X69250000Y-118525000D03*
D25*
X77500000Y-90962500D03*
X77500000Y-93037500D03*
D22*
X58225000Y-103655000D03*
X58225000Y-102385000D03*
X58225000Y-101115000D03*
X58225000Y-99845000D03*
X63175000Y-99845000D03*
X63175000Y-101115000D03*
X63175000Y-102385000D03*
X63175000Y-103655000D03*
D23*
X60700000Y-101750000D03*
D18*
X61150000Y-130100000D03*
X63150000Y-130100000D03*
D19*
X88850000Y-118100000D03*
X86850000Y-118100000D03*
D18*
X63650000Y-150150000D03*
X65650000Y-150150000D03*
D19*
X88850000Y-124100000D03*
X86850000Y-124100000D03*
D24*
X72000000Y-116000000D03*
X72000000Y-114000000D03*
D46*
X64950000Y-156600000D03*
D47*
X58912500Y-107900000D03*
X58912500Y-106950000D03*
X58912500Y-106000000D03*
X61187500Y-106000000D03*
X61187500Y-106950000D03*
X61187500Y-107900000D03*
D24*
X83000000Y-115900000D03*
X83000000Y-113900000D03*
D30*
X52462500Y-92450000D03*
X54537500Y-92450000D03*
D24*
X72000000Y-152000000D03*
X72000000Y-150000000D03*
D18*
X98200000Y-141250000D03*
X100200000Y-141250000D03*
D30*
X90862500Y-131150000D03*
X92937500Y-131150000D03*
D25*
X72550000Y-98362500D03*
X72550000Y-100437500D03*
D27*
X56475000Y-130200000D03*
X54425000Y-130200000D03*
D26*
X97540000Y-131650000D03*
X97540000Y-130700000D03*
X97540000Y-129750000D03*
X100960000Y-129750000D03*
X100960000Y-131650000D03*
D24*
X76750000Y-131600000D03*
X76750000Y-129600000D03*
D48*
X59000000Y-95350000D03*
X64400000Y-95350000D03*
D49*
X61087500Y-109550000D03*
X59312500Y-109550000D03*
D46*
X95700000Y-156600000D03*
M02*
