M48
; DRILL file {KiCad (6.0.1)} date Fri Oct 21 14:46:00 2022
; FORMAT={-:-/ absolute / inch / decimal}
; #@! TF.CreationDate,2022-10-21T14:46:00-07:00
; #@! TF.GenerationSoftware,Kicad,Pcbnew,(6.0.1)
; #@! TF.FileFunction,Plated,1,2,PTH
FMAT,2
INCH
; #@! TA.AperFunction,Plated,PTH,ViaDrill
T1C0.0079
; #@! TA.AperFunction,Plated,PTH,ComponentDrill
T2C0.0138
; #@! TA.AperFunction,Plated,PTH,ComponentDrill
T3C0.0173
; #@! TA.AperFunction,Plated,PTH,ComponentDrill
T4C0.0315
; #@! TA.AperFunction,Plated,PTH,ComponentDrill
T5C0.0354
; #@! TA.AperFunction,Plated,PTH,ComponentDrill
T6C0.0374
; #@! TA.AperFunction,Plated,PTH,ComponentDrill
T7C0.0394
; #@! TA.AperFunction,Plated,PTH,ComponentDrill
T8C0.0433
; #@! TA.AperFunction,Plated,PTH,ComponentDrill
T9C0.0906
%
G90
G05
T1
X2.5354Y-2.8022
X2.7795Y-2.7193
X2.8588Y-2.1919
X2.9055Y-2.1742
X2.9636Y-2.8455
X3.122Y-2.7982
X3.2583Y-2.2642
X3.3169Y-2.7195
X3.3591Y-2.4114
X3.5807Y-2.1742
X3.6028Y-2.7978
X3.9764Y-2.7224
X3.9793Y-2.5571
X3.9982Y-2.4103
X4.1279Y-2.6752
X4.1457Y-2.1407
X4.1843Y-2.802
X4.2717Y-2.1919
X4.3169Y-2.2913
X4.6829Y-2.4103
T3
X4.0433Y-2.0669
X4.0689Y-2.1063
X4.0945Y-2.0669
X4.1201Y-2.1063
X4.1457Y-2.0669
T4
X2.2234Y-2.6579
X2.3022Y-2.6579
X2.3787Y-2.8022
X2.6238Y-2.4402
X2.7026Y-2.4402
X2.7402Y-2.0482
X2.7402Y-2.2451
X2.7787Y-2.8022
X2.8596Y-2.0445
X2.8596Y-2.3445
X2.874Y-2.4803
X2.8778Y-2.7982
X2.9596Y-2.0445
X2.9596Y-2.3445
X3.0596Y-2.0445
X3.0596Y-2.3445
X3.1596Y-2.0445
X3.1596Y-2.3445
X3.2596Y-2.0445
X3.2596Y-2.3445
X3.274Y-2.4803
X3.2778Y-2.7982
X3.3596Y-2.0445
X3.3596Y-2.3445
X3.3797Y-2.4803
X3.4596Y-2.0445
X3.4596Y-2.3445
X3.4604Y-2.8022
X3.5815Y-2.0738
X3.6815Y-2.0738
X3.7717Y-2.2354
X3.7717Y-2.3354
X3.7797Y-2.4803
X3.7815Y-2.0738
X3.8604Y-2.8022
X3.8764Y-2.6313
X3.9764Y-2.6313
X3.986Y-2.8041
X4.0764Y-2.6313
X4.1799Y-2.4754
X4.386Y-2.8041
X4.5799Y-2.4754
X4.6841Y-2.238
X4.6841Y-2.638
T5
X2.4402Y-2.628
X2.5402Y-2.628
X3.0217Y-2.628
X3.1217Y-2.628
X3.6028Y-2.628
X3.7028Y-2.628
X4.1843Y-2.628
X4.2843Y-2.628
X4.3173Y-2.0768
X4.4173Y-2.0768
T6
X4.0482Y-2.3502
X4.1467Y-2.3502
X4.2254Y-2.3502
X4.3238Y-2.3502
T7
X2.06Y-2.375
X2.06Y-2.475
X2.16Y-2.375
X2.16Y-2.475
X2.26Y-2.375
X2.26Y-2.475
X2.36Y-2.375
X2.36Y-2.475
X2.46Y-2.375
X2.46Y-2.475
T8
X2.3622Y-2.0669
X2.3622Y-2.2441
X2.6181Y-2.0669
X2.6181Y-2.2441
T9
X3.9274Y-2.2435
X4.4447Y-2.2435
T2
G00X3.9537Y-2.0559
M15
G01X3.9537Y-2.0953
M16
G05
G00X4.2352Y-2.0559
M15
G01X4.2352Y-2.0953
M16
G05
T0
M30
