%TF.GenerationSoftware,KiCad,Pcbnew,(6.0.1)*%
%TF.CreationDate,2022-09-28T11:42:46-07:00*%
%TF.ProjectId,BonkDaddyBoard,426f6e6b-4461-4646-9479-426f6172642e,1.1*%
%TF.SameCoordinates,Original*%
%TF.FileFunction,Soldermask,Bot*%
%TF.FilePolarity,Negative*%
%FSLAX46Y46*%
G04 Gerber Fmt 4.6, Leading zero omitted, Abs format (unit mm)*
G04 Created by KiCad (PCBNEW (6.0.1)) date 2022-09-28 11:42:46*
%MOMM*%
%LPD*%
G01*
G04 APERTURE LIST*
%ADD10R,0.840000X0.840000*%
%ADD11C,0.840000*%
%ADD12O,0.850000X1.850000*%
%ADD13C,2.500000*%
%ADD14C,2.000000*%
%ADD15R,1.800000X1.800000*%
%ADD16C,1.800000*%
%ADD17C,1.600000*%
%ADD18O,1.600000X1.600000*%
%ADD19R,1.200000X1.200000*%
%ADD20C,1.200000*%
%ADD21R,1.500000X1.500000*%
%ADD22C,1.500000*%
%ADD23R,1.600000X1.600000*%
%ADD24R,1.600000X1.500000*%
%ADD25C,3.000000*%
%ADD26R,1.700000X1.700000*%
%ADD27O,1.700000X1.700000*%
G04 APERTURE END LIST*
D10*
%TO.C,J2*%
X102700000Y-52500000D03*
D11*
X103350000Y-53500000D03*
X104000000Y-52500000D03*
X104650000Y-53500000D03*
X105300000Y-52500000D03*
D12*
X100425000Y-52720000D03*
X107575000Y-52720000D03*
%TD*%
D13*
%TO.C,H1*%
X53000000Y-53000000D03*
%TD*%
%TO.C,H2*%
X117800000Y-53000000D03*
%TD*%
%TO.C,H3*%
X53000000Y-71000000D03*
%TD*%
%TO.C,H4*%
X117800000Y-71000000D03*
%TD*%
D14*
%TO.C,SW1*%
X66500000Y-52500000D03*
X60000000Y-52500000D03*
X60000000Y-57000000D03*
X66500000Y-57000000D03*
%TD*%
D15*
%TO.C,D1*%
X106280000Y-66750000D03*
D16*
X108820000Y-66750000D03*
%TD*%
D15*
%TO.C,D2*%
X112200000Y-52750000D03*
D16*
X109660000Y-52750000D03*
%TD*%
D17*
%TO.C,R1*%
X101245000Y-71225000D03*
D18*
X111405000Y-71225000D03*
%TD*%
D17*
%TO.C,R2*%
X68980000Y-71175000D03*
D18*
X58820000Y-71175000D03*
%TD*%
D15*
%TO.C,D3*%
X91510000Y-66750000D03*
D16*
X94050000Y-66750000D03*
%TD*%
D17*
%TO.C,R4*%
X87895000Y-71175000D03*
D18*
X98055000Y-71175000D03*
%TD*%
D17*
%TO.C,R5*%
X83255000Y-71075000D03*
D18*
X73095000Y-71075000D03*
%TD*%
D17*
%TO.C,R6*%
X85845000Y-63000000D03*
D18*
X96005000Y-63000000D03*
%TD*%
D17*
%TO.C,R8*%
X118975000Y-67005000D03*
D18*
X118975000Y-56845000D03*
%TD*%
D17*
%TO.C,R9*%
X73000000Y-63000000D03*
D18*
X83160000Y-63000000D03*
%TD*%
D17*
%TO.C,C1*%
X69600000Y-52025000D03*
X69600000Y-57025000D03*
%TD*%
%TO.C,R7*%
X116330000Y-62875000D03*
D18*
X106170000Y-62875000D03*
%TD*%
D19*
%TO.C,C2*%
X65877401Y-60875000D03*
D20*
X67377401Y-60875000D03*
%TD*%
D15*
%TO.C,D5*%
X79290000Y-66750000D03*
D16*
X76750000Y-66750000D03*
%TD*%
D19*
%TO.C,C3*%
X57650000Y-66975000D03*
D20*
X59150000Y-66975000D03*
%TD*%
D21*
%TO.C,Q3*%
X96050000Y-52675000D03*
D22*
X93510000Y-52675000D03*
X90970000Y-52675000D03*
%TD*%
D23*
%TO.C,U1*%
X72650000Y-59625000D03*
D18*
X75190000Y-59625000D03*
X77730000Y-59625000D03*
X80270000Y-59625000D03*
X82810000Y-59625000D03*
X85350000Y-59625000D03*
X87890000Y-59625000D03*
X87890000Y-52005000D03*
X85350000Y-52005000D03*
X82810000Y-52005000D03*
X80270000Y-52005000D03*
X77730000Y-52005000D03*
X75190000Y-52005000D03*
X72650000Y-52005000D03*
%TD*%
D15*
%TO.C,D4*%
X64520000Y-66750000D03*
D16*
X61980000Y-66750000D03*
%TD*%
D21*
%TO.C,Q4*%
X98460000Y-66835000D03*
D22*
X101000000Y-66835000D03*
X103540000Y-66835000D03*
%TD*%
D24*
%TO.C,J3*%
X102825000Y-59695000D03*
D17*
X105325000Y-59695000D03*
X107325000Y-59695000D03*
X109825000Y-59695000D03*
D25*
X112895000Y-56985000D03*
X99755000Y-56985000D03*
%TD*%
D26*
%TO.C,J1*%
X52325000Y-60325000D03*
D27*
X52325000Y-62865000D03*
X54865000Y-60325000D03*
X54865000Y-62865000D03*
X57405000Y-60325000D03*
X57405000Y-62865000D03*
X59945000Y-60325000D03*
X59945000Y-62865000D03*
X62485000Y-60325000D03*
X62485000Y-62865000D03*
%TD*%
D17*
%TO.C,R3*%
X95800000Y-59320000D03*
D18*
X95800000Y-56780000D03*
%TD*%
M02*
