%TF.GenerationSoftware,KiCad,Pcbnew,(6.0.1)*%
%TF.CreationDate,2023-11-21T01:19:50-08:00*%
%TF.ProjectId,BonkDaddyBoard,426f6e6b-4461-4646-9479-426f6172642e,1.2*%
%TF.SameCoordinates,Original*%
%TF.FileFunction,Legend,Top*%
%TF.FilePolarity,Positive*%
%FSLAX46Y46*%
G04 Gerber Fmt 4.6, Leading zero omitted, Abs format (unit mm)*
G04 Created by KiCad (PCBNEW (6.0.1)) date 2023-11-21 01:19:50*
%MOMM*%
%LPD*%
G01*
G04 APERTURE LIST*
%ADD10C,0.300000*%
%ADD11C,0.150000*%
%ADD12C,0.120000*%
G04 APERTURE END LIST*
D10*
X75185714Y-54285357D02*
X75400000Y-54356785D01*
X75471428Y-54428214D01*
X75542857Y-54571071D01*
X75542857Y-54785357D01*
X75471428Y-54928214D01*
X75400000Y-54999642D01*
X75257142Y-55071071D01*
X74685714Y-55071071D01*
X74685714Y-53571071D01*
X75185714Y-53571071D01*
X75328571Y-53642500D01*
X75400000Y-53713928D01*
X75471428Y-53856785D01*
X75471428Y-53999642D01*
X75400000Y-54142500D01*
X75328571Y-54213928D01*
X75185714Y-54285357D01*
X74685714Y-54285357D01*
X76400000Y-55071071D02*
X76257142Y-54999642D01*
X76185714Y-54928214D01*
X76114285Y-54785357D01*
X76114285Y-54356785D01*
X76185714Y-54213928D01*
X76257142Y-54142500D01*
X76400000Y-54071071D01*
X76614285Y-54071071D01*
X76757142Y-54142500D01*
X76828571Y-54213928D01*
X76900000Y-54356785D01*
X76900000Y-54785357D01*
X76828571Y-54928214D01*
X76757142Y-54999642D01*
X76614285Y-55071071D01*
X76400000Y-55071071D01*
X77542857Y-54071071D02*
X77542857Y-55071071D01*
X77542857Y-54213928D02*
X77614285Y-54142500D01*
X77757142Y-54071071D01*
X77971428Y-54071071D01*
X78114285Y-54142500D01*
X78185714Y-54285357D01*
X78185714Y-55071071D01*
X78900000Y-55071071D02*
X78900000Y-53571071D01*
X79042857Y-54499642D02*
X79471428Y-55071071D01*
X79471428Y-54071071D02*
X78900000Y-54642500D01*
X80114285Y-55071071D02*
X80114285Y-53571071D01*
X80471428Y-53571071D01*
X80685714Y-53642500D01*
X80828571Y-53785357D01*
X80900000Y-53928214D01*
X80971428Y-54213928D01*
X80971428Y-54428214D01*
X80900000Y-54713928D01*
X80828571Y-54856785D01*
X80685714Y-54999642D01*
X80471428Y-55071071D01*
X80114285Y-55071071D01*
X82257142Y-55071071D02*
X82257142Y-54285357D01*
X82185714Y-54142500D01*
X82042857Y-54071071D01*
X81757142Y-54071071D01*
X81614285Y-54142500D01*
X82257142Y-54999642D02*
X82114285Y-55071071D01*
X81757142Y-55071071D01*
X81614285Y-54999642D01*
X81542857Y-54856785D01*
X81542857Y-54713928D01*
X81614285Y-54571071D01*
X81757142Y-54499642D01*
X82114285Y-54499642D01*
X82257142Y-54428214D01*
X83614285Y-55071071D02*
X83614285Y-53571071D01*
X83614285Y-54999642D02*
X83471428Y-55071071D01*
X83185714Y-55071071D01*
X83042857Y-54999642D01*
X82971428Y-54928214D01*
X82900000Y-54785357D01*
X82900000Y-54356785D01*
X82971428Y-54213928D01*
X83042857Y-54142500D01*
X83185714Y-54071071D01*
X83471428Y-54071071D01*
X83614285Y-54142500D01*
X84971428Y-55071071D02*
X84971428Y-53571071D01*
X84971428Y-54999642D02*
X84828571Y-55071071D01*
X84542857Y-55071071D01*
X84400000Y-54999642D01*
X84328571Y-54928214D01*
X84257142Y-54785357D01*
X84257142Y-54356785D01*
X84328571Y-54213928D01*
X84400000Y-54142500D01*
X84542857Y-54071071D01*
X84828571Y-54071071D01*
X84971428Y-54142500D01*
X85542857Y-54071071D02*
X85900000Y-55071071D01*
X86257142Y-54071071D02*
X85900000Y-55071071D01*
X85757142Y-55428214D01*
X85685714Y-55499642D01*
X85542857Y-55571071D01*
X77685714Y-56486071D02*
X78042857Y-57486071D01*
X78400000Y-56486071D01*
X80900000Y-57486071D02*
X80042857Y-57486071D01*
X80471428Y-57486071D02*
X80471428Y-55986071D01*
X80328571Y-56200357D01*
X80185714Y-56343214D01*
X80042857Y-56414642D01*
X81542857Y-57343214D02*
X81614285Y-57414642D01*
X81542857Y-57486071D01*
X81471428Y-57414642D01*
X81542857Y-57343214D01*
X81542857Y-57486071D01*
X82185714Y-56128928D02*
X82257142Y-56057500D01*
X82400000Y-55986071D01*
X82757142Y-55986071D01*
X82900000Y-56057500D01*
X82971428Y-56128928D01*
X83042857Y-56271785D01*
X83042857Y-56414642D01*
X82971428Y-56628928D01*
X82114285Y-57486071D01*
X83042857Y-57486071D01*
D11*
%TO.C,J2*%
X98141666Y-51977380D02*
X98141666Y-52691666D01*
X98094047Y-52834523D01*
X97998809Y-52929761D01*
X97855952Y-52977380D01*
X97760714Y-52977380D01*
X98570238Y-52072619D02*
X98617857Y-52025000D01*
X98713095Y-51977380D01*
X98951190Y-51977380D01*
X99046428Y-52025000D01*
X99094047Y-52072619D01*
X99141666Y-52167857D01*
X99141666Y-52263095D01*
X99094047Y-52405952D01*
X98522619Y-52977380D01*
X99141666Y-52977380D01*
%TO.C,H1*%
X52238095Y-53538380D02*
X52238095Y-52538380D01*
X52238095Y-53014571D02*
X52809523Y-53014571D01*
X52809523Y-53538380D02*
X52809523Y-52538380D01*
X53809523Y-53538380D02*
X53238095Y-53538380D01*
X53523809Y-53538380D02*
X53523809Y-52538380D01*
X53428571Y-52681238D01*
X53333333Y-52776476D01*
X53238095Y-52824095D01*
%TO.C,H2*%
X116880095Y-53284380D02*
X116880095Y-52284380D01*
X116880095Y-52760571D02*
X117451523Y-52760571D01*
X117451523Y-53284380D02*
X117451523Y-52284380D01*
X117880095Y-52379619D02*
X117927714Y-52332000D01*
X118022952Y-52284380D01*
X118261047Y-52284380D01*
X118356285Y-52332000D01*
X118403904Y-52379619D01*
X118451523Y-52474857D01*
X118451523Y-52570095D01*
X118403904Y-52712952D01*
X117832476Y-53284380D01*
X118451523Y-53284380D01*
%TO.C,H3*%
X52238095Y-71572380D02*
X52238095Y-70572380D01*
X52238095Y-71048571D02*
X52809523Y-71048571D01*
X52809523Y-71572380D02*
X52809523Y-70572380D01*
X53190476Y-70572380D02*
X53809523Y-70572380D01*
X53476190Y-70953333D01*
X53619047Y-70953333D01*
X53714285Y-71000952D01*
X53761904Y-71048571D01*
X53809523Y-71143809D01*
X53809523Y-71381904D01*
X53761904Y-71477142D01*
X53714285Y-71524761D01*
X53619047Y-71572380D01*
X53333333Y-71572380D01*
X53238095Y-71524761D01*
X53190476Y-71477142D01*
%TO.C,H4*%
X117038095Y-71318380D02*
X117038095Y-70318380D01*
X117038095Y-70794571D02*
X117609523Y-70794571D01*
X117609523Y-71318380D02*
X117609523Y-70318380D01*
X118514285Y-70651714D02*
X118514285Y-71318380D01*
X118276190Y-70270761D02*
X118038095Y-70985047D01*
X118657142Y-70985047D01*
%TO.C,SW1*%
X61968666Y-55190761D02*
X62111523Y-55238380D01*
X62349619Y-55238380D01*
X62444857Y-55190761D01*
X62492476Y-55143142D01*
X62540095Y-55047904D01*
X62540095Y-54952666D01*
X62492476Y-54857428D01*
X62444857Y-54809809D01*
X62349619Y-54762190D01*
X62159142Y-54714571D01*
X62063904Y-54666952D01*
X62016285Y-54619333D01*
X61968666Y-54524095D01*
X61968666Y-54428857D01*
X62016285Y-54333619D01*
X62063904Y-54286000D01*
X62159142Y-54238380D01*
X62397238Y-54238380D01*
X62540095Y-54286000D01*
X62873428Y-54238380D02*
X63111523Y-55238380D01*
X63302000Y-54524095D01*
X63492476Y-55238380D01*
X63730571Y-54238380D01*
X64635333Y-55238380D02*
X64063904Y-55238380D01*
X64349619Y-55238380D02*
X64349619Y-54238380D01*
X64254380Y-54381238D01*
X64159142Y-54476476D01*
X64063904Y-54524095D01*
%TO.C,D1*%
X110286904Y-67202380D02*
X110286904Y-66202380D01*
X110525000Y-66202380D01*
X110667857Y-66250000D01*
X110763095Y-66345238D01*
X110810714Y-66440476D01*
X110858333Y-66630952D01*
X110858333Y-66773809D01*
X110810714Y-66964285D01*
X110763095Y-67059523D01*
X110667857Y-67154761D01*
X110525000Y-67202380D01*
X110286904Y-67202380D01*
X111810714Y-67202380D02*
X111239285Y-67202380D01*
X111525000Y-67202380D02*
X111525000Y-66202380D01*
X111429761Y-66345238D01*
X111334523Y-66440476D01*
X111239285Y-66488095D01*
%TO.C,D2*%
X113661904Y-51577380D02*
X113661904Y-50577380D01*
X113900000Y-50577380D01*
X114042857Y-50625000D01*
X114138095Y-50720238D01*
X114185714Y-50815476D01*
X114233333Y-51005952D01*
X114233333Y-51148809D01*
X114185714Y-51339285D01*
X114138095Y-51434523D01*
X114042857Y-51529761D01*
X113900000Y-51577380D01*
X113661904Y-51577380D01*
X114614285Y-50672619D02*
X114661904Y-50625000D01*
X114757142Y-50577380D01*
X114995238Y-50577380D01*
X115090476Y-50625000D01*
X115138095Y-50672619D01*
X115185714Y-50767857D01*
X115185714Y-50863095D01*
X115138095Y-51005952D01*
X114566666Y-51577380D01*
X115185714Y-51577380D01*
%TO.C,D3*%
X88691904Y-67202380D02*
X88691904Y-66202380D01*
X88930000Y-66202380D01*
X89072857Y-66250000D01*
X89168095Y-66345238D01*
X89215714Y-66440476D01*
X89263333Y-66630952D01*
X89263333Y-66773809D01*
X89215714Y-66964285D01*
X89168095Y-67059523D01*
X89072857Y-67154761D01*
X88930000Y-67202380D01*
X88691904Y-67202380D01*
X89596666Y-66202380D02*
X90215714Y-66202380D01*
X89882380Y-66583333D01*
X90025238Y-66583333D01*
X90120476Y-66630952D01*
X90168095Y-66678571D01*
X90215714Y-66773809D01*
X90215714Y-67011904D01*
X90168095Y-67107142D01*
X90120476Y-67154761D01*
X90025238Y-67202380D01*
X89739523Y-67202380D01*
X89644285Y-67154761D01*
X89596666Y-67107142D01*
%TO.C,D5*%
X80711904Y-67177380D02*
X80711904Y-66177380D01*
X80950000Y-66177380D01*
X81092857Y-66225000D01*
X81188095Y-66320238D01*
X81235714Y-66415476D01*
X81283333Y-66605952D01*
X81283333Y-66748809D01*
X81235714Y-66939285D01*
X81188095Y-67034523D01*
X81092857Y-67129761D01*
X80950000Y-67177380D01*
X80711904Y-67177380D01*
X82188095Y-66177380D02*
X81711904Y-66177380D01*
X81664285Y-66653571D01*
X81711904Y-66605952D01*
X81807142Y-66558333D01*
X82045238Y-66558333D01*
X82140476Y-66605952D01*
X82188095Y-66653571D01*
X82235714Y-66748809D01*
X82235714Y-66986904D01*
X82188095Y-67082142D01*
X82140476Y-67129761D01*
X82045238Y-67177380D01*
X81807142Y-67177380D01*
X81711904Y-67129761D01*
X81664285Y-67082142D01*
%TO.C,D4*%
X65936904Y-67202380D02*
X65936904Y-66202380D01*
X66175000Y-66202380D01*
X66317857Y-66250000D01*
X66413095Y-66345238D01*
X66460714Y-66440476D01*
X66508333Y-66630952D01*
X66508333Y-66773809D01*
X66460714Y-66964285D01*
X66413095Y-67059523D01*
X66317857Y-67154761D01*
X66175000Y-67202380D01*
X65936904Y-67202380D01*
X67365476Y-66535714D02*
X67365476Y-67202380D01*
X67127380Y-66154761D02*
X66889285Y-66869047D01*
X67508333Y-66869047D01*
%TO.C,J2*%
X99850000Y-51120000D02*
X108150000Y-51120000D01*
X99850000Y-54320000D02*
X108150000Y-54320000D01*
X101700000Y-50820000D02*
X103700000Y-50820000D01*
X99850000Y-51595000D02*
X99850000Y-51120000D01*
X108150000Y-54320000D02*
X108150000Y-53845000D01*
X108150000Y-51120000D02*
X108150000Y-51595000D01*
X99850000Y-53845000D02*
X99850000Y-54320000D01*
D12*
%TO.C,SW1*%
X61000000Y-58000000D02*
X65500000Y-58000000D01*
X65500000Y-51500000D02*
X61000000Y-51500000D01*
X66750000Y-55500000D02*
X66750000Y-54000000D01*
X59750000Y-54000000D02*
X59750000Y-55500000D01*
%TO.C,D1*%
X105990000Y-67830000D02*
X105990000Y-67986000D01*
X105990000Y-65514000D02*
X105990000Y-65670000D01*
X109222335Y-65671392D02*
G75*
G03*
X105990000Y-65514484I-1672335J-1078609D01*
G01*
X105990000Y-67985516D02*
G75*
G03*
X109222335Y-67828608I1560000J1235517D01*
G01*
X106509039Y-67830000D02*
G75*
G03*
X108591130Y-67829837I1040961J1080000D01*
G01*
X108591130Y-65670163D02*
G75*
G03*
X106509039Y-65670000I-1041130J-1079837D01*
G01*
%TO.C,D2*%
X112490000Y-53986000D02*
X112490000Y-53830000D01*
X112490000Y-51670000D02*
X112490000Y-51514000D01*
X112490000Y-51514484D02*
G75*
G03*
X109257665Y-51671392I-1560000J-1235517D01*
G01*
X109888870Y-53829837D02*
G75*
G03*
X111970961Y-53830000I1041130J1079837D01*
G01*
X109257665Y-53828608D02*
G75*
G03*
X112490000Y-53985516I1672335J1078609D01*
G01*
X111970961Y-51670000D02*
G75*
G03*
X109888870Y-51670163I-1040961J-1080000D01*
G01*
%TO.C,D3*%
X91220000Y-65514000D02*
X91220000Y-65670000D01*
X91220000Y-67830000D02*
X91220000Y-67986000D01*
X91220000Y-67985516D02*
G75*
G03*
X94452335Y-67828608I1560000J1235517D01*
G01*
X93821130Y-65670163D02*
G75*
G03*
X91739039Y-65670000I-1041130J-1079837D01*
G01*
X94452335Y-65671392D02*
G75*
G03*
X91220000Y-65514484I-1672335J-1078609D01*
G01*
X91739039Y-67830000D02*
G75*
G03*
X93821130Y-67829837I1040961J1080000D01*
G01*
%TO.C,D5*%
X79580000Y-67986000D02*
X79580000Y-67830000D01*
X79580000Y-65670000D02*
X79580000Y-65514000D01*
X76978870Y-67829837D02*
G75*
G03*
X79060961Y-67830000I1041130J1079837D01*
G01*
X76347665Y-67828608D02*
G75*
G03*
X79580000Y-67985516I1672335J1078609D01*
G01*
X79060961Y-65670000D02*
G75*
G03*
X76978870Y-65670163I-1040961J-1080000D01*
G01*
X79580000Y-65514484D02*
G75*
G03*
X76347665Y-65671392I-1560000J-1235517D01*
G01*
%TO.C,D4*%
X64810000Y-65670000D02*
X64810000Y-65514000D01*
X64810000Y-67986000D02*
X64810000Y-67830000D01*
X62208870Y-67829837D02*
G75*
G03*
X64290961Y-67830000I1041130J1079837D01*
G01*
X64290961Y-65670000D02*
G75*
G03*
X62208870Y-65670163I-1040961J-1080000D01*
G01*
X61577665Y-67828608D02*
G75*
G03*
X64810000Y-67985516I1672335J1078609D01*
G01*
X64810000Y-65514484D02*
G75*
G03*
X61577665Y-65671392I-1560000J-1235517D01*
G01*
%TD*%
M02*
