%TF.GenerationSoftware,KiCad,Pcbnew,(6.0.1)*%
%TF.CreationDate,2022-09-28T11:42:46-07:00*%
%TF.ProjectId,BonkDaddyBoard,426f6e6b-4461-4646-9479-426f6172642e,1.1*%
%TF.SameCoordinates,Original*%
%TF.FileFunction,Legend,Bot*%
%TF.FilePolarity,Positive*%
%FSLAX46Y46*%
G04 Gerber Fmt 4.6, Leading zero omitted, Abs format (unit mm)*
G04 Created by KiCad (PCBNEW (6.0.1)) date 2022-09-28 11:42:46*
%MOMM*%
%LPD*%
G01*
G04 APERTURE LIST*
%ADD10C,0.800000*%
%ADD11C,0.120000*%
%ADD12C,0.150000*%
%ADD13C,0.300000*%
G04 APERTURE END LIST*
D10*
X50425000Y-59033400D02*
X50425000Y-64316600D01*
D11*
X114260714Y-72775000D02*
X114332142Y-72739285D01*
X114439285Y-72739285D01*
X114546428Y-72775000D01*
X114617857Y-72846428D01*
X114653571Y-72917857D01*
X114689285Y-73060714D01*
X114689285Y-73167857D01*
X114653571Y-73310714D01*
X114617857Y-73382142D01*
X114546428Y-73453571D01*
X114439285Y-73489285D01*
X114367857Y-73489285D01*
X114260714Y-73453571D01*
X114225000Y-73417857D01*
X114225000Y-73167857D01*
X114367857Y-73167857D01*
X113903571Y-73489285D02*
X113903571Y-72989285D01*
X113903571Y-73132142D02*
X113867857Y-73060714D01*
X113832142Y-73025000D01*
X113760714Y-72989285D01*
X113689285Y-72989285D01*
X113153571Y-73453571D02*
X113225000Y-73489285D01*
X113367857Y-73489285D01*
X113439285Y-73453571D01*
X113475000Y-73382142D01*
X113475000Y-73096428D01*
X113439285Y-73025000D01*
X113367857Y-72989285D01*
X113225000Y-72989285D01*
X113153571Y-73025000D01*
X113117857Y-73096428D01*
X113117857Y-73167857D01*
X113475000Y-73239285D01*
X112510714Y-73453571D02*
X112582142Y-73489285D01*
X112725000Y-73489285D01*
X112796428Y-73453571D01*
X112832142Y-73382142D01*
X112832142Y-73096428D01*
X112796428Y-73025000D01*
X112725000Y-72989285D01*
X112582142Y-72989285D01*
X112510714Y-73025000D01*
X112475000Y-73096428D01*
X112475000Y-73167857D01*
X112832142Y-73239285D01*
X112153571Y-72989285D02*
X112153571Y-73489285D01*
X112153571Y-73060714D02*
X112117857Y-73025000D01*
X112046428Y-72989285D01*
X111939285Y-72989285D01*
X111867857Y-73025000D01*
X111832142Y-73096428D01*
X111832142Y-73489285D01*
X111582142Y-72989285D02*
X111296428Y-72989285D01*
X111475000Y-73489285D02*
X111475000Y-72846428D01*
X111439285Y-72775000D01*
X111367857Y-72739285D01*
X111296428Y-72739285D01*
X110725000Y-73489285D02*
X110725000Y-73096428D01*
X110760714Y-73025000D01*
X110832142Y-72989285D01*
X110975000Y-72989285D01*
X111046428Y-73025000D01*
X110725000Y-73453571D02*
X110796428Y-73489285D01*
X110975000Y-73489285D01*
X111046428Y-73453571D01*
X111082142Y-73382142D01*
X111082142Y-73310714D01*
X111046428Y-73239285D01*
X110975000Y-73203571D01*
X110796428Y-73203571D01*
X110725000Y-73167857D01*
X110046428Y-73453571D02*
X110117857Y-73489285D01*
X110260714Y-73489285D01*
X110332142Y-73453571D01*
X110367857Y-73417857D01*
X110403571Y-73346428D01*
X110403571Y-73132142D01*
X110367857Y-73060714D01*
X110332142Y-73025000D01*
X110260714Y-72989285D01*
X110117857Y-72989285D01*
X110046428Y-73025000D01*
X109439285Y-73453571D02*
X109510714Y-73489285D01*
X109653571Y-73489285D01*
X109725000Y-73453571D01*
X109760714Y-73382142D01*
X109760714Y-73096428D01*
X109725000Y-73025000D01*
X109653571Y-72989285D01*
X109510714Y-72989285D01*
X109439285Y-73025000D01*
X109403571Y-73096428D01*
X109403571Y-73167857D01*
X109760714Y-73239285D01*
X108153571Y-73489285D02*
X108510714Y-73489285D01*
X108510714Y-72739285D01*
X107582142Y-73489285D02*
X107582142Y-73096428D01*
X107617857Y-73025000D01*
X107689285Y-72989285D01*
X107832142Y-72989285D01*
X107903571Y-73025000D01*
X107582142Y-73453571D02*
X107653571Y-73489285D01*
X107832142Y-73489285D01*
X107903571Y-73453571D01*
X107939285Y-73382142D01*
X107939285Y-73310714D01*
X107903571Y-73239285D01*
X107832142Y-73203571D01*
X107653571Y-73203571D01*
X107582142Y-73167857D01*
X107225000Y-73489285D02*
X107225000Y-72739285D01*
X107225000Y-73025000D02*
X107153571Y-72989285D01*
X107010714Y-72989285D01*
X106939285Y-73025000D01*
X106903571Y-73060714D01*
X106867857Y-73132142D01*
X106867857Y-73346428D01*
X106903571Y-73417857D01*
X106939285Y-73453571D01*
X107010714Y-73489285D01*
X107153571Y-73489285D01*
X107225000Y-73453571D01*
X106582142Y-73453571D02*
X106510714Y-73489285D01*
X106367857Y-73489285D01*
X106296428Y-73453571D01*
X106260714Y-73382142D01*
X106260714Y-73346428D01*
X106296428Y-73275000D01*
X106367857Y-73239285D01*
X106475000Y-73239285D01*
X106546428Y-73203571D01*
X106582142Y-73132142D01*
X106582142Y-73096428D01*
X106546428Y-73025000D01*
X106475000Y-72989285D01*
X106367857Y-72989285D01*
X106296428Y-73025000D01*
D12*
X51564285Y-58177380D02*
X52135714Y-58177380D01*
X51850000Y-58177380D02*
X51850000Y-57177380D01*
X51945238Y-57320238D01*
X52040476Y-57415476D01*
X52135714Y-57463095D01*
D13*
X85989285Y-54610357D02*
X85775000Y-54681785D01*
X85703571Y-54753214D01*
X85632142Y-54896071D01*
X85632142Y-55110357D01*
X85703571Y-55253214D01*
X85775000Y-55324642D01*
X85917857Y-55396071D01*
X86489285Y-55396071D01*
X86489285Y-53896071D01*
X85989285Y-53896071D01*
X85846428Y-53967500D01*
X85775000Y-54038928D01*
X85703571Y-54181785D01*
X85703571Y-54324642D01*
X85775000Y-54467500D01*
X85846428Y-54538928D01*
X85989285Y-54610357D01*
X86489285Y-54610357D01*
X84775000Y-55396071D02*
X84917857Y-55324642D01*
X84989285Y-55253214D01*
X85060714Y-55110357D01*
X85060714Y-54681785D01*
X84989285Y-54538928D01*
X84917857Y-54467500D01*
X84775000Y-54396071D01*
X84560714Y-54396071D01*
X84417857Y-54467500D01*
X84346428Y-54538928D01*
X84275000Y-54681785D01*
X84275000Y-55110357D01*
X84346428Y-55253214D01*
X84417857Y-55324642D01*
X84560714Y-55396071D01*
X84775000Y-55396071D01*
X83632142Y-54396071D02*
X83632142Y-55396071D01*
X83632142Y-54538928D02*
X83560714Y-54467500D01*
X83417857Y-54396071D01*
X83203571Y-54396071D01*
X83060714Y-54467500D01*
X82989285Y-54610357D01*
X82989285Y-55396071D01*
X82275000Y-55396071D02*
X82275000Y-53896071D01*
X82132142Y-54824642D02*
X81703571Y-55396071D01*
X81703571Y-54396071D02*
X82275000Y-54967500D01*
X81060714Y-55396071D02*
X81060714Y-53896071D01*
X80703571Y-53896071D01*
X80489285Y-53967500D01*
X80346428Y-54110357D01*
X80275000Y-54253214D01*
X80203571Y-54538928D01*
X80203571Y-54753214D01*
X80275000Y-55038928D01*
X80346428Y-55181785D01*
X80489285Y-55324642D01*
X80703571Y-55396071D01*
X81060714Y-55396071D01*
X78917857Y-55396071D02*
X78917857Y-54610357D01*
X78989285Y-54467500D01*
X79132142Y-54396071D01*
X79417857Y-54396071D01*
X79560714Y-54467500D01*
X78917857Y-55324642D02*
X79060714Y-55396071D01*
X79417857Y-55396071D01*
X79560714Y-55324642D01*
X79632142Y-55181785D01*
X79632142Y-55038928D01*
X79560714Y-54896071D01*
X79417857Y-54824642D01*
X79060714Y-54824642D01*
X78917857Y-54753214D01*
X77560714Y-55396071D02*
X77560714Y-53896071D01*
X77560714Y-55324642D02*
X77703571Y-55396071D01*
X77989285Y-55396071D01*
X78132142Y-55324642D01*
X78203571Y-55253214D01*
X78275000Y-55110357D01*
X78275000Y-54681785D01*
X78203571Y-54538928D01*
X78132142Y-54467500D01*
X77989285Y-54396071D01*
X77703571Y-54396071D01*
X77560714Y-54467500D01*
X76203571Y-55396071D02*
X76203571Y-53896071D01*
X76203571Y-55324642D02*
X76346428Y-55396071D01*
X76632142Y-55396071D01*
X76775000Y-55324642D01*
X76846428Y-55253214D01*
X76917857Y-55110357D01*
X76917857Y-54681785D01*
X76846428Y-54538928D01*
X76775000Y-54467500D01*
X76632142Y-54396071D01*
X76346428Y-54396071D01*
X76203571Y-54467500D01*
X75632142Y-54396071D02*
X75275000Y-55396071D01*
X74917857Y-54396071D02*
X75275000Y-55396071D01*
X75417857Y-55753214D01*
X75489285Y-55824642D01*
X75632142Y-55896071D01*
X83489285Y-56811071D02*
X83132142Y-57811071D01*
X82775000Y-56811071D01*
X80275000Y-57811071D02*
X81132142Y-57811071D01*
X80703571Y-57811071D02*
X80703571Y-56311071D01*
X80846428Y-56525357D01*
X80989285Y-56668214D01*
X81132142Y-56739642D01*
X79632142Y-57668214D02*
X79560714Y-57739642D01*
X79632142Y-57811071D01*
X79703571Y-57739642D01*
X79632142Y-57668214D01*
X79632142Y-57811071D01*
X78132142Y-57811071D02*
X78989285Y-57811071D01*
X78560714Y-57811071D02*
X78560714Y-56311071D01*
X78703571Y-56525357D01*
X78846428Y-56668214D01*
X78989285Y-56739642D01*
D12*
%TO.C,J3*%
X100758333Y-62327380D02*
X100758333Y-63041666D01*
X100805952Y-63184523D01*
X100901190Y-63279761D01*
X101044047Y-63327380D01*
X101139285Y-63327380D01*
X100377380Y-62327380D02*
X99758333Y-62327380D01*
X100091666Y-62708333D01*
X99948809Y-62708333D01*
X99853571Y-62755952D01*
X99805952Y-62803571D01*
X99758333Y-62898809D01*
X99758333Y-63136904D01*
X99805952Y-63232142D01*
X99853571Y-63279761D01*
X99948809Y-63327380D01*
X100234523Y-63327380D01*
X100329761Y-63279761D01*
X100377380Y-63232142D01*
%TO.C,J1*%
X63885133Y-57592980D02*
X63885133Y-58307266D01*
X63932752Y-58450123D01*
X64027990Y-58545361D01*
X64170847Y-58592980D01*
X64266085Y-58592980D01*
X62885133Y-58592980D02*
X63456561Y-58592980D01*
X63170847Y-58592980D02*
X63170847Y-57592980D01*
X63266085Y-57735838D01*
X63361323Y-57831076D01*
X63456561Y-57878695D01*
%TO.C,R3*%
X93466666Y-59777380D02*
X93800000Y-59301190D01*
X94038095Y-59777380D02*
X94038095Y-58777380D01*
X93657142Y-58777380D01*
X93561904Y-58825000D01*
X93514285Y-58872619D01*
X93466666Y-58967857D01*
X93466666Y-59110714D01*
X93514285Y-59205952D01*
X93561904Y-59253571D01*
X93657142Y-59301190D01*
X94038095Y-59301190D01*
X93133333Y-58777380D02*
X92514285Y-58777380D01*
X92847619Y-59158333D01*
X92704761Y-59158333D01*
X92609523Y-59205952D01*
X92561904Y-59253571D01*
X92514285Y-59348809D01*
X92514285Y-59586904D01*
X92561904Y-59682142D01*
X92609523Y-59729761D01*
X92704761Y-59777380D01*
X92990476Y-59777380D01*
X93085714Y-59729761D01*
X93133333Y-59682142D01*
D11*
%TO.C,J3*%
X99705000Y-55195000D02*
X113025000Y-55195000D01*
X99665000Y-62075000D02*
X99665000Y-58745000D01*
X112985000Y-62075000D02*
X112985000Y-58745000D01*
X99665000Y-62075000D02*
X112985000Y-62075000D01*
X101925000Y-62295000D02*
X103725000Y-62295000D01*
%TO.C,J1*%
X50995000Y-58995000D02*
X50995000Y-60325000D01*
X53595000Y-58995000D02*
X53595000Y-61595000D01*
X50995000Y-61595000D02*
X50995000Y-64195000D01*
X63815000Y-58995000D02*
X63815000Y-64195000D01*
X50995000Y-64195000D02*
X63815000Y-64195000D01*
X53595000Y-58995000D02*
X63815000Y-58995000D01*
X52325000Y-58995000D02*
X50995000Y-58995000D01*
X53595000Y-61595000D02*
X50995000Y-61595000D01*
%TO.C,R3*%
X95800000Y-57950000D02*
X95800000Y-57880000D01*
X97170000Y-59320000D02*
G75*
G03*
X97170000Y-59320000I-1370000J0D01*
G01*
%TD*%
M02*
