%TF.GenerationSoftware,KiCad,Pcbnew,(6.0.1)*%
%TF.CreationDate,2022-09-28T11:42:46-07:00*%
%TF.ProjectId,BonkDaddyBoard,426f6e6b-4461-4646-9479-426f6172642e,1.1*%
%TF.SameCoordinates,Original*%
%TF.FileFunction,Legend,Top*%
%TF.FilePolarity,Positive*%
%FSLAX46Y46*%
G04 Gerber Fmt 4.6, Leading zero omitted, Abs format (unit mm)*
G04 Created by KiCad (PCBNEW (6.0.1)) date 2022-09-28 11:42:46*
%MOMM*%
%LPD*%
G01*
G04 APERTURE LIST*
%ADD10C,0.150000*%
%ADD11C,0.120000*%
G04 APERTURE END LIST*
D10*
%TO.C,J2*%
X98141666Y-51977380D02*
X98141666Y-52691666D01*
X98094047Y-52834523D01*
X97998809Y-52929761D01*
X97855952Y-52977380D01*
X97760714Y-52977380D01*
X98570238Y-52072619D02*
X98617857Y-52025000D01*
X98713095Y-51977380D01*
X98951190Y-51977380D01*
X99046428Y-52025000D01*
X99094047Y-52072619D01*
X99141666Y-52167857D01*
X99141666Y-52263095D01*
X99094047Y-52405952D01*
X98522619Y-52977380D01*
X99141666Y-52977380D01*
%TO.C,H1*%
X52238095Y-53538380D02*
X52238095Y-52538380D01*
X52238095Y-53014571D02*
X52809523Y-53014571D01*
X52809523Y-53538380D02*
X52809523Y-52538380D01*
X53809523Y-53538380D02*
X53238095Y-53538380D01*
X53523809Y-53538380D02*
X53523809Y-52538380D01*
X53428571Y-52681238D01*
X53333333Y-52776476D01*
X53238095Y-52824095D01*
%TO.C,H2*%
X116880095Y-53284380D02*
X116880095Y-52284380D01*
X116880095Y-52760571D02*
X117451523Y-52760571D01*
X117451523Y-53284380D02*
X117451523Y-52284380D01*
X117880095Y-52379619D02*
X117927714Y-52332000D01*
X118022952Y-52284380D01*
X118261047Y-52284380D01*
X118356285Y-52332000D01*
X118403904Y-52379619D01*
X118451523Y-52474857D01*
X118451523Y-52570095D01*
X118403904Y-52712952D01*
X117832476Y-53284380D01*
X118451523Y-53284380D01*
%TO.C,H3*%
X52238095Y-71572380D02*
X52238095Y-70572380D01*
X52238095Y-71048571D02*
X52809523Y-71048571D01*
X52809523Y-71572380D02*
X52809523Y-70572380D01*
X53190476Y-70572380D02*
X53809523Y-70572380D01*
X53476190Y-70953333D01*
X53619047Y-70953333D01*
X53714285Y-71000952D01*
X53761904Y-71048571D01*
X53809523Y-71143809D01*
X53809523Y-71381904D01*
X53761904Y-71477142D01*
X53714285Y-71524761D01*
X53619047Y-71572380D01*
X53333333Y-71572380D01*
X53238095Y-71524761D01*
X53190476Y-71477142D01*
%TO.C,H4*%
X117038095Y-71318380D02*
X117038095Y-70318380D01*
X117038095Y-70794571D02*
X117609523Y-70794571D01*
X117609523Y-71318380D02*
X117609523Y-70318380D01*
X118514285Y-70651714D02*
X118514285Y-71318380D01*
X118276190Y-70270761D02*
X118038095Y-70985047D01*
X118657142Y-70985047D01*
%TO.C,SW1*%
X61968666Y-55190761D02*
X62111523Y-55238380D01*
X62349619Y-55238380D01*
X62444857Y-55190761D01*
X62492476Y-55143142D01*
X62540095Y-55047904D01*
X62540095Y-54952666D01*
X62492476Y-54857428D01*
X62444857Y-54809809D01*
X62349619Y-54762190D01*
X62159142Y-54714571D01*
X62063904Y-54666952D01*
X62016285Y-54619333D01*
X61968666Y-54524095D01*
X61968666Y-54428857D01*
X62016285Y-54333619D01*
X62063904Y-54286000D01*
X62159142Y-54238380D01*
X62397238Y-54238380D01*
X62540095Y-54286000D01*
X62873428Y-54238380D02*
X63111523Y-55238380D01*
X63302000Y-54524095D01*
X63492476Y-55238380D01*
X63730571Y-54238380D01*
X64635333Y-55238380D02*
X64063904Y-55238380D01*
X64349619Y-55238380D02*
X64349619Y-54238380D01*
X64254380Y-54381238D01*
X64159142Y-54476476D01*
X64063904Y-54524095D01*
%TO.C,D1*%
X110286904Y-67202380D02*
X110286904Y-66202380D01*
X110525000Y-66202380D01*
X110667857Y-66250000D01*
X110763095Y-66345238D01*
X110810714Y-66440476D01*
X110858333Y-66630952D01*
X110858333Y-66773809D01*
X110810714Y-66964285D01*
X110763095Y-67059523D01*
X110667857Y-67154761D01*
X110525000Y-67202380D01*
X110286904Y-67202380D01*
X111810714Y-67202380D02*
X111239285Y-67202380D01*
X111525000Y-67202380D02*
X111525000Y-66202380D01*
X111429761Y-66345238D01*
X111334523Y-66440476D01*
X111239285Y-66488095D01*
%TO.C,D2*%
X113661904Y-51577380D02*
X113661904Y-50577380D01*
X113900000Y-50577380D01*
X114042857Y-50625000D01*
X114138095Y-50720238D01*
X114185714Y-50815476D01*
X114233333Y-51005952D01*
X114233333Y-51148809D01*
X114185714Y-51339285D01*
X114138095Y-51434523D01*
X114042857Y-51529761D01*
X113900000Y-51577380D01*
X113661904Y-51577380D01*
X114614285Y-50672619D02*
X114661904Y-50625000D01*
X114757142Y-50577380D01*
X114995238Y-50577380D01*
X115090476Y-50625000D01*
X115138095Y-50672619D01*
X115185714Y-50767857D01*
X115185714Y-50863095D01*
X115138095Y-51005952D01*
X114566666Y-51577380D01*
X115185714Y-51577380D01*
%TO.C,R1*%
X113408333Y-71677380D02*
X113075000Y-71201190D01*
X112836904Y-71677380D02*
X112836904Y-70677380D01*
X113217857Y-70677380D01*
X113313095Y-70725000D01*
X113360714Y-70772619D01*
X113408333Y-70867857D01*
X113408333Y-71010714D01*
X113360714Y-71105952D01*
X113313095Y-71153571D01*
X113217857Y-71201190D01*
X112836904Y-71201190D01*
X114360714Y-71677380D02*
X113789285Y-71677380D01*
X114075000Y-71677380D02*
X114075000Y-70677380D01*
X113979761Y-70820238D01*
X113884523Y-70915476D01*
X113789285Y-70963095D01*
%TO.C,R2*%
X56533333Y-71577380D02*
X56200000Y-71101190D01*
X55961904Y-71577380D02*
X55961904Y-70577380D01*
X56342857Y-70577380D01*
X56438095Y-70625000D01*
X56485714Y-70672619D01*
X56533333Y-70767857D01*
X56533333Y-70910714D01*
X56485714Y-71005952D01*
X56438095Y-71053571D01*
X56342857Y-71101190D01*
X55961904Y-71101190D01*
X56914285Y-70672619D02*
X56961904Y-70625000D01*
X57057142Y-70577380D01*
X57295238Y-70577380D01*
X57390476Y-70625000D01*
X57438095Y-70672619D01*
X57485714Y-70767857D01*
X57485714Y-70863095D01*
X57438095Y-71005952D01*
X56866666Y-71577380D01*
X57485714Y-71577380D01*
%TO.C,D3*%
X88691904Y-67202380D02*
X88691904Y-66202380D01*
X88930000Y-66202380D01*
X89072857Y-66250000D01*
X89168095Y-66345238D01*
X89215714Y-66440476D01*
X89263333Y-66630952D01*
X89263333Y-66773809D01*
X89215714Y-66964285D01*
X89168095Y-67059523D01*
X89072857Y-67154761D01*
X88930000Y-67202380D01*
X88691904Y-67202380D01*
X89596666Y-66202380D02*
X90215714Y-66202380D01*
X89882380Y-66583333D01*
X90025238Y-66583333D01*
X90120476Y-66630952D01*
X90168095Y-66678571D01*
X90215714Y-66773809D01*
X90215714Y-67011904D01*
X90168095Y-67107142D01*
X90120476Y-67154761D01*
X90025238Y-67202380D01*
X89739523Y-67202380D01*
X89644285Y-67154761D01*
X89596666Y-67107142D01*
%TO.C,R4*%
X87433333Y-69352380D02*
X87100000Y-68876190D01*
X86861904Y-69352380D02*
X86861904Y-68352380D01*
X87242857Y-68352380D01*
X87338095Y-68400000D01*
X87385714Y-68447619D01*
X87433333Y-68542857D01*
X87433333Y-68685714D01*
X87385714Y-68780952D01*
X87338095Y-68828571D01*
X87242857Y-68876190D01*
X86861904Y-68876190D01*
X88290476Y-68685714D02*
X88290476Y-69352380D01*
X88052380Y-68304761D02*
X87814285Y-69019047D01*
X88433333Y-69019047D01*
%TO.C,R5*%
X74132333Y-69191780D02*
X73799000Y-68715590D01*
X73560904Y-69191780D02*
X73560904Y-68191780D01*
X73941857Y-68191780D01*
X74037095Y-68239400D01*
X74084714Y-68287019D01*
X74132333Y-68382257D01*
X74132333Y-68525114D01*
X74084714Y-68620352D01*
X74037095Y-68667971D01*
X73941857Y-68715590D01*
X73560904Y-68715590D01*
X75037095Y-68191780D02*
X74560904Y-68191780D01*
X74513285Y-68667971D01*
X74560904Y-68620352D01*
X74656142Y-68572733D01*
X74894238Y-68572733D01*
X74989476Y-68620352D01*
X75037095Y-68667971D01*
X75084714Y-68763209D01*
X75084714Y-69001304D01*
X75037095Y-69096542D01*
X74989476Y-69144161D01*
X74894238Y-69191780D01*
X74656142Y-69191780D01*
X74560904Y-69144161D01*
X74513285Y-69096542D01*
%TO.C,R6*%
X91708333Y-61177380D02*
X91375000Y-60701190D01*
X91136904Y-61177380D02*
X91136904Y-60177380D01*
X91517857Y-60177380D01*
X91613095Y-60225000D01*
X91660714Y-60272619D01*
X91708333Y-60367857D01*
X91708333Y-60510714D01*
X91660714Y-60605952D01*
X91613095Y-60653571D01*
X91517857Y-60701190D01*
X91136904Y-60701190D01*
X92565476Y-60177380D02*
X92375000Y-60177380D01*
X92279761Y-60225000D01*
X92232142Y-60272619D01*
X92136904Y-60415476D01*
X92089285Y-60605952D01*
X92089285Y-60986904D01*
X92136904Y-61082142D01*
X92184523Y-61129761D01*
X92279761Y-61177380D01*
X92470238Y-61177380D01*
X92565476Y-61129761D01*
X92613095Y-61082142D01*
X92660714Y-60986904D01*
X92660714Y-60748809D01*
X92613095Y-60653571D01*
X92565476Y-60605952D01*
X92470238Y-60558333D01*
X92279761Y-60558333D01*
X92184523Y-60605952D01*
X92136904Y-60653571D01*
X92089285Y-60748809D01*
%TO.C,R8*%
X116283333Y-57702380D02*
X115950000Y-57226190D01*
X115711904Y-57702380D02*
X115711904Y-56702380D01*
X116092857Y-56702380D01*
X116188095Y-56750000D01*
X116235714Y-56797619D01*
X116283333Y-56892857D01*
X116283333Y-57035714D01*
X116235714Y-57130952D01*
X116188095Y-57178571D01*
X116092857Y-57226190D01*
X115711904Y-57226190D01*
X116854761Y-57130952D02*
X116759523Y-57083333D01*
X116711904Y-57035714D01*
X116664285Y-56940476D01*
X116664285Y-56892857D01*
X116711904Y-56797619D01*
X116759523Y-56750000D01*
X116854761Y-56702380D01*
X117045238Y-56702380D01*
X117140476Y-56750000D01*
X117188095Y-56797619D01*
X117235714Y-56892857D01*
X117235714Y-56940476D01*
X117188095Y-57035714D01*
X117140476Y-57083333D01*
X117045238Y-57130952D01*
X116854761Y-57130952D01*
X116759523Y-57178571D01*
X116711904Y-57226190D01*
X116664285Y-57321428D01*
X116664285Y-57511904D01*
X116711904Y-57607142D01*
X116759523Y-57654761D01*
X116854761Y-57702380D01*
X117045238Y-57702380D01*
X117140476Y-57654761D01*
X117188095Y-57607142D01*
X117235714Y-57511904D01*
X117235714Y-57321428D01*
X117188095Y-57226190D01*
X117140476Y-57178571D01*
X117045238Y-57130952D01*
%TO.C,R9*%
X70463333Y-63452380D02*
X70130000Y-62976190D01*
X69891904Y-63452380D02*
X69891904Y-62452380D01*
X70272857Y-62452380D01*
X70368095Y-62500000D01*
X70415714Y-62547619D01*
X70463333Y-62642857D01*
X70463333Y-62785714D01*
X70415714Y-62880952D01*
X70368095Y-62928571D01*
X70272857Y-62976190D01*
X69891904Y-62976190D01*
X70939523Y-63452380D02*
X71130000Y-63452380D01*
X71225238Y-63404761D01*
X71272857Y-63357142D01*
X71368095Y-63214285D01*
X71415714Y-63023809D01*
X71415714Y-62642857D01*
X71368095Y-62547619D01*
X71320476Y-62500000D01*
X71225238Y-62452380D01*
X71034761Y-62452380D01*
X70939523Y-62500000D01*
X70891904Y-62547619D01*
X70844285Y-62642857D01*
X70844285Y-62880952D01*
X70891904Y-62976190D01*
X70939523Y-63023809D01*
X71034761Y-63071428D01*
X71225238Y-63071428D01*
X71320476Y-63023809D01*
X71368095Y-62976190D01*
X71415714Y-62880952D01*
%TO.C,C1*%
X69558333Y-59507142D02*
X69510714Y-59554761D01*
X69367857Y-59602380D01*
X69272619Y-59602380D01*
X69129761Y-59554761D01*
X69034523Y-59459523D01*
X68986904Y-59364285D01*
X68939285Y-59173809D01*
X68939285Y-59030952D01*
X68986904Y-58840476D01*
X69034523Y-58745238D01*
X69129761Y-58650000D01*
X69272619Y-58602380D01*
X69367857Y-58602380D01*
X69510714Y-58650000D01*
X69558333Y-58697619D01*
X70510714Y-59602380D02*
X69939285Y-59602380D01*
X70225000Y-59602380D02*
X70225000Y-58602380D01*
X70129761Y-58745238D01*
X70034523Y-58840476D01*
X69939285Y-58888095D01*
%TO.C,R7*%
X115483333Y-65652380D02*
X115150000Y-65176190D01*
X114911904Y-65652380D02*
X114911904Y-64652380D01*
X115292857Y-64652380D01*
X115388095Y-64700000D01*
X115435714Y-64747619D01*
X115483333Y-64842857D01*
X115483333Y-64985714D01*
X115435714Y-65080952D01*
X115388095Y-65128571D01*
X115292857Y-65176190D01*
X114911904Y-65176190D01*
X115816666Y-64652380D02*
X116483333Y-64652380D01*
X116054761Y-65652380D01*
%TO.C,C2*%
X66533333Y-64382142D02*
X66485714Y-64429761D01*
X66342857Y-64477380D01*
X66247619Y-64477380D01*
X66104761Y-64429761D01*
X66009523Y-64334523D01*
X65961904Y-64239285D01*
X65914285Y-64048809D01*
X65914285Y-63905952D01*
X65961904Y-63715476D01*
X66009523Y-63620238D01*
X66104761Y-63525000D01*
X66247619Y-63477380D01*
X66342857Y-63477380D01*
X66485714Y-63525000D01*
X66533333Y-63572619D01*
X66914285Y-63572619D02*
X66961904Y-63525000D01*
X67057142Y-63477380D01*
X67295238Y-63477380D01*
X67390476Y-63525000D01*
X67438095Y-63572619D01*
X67485714Y-63667857D01*
X67485714Y-63763095D01*
X67438095Y-63905952D01*
X66866666Y-64477380D01*
X67485714Y-64477380D01*
%TO.C,D5*%
X80711904Y-67177380D02*
X80711904Y-66177380D01*
X80950000Y-66177380D01*
X81092857Y-66225000D01*
X81188095Y-66320238D01*
X81235714Y-66415476D01*
X81283333Y-66605952D01*
X81283333Y-66748809D01*
X81235714Y-66939285D01*
X81188095Y-67034523D01*
X81092857Y-67129761D01*
X80950000Y-67177380D01*
X80711904Y-67177380D01*
X82188095Y-66177380D02*
X81711904Y-66177380D01*
X81664285Y-66653571D01*
X81711904Y-66605952D01*
X81807142Y-66558333D01*
X82045238Y-66558333D01*
X82140476Y-66605952D01*
X82188095Y-66653571D01*
X82235714Y-66748809D01*
X82235714Y-66986904D01*
X82188095Y-67082142D01*
X82140476Y-67129761D01*
X82045238Y-67177380D01*
X81807142Y-67177380D01*
X81711904Y-67129761D01*
X81664285Y-67082142D01*
%TO.C,C3*%
X54958333Y-67407142D02*
X54910714Y-67454761D01*
X54767857Y-67502380D01*
X54672619Y-67502380D01*
X54529761Y-67454761D01*
X54434523Y-67359523D01*
X54386904Y-67264285D01*
X54339285Y-67073809D01*
X54339285Y-66930952D01*
X54386904Y-66740476D01*
X54434523Y-66645238D01*
X54529761Y-66550000D01*
X54672619Y-66502380D01*
X54767857Y-66502380D01*
X54910714Y-66550000D01*
X54958333Y-66597619D01*
X55291666Y-66502380D02*
X55910714Y-66502380D01*
X55577380Y-66883333D01*
X55720238Y-66883333D01*
X55815476Y-66930952D01*
X55863095Y-66978571D01*
X55910714Y-67073809D01*
X55910714Y-67311904D01*
X55863095Y-67407142D01*
X55815476Y-67454761D01*
X55720238Y-67502380D01*
X55434523Y-67502380D01*
X55339285Y-67454761D01*
X55291666Y-67407142D01*
%TO.C,Q3*%
X91954761Y-56797619D02*
X91859523Y-56750000D01*
X91764285Y-56654761D01*
X91621428Y-56511904D01*
X91526190Y-56464285D01*
X91430952Y-56464285D01*
X91478571Y-56702380D02*
X91383333Y-56654761D01*
X91288095Y-56559523D01*
X91240476Y-56369047D01*
X91240476Y-56035714D01*
X91288095Y-55845238D01*
X91383333Y-55750000D01*
X91478571Y-55702380D01*
X91669047Y-55702380D01*
X91764285Y-55750000D01*
X91859523Y-55845238D01*
X91907142Y-56035714D01*
X91907142Y-56369047D01*
X91859523Y-56559523D01*
X91764285Y-56654761D01*
X91669047Y-56702380D01*
X91478571Y-56702380D01*
X92240476Y-55702380D02*
X92859523Y-55702380D01*
X92526190Y-56083333D01*
X92669047Y-56083333D01*
X92764285Y-56130952D01*
X92811904Y-56178571D01*
X92859523Y-56273809D01*
X92859523Y-56511904D01*
X92811904Y-56607142D01*
X92764285Y-56654761D01*
X92669047Y-56702380D01*
X92383333Y-56702380D01*
X92288095Y-56654761D01*
X92240476Y-56607142D01*
%TO.C,U1*%
X89813095Y-58152380D02*
X89813095Y-58961904D01*
X89860714Y-59057142D01*
X89908333Y-59104761D01*
X90003571Y-59152380D01*
X90194047Y-59152380D01*
X90289285Y-59104761D01*
X90336904Y-59057142D01*
X90384523Y-58961904D01*
X90384523Y-58152380D01*
X91384523Y-59152380D02*
X90813095Y-59152380D01*
X91098809Y-59152380D02*
X91098809Y-58152380D01*
X91003571Y-58295238D01*
X90908333Y-58390476D01*
X90813095Y-58438095D01*
%TO.C,D4*%
X65936904Y-67202380D02*
X65936904Y-66202380D01*
X66175000Y-66202380D01*
X66317857Y-66250000D01*
X66413095Y-66345238D01*
X66460714Y-66440476D01*
X66508333Y-66630952D01*
X66508333Y-66773809D01*
X66460714Y-66964285D01*
X66413095Y-67059523D01*
X66317857Y-67154761D01*
X66175000Y-67202380D01*
X65936904Y-67202380D01*
X67365476Y-66535714D02*
X67365476Y-67202380D01*
X67127380Y-66154761D02*
X66889285Y-66869047D01*
X67508333Y-66869047D01*
%TO.C,Q4*%
X98404761Y-63847619D02*
X98309523Y-63800000D01*
X98214285Y-63704761D01*
X98071428Y-63561904D01*
X97976190Y-63514285D01*
X97880952Y-63514285D01*
X97928571Y-63752380D02*
X97833333Y-63704761D01*
X97738095Y-63609523D01*
X97690476Y-63419047D01*
X97690476Y-63085714D01*
X97738095Y-62895238D01*
X97833333Y-62800000D01*
X97928571Y-62752380D01*
X98119047Y-62752380D01*
X98214285Y-62800000D01*
X98309523Y-62895238D01*
X98357142Y-63085714D01*
X98357142Y-63419047D01*
X98309523Y-63609523D01*
X98214285Y-63704761D01*
X98119047Y-63752380D01*
X97928571Y-63752380D01*
X99214285Y-63085714D02*
X99214285Y-63752380D01*
X98976190Y-62704761D02*
X98738095Y-63419047D01*
X99357142Y-63419047D01*
%TO.C,J2*%
X99850000Y-51120000D02*
X108150000Y-51120000D01*
X99850000Y-54320000D02*
X108150000Y-54320000D01*
X101700000Y-50820000D02*
X103700000Y-50820000D01*
X99850000Y-51595000D02*
X99850000Y-51120000D01*
X108150000Y-54320000D02*
X108150000Y-53845000D01*
X108150000Y-51120000D02*
X108150000Y-51595000D01*
X99850000Y-53845000D02*
X99850000Y-54320000D01*
D11*
%TO.C,SW1*%
X61000000Y-58000000D02*
X65500000Y-58000000D01*
X65500000Y-51500000D02*
X61000000Y-51500000D01*
X66750000Y-55500000D02*
X66750000Y-54000000D01*
X59750000Y-54000000D02*
X59750000Y-55500000D01*
%TO.C,D1*%
X105990000Y-67830000D02*
X105990000Y-67986000D01*
X105990000Y-65514000D02*
X105990000Y-65670000D01*
X109222335Y-65671392D02*
G75*
G03*
X105990000Y-65514484I-1672335J-1078609D01*
G01*
X105990000Y-67985516D02*
G75*
G03*
X109222335Y-67828608I1560000J1235517D01*
G01*
X106509039Y-67830000D02*
G75*
G03*
X108591130Y-67829837I1040961J1080000D01*
G01*
X108591130Y-65670163D02*
G75*
G03*
X106509039Y-65670000I-1041130J-1079837D01*
G01*
%TO.C,D2*%
X112490000Y-53986000D02*
X112490000Y-53830000D01*
X112490000Y-51670000D02*
X112490000Y-51514000D01*
X112490000Y-51514484D02*
G75*
G03*
X109257665Y-51671392I-1560000J-1235517D01*
G01*
X109888870Y-53829837D02*
G75*
G03*
X111970961Y-53830000I1041130J1079837D01*
G01*
X109257665Y-53828608D02*
G75*
G03*
X112490000Y-53985516I1672335J1078609D01*
G01*
X111970961Y-51670000D02*
G75*
G03*
X109888870Y-51670163I-1040961J-1080000D01*
G01*
%TO.C,R1*%
X102285000Y-71225000D02*
X103055000Y-71225000D01*
X109595000Y-72595000D02*
X109595000Y-69855000D01*
X103055000Y-69855000D02*
X103055000Y-72595000D01*
X103055000Y-72595000D02*
X109595000Y-72595000D01*
X110365000Y-71225000D02*
X109595000Y-71225000D01*
X109595000Y-69855000D02*
X103055000Y-69855000D01*
%TO.C,R2*%
X67940000Y-71175000D02*
X67170000Y-71175000D01*
X60630000Y-72545000D02*
X67170000Y-72545000D01*
X59860000Y-71175000D02*
X60630000Y-71175000D01*
X60630000Y-69805000D02*
X60630000Y-72545000D01*
X67170000Y-72545000D02*
X67170000Y-69805000D01*
X67170000Y-69805000D02*
X60630000Y-69805000D01*
%TO.C,D3*%
X91220000Y-65514000D02*
X91220000Y-65670000D01*
X91220000Y-67830000D02*
X91220000Y-67986000D01*
X91220000Y-67985516D02*
G75*
G03*
X94452335Y-67828608I1560000J1235517D01*
G01*
X93821130Y-65670163D02*
G75*
G03*
X91739039Y-65670000I-1041130J-1079837D01*
G01*
X94452335Y-65671392D02*
G75*
G03*
X91220000Y-65514484I-1672335J-1078609D01*
G01*
X91739039Y-67830000D02*
G75*
G03*
X93821130Y-67829837I1040961J1080000D01*
G01*
%TO.C,R4*%
X88935000Y-71175000D02*
X89705000Y-71175000D01*
X89705000Y-72545000D02*
X96245000Y-72545000D01*
X97015000Y-71175000D02*
X96245000Y-71175000D01*
X96245000Y-72545000D02*
X96245000Y-69805000D01*
X96245000Y-69805000D02*
X89705000Y-69805000D01*
X89705000Y-69805000D02*
X89705000Y-72545000D01*
%TO.C,R5*%
X81445000Y-72445000D02*
X81445000Y-69705000D01*
X81445000Y-69705000D02*
X74905000Y-69705000D01*
X74135000Y-71075000D02*
X74905000Y-71075000D01*
X74905000Y-69705000D02*
X74905000Y-72445000D01*
X82215000Y-71075000D02*
X81445000Y-71075000D01*
X74905000Y-72445000D02*
X81445000Y-72445000D01*
%TO.C,R6*%
X94195000Y-64370000D02*
X94195000Y-61630000D01*
X86885000Y-63000000D02*
X87655000Y-63000000D01*
X87655000Y-61630000D02*
X87655000Y-64370000D01*
X94965000Y-63000000D02*
X94195000Y-63000000D01*
X87655000Y-64370000D02*
X94195000Y-64370000D01*
X94195000Y-61630000D02*
X87655000Y-61630000D01*
%TO.C,R8*%
X117605000Y-65195000D02*
X120345000Y-65195000D01*
X118975000Y-57885000D02*
X118975000Y-58655000D01*
X117605000Y-58655000D02*
X117605000Y-65195000D01*
X118975000Y-65965000D02*
X118975000Y-65195000D01*
X120345000Y-65195000D02*
X120345000Y-58655000D01*
X120345000Y-58655000D02*
X117605000Y-58655000D01*
%TO.C,R9*%
X74810000Y-64370000D02*
X81350000Y-64370000D01*
X74040000Y-63000000D02*
X74810000Y-63000000D01*
X81350000Y-64370000D02*
X81350000Y-61630000D01*
X82120000Y-63000000D02*
X81350000Y-63000000D01*
X81350000Y-61630000D02*
X74810000Y-61630000D01*
X74810000Y-61630000D02*
X74810000Y-64370000D01*
%TO.C,C1*%
X68480000Y-50905000D02*
X68480000Y-58145000D01*
X70720000Y-50905000D02*
X70720000Y-58145000D01*
X70720000Y-50905000D02*
X68480000Y-50905000D01*
X70720000Y-58145000D02*
X68480000Y-58145000D01*
%TO.C,R7*%
X107980000Y-64245000D02*
X114520000Y-64245000D01*
X107210000Y-62875000D02*
X107980000Y-62875000D01*
X114520000Y-61505000D02*
X107980000Y-61505000D01*
X115290000Y-62875000D02*
X114520000Y-62875000D01*
X114520000Y-64245000D02*
X114520000Y-61505000D01*
X107980000Y-61505000D02*
X107980000Y-64245000D01*
%TO.C,C2*%
X68148401Y-59437000D02*
X68148401Y-60035000D01*
X66987401Y-61715000D02*
X66987401Y-62925000D01*
X67307401Y-58907000D02*
X67307401Y-60035000D01*
X68508401Y-59935000D02*
X68508401Y-61815000D01*
X66907401Y-58813000D02*
X66907401Y-60035000D01*
X67948401Y-61715000D02*
X67948401Y-62494000D01*
X67548401Y-59005000D02*
X67548401Y-60035000D01*
X67988401Y-61715000D02*
X67988401Y-62462000D01*
X66907401Y-61715000D02*
X66907401Y-62937000D01*
X66867401Y-58808000D02*
X66867401Y-60035000D01*
X68268401Y-59571000D02*
X68268401Y-62179000D01*
X67227401Y-61715000D02*
X67227401Y-62869000D01*
X67147401Y-58859000D02*
X67147401Y-60035000D01*
X68348401Y-59675000D02*
X68348401Y-62075000D01*
X68028401Y-59323000D02*
X68028401Y-60035000D01*
X68108401Y-61715000D02*
X68108401Y-62353000D01*
X68428401Y-59795000D02*
X68428401Y-61955000D01*
X67107401Y-58850000D02*
X67107401Y-60035000D01*
X67628401Y-61715000D02*
X67628401Y-62705000D01*
X67948401Y-59256000D02*
X67948401Y-60035000D01*
X67908401Y-59225000D02*
X67908401Y-60035000D01*
X67548401Y-61715000D02*
X67548401Y-62745000D01*
X66627401Y-58795000D02*
X66627401Y-60035000D01*
X66747401Y-58798000D02*
X66747401Y-60035000D01*
X67147401Y-61715000D02*
X67147401Y-62891000D01*
X67267401Y-61715000D02*
X67267401Y-62857000D01*
X66867401Y-61715000D02*
X66867401Y-62942000D01*
X68188401Y-61715000D02*
X68188401Y-62271000D01*
X67748401Y-61715000D02*
X67748401Y-62635000D01*
X67708401Y-59090000D02*
X67708401Y-60035000D01*
X67668401Y-61715000D02*
X67668401Y-62683000D01*
X68708401Y-60505000D02*
X68708401Y-61245000D01*
X68028401Y-61715000D02*
X68028401Y-62427000D01*
X68188401Y-59479000D02*
X68188401Y-60035000D01*
X66627401Y-61715000D02*
X66627401Y-62955000D01*
X66667401Y-61715000D02*
X66667401Y-62955000D01*
X67388401Y-61715000D02*
X67388401Y-62815000D01*
X67588401Y-59024000D02*
X67588401Y-60035000D01*
X66787401Y-61715000D02*
X66787401Y-62949000D01*
X67988401Y-59288000D02*
X67988401Y-60035000D01*
X67468401Y-61715000D02*
X67468401Y-62782000D01*
X67668401Y-59067000D02*
X67668401Y-60035000D01*
X68148401Y-61715000D02*
X68148401Y-62313000D01*
X67708401Y-61715000D02*
X67708401Y-62660000D01*
X68668401Y-60338000D02*
X68668401Y-61412000D01*
X67348401Y-58921000D02*
X67348401Y-60035000D01*
X67227401Y-58881000D02*
X67227401Y-60035000D01*
X67067401Y-58841000D02*
X67067401Y-60035000D01*
X67307401Y-61715000D02*
X67307401Y-62843000D01*
X68228401Y-59524000D02*
X68228401Y-62226000D01*
X67788401Y-59140000D02*
X67788401Y-60035000D01*
X68468401Y-59862000D02*
X68468401Y-61888000D01*
X67828401Y-61715000D02*
X67828401Y-62583000D01*
X64357600Y-59680000D02*
X64757600Y-59680000D01*
X66707401Y-61715000D02*
X66707401Y-62954000D01*
X67388401Y-58935000D02*
X67388401Y-60035000D01*
X67788401Y-61715000D02*
X67788401Y-62610000D01*
X67187401Y-58870000D02*
X67187401Y-60035000D01*
X67508401Y-61715000D02*
X67508401Y-62764000D01*
X67027401Y-61715000D02*
X67027401Y-62917000D01*
X66947401Y-61715000D02*
X66947401Y-62931000D01*
X68628401Y-60211000D02*
X68628401Y-61539000D01*
X67508401Y-58986000D02*
X67508401Y-60035000D01*
X67828401Y-59167000D02*
X67828401Y-60035000D01*
X68108401Y-59397000D02*
X68108401Y-60035000D01*
X67588401Y-61715000D02*
X67588401Y-62726000D01*
X67628401Y-59045000D02*
X67628401Y-60035000D01*
X66707401Y-58796000D02*
X66707401Y-60035000D01*
X68388401Y-59733000D02*
X68388401Y-62017000D01*
X66827401Y-58804000D02*
X66827401Y-60035000D01*
X67868401Y-59195000D02*
X67868401Y-60035000D01*
X66787401Y-58801000D02*
X66787401Y-60035000D01*
X68068401Y-61715000D02*
X68068401Y-62391000D01*
X66747401Y-61715000D02*
X66747401Y-62952000D01*
X67428401Y-58951000D02*
X67428401Y-60035000D01*
X66667401Y-58795000D02*
X66667401Y-60035000D01*
X67868401Y-61715000D02*
X67868401Y-62555000D01*
X67027401Y-58833000D02*
X67027401Y-60035000D01*
X67468401Y-58968000D02*
X67468401Y-60035000D01*
X66987401Y-58825000D02*
X66987401Y-60035000D01*
X66947401Y-58819000D02*
X66947401Y-60035000D01*
X67348401Y-61715000D02*
X67348401Y-62829000D01*
X67067401Y-61715000D02*
X67067401Y-62909000D01*
X64557600Y-59480000D02*
X64557600Y-59880000D01*
X68308401Y-59621000D02*
X68308401Y-62129000D01*
X67748401Y-59115000D02*
X67748401Y-60035000D01*
X67267401Y-58893000D02*
X67267401Y-60035000D01*
X68548401Y-60016000D02*
X68548401Y-61734000D01*
X67187401Y-61715000D02*
X67187401Y-62880000D01*
X68068401Y-59359000D02*
X68068401Y-60035000D01*
X67428401Y-61715000D02*
X67428401Y-62799000D01*
X67908401Y-61715000D02*
X67908401Y-62525000D01*
X68588401Y-60107000D02*
X68588401Y-61643000D01*
X66827401Y-61715000D02*
X66827401Y-62946000D01*
X67107401Y-61715000D02*
X67107401Y-62900000D01*
X68747401Y-60875000D02*
G75*
G03*
X68747401Y-60875000I-2120000J0D01*
G01*
%TO.C,D5*%
X79580000Y-67986000D02*
X79580000Y-67830000D01*
X79580000Y-65670000D02*
X79580000Y-65514000D01*
X76978870Y-67829837D02*
G75*
G03*
X79060961Y-67830000I1041130J1079837D01*
G01*
X76347665Y-67828608D02*
G75*
G03*
X79580000Y-67985516I1672335J1078609D01*
G01*
X79060961Y-65670000D02*
G75*
G03*
X76978870Y-65670163I-1040961J-1080000D01*
G01*
X79580000Y-65514484D02*
G75*
G03*
X76347665Y-65671392I-1560000J-1235517D01*
G01*
%TO.C,C3*%
X60321000Y-66116000D02*
X60321000Y-67834000D01*
X59721000Y-67815000D02*
X59721000Y-68594000D01*
X59521000Y-65215000D02*
X59521000Y-66135000D01*
X59841000Y-67815000D02*
X59841000Y-68491000D01*
X59121000Y-67815000D02*
X59121000Y-68929000D01*
X59721000Y-65356000D02*
X59721000Y-66135000D01*
X59681000Y-67815000D02*
X59681000Y-68625000D01*
X59321000Y-65105000D02*
X59321000Y-66135000D01*
X58960000Y-67815000D02*
X58960000Y-68980000D01*
X59361000Y-67815000D02*
X59361000Y-68826000D01*
X58520000Y-67815000D02*
X58520000Y-69052000D01*
X59040000Y-67815000D02*
X59040000Y-68957000D01*
X58840000Y-64941000D02*
X58840000Y-66135000D01*
X59921000Y-67815000D02*
X59921000Y-68413000D01*
X59201000Y-65051000D02*
X59201000Y-66135000D01*
X58600000Y-67815000D02*
X58600000Y-69046000D01*
X58400000Y-67815000D02*
X58400000Y-69055000D01*
X59161000Y-67815000D02*
X59161000Y-68915000D01*
X58720000Y-64919000D02*
X58720000Y-66135000D01*
X59281000Y-65086000D02*
X59281000Y-66135000D01*
X58760000Y-64925000D02*
X58760000Y-66135000D01*
X59040000Y-64993000D02*
X59040000Y-66135000D01*
X56330199Y-65580000D02*
X56330199Y-65980000D01*
X59080000Y-65007000D02*
X59080000Y-66135000D01*
X59841000Y-65459000D02*
X59841000Y-66135000D01*
X58440000Y-64895000D02*
X58440000Y-66135000D01*
X59881000Y-67815000D02*
X59881000Y-68453000D01*
X58400000Y-64895000D02*
X58400000Y-66135000D01*
X58920000Y-64959000D02*
X58920000Y-66135000D01*
X58560000Y-67815000D02*
X58560000Y-69049000D01*
X58600000Y-64904000D02*
X58600000Y-66135000D01*
X59401000Y-67815000D02*
X59401000Y-68805000D01*
X60201000Y-65895000D02*
X60201000Y-68055000D01*
X59761000Y-67815000D02*
X59761000Y-68562000D01*
X59080000Y-67815000D02*
X59080000Y-68943000D01*
X60441000Y-66438000D02*
X60441000Y-67512000D01*
X60401000Y-66311000D02*
X60401000Y-67639000D01*
X58480000Y-67815000D02*
X58480000Y-69054000D01*
X59161000Y-65035000D02*
X59161000Y-66135000D01*
X58520000Y-64898000D02*
X58520000Y-66135000D01*
X59561000Y-67815000D02*
X59561000Y-68710000D01*
X59481000Y-65190000D02*
X59481000Y-66135000D01*
X59961000Y-67815000D02*
X59961000Y-68371000D01*
X59361000Y-65124000D02*
X59361000Y-66135000D01*
X59801000Y-65423000D02*
X59801000Y-66135000D01*
X58760000Y-67815000D02*
X58760000Y-69025000D01*
X58480000Y-64896000D02*
X58480000Y-66135000D01*
X58880000Y-67815000D02*
X58880000Y-69000000D01*
X60241000Y-65962000D02*
X60241000Y-67988000D01*
X60121000Y-65775000D02*
X60121000Y-68175000D01*
X59601000Y-65267000D02*
X59601000Y-66135000D01*
X59481000Y-67815000D02*
X59481000Y-68760000D01*
X59921000Y-65537000D02*
X59921000Y-66135000D01*
X60001000Y-65624000D02*
X60001000Y-68326000D01*
X56130199Y-65780000D02*
X56530199Y-65780000D01*
X58720000Y-67815000D02*
X58720000Y-69031000D01*
X58640000Y-64908000D02*
X58640000Y-66135000D01*
X59441000Y-67815000D02*
X59441000Y-68783000D01*
X58960000Y-64970000D02*
X58960000Y-66135000D01*
X60481000Y-66605000D02*
X60481000Y-67345000D01*
X59601000Y-67815000D02*
X59601000Y-68683000D01*
X59241000Y-67815000D02*
X59241000Y-68882000D01*
X59321000Y-67815000D02*
X59321000Y-68845000D01*
X58440000Y-67815000D02*
X58440000Y-69055000D01*
X58640000Y-67815000D02*
X58640000Y-69042000D01*
X59521000Y-67815000D02*
X59521000Y-68735000D01*
X58920000Y-67815000D02*
X58920000Y-68991000D01*
X59441000Y-65167000D02*
X59441000Y-66135000D01*
X59201000Y-67815000D02*
X59201000Y-68899000D01*
X58880000Y-64950000D02*
X58880000Y-66135000D01*
X59681000Y-65325000D02*
X59681000Y-66135000D01*
X60161000Y-65833000D02*
X60161000Y-68117000D01*
X59961000Y-65579000D02*
X59961000Y-66135000D01*
X59000000Y-64981000D02*
X59000000Y-66135000D01*
X59641000Y-65295000D02*
X59641000Y-66135000D01*
X60361000Y-66207000D02*
X60361000Y-67743000D01*
X60081000Y-65721000D02*
X60081000Y-68229000D01*
X59401000Y-65145000D02*
X59401000Y-66135000D01*
X58800000Y-64933000D02*
X58800000Y-66135000D01*
X59000000Y-67815000D02*
X59000000Y-68969000D01*
X58680000Y-67815000D02*
X58680000Y-69037000D01*
X59241000Y-65068000D02*
X59241000Y-66135000D01*
X59801000Y-67815000D02*
X59801000Y-68527000D01*
X59281000Y-67815000D02*
X59281000Y-68864000D01*
X60281000Y-66035000D02*
X60281000Y-67915000D01*
X59121000Y-65021000D02*
X59121000Y-66135000D01*
X59881000Y-65497000D02*
X59881000Y-66135000D01*
X59761000Y-65388000D02*
X59761000Y-66135000D01*
X59561000Y-65240000D02*
X59561000Y-66135000D01*
X58840000Y-67815000D02*
X58840000Y-69009000D01*
X58560000Y-64901000D02*
X58560000Y-66135000D01*
X58680000Y-64913000D02*
X58680000Y-66135000D01*
X58800000Y-67815000D02*
X58800000Y-69017000D01*
X60041000Y-65671000D02*
X60041000Y-68279000D01*
X59641000Y-67815000D02*
X59641000Y-68655000D01*
X60520000Y-66975000D02*
G75*
G03*
X60520000Y-66975000I-2120000J0D01*
G01*
%TO.C,Q3*%
X95310000Y-50825000D02*
X91710000Y-50825000D01*
X91153600Y-53773807D02*
G75*
G03*
X93510000Y-55275000I2356399J1098804D01*
G01*
X93510000Y-55275000D02*
G75*
G03*
X95866400Y-53773807I-2J2600002D01*
G01*
X95834184Y-51552205D02*
G75*
G03*
X95310000Y-50825000I-2324175J-1122789D01*
G01*
X91710000Y-50825000D02*
G75*
G03*
X91185816Y-51552205I1799991J-1849994D01*
G01*
%TO.C,U1*%
X71260000Y-60955000D02*
X89280000Y-60955000D01*
X71320000Y-56815000D02*
X71320000Y-58465000D01*
X89280000Y-60955000D02*
X89280000Y-50675000D01*
X71320000Y-53165000D02*
X71320000Y-54815000D01*
X89280000Y-50675000D02*
X71260000Y-50675000D01*
X89220000Y-53165000D02*
X71320000Y-53165000D01*
X71260000Y-50675000D02*
X71260000Y-60955000D01*
X71320000Y-58465000D02*
X89220000Y-58465000D01*
X89220000Y-58465000D02*
X89220000Y-53165000D01*
X71320000Y-56815000D02*
G75*
G03*
X71320000Y-54815000I0J1000000D01*
G01*
%TO.C,D4*%
X64810000Y-65670000D02*
X64810000Y-65514000D01*
X64810000Y-67986000D02*
X64810000Y-67830000D01*
X62208870Y-67829837D02*
G75*
G03*
X64290961Y-67830000I1041130J1079837D01*
G01*
X64290961Y-65670000D02*
G75*
G03*
X62208870Y-65670163I-1040961J-1080000D01*
G01*
X61577665Y-67828608D02*
G75*
G03*
X64810000Y-67985516I1672335J1078609D01*
G01*
X64810000Y-65514484D02*
G75*
G03*
X61577665Y-65671392I-1560000J-1235517D01*
G01*
%TO.C,Q4*%
X99200000Y-68685000D02*
X102800000Y-68685000D01*
X103356400Y-65736193D02*
G75*
G03*
X101000000Y-64235000I-2356399J-1098804D01*
G01*
X101000000Y-64235000D02*
G75*
G03*
X98643600Y-65736193I2J-2600002D01*
G01*
X98675816Y-67957795D02*
G75*
G03*
X99200000Y-68685000I2324175J1122789D01*
G01*
X102800000Y-68685000D02*
G75*
G03*
X103324184Y-67957795I-1799991J1849994D01*
G01*
%TD*%
M02*
