%TF.GenerationSoftware,KiCad,Pcbnew,(6.0.1)*%
%TF.CreationDate,2023-11-21T01:19:50-08:00*%
%TF.ProjectId,BonkDaddyBoard,426f6e6b-4461-4646-9479-426f6172642e,1.2*%
%TF.SameCoordinates,Original*%
%TF.FileFunction,Legend,Bot*%
%TF.FilePolarity,Positive*%
%FSLAX46Y46*%
G04 Gerber Fmt 4.6, Leading zero omitted, Abs format (unit mm)*
G04 Created by KiCad (PCBNEW (6.0.1)) date 2023-11-21 01:19:50*
%MOMM*%
%LPD*%
G01*
G04 APERTURE LIST*
%ADD10C,0.300000*%
%ADD11C,0.120000*%
%ADD12C,0.800000*%
%ADD13C,0.250000*%
%ADD14C,0.150000*%
G04 APERTURE END LIST*
D10*
X92135714Y-63728571D02*
X92992857Y-63728571D01*
X92564285Y-63728571D02*
X92564285Y-62228571D01*
X92707142Y-62442857D01*
X92850000Y-62585714D01*
X92992857Y-62657142D01*
X91207142Y-62228571D02*
X91064285Y-62228571D01*
X90921428Y-62300000D01*
X90850000Y-62371428D01*
X90778571Y-62514285D01*
X90707142Y-62800000D01*
X90707142Y-63157142D01*
X90778571Y-63442857D01*
X90850000Y-63585714D01*
X90921428Y-63657142D01*
X91064285Y-63728571D01*
X91207142Y-63728571D01*
X91350000Y-63657142D01*
X91421428Y-63585714D01*
X91492857Y-63442857D01*
X91564285Y-63157142D01*
X91564285Y-62800000D01*
X91492857Y-62514285D01*
X91421428Y-62371428D01*
X91350000Y-62300000D01*
X91207142Y-62228571D01*
X90064285Y-63728571D02*
X90064285Y-62228571D01*
X89207142Y-63728571D02*
X89850000Y-62871428D01*
X89207142Y-62228571D02*
X90064285Y-63085714D01*
X79685714Y-63628571D02*
X80542857Y-63628571D01*
X80114285Y-63628571D02*
X80114285Y-62128571D01*
X80257142Y-62342857D01*
X80400000Y-62485714D01*
X80542857Y-62557142D01*
X78757142Y-62128571D02*
X78614285Y-62128571D01*
X78471428Y-62200000D01*
X78400000Y-62271428D01*
X78328571Y-62414285D01*
X78257142Y-62700000D01*
X78257142Y-63057142D01*
X78328571Y-63342857D01*
X78400000Y-63485714D01*
X78471428Y-63557142D01*
X78614285Y-63628571D01*
X78757142Y-63628571D01*
X78900000Y-63557142D01*
X78971428Y-63485714D01*
X79042857Y-63342857D01*
X79114285Y-63057142D01*
X79114285Y-62700000D01*
X79042857Y-62414285D01*
X78971428Y-62271428D01*
X78900000Y-62200000D01*
X78757142Y-62128571D01*
X77614285Y-63628571D02*
X77614285Y-62128571D01*
X76757142Y-63628571D02*
X77400000Y-62771428D01*
X76757142Y-62128571D02*
X77614285Y-62985714D01*
X66400000Y-71878571D02*
X67257142Y-71878571D01*
X66828571Y-71878571D02*
X66828571Y-70378571D01*
X66971428Y-70592857D01*
X67114285Y-70735714D01*
X67257142Y-70807142D01*
X65471428Y-70378571D02*
X65328571Y-70378571D01*
X65185714Y-70450000D01*
X65114285Y-70521428D01*
X65042857Y-70664285D01*
X64971428Y-70950000D01*
X64971428Y-71307142D01*
X65042857Y-71592857D01*
X65114285Y-71735714D01*
X65185714Y-71807142D01*
X65328571Y-71878571D01*
X65471428Y-71878571D01*
X65614285Y-71807142D01*
X65685714Y-71735714D01*
X65757142Y-71592857D01*
X65828571Y-71307142D01*
X65828571Y-70950000D01*
X65757142Y-70664285D01*
X65685714Y-70521428D01*
X65614285Y-70450000D01*
X65471428Y-70378571D01*
X64042857Y-70378571D02*
X63900000Y-70378571D01*
X63757142Y-70450000D01*
X63685714Y-70521428D01*
X63614285Y-70664285D01*
X63542857Y-70950000D01*
X63542857Y-71307142D01*
X63614285Y-71592857D01*
X63685714Y-71735714D01*
X63757142Y-71807142D01*
X63900000Y-71878571D01*
X64042857Y-71878571D01*
X64185714Y-71807142D01*
X64257142Y-71735714D01*
X64328571Y-71592857D01*
X64400000Y-71307142D01*
X64400000Y-70950000D01*
X64328571Y-70664285D01*
X64257142Y-70521428D01*
X64185714Y-70450000D01*
X64042857Y-70378571D01*
X79350000Y-71728571D02*
X80207142Y-71728571D01*
X79778571Y-71728571D02*
X79778571Y-70228571D01*
X79921428Y-70442857D01*
X80064285Y-70585714D01*
X80207142Y-70657142D01*
X78421428Y-70228571D02*
X78278571Y-70228571D01*
X78135714Y-70300000D01*
X78064285Y-70371428D01*
X77992857Y-70514285D01*
X77921428Y-70800000D01*
X77921428Y-71157142D01*
X77992857Y-71442857D01*
X78064285Y-71585714D01*
X78135714Y-71657142D01*
X78278571Y-71728571D01*
X78421428Y-71728571D01*
X78564285Y-71657142D01*
X78635714Y-71585714D01*
X78707142Y-71442857D01*
X78778571Y-71157142D01*
X78778571Y-70800000D01*
X78707142Y-70514285D01*
X78635714Y-70371428D01*
X78564285Y-70300000D01*
X78421428Y-70228571D01*
X76992857Y-70228571D02*
X76850000Y-70228571D01*
X76707142Y-70300000D01*
X76635714Y-70371428D01*
X76564285Y-70514285D01*
X76492857Y-70800000D01*
X76492857Y-71157142D01*
X76564285Y-71442857D01*
X76635714Y-71585714D01*
X76707142Y-71657142D01*
X76850000Y-71728571D01*
X76992857Y-71728571D01*
X77135714Y-71657142D01*
X77207142Y-71585714D01*
X77278571Y-71442857D01*
X77350000Y-71157142D01*
X77350000Y-70800000D01*
X77278571Y-70514285D01*
X77207142Y-70371428D01*
X77135714Y-70300000D01*
X76992857Y-70228571D01*
X94000000Y-71728571D02*
X94857142Y-71728571D01*
X94428571Y-71728571D02*
X94428571Y-70228571D01*
X94571428Y-70442857D01*
X94714285Y-70585714D01*
X94857142Y-70657142D01*
X93071428Y-70228571D02*
X92928571Y-70228571D01*
X92785714Y-70300000D01*
X92714285Y-70371428D01*
X92642857Y-70514285D01*
X92571428Y-70800000D01*
X92571428Y-71157142D01*
X92642857Y-71442857D01*
X92714285Y-71585714D01*
X92785714Y-71657142D01*
X92928571Y-71728571D01*
X93071428Y-71728571D01*
X93214285Y-71657142D01*
X93285714Y-71585714D01*
X93357142Y-71442857D01*
X93428571Y-71157142D01*
X93428571Y-70800000D01*
X93357142Y-70514285D01*
X93285714Y-70371428D01*
X93214285Y-70300000D01*
X93071428Y-70228571D01*
X91642857Y-70228571D02*
X91500000Y-70228571D01*
X91357142Y-70300000D01*
X91285714Y-70371428D01*
X91214285Y-70514285D01*
X91142857Y-70800000D01*
X91142857Y-71157142D01*
X91214285Y-71442857D01*
X91285714Y-71585714D01*
X91357142Y-71657142D01*
X91500000Y-71728571D01*
X91642857Y-71728571D01*
X91785714Y-71657142D01*
X91857142Y-71585714D01*
X91928571Y-71442857D01*
X92000000Y-71157142D01*
X92000000Y-70800000D01*
X91928571Y-70514285D01*
X91857142Y-70371428D01*
X91785714Y-70300000D01*
X91642857Y-70228571D01*
X116564285Y-66878571D02*
X115635714Y-66878571D01*
X116135714Y-67450000D01*
X115921428Y-67450000D01*
X115778571Y-67521428D01*
X115707142Y-67592857D01*
X115635714Y-67735714D01*
X115635714Y-68092857D01*
X115707142Y-68235714D01*
X115778571Y-68307142D01*
X115921428Y-68378571D01*
X116350000Y-68378571D01*
X116492857Y-68307142D01*
X116564285Y-68235714D01*
X114707142Y-66878571D02*
X114564285Y-66878571D01*
X114421428Y-66950000D01*
X114350000Y-67021428D01*
X114278571Y-67164285D01*
X114207142Y-67450000D01*
X114207142Y-67807142D01*
X114278571Y-68092857D01*
X114350000Y-68235714D01*
X114421428Y-68307142D01*
X114564285Y-68378571D01*
X114707142Y-68378571D01*
X114850000Y-68307142D01*
X114921428Y-68235714D01*
X114992857Y-68092857D01*
X115064285Y-67807142D01*
X115064285Y-67450000D01*
X114992857Y-67164285D01*
X114921428Y-67021428D01*
X114850000Y-66950000D01*
X114707142Y-66878571D01*
X113564285Y-68378571D02*
X113564285Y-66878571D01*
X112707142Y-68378571D02*
X113350000Y-67521428D01*
X112707142Y-66878571D02*
X113564285Y-67735714D01*
X107400000Y-71978571D02*
X108257142Y-71978571D01*
X107828571Y-71978571D02*
X107828571Y-70478571D01*
X107971428Y-70692857D01*
X108114285Y-70835714D01*
X108257142Y-70907142D01*
X106471428Y-70478571D02*
X106328571Y-70478571D01*
X106185714Y-70550000D01*
X106114285Y-70621428D01*
X106042857Y-70764285D01*
X105971428Y-71050000D01*
X105971428Y-71407142D01*
X106042857Y-71692857D01*
X106114285Y-71835714D01*
X106185714Y-71907142D01*
X106328571Y-71978571D01*
X106471428Y-71978571D01*
X106614285Y-71907142D01*
X106685714Y-71835714D01*
X106757142Y-71692857D01*
X106828571Y-71407142D01*
X106828571Y-71050000D01*
X106757142Y-70764285D01*
X106685714Y-70621428D01*
X106614285Y-70550000D01*
X106471428Y-70478571D01*
X105042857Y-70478571D02*
X104900000Y-70478571D01*
X104757142Y-70550000D01*
X104685714Y-70621428D01*
X104614285Y-70764285D01*
X104542857Y-71050000D01*
X104542857Y-71407142D01*
X104614285Y-71692857D01*
X104685714Y-71835714D01*
X104757142Y-71907142D01*
X104900000Y-71978571D01*
X105042857Y-71978571D01*
X105185714Y-71907142D01*
X105257142Y-71835714D01*
X105328571Y-71692857D01*
X105400000Y-71407142D01*
X105400000Y-71050000D01*
X105328571Y-70764285D01*
X105257142Y-70621428D01*
X105185714Y-70550000D01*
X105042857Y-70478571D01*
X118378571Y-60035714D02*
X118378571Y-60964285D01*
X118950000Y-60464285D01*
X118950000Y-60678571D01*
X119021428Y-60821428D01*
X119092857Y-60892857D01*
X119235714Y-60964285D01*
X119592857Y-60964285D01*
X119735714Y-60892857D01*
X119807142Y-60821428D01*
X119878571Y-60678571D01*
X119878571Y-60250000D01*
X119807142Y-60107142D01*
X119735714Y-60035714D01*
X118378571Y-61892857D02*
X118378571Y-62035714D01*
X118450000Y-62178571D01*
X118521428Y-62250000D01*
X118664285Y-62321428D01*
X118950000Y-62392857D01*
X119307142Y-62392857D01*
X119592857Y-62321428D01*
X119735714Y-62250000D01*
X119807142Y-62178571D01*
X119878571Y-62035714D01*
X119878571Y-61892857D01*
X119807142Y-61750000D01*
X119735714Y-61678571D01*
X119592857Y-61607142D01*
X119307142Y-61535714D01*
X118950000Y-61535714D01*
X118664285Y-61607142D01*
X118521428Y-61678571D01*
X118450000Y-61750000D01*
X118378571Y-61892857D01*
X119878571Y-63035714D02*
X118378571Y-63035714D01*
X119878571Y-63892857D02*
X119021428Y-63250000D01*
X118378571Y-63892857D02*
X119235714Y-63035714D01*
D11*
X76412500Y-64725000D02*
X85687500Y-64725000D01*
X85687500Y-64725000D02*
X85687500Y-68750000D01*
X85687500Y-68750000D02*
X76412500Y-68750000D01*
X76412500Y-68750000D02*
X76412500Y-64725000D01*
G36*
X76412500Y-64725000D02*
G01*
X85687500Y-64725000D01*
X85687500Y-68750000D01*
X76412500Y-68750000D01*
X76412500Y-64725000D01*
G37*
D12*
X50425000Y-59033400D02*
X50425000Y-64316600D01*
D13*
X89000000Y-67378571D02*
X89857142Y-67378571D01*
X89428571Y-67378571D02*
X89428571Y-65878571D01*
X89571428Y-66092857D01*
X89714285Y-66235714D01*
X89857142Y-66307142D01*
X88357142Y-67235714D02*
X88285714Y-67307142D01*
X88357142Y-67378571D01*
X88428571Y-67307142D01*
X88357142Y-67235714D01*
X88357142Y-67378571D01*
X87714285Y-66021428D02*
X87642857Y-65950000D01*
X87500000Y-65878571D01*
X87142857Y-65878571D01*
X87000000Y-65950000D01*
X86928571Y-66021428D01*
X86857142Y-66164285D01*
X86857142Y-66307142D01*
X86928571Y-66521428D01*
X87785714Y-67378571D01*
X86857142Y-67378571D01*
X86214285Y-67235714D02*
X86142857Y-67307142D01*
X86214285Y-67378571D01*
X86285714Y-67307142D01*
X86214285Y-67235714D01*
X86214285Y-67378571D01*
D11*
X81785714Y-72850000D02*
X81857142Y-72814285D01*
X81964285Y-72814285D01*
X82071428Y-72850000D01*
X82142857Y-72921428D01*
X82178571Y-72992857D01*
X82214285Y-73135714D01*
X82214285Y-73242857D01*
X82178571Y-73385714D01*
X82142857Y-73457142D01*
X82071428Y-73528571D01*
X81964285Y-73564285D01*
X81892857Y-73564285D01*
X81785714Y-73528571D01*
X81750000Y-73492857D01*
X81750000Y-73242857D01*
X81892857Y-73242857D01*
X81428571Y-73564285D02*
X81428571Y-73064285D01*
X81428571Y-73207142D02*
X81392857Y-73135714D01*
X81357142Y-73100000D01*
X81285714Y-73064285D01*
X81214285Y-73064285D01*
X80678571Y-73528571D02*
X80750000Y-73564285D01*
X80892857Y-73564285D01*
X80964285Y-73528571D01*
X81000000Y-73457142D01*
X81000000Y-73171428D01*
X80964285Y-73100000D01*
X80892857Y-73064285D01*
X80750000Y-73064285D01*
X80678571Y-73100000D01*
X80642857Y-73171428D01*
X80642857Y-73242857D01*
X81000000Y-73314285D01*
X80035714Y-73528571D02*
X80107142Y-73564285D01*
X80250000Y-73564285D01*
X80321428Y-73528571D01*
X80357142Y-73457142D01*
X80357142Y-73171428D01*
X80321428Y-73100000D01*
X80250000Y-73064285D01*
X80107142Y-73064285D01*
X80035714Y-73100000D01*
X80000000Y-73171428D01*
X80000000Y-73242857D01*
X80357142Y-73314285D01*
X79678571Y-73064285D02*
X79678571Y-73564285D01*
X79678571Y-73135714D02*
X79642857Y-73100000D01*
X79571428Y-73064285D01*
X79464285Y-73064285D01*
X79392857Y-73100000D01*
X79357142Y-73171428D01*
X79357142Y-73564285D01*
X79107142Y-73064285D02*
X78821428Y-73064285D01*
X79000000Y-73564285D02*
X79000000Y-72921428D01*
X78964285Y-72850000D01*
X78892857Y-72814285D01*
X78821428Y-72814285D01*
X78250000Y-73564285D02*
X78250000Y-73171428D01*
X78285714Y-73100000D01*
X78357142Y-73064285D01*
X78500000Y-73064285D01*
X78571428Y-73100000D01*
X78250000Y-73528571D02*
X78321428Y-73564285D01*
X78500000Y-73564285D01*
X78571428Y-73528571D01*
X78607142Y-73457142D01*
X78607142Y-73385714D01*
X78571428Y-73314285D01*
X78500000Y-73278571D01*
X78321428Y-73278571D01*
X78250000Y-73242857D01*
X77571428Y-73528571D02*
X77642857Y-73564285D01*
X77785714Y-73564285D01*
X77857142Y-73528571D01*
X77892857Y-73492857D01*
X77928571Y-73421428D01*
X77928571Y-73207142D01*
X77892857Y-73135714D01*
X77857142Y-73100000D01*
X77785714Y-73064285D01*
X77642857Y-73064285D01*
X77571428Y-73100000D01*
X76964285Y-73528571D02*
X77035714Y-73564285D01*
X77178571Y-73564285D01*
X77250000Y-73528571D01*
X77285714Y-73457142D01*
X77285714Y-73171428D01*
X77250000Y-73100000D01*
X77178571Y-73064285D01*
X77035714Y-73064285D01*
X76964285Y-73100000D01*
X76928571Y-73171428D01*
X76928571Y-73242857D01*
X77285714Y-73314285D01*
X75678571Y-73564285D02*
X76035714Y-73564285D01*
X76035714Y-72814285D01*
X75107142Y-73564285D02*
X75107142Y-73171428D01*
X75142857Y-73100000D01*
X75214285Y-73064285D01*
X75357142Y-73064285D01*
X75428571Y-73100000D01*
X75107142Y-73528571D02*
X75178571Y-73564285D01*
X75357142Y-73564285D01*
X75428571Y-73528571D01*
X75464285Y-73457142D01*
X75464285Y-73385714D01*
X75428571Y-73314285D01*
X75357142Y-73278571D01*
X75178571Y-73278571D01*
X75107142Y-73242857D01*
X74750000Y-73564285D02*
X74750000Y-72814285D01*
X74750000Y-73100000D02*
X74678571Y-73064285D01*
X74535714Y-73064285D01*
X74464285Y-73100000D01*
X74428571Y-73135714D01*
X74392857Y-73207142D01*
X74392857Y-73421428D01*
X74428571Y-73492857D01*
X74464285Y-73528571D01*
X74535714Y-73564285D01*
X74678571Y-73564285D01*
X74750000Y-73528571D01*
X74107142Y-73528571D02*
X74035714Y-73564285D01*
X73892857Y-73564285D01*
X73821428Y-73528571D01*
X73785714Y-73457142D01*
X73785714Y-73421428D01*
X73821428Y-73350000D01*
X73892857Y-73314285D01*
X74000000Y-73314285D01*
X74071428Y-73278571D01*
X74107142Y-73207142D01*
X74107142Y-73171428D01*
X74071428Y-73100000D01*
X74000000Y-73064285D01*
X73892857Y-73064285D01*
X73821428Y-73100000D01*
D14*
X51564285Y-58177380D02*
X52135714Y-58177380D01*
X51850000Y-58177380D02*
X51850000Y-57177380D01*
X51945238Y-57320238D01*
X52040476Y-57415476D01*
X52135714Y-57463095D01*
%TO.C,C3*%
X51616666Y-67207142D02*
X51664285Y-67254761D01*
X51807142Y-67302380D01*
X51902380Y-67302380D01*
X52045238Y-67254761D01*
X52140476Y-67159523D01*
X52188095Y-67064285D01*
X52235714Y-66873809D01*
X52235714Y-66730952D01*
X52188095Y-66540476D01*
X52140476Y-66445238D01*
X52045238Y-66350000D01*
X51902380Y-66302380D01*
X51807142Y-66302380D01*
X51664285Y-66350000D01*
X51616666Y-66397619D01*
X51283333Y-66302380D02*
X50664285Y-66302380D01*
X50997619Y-66683333D01*
X50854761Y-66683333D01*
X50759523Y-66730952D01*
X50711904Y-66778571D01*
X50664285Y-66873809D01*
X50664285Y-67111904D01*
X50711904Y-67207142D01*
X50759523Y-67254761D01*
X50854761Y-67302380D01*
X51140476Y-67302380D01*
X51235714Y-67254761D01*
X51283333Y-67207142D01*
%TO.C,J3*%
X100758333Y-62327380D02*
X100758333Y-63041666D01*
X100805952Y-63184523D01*
X100901190Y-63279761D01*
X101044047Y-63327380D01*
X101139285Y-63327380D01*
X100377380Y-62327380D02*
X99758333Y-62327380D01*
X100091666Y-62708333D01*
X99948809Y-62708333D01*
X99853571Y-62755952D01*
X99805952Y-62803571D01*
X99758333Y-62898809D01*
X99758333Y-63136904D01*
X99805952Y-63232142D01*
X99853571Y-63279761D01*
X99948809Y-63327380D01*
X100234523Y-63327380D01*
X100329761Y-63279761D01*
X100377380Y-63232142D01*
%TO.C,J1*%
X63885133Y-57592980D02*
X63885133Y-58307266D01*
X63932752Y-58450123D01*
X64027990Y-58545361D01*
X64170847Y-58592980D01*
X64266085Y-58592980D01*
X62885133Y-58592980D02*
X63456561Y-58592980D01*
X63170847Y-58592980D02*
X63170847Y-57592980D01*
X63266085Y-57735838D01*
X63361323Y-57831076D01*
X63456561Y-57878695D01*
%TO.C,R1*%
X113741666Y-71677380D02*
X114075000Y-71201190D01*
X114313095Y-71677380D02*
X114313095Y-70677380D01*
X113932142Y-70677380D01*
X113836904Y-70725000D01*
X113789285Y-70772619D01*
X113741666Y-70867857D01*
X113741666Y-71010714D01*
X113789285Y-71105952D01*
X113836904Y-71153571D01*
X113932142Y-71201190D01*
X114313095Y-71201190D01*
X112789285Y-71677380D02*
X113360714Y-71677380D01*
X113075000Y-71677380D02*
X113075000Y-70677380D01*
X113170238Y-70820238D01*
X113265476Y-70915476D01*
X113360714Y-70963095D01*
%TO.C,R2*%
X58466666Y-71677380D02*
X58800000Y-71201190D01*
X59038095Y-71677380D02*
X59038095Y-70677380D01*
X58657142Y-70677380D01*
X58561904Y-70725000D01*
X58514285Y-70772619D01*
X58466666Y-70867857D01*
X58466666Y-71010714D01*
X58514285Y-71105952D01*
X58561904Y-71153571D01*
X58657142Y-71201190D01*
X59038095Y-71201190D01*
X58085714Y-70772619D02*
X58038095Y-70725000D01*
X57942857Y-70677380D01*
X57704761Y-70677380D01*
X57609523Y-70725000D01*
X57561904Y-70772619D01*
X57514285Y-70867857D01*
X57514285Y-70963095D01*
X57561904Y-71105952D01*
X58133333Y-71677380D01*
X57514285Y-71677380D01*
%TO.C,R3*%
X93466666Y-59777380D02*
X93800000Y-59301190D01*
X94038095Y-59777380D02*
X94038095Y-58777380D01*
X93657142Y-58777380D01*
X93561904Y-58825000D01*
X93514285Y-58872619D01*
X93466666Y-58967857D01*
X93466666Y-59110714D01*
X93514285Y-59205952D01*
X93561904Y-59253571D01*
X93657142Y-59301190D01*
X94038095Y-59301190D01*
X93133333Y-58777380D02*
X92514285Y-58777380D01*
X92847619Y-59158333D01*
X92704761Y-59158333D01*
X92609523Y-59205952D01*
X92561904Y-59253571D01*
X92514285Y-59348809D01*
X92514285Y-59586904D01*
X92561904Y-59682142D01*
X92609523Y-59729761D01*
X92704761Y-59777380D01*
X92990476Y-59777380D01*
X93085714Y-59729761D01*
X93133333Y-59682142D01*
%TO.C,R4*%
X92566666Y-69502380D02*
X92900000Y-69026190D01*
X93138095Y-69502380D02*
X93138095Y-68502380D01*
X92757142Y-68502380D01*
X92661904Y-68550000D01*
X92614285Y-68597619D01*
X92566666Y-68692857D01*
X92566666Y-68835714D01*
X92614285Y-68930952D01*
X92661904Y-68978571D01*
X92757142Y-69026190D01*
X93138095Y-69026190D01*
X91709523Y-68835714D02*
X91709523Y-69502380D01*
X91947619Y-68454761D02*
X92185714Y-69169047D01*
X91566666Y-69169047D01*
%TO.C,R5*%
X85616666Y-71602380D02*
X85950000Y-71126190D01*
X86188095Y-71602380D02*
X86188095Y-70602380D01*
X85807142Y-70602380D01*
X85711904Y-70650000D01*
X85664285Y-70697619D01*
X85616666Y-70792857D01*
X85616666Y-70935714D01*
X85664285Y-71030952D01*
X85711904Y-71078571D01*
X85807142Y-71126190D01*
X86188095Y-71126190D01*
X84711904Y-70602380D02*
X85188095Y-70602380D01*
X85235714Y-71078571D01*
X85188095Y-71030952D01*
X85092857Y-70983333D01*
X84854761Y-70983333D01*
X84759523Y-71030952D01*
X84711904Y-71078571D01*
X84664285Y-71173809D01*
X84664285Y-71411904D01*
X84711904Y-71507142D01*
X84759523Y-71554761D01*
X84854761Y-71602380D01*
X85092857Y-71602380D01*
X85188095Y-71554761D01*
X85235714Y-71507142D01*
%TO.C,R6*%
X91216666Y-61252380D02*
X91550000Y-60776190D01*
X91788095Y-61252380D02*
X91788095Y-60252380D01*
X91407142Y-60252380D01*
X91311904Y-60300000D01*
X91264285Y-60347619D01*
X91216666Y-60442857D01*
X91216666Y-60585714D01*
X91264285Y-60680952D01*
X91311904Y-60728571D01*
X91407142Y-60776190D01*
X91788095Y-60776190D01*
X90359523Y-60252380D02*
X90550000Y-60252380D01*
X90645238Y-60300000D01*
X90692857Y-60347619D01*
X90788095Y-60490476D01*
X90835714Y-60680952D01*
X90835714Y-61061904D01*
X90788095Y-61157142D01*
X90740476Y-61204761D01*
X90645238Y-61252380D01*
X90454761Y-61252380D01*
X90359523Y-61204761D01*
X90311904Y-61157142D01*
X90264285Y-61061904D01*
X90264285Y-60823809D01*
X90311904Y-60728571D01*
X90359523Y-60680952D01*
X90454761Y-60633333D01*
X90645238Y-60633333D01*
X90740476Y-60680952D01*
X90788095Y-60728571D01*
X90835714Y-60823809D01*
%TO.C,R8*%
X116466666Y-57352380D02*
X116800000Y-56876190D01*
X117038095Y-57352380D02*
X117038095Y-56352380D01*
X116657142Y-56352380D01*
X116561904Y-56400000D01*
X116514285Y-56447619D01*
X116466666Y-56542857D01*
X116466666Y-56685714D01*
X116514285Y-56780952D01*
X116561904Y-56828571D01*
X116657142Y-56876190D01*
X117038095Y-56876190D01*
X115895238Y-56780952D02*
X115990476Y-56733333D01*
X116038095Y-56685714D01*
X116085714Y-56590476D01*
X116085714Y-56542857D01*
X116038095Y-56447619D01*
X115990476Y-56400000D01*
X115895238Y-56352380D01*
X115704761Y-56352380D01*
X115609523Y-56400000D01*
X115561904Y-56447619D01*
X115514285Y-56542857D01*
X115514285Y-56590476D01*
X115561904Y-56685714D01*
X115609523Y-56733333D01*
X115704761Y-56780952D01*
X115895238Y-56780952D01*
X115990476Y-56828571D01*
X116038095Y-56876190D01*
X116085714Y-56971428D01*
X116085714Y-57161904D01*
X116038095Y-57257142D01*
X115990476Y-57304761D01*
X115895238Y-57352380D01*
X115704761Y-57352380D01*
X115609523Y-57304761D01*
X115561904Y-57257142D01*
X115514285Y-57161904D01*
X115514285Y-56971428D01*
X115561904Y-56876190D01*
X115609523Y-56828571D01*
X115704761Y-56780952D01*
%TO.C,R9*%
X73366666Y-65852380D02*
X73700000Y-65376190D01*
X73938095Y-65852380D02*
X73938095Y-64852380D01*
X73557142Y-64852380D01*
X73461904Y-64900000D01*
X73414285Y-64947619D01*
X73366666Y-65042857D01*
X73366666Y-65185714D01*
X73414285Y-65280952D01*
X73461904Y-65328571D01*
X73557142Y-65376190D01*
X73938095Y-65376190D01*
X72890476Y-65852380D02*
X72700000Y-65852380D01*
X72604761Y-65804761D01*
X72557142Y-65757142D01*
X72461904Y-65614285D01*
X72414285Y-65423809D01*
X72414285Y-65042857D01*
X72461904Y-64947619D01*
X72509523Y-64900000D01*
X72604761Y-64852380D01*
X72795238Y-64852380D01*
X72890476Y-64900000D01*
X72938095Y-64947619D01*
X72985714Y-65042857D01*
X72985714Y-65280952D01*
X72938095Y-65376190D01*
X72890476Y-65423809D01*
X72795238Y-65471428D01*
X72604761Y-65471428D01*
X72509523Y-65423809D01*
X72461904Y-65376190D01*
X72414285Y-65280952D01*
%TO.C,C1*%
X69641666Y-59507142D02*
X69689285Y-59554761D01*
X69832142Y-59602380D01*
X69927380Y-59602380D01*
X70070238Y-59554761D01*
X70165476Y-59459523D01*
X70213095Y-59364285D01*
X70260714Y-59173809D01*
X70260714Y-59030952D01*
X70213095Y-58840476D01*
X70165476Y-58745238D01*
X70070238Y-58650000D01*
X69927380Y-58602380D01*
X69832142Y-58602380D01*
X69689285Y-58650000D01*
X69641666Y-58697619D01*
X68689285Y-59602380D02*
X69260714Y-59602380D01*
X68975000Y-59602380D02*
X68975000Y-58602380D01*
X69070238Y-58745238D01*
X69165476Y-58840476D01*
X69260714Y-58888095D01*
%TO.C,R7*%
X114596666Y-63132380D02*
X114930000Y-62656190D01*
X115168095Y-63132380D02*
X115168095Y-62132380D01*
X114787142Y-62132380D01*
X114691904Y-62180000D01*
X114644285Y-62227619D01*
X114596666Y-62322857D01*
X114596666Y-62465714D01*
X114644285Y-62560952D01*
X114691904Y-62608571D01*
X114787142Y-62656190D01*
X115168095Y-62656190D01*
X114263333Y-62132380D02*
X113596666Y-62132380D01*
X114025238Y-63132380D01*
%TO.C,Q3*%
X93685238Y-56197619D02*
X93780476Y-56150000D01*
X93875714Y-56054761D01*
X94018571Y-55911904D01*
X94113809Y-55864285D01*
X94209047Y-55864285D01*
X94161428Y-56102380D02*
X94256666Y-56054761D01*
X94351904Y-55959523D01*
X94399523Y-55769047D01*
X94399523Y-55435714D01*
X94351904Y-55245238D01*
X94256666Y-55150000D01*
X94161428Y-55102380D01*
X93970952Y-55102380D01*
X93875714Y-55150000D01*
X93780476Y-55245238D01*
X93732857Y-55435714D01*
X93732857Y-55769047D01*
X93780476Y-55959523D01*
X93875714Y-56054761D01*
X93970952Y-56102380D01*
X94161428Y-56102380D01*
X93399523Y-55102380D02*
X92780476Y-55102380D01*
X93113809Y-55483333D01*
X92970952Y-55483333D01*
X92875714Y-55530952D01*
X92828095Y-55578571D01*
X92780476Y-55673809D01*
X92780476Y-55911904D01*
X92828095Y-56007142D01*
X92875714Y-56054761D01*
X92970952Y-56102380D01*
X93256666Y-56102380D01*
X93351904Y-56054761D01*
X93399523Y-56007142D01*
%TO.C,U1*%
X91211904Y-56142380D02*
X91211904Y-56951904D01*
X91164285Y-57047142D01*
X91116666Y-57094761D01*
X91021428Y-57142380D01*
X90830952Y-57142380D01*
X90735714Y-57094761D01*
X90688095Y-57047142D01*
X90640476Y-56951904D01*
X90640476Y-56142380D01*
X89640476Y-57142380D02*
X90211904Y-57142380D01*
X89926190Y-57142380D02*
X89926190Y-56142380D01*
X90021428Y-56285238D01*
X90116666Y-56380476D01*
X90211904Y-56428095D01*
%TO.C,Q4*%
X102655238Y-64747619D02*
X102750476Y-64700000D01*
X102845714Y-64604761D01*
X102988571Y-64461904D01*
X103083809Y-64414285D01*
X103179047Y-64414285D01*
X103131428Y-64652380D02*
X103226666Y-64604761D01*
X103321904Y-64509523D01*
X103369523Y-64319047D01*
X103369523Y-63985714D01*
X103321904Y-63795238D01*
X103226666Y-63700000D01*
X103131428Y-63652380D01*
X102940952Y-63652380D01*
X102845714Y-63700000D01*
X102750476Y-63795238D01*
X102702857Y-63985714D01*
X102702857Y-64319047D01*
X102750476Y-64509523D01*
X102845714Y-64604761D01*
X102940952Y-64652380D01*
X103131428Y-64652380D01*
X101845714Y-63985714D02*
X101845714Y-64652380D01*
X102083809Y-63604761D02*
X102321904Y-64319047D01*
X101702857Y-64319047D01*
D11*
%TO.C,C3*%
X59870000Y-65730000D02*
X52630000Y-65730000D01*
X59870000Y-65730000D02*
X59870000Y-67970000D01*
X52630000Y-65730000D02*
X52630000Y-67970000D01*
X59870000Y-67970000D02*
X52630000Y-67970000D01*
%TO.C,J3*%
X99705000Y-55195000D02*
X113025000Y-55195000D01*
X99665000Y-62075000D02*
X99665000Y-58745000D01*
X112985000Y-62075000D02*
X112985000Y-58745000D01*
X99665000Y-62075000D02*
X112985000Y-62075000D01*
X101925000Y-62295000D02*
X103725000Y-62295000D01*
%TO.C,J1*%
X50995000Y-58995000D02*
X50995000Y-60325000D01*
X53595000Y-58995000D02*
X53595000Y-61595000D01*
X50995000Y-61595000D02*
X50995000Y-64195000D01*
X63815000Y-58995000D02*
X63815000Y-64195000D01*
X50995000Y-64195000D02*
X63815000Y-64195000D01*
X53595000Y-58995000D02*
X63815000Y-58995000D01*
X52325000Y-58995000D02*
X50995000Y-58995000D01*
X53595000Y-61595000D02*
X50995000Y-61595000D01*
%TO.C,R1*%
X102285000Y-71225000D02*
X103055000Y-71225000D01*
X109595000Y-69855000D02*
X109595000Y-72595000D01*
X103055000Y-72595000D02*
X103055000Y-69855000D01*
X103055000Y-69855000D02*
X109595000Y-69855000D01*
X110365000Y-71225000D02*
X109595000Y-71225000D01*
X109595000Y-72595000D02*
X103055000Y-72595000D01*
%TO.C,R2*%
X69540000Y-71175000D02*
X68770000Y-71175000D01*
X62230000Y-69805000D02*
X68770000Y-69805000D01*
X61460000Y-71175000D02*
X62230000Y-71175000D01*
X62230000Y-72545000D02*
X62230000Y-69805000D01*
X68770000Y-69805000D02*
X68770000Y-72545000D01*
X68770000Y-72545000D02*
X62230000Y-72545000D01*
%TO.C,R3*%
X95800000Y-57950000D02*
X95800000Y-57880000D01*
X97170000Y-59320000D02*
G75*
G03*
X97170000Y-59320000I-1370000J0D01*
G01*
%TO.C,R4*%
X88935000Y-71175000D02*
X89705000Y-71175000D01*
X89705000Y-69805000D02*
X96245000Y-69805000D01*
X97015000Y-71175000D02*
X96245000Y-71175000D01*
X96245000Y-69805000D02*
X96245000Y-72545000D01*
X96245000Y-72545000D02*
X89705000Y-72545000D01*
X89705000Y-72545000D02*
X89705000Y-69805000D01*
%TO.C,R5*%
X81445000Y-69705000D02*
X81445000Y-72445000D01*
X81445000Y-72445000D02*
X74905000Y-72445000D01*
X74135000Y-71075000D02*
X74905000Y-71075000D01*
X74905000Y-72445000D02*
X74905000Y-69705000D01*
X82215000Y-71075000D02*
X81445000Y-71075000D01*
X74905000Y-69705000D02*
X81445000Y-69705000D01*
%TO.C,R6*%
X94195000Y-61630000D02*
X94195000Y-64370000D01*
X86885000Y-63000000D02*
X87655000Y-63000000D01*
X87655000Y-64370000D02*
X87655000Y-61630000D01*
X94965000Y-63000000D02*
X94195000Y-63000000D01*
X87655000Y-61630000D02*
X94195000Y-61630000D01*
X94195000Y-64370000D02*
X87655000Y-64370000D01*
%TO.C,R8*%
X120345000Y-65195000D02*
X117605000Y-65195000D01*
X118975000Y-57885000D02*
X118975000Y-58655000D01*
X120345000Y-58655000D02*
X120345000Y-65195000D01*
X118975000Y-65965000D02*
X118975000Y-65195000D01*
X117605000Y-65195000D02*
X117605000Y-58655000D01*
X117605000Y-58655000D02*
X120345000Y-58655000D01*
%TO.C,R9*%
X74810000Y-61630000D02*
X81350000Y-61630000D01*
X74040000Y-63000000D02*
X74810000Y-63000000D01*
X81350000Y-61630000D02*
X81350000Y-64370000D01*
X82120000Y-63000000D02*
X81350000Y-63000000D01*
X81350000Y-64370000D02*
X74810000Y-64370000D01*
X74810000Y-64370000D02*
X74810000Y-61630000D01*
%TO.C,C1*%
X70720000Y-50905000D02*
X70720000Y-58145000D01*
X68480000Y-50905000D02*
X68480000Y-58145000D01*
X68480000Y-50905000D02*
X70720000Y-50905000D01*
X68480000Y-58145000D02*
X70720000Y-58145000D01*
%TO.C,R7*%
X114330000Y-65050000D02*
X114260000Y-65050000D01*
X117070000Y-65050000D02*
G75*
G03*
X117070000Y-65050000I-1370000J0D01*
G01*
%TO.C,Q3*%
X95310000Y-54525000D02*
X91710000Y-54525000D01*
X93510000Y-50075000D02*
G75*
G03*
X91153600Y-51576193I-1J-2599997D01*
G01*
X95866400Y-51576193D02*
G75*
G03*
X93510000Y-50075000I-2356402J-1098809D01*
G01*
X95310000Y-54525000D02*
G75*
G03*
X95834184Y-53797795I-1799991J1849994D01*
G01*
X91185816Y-53797795D02*
G75*
G03*
X91710000Y-54525000I2324175J1122789D01*
G01*
%TO.C,U1*%
X71245000Y-50600000D02*
X89265000Y-50600000D01*
X71305000Y-54740000D02*
X71305000Y-53090000D01*
X89265000Y-50600000D02*
X89265000Y-60880000D01*
X71305000Y-58390000D02*
X71305000Y-56740000D01*
X89265000Y-60880000D02*
X71245000Y-60880000D01*
X89205000Y-58390000D02*
X71305000Y-58390000D01*
X71245000Y-60880000D02*
X71245000Y-50600000D01*
X71305000Y-53090000D02*
X89205000Y-53090000D01*
X89205000Y-53090000D02*
X89205000Y-58390000D01*
X71305000Y-56740000D02*
G75*
G03*
X71305000Y-54740000I0J1000000D01*
G01*
%TO.C,Q4*%
X99200000Y-64985000D02*
X102800000Y-64985000D01*
X101000000Y-69435000D02*
G75*
G03*
X103356400Y-67933807I1J2599997D01*
G01*
X98643600Y-67933807D02*
G75*
G03*
X101000000Y-69435000I2356402J1098809D01*
G01*
X99200000Y-64985000D02*
G75*
G03*
X98675816Y-65712205I1799991J-1849994D01*
G01*
X103324184Y-65712205D02*
G75*
G03*
X102800000Y-64985000I-2324175J-1122789D01*
G01*
%TD*%
M02*
