%TF.GenerationSoftware,KiCad,Pcbnew,(6.0.1)*%
%TF.CreationDate,2023-11-21T01:19:50-08:00*%
%TF.ProjectId,BonkDaddyBoard,426f6e6b-4461-4646-9479-426f6172642e,1.2*%
%TF.SameCoordinates,Original*%
%TF.FileFunction,Soldermask,Bot*%
%TF.FilePolarity,Negative*%
%FSLAX46Y46*%
G04 Gerber Fmt 4.6, Leading zero omitted, Abs format (unit mm)*
G04 Created by KiCad (PCBNEW (6.0.1)) date 2023-11-21 01:19:50*
%MOMM*%
%LPD*%
G01*
G04 APERTURE LIST*
%ADD10C,1.600000*%
%ADD11R,0.840000X0.840000*%
%ADD12C,0.840000*%
%ADD13O,0.850000X1.850000*%
%ADD14C,2.500000*%
%ADD15C,2.000000*%
%ADD16R,1.800000X1.800000*%
%ADD17C,1.800000*%
%ADD18R,1.600000X1.500000*%
%ADD19C,3.000000*%
%ADD20R,1.700000X1.700000*%
%ADD21O,1.700000X1.700000*%
%ADD22O,1.600000X1.600000*%
%ADD23R,1.500000X1.500000*%
%ADD24C,1.500000*%
%ADD25R,1.600000X1.600000*%
G04 APERTURE END LIST*
D10*
%TO.C,C3*%
X58750000Y-66850000D03*
X53750000Y-66850000D03*
%TD*%
D11*
%TO.C,J2*%
X102700000Y-52500000D03*
D12*
X103350000Y-53500000D03*
X104000000Y-52500000D03*
X104650000Y-53500000D03*
X105300000Y-52500000D03*
D13*
X100425000Y-52720000D03*
X107575000Y-52720000D03*
%TD*%
D14*
%TO.C,H1*%
X53000000Y-53000000D03*
%TD*%
%TO.C,H2*%
X117800000Y-53000000D03*
%TD*%
%TO.C,H3*%
X53000000Y-71000000D03*
%TD*%
%TO.C,H4*%
X117800000Y-71000000D03*
%TD*%
D15*
%TO.C,SW1*%
X66500000Y-52500000D03*
X60000000Y-52500000D03*
X60000000Y-57000000D03*
X66500000Y-57000000D03*
%TD*%
D16*
%TO.C,D1*%
X106280000Y-66750000D03*
D17*
X108820000Y-66750000D03*
%TD*%
D16*
%TO.C,D2*%
X112200000Y-52750000D03*
D17*
X109660000Y-52750000D03*
%TD*%
D16*
%TO.C,D3*%
X91510000Y-66750000D03*
D17*
X94050000Y-66750000D03*
%TD*%
D16*
%TO.C,D5*%
X79290000Y-66750000D03*
D17*
X76750000Y-66750000D03*
%TD*%
D16*
%TO.C,D4*%
X64520000Y-66750000D03*
D17*
X61980000Y-66750000D03*
%TD*%
D18*
%TO.C,J3*%
X102825000Y-59695000D03*
D10*
X105325000Y-59695000D03*
X107325000Y-59695000D03*
X109825000Y-59695000D03*
D19*
X112895000Y-56985000D03*
X99755000Y-56985000D03*
%TD*%
D20*
%TO.C,J1*%
X52325000Y-60325000D03*
D21*
X52325000Y-62865000D03*
X54865000Y-60325000D03*
X54865000Y-62865000D03*
X57405000Y-60325000D03*
X57405000Y-62865000D03*
X59945000Y-60325000D03*
X59945000Y-62865000D03*
X62485000Y-60325000D03*
X62485000Y-62865000D03*
%TD*%
D10*
%TO.C,R1*%
X101245000Y-71225000D03*
D22*
X111405000Y-71225000D03*
%TD*%
D10*
%TO.C,R2*%
X70580000Y-71175000D03*
D22*
X60420000Y-71175000D03*
%TD*%
D10*
%TO.C,R3*%
X95800000Y-59320000D03*
D22*
X95800000Y-56780000D03*
%TD*%
D10*
%TO.C,R4*%
X87895000Y-71175000D03*
D22*
X98055000Y-71175000D03*
%TD*%
D10*
%TO.C,R5*%
X83255000Y-71075000D03*
D22*
X73095000Y-71075000D03*
%TD*%
D10*
%TO.C,R6*%
X85845000Y-63000000D03*
D22*
X96005000Y-63000000D03*
%TD*%
D10*
%TO.C,R8*%
X118975000Y-67005000D03*
D22*
X118975000Y-56845000D03*
%TD*%
D10*
%TO.C,R9*%
X73000000Y-63000000D03*
D22*
X83160000Y-63000000D03*
%TD*%
D10*
%TO.C,C1*%
X69600000Y-52025000D03*
X69600000Y-57025000D03*
%TD*%
%TO.C,R7*%
X115700000Y-65050000D03*
D22*
X113160000Y-65050000D03*
%TD*%
D23*
%TO.C,Q3*%
X96050000Y-52675000D03*
D24*
X93510000Y-52675000D03*
X90970000Y-52675000D03*
%TD*%
D25*
%TO.C,U1*%
X72635000Y-51930000D03*
D22*
X75175000Y-51930000D03*
X77715000Y-51930000D03*
X80255000Y-51930000D03*
X82795000Y-51930000D03*
X85335000Y-51930000D03*
X87875000Y-51930000D03*
X87875000Y-59550000D03*
X85335000Y-59550000D03*
X82795000Y-59550000D03*
X80255000Y-59550000D03*
X77715000Y-59550000D03*
X75175000Y-59550000D03*
X72635000Y-59550000D03*
%TD*%
D23*
%TO.C,Q4*%
X98460000Y-66835000D03*
D24*
X101000000Y-66835000D03*
X103540000Y-66835000D03*
%TD*%
M02*
