%TF.GenerationSoftware,KiCad,Pcbnew,(6.0.1)*%
%TF.CreationDate,2022-06-17T02:15:53-07:00*%
%TF.ProjectId,BonkDaddyPanel,426f6e6b-4461-4646-9479-50616e656c2e,1.2*%
%TF.SameCoordinates,Original*%
%TF.FileFunction,Copper,L1,Top*%
%TF.FilePolarity,Positive*%
%FSLAX46Y46*%
G04 Gerber Fmt 4.6, Leading zero omitted, Abs format (unit mm)*
G04 Created by KiCad (PCBNEW (6.0.1)) date 2022-06-17 02:15:53*
%MOMM*%
%LPD*%
G01*
G04 APERTURE LIST*
%TA.AperFunction,ComponentPad*%
%ADD10C,5.000000*%
%TD*%
G04 APERTURE END LIST*
D10*
%TO.P,H1,1,1*%
%TO.N,GND*%
X62500000Y-45175000D03*
%TD*%
%TO.P,H2,1,1*%
%TO.N,GND*%
X108220000Y-45175000D03*
%TD*%
%TO.P,H3,1,1*%
%TO.N,GND*%
X108220000Y-78825000D03*
%TD*%
%TO.P,H4,1,1*%
%TO.N,GND*%
X62500000Y-78825000D03*
%TD*%
%TA.AperFunction,Conductor*%
%TO.N,GND*%
G36*
X60526390Y-42703002D02*
G01*
X60572883Y-42756658D01*
X60582987Y-42826932D01*
X60564642Y-42873362D01*
X60564576Y-42875069D01*
X60571527Y-42887316D01*
X62487190Y-44802980D01*
X62501131Y-44810592D01*
X62502966Y-44810461D01*
X62509580Y-44806210D01*
X64427074Y-42888716D01*
X64434688Y-42874772D01*
X64434194Y-42867853D01*
X64416038Y-42813944D01*
X64433352Y-42745091D01*
X64485141Y-42696529D01*
X64541941Y-42683000D01*
X106178269Y-42683000D01*
X106246390Y-42703002D01*
X106292883Y-42756658D01*
X106302987Y-42826932D01*
X106284642Y-42873362D01*
X106284576Y-42875069D01*
X106291527Y-42887316D01*
X108207190Y-44802980D01*
X108221131Y-44810592D01*
X108222966Y-44810461D01*
X108229580Y-44806210D01*
X110147074Y-42888716D01*
X110154688Y-42874772D01*
X110154194Y-42867853D01*
X110136038Y-42813944D01*
X110153352Y-42745091D01*
X110205141Y-42696529D01*
X110261941Y-42683000D01*
X120166000Y-42683000D01*
X120234121Y-42703002D01*
X120280614Y-42756658D01*
X120292000Y-42809000D01*
X120292000Y-81191000D01*
X120271998Y-81259121D01*
X120218342Y-81305614D01*
X120166000Y-81317000D01*
X110266799Y-81317000D01*
X110198678Y-81296998D01*
X110152185Y-81243342D01*
X110142081Y-81173068D01*
X110157646Y-81135415D01*
X110158123Y-81128616D01*
X110150537Y-81114748D01*
X108232810Y-79197020D01*
X108218869Y-79189408D01*
X108217034Y-79189539D01*
X108210420Y-79193790D01*
X106291474Y-81112737D01*
X106283860Y-81126681D01*
X106284551Y-81136344D01*
X106301060Y-81188030D01*
X106282669Y-81256603D01*
X106230124Y-81304348D01*
X106175095Y-81317000D01*
X64546799Y-81317000D01*
X64478678Y-81296998D01*
X64432185Y-81243342D01*
X64422081Y-81173068D01*
X64437646Y-81135415D01*
X64438123Y-81128616D01*
X64430537Y-81114748D01*
X62512810Y-79197020D01*
X62498869Y-79189408D01*
X62497034Y-79189539D01*
X62490420Y-79193790D01*
X60571474Y-81112737D01*
X60563860Y-81126681D01*
X60564551Y-81136344D01*
X60581060Y-81188030D01*
X60562669Y-81256603D01*
X60510124Y-81304348D01*
X60455095Y-81317000D01*
X50634000Y-81317000D01*
X50565879Y-81296998D01*
X50519386Y-81243342D01*
X50508000Y-81191000D01*
X50508000Y-78733987D01*
X59488484Y-78733987D01*
X59497374Y-79073505D01*
X59497980Y-79080721D01*
X59545835Y-79416963D01*
X59547269Y-79424074D01*
X59633455Y-79752595D01*
X59635692Y-79759478D01*
X59759064Y-80075914D01*
X59762081Y-80082503D01*
X59921002Y-80382652D01*
X59924761Y-80388860D01*
X60117129Y-80668757D01*
X60121574Y-80674486D01*
X60188743Y-80751484D01*
X60201917Y-80759888D01*
X60211769Y-80754020D01*
X62127980Y-78837810D01*
X62134357Y-78826131D01*
X62864408Y-78826131D01*
X62864539Y-78827966D01*
X62868790Y-78834580D01*
X64786268Y-80752057D01*
X64799622Y-80759349D01*
X64809594Y-80752295D01*
X64916641Y-80624267D01*
X64920957Y-80618456D01*
X65107432Y-80334575D01*
X65111046Y-80328313D01*
X65263658Y-80024882D01*
X65266530Y-80018244D01*
X65383249Y-79699293D01*
X65385345Y-79692351D01*
X65464631Y-79362103D01*
X65465915Y-79354964D01*
X65506816Y-79016973D01*
X65507240Y-79011403D01*
X65513010Y-78827797D01*
X65512937Y-78822204D01*
X65507850Y-78733987D01*
X105208484Y-78733987D01*
X105217374Y-79073505D01*
X105217980Y-79080721D01*
X105265835Y-79416963D01*
X105267269Y-79424074D01*
X105353455Y-79752595D01*
X105355692Y-79759478D01*
X105479064Y-80075914D01*
X105482081Y-80082503D01*
X105641002Y-80382652D01*
X105644761Y-80388860D01*
X105837129Y-80668757D01*
X105841574Y-80674486D01*
X105908743Y-80751484D01*
X105921917Y-80759888D01*
X105931769Y-80754020D01*
X107847980Y-78837810D01*
X107854357Y-78826131D01*
X108584408Y-78826131D01*
X108584539Y-78827966D01*
X108588790Y-78834580D01*
X110506268Y-80752057D01*
X110519622Y-80759349D01*
X110529594Y-80752295D01*
X110636641Y-80624267D01*
X110640957Y-80618456D01*
X110827432Y-80334575D01*
X110831046Y-80328313D01*
X110983658Y-80024882D01*
X110986530Y-80018244D01*
X111103249Y-79699293D01*
X111105345Y-79692351D01*
X111184631Y-79362103D01*
X111185915Y-79354964D01*
X111226816Y-79016973D01*
X111227240Y-79011403D01*
X111233010Y-78827797D01*
X111232937Y-78822204D01*
X111213338Y-78482303D01*
X111212506Y-78475113D01*
X111154113Y-78140529D01*
X111152458Y-78133474D01*
X111055998Y-77807834D01*
X111053540Y-77801006D01*
X110920290Y-77488608D01*
X110917073Y-77482125D01*
X110748788Y-77187089D01*
X110744856Y-77181034D01*
X110543774Y-76907295D01*
X110539166Y-76901726D01*
X110533830Y-76895984D01*
X110520178Y-76887866D01*
X110519570Y-76887887D01*
X110511092Y-76893119D01*
X108592020Y-78812190D01*
X108584408Y-78826131D01*
X107854357Y-78826131D01*
X107855592Y-78823869D01*
X107855461Y-78822034D01*
X107851210Y-78815420D01*
X105932374Y-76896585D01*
X105919581Y-76889599D01*
X105908827Y-76897464D01*
X105748037Y-77102527D01*
X105743902Y-77108476D01*
X105566440Y-77398068D01*
X105563019Y-77404447D01*
X105420016Y-77712522D01*
X105417356Y-77719241D01*
X105310711Y-78041707D01*
X105308834Y-78048711D01*
X105239961Y-78381288D01*
X105238904Y-78388449D01*
X105208712Y-78726735D01*
X105208484Y-78733987D01*
X65507850Y-78733987D01*
X65493338Y-78482303D01*
X65492506Y-78475113D01*
X65434113Y-78140529D01*
X65432458Y-78133474D01*
X65335998Y-77807834D01*
X65333540Y-77801006D01*
X65200290Y-77488608D01*
X65197073Y-77482125D01*
X65028788Y-77187089D01*
X65024856Y-77181034D01*
X64823774Y-76907295D01*
X64819166Y-76901726D01*
X64813830Y-76895984D01*
X64800178Y-76887866D01*
X64799570Y-76887887D01*
X64791092Y-76893119D01*
X62872020Y-78812190D01*
X62864408Y-78826131D01*
X62134357Y-78826131D01*
X62135592Y-78823869D01*
X62135461Y-78822034D01*
X62131210Y-78815420D01*
X60212374Y-76896585D01*
X60199581Y-76889599D01*
X60188827Y-76897464D01*
X60028037Y-77102527D01*
X60023902Y-77108476D01*
X59846440Y-77398068D01*
X59843019Y-77404447D01*
X59700016Y-77712522D01*
X59697356Y-77719241D01*
X59590711Y-78041707D01*
X59588834Y-78048711D01*
X59519961Y-78381288D01*
X59518904Y-78388449D01*
X59488712Y-78726735D01*
X59488484Y-78733987D01*
X50508000Y-78733987D01*
X50508000Y-76526048D01*
X60565132Y-76526048D01*
X60571527Y-76537316D01*
X62487190Y-78452980D01*
X62501131Y-78460592D01*
X62502966Y-78460461D01*
X62509580Y-78456210D01*
X64427074Y-76538716D01*
X64433991Y-76526048D01*
X106285132Y-76526048D01*
X106291527Y-76537316D01*
X108207190Y-78452980D01*
X108221131Y-78460592D01*
X108222966Y-78460461D01*
X108229580Y-78456210D01*
X110147074Y-76538716D01*
X110154466Y-76525179D01*
X110147679Y-76515479D01*
X110044476Y-76427335D01*
X110038704Y-76422953D01*
X109756796Y-76233519D01*
X109750575Y-76229839D01*
X109448757Y-76074060D01*
X109442146Y-76071116D01*
X109124439Y-75951065D01*
X109117513Y-75948894D01*
X108788112Y-75866155D01*
X108781005Y-75864799D01*
X108444278Y-75820468D01*
X108437036Y-75819937D01*
X108097467Y-75814602D01*
X108090205Y-75814906D01*
X107752256Y-75848638D01*
X107745108Y-75849770D01*
X107413263Y-75922124D01*
X107406285Y-75924072D01*
X107084960Y-76034086D01*
X107078253Y-76036823D01*
X106771707Y-76183039D01*
X106765349Y-76186534D01*
X106477654Y-76367005D01*
X106471731Y-76371214D01*
X106293601Y-76513923D01*
X106285132Y-76526048D01*
X64433991Y-76526048D01*
X64434466Y-76525179D01*
X64427679Y-76515479D01*
X64324476Y-76427335D01*
X64318704Y-76422953D01*
X64036796Y-76233519D01*
X64030575Y-76229839D01*
X63728757Y-76074060D01*
X63722146Y-76071116D01*
X63404439Y-75951065D01*
X63397513Y-75948894D01*
X63068112Y-75866155D01*
X63061005Y-75864799D01*
X62724278Y-75820468D01*
X62717036Y-75819937D01*
X62377467Y-75814602D01*
X62370205Y-75814906D01*
X62032256Y-75848638D01*
X62025108Y-75849770D01*
X61693263Y-75922124D01*
X61686285Y-75924072D01*
X61364960Y-76034086D01*
X61358253Y-76036823D01*
X61051707Y-76183039D01*
X61045349Y-76186534D01*
X60757654Y-76367005D01*
X60751731Y-76371214D01*
X60573601Y-76513923D01*
X60565132Y-76526048D01*
X50508000Y-76526048D01*
X50508000Y-71107655D01*
X51239858Y-71107655D01*
X51275104Y-71366638D01*
X51276412Y-71371124D01*
X51276412Y-71371126D01*
X51296098Y-71438664D01*
X51348243Y-71617567D01*
X51457668Y-71854928D01*
X51460231Y-71858837D01*
X51598410Y-72069596D01*
X51598414Y-72069601D01*
X51600976Y-72073509D01*
X51775018Y-72268506D01*
X51975970Y-72435637D01*
X51979973Y-72438066D01*
X52195422Y-72568804D01*
X52195426Y-72568806D01*
X52199419Y-72571229D01*
X52440455Y-72672303D01*
X52693783Y-72736641D01*
X52698434Y-72737109D01*
X52698438Y-72737110D01*
X52891308Y-72756531D01*
X52910867Y-72758500D01*
X53066354Y-72758500D01*
X53068679Y-72758327D01*
X53068685Y-72758327D01*
X53256000Y-72744407D01*
X53256004Y-72744406D01*
X53260652Y-72744061D01*
X53265200Y-72743032D01*
X53265206Y-72743031D01*
X53451601Y-72700853D01*
X53515577Y-72686377D01*
X53551769Y-72672303D01*
X53754824Y-72593340D01*
X53754827Y-72593339D01*
X53759177Y-72591647D01*
X53986098Y-72461951D01*
X54191357Y-72300138D01*
X54370443Y-72109763D01*
X54519424Y-71895009D01*
X54635025Y-71660593D01*
X54714707Y-71411665D01*
X54756721Y-71153693D01*
X54757324Y-71107655D01*
X116039858Y-71107655D01*
X116075104Y-71366638D01*
X116076412Y-71371124D01*
X116076412Y-71371126D01*
X116096098Y-71438664D01*
X116148243Y-71617567D01*
X116257668Y-71854928D01*
X116260231Y-71858837D01*
X116398410Y-72069596D01*
X116398414Y-72069601D01*
X116400976Y-72073509D01*
X116575018Y-72268506D01*
X116775970Y-72435637D01*
X116779973Y-72438066D01*
X116995422Y-72568804D01*
X116995426Y-72568806D01*
X116999419Y-72571229D01*
X117240455Y-72672303D01*
X117493783Y-72736641D01*
X117498434Y-72737109D01*
X117498438Y-72737110D01*
X117691308Y-72756531D01*
X117710867Y-72758500D01*
X117866354Y-72758500D01*
X117868679Y-72758327D01*
X117868685Y-72758327D01*
X118056000Y-72744407D01*
X118056004Y-72744406D01*
X118060652Y-72744061D01*
X118065200Y-72743032D01*
X118065206Y-72743031D01*
X118251601Y-72700853D01*
X118315577Y-72686377D01*
X118351769Y-72672303D01*
X118554824Y-72593340D01*
X118554827Y-72593339D01*
X118559177Y-72591647D01*
X118786098Y-72461951D01*
X118991357Y-72300138D01*
X119170443Y-72109763D01*
X119319424Y-71895009D01*
X119435025Y-71660593D01*
X119514707Y-71411665D01*
X119556721Y-71153693D01*
X119560142Y-70892345D01*
X119524896Y-70633362D01*
X119510473Y-70583877D01*
X119453068Y-70386932D01*
X119451757Y-70382433D01*
X119342332Y-70145072D01*
X119309519Y-70095024D01*
X119201590Y-69930404D01*
X119201586Y-69930399D01*
X119199024Y-69926491D01*
X119024982Y-69731494D01*
X118824030Y-69564363D01*
X118776844Y-69535730D01*
X118604578Y-69431196D01*
X118604574Y-69431194D01*
X118600581Y-69428771D01*
X118359545Y-69327697D01*
X118106217Y-69263359D01*
X118101566Y-69262891D01*
X118101562Y-69262890D01*
X117892271Y-69241816D01*
X117889133Y-69241500D01*
X117733646Y-69241500D01*
X117731321Y-69241673D01*
X117731315Y-69241673D01*
X117544000Y-69255593D01*
X117543996Y-69255594D01*
X117539348Y-69255939D01*
X117534800Y-69256968D01*
X117534794Y-69256969D01*
X117348399Y-69299147D01*
X117284423Y-69313623D01*
X117280071Y-69315315D01*
X117280069Y-69315316D01*
X117045176Y-69406660D01*
X117045173Y-69406661D01*
X117040823Y-69408353D01*
X116813902Y-69538049D01*
X116608643Y-69699862D01*
X116429557Y-69890237D01*
X116280576Y-70104991D01*
X116164975Y-70339407D01*
X116085293Y-70588335D01*
X116043279Y-70846307D01*
X116039858Y-71107655D01*
X54757324Y-71107655D01*
X54760142Y-70892345D01*
X54724896Y-70633362D01*
X54710473Y-70583877D01*
X54653068Y-70386932D01*
X54651757Y-70382433D01*
X54542332Y-70145072D01*
X54509519Y-70095024D01*
X54401590Y-69930404D01*
X54401586Y-69930399D01*
X54399024Y-69926491D01*
X54224982Y-69731494D01*
X54024030Y-69564363D01*
X53976844Y-69535730D01*
X53804578Y-69431196D01*
X53804574Y-69431194D01*
X53800581Y-69428771D01*
X53559545Y-69327697D01*
X53306217Y-69263359D01*
X53301566Y-69262891D01*
X53301562Y-69262890D01*
X53092271Y-69241816D01*
X53089133Y-69241500D01*
X52933646Y-69241500D01*
X52931321Y-69241673D01*
X52931315Y-69241673D01*
X52744000Y-69255593D01*
X52743996Y-69255594D01*
X52739348Y-69255939D01*
X52734800Y-69256968D01*
X52734794Y-69256969D01*
X52548399Y-69299147D01*
X52484423Y-69313623D01*
X52480071Y-69315315D01*
X52480069Y-69315316D01*
X52245176Y-69406660D01*
X52245173Y-69406661D01*
X52240823Y-69408353D01*
X52013902Y-69538049D01*
X51808643Y-69699862D01*
X51629557Y-69890237D01*
X51480576Y-70104991D01*
X51364975Y-70339407D01*
X51285293Y-70588335D01*
X51243279Y-70846307D01*
X51239858Y-71107655D01*
X50508000Y-71107655D01*
X50508000Y-66882703D01*
X61140743Y-66882703D01*
X61178268Y-67167734D01*
X61254129Y-67445036D01*
X61366923Y-67709476D01*
X61514561Y-67956161D01*
X61694313Y-68180528D01*
X61902851Y-68378423D01*
X62136317Y-68546186D01*
X62140112Y-68548195D01*
X62140113Y-68548196D01*
X62161869Y-68559715D01*
X62390392Y-68680712D01*
X62660373Y-68779511D01*
X62941264Y-68840755D01*
X62969841Y-68843004D01*
X63164282Y-68858307D01*
X63164291Y-68858307D01*
X63166739Y-68858500D01*
X63322271Y-68858500D01*
X63324407Y-68858354D01*
X63324418Y-68858354D01*
X63532548Y-68844165D01*
X63532554Y-68844164D01*
X63536825Y-68843873D01*
X63541020Y-68843004D01*
X63541022Y-68843004D01*
X63677583Y-68814724D01*
X63818342Y-68785574D01*
X64089343Y-68689607D01*
X64344812Y-68557750D01*
X64348313Y-68555289D01*
X64348317Y-68555287D01*
X64462417Y-68475096D01*
X64580023Y-68392441D01*
X64790622Y-68196740D01*
X64972713Y-67974268D01*
X65122927Y-67729142D01*
X65238483Y-67465898D01*
X65317244Y-67189406D01*
X65357751Y-66904784D01*
X65357845Y-66886951D01*
X65357867Y-66882703D01*
X75910743Y-66882703D01*
X75948268Y-67167734D01*
X76024129Y-67445036D01*
X76136923Y-67709476D01*
X76284561Y-67956161D01*
X76464313Y-68180528D01*
X76672851Y-68378423D01*
X76906317Y-68546186D01*
X76910112Y-68548195D01*
X76910113Y-68548196D01*
X76931869Y-68559715D01*
X77160392Y-68680712D01*
X77430373Y-68779511D01*
X77711264Y-68840755D01*
X77739841Y-68843004D01*
X77934282Y-68858307D01*
X77934291Y-68858307D01*
X77936739Y-68858500D01*
X78092271Y-68858500D01*
X78094407Y-68858354D01*
X78094418Y-68858354D01*
X78302548Y-68844165D01*
X78302554Y-68844164D01*
X78306825Y-68843873D01*
X78311020Y-68843004D01*
X78311022Y-68843004D01*
X78447583Y-68814724D01*
X78588342Y-68785574D01*
X78859343Y-68689607D01*
X79114812Y-68557750D01*
X79118313Y-68555289D01*
X79118317Y-68555287D01*
X79232417Y-68475096D01*
X79350023Y-68392441D01*
X79560622Y-68196740D01*
X79742713Y-67974268D01*
X79892927Y-67729142D01*
X80008483Y-67465898D01*
X80087244Y-67189406D01*
X80127751Y-66904784D01*
X80127845Y-66886951D01*
X80127867Y-66882703D01*
X90670743Y-66882703D01*
X90708268Y-67167734D01*
X90784129Y-67445036D01*
X90896923Y-67709476D01*
X91044561Y-67956161D01*
X91224313Y-68180528D01*
X91432851Y-68378423D01*
X91666317Y-68546186D01*
X91670112Y-68548195D01*
X91670113Y-68548196D01*
X91691869Y-68559715D01*
X91920392Y-68680712D01*
X92190373Y-68779511D01*
X92471264Y-68840755D01*
X92499841Y-68843004D01*
X92694282Y-68858307D01*
X92694291Y-68858307D01*
X92696739Y-68858500D01*
X92852271Y-68858500D01*
X92854407Y-68858354D01*
X92854418Y-68858354D01*
X93062548Y-68844165D01*
X93062554Y-68844164D01*
X93066825Y-68843873D01*
X93071020Y-68843004D01*
X93071022Y-68843004D01*
X93207583Y-68814724D01*
X93348342Y-68785574D01*
X93619343Y-68689607D01*
X93874812Y-68557750D01*
X93878313Y-68555289D01*
X93878317Y-68555287D01*
X93992417Y-68475096D01*
X94110023Y-68392441D01*
X94320622Y-68196740D01*
X94502713Y-67974268D01*
X94652927Y-67729142D01*
X94768483Y-67465898D01*
X94847244Y-67189406D01*
X94887751Y-66904784D01*
X94887845Y-66886951D01*
X94887867Y-66882703D01*
X105440743Y-66882703D01*
X105478268Y-67167734D01*
X105554129Y-67445036D01*
X105666923Y-67709476D01*
X105814561Y-67956161D01*
X105994313Y-68180528D01*
X106202851Y-68378423D01*
X106436317Y-68546186D01*
X106440112Y-68548195D01*
X106440113Y-68548196D01*
X106461869Y-68559715D01*
X106690392Y-68680712D01*
X106960373Y-68779511D01*
X107241264Y-68840755D01*
X107269841Y-68843004D01*
X107464282Y-68858307D01*
X107464291Y-68858307D01*
X107466739Y-68858500D01*
X107622271Y-68858500D01*
X107624407Y-68858354D01*
X107624418Y-68858354D01*
X107832548Y-68844165D01*
X107832554Y-68844164D01*
X107836825Y-68843873D01*
X107841020Y-68843004D01*
X107841022Y-68843004D01*
X107977583Y-68814724D01*
X108118342Y-68785574D01*
X108389343Y-68689607D01*
X108644812Y-68557750D01*
X108648313Y-68555289D01*
X108648317Y-68555287D01*
X108762417Y-68475096D01*
X108880023Y-68392441D01*
X109090622Y-68196740D01*
X109272713Y-67974268D01*
X109422927Y-67729142D01*
X109538483Y-67465898D01*
X109617244Y-67189406D01*
X109657751Y-66904784D01*
X109657845Y-66886951D01*
X109659235Y-66621583D01*
X109659235Y-66621576D01*
X109659257Y-66617297D01*
X109621732Y-66332266D01*
X109545871Y-66054964D01*
X109433077Y-65790524D01*
X109285439Y-65543839D01*
X109105687Y-65319472D01*
X108897149Y-65121577D01*
X108663683Y-64953814D01*
X108641843Y-64942250D01*
X108618654Y-64929972D01*
X108409608Y-64819288D01*
X108139627Y-64720489D01*
X107858736Y-64659245D01*
X107827685Y-64656801D01*
X107635718Y-64641693D01*
X107635709Y-64641693D01*
X107633261Y-64641500D01*
X107477729Y-64641500D01*
X107475593Y-64641646D01*
X107475582Y-64641646D01*
X107267452Y-64655835D01*
X107267446Y-64655836D01*
X107263175Y-64656127D01*
X107258980Y-64656996D01*
X107258978Y-64656996D01*
X107122416Y-64685277D01*
X106981658Y-64714426D01*
X106710657Y-64810393D01*
X106455188Y-64942250D01*
X106451687Y-64944711D01*
X106451683Y-64944713D01*
X106441594Y-64951804D01*
X106219977Y-65107559D01*
X106009378Y-65303260D01*
X105827287Y-65525732D01*
X105677073Y-65770858D01*
X105561517Y-66034102D01*
X105482756Y-66310594D01*
X105442249Y-66595216D01*
X105442227Y-66599505D01*
X105442226Y-66599512D01*
X105440765Y-66878417D01*
X105440743Y-66882703D01*
X94887867Y-66882703D01*
X94889235Y-66621583D01*
X94889235Y-66621576D01*
X94889257Y-66617297D01*
X94851732Y-66332266D01*
X94775871Y-66054964D01*
X94663077Y-65790524D01*
X94515439Y-65543839D01*
X94335687Y-65319472D01*
X94127149Y-65121577D01*
X93893683Y-64953814D01*
X93871843Y-64942250D01*
X93848654Y-64929972D01*
X93639608Y-64819288D01*
X93369627Y-64720489D01*
X93088736Y-64659245D01*
X93057685Y-64656801D01*
X92865718Y-64641693D01*
X92865709Y-64641693D01*
X92863261Y-64641500D01*
X92707729Y-64641500D01*
X92705593Y-64641646D01*
X92705582Y-64641646D01*
X92497452Y-64655835D01*
X92497446Y-64655836D01*
X92493175Y-64656127D01*
X92488980Y-64656996D01*
X92488978Y-64656996D01*
X92352416Y-64685277D01*
X92211658Y-64714426D01*
X91940657Y-64810393D01*
X91685188Y-64942250D01*
X91681687Y-64944711D01*
X91681683Y-64944713D01*
X91671594Y-64951804D01*
X91449977Y-65107559D01*
X91239378Y-65303260D01*
X91057287Y-65525732D01*
X90907073Y-65770858D01*
X90791517Y-66034102D01*
X90712756Y-66310594D01*
X90672249Y-66595216D01*
X90672227Y-66599505D01*
X90672226Y-66599512D01*
X90670765Y-66878417D01*
X90670743Y-66882703D01*
X80127867Y-66882703D01*
X80129235Y-66621583D01*
X80129235Y-66621576D01*
X80129257Y-66617297D01*
X80091732Y-66332266D01*
X80015871Y-66054964D01*
X79903077Y-65790524D01*
X79755439Y-65543839D01*
X79575687Y-65319472D01*
X79367149Y-65121577D01*
X79133683Y-64953814D01*
X79111843Y-64942250D01*
X79088654Y-64929972D01*
X78879608Y-64819288D01*
X78609627Y-64720489D01*
X78328736Y-64659245D01*
X78297685Y-64656801D01*
X78105718Y-64641693D01*
X78105709Y-64641693D01*
X78103261Y-64641500D01*
X77947729Y-64641500D01*
X77945593Y-64641646D01*
X77945582Y-64641646D01*
X77737452Y-64655835D01*
X77737446Y-64655836D01*
X77733175Y-64656127D01*
X77728980Y-64656996D01*
X77728978Y-64656996D01*
X77592416Y-64685277D01*
X77451658Y-64714426D01*
X77180657Y-64810393D01*
X76925188Y-64942250D01*
X76921687Y-64944711D01*
X76921683Y-64944713D01*
X76911594Y-64951804D01*
X76689977Y-65107559D01*
X76479378Y-65303260D01*
X76297287Y-65525732D01*
X76147073Y-65770858D01*
X76031517Y-66034102D01*
X75952756Y-66310594D01*
X75912249Y-66595216D01*
X75912227Y-66599505D01*
X75912226Y-66599512D01*
X75910765Y-66878417D01*
X75910743Y-66882703D01*
X65357867Y-66882703D01*
X65359235Y-66621583D01*
X65359235Y-66621576D01*
X65359257Y-66617297D01*
X65321732Y-66332266D01*
X65245871Y-66054964D01*
X65133077Y-65790524D01*
X64985439Y-65543839D01*
X64805687Y-65319472D01*
X64597149Y-65121577D01*
X64363683Y-64953814D01*
X64341843Y-64942250D01*
X64318654Y-64929972D01*
X64109608Y-64819288D01*
X63839627Y-64720489D01*
X63558736Y-64659245D01*
X63527685Y-64656801D01*
X63335718Y-64641693D01*
X63335709Y-64641693D01*
X63333261Y-64641500D01*
X63177729Y-64641500D01*
X63175593Y-64641646D01*
X63175582Y-64641646D01*
X62967452Y-64655835D01*
X62967446Y-64655836D01*
X62963175Y-64656127D01*
X62958980Y-64656996D01*
X62958978Y-64656996D01*
X62822416Y-64685277D01*
X62681658Y-64714426D01*
X62410657Y-64810393D01*
X62155188Y-64942250D01*
X62151687Y-64944711D01*
X62151683Y-64944713D01*
X62141594Y-64951804D01*
X61919977Y-65107559D01*
X61709378Y-65303260D01*
X61527287Y-65525732D01*
X61377073Y-65770858D01*
X61261517Y-66034102D01*
X61182756Y-66310594D01*
X61142249Y-66595216D01*
X61142227Y-66599505D01*
X61142226Y-66599512D01*
X61140765Y-66878417D01*
X61140743Y-66882703D01*
X50508000Y-66882703D01*
X50508000Y-53107655D01*
X51239858Y-53107655D01*
X51275104Y-53366638D01*
X51276412Y-53371124D01*
X51276412Y-53371126D01*
X51289732Y-53416824D01*
X51348243Y-53617567D01*
X51457668Y-53854928D01*
X51483946Y-53895009D01*
X51598410Y-54069596D01*
X51598414Y-54069601D01*
X51600976Y-54073509D01*
X51775018Y-54268506D01*
X51975970Y-54435637D01*
X51992402Y-54445608D01*
X52195422Y-54568804D01*
X52195426Y-54568806D01*
X52199419Y-54571229D01*
X52440455Y-54672303D01*
X52693783Y-54736641D01*
X52698434Y-54737109D01*
X52698438Y-54737110D01*
X52848112Y-54752181D01*
X52910867Y-54758500D01*
X53066354Y-54758500D01*
X53068679Y-54758327D01*
X53068685Y-54758327D01*
X53180738Y-54750000D01*
X60886439Y-54750000D01*
X60886709Y-54754119D01*
X60896772Y-54907642D01*
X60906660Y-55058507D01*
X60966975Y-55361735D01*
X61066354Y-55654496D01*
X61068177Y-55658192D01*
X61068180Y-55658200D01*
X61178721Y-55882352D01*
X61203096Y-55931780D01*
X61205390Y-55935213D01*
X61205391Y-55935214D01*
X61374861Y-56188845D01*
X61377575Y-56191939D01*
X61377579Y-56191945D01*
X61576001Y-56418201D01*
X61578710Y-56421290D01*
X61581799Y-56423999D01*
X61808055Y-56622421D01*
X61808061Y-56622425D01*
X61811155Y-56625139D01*
X61814581Y-56627428D01*
X61814586Y-56627432D01*
X62064785Y-56794609D01*
X62068220Y-56796904D01*
X62071923Y-56798730D01*
X62341800Y-56931820D01*
X62341808Y-56931823D01*
X62345504Y-56933646D01*
X62349419Y-56934975D01*
X62634358Y-57031699D01*
X62634361Y-57031700D01*
X62638265Y-57033025D01*
X62864961Y-57078117D01*
X62937450Y-57092536D01*
X62937453Y-57092536D01*
X62941493Y-57093340D01*
X62945604Y-57093609D01*
X62945608Y-57093610D01*
X63170737Y-57108366D01*
X63170746Y-57108366D01*
X63172786Y-57108500D01*
X63327214Y-57108500D01*
X63329254Y-57108366D01*
X63329263Y-57108366D01*
X63554392Y-57093610D01*
X63554396Y-57093609D01*
X63558507Y-57093340D01*
X63562547Y-57092536D01*
X63562550Y-57092536D01*
X63635039Y-57078117D01*
X63861735Y-57033025D01*
X63865639Y-57031700D01*
X63865642Y-57031699D01*
X64150581Y-56934975D01*
X64154496Y-56933646D01*
X64158192Y-56931823D01*
X64158200Y-56931820D01*
X64428077Y-56798730D01*
X64431780Y-56796904D01*
X64435215Y-56794609D01*
X64685414Y-56627432D01*
X64685419Y-56627428D01*
X64688845Y-56625139D01*
X64691939Y-56622425D01*
X64691945Y-56622421D01*
X64918201Y-56423999D01*
X64921290Y-56421290D01*
X64923999Y-56418201D01*
X65122421Y-56191945D01*
X65122425Y-56191939D01*
X65125139Y-56188845D01*
X65296904Y-55931781D01*
X65433646Y-55654496D01*
X65533025Y-55361735D01*
X65593340Y-55058507D01*
X65603229Y-54907642D01*
X65613291Y-54754119D01*
X65613561Y-54750000D01*
X65605224Y-54622803D01*
X65595186Y-54469652D01*
X99591524Y-54469652D01*
X99593990Y-54478281D01*
X99593991Y-54478286D01*
X99599639Y-54498048D01*
X99603217Y-54514809D01*
X99606130Y-54535152D01*
X99606133Y-54535162D01*
X99607405Y-54544045D01*
X99618021Y-54567395D01*
X99624464Y-54584907D01*
X99628149Y-54597800D01*
X99631512Y-54609565D01*
X99647274Y-54634548D01*
X99655404Y-54649614D01*
X99667633Y-54676510D01*
X99684374Y-54695939D01*
X99695479Y-54710947D01*
X99709160Y-54732631D01*
X99728827Y-54750000D01*
X99731296Y-54752181D01*
X99743340Y-54764373D01*
X99762619Y-54786747D01*
X99770147Y-54791626D01*
X99770150Y-54791629D01*
X99784139Y-54800696D01*
X99799013Y-54811986D01*
X99818228Y-54828956D01*
X99826354Y-54832771D01*
X99826355Y-54832772D01*
X99832021Y-54835432D01*
X99844966Y-54841510D01*
X99859935Y-54849824D01*
X99884727Y-54865893D01*
X99901650Y-54870954D01*
X99909290Y-54873239D01*
X99926736Y-54879901D01*
X99949948Y-54890799D01*
X99979130Y-54895343D01*
X99995849Y-54899126D01*
X100015536Y-54905014D01*
X100015539Y-54905015D01*
X100024141Y-54907587D01*
X100033116Y-54907642D01*
X100033117Y-54907642D01*
X100039810Y-54907683D01*
X100058556Y-54907797D01*
X100059328Y-54907830D01*
X100060423Y-54908000D01*
X100091298Y-54908000D01*
X100092068Y-54908002D01*
X100165716Y-54908452D01*
X100165717Y-54908452D01*
X100169652Y-54908476D01*
X100170996Y-54908092D01*
X100172341Y-54908000D01*
X108191298Y-54908000D01*
X108192069Y-54908002D01*
X108269652Y-54908476D01*
X108278281Y-54906010D01*
X108278286Y-54906009D01*
X108298048Y-54900361D01*
X108314809Y-54896783D01*
X108335152Y-54893870D01*
X108335162Y-54893867D01*
X108344045Y-54892595D01*
X108367395Y-54881979D01*
X108384907Y-54875536D01*
X108400937Y-54870954D01*
X108409565Y-54868488D01*
X108434548Y-54852726D01*
X108449614Y-54844596D01*
X108476510Y-54832367D01*
X108495939Y-54815626D01*
X108510947Y-54804521D01*
X108525039Y-54795630D01*
X108532631Y-54790840D01*
X108552182Y-54768703D01*
X108564374Y-54756659D01*
X108579949Y-54743239D01*
X108579950Y-54743237D01*
X108586747Y-54737381D01*
X108591626Y-54729853D01*
X108591629Y-54729850D01*
X108600696Y-54715861D01*
X108611986Y-54700987D01*
X108616453Y-54695929D01*
X108628956Y-54681772D01*
X108632863Y-54673452D01*
X108635432Y-54667979D01*
X108641510Y-54655034D01*
X108649824Y-54640065D01*
X108665893Y-54615273D01*
X108673239Y-54590709D01*
X108679901Y-54573264D01*
X108686983Y-54558179D01*
X108690799Y-54550052D01*
X108695343Y-54520870D01*
X108699126Y-54504151D01*
X108705014Y-54484464D01*
X108705015Y-54484461D01*
X108707587Y-54475859D01*
X108707797Y-54441444D01*
X108707830Y-54440672D01*
X108708000Y-54439577D01*
X108708000Y-54408702D01*
X108708002Y-54407932D01*
X108708452Y-54334284D01*
X108708452Y-54334283D01*
X108708476Y-54330348D01*
X108708092Y-54329004D01*
X108708000Y-54327659D01*
X108708000Y-53531438D01*
X108728002Y-53463317D01*
X108781658Y-53416824D01*
X108851932Y-53406720D01*
X108916512Y-53436214D01*
X108949897Y-53482003D01*
X109024177Y-53656148D01*
X109046923Y-53709476D01*
X109058693Y-53729142D01*
X109160262Y-53898851D01*
X109194561Y-53956161D01*
X109374313Y-54180528D01*
X109582851Y-54378423D01*
X109816317Y-54546186D01*
X109820112Y-54548195D01*
X109820113Y-54548196D01*
X109838968Y-54558179D01*
X110070392Y-54680712D01*
X110340373Y-54779511D01*
X110621264Y-54840755D01*
X110630807Y-54841506D01*
X110844282Y-54858307D01*
X110844291Y-54858307D01*
X110846739Y-54858500D01*
X111002271Y-54858500D01*
X111004407Y-54858354D01*
X111004418Y-54858354D01*
X111212548Y-54844165D01*
X111212554Y-54844164D01*
X111216825Y-54843873D01*
X111221020Y-54843004D01*
X111221022Y-54843004D01*
X111472913Y-54790840D01*
X111498342Y-54785574D01*
X111769343Y-54689607D01*
X111930025Y-54606673D01*
X112021005Y-54559715D01*
X112021006Y-54559715D01*
X112024812Y-54557750D01*
X112028313Y-54555289D01*
X112028317Y-54555287D01*
X112161120Y-54461951D01*
X112260023Y-54392441D01*
X112393393Y-54268506D01*
X112467479Y-54199661D01*
X112467481Y-54199658D01*
X112470622Y-54196740D01*
X112652713Y-53974268D01*
X112802927Y-53729142D01*
X112831180Y-53664781D01*
X112916757Y-53469830D01*
X112918483Y-53465898D01*
X112997244Y-53189406D01*
X113008879Y-53107655D01*
X116039858Y-53107655D01*
X116075104Y-53366638D01*
X116076412Y-53371124D01*
X116076412Y-53371126D01*
X116089732Y-53416824D01*
X116148243Y-53617567D01*
X116257668Y-53854928D01*
X116283946Y-53895009D01*
X116398410Y-54069596D01*
X116398414Y-54069601D01*
X116400976Y-54073509D01*
X116575018Y-54268506D01*
X116775970Y-54435637D01*
X116792402Y-54445608D01*
X116995422Y-54568804D01*
X116995426Y-54568806D01*
X116999419Y-54571229D01*
X117240455Y-54672303D01*
X117493783Y-54736641D01*
X117498434Y-54737109D01*
X117498438Y-54737110D01*
X117648112Y-54752181D01*
X117710867Y-54758500D01*
X117866354Y-54758500D01*
X117868679Y-54758327D01*
X117868685Y-54758327D01*
X118056000Y-54744407D01*
X118056004Y-54744406D01*
X118060652Y-54744061D01*
X118065200Y-54743032D01*
X118065206Y-54743031D01*
X118294978Y-54691038D01*
X118315577Y-54686377D01*
X118335316Y-54678701D01*
X118554824Y-54593340D01*
X118554827Y-54593339D01*
X118559177Y-54591647D01*
X118576513Y-54581739D01*
X118658023Y-54535152D01*
X118786098Y-54461951D01*
X118991357Y-54300138D01*
X119170443Y-54109763D01*
X119319424Y-53895009D01*
X119341284Y-53850682D01*
X119432960Y-53664781D01*
X119432961Y-53664778D01*
X119435025Y-53660593D01*
X119514707Y-53411665D01*
X119556721Y-53153693D01*
X119559979Y-52904784D01*
X119560081Y-52897022D01*
X119560081Y-52897019D01*
X119560142Y-52892345D01*
X119524896Y-52633362D01*
X119520214Y-52617297D01*
X119459053Y-52407464D01*
X119451757Y-52382433D01*
X119342332Y-52145072D01*
X119307239Y-52091547D01*
X119201590Y-51930404D01*
X119201586Y-51930399D01*
X119199024Y-51926491D01*
X119024982Y-51731494D01*
X118824030Y-51564363D01*
X118731147Y-51508000D01*
X118604578Y-51431196D01*
X118604574Y-51431194D01*
X118600581Y-51428771D01*
X118359545Y-51327697D01*
X118106217Y-51263359D01*
X118101566Y-51262891D01*
X118101562Y-51262890D01*
X117892271Y-51241816D01*
X117889133Y-51241500D01*
X117733646Y-51241500D01*
X117731321Y-51241673D01*
X117731315Y-51241673D01*
X117544000Y-51255593D01*
X117543996Y-51255594D01*
X117539348Y-51255939D01*
X117534800Y-51256968D01*
X117534794Y-51256969D01*
X117348399Y-51299147D01*
X117284423Y-51313623D01*
X117280071Y-51315315D01*
X117280069Y-51315316D01*
X117045176Y-51406660D01*
X117045173Y-51406661D01*
X117040823Y-51408353D01*
X116813902Y-51538049D01*
X116608643Y-51699862D01*
X116429557Y-51890237D01*
X116280576Y-52104991D01*
X116278510Y-52109181D01*
X116278508Y-52109184D01*
X116168497Y-52332266D01*
X116164975Y-52339407D01*
X116085293Y-52588335D01*
X116043279Y-52846307D01*
X116039858Y-53107655D01*
X113008879Y-53107655D01*
X113037751Y-52904784D01*
X113037817Y-52892345D01*
X113039235Y-52621583D01*
X113039235Y-52621576D01*
X113039257Y-52617297D01*
X113001732Y-52332266D01*
X112925871Y-52054964D01*
X112869583Y-51922999D01*
X112814763Y-51794476D01*
X112814761Y-51794472D01*
X112813077Y-51790524D01*
X112679513Y-51567355D01*
X112667643Y-51547521D01*
X112667640Y-51547517D01*
X112665439Y-51543839D01*
X112485687Y-51319472D01*
X112277149Y-51121577D01*
X112052880Y-50960423D01*
X112047172Y-50956321D01*
X112047171Y-50956320D01*
X112043683Y-50953814D01*
X112021843Y-50942250D01*
X111998654Y-50929972D01*
X111789608Y-50819288D01*
X111601303Y-50750378D01*
X111523658Y-50721964D01*
X111523656Y-50721963D01*
X111519627Y-50720489D01*
X111238736Y-50659245D01*
X111207173Y-50656761D01*
X111015718Y-50641693D01*
X111015709Y-50641693D01*
X111013261Y-50641500D01*
X110857729Y-50641500D01*
X110855593Y-50641646D01*
X110855582Y-50641646D01*
X110647452Y-50655835D01*
X110647446Y-50655836D01*
X110643175Y-50656127D01*
X110638980Y-50656996D01*
X110638978Y-50656996D01*
X110611826Y-50662619D01*
X110361658Y-50714426D01*
X110090657Y-50810393D01*
X110086848Y-50812359D01*
X109886946Y-50915536D01*
X109835188Y-50942250D01*
X109831687Y-50944711D01*
X109831683Y-50944713D01*
X109821594Y-50951804D01*
X109599977Y-51107559D01*
X109584892Y-51121577D01*
X109432317Y-51263359D01*
X109389378Y-51303260D01*
X109207287Y-51525732D01*
X109057073Y-51770858D01*
X108949371Y-52016209D01*
X108903677Y-52070542D01*
X108835859Y-52091547D01*
X108767451Y-52072553D01*
X108720171Y-52019589D01*
X108708000Y-51965561D01*
X108708000Y-51008702D01*
X108708002Y-51007932D01*
X108708317Y-50956321D01*
X108708476Y-50930348D01*
X108706010Y-50921719D01*
X108706009Y-50921714D01*
X108700361Y-50901952D01*
X108696783Y-50885191D01*
X108693870Y-50864848D01*
X108693867Y-50864838D01*
X108692595Y-50855955D01*
X108681979Y-50832605D01*
X108675536Y-50815093D01*
X108670954Y-50799063D01*
X108668488Y-50790435D01*
X108652726Y-50765452D01*
X108644596Y-50750386D01*
X108632367Y-50723490D01*
X108615626Y-50704061D01*
X108604521Y-50689053D01*
X108595630Y-50674961D01*
X108590840Y-50667369D01*
X108568703Y-50647818D01*
X108556659Y-50635626D01*
X108543239Y-50620051D01*
X108543237Y-50620050D01*
X108537381Y-50613253D01*
X108529853Y-50608374D01*
X108529850Y-50608371D01*
X108515861Y-50599304D01*
X108500987Y-50588014D01*
X108488502Y-50576988D01*
X108481772Y-50571044D01*
X108473646Y-50567229D01*
X108473645Y-50567228D01*
X108467979Y-50564568D01*
X108455034Y-50558490D01*
X108440065Y-50550176D01*
X108415273Y-50534107D01*
X108390709Y-50526761D01*
X108373264Y-50520099D01*
X108368827Y-50518016D01*
X108350052Y-50509201D01*
X108320870Y-50504657D01*
X108304151Y-50500874D01*
X108284464Y-50494986D01*
X108284461Y-50494985D01*
X108275859Y-50492413D01*
X108266884Y-50492358D01*
X108266883Y-50492358D01*
X108260190Y-50492317D01*
X108241444Y-50492203D01*
X108240672Y-50492170D01*
X108239577Y-50492000D01*
X108208702Y-50492000D01*
X108207932Y-50491998D01*
X108134284Y-50491548D01*
X108134283Y-50491548D01*
X108130348Y-50491524D01*
X108129004Y-50491908D01*
X108127659Y-50492000D01*
X100108702Y-50492000D01*
X100107932Y-50491998D01*
X100107078Y-50491993D01*
X100030348Y-50491524D01*
X100021719Y-50493990D01*
X100021714Y-50493991D01*
X100001952Y-50499639D01*
X99985191Y-50503217D01*
X99964848Y-50506130D01*
X99964838Y-50506133D01*
X99955955Y-50507405D01*
X99932605Y-50518021D01*
X99915093Y-50524464D01*
X99907057Y-50526761D01*
X99890435Y-50531512D01*
X99865452Y-50547274D01*
X99850386Y-50555404D01*
X99823490Y-50567633D01*
X99804061Y-50584374D01*
X99789053Y-50595479D01*
X99767369Y-50609160D01*
X99761427Y-50615888D01*
X99747819Y-50631296D01*
X99735627Y-50643340D01*
X99713253Y-50662619D01*
X99708374Y-50670147D01*
X99708371Y-50670150D01*
X99699304Y-50684139D01*
X99688014Y-50699013D01*
X99671044Y-50718228D01*
X99658490Y-50744966D01*
X99650176Y-50759935D01*
X99634107Y-50784727D01*
X99631535Y-50793327D01*
X99626761Y-50809290D01*
X99620099Y-50826736D01*
X99609201Y-50849948D01*
X99604658Y-50879128D01*
X99600874Y-50895849D01*
X99594986Y-50915536D01*
X99594985Y-50915539D01*
X99592413Y-50924141D01*
X99592217Y-50956321D01*
X99592203Y-50958546D01*
X99592170Y-50959328D01*
X99592000Y-50960423D01*
X99592000Y-50991298D01*
X99591998Y-50992068D01*
X99591524Y-51069652D01*
X99591908Y-51070996D01*
X99592000Y-51072341D01*
X99592000Y-54391298D01*
X99591998Y-54392068D01*
X99591524Y-54469652D01*
X65595186Y-54469652D01*
X65593610Y-54445608D01*
X65593609Y-54445604D01*
X65593340Y-54441493D01*
X65586730Y-54408259D01*
X65564546Y-54296736D01*
X65533025Y-54138265D01*
X65433646Y-53845504D01*
X65431822Y-53841806D01*
X65431820Y-53841800D01*
X65298730Y-53571923D01*
X65296904Y-53568220D01*
X65294610Y-53564787D01*
X65294609Y-53564785D01*
X65127432Y-53314586D01*
X65127428Y-53314581D01*
X65125139Y-53311155D01*
X65122425Y-53308061D01*
X65122421Y-53308055D01*
X64923999Y-53081799D01*
X64921290Y-53078710D01*
X64918201Y-53076001D01*
X64691945Y-52877579D01*
X64691939Y-52877575D01*
X64688845Y-52874861D01*
X64685419Y-52872572D01*
X64685414Y-52872568D01*
X64435215Y-52705391D01*
X64435213Y-52705390D01*
X64431780Y-52703096D01*
X64299765Y-52637993D01*
X64158200Y-52568180D01*
X64158192Y-52568177D01*
X64154496Y-52566354D01*
X64150581Y-52565025D01*
X63865642Y-52468301D01*
X63865639Y-52468300D01*
X63861735Y-52466975D01*
X63635039Y-52421883D01*
X63562550Y-52407464D01*
X63562547Y-52407464D01*
X63558507Y-52406660D01*
X63554396Y-52406391D01*
X63554392Y-52406390D01*
X63329263Y-52391634D01*
X63329254Y-52391634D01*
X63327214Y-52391500D01*
X63172786Y-52391500D01*
X63170746Y-52391634D01*
X63170737Y-52391634D01*
X62945608Y-52406390D01*
X62945604Y-52406391D01*
X62941493Y-52406660D01*
X62937453Y-52407464D01*
X62937450Y-52407464D01*
X62864961Y-52421883D01*
X62638265Y-52466975D01*
X62634361Y-52468300D01*
X62634358Y-52468301D01*
X62349419Y-52565025D01*
X62345504Y-52566354D01*
X62341808Y-52568177D01*
X62341800Y-52568180D01*
X62200235Y-52637993D01*
X62068220Y-52703096D01*
X62064787Y-52705390D01*
X62064785Y-52705391D01*
X61814586Y-52872568D01*
X61814581Y-52872572D01*
X61811155Y-52874861D01*
X61808061Y-52877575D01*
X61808055Y-52877579D01*
X61581799Y-53076001D01*
X61578710Y-53078710D01*
X61576001Y-53081799D01*
X61377579Y-53308055D01*
X61377575Y-53308061D01*
X61374861Y-53311155D01*
X61372572Y-53314581D01*
X61372568Y-53314586D01*
X61260704Y-53482003D01*
X61203096Y-53568219D01*
X61066354Y-53845504D01*
X61065029Y-53849409D01*
X61065028Y-53849410D01*
X60988957Y-54073509D01*
X60966975Y-54138265D01*
X60935454Y-54296736D01*
X60913271Y-54408259D01*
X60906660Y-54441493D01*
X60906391Y-54445604D01*
X60906390Y-54445608D01*
X60894776Y-54622803D01*
X60886439Y-54750000D01*
X53180738Y-54750000D01*
X53256000Y-54744407D01*
X53256004Y-54744406D01*
X53260652Y-54744061D01*
X53265200Y-54743032D01*
X53265206Y-54743031D01*
X53494978Y-54691038D01*
X53515577Y-54686377D01*
X53535316Y-54678701D01*
X53754824Y-54593340D01*
X53754827Y-54593339D01*
X53759177Y-54591647D01*
X53776513Y-54581739D01*
X53858023Y-54535152D01*
X53986098Y-54461951D01*
X54191357Y-54300138D01*
X54370443Y-54109763D01*
X54519424Y-53895009D01*
X54541284Y-53850682D01*
X54632960Y-53664781D01*
X54632961Y-53664778D01*
X54635025Y-53660593D01*
X54714707Y-53411665D01*
X54756721Y-53153693D01*
X54759979Y-52904784D01*
X54760081Y-52897022D01*
X54760081Y-52897019D01*
X54760142Y-52892345D01*
X54724896Y-52633362D01*
X54720214Y-52617297D01*
X54659053Y-52407464D01*
X54651757Y-52382433D01*
X54542332Y-52145072D01*
X54507239Y-52091547D01*
X54401590Y-51930404D01*
X54401586Y-51930399D01*
X54399024Y-51926491D01*
X54224982Y-51731494D01*
X54024030Y-51564363D01*
X53931147Y-51508000D01*
X53804578Y-51431196D01*
X53804574Y-51431194D01*
X53800581Y-51428771D01*
X53559545Y-51327697D01*
X53306217Y-51263359D01*
X53301566Y-51262891D01*
X53301562Y-51262890D01*
X53092271Y-51241816D01*
X53089133Y-51241500D01*
X52933646Y-51241500D01*
X52931321Y-51241673D01*
X52931315Y-51241673D01*
X52744000Y-51255593D01*
X52743996Y-51255594D01*
X52739348Y-51255939D01*
X52734800Y-51256968D01*
X52734794Y-51256969D01*
X52548399Y-51299147D01*
X52484423Y-51313623D01*
X52480071Y-51315315D01*
X52480069Y-51315316D01*
X52245176Y-51406660D01*
X52245173Y-51406661D01*
X52240823Y-51408353D01*
X52013902Y-51538049D01*
X51808643Y-51699862D01*
X51629557Y-51890237D01*
X51480576Y-52104991D01*
X51478510Y-52109181D01*
X51478508Y-52109184D01*
X51368497Y-52332266D01*
X51364975Y-52339407D01*
X51285293Y-52588335D01*
X51243279Y-52846307D01*
X51239858Y-53107655D01*
X50508000Y-53107655D01*
X50508000Y-47476681D01*
X60563860Y-47476681D01*
X60563878Y-47476933D01*
X60569793Y-47485677D01*
X60601111Y-47514174D01*
X60606748Y-47518738D01*
X60882544Y-47716918D01*
X60888682Y-47720813D01*
X61185435Y-47885984D01*
X61191955Y-47889136D01*
X61505738Y-48019109D01*
X61512589Y-48021495D01*
X61839212Y-48114536D01*
X61846301Y-48116120D01*
X62181465Y-48171006D01*
X62188671Y-48171763D01*
X62527926Y-48187762D01*
X62535176Y-48187686D01*
X62874010Y-48164587D01*
X62881219Y-48163676D01*
X63215160Y-48101784D01*
X63222190Y-48100057D01*
X63546819Y-48000187D01*
X63553597Y-47997667D01*
X63864603Y-47861145D01*
X63871043Y-47857864D01*
X64164293Y-47686502D01*
X64170326Y-47682493D01*
X64428828Y-47488405D01*
X64437282Y-47477078D01*
X64437065Y-47476681D01*
X106283860Y-47476681D01*
X106283878Y-47476933D01*
X106289793Y-47485677D01*
X106321111Y-47514174D01*
X106326748Y-47518738D01*
X106602544Y-47716918D01*
X106608682Y-47720813D01*
X106905435Y-47885984D01*
X106911955Y-47889136D01*
X107225738Y-48019109D01*
X107232589Y-48021495D01*
X107559212Y-48114536D01*
X107566301Y-48116120D01*
X107901465Y-48171006D01*
X107908671Y-48171763D01*
X108247926Y-48187762D01*
X108255176Y-48187686D01*
X108594010Y-48164587D01*
X108601219Y-48163676D01*
X108935160Y-48101784D01*
X108942190Y-48100057D01*
X109266819Y-48000187D01*
X109273597Y-47997667D01*
X109584603Y-47861145D01*
X109591043Y-47857864D01*
X109884293Y-47686502D01*
X109890326Y-47682493D01*
X110148828Y-47488405D01*
X110157282Y-47477078D01*
X110150537Y-47464748D01*
X108232810Y-45547020D01*
X108218869Y-45539408D01*
X108217034Y-45539539D01*
X108210420Y-45543790D01*
X106291474Y-47462737D01*
X106283860Y-47476681D01*
X64437065Y-47476681D01*
X64430537Y-47464748D01*
X62512810Y-45547020D01*
X62498869Y-45539408D01*
X62497034Y-45539539D01*
X62490420Y-45543790D01*
X60571474Y-47462737D01*
X60563860Y-47476681D01*
X50508000Y-47476681D01*
X50508000Y-45083987D01*
X59488484Y-45083987D01*
X59497374Y-45423505D01*
X59497980Y-45430721D01*
X59545835Y-45766963D01*
X59547269Y-45774074D01*
X59633455Y-46102595D01*
X59635692Y-46109478D01*
X59759064Y-46425914D01*
X59762081Y-46432503D01*
X59921002Y-46732652D01*
X59924761Y-46738860D01*
X60117129Y-47018757D01*
X60121574Y-47024486D01*
X60188743Y-47101484D01*
X60201917Y-47109888D01*
X60211769Y-47104020D01*
X62127980Y-45187810D01*
X62134357Y-45176131D01*
X62864408Y-45176131D01*
X62864539Y-45177966D01*
X62868790Y-45184580D01*
X64786268Y-47102057D01*
X64799622Y-47109349D01*
X64809594Y-47102295D01*
X64916641Y-46974267D01*
X64920957Y-46968456D01*
X65107432Y-46684575D01*
X65111046Y-46678313D01*
X65263658Y-46374882D01*
X65266530Y-46368244D01*
X65383249Y-46049293D01*
X65385345Y-46042351D01*
X65464631Y-45712103D01*
X65465915Y-45704964D01*
X65506816Y-45366973D01*
X65507240Y-45361403D01*
X65513010Y-45177797D01*
X65512937Y-45172204D01*
X65507850Y-45083987D01*
X105208484Y-45083987D01*
X105217374Y-45423505D01*
X105217980Y-45430721D01*
X105265835Y-45766963D01*
X105267269Y-45774074D01*
X105353455Y-46102595D01*
X105355692Y-46109478D01*
X105479064Y-46425914D01*
X105482081Y-46432503D01*
X105641002Y-46732652D01*
X105644761Y-46738860D01*
X105837129Y-47018757D01*
X105841574Y-47024486D01*
X105908743Y-47101484D01*
X105921917Y-47109888D01*
X105931769Y-47104020D01*
X107847980Y-45187810D01*
X107854357Y-45176131D01*
X108584408Y-45176131D01*
X108584539Y-45177966D01*
X108588790Y-45184580D01*
X110506268Y-47102057D01*
X110519622Y-47109349D01*
X110529594Y-47102295D01*
X110636641Y-46974267D01*
X110640957Y-46968456D01*
X110827432Y-46684575D01*
X110831046Y-46678313D01*
X110983658Y-46374882D01*
X110986530Y-46368244D01*
X111103249Y-46049293D01*
X111105345Y-46042351D01*
X111184631Y-45712103D01*
X111185915Y-45704964D01*
X111226816Y-45366973D01*
X111227240Y-45361403D01*
X111233010Y-45177797D01*
X111232937Y-45172204D01*
X111213338Y-44832303D01*
X111212506Y-44825113D01*
X111154113Y-44490529D01*
X111152458Y-44483474D01*
X111055998Y-44157834D01*
X111053540Y-44151006D01*
X110920290Y-43838608D01*
X110917073Y-43832125D01*
X110748788Y-43537089D01*
X110744856Y-43531034D01*
X110543774Y-43257295D01*
X110539166Y-43251726D01*
X110533830Y-43245984D01*
X110520178Y-43237866D01*
X110519570Y-43237887D01*
X110511092Y-43243119D01*
X108592020Y-45162190D01*
X108584408Y-45176131D01*
X107854357Y-45176131D01*
X107855592Y-45173869D01*
X107855461Y-45172034D01*
X107851210Y-45165420D01*
X105932374Y-43246585D01*
X105919581Y-43239599D01*
X105908827Y-43247464D01*
X105748037Y-43452527D01*
X105743902Y-43458476D01*
X105566440Y-43748068D01*
X105563019Y-43754447D01*
X105420016Y-44062522D01*
X105417356Y-44069241D01*
X105310711Y-44391707D01*
X105308834Y-44398711D01*
X105239961Y-44731288D01*
X105238904Y-44738449D01*
X105208712Y-45076735D01*
X105208484Y-45083987D01*
X65507850Y-45083987D01*
X65493338Y-44832303D01*
X65492506Y-44825113D01*
X65434113Y-44490529D01*
X65432458Y-44483474D01*
X65335998Y-44157834D01*
X65333540Y-44151006D01*
X65200290Y-43838608D01*
X65197073Y-43832125D01*
X65028788Y-43537089D01*
X65024856Y-43531034D01*
X64823774Y-43257295D01*
X64819166Y-43251726D01*
X64813830Y-43245984D01*
X64800178Y-43237866D01*
X64799570Y-43237887D01*
X64791092Y-43243119D01*
X62872020Y-45162190D01*
X62864408Y-45176131D01*
X62134357Y-45176131D01*
X62135592Y-45173869D01*
X62135461Y-45172034D01*
X62131210Y-45165420D01*
X60212374Y-43246585D01*
X60199581Y-43239599D01*
X60188827Y-43247464D01*
X60028037Y-43452527D01*
X60023902Y-43458476D01*
X59846440Y-43748068D01*
X59843019Y-43754447D01*
X59700016Y-44062522D01*
X59697356Y-44069241D01*
X59590711Y-44391707D01*
X59588834Y-44398711D01*
X59519961Y-44731288D01*
X59518904Y-44738449D01*
X59488712Y-45076735D01*
X59488484Y-45083987D01*
X50508000Y-45083987D01*
X50508000Y-42809000D01*
X50528002Y-42740879D01*
X50581658Y-42694386D01*
X50634000Y-42683000D01*
X60458269Y-42683000D01*
X60526390Y-42703002D01*
G37*
%TD.AperFunction*%
%TD*%
M02*
