%TF.GenerationSoftware,KiCad,Pcbnew,(6.0.1)*%
%TF.CreationDate,2022-06-17T02:15:53-07:00*%
%TF.ProjectId,BonkDaddyPanel,426f6e6b-4461-4646-9479-50616e656c2e,1.2*%
%TF.SameCoordinates,Original*%
%TF.FileFunction,Legend,Top*%
%TF.FilePolarity,Positive*%
%FSLAX46Y46*%
G04 Gerber Fmt 4.6, Leading zero omitted, Abs format (unit mm)*
G04 Created by KiCad (PCBNEW (6.0.1)) date 2022-06-17 02:15:53*
%MOMM*%
%LPD*%
G01*
G04 APERTURE LIST*
%ADD10C,0.500000*%
%ADD11C,0.150000*%
%ADD12C,0.300000*%
%ADD13C,0.250000*%
%ADD14C,0.100000*%
%ADD15C,0.010000*%
G04 APERTURE END LIST*
D10*
X100100000Y-51000000D02*
X100100000Y-54400000D01*
X100100000Y-54400000D02*
X108200000Y-54400000D01*
D11*
X77500600Y-80981400D02*
X93299400Y-80981400D01*
X59700000Y-51250000D02*
X59700000Y-59932000D01*
X66700000Y-59932000D02*
X66700000Y-51250000D01*
X66700000Y-51250000D02*
X59700000Y-51250000D01*
D10*
X100100000Y-51000000D02*
X108200000Y-51000000D01*
D11*
X59700000Y-59932000D02*
X66700000Y-59932000D01*
X77500600Y-80575000D02*
X93299400Y-80575000D01*
D10*
X108200000Y-51000000D02*
X108200000Y-54400000D01*
D12*
X61242857Y-58578571D02*
X60742857Y-57864285D01*
X60385714Y-58578571D02*
X60385714Y-57078571D01*
X60957142Y-57078571D01*
X61100000Y-57150000D01*
X61171428Y-57221428D01*
X61242857Y-57364285D01*
X61242857Y-57578571D01*
X61171428Y-57721428D01*
X61100000Y-57792857D01*
X60957142Y-57864285D01*
X60385714Y-57864285D01*
X62457142Y-58507142D02*
X62314285Y-58578571D01*
X62028571Y-58578571D01*
X61885714Y-58507142D01*
X61814285Y-58364285D01*
X61814285Y-57792857D01*
X61885714Y-57650000D01*
X62028571Y-57578571D01*
X62314285Y-57578571D01*
X62457142Y-57650000D01*
X62528571Y-57792857D01*
X62528571Y-57935714D01*
X61814285Y-58078571D01*
X63100000Y-58507142D02*
X63242857Y-58578571D01*
X63528571Y-58578571D01*
X63671428Y-58507142D01*
X63742857Y-58364285D01*
X63742857Y-58292857D01*
X63671428Y-58150000D01*
X63528571Y-58078571D01*
X63314285Y-58078571D01*
X63171428Y-58007142D01*
X63100000Y-57864285D01*
X63100000Y-57792857D01*
X63171428Y-57650000D01*
X63314285Y-57578571D01*
X63528571Y-57578571D01*
X63671428Y-57650000D01*
X64957142Y-58507142D02*
X64814285Y-58578571D01*
X64528571Y-58578571D01*
X64385714Y-58507142D01*
X64314285Y-58364285D01*
X64314285Y-57792857D01*
X64385714Y-57650000D01*
X64528571Y-57578571D01*
X64814285Y-57578571D01*
X64957142Y-57650000D01*
X65028571Y-57792857D01*
X65028571Y-57935714D01*
X64314285Y-58078571D01*
X65457142Y-57578571D02*
X66028571Y-57578571D01*
X65671428Y-57078571D02*
X65671428Y-58364285D01*
X65742857Y-58507142D01*
X65885714Y-58578571D01*
X66028571Y-58578571D01*
D11*
X62462495Y-69702380D02*
X63033923Y-69702380D01*
X62748209Y-70702380D02*
X62748209Y-69702380D01*
X63557733Y-69702380D02*
X63652971Y-69702380D01*
X63748209Y-69750000D01*
X63795828Y-69797619D01*
X63843447Y-69892857D01*
X63891066Y-70083333D01*
X63891066Y-70321428D01*
X63843447Y-70511904D01*
X63795828Y-70607142D01*
X63748209Y-70654761D01*
X63652971Y-70702380D01*
X63557733Y-70702380D01*
X63462495Y-70654761D01*
X63414876Y-70607142D01*
X63367257Y-70511904D01*
X63319638Y-70321428D01*
X63319638Y-70083333D01*
X63367257Y-69892857D01*
X63414876Y-69797619D01*
X63462495Y-69750000D01*
X63557733Y-69702380D01*
X77258095Y-69702380D02*
X77829523Y-69702380D01*
X77543809Y-70702380D02*
X77543809Y-69702380D01*
X78686666Y-70702380D02*
X78115238Y-70702380D01*
X78400952Y-70702380D02*
X78400952Y-69702380D01*
X78305714Y-69845238D01*
X78210476Y-69940476D01*
X78115238Y-69988095D01*
X81262659Y-64017034D02*
X81262659Y-64207511D01*
X81643612Y-64017034D02*
X81643612Y-64207511D01*
X82024564Y-64731320D02*
X82500754Y-64731320D01*
X81929326Y-65017034D02*
X82262659Y-64017034D01*
X82595993Y-65017034D01*
X82929326Y-65017034D02*
X82929326Y-64350368D01*
X82929326Y-64540844D02*
X82976945Y-64445606D01*
X83024564Y-64397987D01*
X83119802Y-64350368D01*
X83215040Y-64350368D01*
X83976945Y-64350368D02*
X83976945Y-65159892D01*
X83929326Y-65255130D01*
X83881707Y-65302749D01*
X83786469Y-65350368D01*
X83643612Y-65350368D01*
X83548374Y-65302749D01*
X83976945Y-64969415D02*
X83881707Y-65017034D01*
X83691231Y-65017034D01*
X83595993Y-64969415D01*
X83548374Y-64921796D01*
X83500754Y-64826558D01*
X83500754Y-64540844D01*
X83548374Y-64445606D01*
X83595993Y-64397987D01*
X83691231Y-64350368D01*
X83881707Y-64350368D01*
X83976945Y-64397987D01*
X84453135Y-65017034D02*
X84453135Y-64017034D01*
X84881707Y-65017034D02*
X84881707Y-64493225D01*
X84834088Y-64397987D01*
X84738850Y-64350368D01*
X84595993Y-64350368D01*
X84500754Y-64397987D01*
X84453135Y-64445606D01*
X86119802Y-65017034D02*
X86119802Y-64017034D01*
X86500754Y-64017034D01*
X86595993Y-64064654D01*
X86643612Y-64112273D01*
X86691231Y-64207511D01*
X86691231Y-64350368D01*
X86643612Y-64445606D01*
X86595993Y-64493225D01*
X86500754Y-64540844D01*
X86119802Y-64540844D01*
X86976945Y-64350368D02*
X87357897Y-64350368D01*
X87119802Y-64017034D02*
X87119802Y-64874177D01*
X87167421Y-64969415D01*
X87262659Y-65017034D01*
X87357897Y-65017034D01*
X87834088Y-65017034D02*
X87738850Y-64969415D01*
X87691231Y-64921796D01*
X87643612Y-64826558D01*
X87643612Y-64540844D01*
X87691231Y-64445606D01*
X87738850Y-64397987D01*
X87834088Y-64350368D01*
X87976945Y-64350368D01*
X88072183Y-64397987D01*
X88119802Y-64445606D01*
X88167421Y-64540844D01*
X88167421Y-64826558D01*
X88119802Y-64921796D01*
X88072183Y-64969415D01*
X87976945Y-65017034D01*
X87834088Y-65017034D01*
X88738850Y-65017034D02*
X88643612Y-64969415D01*
X88595993Y-64921796D01*
X88548374Y-64826558D01*
X88548374Y-64540844D01*
X88595993Y-64445606D01*
X88643612Y-64397987D01*
X88738850Y-64350368D01*
X88881707Y-64350368D01*
X88976945Y-64397987D01*
X89024564Y-64445606D01*
X89072183Y-64540844D01*
X89072183Y-64826558D01*
X89024564Y-64921796D01*
X88976945Y-64969415D01*
X88881707Y-65017034D01*
X88738850Y-65017034D01*
X89453135Y-64017034D02*
X89453135Y-64207511D01*
X89834088Y-64017034D02*
X89834088Y-64207511D01*
D12*
X75104761Y-44175000D02*
X74914285Y-44079761D01*
X74628571Y-44079761D01*
X74342857Y-44175000D01*
X74152380Y-44365476D01*
X74057142Y-44555952D01*
X73961904Y-44936904D01*
X73961904Y-45222619D01*
X74057142Y-45603571D01*
X74152380Y-45794047D01*
X74342857Y-45984523D01*
X74628571Y-46079761D01*
X74819047Y-46079761D01*
X75104761Y-45984523D01*
X75199999Y-45889285D01*
X75199999Y-45222619D01*
X74819047Y-45222619D01*
X76057142Y-46079761D02*
X76057142Y-44746428D01*
X76057142Y-45127380D02*
X76152380Y-44936904D01*
X76247619Y-44841666D01*
X76438095Y-44746428D01*
X76628571Y-44746428D01*
X78057142Y-45984523D02*
X77866666Y-46079761D01*
X77485714Y-46079761D01*
X77295238Y-45984523D01*
X77199999Y-45794047D01*
X77199999Y-45032142D01*
X77295238Y-44841666D01*
X77485714Y-44746428D01*
X77866666Y-44746428D01*
X78057142Y-44841666D01*
X78152380Y-45032142D01*
X78152380Y-45222619D01*
X77199999Y-45413095D01*
X79771428Y-45984523D02*
X79580952Y-46079761D01*
X79199999Y-46079761D01*
X79009523Y-45984523D01*
X78914285Y-45794047D01*
X78914285Y-45032142D01*
X79009523Y-44841666D01*
X79199999Y-44746428D01*
X79580952Y-44746428D01*
X79771428Y-44841666D01*
X79866666Y-45032142D01*
X79866666Y-45222619D01*
X78914285Y-45413095D01*
X80723809Y-44746428D02*
X80723809Y-46079761D01*
X80723809Y-44936904D02*
X80819047Y-44841666D01*
X81009523Y-44746428D01*
X81295238Y-44746428D01*
X81485714Y-44841666D01*
X81580952Y-45032142D01*
X81580952Y-46079761D01*
X82247619Y-44746428D02*
X83009523Y-44746428D01*
X82533333Y-46079761D02*
X82533333Y-44365476D01*
X82628571Y-44175000D01*
X82819047Y-44079761D01*
X83009523Y-44079761D01*
X84533333Y-46079761D02*
X84533333Y-45032142D01*
X84438095Y-44841666D01*
X84247619Y-44746428D01*
X83866666Y-44746428D01*
X83676190Y-44841666D01*
X84533333Y-45984523D02*
X84342857Y-46079761D01*
X83866666Y-46079761D01*
X83676190Y-45984523D01*
X83580952Y-45794047D01*
X83580952Y-45603571D01*
X83676190Y-45413095D01*
X83866666Y-45317857D01*
X84342857Y-45317857D01*
X84533333Y-45222619D01*
X86342857Y-45984523D02*
X86152380Y-46079761D01*
X85771428Y-46079761D01*
X85580952Y-45984523D01*
X85485714Y-45889285D01*
X85390476Y-45698809D01*
X85390476Y-45127380D01*
X85485714Y-44936904D01*
X85580952Y-44841666D01*
X85771428Y-44746428D01*
X86152380Y-44746428D01*
X86342857Y-44841666D01*
X87961904Y-45984523D02*
X87771428Y-46079761D01*
X87390476Y-46079761D01*
X87200000Y-45984523D01*
X87104761Y-45794047D01*
X87104761Y-45032142D01*
X87200000Y-44841666D01*
X87390476Y-44746428D01*
X87771428Y-44746428D01*
X87961904Y-44841666D01*
X88057142Y-45032142D01*
X88057142Y-45222619D01*
X87104761Y-45413095D01*
X91390476Y-46079761D02*
X90438095Y-46079761D01*
X90438095Y-44079761D01*
X92914285Y-46079761D02*
X92914285Y-45032142D01*
X92819047Y-44841666D01*
X92628571Y-44746428D01*
X92247619Y-44746428D01*
X92057142Y-44841666D01*
X92914285Y-45984523D02*
X92723809Y-46079761D01*
X92247619Y-46079761D01*
X92057142Y-45984523D01*
X91961904Y-45794047D01*
X91961904Y-45603571D01*
X92057142Y-45413095D01*
X92247619Y-45317857D01*
X92723809Y-45317857D01*
X92914285Y-45222619D01*
X93866666Y-46079761D02*
X93866666Y-44079761D01*
X93866666Y-44841666D02*
X94057142Y-44746428D01*
X94438095Y-44746428D01*
X94628571Y-44841666D01*
X94723809Y-44936904D01*
X94819047Y-45127380D01*
X94819047Y-45698809D01*
X94723809Y-45889285D01*
X94628571Y-45984523D01*
X94438095Y-46079761D01*
X94057142Y-46079761D01*
X93866666Y-45984523D01*
X95580952Y-45984523D02*
X95771428Y-46079761D01*
X96152380Y-46079761D01*
X96342857Y-45984523D01*
X96438095Y-45794047D01*
X96438095Y-45698809D01*
X96342857Y-45508333D01*
X96152380Y-45413095D01*
X95866666Y-45413095D01*
X95676190Y-45317857D01*
X95580952Y-45127380D01*
X95580952Y-45032142D01*
X95676190Y-44841666D01*
X95866666Y-44746428D01*
X96152380Y-44746428D01*
X96342857Y-44841666D01*
D13*
X76365729Y-49067857D02*
X76713943Y-49139285D01*
X76824062Y-49210714D01*
X76925252Y-49353571D01*
X76898467Y-49567857D01*
X76761562Y-49710714D01*
X76633586Y-49782142D01*
X76386562Y-49853571D01*
X75434181Y-49853571D01*
X75621681Y-48353571D01*
X76455014Y-48353571D01*
X76684181Y-48425000D01*
X76794300Y-48496428D01*
X76895491Y-48639285D01*
X76877633Y-48782142D01*
X76740729Y-48925000D01*
X76612752Y-48996428D01*
X76365729Y-49067857D01*
X75532395Y-49067857D01*
X78291324Y-49853571D02*
X78062157Y-49782142D01*
X77952038Y-49710714D01*
X77850848Y-49567857D01*
X77904419Y-49139285D01*
X78041324Y-48996428D01*
X78169300Y-48925000D01*
X78416324Y-48853571D01*
X78773467Y-48853571D01*
X79002633Y-48925000D01*
X79112752Y-48996428D01*
X79213943Y-49139285D01*
X79160372Y-49567857D01*
X79023467Y-49710714D01*
X78895491Y-49782142D01*
X78648467Y-49853571D01*
X78291324Y-49853571D01*
X80321086Y-48853571D02*
X80196086Y-49853571D01*
X80303229Y-48996428D02*
X80431205Y-48925000D01*
X80678229Y-48853571D01*
X81035372Y-48853571D01*
X81264538Y-48925000D01*
X81365729Y-49067857D01*
X81267514Y-49853571D01*
X82457991Y-49853571D02*
X82645491Y-48353571D01*
X82767514Y-49282142D02*
X83410372Y-49853571D01*
X83535372Y-48853571D02*
X82511562Y-49425000D01*
X84481800Y-49853571D02*
X84669300Y-48353571D01*
X85264538Y-48353571D01*
X85612752Y-48425000D01*
X85832991Y-48567857D01*
X85934181Y-48710714D01*
X86017514Y-48996428D01*
X85990729Y-49210714D01*
X85835967Y-49496428D01*
X85699062Y-49639285D01*
X85443110Y-49782142D01*
X85077038Y-49853571D01*
X84481800Y-49853571D01*
X88053229Y-49853571D02*
X88151443Y-49067857D01*
X88050252Y-48925000D01*
X87821086Y-48853571D01*
X87344895Y-48853571D01*
X87097872Y-48925000D01*
X88062157Y-49782142D02*
X87815133Y-49853571D01*
X87219895Y-49853571D01*
X86990729Y-49782142D01*
X86889538Y-49639285D01*
X86907395Y-49496428D01*
X87044300Y-49353571D01*
X87291324Y-49282142D01*
X87886562Y-49282142D01*
X88133586Y-49210714D01*
X90315133Y-49853571D02*
X90502633Y-48353571D01*
X90324062Y-49782142D02*
X90077038Y-49853571D01*
X89600848Y-49853571D01*
X89371681Y-49782142D01*
X89261562Y-49710714D01*
X89160372Y-49567857D01*
X89213943Y-49139285D01*
X89350848Y-48996428D01*
X89478824Y-48925000D01*
X89725848Y-48853571D01*
X90202038Y-48853571D01*
X90431205Y-48925000D01*
X92577038Y-49853571D02*
X92764538Y-48353571D01*
X92585967Y-49782142D02*
X92338943Y-49853571D01*
X91862752Y-49853571D01*
X91633586Y-49782142D01*
X91523467Y-49710714D01*
X91422276Y-49567857D01*
X91475848Y-49139285D01*
X91612752Y-48996428D01*
X91740729Y-48925000D01*
X91987752Y-48853571D01*
X92463943Y-48853571D01*
X92693110Y-48925000D01*
X93654419Y-48853571D02*
X94124657Y-49853571D01*
X94844895Y-48853571D02*
X94124657Y-49853571D01*
X93841919Y-50210714D01*
X93713943Y-50282142D01*
X93466919Y-50353571D01*
D11*
X80083333Y-79902380D02*
X79511904Y-79902380D01*
X79797619Y-79902380D02*
X79797619Y-78902380D01*
X79702380Y-79045238D01*
X79607142Y-79140476D01*
X79511904Y-79188095D01*
X80940476Y-79235714D02*
X80940476Y-79902380D01*
X80702380Y-78854761D02*
X80464285Y-79569047D01*
X81083333Y-79569047D01*
X82226190Y-79902380D02*
X82226190Y-78902380D01*
X82226190Y-79378571D02*
X82797619Y-79378571D01*
X82797619Y-79902380D02*
X82797619Y-78902380D01*
X83273809Y-79902380D02*
X83273809Y-78902380D01*
X83654761Y-78902380D01*
X83750000Y-78950000D01*
X83797619Y-78997619D01*
X83845238Y-79092857D01*
X83845238Y-79235714D01*
X83797619Y-79330952D01*
X83750000Y-79378571D01*
X83654761Y-79426190D01*
X83273809Y-79426190D01*
X85035714Y-79521428D02*
X85797619Y-79521428D01*
X86273809Y-79521428D02*
X87035714Y-79521428D01*
X88178571Y-79235714D02*
X88416666Y-79902380D01*
X88654761Y-79235714D01*
X89559523Y-79902380D02*
X88988095Y-79902380D01*
X89273809Y-79902380D02*
X89273809Y-78902380D01*
X89178571Y-79045238D01*
X89083333Y-79140476D01*
X88988095Y-79188095D01*
X89988095Y-79807142D02*
X90035714Y-79854761D01*
X89988095Y-79902380D01*
X89940476Y-79854761D01*
X89988095Y-79807142D01*
X89988095Y-79902380D01*
X90654761Y-78902380D02*
X90750000Y-78902380D01*
X90845238Y-78950000D01*
X90892857Y-78997619D01*
X90940476Y-79092857D01*
X90988095Y-79283333D01*
X90988095Y-79521428D01*
X90940476Y-79711904D01*
X90892857Y-79807142D01*
X90845238Y-79854761D01*
X90750000Y-79902380D01*
X90654761Y-79902380D01*
X90559523Y-79854761D01*
X90511904Y-79807142D01*
X90464285Y-79711904D01*
X90416666Y-79521428D01*
X90416666Y-79283333D01*
X90464285Y-79092857D01*
X90511904Y-78997619D01*
X90559523Y-78950000D01*
X90654761Y-78902380D01*
X104502380Y-69877380D02*
X105073809Y-69877380D01*
X104788095Y-70877380D02*
X104788095Y-69877380D01*
X105311904Y-69877380D02*
X105930952Y-69877380D01*
X105597619Y-70258333D01*
X105740476Y-70258333D01*
X105835714Y-70305952D01*
X105883333Y-70353571D01*
X105930952Y-70448809D01*
X105930952Y-70686904D01*
X105883333Y-70782142D01*
X105835714Y-70829761D01*
X105740476Y-70877380D01*
X105454761Y-70877380D01*
X105359523Y-70829761D01*
X105311904Y-70782142D01*
X107073809Y-69829761D02*
X106216666Y-71115476D01*
X107883333Y-70877380D02*
X107407142Y-70877380D01*
X107407142Y-69877380D01*
X108359523Y-70877380D02*
X108264285Y-70829761D01*
X108216666Y-70782142D01*
X108169047Y-70686904D01*
X108169047Y-70401190D01*
X108216666Y-70305952D01*
X108264285Y-70258333D01*
X108359523Y-70210714D01*
X108502380Y-70210714D01*
X108597619Y-70258333D01*
X108645238Y-70305952D01*
X108692857Y-70401190D01*
X108692857Y-70686904D01*
X108645238Y-70782142D01*
X108597619Y-70829761D01*
X108502380Y-70877380D01*
X108359523Y-70877380D01*
X109550000Y-70877380D02*
X109550000Y-70353571D01*
X109502380Y-70258333D01*
X109407142Y-70210714D01*
X109216666Y-70210714D01*
X109121428Y-70258333D01*
X109550000Y-70829761D02*
X109454761Y-70877380D01*
X109216666Y-70877380D01*
X109121428Y-70829761D01*
X109073809Y-70734523D01*
X109073809Y-70639285D01*
X109121428Y-70544047D01*
X109216666Y-70496428D01*
X109454761Y-70496428D01*
X109550000Y-70448809D01*
X110454761Y-70877380D02*
X110454761Y-69877380D01*
X110454761Y-70829761D02*
X110359523Y-70877380D01*
X110169047Y-70877380D01*
X110073809Y-70829761D01*
X110026190Y-70782142D01*
X109978571Y-70686904D01*
X109978571Y-70401190D01*
X110026190Y-70305952D01*
X110073809Y-70258333D01*
X110169047Y-70210714D01*
X110359523Y-70210714D01*
X110454761Y-70258333D01*
D14*
X61124380Y-61076490D02*
X61124380Y-60576490D01*
X61314857Y-60576490D01*
X61362476Y-60600300D01*
X61386285Y-60624109D01*
X61410095Y-60671728D01*
X61410095Y-60743157D01*
X61386285Y-60790776D01*
X61362476Y-60814585D01*
X61314857Y-60838395D01*
X61124380Y-60838395D01*
X61624380Y-61076490D02*
X61624380Y-60743157D01*
X61624380Y-60838395D02*
X61648190Y-60790776D01*
X61672000Y-60766966D01*
X61719619Y-60743157D01*
X61767238Y-60743157D01*
X62124380Y-61052680D02*
X62076761Y-61076490D01*
X61981523Y-61076490D01*
X61933904Y-61052680D01*
X61910095Y-61005061D01*
X61910095Y-60814585D01*
X61933904Y-60766966D01*
X61981523Y-60743157D01*
X62076761Y-60743157D01*
X62124380Y-60766966D01*
X62148190Y-60814585D01*
X62148190Y-60862204D01*
X61910095Y-60909823D01*
X62338666Y-61052680D02*
X62386285Y-61076490D01*
X62481523Y-61076490D01*
X62529142Y-61052680D01*
X62552952Y-61005061D01*
X62552952Y-60981252D01*
X62529142Y-60933633D01*
X62481523Y-60909823D01*
X62410095Y-60909823D01*
X62362476Y-60886014D01*
X62338666Y-60838395D01*
X62338666Y-60814585D01*
X62362476Y-60766966D01*
X62410095Y-60743157D01*
X62481523Y-60743157D01*
X62529142Y-60766966D01*
X62743428Y-61052680D02*
X62791047Y-61076490D01*
X62886285Y-61076490D01*
X62933904Y-61052680D01*
X62957714Y-61005061D01*
X62957714Y-60981252D01*
X62933904Y-60933633D01*
X62886285Y-60909823D01*
X62814857Y-60909823D01*
X62767238Y-60886014D01*
X62743428Y-60838395D01*
X62743428Y-60814585D01*
X62767238Y-60766966D01*
X62814857Y-60743157D01*
X62886285Y-60743157D01*
X62933904Y-60766966D01*
X63481523Y-60743157D02*
X63672000Y-60743157D01*
X63552952Y-60576490D02*
X63552952Y-61005061D01*
X63576761Y-61052680D01*
X63624380Y-61076490D01*
X63672000Y-61076490D01*
X63791047Y-60743157D02*
X63886285Y-61076490D01*
X63981523Y-60838395D01*
X64076761Y-61076490D01*
X64172000Y-60743157D01*
X64362476Y-61076490D02*
X64362476Y-60743157D01*
X64362476Y-60576490D02*
X64338666Y-60600300D01*
X64362476Y-60624109D01*
X64386285Y-60600300D01*
X64362476Y-60576490D01*
X64362476Y-60624109D01*
X64814857Y-61052680D02*
X64767238Y-61076490D01*
X64672000Y-61076490D01*
X64624380Y-61052680D01*
X64600571Y-61028871D01*
X64576761Y-60981252D01*
X64576761Y-60838395D01*
X64600571Y-60790776D01*
X64624380Y-60766966D01*
X64672000Y-60743157D01*
X64767238Y-60743157D01*
X64814857Y-60766966D01*
X65219619Y-61052680D02*
X65172000Y-61076490D01*
X65076761Y-61076490D01*
X65029142Y-61052680D01*
X65005333Y-61005061D01*
X65005333Y-60814585D01*
X65029142Y-60766966D01*
X65076761Y-60743157D01*
X65172000Y-60743157D01*
X65219619Y-60766966D01*
X65243428Y-60814585D01*
X65243428Y-60862204D01*
X65005333Y-60909823D01*
X60505333Y-61548157D02*
X60695809Y-61548157D01*
X60576761Y-61881490D02*
X60576761Y-61452919D01*
X60600571Y-61405300D01*
X60648190Y-61381490D01*
X60695809Y-61381490D01*
X60933904Y-61881490D02*
X60886285Y-61857680D01*
X60862476Y-61833871D01*
X60838666Y-61786252D01*
X60838666Y-61643395D01*
X60862476Y-61595776D01*
X60886285Y-61571966D01*
X60933904Y-61548157D01*
X61005333Y-61548157D01*
X61052952Y-61571966D01*
X61076761Y-61595776D01*
X61100571Y-61643395D01*
X61100571Y-61786252D01*
X61076761Y-61833871D01*
X61052952Y-61857680D01*
X61005333Y-61881490D01*
X60933904Y-61881490D01*
X61314857Y-61881490D02*
X61314857Y-61548157D01*
X61314857Y-61643395D02*
X61338666Y-61595776D01*
X61362476Y-61571966D01*
X61410095Y-61548157D01*
X61457714Y-61548157D01*
X62005333Y-61881490D02*
X62005333Y-61381490D01*
X62005333Y-61571966D02*
X62052952Y-61548157D01*
X62148190Y-61548157D01*
X62195809Y-61571966D01*
X62219619Y-61595776D01*
X62243428Y-61643395D01*
X62243428Y-61786252D01*
X62219619Y-61833871D01*
X62195809Y-61857680D01*
X62148190Y-61881490D01*
X62052952Y-61881490D01*
X62005333Y-61857680D01*
X62529142Y-61881490D02*
X62481523Y-61857680D01*
X62457714Y-61833871D01*
X62433904Y-61786252D01*
X62433904Y-61643395D01*
X62457714Y-61595776D01*
X62481523Y-61571966D01*
X62529142Y-61548157D01*
X62600571Y-61548157D01*
X62648190Y-61571966D01*
X62672000Y-61595776D01*
X62695809Y-61643395D01*
X62695809Y-61786252D01*
X62672000Y-61833871D01*
X62648190Y-61857680D01*
X62600571Y-61881490D01*
X62529142Y-61881490D01*
X62981523Y-61881490D02*
X62933904Y-61857680D01*
X62910095Y-61833871D01*
X62886285Y-61786252D01*
X62886285Y-61643395D01*
X62910095Y-61595776D01*
X62933904Y-61571966D01*
X62981523Y-61548157D01*
X63052952Y-61548157D01*
X63100571Y-61571966D01*
X63124380Y-61595776D01*
X63148190Y-61643395D01*
X63148190Y-61786252D01*
X63124380Y-61833871D01*
X63100571Y-61857680D01*
X63052952Y-61881490D01*
X62981523Y-61881490D01*
X63291047Y-61548157D02*
X63481523Y-61548157D01*
X63362476Y-61381490D02*
X63362476Y-61810061D01*
X63386285Y-61857680D01*
X63433904Y-61881490D01*
X63481523Y-61881490D01*
X63719619Y-61881490D02*
X63672000Y-61857680D01*
X63648190Y-61810061D01*
X63648190Y-61381490D01*
X63981523Y-61881490D02*
X63933904Y-61857680D01*
X63910095Y-61833871D01*
X63886285Y-61786252D01*
X63886285Y-61643395D01*
X63910095Y-61595776D01*
X63933904Y-61571966D01*
X63981523Y-61548157D01*
X64052952Y-61548157D01*
X64100571Y-61571966D01*
X64124380Y-61595776D01*
X64148190Y-61643395D01*
X64148190Y-61786252D01*
X64124380Y-61833871D01*
X64100571Y-61857680D01*
X64052952Y-61881490D01*
X63981523Y-61881490D01*
X64576761Y-61881490D02*
X64576761Y-61619585D01*
X64552952Y-61571966D01*
X64505333Y-61548157D01*
X64410095Y-61548157D01*
X64362476Y-61571966D01*
X64576761Y-61857680D02*
X64529142Y-61881490D01*
X64410095Y-61881490D01*
X64362476Y-61857680D01*
X64338666Y-61810061D01*
X64338666Y-61762442D01*
X64362476Y-61714823D01*
X64410095Y-61691014D01*
X64529142Y-61691014D01*
X64576761Y-61667204D01*
X65029142Y-61881490D02*
X65029142Y-61381490D01*
X65029142Y-61857680D02*
X64981523Y-61881490D01*
X64886285Y-61881490D01*
X64838666Y-61857680D01*
X64814857Y-61833871D01*
X64791047Y-61786252D01*
X64791047Y-61643395D01*
X64814857Y-61595776D01*
X64838666Y-61571966D01*
X64886285Y-61548157D01*
X64981523Y-61548157D01*
X65029142Y-61571966D01*
X65457714Y-61857680D02*
X65410095Y-61881490D01*
X65314857Y-61881490D01*
X65267238Y-61857680D01*
X65243428Y-61810061D01*
X65243428Y-61619585D01*
X65267238Y-61571966D01*
X65314857Y-61548157D01*
X65410095Y-61548157D01*
X65457714Y-61571966D01*
X65481523Y-61619585D01*
X65481523Y-61667204D01*
X65243428Y-61714823D01*
X65695809Y-61881490D02*
X65695809Y-61548157D01*
X65695809Y-61643395D02*
X65719619Y-61595776D01*
X65743428Y-61571966D01*
X65791047Y-61548157D01*
X65838666Y-61548157D01*
D12*
X102257142Y-55578571D02*
X102257142Y-56792857D01*
X102328571Y-56935714D01*
X102400000Y-57007142D01*
X102542857Y-57078571D01*
X102828571Y-57078571D01*
X102971428Y-57007142D01*
X103042857Y-56935714D01*
X103114285Y-56792857D01*
X103114285Y-55578571D01*
X103757142Y-57007142D02*
X103971428Y-57078571D01*
X104328571Y-57078571D01*
X104471428Y-57007142D01*
X104542857Y-56935714D01*
X104614285Y-56792857D01*
X104614285Y-56650000D01*
X104542857Y-56507142D01*
X104471428Y-56435714D01*
X104328571Y-56364285D01*
X104042857Y-56292857D01*
X103900000Y-56221428D01*
X103828571Y-56150000D01*
X103757142Y-56007142D01*
X103757142Y-55864285D01*
X103828571Y-55721428D01*
X103900000Y-55650000D01*
X104042857Y-55578571D01*
X104400000Y-55578571D01*
X104614285Y-55650000D01*
X105757142Y-56292857D02*
X105971428Y-56364285D01*
X106042857Y-56435714D01*
X106114285Y-56578571D01*
X106114285Y-56792857D01*
X106042857Y-56935714D01*
X105971428Y-57007142D01*
X105828571Y-57078571D01*
X105257142Y-57078571D01*
X105257142Y-55578571D01*
X105757142Y-55578571D01*
X105900000Y-55650000D01*
X105971428Y-55721428D01*
X106042857Y-55864285D01*
X106042857Y-56007142D01*
X105971428Y-56150000D01*
X105900000Y-56221428D01*
X105757142Y-56292857D01*
X105257142Y-56292857D01*
D11*
X92018095Y-69702380D02*
X92589523Y-69702380D01*
X92303809Y-70702380D02*
X92303809Y-69702380D01*
X92875238Y-69797619D02*
X92922857Y-69750000D01*
X93018095Y-69702380D01*
X93256190Y-69702380D01*
X93351428Y-69750000D01*
X93399047Y-69797619D01*
X93446666Y-69892857D01*
X93446666Y-69988095D01*
X93399047Y-70130952D01*
X92827619Y-70702380D01*
X93446666Y-70702380D01*
%TO.C,H1*%
X61538095Y-45427380D02*
X61538095Y-44427380D01*
X61538095Y-44903571D02*
X62109523Y-44903571D01*
X62109523Y-45427380D02*
X62109523Y-44427380D01*
X63109523Y-45427380D02*
X62538095Y-45427380D01*
X62823809Y-45427380D02*
X62823809Y-44427380D01*
X62728571Y-44570238D01*
X62633333Y-44665476D01*
X62538095Y-44713095D01*
%TO.C,H2*%
X107558095Y-45827380D02*
X107558095Y-44827380D01*
X107558095Y-45303571D02*
X108129523Y-45303571D01*
X108129523Y-45827380D02*
X108129523Y-44827380D01*
X108558095Y-44922619D02*
X108605714Y-44875000D01*
X108700952Y-44827380D01*
X108939047Y-44827380D01*
X109034285Y-44875000D01*
X109081904Y-44922619D01*
X109129523Y-45017857D01*
X109129523Y-45113095D01*
X109081904Y-45255952D01*
X108510476Y-45827380D01*
X109129523Y-45827380D01*
%TO.C,H3*%
X107458095Y-79477380D02*
X107458095Y-78477380D01*
X107458095Y-78953571D02*
X108029523Y-78953571D01*
X108029523Y-79477380D02*
X108029523Y-78477380D01*
X108410476Y-78477380D02*
X109029523Y-78477380D01*
X108696190Y-78858333D01*
X108839047Y-78858333D01*
X108934285Y-78905952D01*
X108981904Y-78953571D01*
X109029523Y-79048809D01*
X109029523Y-79286904D01*
X108981904Y-79382142D01*
X108934285Y-79429761D01*
X108839047Y-79477380D01*
X108553333Y-79477380D01*
X108458095Y-79429761D01*
X108410476Y-79382142D01*
%TO.C,H4*%
X61838095Y-79177380D02*
X61838095Y-78177380D01*
X61838095Y-78653571D02*
X62409523Y-78653571D01*
X62409523Y-79177380D02*
X62409523Y-78177380D01*
X63314285Y-78510714D02*
X63314285Y-79177380D01*
X63076190Y-78129761D02*
X62838095Y-78844047D01*
X63457142Y-78844047D01*
D15*
%TO.C,GR1*%
X85345850Y-50448564D02*
X85385001Y-50468964D01*
X85385001Y-50468964D02*
X85406324Y-50488324D01*
X85406324Y-50488324D02*
X85449317Y-50563678D01*
X85449317Y-50563678D02*
X85458749Y-50656627D01*
X85458749Y-50656627D02*
X85433324Y-50745532D01*
X85433324Y-50745532D02*
X85422739Y-50762664D01*
X85422739Y-50762664D02*
X85380233Y-50798884D01*
X85380233Y-50798884D02*
X85304547Y-50826833D01*
X85304547Y-50826833D02*
X85213189Y-50845904D01*
X85213189Y-50845904D02*
X84940894Y-50907631D01*
X84940894Y-50907631D02*
X84712148Y-50992619D01*
X84712148Y-50992619D02*
X84524659Y-51102237D01*
X84524659Y-51102237D02*
X84376135Y-51237854D01*
X84376135Y-51237854D02*
X84264284Y-51400839D01*
X84264284Y-51400839D02*
X84255442Y-51417875D01*
X84255442Y-51417875D02*
X84196481Y-51578373D01*
X84196481Y-51578373D02*
X84163247Y-51769234D01*
X84163247Y-51769234D02*
X84158103Y-51975712D01*
X84158103Y-51975712D02*
X84160249Y-52012105D01*
X84160249Y-52012105D02*
X84167032Y-52080482D01*
X84167032Y-52080482D02*
X84181687Y-52110079D01*
X84181687Y-52110079D02*
X84215423Y-52112808D01*
X84215423Y-52112808D02*
X84249149Y-52106571D01*
X84249149Y-52106571D02*
X84522553Y-52061310D01*
X84522553Y-52061310D02*
X84823536Y-52028690D01*
X84823536Y-52028690D02*
X85137109Y-52009290D01*
X85137109Y-52009290D02*
X85448283Y-52003688D01*
X85448283Y-52003688D02*
X85742068Y-52012462D01*
X85742068Y-52012462D02*
X86003475Y-52036190D01*
X86003475Y-52036190D02*
X86019200Y-52038293D01*
X86019200Y-52038293D02*
X86433307Y-52111996D01*
X86433307Y-52111996D02*
X86846922Y-52218091D01*
X86846922Y-52218091D02*
X87243559Y-52351812D01*
X87243559Y-52351812D02*
X87548187Y-52480422D01*
X87548187Y-52480422D02*
X87661255Y-52531816D01*
X87661255Y-52531816D02*
X87737623Y-52562126D01*
X87737623Y-52562126D02*
X87785615Y-52573792D01*
X87785615Y-52573792D02*
X87813556Y-52569256D01*
X87813556Y-52569256D02*
X87823139Y-52561049D01*
X87823139Y-52561049D02*
X87860235Y-52533225D01*
X87860235Y-52533225D02*
X87932900Y-52490997D01*
X87932900Y-52490997D02*
X88029973Y-52439877D01*
X88029973Y-52439877D02*
X88140290Y-52385378D01*
X88140290Y-52385378D02*
X88252689Y-52333013D01*
X88252689Y-52333013D02*
X88356006Y-52288293D01*
X88356006Y-52288293D02*
X88439079Y-52256731D01*
X88439079Y-52256731D02*
X88440011Y-52256420D01*
X88440011Y-52256420D02*
X88581431Y-52216478D01*
X88581431Y-52216478D02*
X88743025Y-52181921D01*
X88743025Y-52181921D02*
X88904341Y-52156376D01*
X88904341Y-52156376D02*
X89044925Y-52143469D01*
X89044925Y-52143469D02*
X89082134Y-52142600D01*
X89082134Y-52142600D02*
X89178700Y-52148870D01*
X89178700Y-52148870D02*
X89241529Y-52170503D01*
X89241529Y-52170503D02*
X89269753Y-52192753D01*
X89269753Y-52192753D02*
X89327333Y-52277761D01*
X89327333Y-52277761D02*
X89337044Y-52365665D01*
X89337044Y-52365665D02*
X89302873Y-52443051D01*
X89302873Y-52443051D02*
X89271726Y-52478373D01*
X89271726Y-52478373D02*
X89232807Y-52504806D01*
X89232807Y-52504806D02*
X89176578Y-52525367D01*
X89176578Y-52525367D02*
X89093498Y-52543075D01*
X89093498Y-52543075D02*
X88974027Y-52560949D01*
X88974027Y-52560949D02*
X88899621Y-52570643D01*
X88899621Y-52570643D02*
X88748678Y-52597255D01*
X88748678Y-52597255D02*
X88589148Y-52637835D01*
X88589148Y-52637835D02*
X88437307Y-52687301D01*
X88437307Y-52687301D02*
X88309428Y-52740572D01*
X88309428Y-52740572D02*
X88247936Y-52774150D01*
X88247936Y-52774150D02*
X88171948Y-52822262D01*
X88171948Y-52822262D02*
X88333824Y-52931123D01*
X88333824Y-52931123D02*
X88434514Y-53001502D01*
X88434514Y-53001502D02*
X88538018Y-53078065D01*
X88538018Y-53078065D02*
X88615543Y-53139082D01*
X88615543Y-53139082D02*
X88735386Y-53238179D01*
X88735386Y-53238179D02*
X88883510Y-53151366D01*
X88883510Y-53151366D02*
X89188945Y-52999422D01*
X89188945Y-52999422D02*
X89503730Y-52896841D01*
X89503730Y-52896841D02*
X89831601Y-52842496D01*
X89831601Y-52842496D02*
X89931117Y-52835526D01*
X89931117Y-52835526D02*
X90138026Y-52834131D01*
X90138026Y-52834131D02*
X90316959Y-52855032D01*
X90316959Y-52855032D02*
X90487336Y-52902256D01*
X90487336Y-52902256D02*
X90668583Y-52979827D01*
X90668583Y-52979827D02*
X90698332Y-52994542D01*
X90698332Y-52994542D02*
X90952974Y-53150332D01*
X90952974Y-53150332D02*
X91181860Y-53347485D01*
X91181860Y-53347485D02*
X91381889Y-53581896D01*
X91381889Y-53581896D02*
X91549958Y-53849457D01*
X91549958Y-53849457D02*
X91682967Y-54146063D01*
X91682967Y-54146063D02*
X91762473Y-54403200D01*
X91762473Y-54403200D02*
X91785747Y-54540557D01*
X91785747Y-54540557D02*
X91797734Y-54711117D01*
X91797734Y-54711117D02*
X91798801Y-54898637D01*
X91798801Y-54898637D02*
X91789315Y-55086874D01*
X91789315Y-55086874D02*
X91769643Y-55259586D01*
X91769643Y-55259586D02*
X91740153Y-55400529D01*
X91740153Y-55400529D02*
X91739903Y-55401399D01*
X91739903Y-55401399D02*
X91628820Y-55704369D01*
X91628820Y-55704369D02*
X91476870Y-55979967D01*
X91476870Y-55979967D02*
X91281158Y-56232866D01*
X91281158Y-56232866D02*
X91129239Y-56387169D01*
X91129239Y-56387169D02*
X91038278Y-56474002D01*
X91038278Y-56474002D02*
X90980679Y-56535366D01*
X90980679Y-56535366D02*
X90950935Y-56578505D01*
X90950935Y-56578505D02*
X90943539Y-56610660D01*
X90943539Y-56610660D02*
X90947142Y-56626661D01*
X90947142Y-56626661D02*
X90959526Y-56670666D01*
X90959526Y-56670666D02*
X90979149Y-56752993D01*
X90979149Y-56752993D02*
X91003381Y-56862130D01*
X91003381Y-56862130D02*
X91029591Y-56986566D01*
X91029591Y-56986566D02*
X91031311Y-56994961D01*
X91031311Y-56994961D02*
X91113796Y-57512692D01*
X91113796Y-57512692D02*
X91146906Y-58019029D01*
X91146906Y-58019029D02*
X91130496Y-58515106D01*
X91130496Y-58515106D02*
X91064422Y-59002057D01*
X91064422Y-59002057D02*
X90948539Y-59481017D01*
X90948539Y-59481017D02*
X90782703Y-59953121D01*
X90782703Y-59953121D02*
X90604533Y-60345537D01*
X90604533Y-60345537D02*
X90367943Y-60761478D01*
X90367943Y-60761478D02*
X90086808Y-61156850D01*
X90086808Y-61156850D02*
X89764080Y-61529100D01*
X89764080Y-61529100D02*
X89402715Y-61875672D01*
X89402715Y-61875672D02*
X89005665Y-62194012D01*
X89005665Y-62194012D02*
X88575884Y-62481565D01*
X88575884Y-62481565D02*
X88116325Y-62735776D01*
X88116325Y-62735776D02*
X87629942Y-62954091D01*
X87629942Y-62954091D02*
X87554417Y-62983753D01*
X87554417Y-62983753D02*
X87271666Y-63088667D01*
X87271666Y-63088667D02*
X87016142Y-63173655D01*
X87016142Y-63173655D02*
X86770674Y-63243484D01*
X86770674Y-63243484D02*
X86518093Y-63302919D01*
X86518093Y-63302919D02*
X86241230Y-63356726D01*
X86241230Y-63356726D02*
X86158900Y-63371110D01*
X86158900Y-63371110D02*
X85973891Y-63396104D01*
X85973891Y-63396104D02*
X85751772Y-63415402D01*
X85751772Y-63415402D02*
X85505949Y-63428694D01*
X85505949Y-63428694D02*
X85249826Y-63435672D01*
X85249826Y-63435672D02*
X84996807Y-63436025D01*
X84996807Y-63436025D02*
X84760296Y-63429445D01*
X84760296Y-63429445D02*
X84553698Y-63415621D01*
X84553698Y-63415621D02*
X84495200Y-63409514D01*
X84495200Y-63409514D02*
X83979515Y-63325653D01*
X83979515Y-63325653D02*
X83475514Y-63196061D01*
X83475514Y-63196061D02*
X82990359Y-63022843D01*
X82990359Y-63022843D02*
X82642742Y-62865352D01*
X82642742Y-62865352D02*
X82234169Y-62640455D01*
X82234169Y-62640455D02*
X81855376Y-62385972D01*
X81855376Y-62385972D02*
X81498969Y-62096090D01*
X81498969Y-62096090D02*
X81157556Y-61764998D01*
X81157556Y-61764998D02*
X80944965Y-61530473D01*
X80944965Y-61530473D02*
X80885862Y-61464336D01*
X80885862Y-61464336D02*
X80848328Y-61431715D01*
X80848328Y-61431715D02*
X80821735Y-61426831D01*
X80821735Y-61426831D02*
X80795456Y-61443907D01*
X80795456Y-61443907D02*
X80791779Y-61447193D01*
X80791779Y-61447193D02*
X80732669Y-61487383D01*
X80732669Y-61487383D02*
X80637617Y-61537370D01*
X80637617Y-61537370D02*
X80519126Y-61591661D01*
X80519126Y-61591661D02*
X80389699Y-61644761D01*
X80389699Y-61644761D02*
X80261837Y-61691177D01*
X80261837Y-61691177D02*
X80175491Y-61718016D01*
X80175491Y-61718016D02*
X80011583Y-61753868D01*
X80011583Y-61753868D02*
X79824769Y-61778181D01*
X79824769Y-61778181D02*
X79632953Y-61789850D01*
X79632953Y-61789850D02*
X79454040Y-61787771D01*
X79454040Y-61787771D02*
X79309311Y-61771486D01*
X79309311Y-61771486D02*
X79030451Y-61697378D01*
X79030451Y-61697378D02*
X78779123Y-61584490D01*
X78779123Y-61584490D02*
X78548460Y-61428989D01*
X78548460Y-61428989D02*
X78331596Y-61227038D01*
X78331596Y-61227038D02*
X78328554Y-61223787D01*
X78328554Y-61223787D02*
X78156578Y-61012371D01*
X78156578Y-61012371D02*
X78031057Y-60793861D01*
X78031057Y-60793861D02*
X77947659Y-60560158D01*
X77947659Y-60560158D02*
X77928004Y-60475181D01*
X77928004Y-60475181D02*
X77897948Y-60204304D01*
X77897948Y-60204304D02*
X77905630Y-60102158D01*
X77905630Y-60102158D02*
X78306157Y-60102158D01*
X78306157Y-60102158D02*
X78307672Y-60311774D01*
X78307672Y-60311774D02*
X78352327Y-60521547D01*
X78352327Y-60521547D02*
X78443235Y-60726303D01*
X78443235Y-60726303D02*
X78454460Y-60745422D01*
X78454460Y-60745422D02*
X78570192Y-60901686D01*
X78570192Y-60901686D02*
X78720125Y-61049666D01*
X78720125Y-61049666D02*
X78891815Y-61180207D01*
X78891815Y-61180207D02*
X79072816Y-61284153D01*
X79072816Y-61284153D02*
X79250684Y-61352350D01*
X79250684Y-61352350D02*
X79293719Y-61362850D01*
X79293719Y-61362850D02*
X79424176Y-61378945D01*
X79424176Y-61378945D02*
X79585569Y-61381757D01*
X79585569Y-61381757D02*
X79760149Y-61372516D01*
X79760149Y-61372516D02*
X79930169Y-61352449D01*
X79930169Y-61352449D02*
X80077881Y-61322787D01*
X80077881Y-61322787D02*
X80139100Y-61304293D01*
X80139100Y-61304293D02*
X80318763Y-61237500D01*
X80318763Y-61237500D02*
X80453275Y-61180423D01*
X80453275Y-61180423D02*
X80541080Y-61133770D01*
X80541080Y-61133770D02*
X80575474Y-61105891D01*
X80575474Y-61105891D02*
X80585154Y-61077317D01*
X80585154Y-61077317D02*
X80573263Y-61031942D01*
X80573263Y-61031942D02*
X80536435Y-60960357D01*
X80536435Y-60960357D02*
X80503822Y-60905570D01*
X80503822Y-60905570D02*
X80444278Y-60803943D01*
X80444278Y-60803943D02*
X80374906Y-60679237D01*
X80374906Y-60679237D02*
X80308180Y-60554017D01*
X80308180Y-60554017D02*
X80290613Y-60519863D01*
X80290613Y-60519863D02*
X80238400Y-60418783D01*
X80238400Y-60418783D02*
X80201893Y-60355596D01*
X80201893Y-60355596D02*
X80174152Y-60322721D01*
X80174152Y-60322721D02*
X80148235Y-60312579D01*
X80148235Y-60312579D02*
X80117205Y-60317588D01*
X80117205Y-60317588D02*
X80107905Y-60320298D01*
X80107905Y-60320298D02*
X79987737Y-60362048D01*
X79987737Y-60362048D02*
X79903059Y-60406710D01*
X79903059Y-60406710D02*
X79855334Y-60445101D01*
X79855334Y-60445101D02*
X79796456Y-60519990D01*
X79796456Y-60519990D02*
X79782691Y-60597335D01*
X79782691Y-60597335D02*
X79812294Y-60689781D01*
X79812294Y-60689781D02*
X79819565Y-60704199D01*
X79819565Y-60704199D02*
X79865074Y-60821657D01*
X79865074Y-60821657D02*
X79867166Y-60915258D01*
X79867166Y-60915258D02*
X79825889Y-60983812D01*
X79825889Y-60983812D02*
X79807859Y-60997517D01*
X79807859Y-60997517D02*
X79735305Y-61023531D01*
X79735305Y-61023531D02*
X79666879Y-61002073D01*
X79666879Y-61002073D02*
X79600488Y-60931931D01*
X79600488Y-60931931D02*
X79552211Y-60849494D01*
X79552211Y-60849494D02*
X79494576Y-60687172D01*
X79494576Y-60687172D02*
X79486318Y-60530171D01*
X79486318Y-60530171D02*
X79526131Y-60383480D01*
X79526131Y-60383480D02*
X79612705Y-60252088D01*
X79612705Y-60252088D02*
X79736511Y-60146353D01*
X79736511Y-60146353D02*
X79805068Y-60103060D01*
X79805068Y-60103060D02*
X79856608Y-60074382D01*
X79856608Y-60074382D02*
X79875101Y-60067400D01*
X79875101Y-60067400D02*
X79910915Y-60059139D01*
X79910915Y-60059139D02*
X79963571Y-60041136D01*
X79963571Y-60041136D02*
X80032649Y-60014872D01*
X80032649Y-60014872D02*
X79958874Y-59936408D01*
X79958874Y-59936408D02*
X79858619Y-59853554D01*
X79858619Y-59853554D02*
X79741226Y-59805782D01*
X79741226Y-59805782D02*
X79594071Y-59788305D01*
X79594071Y-59788305D02*
X79567571Y-59788000D01*
X79567571Y-59788000D02*
X79389948Y-59811561D01*
X79389948Y-59811561D02*
X79233292Y-59879993D01*
X79233292Y-59879993D02*
X79102675Y-59989917D01*
X79102675Y-59989917D02*
X79003168Y-60137955D01*
X79003168Y-60137955D02*
X78985864Y-60175515D01*
X78985864Y-60175515D02*
X78927730Y-60277336D01*
X78927730Y-60277336D02*
X78861771Y-60330207D01*
X78861771Y-60330207D02*
X78789091Y-60333509D01*
X78789091Y-60333509D02*
X78743140Y-60311717D01*
X78743140Y-60311717D02*
X78692932Y-60251974D01*
X78692932Y-60251974D02*
X78679955Y-60169112D01*
X78679955Y-60169112D02*
X78700329Y-60069849D01*
X78700329Y-60069849D02*
X78750172Y-59960906D01*
X78750172Y-59960906D02*
X78825604Y-59849003D01*
X78825604Y-59849003D02*
X78922744Y-59740859D01*
X78922744Y-59740859D02*
X79037711Y-59643194D01*
X79037711Y-59643194D02*
X79166624Y-59562727D01*
X79166624Y-59562727D02*
X79179487Y-59556205D01*
X79179487Y-59556205D02*
X79239572Y-59529311D01*
X79239572Y-59529311D02*
X79298926Y-59511743D01*
X79298926Y-59511743D02*
X79370642Y-59501592D01*
X79370642Y-59501592D02*
X79467813Y-59496949D01*
X79467813Y-59496949D02*
X79593000Y-59495900D01*
X79593000Y-59495900D02*
X79885100Y-59495900D01*
X79885100Y-59495900D02*
X79834300Y-59287865D01*
X79834300Y-59287865D02*
X79809120Y-59188525D01*
X79809120Y-59188525D02*
X79784473Y-59121939D01*
X79784473Y-59121939D02*
X79750324Y-59081538D01*
X79750324Y-59081538D02*
X79696634Y-59060756D01*
X79696634Y-59060756D02*
X79613370Y-59053023D01*
X79613370Y-59053023D02*
X79490494Y-59051771D01*
X79490494Y-59051771D02*
X79473505Y-59051746D01*
X79473505Y-59051746D02*
X79241971Y-59073846D01*
X79241971Y-59073846D02*
X79028672Y-59137495D01*
X79028672Y-59137495D02*
X78836722Y-59237517D01*
X78836722Y-59237517D02*
X78669233Y-59368740D01*
X78669233Y-59368740D02*
X78529319Y-59525990D01*
X78529319Y-59525990D02*
X78420093Y-59704092D01*
X78420093Y-59704092D02*
X78344668Y-59897872D01*
X78344668Y-59897872D02*
X78306157Y-60102158D01*
X78306157Y-60102158D02*
X77905630Y-60102158D01*
X77905630Y-60102158D02*
X77917872Y-59939386D01*
X77917872Y-59939386D02*
X77987088Y-59682713D01*
X77987088Y-59682713D02*
X78104910Y-59436566D01*
X78104910Y-59436566D02*
X78270649Y-59203231D01*
X78270649Y-59203231D02*
X78331591Y-59133921D01*
X78331591Y-59133921D02*
X78497746Y-58983311D01*
X78497746Y-58983311D02*
X78694541Y-58853518D01*
X78694541Y-58853518D02*
X78798005Y-58803820D01*
X78798005Y-58803820D02*
X80141092Y-58803820D01*
X80141092Y-58803820D02*
X80150413Y-58876355D01*
X80150413Y-58876355D02*
X80170831Y-58981122D01*
X80170831Y-58981122D02*
X80200540Y-59109925D01*
X80200540Y-59109925D02*
X80237736Y-59254566D01*
X80237736Y-59254566D02*
X80280612Y-59406851D01*
X80280612Y-59406851D02*
X80295826Y-59457800D01*
X80295826Y-59457800D02*
X80468719Y-59944846D01*
X80468719Y-59944846D02*
X80682318Y-60402816D01*
X80682318Y-60402816D02*
X80934689Y-60830058D01*
X80934689Y-60830058D02*
X81223898Y-61224920D01*
X81223898Y-61224920D02*
X81548008Y-61585752D01*
X81548008Y-61585752D02*
X81905085Y-61910902D01*
X81905085Y-61910902D02*
X82293193Y-62198719D01*
X82293193Y-62198719D02*
X82710399Y-62447552D01*
X82710399Y-62447552D02*
X83154766Y-62655750D01*
X83154766Y-62655750D02*
X83624360Y-62821660D01*
X83624360Y-62821660D02*
X84117245Y-62943633D01*
X84117245Y-62943633D02*
X84444400Y-62997926D01*
X84444400Y-62997926D02*
X84626667Y-63016391D01*
X84626667Y-63016391D02*
X84844447Y-63028631D01*
X84844447Y-63028631D02*
X85082827Y-63034600D01*
X85082827Y-63034600D02*
X85326898Y-63034255D01*
X85326898Y-63034255D02*
X85561748Y-63027554D01*
X85561748Y-63027554D02*
X85772467Y-63014453D01*
X85772467Y-63014453D02*
X85892200Y-63002139D01*
X85892200Y-63002139D02*
X86426788Y-62911194D01*
X86426788Y-62911194D02*
X86948538Y-62775094D01*
X86948538Y-62775094D02*
X87453390Y-62595775D01*
X87453390Y-62595775D02*
X87937288Y-62375176D01*
X87937288Y-62375176D02*
X88396172Y-62115234D01*
X88396172Y-62115234D02*
X88825985Y-61817886D01*
X88825985Y-61817886D02*
X89222669Y-61485072D01*
X89222669Y-61485072D02*
X89374039Y-61339569D01*
X89374039Y-61339569D02*
X89692438Y-60992943D01*
X89692438Y-60992943D02*
X89964887Y-60634354D01*
X89964887Y-60634354D02*
X90196017Y-60256526D01*
X90196017Y-60256526D02*
X90390462Y-59852182D01*
X90390462Y-59852182D02*
X90499228Y-59572100D01*
X90499228Y-59572100D02*
X90614464Y-59180546D01*
X90614464Y-59180546D02*
X90692693Y-58762781D01*
X90692693Y-58762781D02*
X90733491Y-58327837D01*
X90733491Y-58327837D02*
X90736436Y-57884750D01*
X90736436Y-57884750D02*
X90701104Y-57442553D01*
X90701104Y-57442553D02*
X90627072Y-57010280D01*
X90627072Y-57010280D02*
X90620583Y-56981300D01*
X90620583Y-56981300D02*
X90599045Y-56887220D01*
X90599045Y-56887220D02*
X90578905Y-56826288D01*
X90578905Y-56826288D02*
X90550466Y-56794494D01*
X90550466Y-56794494D02*
X90504032Y-56787828D01*
X90504032Y-56787828D02*
X90429905Y-56802280D01*
X90429905Y-56802280D02*
X90318388Y-56833840D01*
X90318388Y-56833840D02*
X90286400Y-56843106D01*
X90286400Y-56843106D02*
X90175890Y-56870367D01*
X90175890Y-56870367D02*
X90060763Y-56887867D01*
X90060763Y-56887867D02*
X89924973Y-56897424D01*
X89924973Y-56897424D02*
X89778400Y-56900686D01*
X89778400Y-56900686D02*
X89645334Y-56900839D01*
X89645334Y-56900839D02*
X89540642Y-56897262D01*
X89540642Y-56897262D02*
X89448862Y-56887695D01*
X89448862Y-56887695D02*
X89354533Y-56869881D01*
X89354533Y-56869881D02*
X89242194Y-56841561D01*
X89242194Y-56841561D02*
X89100578Y-56801682D01*
X89100578Y-56801682D02*
X89089761Y-56806965D01*
X89089761Y-56806965D02*
X89098074Y-56836332D01*
X89098074Y-56836332D02*
X89127400Y-56893036D01*
X89127400Y-56893036D02*
X89179624Y-56980327D01*
X89179624Y-56980327D02*
X89256629Y-57101455D01*
X89256629Y-57101455D02*
X89360300Y-57259672D01*
X89360300Y-57259672D02*
X89405628Y-57328013D01*
X89405628Y-57328013D02*
X89579958Y-57595810D01*
X89579958Y-57595810D02*
X89729148Y-57836736D01*
X89729148Y-57836736D02*
X89852003Y-58048563D01*
X89852003Y-58048563D02*
X89947323Y-58229065D01*
X89947323Y-58229065D02*
X90013913Y-58376016D01*
X90013913Y-58376016D02*
X90050575Y-58487189D01*
X90050575Y-58487189D02*
X90057800Y-58540918D01*
X90057800Y-58540918D02*
X90033012Y-58641460D01*
X90033012Y-58641460D02*
X89959536Y-58732699D01*
X89959536Y-58732699D02*
X89838702Y-58814209D01*
X89838702Y-58814209D02*
X89671838Y-58885565D01*
X89671838Y-58885565D02*
X89460275Y-58946341D01*
X89460275Y-58946341D02*
X89205343Y-58996114D01*
X89205343Y-58996114D02*
X88908371Y-59034457D01*
X88908371Y-59034457D02*
X88570690Y-59060946D01*
X88570690Y-59060946D02*
X88406800Y-59068845D01*
X88406800Y-59068845D02*
X88261625Y-59074119D01*
X88261625Y-59074119D02*
X88158096Y-59076019D01*
X88158096Y-59076019D02*
X88087126Y-59073778D01*
X88087126Y-59073778D02*
X88039625Y-59066631D01*
X88039625Y-59066631D02*
X88006507Y-59053814D01*
X88006507Y-59053814D02*
X87978685Y-59034562D01*
X87978685Y-59034562D02*
X87976269Y-59032602D01*
X87976269Y-59032602D02*
X87926757Y-58962523D01*
X87926757Y-58962523D02*
X87912715Y-58874625D01*
X87912715Y-58874625D02*
X87934771Y-58788061D01*
X87934771Y-58788061D02*
X87966784Y-58743527D01*
X87966784Y-58743527D02*
X87992005Y-58723117D01*
X87992005Y-58723117D02*
X88026506Y-58707667D01*
X88026506Y-58707667D02*
X88078592Y-58695801D01*
X88078592Y-58695801D02*
X88156564Y-58686145D01*
X88156564Y-58686145D02*
X88268725Y-58677321D01*
X88268725Y-58677321D02*
X88422714Y-58667993D01*
X88422714Y-58667993D02*
X88650851Y-58652267D01*
X88650851Y-58652267D02*
X88869215Y-58631858D01*
X88869215Y-58631858D02*
X89071820Y-58607743D01*
X89071820Y-58607743D02*
X89252684Y-58580897D01*
X89252684Y-58580897D02*
X89405821Y-58552297D01*
X89405821Y-58552297D02*
X89525249Y-58522919D01*
X89525249Y-58522919D02*
X89604983Y-58493740D01*
X89604983Y-58493740D02*
X89637067Y-58469841D01*
X89637067Y-58469841D02*
X89631247Y-58434947D01*
X89631247Y-58434947D02*
X89596230Y-58361485D01*
X89596230Y-58361485D02*
X89533372Y-58251470D01*
X89533372Y-58251470D02*
X89444034Y-58106916D01*
X89444034Y-58106916D02*
X89329573Y-57929837D01*
X89329573Y-57929837D02*
X89191348Y-57722248D01*
X89191348Y-57722248D02*
X89030717Y-57486163D01*
X89030717Y-57486163D02*
X88849040Y-57223597D01*
X88849040Y-57223597D02*
X88647674Y-56936565D01*
X88647674Y-56936565D02*
X88427978Y-56627080D01*
X88427978Y-56627080D02*
X88191311Y-56297157D01*
X88191311Y-56297157D02*
X87939031Y-55948811D01*
X87939031Y-55948811D02*
X87909462Y-55908186D01*
X87909462Y-55908186D02*
X87822495Y-55789252D01*
X87822495Y-55789252D02*
X87758935Y-55705303D01*
X87758935Y-55705303D02*
X87712305Y-55650243D01*
X87712305Y-55650243D02*
X87676127Y-55617980D01*
X87676127Y-55617980D02*
X87643922Y-55602417D01*
X87643922Y-55602417D02*
X87609215Y-55597460D01*
X87609215Y-55597460D02*
X87578760Y-55597036D01*
X87578760Y-55597036D02*
X87461138Y-55621118D01*
X87461138Y-55621118D02*
X87345535Y-55688980D01*
X87345535Y-55688980D02*
X87239683Y-55793927D01*
X87239683Y-55793927D02*
X87151314Y-55929260D01*
X87151314Y-55929260D02*
X87121436Y-55993157D01*
X87121436Y-55993157D02*
X87104691Y-56036638D01*
X87104691Y-56036638D02*
X87098133Y-56074115D01*
X87098133Y-56074115D02*
X87104256Y-56116967D01*
X87104256Y-56116967D02*
X87125555Y-56176571D01*
X87125555Y-56176571D02*
X87164526Y-56264305D01*
X87164526Y-56264305D02*
X87195566Y-56331180D01*
X87195566Y-56331180D02*
X87321246Y-56657084D01*
X87321246Y-56657084D02*
X87398317Y-56987141D01*
X87398317Y-56987141D02*
X87427492Y-57317303D01*
X87427492Y-57317303D02*
X87409488Y-57643524D01*
X87409488Y-57643524D02*
X87345016Y-57961755D01*
X87345016Y-57961755D02*
X87234792Y-58267950D01*
X87234792Y-58267950D02*
X87079529Y-58558062D01*
X87079529Y-58558062D02*
X86879942Y-58828044D01*
X86879942Y-58828044D02*
X86726224Y-58991357D01*
X86726224Y-58991357D02*
X86464133Y-59212314D01*
X86464133Y-59212314D02*
X86182247Y-59386507D01*
X86182247Y-59386507D02*
X85880073Y-59514149D01*
X85880073Y-59514149D02*
X85557115Y-59595459D01*
X85557115Y-59595459D02*
X85269787Y-59628089D01*
X85269787Y-59628089D02*
X84921398Y-59625326D01*
X84921398Y-59625326D02*
X84594020Y-59576514D01*
X84594020Y-59576514D02*
X84285939Y-59481005D01*
X84285939Y-59481005D02*
X83995439Y-59338147D01*
X83995439Y-59338147D02*
X83720808Y-59147292D01*
X83720808Y-59147292D02*
X83514293Y-58962500D01*
X83514293Y-58962500D02*
X83285000Y-58705939D01*
X83285000Y-58705939D02*
X83104552Y-58436970D01*
X83104552Y-58436970D02*
X82972059Y-58153543D01*
X82972059Y-58153543D02*
X82886633Y-57853607D01*
X82886633Y-57853607D02*
X82847386Y-57535112D01*
X82847386Y-57535112D02*
X82844429Y-57418199D01*
X82844429Y-57418199D02*
X83250975Y-57418199D01*
X83250975Y-57418199D02*
X83255552Y-57593182D01*
X83255552Y-57593182D02*
X83272674Y-57741503D01*
X83272674Y-57741503D02*
X83306491Y-57880713D01*
X83306491Y-57880713D02*
X83361156Y-58028361D01*
X83361156Y-58028361D02*
X83432093Y-58183970D01*
X83432093Y-58183970D02*
X83500996Y-58319501D01*
X83500996Y-58319501D02*
X83565593Y-58425645D01*
X83565593Y-58425645D02*
X83638759Y-58520823D01*
X83638759Y-58520823D02*
X83733368Y-58623453D01*
X83733368Y-58623453D02*
X83753932Y-58644405D01*
X83753932Y-58644405D02*
X83852262Y-58738514D01*
X83852262Y-58738514D02*
X83954819Y-58827513D01*
X83954819Y-58827513D02*
X84052717Y-58904601D01*
X84052717Y-58904601D02*
X84137069Y-58962979D01*
X84137069Y-58962979D02*
X84198988Y-58995847D01*
X84198988Y-58995847D02*
X84219476Y-59000600D01*
X84219476Y-59000600D02*
X84223162Y-58980204D01*
X84223162Y-58980204D02*
X84208549Y-58929521D01*
X84208549Y-58929521D02*
X84201803Y-58912515D01*
X84201803Y-58912515D02*
X84167311Y-58768377D01*
X84167311Y-58768377D02*
X84177491Y-58621739D01*
X84177491Y-58621739D02*
X84227602Y-58481896D01*
X84227602Y-58481896D02*
X84312905Y-58358144D01*
X84312905Y-58358144D02*
X84428659Y-58259780D01*
X84428659Y-58259780D02*
X84566578Y-58197116D01*
X84566578Y-58197116D02*
X84732081Y-58170599D01*
X84732081Y-58170599D02*
X84883086Y-58192488D01*
X84883086Y-58192488D02*
X85022329Y-58263491D01*
X85022329Y-58263491D02*
X85108473Y-58336957D01*
X85108473Y-58336957D02*
X85212780Y-58470044D01*
X85212780Y-58470044D02*
X85267980Y-58613719D01*
X85267980Y-58613719D02*
X85275232Y-58771217D01*
X85275232Y-58771217D02*
X85272415Y-58795080D01*
X85272415Y-58795080D02*
X85239240Y-58917455D01*
X85239240Y-58917455D02*
X85179056Y-59036401D01*
X85179056Y-59036401D02*
X85102265Y-59134264D01*
X85102265Y-59134264D02*
X85045646Y-59179896D01*
X85045646Y-59179896D02*
X84965100Y-59229010D01*
X84965100Y-59229010D02*
X85168300Y-59228664D01*
X85168300Y-59228664D02*
X85297102Y-59223189D01*
X85297102Y-59223189D02*
X85435737Y-59209211D01*
X85435737Y-59209211D02*
X85548571Y-59190809D01*
X85548571Y-59190809D02*
X85777816Y-59121999D01*
X85777816Y-59121999D02*
X86011128Y-59015519D01*
X86011128Y-59015519D02*
X86233326Y-58880124D01*
X86233326Y-58880124D02*
X86429232Y-58724567D01*
X86429232Y-58724567D02*
X86526184Y-58627047D01*
X86526184Y-58627047D02*
X86692838Y-58409302D01*
X86692838Y-58409302D02*
X86832533Y-58162169D01*
X86832533Y-58162169D02*
X86939266Y-57899101D01*
X86939266Y-57899101D02*
X87007034Y-57633550D01*
X87007034Y-57633550D02*
X87023668Y-57512222D01*
X87023668Y-57512222D02*
X87028190Y-57337496D01*
X87028190Y-57337496D02*
X87013568Y-57138136D01*
X87013568Y-57138136D02*
X86982315Y-56935463D01*
X86982315Y-56935463D02*
X86936943Y-56750794D01*
X86936943Y-56750794D02*
X86932120Y-56735370D01*
X86932120Y-56735370D02*
X86843746Y-56514954D01*
X86843746Y-56514954D02*
X86722212Y-56292807D01*
X86722212Y-56292807D02*
X86577047Y-56083187D01*
X86577047Y-56083187D02*
X86417777Y-55900347D01*
X86417777Y-55900347D02*
X86305907Y-55798288D01*
X86305907Y-55798288D02*
X86072546Y-55639566D01*
X86072546Y-55639566D02*
X85822646Y-55528065D01*
X85822646Y-55528065D02*
X85558975Y-55464018D01*
X85558975Y-55464018D02*
X85284307Y-55447659D01*
X85284307Y-55447659D02*
X85001411Y-55479222D01*
X85001411Y-55479222D02*
X84713059Y-55558942D01*
X84713059Y-55558942D02*
X84503989Y-55646115D01*
X84503989Y-55646115D02*
X84295974Y-55752606D01*
X84295974Y-55752606D02*
X84121497Y-55860029D01*
X84121497Y-55860029D02*
X83964251Y-55979118D01*
X83964251Y-55979118D02*
X83864015Y-56067443D01*
X83864015Y-56067443D02*
X83647291Y-56299385D01*
X83647291Y-56299385D02*
X83476996Y-56550385D01*
X83476996Y-56550385D02*
X83353767Y-56819041D01*
X83353767Y-56819041D02*
X83278240Y-57103950D01*
X83278240Y-57103950D02*
X83251053Y-57403711D01*
X83251053Y-57403711D02*
X83250975Y-57418199D01*
X83250975Y-57418199D02*
X82844429Y-57418199D01*
X82844429Y-57418199D02*
X82844391Y-57416732D01*
X82844391Y-57416732D02*
X82842698Y-57324736D01*
X82842698Y-57324736D02*
X82836281Y-57274138D01*
X82836281Y-57274138D02*
X82822751Y-57255590D01*
X82822751Y-57255590D02*
X82803835Y-57258054D01*
X82803835Y-57258054D02*
X82775126Y-57273072D01*
X82775126Y-57273072D02*
X82707235Y-57310545D01*
X82707235Y-57310545D02*
X82604896Y-57367776D01*
X82604896Y-57367776D02*
X82472844Y-57442070D01*
X82472844Y-57442070D02*
X82315813Y-57530734D01*
X82315813Y-57530734D02*
X82138540Y-57631070D01*
X82138540Y-57631070D02*
X81945758Y-57740384D01*
X81945758Y-57740384D02*
X81742202Y-57855982D01*
X81742202Y-57855982D02*
X81532608Y-57975167D01*
X81532608Y-57975167D02*
X81321709Y-58095245D01*
X81321709Y-58095245D02*
X81114241Y-58213520D01*
X81114241Y-58213520D02*
X80914938Y-58327298D01*
X80914938Y-58327298D02*
X80728536Y-58433882D01*
X80728536Y-58433882D02*
X80559768Y-58530579D01*
X80559768Y-58530579D02*
X80413371Y-58614692D01*
X80413371Y-58614692D02*
X80294078Y-58683527D01*
X80294078Y-58683527D02*
X80206624Y-58734389D01*
X80206624Y-58734389D02*
X80155745Y-58764582D01*
X80155745Y-58764582D02*
X80144675Y-58771712D01*
X80144675Y-58771712D02*
X80141092Y-58803820D01*
X80141092Y-58803820D02*
X78798005Y-58803820D01*
X78798005Y-58803820D02*
X78909434Y-58750297D01*
X78909434Y-58750297D02*
X79129883Y-58679401D01*
X79129883Y-58679401D02*
X79343344Y-58646585D01*
X79343344Y-58646585D02*
X79397330Y-58645000D01*
X79397330Y-58645000D02*
X79498004Y-58637784D01*
X79498004Y-58637784D02*
X79586627Y-58619069D01*
X79586627Y-58619069D02*
X79620598Y-58605762D01*
X79620598Y-58605762D02*
X79669589Y-58575301D01*
X79669589Y-58575301D02*
X79685837Y-58540437D01*
X79685837Y-58540437D02*
X79678283Y-58479928D01*
X79678283Y-58479928D02*
X79676723Y-58472412D01*
X79676723Y-58472412D02*
X79667215Y-58395880D01*
X79667215Y-58395880D02*
X79660714Y-58277934D01*
X79660714Y-58277934D02*
X79657059Y-58127859D01*
X79657059Y-58127859D02*
X79656089Y-57954944D01*
X79656089Y-57954944D02*
X79656711Y-57880238D01*
X79656711Y-57880238D02*
X80049938Y-57880238D01*
X80049938Y-57880238D02*
X80052542Y-58025615D01*
X80052542Y-58025615D02*
X80058553Y-58150773D01*
X80058553Y-58150773D02*
X80067826Y-58248321D01*
X80067826Y-58248321D02*
X80080217Y-58310868D01*
X80080217Y-58310868D02*
X80095582Y-58331023D01*
X80095582Y-58331023D02*
X80097742Y-58330172D01*
X80097742Y-58330172D02*
X80122111Y-58316273D01*
X80122111Y-58316273D02*
X80186722Y-58279456D01*
X80186722Y-58279456D02*
X80287674Y-58221943D01*
X80287674Y-58221943D02*
X80421067Y-58145956D01*
X80421067Y-58145956D02*
X80582998Y-58053718D01*
X80582998Y-58053718D02*
X80769567Y-57947450D01*
X80769567Y-57947450D02*
X80976873Y-57829375D01*
X80976873Y-57829375D02*
X81201015Y-57701715D01*
X81201015Y-57701715D02*
X81421800Y-57575970D01*
X81421800Y-57575970D02*
X81661888Y-57439293D01*
X81661888Y-57439293D02*
X81891766Y-57308543D01*
X81891766Y-57308543D02*
X82107115Y-57186169D01*
X82107115Y-57186169D02*
X82303616Y-57074620D01*
X82303616Y-57074620D02*
X82476952Y-56976345D01*
X82476952Y-56976345D02*
X82622803Y-56893792D01*
X82622803Y-56893792D02*
X82736851Y-56829410D01*
X82736851Y-56829410D02*
X82814777Y-56785648D01*
X82814777Y-56785648D02*
X82849493Y-56766435D01*
X82849493Y-56766435D02*
X82931421Y-56713460D01*
X82931421Y-56713460D02*
X82982481Y-56652786D01*
X82982481Y-56652786D02*
X83012530Y-56587600D01*
X83012530Y-56587600D02*
X83099035Y-56405875D01*
X83099035Y-56405875D02*
X83222055Y-56211540D01*
X83222055Y-56211540D02*
X83372872Y-56015106D01*
X83372872Y-56015106D02*
X83542769Y-55827086D01*
X83542769Y-55827086D02*
X83723027Y-55657991D01*
X83723027Y-55657991D02*
X83891862Y-55527252D01*
X83891862Y-55527252D02*
X84201402Y-55339213D01*
X84201402Y-55339213D02*
X84515212Y-55197462D01*
X84515212Y-55197462D02*
X84830162Y-55101938D01*
X84830162Y-55101938D02*
X85143122Y-55052582D01*
X85143122Y-55052582D02*
X85450962Y-55049330D01*
X85450962Y-55049330D02*
X85750549Y-55092123D01*
X85750549Y-55092123D02*
X86038755Y-55180899D01*
X86038755Y-55180899D02*
X86312448Y-55315597D01*
X86312448Y-55315597D02*
X86568498Y-55496156D01*
X86568498Y-55496156D02*
X86665462Y-55581380D01*
X86665462Y-55581380D02*
X86730762Y-55640421D01*
X86730762Y-55640421D02*
X86781264Y-55682533D01*
X86781264Y-55682533D02*
X86806034Y-55698599D01*
X86806034Y-55698599D02*
X86806036Y-55698600D01*
X86806036Y-55698600D02*
X86827691Y-55679021D01*
X86827691Y-55679021D02*
X86860825Y-55631133D01*
X86860825Y-55631133D02*
X86865326Y-55623640D01*
X86865326Y-55623640D02*
X86980625Y-55475360D01*
X86980625Y-55475360D02*
X87131898Y-55351422D01*
X87131898Y-55351422D02*
X87307299Y-55259021D01*
X87307299Y-55259021D02*
X87494983Y-55205350D01*
X87494983Y-55205350D02*
X87568626Y-55196493D01*
X87568626Y-55196493D02*
X87744486Y-55183911D01*
X87744486Y-55183911D02*
X87744567Y-55008255D01*
X87744567Y-55008255D02*
X88143045Y-55008255D01*
X88143045Y-55008255D02*
X88152923Y-55173410D01*
X88152923Y-55173410D02*
X88177000Y-55313563D01*
X88177000Y-55313563D02*
X88189567Y-55355700D01*
X88189567Y-55355700D02*
X88273369Y-55561992D01*
X88273369Y-55561992D02*
X88372086Y-55747536D01*
X88372086Y-55747536D02*
X88478118Y-55898310D01*
X88478118Y-55898310D02*
X88493336Y-55916098D01*
X88493336Y-55916098D02*
X88602081Y-56039678D01*
X88602081Y-56039678D02*
X88600022Y-55888140D01*
X88600022Y-55888140D02*
X88613252Y-55746149D01*
X88613252Y-55746149D02*
X88661590Y-55629217D01*
X88661590Y-55629217D02*
X88751527Y-55523956D01*
X88751527Y-55523956D02*
X88794539Y-55486985D01*
X88794539Y-55486985D02*
X88916431Y-55418966D01*
X88916431Y-55418966D02*
X89052657Y-55393350D01*
X89052657Y-55393350D02*
X89192238Y-55408496D01*
X89192238Y-55408496D02*
X89324193Y-55462764D01*
X89324193Y-55462764D02*
X89437542Y-55554514D01*
X89437542Y-55554514D02*
X89464768Y-55587114D01*
X89464768Y-55587114D02*
X89508944Y-55657784D01*
X89508944Y-55657784D02*
X89533630Y-55736758D01*
X89533630Y-55736758D02*
X89545345Y-55840509D01*
X89545345Y-55840509D02*
X89548066Y-55939224D01*
X89548066Y-55939224D02*
X89537834Y-56010735D01*
X89537834Y-56010735D02*
X89509975Y-56077960D01*
X89509975Y-56077960D02*
X89489430Y-56114649D01*
X89489430Y-56114649D02*
X89390414Y-56236653D01*
X89390414Y-56236653D02*
X89261348Y-56318107D01*
X89261348Y-56318107D02*
X89168800Y-56346986D01*
X89168800Y-56346986D02*
X89111891Y-56360258D01*
X89111891Y-56360258D02*
X89100455Y-56370496D01*
X89100455Y-56370496D02*
X89130211Y-56384943D01*
X89130211Y-56384943D02*
X89143400Y-56389991D01*
X89143400Y-56389991D02*
X89404614Y-56466499D01*
X89404614Y-56466499D02*
X89673684Y-56502985D01*
X89673684Y-56502985D02*
X89939522Y-56499096D01*
X89939522Y-56499096D02*
X90191038Y-56454478D01*
X90191038Y-56454478D02*
X90282002Y-56426262D01*
X90282002Y-56426262D02*
X90552785Y-56305291D01*
X90552785Y-56305291D02*
X90792014Y-56145454D01*
X90792014Y-56145454D02*
X90997062Y-55949568D01*
X90997062Y-55949568D02*
X91165302Y-55720447D01*
X91165302Y-55720447D02*
X91294106Y-55460910D01*
X91294106Y-55460910D02*
X91356129Y-55274719D01*
X91356129Y-55274719D02*
X91392938Y-55071123D01*
X91392938Y-55071123D02*
X91401937Y-54844587D01*
X91401937Y-54844587D02*
X91383882Y-54614181D01*
X91383882Y-54614181D02*
X91339526Y-54398972D01*
X91339526Y-54398972D02*
X91318874Y-54333472D01*
X91318874Y-54333472D02*
X91201603Y-54059532D01*
X91201603Y-54059532D02*
X91053251Y-53817535D01*
X91053251Y-53817535D02*
X90877178Y-53611544D01*
X90877178Y-53611544D02*
X90676745Y-53445623D01*
X90676745Y-53445623D02*
X90501036Y-53344427D01*
X90501036Y-53344427D02*
X90398261Y-53297969D01*
X90398261Y-53297969D02*
X90314913Y-53268580D01*
X90314913Y-53268580D02*
X90231264Y-53251610D01*
X90231264Y-53251610D02*
X90127589Y-53242410D01*
X90127589Y-53242410D02*
X90053444Y-53238918D01*
X90053444Y-53238918D02*
X89918998Y-53236285D01*
X89918998Y-53236285D02*
X89811099Y-53242767D01*
X89811099Y-53242767D02*
X89705885Y-53261181D01*
X89705885Y-53261181D02*
X89579495Y-53294345D01*
X89579495Y-53294345D02*
X89576432Y-53295222D01*
X89576432Y-53295222D02*
X89280009Y-53403035D01*
X89280009Y-53403035D02*
X89007114Y-53547784D01*
X89007114Y-53547784D02*
X88762365Y-53725317D01*
X88762365Y-53725317D02*
X88550378Y-53931481D01*
X88550378Y-53931481D02*
X88375771Y-54162125D01*
X88375771Y-54162125D02*
X88243160Y-54413097D01*
X88243160Y-54413097D02*
X88197036Y-54535732D01*
X88197036Y-54535732D02*
X88165259Y-54672119D01*
X88165259Y-54672119D02*
X88147210Y-54835392D01*
X88147210Y-54835392D02*
X88143045Y-55008255D01*
X88143045Y-55008255D02*
X87744567Y-55008255D01*
X87744567Y-55008255D02*
X87744600Y-54939605D01*
X87744600Y-54939605D02*
X87766478Y-54654912D01*
X87766478Y-54654912D02*
X87829305Y-54375768D01*
X87829305Y-54375768D02*
X87887800Y-54212420D01*
X87887800Y-54212420D02*
X87949076Y-54090357D01*
X87949076Y-54090357D02*
X88036548Y-53948655D01*
X88036548Y-53948655D02*
X88139732Y-53802822D01*
X88139732Y-53802822D02*
X88248145Y-53668365D01*
X88248145Y-53668365D02*
X88278951Y-53633839D01*
X88278951Y-53633839D02*
X88334995Y-53574342D01*
X88334995Y-53574342D02*
X88371801Y-53531504D01*
X88371801Y-53531504D02*
X88386053Y-53497510D01*
X88386053Y-53497510D02*
X88374432Y-53464544D01*
X88374432Y-53464544D02*
X88333620Y-53424791D01*
X88333620Y-53424791D02*
X88260301Y-53370436D01*
X88260301Y-53370436D02*
X88151157Y-53293664D01*
X88151157Y-53293664D02*
X88127400Y-53276824D01*
X88127400Y-53276824D02*
X88010941Y-53194413D01*
X88010941Y-53194413D02*
X87927678Y-53138732D01*
X87927678Y-53138732D02*
X87869198Y-53107365D01*
X87869198Y-53107365D02*
X87827088Y-53097898D01*
X87827088Y-53097898D02*
X87792937Y-53107915D01*
X87792937Y-53107915D02*
X87758331Y-53135000D01*
X87758331Y-53135000D02*
X87729561Y-53162601D01*
X87729561Y-53162601D02*
X87615643Y-53295835D01*
X87615643Y-53295835D02*
X87514846Y-53456114D01*
X87514846Y-53456114D02*
X87452997Y-53590400D01*
X87452997Y-53590400D02*
X87395559Y-53703927D01*
X87395559Y-53703927D02*
X87325455Y-53770611D01*
X87325455Y-53770611D02*
X87239359Y-53793546D01*
X87239359Y-53793546D02*
X87234431Y-53793600D01*
X87234431Y-53793600D02*
X87157939Y-53773108D01*
X87157939Y-53773108D02*
X87089130Y-53721583D01*
X87089130Y-53721583D02*
X87044228Y-53653951D01*
X87044228Y-53653951D02*
X87035510Y-53610604D01*
X87035510Y-53610604D02*
X87048584Y-53543467D01*
X87048584Y-53543467D02*
X87083277Y-53446467D01*
X87083277Y-53446467D02*
X87133561Y-53332358D01*
X87133561Y-53332358D02*
X87193408Y-53213895D01*
X87193408Y-53213895D02*
X87256788Y-53103832D01*
X87256788Y-53103832D02*
X87316110Y-53016942D01*
X87316110Y-53016942D02*
X87368005Y-52946681D01*
X87368005Y-52946681D02*
X87402922Y-52893549D01*
X87402922Y-52893549D02*
X87413674Y-52868530D01*
X87413674Y-52868530D02*
X87413437Y-52868203D01*
X87413437Y-52868203D02*
X87377822Y-52847260D01*
X87377822Y-52847260D02*
X87305564Y-52813949D01*
X87305564Y-52813949D02*
X87207906Y-52772853D01*
X87207906Y-52772853D02*
X87096092Y-52728559D01*
X87096092Y-52728559D02*
X86981366Y-52685651D01*
X86981366Y-52685651D02*
X86876495Y-52649218D01*
X86876495Y-52649218D02*
X86393933Y-52516280D01*
X86393933Y-52516280D02*
X85905475Y-52433648D01*
X85905475Y-52433648D02*
X85411932Y-52401272D01*
X85411932Y-52401272D02*
X84914115Y-52419102D01*
X84914115Y-52419102D02*
X84412834Y-52487088D01*
X84412834Y-52487088D02*
X83908899Y-52605182D01*
X83908899Y-52605182D02*
X83403123Y-52773333D01*
X83403123Y-52773333D02*
X83146223Y-52877704D01*
X83146223Y-52877704D02*
X82729634Y-53084207D01*
X82729634Y-53084207D02*
X82328596Y-53336565D01*
X82328596Y-53336565D02*
X81947230Y-53631135D01*
X81947230Y-53631135D02*
X81589655Y-53964276D01*
X81589655Y-53964276D02*
X81259990Y-54332345D01*
X81259990Y-54332345D02*
X80962355Y-54731699D01*
X80962355Y-54731699D02*
X80845340Y-54911981D01*
X80845340Y-54911981D02*
X80630766Y-55299175D01*
X80630766Y-55299175D02*
X80445171Y-55720662D01*
X80445171Y-55720662D02*
X80291661Y-56167019D01*
X80291661Y-56167019D02*
X80173342Y-56628823D01*
X80173342Y-56628823D02*
X80093323Y-57096648D01*
X80093323Y-57096648D02*
X80076487Y-57244341D01*
X80076487Y-57244341D02*
X80064016Y-57396692D01*
X80064016Y-57396692D02*
X80055530Y-57558385D01*
X80055530Y-57558385D02*
X80050886Y-57722031D01*
X80050886Y-57722031D02*
X80049938Y-57880238D01*
X80049938Y-57880238D02*
X79656711Y-57880238D01*
X79656711Y-57880238D02*
X79657644Y-57768475D01*
X79657644Y-57768475D02*
X79661561Y-57577739D01*
X79661561Y-57577739D02*
X79667679Y-57392022D01*
X79667679Y-57392022D02*
X79675838Y-57220611D01*
X79675838Y-57220611D02*
X79685876Y-57072793D01*
X79685876Y-57072793D02*
X79697632Y-56957854D01*
X79697632Y-56957854D02*
X79703711Y-56917800D01*
X79703711Y-56917800D02*
X79750290Y-56672895D01*
X79750290Y-56672895D02*
X79799683Y-56443223D01*
X79799683Y-56443223D02*
X79849283Y-56240099D01*
X79849283Y-56240099D02*
X79896480Y-56074839D01*
X79896480Y-56074839D02*
X79901793Y-56058292D01*
X79901793Y-56058292D02*
X79925343Y-55974017D01*
X79925343Y-55974017D02*
X79936257Y-55909129D01*
X79936257Y-55909129D02*
X79932372Y-55878161D01*
X79932372Y-55878161D02*
X79897070Y-55862741D01*
X79897070Y-55862741D02*
X79828750Y-55842891D01*
X79828750Y-55842891D02*
X79766757Y-55828314D01*
X79766757Y-55828314D02*
X79549529Y-55760002D01*
X79549529Y-55760002D02*
X79333580Y-55652088D01*
X79333580Y-55652088D02*
X79131250Y-55513034D01*
X79131250Y-55513034D02*
X78954877Y-55351303D01*
X78954877Y-55351303D02*
X78818424Y-55177900D01*
X78818424Y-55177900D02*
X78728315Y-55020468D01*
X78728315Y-55020468D02*
X78668218Y-54869628D01*
X78668218Y-54869628D02*
X78633329Y-54708350D01*
X78633329Y-54708350D02*
X78618846Y-54519604D01*
X78618846Y-54519604D02*
X78617856Y-54466700D01*
X78617856Y-54466700D02*
X78618320Y-54330612D01*
X78618320Y-54330612D02*
X78624644Y-54226056D01*
X78624644Y-54226056D02*
X78639541Y-54133857D01*
X78639541Y-54133857D02*
X78665727Y-54034843D01*
X78665727Y-54034843D02*
X78689777Y-53958700D01*
X78689777Y-53958700D02*
X78750741Y-53798671D01*
X78750741Y-53798671D02*
X78814514Y-53686218D01*
X78814514Y-53686218D02*
X78883610Y-53618116D01*
X78883610Y-53618116D02*
X78960542Y-53591143D01*
X78960542Y-53591143D02*
X78977018Y-53590400D01*
X78977018Y-53590400D02*
X79058402Y-53613136D01*
X79058402Y-53613136D02*
X79108802Y-53652199D01*
X79108802Y-53652199D02*
X79141675Y-53700337D01*
X79141675Y-53700337D02*
X79155277Y-53760389D01*
X79155277Y-53760389D02*
X79148949Y-53840856D01*
X79148949Y-53840856D02*
X79122031Y-53950241D01*
X79122031Y-53950241D02*
X79074450Y-54095374D01*
X79074450Y-54095374D02*
X79018394Y-54321786D01*
X79018394Y-54321786D02*
X79010500Y-54539365D01*
X79010500Y-54539365D02*
X79049939Y-54744514D01*
X79049939Y-54744514D02*
X79135883Y-54933638D01*
X79135883Y-54933638D02*
X79267505Y-55103141D01*
X79267505Y-55103141D02*
X79317539Y-55151218D01*
X79317539Y-55151218D02*
X79469795Y-55267629D01*
X79469795Y-55267629D02*
X79639480Y-55362905D01*
X79639480Y-55362905D02*
X79812957Y-55431023D01*
X79812957Y-55431023D02*
X79976590Y-55465959D01*
X79976590Y-55465959D02*
X80037500Y-55469292D01*
X80037500Y-55469292D02*
X80072667Y-55466308D01*
X80072667Y-55466308D02*
X80101208Y-55452004D01*
X80101208Y-55452004D02*
X80129398Y-55418187D01*
X80129398Y-55418187D02*
X80163515Y-55356662D01*
X80163515Y-55356662D02*
X80209835Y-55259236D01*
X80209835Y-55259236D02*
X80226975Y-55221943D01*
X80226975Y-55221943D02*
X80440564Y-54809306D01*
X80440564Y-54809306D02*
X80699537Y-54405742D01*
X80699537Y-54405742D02*
X81006083Y-54007992D01*
X81006083Y-54007992D02*
X81167239Y-53822104D01*
X81167239Y-53822104D02*
X81260763Y-53716951D01*
X81260763Y-53716951D02*
X81323727Y-53642747D01*
X81323727Y-53642747D02*
X81360191Y-53593264D01*
X81360191Y-53593264D02*
X81374217Y-53562274D01*
X81374217Y-53562274D02*
X81369867Y-53543550D01*
X81369867Y-53543550D02*
X81355692Y-53533117D01*
X81355692Y-53533117D02*
X81295684Y-53489723D01*
X81295684Y-53489723D02*
X81215260Y-53415670D01*
X81215260Y-53415670D02*
X81123856Y-53321406D01*
X81123856Y-53321406D02*
X81030907Y-53217376D01*
X81030907Y-53217376D02*
X80945847Y-53114026D01*
X80945847Y-53114026D02*
X80878112Y-53021805D01*
X80878112Y-53021805D02*
X80845239Y-52967919D01*
X80845239Y-52967919D02*
X80735492Y-52709339D01*
X80735492Y-52709339D02*
X80674286Y-52447111D01*
X80674286Y-52447111D02*
X80660995Y-52185817D01*
X80660995Y-52185817D02*
X80694996Y-51930037D01*
X80694996Y-51930037D02*
X80775665Y-51684352D01*
X80775665Y-51684352D02*
X80902378Y-51453344D01*
X80902378Y-51453344D02*
X81074510Y-51241594D01*
X81074510Y-51241594D02*
X81081387Y-51234550D01*
X81081387Y-51234550D02*
X81189787Y-51132040D01*
X81189787Y-51132040D02*
X81277059Y-51069965D01*
X81277059Y-51069965D02*
X81349955Y-51046296D01*
X81349955Y-51046296D02*
X81415225Y-51059001D01*
X81415225Y-51059001D02*
X81479624Y-51106051D01*
X81479624Y-51106051D02*
X81486454Y-51112745D01*
X81486454Y-51112745D02*
X81532379Y-51171220D01*
X81532379Y-51171220D02*
X81546906Y-51230065D01*
X81546906Y-51230065D02*
X81527889Y-51297141D01*
X81527889Y-51297141D02*
X81473181Y-51380307D01*
X81473181Y-51380307D02*
X81385604Y-51482020D01*
X81385604Y-51482020D02*
X81228515Y-51680914D01*
X81228515Y-51680914D02*
X81121627Y-51881857D01*
X81121627Y-51881857D02*
X81064344Y-52087472D01*
X81064344Y-52087472D02*
X81056068Y-52300383D01*
X81056068Y-52300383D02*
X81096204Y-52523213D01*
X81096204Y-52523213D02*
X81127067Y-52619592D01*
X81127067Y-52619592D02*
X81207866Y-52787496D01*
X81207866Y-52787496D02*
X81324441Y-52954110D01*
X81324441Y-52954110D02*
X81463988Y-53104054D01*
X81463988Y-53104054D02*
X81613703Y-53221949D01*
X81613703Y-53221949D02*
X81643998Y-53240479D01*
X81643998Y-53240479D02*
X81719466Y-53284258D01*
X81719466Y-53284258D02*
X81907183Y-53143299D01*
X81907183Y-53143299D02*
X82339076Y-52850352D01*
X82339076Y-52850352D02*
X82799970Y-52597482D01*
X82799970Y-52597482D02*
X83284243Y-52387592D01*
X83284243Y-52387592D02*
X83553623Y-52293102D01*
X83553623Y-52293102D02*
X83767747Y-52224027D01*
X83767747Y-52224027D02*
X83762123Y-51948363D01*
X83762123Y-51948363D02*
X83776511Y-51661594D01*
X83776511Y-51661594D02*
X83832254Y-51404188D01*
X83832254Y-51404188D02*
X83929752Y-51175450D01*
X83929752Y-51175450D02*
X84069406Y-50974687D01*
X84069406Y-50974687D02*
X84251615Y-50801205D01*
X84251615Y-50801205D02*
X84476781Y-50654310D01*
X84476781Y-50654310D02*
X84522831Y-50630169D01*
X84522831Y-50630169D02*
X84632997Y-50584200D01*
X84632997Y-50584200D02*
X84776395Y-50538309D01*
X84776395Y-50538309D02*
X84935660Y-50497104D01*
X84935660Y-50497104D02*
X85093426Y-50465192D01*
X85093426Y-50465192D02*
X85202120Y-50449939D01*
X85202120Y-50449939D02*
X85290536Y-50443284D01*
X85290536Y-50443284D02*
X85345850Y-50448564D01*
X85345850Y-50448564D02*
X85345850Y-50448564D01*
G36*
X77987088Y-59682713D02*
G01*
X78104910Y-59436566D01*
X78270649Y-59203231D01*
X78331591Y-59133921D01*
X78497746Y-58983311D01*
X78694541Y-58853518D01*
X78798005Y-58803820D01*
X80141092Y-58803820D01*
X80150413Y-58876355D01*
X80170831Y-58981122D01*
X80200540Y-59109925D01*
X80237736Y-59254566D01*
X80280612Y-59406851D01*
X80295826Y-59457800D01*
X80468719Y-59944846D01*
X80682318Y-60402816D01*
X80934689Y-60830058D01*
X81223898Y-61224920D01*
X81548008Y-61585752D01*
X81905085Y-61910902D01*
X82293193Y-62198719D01*
X82710399Y-62447552D01*
X83154766Y-62655750D01*
X83624360Y-62821660D01*
X84117245Y-62943633D01*
X84444400Y-62997926D01*
X84626667Y-63016391D01*
X84844447Y-63028631D01*
X85082827Y-63034600D01*
X85326898Y-63034255D01*
X85561748Y-63027554D01*
X85772467Y-63014453D01*
X85892200Y-63002139D01*
X86426788Y-62911194D01*
X86948538Y-62775094D01*
X87453390Y-62595775D01*
X87937288Y-62375176D01*
X88396172Y-62115234D01*
X88825985Y-61817886D01*
X89222669Y-61485072D01*
X89374039Y-61339569D01*
X89692438Y-60992943D01*
X89964887Y-60634354D01*
X90196017Y-60256526D01*
X90390462Y-59852182D01*
X90499228Y-59572100D01*
X90614464Y-59180546D01*
X90692693Y-58762781D01*
X90733491Y-58327837D01*
X90736436Y-57884750D01*
X90701104Y-57442553D01*
X90627072Y-57010280D01*
X90620583Y-56981300D01*
X90599045Y-56887220D01*
X90578905Y-56826288D01*
X90550466Y-56794494D01*
X90504032Y-56787828D01*
X90429905Y-56802280D01*
X90318388Y-56833840D01*
X90286400Y-56843106D01*
X90175890Y-56870367D01*
X90060763Y-56887867D01*
X89924973Y-56897424D01*
X89778400Y-56900686D01*
X89645334Y-56900839D01*
X89540642Y-56897262D01*
X89448862Y-56887695D01*
X89354533Y-56869881D01*
X89242194Y-56841561D01*
X89100578Y-56801682D01*
X89089761Y-56806965D01*
X89098074Y-56836332D01*
X89127400Y-56893036D01*
X89179624Y-56980327D01*
X89256629Y-57101455D01*
X89360300Y-57259672D01*
X89405628Y-57328013D01*
X89579958Y-57595810D01*
X89729148Y-57836736D01*
X89852003Y-58048563D01*
X89947323Y-58229065D01*
X90013913Y-58376016D01*
X90050575Y-58487189D01*
X90057800Y-58540918D01*
X90033012Y-58641460D01*
X89959536Y-58732699D01*
X89838702Y-58814209D01*
X89671838Y-58885565D01*
X89460275Y-58946341D01*
X89205343Y-58996114D01*
X88908371Y-59034457D01*
X88570690Y-59060946D01*
X88406800Y-59068845D01*
X88261625Y-59074119D01*
X88158096Y-59076019D01*
X88087126Y-59073778D01*
X88039625Y-59066631D01*
X88006507Y-59053814D01*
X87978685Y-59034562D01*
X87976269Y-59032602D01*
X87926757Y-58962523D01*
X87912715Y-58874625D01*
X87934771Y-58788061D01*
X87966784Y-58743527D01*
X87992005Y-58723117D01*
X88026506Y-58707667D01*
X88078592Y-58695801D01*
X88156564Y-58686145D01*
X88268725Y-58677321D01*
X88422714Y-58667993D01*
X88650851Y-58652267D01*
X88869215Y-58631858D01*
X89071820Y-58607743D01*
X89252684Y-58580897D01*
X89405821Y-58552297D01*
X89525249Y-58522919D01*
X89604983Y-58493740D01*
X89637067Y-58469841D01*
X89631247Y-58434947D01*
X89596230Y-58361485D01*
X89533372Y-58251470D01*
X89444034Y-58106916D01*
X89329573Y-57929837D01*
X89191348Y-57722248D01*
X89030717Y-57486163D01*
X88849040Y-57223597D01*
X88647674Y-56936565D01*
X88427978Y-56627080D01*
X88191311Y-56297157D01*
X87939031Y-55948811D01*
X87909462Y-55908186D01*
X87822495Y-55789252D01*
X87758935Y-55705303D01*
X87712305Y-55650243D01*
X87676127Y-55617980D01*
X87643922Y-55602417D01*
X87609215Y-55597460D01*
X87578760Y-55597036D01*
X87461138Y-55621118D01*
X87345535Y-55688980D01*
X87239683Y-55793927D01*
X87151314Y-55929260D01*
X87121436Y-55993157D01*
X87104691Y-56036638D01*
X87098133Y-56074115D01*
X87104256Y-56116967D01*
X87125555Y-56176571D01*
X87164526Y-56264305D01*
X87195566Y-56331180D01*
X87321246Y-56657084D01*
X87398317Y-56987141D01*
X87427492Y-57317303D01*
X87409488Y-57643524D01*
X87345016Y-57961755D01*
X87234792Y-58267950D01*
X87079529Y-58558062D01*
X86879942Y-58828044D01*
X86726224Y-58991357D01*
X86464133Y-59212314D01*
X86182247Y-59386507D01*
X85880073Y-59514149D01*
X85557115Y-59595459D01*
X85269787Y-59628089D01*
X84921398Y-59625326D01*
X84594020Y-59576514D01*
X84285939Y-59481005D01*
X83995439Y-59338147D01*
X83720808Y-59147292D01*
X83514293Y-58962500D01*
X83285000Y-58705939D01*
X83104552Y-58436970D01*
X82972059Y-58153543D01*
X82886633Y-57853607D01*
X82847386Y-57535112D01*
X82844429Y-57418199D01*
X83250975Y-57418199D01*
X83255552Y-57593182D01*
X83272674Y-57741503D01*
X83306491Y-57880713D01*
X83361156Y-58028361D01*
X83432093Y-58183970D01*
X83500996Y-58319501D01*
X83565593Y-58425645D01*
X83638759Y-58520823D01*
X83733368Y-58623453D01*
X83753932Y-58644405D01*
X83852262Y-58738514D01*
X83954819Y-58827513D01*
X84052717Y-58904601D01*
X84137069Y-58962979D01*
X84198988Y-58995847D01*
X84219476Y-59000600D01*
X84223162Y-58980204D01*
X84208549Y-58929521D01*
X84201803Y-58912515D01*
X84167311Y-58768377D01*
X84177491Y-58621739D01*
X84227602Y-58481896D01*
X84312905Y-58358144D01*
X84428659Y-58259780D01*
X84566578Y-58197116D01*
X84732081Y-58170599D01*
X84883086Y-58192488D01*
X85022329Y-58263491D01*
X85108473Y-58336957D01*
X85212780Y-58470044D01*
X85267980Y-58613719D01*
X85275232Y-58771217D01*
X85272415Y-58795080D01*
X85239240Y-58917455D01*
X85179056Y-59036401D01*
X85102265Y-59134264D01*
X85045646Y-59179896D01*
X84965100Y-59229010D01*
X85168300Y-59228664D01*
X85297102Y-59223189D01*
X85435737Y-59209211D01*
X85548571Y-59190809D01*
X85777816Y-59121999D01*
X86011128Y-59015519D01*
X86233326Y-58880124D01*
X86429232Y-58724567D01*
X86526184Y-58627047D01*
X86692838Y-58409302D01*
X86832533Y-58162169D01*
X86939266Y-57899101D01*
X87007034Y-57633550D01*
X87023668Y-57512222D01*
X87028190Y-57337496D01*
X87013568Y-57138136D01*
X86982315Y-56935463D01*
X86936943Y-56750794D01*
X86932120Y-56735370D01*
X86843746Y-56514954D01*
X86722212Y-56292807D01*
X86577047Y-56083187D01*
X86417777Y-55900347D01*
X86305907Y-55798288D01*
X86072546Y-55639566D01*
X85822646Y-55528065D01*
X85558975Y-55464018D01*
X85284307Y-55447659D01*
X85001411Y-55479222D01*
X84713059Y-55558942D01*
X84503989Y-55646115D01*
X84295974Y-55752606D01*
X84121497Y-55860029D01*
X83964251Y-55979118D01*
X83864015Y-56067443D01*
X83647291Y-56299385D01*
X83476996Y-56550385D01*
X83353767Y-56819041D01*
X83278240Y-57103950D01*
X83251053Y-57403711D01*
X83250975Y-57418199D01*
X82844429Y-57418199D01*
X82844391Y-57416732D01*
X82842698Y-57324736D01*
X82836281Y-57274138D01*
X82822751Y-57255590D01*
X82803835Y-57258054D01*
X82775126Y-57273072D01*
X82707235Y-57310545D01*
X82604896Y-57367776D01*
X82472844Y-57442070D01*
X82315813Y-57530734D01*
X82138540Y-57631070D01*
X81945758Y-57740384D01*
X81742202Y-57855982D01*
X81532608Y-57975167D01*
X81321709Y-58095245D01*
X81114241Y-58213520D01*
X80914938Y-58327298D01*
X80728536Y-58433882D01*
X80559768Y-58530579D01*
X80413371Y-58614692D01*
X80294078Y-58683527D01*
X80206624Y-58734389D01*
X80155745Y-58764582D01*
X80144675Y-58771712D01*
X80141092Y-58803820D01*
X78798005Y-58803820D01*
X78909434Y-58750297D01*
X79129883Y-58679401D01*
X79343344Y-58646585D01*
X79397330Y-58645000D01*
X79498004Y-58637784D01*
X79586627Y-58619069D01*
X79620598Y-58605762D01*
X79669589Y-58575301D01*
X79685837Y-58540437D01*
X79678283Y-58479928D01*
X79676723Y-58472412D01*
X79667215Y-58395880D01*
X79660714Y-58277934D01*
X79657059Y-58127859D01*
X79656089Y-57954944D01*
X79656711Y-57880238D01*
X80049938Y-57880238D01*
X80052542Y-58025615D01*
X80058553Y-58150773D01*
X80067826Y-58248321D01*
X80080217Y-58310868D01*
X80095582Y-58331023D01*
X80097742Y-58330172D01*
X80122111Y-58316273D01*
X80186722Y-58279456D01*
X80287674Y-58221943D01*
X80421067Y-58145956D01*
X80582998Y-58053718D01*
X80769567Y-57947450D01*
X80976873Y-57829375D01*
X81201015Y-57701715D01*
X81421800Y-57575970D01*
X81661888Y-57439293D01*
X81891766Y-57308543D01*
X82107115Y-57186169D01*
X82303616Y-57074620D01*
X82476952Y-56976345D01*
X82622803Y-56893792D01*
X82736851Y-56829410D01*
X82814777Y-56785648D01*
X82849493Y-56766435D01*
X82931421Y-56713460D01*
X82982481Y-56652786D01*
X83012530Y-56587600D01*
X83099035Y-56405875D01*
X83222055Y-56211540D01*
X83372872Y-56015106D01*
X83542769Y-55827086D01*
X83723027Y-55657991D01*
X83891862Y-55527252D01*
X84201402Y-55339213D01*
X84515212Y-55197462D01*
X84830162Y-55101938D01*
X85143122Y-55052582D01*
X85450962Y-55049330D01*
X85750549Y-55092123D01*
X86038755Y-55180899D01*
X86312448Y-55315597D01*
X86568498Y-55496156D01*
X86665462Y-55581380D01*
X86730762Y-55640421D01*
X86781264Y-55682533D01*
X86806034Y-55698599D01*
X86806036Y-55698600D01*
X86827691Y-55679021D01*
X86860825Y-55631133D01*
X86865326Y-55623640D01*
X86980625Y-55475360D01*
X87131898Y-55351422D01*
X87307299Y-55259021D01*
X87494983Y-55205350D01*
X87568626Y-55196493D01*
X87744486Y-55183911D01*
X87744567Y-55008255D01*
X88143045Y-55008255D01*
X88152923Y-55173410D01*
X88177000Y-55313563D01*
X88189567Y-55355700D01*
X88273369Y-55561992D01*
X88372086Y-55747536D01*
X88478118Y-55898310D01*
X88493336Y-55916098D01*
X88602081Y-56039678D01*
X88600022Y-55888140D01*
X88613252Y-55746149D01*
X88661590Y-55629217D01*
X88751527Y-55523956D01*
X88794539Y-55486985D01*
X88916431Y-55418966D01*
X89052657Y-55393350D01*
X89192238Y-55408496D01*
X89324193Y-55462764D01*
X89437542Y-55554514D01*
X89464768Y-55587114D01*
X89508944Y-55657784D01*
X89533630Y-55736758D01*
X89545345Y-55840509D01*
X89548066Y-55939224D01*
X89537834Y-56010735D01*
X89509975Y-56077960D01*
X89489430Y-56114649D01*
X89390414Y-56236653D01*
X89261348Y-56318107D01*
X89168800Y-56346986D01*
X89111891Y-56360258D01*
X89100455Y-56370496D01*
X89130211Y-56384943D01*
X89143400Y-56389991D01*
X89404614Y-56466499D01*
X89673684Y-56502985D01*
X89939522Y-56499096D01*
X90191038Y-56454478D01*
X90282002Y-56426262D01*
X90552785Y-56305291D01*
X90792014Y-56145454D01*
X90997062Y-55949568D01*
X91165302Y-55720447D01*
X91294106Y-55460910D01*
X91356129Y-55274719D01*
X91392938Y-55071123D01*
X91401937Y-54844587D01*
X91383882Y-54614181D01*
X91339526Y-54398972D01*
X91318874Y-54333472D01*
X91201603Y-54059532D01*
X91053251Y-53817535D01*
X90877178Y-53611544D01*
X90676745Y-53445623D01*
X90501036Y-53344427D01*
X90398261Y-53297969D01*
X90314913Y-53268580D01*
X90231264Y-53251610D01*
X90127589Y-53242410D01*
X90053444Y-53238918D01*
X89918998Y-53236285D01*
X89811099Y-53242767D01*
X89705885Y-53261181D01*
X89579495Y-53294345D01*
X89576432Y-53295222D01*
X89280009Y-53403035D01*
X89007114Y-53547784D01*
X88762365Y-53725317D01*
X88550378Y-53931481D01*
X88375771Y-54162125D01*
X88243160Y-54413097D01*
X88197036Y-54535732D01*
X88165259Y-54672119D01*
X88147210Y-54835392D01*
X88143045Y-55008255D01*
X87744567Y-55008255D01*
X87744600Y-54939605D01*
X87766478Y-54654912D01*
X87829305Y-54375768D01*
X87887800Y-54212420D01*
X87949076Y-54090357D01*
X88036548Y-53948655D01*
X88139732Y-53802822D01*
X88248145Y-53668365D01*
X88278951Y-53633839D01*
X88334995Y-53574342D01*
X88371801Y-53531504D01*
X88386053Y-53497510D01*
X88374432Y-53464544D01*
X88333620Y-53424791D01*
X88260301Y-53370436D01*
X88151157Y-53293664D01*
X88127400Y-53276824D01*
X88010941Y-53194413D01*
X87927678Y-53138732D01*
X87869198Y-53107365D01*
X87827088Y-53097898D01*
X87792937Y-53107915D01*
X87758331Y-53135000D01*
X87729561Y-53162601D01*
X87615643Y-53295835D01*
X87514846Y-53456114D01*
X87452997Y-53590400D01*
X87395559Y-53703927D01*
X87325455Y-53770611D01*
X87239359Y-53793546D01*
X87234431Y-53793600D01*
X87157939Y-53773108D01*
X87089130Y-53721583D01*
X87044228Y-53653951D01*
X87035510Y-53610604D01*
X87048584Y-53543467D01*
X87083277Y-53446467D01*
X87133561Y-53332358D01*
X87193408Y-53213895D01*
X87256788Y-53103832D01*
X87316110Y-53016942D01*
X87368005Y-52946681D01*
X87402922Y-52893549D01*
X87413674Y-52868530D01*
X87413437Y-52868203D01*
X87377822Y-52847260D01*
X87305564Y-52813949D01*
X87207906Y-52772853D01*
X87096092Y-52728559D01*
X86981366Y-52685651D01*
X86876495Y-52649218D01*
X86393933Y-52516280D01*
X85905475Y-52433648D01*
X85411932Y-52401272D01*
X84914115Y-52419102D01*
X84412834Y-52487088D01*
X83908899Y-52605182D01*
X83403123Y-52773333D01*
X83146223Y-52877704D01*
X82729634Y-53084207D01*
X82328596Y-53336565D01*
X81947230Y-53631135D01*
X81589655Y-53964276D01*
X81259990Y-54332345D01*
X80962355Y-54731699D01*
X80845340Y-54911981D01*
X80630766Y-55299175D01*
X80445171Y-55720662D01*
X80291661Y-56167019D01*
X80173342Y-56628823D01*
X80093323Y-57096648D01*
X80076487Y-57244341D01*
X80064016Y-57396692D01*
X80055530Y-57558385D01*
X80050886Y-57722031D01*
X80049938Y-57880238D01*
X79656711Y-57880238D01*
X79657644Y-57768475D01*
X79661561Y-57577739D01*
X79667679Y-57392022D01*
X79675838Y-57220611D01*
X79685876Y-57072793D01*
X79697632Y-56957854D01*
X79703711Y-56917800D01*
X79750290Y-56672895D01*
X79799683Y-56443223D01*
X79849283Y-56240099D01*
X79896480Y-56074839D01*
X79901793Y-56058292D01*
X79925343Y-55974017D01*
X79936257Y-55909129D01*
X79932372Y-55878161D01*
X79897070Y-55862741D01*
X79828750Y-55842891D01*
X79766757Y-55828314D01*
X79549529Y-55760002D01*
X79333580Y-55652088D01*
X79131250Y-55513034D01*
X78954877Y-55351303D01*
X78818424Y-55177900D01*
X78728315Y-55020468D01*
X78668218Y-54869628D01*
X78633329Y-54708350D01*
X78618846Y-54519604D01*
X78617856Y-54466700D01*
X78618320Y-54330612D01*
X78624644Y-54226056D01*
X78639541Y-54133857D01*
X78665727Y-54034843D01*
X78689777Y-53958700D01*
X78750741Y-53798671D01*
X78814514Y-53686218D01*
X78883610Y-53618116D01*
X78960542Y-53591143D01*
X78977018Y-53590400D01*
X79058402Y-53613136D01*
X79108802Y-53652199D01*
X79141675Y-53700337D01*
X79155277Y-53760389D01*
X79148949Y-53840856D01*
X79122031Y-53950241D01*
X79074450Y-54095374D01*
X79018394Y-54321786D01*
X79010500Y-54539365D01*
X79049939Y-54744514D01*
X79135883Y-54933638D01*
X79267505Y-55103141D01*
X79317539Y-55151218D01*
X79469795Y-55267629D01*
X79639480Y-55362905D01*
X79812957Y-55431023D01*
X79976590Y-55465959D01*
X80037500Y-55469292D01*
X80072667Y-55466308D01*
X80101208Y-55452004D01*
X80129398Y-55418187D01*
X80163515Y-55356662D01*
X80209835Y-55259236D01*
X80226975Y-55221943D01*
X80440564Y-54809306D01*
X80699537Y-54405742D01*
X81006083Y-54007992D01*
X81167239Y-53822104D01*
X81260763Y-53716951D01*
X81323727Y-53642747D01*
X81360191Y-53593264D01*
X81374217Y-53562274D01*
X81369867Y-53543550D01*
X81355692Y-53533117D01*
X81295684Y-53489723D01*
X81215260Y-53415670D01*
X81123856Y-53321406D01*
X81030907Y-53217376D01*
X80945847Y-53114026D01*
X80878112Y-53021805D01*
X80845239Y-52967919D01*
X80735492Y-52709339D01*
X80674286Y-52447111D01*
X80660995Y-52185817D01*
X80694996Y-51930037D01*
X80775665Y-51684352D01*
X80902378Y-51453344D01*
X81074510Y-51241594D01*
X81081387Y-51234550D01*
X81189787Y-51132040D01*
X81277059Y-51069965D01*
X81349955Y-51046296D01*
X81415225Y-51059001D01*
X81479624Y-51106051D01*
X81486454Y-51112745D01*
X81532379Y-51171220D01*
X81546906Y-51230065D01*
X81527889Y-51297141D01*
X81473181Y-51380307D01*
X81385604Y-51482020D01*
X81228515Y-51680914D01*
X81121627Y-51881857D01*
X81064344Y-52087472D01*
X81056068Y-52300383D01*
X81096204Y-52523213D01*
X81127067Y-52619592D01*
X81207866Y-52787496D01*
X81324441Y-52954110D01*
X81463988Y-53104054D01*
X81613703Y-53221949D01*
X81643998Y-53240479D01*
X81719466Y-53284258D01*
X81907183Y-53143299D01*
X82339076Y-52850352D01*
X82799970Y-52597482D01*
X83284243Y-52387592D01*
X83553623Y-52293102D01*
X83767747Y-52224027D01*
X83762123Y-51948363D01*
X83776511Y-51661594D01*
X83832254Y-51404188D01*
X83929752Y-51175450D01*
X84069406Y-50974687D01*
X84251615Y-50801205D01*
X84476781Y-50654310D01*
X84522831Y-50630169D01*
X84632997Y-50584200D01*
X84776395Y-50538309D01*
X84935660Y-50497104D01*
X85093426Y-50465192D01*
X85202120Y-50449939D01*
X85290536Y-50443284D01*
X85345850Y-50448564D01*
X85385001Y-50468964D01*
X85406324Y-50488324D01*
X85449317Y-50563678D01*
X85458749Y-50656627D01*
X85433324Y-50745532D01*
X85422739Y-50762664D01*
X85380233Y-50798884D01*
X85304547Y-50826833D01*
X85213189Y-50845904D01*
X84940894Y-50907631D01*
X84712148Y-50992619D01*
X84524659Y-51102237D01*
X84376135Y-51237854D01*
X84264284Y-51400839D01*
X84255442Y-51417875D01*
X84196481Y-51578373D01*
X84163247Y-51769234D01*
X84158103Y-51975712D01*
X84160249Y-52012105D01*
X84167032Y-52080482D01*
X84181687Y-52110079D01*
X84215423Y-52112808D01*
X84249149Y-52106571D01*
X84522553Y-52061310D01*
X84823536Y-52028690D01*
X85137109Y-52009290D01*
X85448283Y-52003688D01*
X85742068Y-52012462D01*
X86003475Y-52036190D01*
X86019200Y-52038293D01*
X86433307Y-52111996D01*
X86846922Y-52218091D01*
X87243559Y-52351812D01*
X87548187Y-52480422D01*
X87661255Y-52531816D01*
X87737623Y-52562126D01*
X87785615Y-52573792D01*
X87813556Y-52569256D01*
X87823139Y-52561049D01*
X87860235Y-52533225D01*
X87932900Y-52490997D01*
X88029973Y-52439877D01*
X88140290Y-52385378D01*
X88252689Y-52333013D01*
X88356006Y-52288293D01*
X88439079Y-52256731D01*
X88440011Y-52256420D01*
X88581431Y-52216478D01*
X88743025Y-52181921D01*
X88904341Y-52156376D01*
X89044925Y-52143469D01*
X89082134Y-52142600D01*
X89178700Y-52148870D01*
X89241529Y-52170503D01*
X89269753Y-52192753D01*
X89327333Y-52277761D01*
X89337044Y-52365665D01*
X89302873Y-52443051D01*
X89271726Y-52478373D01*
X89232807Y-52504806D01*
X89176578Y-52525367D01*
X89093498Y-52543075D01*
X88974027Y-52560949D01*
X88899621Y-52570643D01*
X88748678Y-52597255D01*
X88589148Y-52637835D01*
X88437307Y-52687301D01*
X88309428Y-52740572D01*
X88247936Y-52774150D01*
X88171948Y-52822262D01*
X88333824Y-52931123D01*
X88434514Y-53001502D01*
X88538018Y-53078065D01*
X88615543Y-53139082D01*
X88735386Y-53238179D01*
X88883510Y-53151366D01*
X89188945Y-52999422D01*
X89503730Y-52896841D01*
X89831601Y-52842496D01*
X89931117Y-52835526D01*
X90138026Y-52834131D01*
X90316959Y-52855032D01*
X90487336Y-52902256D01*
X90668583Y-52979827D01*
X90698332Y-52994542D01*
X90952974Y-53150332D01*
X91181860Y-53347485D01*
X91381889Y-53581896D01*
X91549958Y-53849457D01*
X91682967Y-54146063D01*
X91762473Y-54403200D01*
X91785747Y-54540557D01*
X91797734Y-54711117D01*
X91798801Y-54898637D01*
X91789315Y-55086874D01*
X91769643Y-55259586D01*
X91740153Y-55400529D01*
X91739903Y-55401399D01*
X91628820Y-55704369D01*
X91476870Y-55979967D01*
X91281158Y-56232866D01*
X91129239Y-56387169D01*
X91038278Y-56474002D01*
X90980679Y-56535366D01*
X90950935Y-56578505D01*
X90943539Y-56610660D01*
X90947142Y-56626661D01*
X90959526Y-56670666D01*
X90979149Y-56752993D01*
X91003381Y-56862130D01*
X91029591Y-56986566D01*
X91031311Y-56994961D01*
X91113796Y-57512692D01*
X91146906Y-58019029D01*
X91130496Y-58515106D01*
X91064422Y-59002057D01*
X90948539Y-59481017D01*
X90782703Y-59953121D01*
X90604533Y-60345537D01*
X90367943Y-60761478D01*
X90086808Y-61156850D01*
X89764080Y-61529100D01*
X89402715Y-61875672D01*
X89005665Y-62194012D01*
X88575884Y-62481565D01*
X88116325Y-62735776D01*
X87629942Y-62954091D01*
X87554417Y-62983753D01*
X87271666Y-63088667D01*
X87016142Y-63173655D01*
X86770674Y-63243484D01*
X86518093Y-63302919D01*
X86241230Y-63356726D01*
X86158900Y-63371110D01*
X85973891Y-63396104D01*
X85751772Y-63415402D01*
X85505949Y-63428694D01*
X85249826Y-63435672D01*
X84996807Y-63436025D01*
X84760296Y-63429445D01*
X84553698Y-63415621D01*
X84495200Y-63409514D01*
X83979515Y-63325653D01*
X83475514Y-63196061D01*
X82990359Y-63022843D01*
X82642742Y-62865352D01*
X82234169Y-62640455D01*
X81855376Y-62385972D01*
X81498969Y-62096090D01*
X81157556Y-61764998D01*
X80944965Y-61530473D01*
X80885862Y-61464336D01*
X80848328Y-61431715D01*
X80821735Y-61426831D01*
X80795456Y-61443907D01*
X80791779Y-61447193D01*
X80732669Y-61487383D01*
X80637617Y-61537370D01*
X80519126Y-61591661D01*
X80389699Y-61644761D01*
X80261837Y-61691177D01*
X80175491Y-61718016D01*
X80011583Y-61753868D01*
X79824769Y-61778181D01*
X79632953Y-61789850D01*
X79454040Y-61787771D01*
X79309311Y-61771486D01*
X79030451Y-61697378D01*
X78779123Y-61584490D01*
X78548460Y-61428989D01*
X78331596Y-61227038D01*
X78328554Y-61223787D01*
X78156578Y-61012371D01*
X78031057Y-60793861D01*
X77947659Y-60560158D01*
X77928004Y-60475181D01*
X77897948Y-60204304D01*
X77905630Y-60102158D01*
X78306157Y-60102158D01*
X78307672Y-60311774D01*
X78352327Y-60521547D01*
X78443235Y-60726303D01*
X78454460Y-60745422D01*
X78570192Y-60901686D01*
X78720125Y-61049666D01*
X78891815Y-61180207D01*
X79072816Y-61284153D01*
X79250684Y-61352350D01*
X79293719Y-61362850D01*
X79424176Y-61378945D01*
X79585569Y-61381757D01*
X79760149Y-61372516D01*
X79930169Y-61352449D01*
X80077881Y-61322787D01*
X80139100Y-61304293D01*
X80318763Y-61237500D01*
X80453275Y-61180423D01*
X80541080Y-61133770D01*
X80575474Y-61105891D01*
X80585154Y-61077317D01*
X80573263Y-61031942D01*
X80536435Y-60960357D01*
X80503822Y-60905570D01*
X80444278Y-60803943D01*
X80374906Y-60679237D01*
X80308180Y-60554017D01*
X80290613Y-60519863D01*
X80238400Y-60418783D01*
X80201893Y-60355596D01*
X80174152Y-60322721D01*
X80148235Y-60312579D01*
X80117205Y-60317588D01*
X80107905Y-60320298D01*
X79987737Y-60362048D01*
X79903059Y-60406710D01*
X79855334Y-60445101D01*
X79796456Y-60519990D01*
X79782691Y-60597335D01*
X79812294Y-60689781D01*
X79819565Y-60704199D01*
X79865074Y-60821657D01*
X79867166Y-60915258D01*
X79825889Y-60983812D01*
X79807859Y-60997517D01*
X79735305Y-61023531D01*
X79666879Y-61002073D01*
X79600488Y-60931931D01*
X79552211Y-60849494D01*
X79494576Y-60687172D01*
X79486318Y-60530171D01*
X79526131Y-60383480D01*
X79612705Y-60252088D01*
X79736511Y-60146353D01*
X79805068Y-60103060D01*
X79856608Y-60074382D01*
X79875101Y-60067400D01*
X79910915Y-60059139D01*
X79963571Y-60041136D01*
X80032649Y-60014872D01*
X79958874Y-59936408D01*
X79858619Y-59853554D01*
X79741226Y-59805782D01*
X79594071Y-59788305D01*
X79567571Y-59788000D01*
X79389948Y-59811561D01*
X79233292Y-59879993D01*
X79102675Y-59989917D01*
X79003168Y-60137955D01*
X78985864Y-60175515D01*
X78927730Y-60277336D01*
X78861771Y-60330207D01*
X78789091Y-60333509D01*
X78743140Y-60311717D01*
X78692932Y-60251974D01*
X78679955Y-60169112D01*
X78700329Y-60069849D01*
X78750172Y-59960906D01*
X78825604Y-59849003D01*
X78922744Y-59740859D01*
X79037711Y-59643194D01*
X79166624Y-59562727D01*
X79179487Y-59556205D01*
X79239572Y-59529311D01*
X79298926Y-59511743D01*
X79370642Y-59501592D01*
X79467813Y-59496949D01*
X79593000Y-59495900D01*
X79885100Y-59495900D01*
X79834300Y-59287865D01*
X79809120Y-59188525D01*
X79784473Y-59121939D01*
X79750324Y-59081538D01*
X79696634Y-59060756D01*
X79613370Y-59053023D01*
X79490494Y-59051771D01*
X79473505Y-59051746D01*
X79241971Y-59073846D01*
X79028672Y-59137495D01*
X78836722Y-59237517D01*
X78669233Y-59368740D01*
X78529319Y-59525990D01*
X78420093Y-59704092D01*
X78344668Y-59897872D01*
X78306157Y-60102158D01*
X77905630Y-60102158D01*
X77917872Y-59939386D01*
X77987088Y-59682713D01*
G37*
X77987088Y-59682713D02*
X78104910Y-59436566D01*
X78270649Y-59203231D01*
X78331591Y-59133921D01*
X78497746Y-58983311D01*
X78694541Y-58853518D01*
X78798005Y-58803820D01*
X80141092Y-58803820D01*
X80150413Y-58876355D01*
X80170831Y-58981122D01*
X80200540Y-59109925D01*
X80237736Y-59254566D01*
X80280612Y-59406851D01*
X80295826Y-59457800D01*
X80468719Y-59944846D01*
X80682318Y-60402816D01*
X80934689Y-60830058D01*
X81223898Y-61224920D01*
X81548008Y-61585752D01*
X81905085Y-61910902D01*
X82293193Y-62198719D01*
X82710399Y-62447552D01*
X83154766Y-62655750D01*
X83624360Y-62821660D01*
X84117245Y-62943633D01*
X84444400Y-62997926D01*
X84626667Y-63016391D01*
X84844447Y-63028631D01*
X85082827Y-63034600D01*
X85326898Y-63034255D01*
X85561748Y-63027554D01*
X85772467Y-63014453D01*
X85892200Y-63002139D01*
X86426788Y-62911194D01*
X86948538Y-62775094D01*
X87453390Y-62595775D01*
X87937288Y-62375176D01*
X88396172Y-62115234D01*
X88825985Y-61817886D01*
X89222669Y-61485072D01*
X89374039Y-61339569D01*
X89692438Y-60992943D01*
X89964887Y-60634354D01*
X90196017Y-60256526D01*
X90390462Y-59852182D01*
X90499228Y-59572100D01*
X90614464Y-59180546D01*
X90692693Y-58762781D01*
X90733491Y-58327837D01*
X90736436Y-57884750D01*
X90701104Y-57442553D01*
X90627072Y-57010280D01*
X90620583Y-56981300D01*
X90599045Y-56887220D01*
X90578905Y-56826288D01*
X90550466Y-56794494D01*
X90504032Y-56787828D01*
X90429905Y-56802280D01*
X90318388Y-56833840D01*
X90286400Y-56843106D01*
X90175890Y-56870367D01*
X90060763Y-56887867D01*
X89924973Y-56897424D01*
X89778400Y-56900686D01*
X89645334Y-56900839D01*
X89540642Y-56897262D01*
X89448862Y-56887695D01*
X89354533Y-56869881D01*
X89242194Y-56841561D01*
X89100578Y-56801682D01*
X89089761Y-56806965D01*
X89098074Y-56836332D01*
X89127400Y-56893036D01*
X89179624Y-56980327D01*
X89256629Y-57101455D01*
X89360300Y-57259672D01*
X89405628Y-57328013D01*
X89579958Y-57595810D01*
X89729148Y-57836736D01*
X89852003Y-58048563D01*
X89947323Y-58229065D01*
X90013913Y-58376016D01*
X90050575Y-58487189D01*
X90057800Y-58540918D01*
X90033012Y-58641460D01*
X89959536Y-58732699D01*
X89838702Y-58814209D01*
X89671838Y-58885565D01*
X89460275Y-58946341D01*
X89205343Y-58996114D01*
X88908371Y-59034457D01*
X88570690Y-59060946D01*
X88406800Y-59068845D01*
X88261625Y-59074119D01*
X88158096Y-59076019D01*
X88087126Y-59073778D01*
X88039625Y-59066631D01*
X88006507Y-59053814D01*
X87978685Y-59034562D01*
X87976269Y-59032602D01*
X87926757Y-58962523D01*
X87912715Y-58874625D01*
X87934771Y-58788061D01*
X87966784Y-58743527D01*
X87992005Y-58723117D01*
X88026506Y-58707667D01*
X88078592Y-58695801D01*
X88156564Y-58686145D01*
X88268725Y-58677321D01*
X88422714Y-58667993D01*
X88650851Y-58652267D01*
X88869215Y-58631858D01*
X89071820Y-58607743D01*
X89252684Y-58580897D01*
X89405821Y-58552297D01*
X89525249Y-58522919D01*
X89604983Y-58493740D01*
X89637067Y-58469841D01*
X89631247Y-58434947D01*
X89596230Y-58361485D01*
X89533372Y-58251470D01*
X89444034Y-58106916D01*
X89329573Y-57929837D01*
X89191348Y-57722248D01*
X89030717Y-57486163D01*
X88849040Y-57223597D01*
X88647674Y-56936565D01*
X88427978Y-56627080D01*
X88191311Y-56297157D01*
X87939031Y-55948811D01*
X87909462Y-55908186D01*
X87822495Y-55789252D01*
X87758935Y-55705303D01*
X87712305Y-55650243D01*
X87676127Y-55617980D01*
X87643922Y-55602417D01*
X87609215Y-55597460D01*
X87578760Y-55597036D01*
X87461138Y-55621118D01*
X87345535Y-55688980D01*
X87239683Y-55793927D01*
X87151314Y-55929260D01*
X87121436Y-55993157D01*
X87104691Y-56036638D01*
X87098133Y-56074115D01*
X87104256Y-56116967D01*
X87125555Y-56176571D01*
X87164526Y-56264305D01*
X87195566Y-56331180D01*
X87321246Y-56657084D01*
X87398317Y-56987141D01*
X87427492Y-57317303D01*
X87409488Y-57643524D01*
X87345016Y-57961755D01*
X87234792Y-58267950D01*
X87079529Y-58558062D01*
X86879942Y-58828044D01*
X86726224Y-58991357D01*
X86464133Y-59212314D01*
X86182247Y-59386507D01*
X85880073Y-59514149D01*
X85557115Y-59595459D01*
X85269787Y-59628089D01*
X84921398Y-59625326D01*
X84594020Y-59576514D01*
X84285939Y-59481005D01*
X83995439Y-59338147D01*
X83720808Y-59147292D01*
X83514293Y-58962500D01*
X83285000Y-58705939D01*
X83104552Y-58436970D01*
X82972059Y-58153543D01*
X82886633Y-57853607D01*
X82847386Y-57535112D01*
X82844429Y-57418199D01*
X83250975Y-57418199D01*
X83255552Y-57593182D01*
X83272674Y-57741503D01*
X83306491Y-57880713D01*
X83361156Y-58028361D01*
X83432093Y-58183970D01*
X83500996Y-58319501D01*
X83565593Y-58425645D01*
X83638759Y-58520823D01*
X83733368Y-58623453D01*
X83753932Y-58644405D01*
X83852262Y-58738514D01*
X83954819Y-58827513D01*
X84052717Y-58904601D01*
X84137069Y-58962979D01*
X84198988Y-58995847D01*
X84219476Y-59000600D01*
X84223162Y-58980204D01*
X84208549Y-58929521D01*
X84201803Y-58912515D01*
X84167311Y-58768377D01*
X84177491Y-58621739D01*
X84227602Y-58481896D01*
X84312905Y-58358144D01*
X84428659Y-58259780D01*
X84566578Y-58197116D01*
X84732081Y-58170599D01*
X84883086Y-58192488D01*
X85022329Y-58263491D01*
X85108473Y-58336957D01*
X85212780Y-58470044D01*
X85267980Y-58613719D01*
X85275232Y-58771217D01*
X85272415Y-58795080D01*
X85239240Y-58917455D01*
X85179056Y-59036401D01*
X85102265Y-59134264D01*
X85045646Y-59179896D01*
X84965100Y-59229010D01*
X85168300Y-59228664D01*
X85297102Y-59223189D01*
X85435737Y-59209211D01*
X85548571Y-59190809D01*
X85777816Y-59121999D01*
X86011128Y-59015519D01*
X86233326Y-58880124D01*
X86429232Y-58724567D01*
X86526184Y-58627047D01*
X86692838Y-58409302D01*
X86832533Y-58162169D01*
X86939266Y-57899101D01*
X87007034Y-57633550D01*
X87023668Y-57512222D01*
X87028190Y-57337496D01*
X87013568Y-57138136D01*
X86982315Y-56935463D01*
X86936943Y-56750794D01*
X86932120Y-56735370D01*
X86843746Y-56514954D01*
X86722212Y-56292807D01*
X86577047Y-56083187D01*
X86417777Y-55900347D01*
X86305907Y-55798288D01*
X86072546Y-55639566D01*
X85822646Y-55528065D01*
X85558975Y-55464018D01*
X85284307Y-55447659D01*
X85001411Y-55479222D01*
X84713059Y-55558942D01*
X84503989Y-55646115D01*
X84295974Y-55752606D01*
X84121497Y-55860029D01*
X83964251Y-55979118D01*
X83864015Y-56067443D01*
X83647291Y-56299385D01*
X83476996Y-56550385D01*
X83353767Y-56819041D01*
X83278240Y-57103950D01*
X83251053Y-57403711D01*
X83250975Y-57418199D01*
X82844429Y-57418199D01*
X82844391Y-57416732D01*
X82842698Y-57324736D01*
X82836281Y-57274138D01*
X82822751Y-57255590D01*
X82803835Y-57258054D01*
X82775126Y-57273072D01*
X82707235Y-57310545D01*
X82604896Y-57367776D01*
X82472844Y-57442070D01*
X82315813Y-57530734D01*
X82138540Y-57631070D01*
X81945758Y-57740384D01*
X81742202Y-57855982D01*
X81532608Y-57975167D01*
X81321709Y-58095245D01*
X81114241Y-58213520D01*
X80914938Y-58327298D01*
X80728536Y-58433882D01*
X80559768Y-58530579D01*
X80413371Y-58614692D01*
X80294078Y-58683527D01*
X80206624Y-58734389D01*
X80155745Y-58764582D01*
X80144675Y-58771712D01*
X80141092Y-58803820D01*
X78798005Y-58803820D01*
X78909434Y-58750297D01*
X79129883Y-58679401D01*
X79343344Y-58646585D01*
X79397330Y-58645000D01*
X79498004Y-58637784D01*
X79586627Y-58619069D01*
X79620598Y-58605762D01*
X79669589Y-58575301D01*
X79685837Y-58540437D01*
X79678283Y-58479928D01*
X79676723Y-58472412D01*
X79667215Y-58395880D01*
X79660714Y-58277934D01*
X79657059Y-58127859D01*
X79656089Y-57954944D01*
X79656711Y-57880238D01*
X80049938Y-57880238D01*
X80052542Y-58025615D01*
X80058553Y-58150773D01*
X80067826Y-58248321D01*
X80080217Y-58310868D01*
X80095582Y-58331023D01*
X80097742Y-58330172D01*
X80122111Y-58316273D01*
X80186722Y-58279456D01*
X80287674Y-58221943D01*
X80421067Y-58145956D01*
X80582998Y-58053718D01*
X80769567Y-57947450D01*
X80976873Y-57829375D01*
X81201015Y-57701715D01*
X81421800Y-57575970D01*
X81661888Y-57439293D01*
X81891766Y-57308543D01*
X82107115Y-57186169D01*
X82303616Y-57074620D01*
X82476952Y-56976345D01*
X82622803Y-56893792D01*
X82736851Y-56829410D01*
X82814777Y-56785648D01*
X82849493Y-56766435D01*
X82931421Y-56713460D01*
X82982481Y-56652786D01*
X83012530Y-56587600D01*
X83099035Y-56405875D01*
X83222055Y-56211540D01*
X83372872Y-56015106D01*
X83542769Y-55827086D01*
X83723027Y-55657991D01*
X83891862Y-55527252D01*
X84201402Y-55339213D01*
X84515212Y-55197462D01*
X84830162Y-55101938D01*
X85143122Y-55052582D01*
X85450962Y-55049330D01*
X85750549Y-55092123D01*
X86038755Y-55180899D01*
X86312448Y-55315597D01*
X86568498Y-55496156D01*
X86665462Y-55581380D01*
X86730762Y-55640421D01*
X86781264Y-55682533D01*
X86806034Y-55698599D01*
X86806036Y-55698600D01*
X86827691Y-55679021D01*
X86860825Y-55631133D01*
X86865326Y-55623640D01*
X86980625Y-55475360D01*
X87131898Y-55351422D01*
X87307299Y-55259021D01*
X87494983Y-55205350D01*
X87568626Y-55196493D01*
X87744486Y-55183911D01*
X87744567Y-55008255D01*
X88143045Y-55008255D01*
X88152923Y-55173410D01*
X88177000Y-55313563D01*
X88189567Y-55355700D01*
X88273369Y-55561992D01*
X88372086Y-55747536D01*
X88478118Y-55898310D01*
X88493336Y-55916098D01*
X88602081Y-56039678D01*
X88600022Y-55888140D01*
X88613252Y-55746149D01*
X88661590Y-55629217D01*
X88751527Y-55523956D01*
X88794539Y-55486985D01*
X88916431Y-55418966D01*
X89052657Y-55393350D01*
X89192238Y-55408496D01*
X89324193Y-55462764D01*
X89437542Y-55554514D01*
X89464768Y-55587114D01*
X89508944Y-55657784D01*
X89533630Y-55736758D01*
X89545345Y-55840509D01*
X89548066Y-55939224D01*
X89537834Y-56010735D01*
X89509975Y-56077960D01*
X89489430Y-56114649D01*
X89390414Y-56236653D01*
X89261348Y-56318107D01*
X89168800Y-56346986D01*
X89111891Y-56360258D01*
X89100455Y-56370496D01*
X89130211Y-56384943D01*
X89143400Y-56389991D01*
X89404614Y-56466499D01*
X89673684Y-56502985D01*
X89939522Y-56499096D01*
X90191038Y-56454478D01*
X90282002Y-56426262D01*
X90552785Y-56305291D01*
X90792014Y-56145454D01*
X90997062Y-55949568D01*
X91165302Y-55720447D01*
X91294106Y-55460910D01*
X91356129Y-55274719D01*
X91392938Y-55071123D01*
X91401937Y-54844587D01*
X91383882Y-54614181D01*
X91339526Y-54398972D01*
X91318874Y-54333472D01*
X91201603Y-54059532D01*
X91053251Y-53817535D01*
X90877178Y-53611544D01*
X90676745Y-53445623D01*
X90501036Y-53344427D01*
X90398261Y-53297969D01*
X90314913Y-53268580D01*
X90231264Y-53251610D01*
X90127589Y-53242410D01*
X90053444Y-53238918D01*
X89918998Y-53236285D01*
X89811099Y-53242767D01*
X89705885Y-53261181D01*
X89579495Y-53294345D01*
X89576432Y-53295222D01*
X89280009Y-53403035D01*
X89007114Y-53547784D01*
X88762365Y-53725317D01*
X88550378Y-53931481D01*
X88375771Y-54162125D01*
X88243160Y-54413097D01*
X88197036Y-54535732D01*
X88165259Y-54672119D01*
X88147210Y-54835392D01*
X88143045Y-55008255D01*
X87744567Y-55008255D01*
X87744600Y-54939605D01*
X87766478Y-54654912D01*
X87829305Y-54375768D01*
X87887800Y-54212420D01*
X87949076Y-54090357D01*
X88036548Y-53948655D01*
X88139732Y-53802822D01*
X88248145Y-53668365D01*
X88278951Y-53633839D01*
X88334995Y-53574342D01*
X88371801Y-53531504D01*
X88386053Y-53497510D01*
X88374432Y-53464544D01*
X88333620Y-53424791D01*
X88260301Y-53370436D01*
X88151157Y-53293664D01*
X88127400Y-53276824D01*
X88010941Y-53194413D01*
X87927678Y-53138732D01*
X87869198Y-53107365D01*
X87827088Y-53097898D01*
X87792937Y-53107915D01*
X87758331Y-53135000D01*
X87729561Y-53162601D01*
X87615643Y-53295835D01*
X87514846Y-53456114D01*
X87452997Y-53590400D01*
X87395559Y-53703927D01*
X87325455Y-53770611D01*
X87239359Y-53793546D01*
X87234431Y-53793600D01*
X87157939Y-53773108D01*
X87089130Y-53721583D01*
X87044228Y-53653951D01*
X87035510Y-53610604D01*
X87048584Y-53543467D01*
X87083277Y-53446467D01*
X87133561Y-53332358D01*
X87193408Y-53213895D01*
X87256788Y-53103832D01*
X87316110Y-53016942D01*
X87368005Y-52946681D01*
X87402922Y-52893549D01*
X87413674Y-52868530D01*
X87413437Y-52868203D01*
X87377822Y-52847260D01*
X87305564Y-52813949D01*
X87207906Y-52772853D01*
X87096092Y-52728559D01*
X86981366Y-52685651D01*
X86876495Y-52649218D01*
X86393933Y-52516280D01*
X85905475Y-52433648D01*
X85411932Y-52401272D01*
X84914115Y-52419102D01*
X84412834Y-52487088D01*
X83908899Y-52605182D01*
X83403123Y-52773333D01*
X83146223Y-52877704D01*
X82729634Y-53084207D01*
X82328596Y-53336565D01*
X81947230Y-53631135D01*
X81589655Y-53964276D01*
X81259990Y-54332345D01*
X80962355Y-54731699D01*
X80845340Y-54911981D01*
X80630766Y-55299175D01*
X80445171Y-55720662D01*
X80291661Y-56167019D01*
X80173342Y-56628823D01*
X80093323Y-57096648D01*
X80076487Y-57244341D01*
X80064016Y-57396692D01*
X80055530Y-57558385D01*
X80050886Y-57722031D01*
X80049938Y-57880238D01*
X79656711Y-57880238D01*
X79657644Y-57768475D01*
X79661561Y-57577739D01*
X79667679Y-57392022D01*
X79675838Y-57220611D01*
X79685876Y-57072793D01*
X79697632Y-56957854D01*
X79703711Y-56917800D01*
X79750290Y-56672895D01*
X79799683Y-56443223D01*
X79849283Y-56240099D01*
X79896480Y-56074839D01*
X79901793Y-56058292D01*
X79925343Y-55974017D01*
X79936257Y-55909129D01*
X79932372Y-55878161D01*
X79897070Y-55862741D01*
X79828750Y-55842891D01*
X79766757Y-55828314D01*
X79549529Y-55760002D01*
X79333580Y-55652088D01*
X79131250Y-55513034D01*
X78954877Y-55351303D01*
X78818424Y-55177900D01*
X78728315Y-55020468D01*
X78668218Y-54869628D01*
X78633329Y-54708350D01*
X78618846Y-54519604D01*
X78617856Y-54466700D01*
X78618320Y-54330612D01*
X78624644Y-54226056D01*
X78639541Y-54133857D01*
X78665727Y-54034843D01*
X78689777Y-53958700D01*
X78750741Y-53798671D01*
X78814514Y-53686218D01*
X78883610Y-53618116D01*
X78960542Y-53591143D01*
X78977018Y-53590400D01*
X79058402Y-53613136D01*
X79108802Y-53652199D01*
X79141675Y-53700337D01*
X79155277Y-53760389D01*
X79148949Y-53840856D01*
X79122031Y-53950241D01*
X79074450Y-54095374D01*
X79018394Y-54321786D01*
X79010500Y-54539365D01*
X79049939Y-54744514D01*
X79135883Y-54933638D01*
X79267505Y-55103141D01*
X79317539Y-55151218D01*
X79469795Y-55267629D01*
X79639480Y-55362905D01*
X79812957Y-55431023D01*
X79976590Y-55465959D01*
X80037500Y-55469292D01*
X80072667Y-55466308D01*
X80101208Y-55452004D01*
X80129398Y-55418187D01*
X80163515Y-55356662D01*
X80209835Y-55259236D01*
X80226975Y-55221943D01*
X80440564Y-54809306D01*
X80699537Y-54405742D01*
X81006083Y-54007992D01*
X81167239Y-53822104D01*
X81260763Y-53716951D01*
X81323727Y-53642747D01*
X81360191Y-53593264D01*
X81374217Y-53562274D01*
X81369867Y-53543550D01*
X81355692Y-53533117D01*
X81295684Y-53489723D01*
X81215260Y-53415670D01*
X81123856Y-53321406D01*
X81030907Y-53217376D01*
X80945847Y-53114026D01*
X80878112Y-53021805D01*
X80845239Y-52967919D01*
X80735492Y-52709339D01*
X80674286Y-52447111D01*
X80660995Y-52185817D01*
X80694996Y-51930037D01*
X80775665Y-51684352D01*
X80902378Y-51453344D01*
X81074510Y-51241594D01*
X81081387Y-51234550D01*
X81189787Y-51132040D01*
X81277059Y-51069965D01*
X81349955Y-51046296D01*
X81415225Y-51059001D01*
X81479624Y-51106051D01*
X81486454Y-51112745D01*
X81532379Y-51171220D01*
X81546906Y-51230065D01*
X81527889Y-51297141D01*
X81473181Y-51380307D01*
X81385604Y-51482020D01*
X81228515Y-51680914D01*
X81121627Y-51881857D01*
X81064344Y-52087472D01*
X81056068Y-52300383D01*
X81096204Y-52523213D01*
X81127067Y-52619592D01*
X81207866Y-52787496D01*
X81324441Y-52954110D01*
X81463988Y-53104054D01*
X81613703Y-53221949D01*
X81643998Y-53240479D01*
X81719466Y-53284258D01*
X81907183Y-53143299D01*
X82339076Y-52850352D01*
X82799970Y-52597482D01*
X83284243Y-52387592D01*
X83553623Y-52293102D01*
X83767747Y-52224027D01*
X83762123Y-51948363D01*
X83776511Y-51661594D01*
X83832254Y-51404188D01*
X83929752Y-51175450D01*
X84069406Y-50974687D01*
X84251615Y-50801205D01*
X84476781Y-50654310D01*
X84522831Y-50630169D01*
X84632997Y-50584200D01*
X84776395Y-50538309D01*
X84935660Y-50497104D01*
X85093426Y-50465192D01*
X85202120Y-50449939D01*
X85290536Y-50443284D01*
X85345850Y-50448564D01*
X85385001Y-50468964D01*
X85406324Y-50488324D01*
X85449317Y-50563678D01*
X85458749Y-50656627D01*
X85433324Y-50745532D01*
X85422739Y-50762664D01*
X85380233Y-50798884D01*
X85304547Y-50826833D01*
X85213189Y-50845904D01*
X84940894Y-50907631D01*
X84712148Y-50992619D01*
X84524659Y-51102237D01*
X84376135Y-51237854D01*
X84264284Y-51400839D01*
X84255442Y-51417875D01*
X84196481Y-51578373D01*
X84163247Y-51769234D01*
X84158103Y-51975712D01*
X84160249Y-52012105D01*
X84167032Y-52080482D01*
X84181687Y-52110079D01*
X84215423Y-52112808D01*
X84249149Y-52106571D01*
X84522553Y-52061310D01*
X84823536Y-52028690D01*
X85137109Y-52009290D01*
X85448283Y-52003688D01*
X85742068Y-52012462D01*
X86003475Y-52036190D01*
X86019200Y-52038293D01*
X86433307Y-52111996D01*
X86846922Y-52218091D01*
X87243559Y-52351812D01*
X87548187Y-52480422D01*
X87661255Y-52531816D01*
X87737623Y-52562126D01*
X87785615Y-52573792D01*
X87813556Y-52569256D01*
X87823139Y-52561049D01*
X87860235Y-52533225D01*
X87932900Y-52490997D01*
X88029973Y-52439877D01*
X88140290Y-52385378D01*
X88252689Y-52333013D01*
X88356006Y-52288293D01*
X88439079Y-52256731D01*
X88440011Y-52256420D01*
X88581431Y-52216478D01*
X88743025Y-52181921D01*
X88904341Y-52156376D01*
X89044925Y-52143469D01*
X89082134Y-52142600D01*
X89178700Y-52148870D01*
X89241529Y-52170503D01*
X89269753Y-52192753D01*
X89327333Y-52277761D01*
X89337044Y-52365665D01*
X89302873Y-52443051D01*
X89271726Y-52478373D01*
X89232807Y-52504806D01*
X89176578Y-52525367D01*
X89093498Y-52543075D01*
X88974027Y-52560949D01*
X88899621Y-52570643D01*
X88748678Y-52597255D01*
X88589148Y-52637835D01*
X88437307Y-52687301D01*
X88309428Y-52740572D01*
X88247936Y-52774150D01*
X88171948Y-52822262D01*
X88333824Y-52931123D01*
X88434514Y-53001502D01*
X88538018Y-53078065D01*
X88615543Y-53139082D01*
X88735386Y-53238179D01*
X88883510Y-53151366D01*
X89188945Y-52999422D01*
X89503730Y-52896841D01*
X89831601Y-52842496D01*
X89931117Y-52835526D01*
X90138026Y-52834131D01*
X90316959Y-52855032D01*
X90487336Y-52902256D01*
X90668583Y-52979827D01*
X90698332Y-52994542D01*
X90952974Y-53150332D01*
X91181860Y-53347485D01*
X91381889Y-53581896D01*
X91549958Y-53849457D01*
X91682967Y-54146063D01*
X91762473Y-54403200D01*
X91785747Y-54540557D01*
X91797734Y-54711117D01*
X91798801Y-54898637D01*
X91789315Y-55086874D01*
X91769643Y-55259586D01*
X91740153Y-55400529D01*
X91739903Y-55401399D01*
X91628820Y-55704369D01*
X91476870Y-55979967D01*
X91281158Y-56232866D01*
X91129239Y-56387169D01*
X91038278Y-56474002D01*
X90980679Y-56535366D01*
X90950935Y-56578505D01*
X90943539Y-56610660D01*
X90947142Y-56626661D01*
X90959526Y-56670666D01*
X90979149Y-56752993D01*
X91003381Y-56862130D01*
X91029591Y-56986566D01*
X91031311Y-56994961D01*
X91113796Y-57512692D01*
X91146906Y-58019029D01*
X91130496Y-58515106D01*
X91064422Y-59002057D01*
X90948539Y-59481017D01*
X90782703Y-59953121D01*
X90604533Y-60345537D01*
X90367943Y-60761478D01*
X90086808Y-61156850D01*
X89764080Y-61529100D01*
X89402715Y-61875672D01*
X89005665Y-62194012D01*
X88575884Y-62481565D01*
X88116325Y-62735776D01*
X87629942Y-62954091D01*
X87554417Y-62983753D01*
X87271666Y-63088667D01*
X87016142Y-63173655D01*
X86770674Y-63243484D01*
X86518093Y-63302919D01*
X86241230Y-63356726D01*
X86158900Y-63371110D01*
X85973891Y-63396104D01*
X85751772Y-63415402D01*
X85505949Y-63428694D01*
X85249826Y-63435672D01*
X84996807Y-63436025D01*
X84760296Y-63429445D01*
X84553698Y-63415621D01*
X84495200Y-63409514D01*
X83979515Y-63325653D01*
X83475514Y-63196061D01*
X82990359Y-63022843D01*
X82642742Y-62865352D01*
X82234169Y-62640455D01*
X81855376Y-62385972D01*
X81498969Y-62096090D01*
X81157556Y-61764998D01*
X80944965Y-61530473D01*
X80885862Y-61464336D01*
X80848328Y-61431715D01*
X80821735Y-61426831D01*
X80795456Y-61443907D01*
X80791779Y-61447193D01*
X80732669Y-61487383D01*
X80637617Y-61537370D01*
X80519126Y-61591661D01*
X80389699Y-61644761D01*
X80261837Y-61691177D01*
X80175491Y-61718016D01*
X80011583Y-61753868D01*
X79824769Y-61778181D01*
X79632953Y-61789850D01*
X79454040Y-61787771D01*
X79309311Y-61771486D01*
X79030451Y-61697378D01*
X78779123Y-61584490D01*
X78548460Y-61428989D01*
X78331596Y-61227038D01*
X78328554Y-61223787D01*
X78156578Y-61012371D01*
X78031057Y-60793861D01*
X77947659Y-60560158D01*
X77928004Y-60475181D01*
X77897948Y-60204304D01*
X77905630Y-60102158D01*
X78306157Y-60102158D01*
X78307672Y-60311774D01*
X78352327Y-60521547D01*
X78443235Y-60726303D01*
X78454460Y-60745422D01*
X78570192Y-60901686D01*
X78720125Y-61049666D01*
X78891815Y-61180207D01*
X79072816Y-61284153D01*
X79250684Y-61352350D01*
X79293719Y-61362850D01*
X79424176Y-61378945D01*
X79585569Y-61381757D01*
X79760149Y-61372516D01*
X79930169Y-61352449D01*
X80077881Y-61322787D01*
X80139100Y-61304293D01*
X80318763Y-61237500D01*
X80453275Y-61180423D01*
X80541080Y-61133770D01*
X80575474Y-61105891D01*
X80585154Y-61077317D01*
X80573263Y-61031942D01*
X80536435Y-60960357D01*
X80503822Y-60905570D01*
X80444278Y-60803943D01*
X80374906Y-60679237D01*
X80308180Y-60554017D01*
X80290613Y-60519863D01*
X80238400Y-60418783D01*
X80201893Y-60355596D01*
X80174152Y-60322721D01*
X80148235Y-60312579D01*
X80117205Y-60317588D01*
X80107905Y-60320298D01*
X79987737Y-60362048D01*
X79903059Y-60406710D01*
X79855334Y-60445101D01*
X79796456Y-60519990D01*
X79782691Y-60597335D01*
X79812294Y-60689781D01*
X79819565Y-60704199D01*
X79865074Y-60821657D01*
X79867166Y-60915258D01*
X79825889Y-60983812D01*
X79807859Y-60997517D01*
X79735305Y-61023531D01*
X79666879Y-61002073D01*
X79600488Y-60931931D01*
X79552211Y-60849494D01*
X79494576Y-60687172D01*
X79486318Y-60530171D01*
X79526131Y-60383480D01*
X79612705Y-60252088D01*
X79736511Y-60146353D01*
X79805068Y-60103060D01*
X79856608Y-60074382D01*
X79875101Y-60067400D01*
X79910915Y-60059139D01*
X79963571Y-60041136D01*
X80032649Y-60014872D01*
X79958874Y-59936408D01*
X79858619Y-59853554D01*
X79741226Y-59805782D01*
X79594071Y-59788305D01*
X79567571Y-59788000D01*
X79389948Y-59811561D01*
X79233292Y-59879993D01*
X79102675Y-59989917D01*
X79003168Y-60137955D01*
X78985864Y-60175515D01*
X78927730Y-60277336D01*
X78861771Y-60330207D01*
X78789091Y-60333509D01*
X78743140Y-60311717D01*
X78692932Y-60251974D01*
X78679955Y-60169112D01*
X78700329Y-60069849D01*
X78750172Y-59960906D01*
X78825604Y-59849003D01*
X78922744Y-59740859D01*
X79037711Y-59643194D01*
X79166624Y-59562727D01*
X79179487Y-59556205D01*
X79239572Y-59529311D01*
X79298926Y-59511743D01*
X79370642Y-59501592D01*
X79467813Y-59496949D01*
X79593000Y-59495900D01*
X79885100Y-59495900D01*
X79834300Y-59287865D01*
X79809120Y-59188525D01*
X79784473Y-59121939D01*
X79750324Y-59081538D01*
X79696634Y-59060756D01*
X79613370Y-59053023D01*
X79490494Y-59051771D01*
X79473505Y-59051746D01*
X79241971Y-59073846D01*
X79028672Y-59137495D01*
X78836722Y-59237517D01*
X78669233Y-59368740D01*
X78529319Y-59525990D01*
X78420093Y-59704092D01*
X78344668Y-59897872D01*
X78306157Y-60102158D01*
X77905630Y-60102158D01*
X77917872Y-59939386D01*
X77987088Y-59682713D01*
X84942068Y-54090822D02*
X85005614Y-54098064D01*
X85005614Y-54098064D02*
X85050125Y-54111174D01*
X85050125Y-54111174D02*
X85086183Y-54131559D01*
X85086183Y-54131559D02*
X85096556Y-54139023D01*
X85096556Y-54139023D02*
X85154628Y-54207767D01*
X85154628Y-54207767D02*
X85178895Y-54292206D01*
X85178895Y-54292206D02*
X85166999Y-54375076D01*
X85166999Y-54375076D02*
X85135391Y-54423408D01*
X85135391Y-54423408D02*
X85108194Y-54443871D01*
X85108194Y-54443871D02*
X85068010Y-54458836D01*
X85068010Y-54458836D02*
X85005848Y-54469774D01*
X85005848Y-54469774D02*
X84912716Y-54478152D01*
X84912716Y-54478152D02*
X84779623Y-54485441D01*
X84779623Y-54485441D02*
X84746594Y-54486933D01*
X84746594Y-54486933D02*
X84538705Y-54500409D01*
X84538705Y-54500409D02*
X84366442Y-54522795D01*
X84366442Y-54522795D02*
X84214921Y-54557579D01*
X84214921Y-54557579D02*
X84069259Y-54608248D01*
X84069259Y-54608248D02*
X83914572Y-54678289D01*
X83914572Y-54678289D02*
X83900779Y-54685124D01*
X83900779Y-54685124D02*
X83672290Y-54816286D01*
X83672290Y-54816286D02*
X83452997Y-54975005D01*
X83452997Y-54975005D02*
X83249920Y-55154025D01*
X83249920Y-55154025D02*
X83070081Y-55346090D01*
X83070081Y-55346090D02*
X82920502Y-55543944D01*
X82920502Y-55543944D02*
X82808203Y-55740334D01*
X82808203Y-55740334D02*
X82757685Y-55866341D01*
X82757685Y-55866341D02*
X82706316Y-55975199D01*
X82706316Y-55975199D02*
X82638632Y-56036058D01*
X82638632Y-56036058D02*
X82554859Y-56048807D01*
X82554859Y-56048807D02*
X82458594Y-56015185D01*
X82458594Y-56015185D02*
X82390717Y-55954169D01*
X82390717Y-55954169D02*
X82362751Y-55866023D01*
X82362751Y-55866023D02*
X82374860Y-55750117D01*
X82374860Y-55750117D02*
X82427207Y-55605819D01*
X82427207Y-55605819D02*
X82519956Y-55432500D01*
X82519956Y-55432500D02*
X82653271Y-55229527D01*
X82653271Y-55229527D02*
X82667370Y-55209635D01*
X82667370Y-55209635D02*
X82863159Y-54971126D01*
X82863159Y-54971126D02*
X83097738Y-54745627D01*
X83097738Y-54745627D02*
X83359237Y-54542381D01*
X83359237Y-54542381D02*
X83635785Y-54370628D01*
X83635785Y-54370628D02*
X83911000Y-54241367D01*
X83911000Y-54241367D02*
X84105830Y-54172026D01*
X84105830Y-54172026D02*
X84282250Y-54126200D01*
X84282250Y-54126200D02*
X84461370Y-54099872D01*
X84461370Y-54099872D02*
X84664305Y-54089025D01*
X84664305Y-54089025D02*
X84715556Y-54088306D01*
X84715556Y-54088306D02*
X84848909Y-54088039D01*
X84848909Y-54088039D02*
X84942068Y-54090822D01*
X84942068Y-54090822D02*
X84942068Y-54090822D01*
G36*
X84942068Y-54090822D02*
G01*
X85005614Y-54098064D01*
X85050125Y-54111174D01*
X85086183Y-54131559D01*
X85096556Y-54139023D01*
X85154628Y-54207767D01*
X85178895Y-54292206D01*
X85166999Y-54375076D01*
X85135391Y-54423408D01*
X85108194Y-54443871D01*
X85068010Y-54458836D01*
X85005848Y-54469774D01*
X84912716Y-54478152D01*
X84779623Y-54485441D01*
X84746594Y-54486933D01*
X84538705Y-54500409D01*
X84366442Y-54522795D01*
X84214921Y-54557579D01*
X84069259Y-54608248D01*
X83914572Y-54678289D01*
X83900779Y-54685124D01*
X83672290Y-54816286D01*
X83452997Y-54975005D01*
X83249920Y-55154025D01*
X83070081Y-55346090D01*
X82920502Y-55543944D01*
X82808203Y-55740334D01*
X82757685Y-55866341D01*
X82706316Y-55975199D01*
X82638632Y-56036058D01*
X82554859Y-56048807D01*
X82458594Y-56015185D01*
X82390717Y-55954169D01*
X82362751Y-55866023D01*
X82374860Y-55750117D01*
X82427207Y-55605819D01*
X82519956Y-55432500D01*
X82653271Y-55229527D01*
X82667370Y-55209635D01*
X82863159Y-54971126D01*
X83097738Y-54745627D01*
X83359237Y-54542381D01*
X83635785Y-54370628D01*
X83911000Y-54241367D01*
X84105830Y-54172026D01*
X84282250Y-54126200D01*
X84461370Y-54099872D01*
X84664305Y-54089025D01*
X84715556Y-54088306D01*
X84848909Y-54088039D01*
X84942068Y-54090822D01*
G37*
X84942068Y-54090822D02*
X85005614Y-54098064D01*
X85050125Y-54111174D01*
X85086183Y-54131559D01*
X85096556Y-54139023D01*
X85154628Y-54207767D01*
X85178895Y-54292206D01*
X85166999Y-54375076D01*
X85135391Y-54423408D01*
X85108194Y-54443871D01*
X85068010Y-54458836D01*
X85005848Y-54469774D01*
X84912716Y-54478152D01*
X84779623Y-54485441D01*
X84746594Y-54486933D01*
X84538705Y-54500409D01*
X84366442Y-54522795D01*
X84214921Y-54557579D01*
X84069259Y-54608248D01*
X83914572Y-54678289D01*
X83900779Y-54685124D01*
X83672290Y-54816286D01*
X83452997Y-54975005D01*
X83249920Y-55154025D01*
X83070081Y-55346090D01*
X82920502Y-55543944D01*
X82808203Y-55740334D01*
X82757685Y-55866341D01*
X82706316Y-55975199D01*
X82638632Y-56036058D01*
X82554859Y-56048807D01*
X82458594Y-56015185D01*
X82390717Y-55954169D01*
X82362751Y-55866023D01*
X82374860Y-55750117D01*
X82427207Y-55605819D01*
X82519956Y-55432500D01*
X82653271Y-55229527D01*
X82667370Y-55209635D01*
X82863159Y-54971126D01*
X83097738Y-54745627D01*
X83359237Y-54542381D01*
X83635785Y-54370628D01*
X83911000Y-54241367D01*
X84105830Y-54172026D01*
X84282250Y-54126200D01*
X84461370Y-54099872D01*
X84664305Y-54089025D01*
X84715556Y-54088306D01*
X84848909Y-54088039D01*
X84942068Y-54090822D01*
X84447081Y-61195800D02*
X84537021Y-61224035D01*
X84537021Y-61224035D02*
X84626885Y-61261178D01*
X84626885Y-61261178D02*
X84813357Y-61332425D01*
X84813357Y-61332425D02*
X85040752Y-61390300D01*
X85040752Y-61390300D02*
X85311926Y-61435394D01*
X85311926Y-61435394D02*
X85625500Y-61467963D01*
X85625500Y-61467963D02*
X85878653Y-61482166D01*
X85878653Y-61482166D02*
X86096703Y-61480208D01*
X86096703Y-61480208D02*
X86293097Y-61460877D01*
X86293097Y-61460877D02*
X86481284Y-61422959D01*
X86481284Y-61422959D02*
X86641150Y-61376416D01*
X86641150Y-61376416D02*
X86748155Y-61343663D01*
X86748155Y-61343663D02*
X86821034Y-61328031D01*
X86821034Y-61328031D02*
X86872802Y-61327709D01*
X86872802Y-61327709D02*
X86911610Y-61338812D01*
X86911610Y-61338812D02*
X86981460Y-61392733D01*
X86981460Y-61392733D02*
X87020717Y-61474251D01*
X87020717Y-61474251D02*
X87021717Y-61565634D01*
X87021717Y-61565634D02*
X87016958Y-61582624D01*
X87016958Y-61582624D02*
X86969554Y-61649471D01*
X86969554Y-61649471D02*
X86877760Y-61710340D01*
X86877760Y-61710340D02*
X86747757Y-61764051D01*
X86747757Y-61764051D02*
X86585729Y-61809423D01*
X86585729Y-61809423D02*
X86397856Y-61845279D01*
X86397856Y-61845279D02*
X86190323Y-61870438D01*
X86190323Y-61870438D02*
X85969310Y-61883721D01*
X85969310Y-61883721D02*
X85741000Y-61883948D01*
X85741000Y-61883948D02*
X85511576Y-61869940D01*
X85511576Y-61869940D02*
X85511200Y-61869905D01*
X85511200Y-61869905D02*
X85278317Y-61841406D01*
X85278317Y-61841406D02*
X85049262Y-61801305D01*
X85049262Y-61801305D02*
X84832395Y-61751900D01*
X84832395Y-61751900D02*
X84636079Y-61695491D01*
X84636079Y-61695491D02*
X84468673Y-61634377D01*
X84468673Y-61634377D02*
X84338540Y-61570857D01*
X84338540Y-61570857D02*
X84280570Y-61531537D01*
X84280570Y-61531537D02*
X84222483Y-61459041D01*
X84222483Y-61459041D02*
X84202709Y-61376171D01*
X84202709Y-61376171D02*
X84217587Y-61295434D01*
X84217587Y-61295434D02*
X84263459Y-61229337D01*
X84263459Y-61229337D02*
X84336663Y-61190386D01*
X84336663Y-61190386D02*
X84381984Y-61185000D01*
X84381984Y-61185000D02*
X84447081Y-61195800D01*
X84447081Y-61195800D02*
X84447081Y-61195800D01*
G36*
X84447081Y-61195800D02*
G01*
X84537021Y-61224035D01*
X84626885Y-61261178D01*
X84813357Y-61332425D01*
X85040752Y-61390300D01*
X85311926Y-61435394D01*
X85625500Y-61467963D01*
X85878653Y-61482166D01*
X86096703Y-61480208D01*
X86293097Y-61460877D01*
X86481284Y-61422959D01*
X86641150Y-61376416D01*
X86748155Y-61343663D01*
X86821034Y-61328031D01*
X86872802Y-61327709D01*
X86911610Y-61338812D01*
X86981460Y-61392733D01*
X87020717Y-61474251D01*
X87021717Y-61565634D01*
X87016958Y-61582624D01*
X86969554Y-61649471D01*
X86877760Y-61710340D01*
X86747757Y-61764051D01*
X86585729Y-61809423D01*
X86397856Y-61845279D01*
X86190323Y-61870438D01*
X85969310Y-61883721D01*
X85741000Y-61883948D01*
X85511576Y-61869940D01*
X85511200Y-61869905D01*
X85278317Y-61841406D01*
X85049262Y-61801305D01*
X84832395Y-61751900D01*
X84636079Y-61695491D01*
X84468673Y-61634377D01*
X84338540Y-61570857D01*
X84280570Y-61531537D01*
X84222483Y-61459041D01*
X84202709Y-61376171D01*
X84217587Y-61295434D01*
X84263459Y-61229337D01*
X84336663Y-61190386D01*
X84381984Y-61185000D01*
X84447081Y-61195800D01*
G37*
X84447081Y-61195800D02*
X84537021Y-61224035D01*
X84626885Y-61261178D01*
X84813357Y-61332425D01*
X85040752Y-61390300D01*
X85311926Y-61435394D01*
X85625500Y-61467963D01*
X85878653Y-61482166D01*
X86096703Y-61480208D01*
X86293097Y-61460877D01*
X86481284Y-61422959D01*
X86641150Y-61376416D01*
X86748155Y-61343663D01*
X86821034Y-61328031D01*
X86872802Y-61327709D01*
X86911610Y-61338812D01*
X86981460Y-61392733D01*
X87020717Y-61474251D01*
X87021717Y-61565634D01*
X87016958Y-61582624D01*
X86969554Y-61649471D01*
X86877760Y-61710340D01*
X86747757Y-61764051D01*
X86585729Y-61809423D01*
X86397856Y-61845279D01*
X86190323Y-61870438D01*
X85969310Y-61883721D01*
X85741000Y-61883948D01*
X85511576Y-61869940D01*
X85511200Y-61869905D01*
X85278317Y-61841406D01*
X85049262Y-61801305D01*
X84832395Y-61751900D01*
X84636079Y-61695491D01*
X84468673Y-61634377D01*
X84338540Y-61570857D01*
X84280570Y-61531537D01*
X84222483Y-61459041D01*
X84202709Y-61376171D01*
X84217587Y-61295434D01*
X84263459Y-61229337D01*
X84336663Y-61190386D01*
X84381984Y-61185000D01*
X84447081Y-61195800D01*
%TD*%
M02*
