%TF.GenerationSoftware,KiCad,Pcbnew,(6.0.1)*%
%TF.CreationDate,2022-10-28T09:23:44-07:00*%
%TF.ProjectId,BonkDaddy2HP_Panel,426f6e6b-4461-4646-9479-3248505f5061,rev?*%
%TF.SameCoordinates,Original*%
%TF.FileFunction,Legend,Top*%
%TF.FilePolarity,Positive*%
%FSLAX46Y46*%
G04 Gerber Fmt 4.6, Leading zero omitted, Abs format (unit mm)*
G04 Created by KiCad (PCBNEW (6.0.1)) date 2022-10-28 09:23:44*
%MOMM*%
%LPD*%
G01*
G04 APERTURE LIST*
%ADD10C,0.150000*%
%ADD11C,0.500000*%
%ADD12C,0.300000*%
%ADD13C,0.100000*%
%ADD14C,0.250000*%
%ADD15C,0.010000*%
G04 APERTURE END LIST*
D10*
X58525000Y-59893000D02*
X51525000Y-59893000D01*
D11*
X53300000Y-153040000D02*
X56700000Y-153040000D01*
X53300000Y-153040000D02*
X53300000Y-144940000D01*
X56700000Y-153040000D02*
X56700000Y-144940000D01*
D10*
X51525000Y-68575000D02*
X58525000Y-68575000D01*
X51525000Y-59893000D02*
X51525000Y-68575000D01*
X58525000Y-68575000D02*
X58525000Y-59893000D01*
D11*
X53300000Y-144940000D02*
X56700000Y-144940000D01*
D12*
X53857142Y-85178571D02*
X54714285Y-85178571D01*
X54285714Y-86678571D02*
X54285714Y-85178571D01*
X56000000Y-86678571D02*
X55142857Y-86678571D01*
X55571428Y-86678571D02*
X55571428Y-85178571D01*
X55428571Y-85392857D01*
X55285714Y-85535714D01*
X55142857Y-85607142D01*
D10*
X52047619Y-126495000D02*
X51952380Y-126447380D01*
X51809523Y-126447380D01*
X51666666Y-126495000D01*
X51571428Y-126590238D01*
X51523809Y-126685476D01*
X51476190Y-126875952D01*
X51476190Y-127018809D01*
X51523809Y-127209285D01*
X51571428Y-127304523D01*
X51666666Y-127399761D01*
X51809523Y-127447380D01*
X51904761Y-127447380D01*
X52047619Y-127399761D01*
X52095238Y-127352142D01*
X52095238Y-127018809D01*
X51904761Y-127018809D01*
X52523809Y-127447380D02*
X52523809Y-126780714D01*
X52523809Y-126971190D02*
X52571428Y-126875952D01*
X52619047Y-126828333D01*
X52714285Y-126780714D01*
X52809523Y-126780714D01*
X53523809Y-127399761D02*
X53428571Y-127447380D01*
X53238095Y-127447380D01*
X53142857Y-127399761D01*
X53095238Y-127304523D01*
X53095238Y-126923571D01*
X53142857Y-126828333D01*
X53238095Y-126780714D01*
X53428571Y-126780714D01*
X53523809Y-126828333D01*
X53571428Y-126923571D01*
X53571428Y-127018809D01*
X53095238Y-127114047D01*
X54380952Y-127399761D02*
X54285714Y-127447380D01*
X54095238Y-127447380D01*
X54000000Y-127399761D01*
X53952380Y-127304523D01*
X53952380Y-126923571D01*
X54000000Y-126828333D01*
X54095238Y-126780714D01*
X54285714Y-126780714D01*
X54380952Y-126828333D01*
X54428571Y-126923571D01*
X54428571Y-127018809D01*
X53952380Y-127114047D01*
X54857142Y-126780714D02*
X54857142Y-127447380D01*
X54857142Y-126875952D02*
X54904761Y-126828333D01*
X55000000Y-126780714D01*
X55142857Y-126780714D01*
X55238095Y-126828333D01*
X55285714Y-126923571D01*
X55285714Y-127447380D01*
X55619047Y-126780714D02*
X56000000Y-126780714D01*
X55761904Y-127447380D02*
X55761904Y-126590238D01*
X55809523Y-126495000D01*
X55904761Y-126447380D01*
X56000000Y-126447380D01*
X56761904Y-127447380D02*
X56761904Y-126923571D01*
X56714285Y-126828333D01*
X56619047Y-126780714D01*
X56428571Y-126780714D01*
X56333333Y-126828333D01*
X56761904Y-127399761D02*
X56666666Y-127447380D01*
X56428571Y-127447380D01*
X56333333Y-127399761D01*
X56285714Y-127304523D01*
X56285714Y-127209285D01*
X56333333Y-127114047D01*
X56428571Y-127066428D01*
X56666666Y-127066428D01*
X56761904Y-127018809D01*
X57666666Y-127399761D02*
X57571428Y-127447380D01*
X57380952Y-127447380D01*
X57285714Y-127399761D01*
X57238095Y-127352142D01*
X57190476Y-127256904D01*
X57190476Y-126971190D01*
X57238095Y-126875952D01*
X57285714Y-126828333D01*
X57380952Y-126780714D01*
X57571428Y-126780714D01*
X57666666Y-126828333D01*
X58476190Y-127399761D02*
X58380952Y-127447380D01*
X58190476Y-127447380D01*
X58095238Y-127399761D01*
X58047619Y-127304523D01*
X58047619Y-126923571D01*
X58095238Y-126828333D01*
X58190476Y-126780714D01*
X58380952Y-126780714D01*
X58476190Y-126828333D01*
X58523809Y-126923571D01*
X58523809Y-127018809D01*
X58047619Y-127114047D01*
X54000000Y-129057380D02*
X53523809Y-129057380D01*
X53523809Y-128057380D01*
X54761904Y-129057380D02*
X54761904Y-128533571D01*
X54714285Y-128438333D01*
X54619047Y-128390714D01*
X54428571Y-128390714D01*
X54333333Y-128438333D01*
X54761904Y-129009761D02*
X54666666Y-129057380D01*
X54428571Y-129057380D01*
X54333333Y-129009761D01*
X54285714Y-128914523D01*
X54285714Y-128819285D01*
X54333333Y-128724047D01*
X54428571Y-128676428D01*
X54666666Y-128676428D01*
X54761904Y-128628809D01*
X55238095Y-129057380D02*
X55238095Y-128057380D01*
X55238095Y-128438333D02*
X55333333Y-128390714D01*
X55523809Y-128390714D01*
X55619047Y-128438333D01*
X55666666Y-128485952D01*
X55714285Y-128581190D01*
X55714285Y-128866904D01*
X55666666Y-128962142D01*
X55619047Y-129009761D01*
X55523809Y-129057380D01*
X55333333Y-129057380D01*
X55238095Y-129009761D01*
X56095238Y-129009761D02*
X56190476Y-129057380D01*
X56380952Y-129057380D01*
X56476190Y-129009761D01*
X56523809Y-128914523D01*
X56523809Y-128866904D01*
X56476190Y-128771666D01*
X56380952Y-128724047D01*
X56238095Y-128724047D01*
X56142857Y-128676428D01*
X56095238Y-128581190D01*
X56095238Y-128533571D01*
X56142857Y-128438333D01*
X56238095Y-128390714D01*
X56380952Y-128390714D01*
X56476190Y-128438333D01*
D12*
X53067857Y-67221571D02*
X52567857Y-66507285D01*
X52210714Y-67221571D02*
X52210714Y-65721571D01*
X52782142Y-65721571D01*
X52925000Y-65793000D01*
X52996428Y-65864428D01*
X53067857Y-66007285D01*
X53067857Y-66221571D01*
X52996428Y-66364428D01*
X52925000Y-66435857D01*
X52782142Y-66507285D01*
X52210714Y-66507285D01*
X54282142Y-67150142D02*
X54139285Y-67221571D01*
X53853571Y-67221571D01*
X53710714Y-67150142D01*
X53639285Y-67007285D01*
X53639285Y-66435857D01*
X53710714Y-66293000D01*
X53853571Y-66221571D01*
X54139285Y-66221571D01*
X54282142Y-66293000D01*
X54353571Y-66435857D01*
X54353571Y-66578714D01*
X53639285Y-66721571D01*
X54925000Y-67150142D02*
X55067857Y-67221571D01*
X55353571Y-67221571D01*
X55496428Y-67150142D01*
X55567857Y-67007285D01*
X55567857Y-66935857D01*
X55496428Y-66793000D01*
X55353571Y-66721571D01*
X55139285Y-66721571D01*
X54996428Y-66650142D01*
X54925000Y-66507285D01*
X54925000Y-66435857D01*
X54996428Y-66293000D01*
X55139285Y-66221571D01*
X55353571Y-66221571D01*
X55496428Y-66293000D01*
X56782142Y-67150142D02*
X56639285Y-67221571D01*
X56353571Y-67221571D01*
X56210714Y-67150142D01*
X56139285Y-67007285D01*
X56139285Y-66435857D01*
X56210714Y-66293000D01*
X56353571Y-66221571D01*
X56639285Y-66221571D01*
X56782142Y-66293000D01*
X56853571Y-66435857D01*
X56853571Y-66578714D01*
X56139285Y-66721571D01*
X57282142Y-66221571D02*
X57853571Y-66221571D01*
X57496428Y-65721571D02*
X57496428Y-67007285D01*
X57567857Y-67150142D01*
X57710714Y-67221571D01*
X57853571Y-67221571D01*
D13*
X52517857Y-58313428D02*
X52517857Y-57713428D01*
X52746428Y-57713428D01*
X52803571Y-57742000D01*
X52832142Y-57770571D01*
X52860714Y-57827714D01*
X52860714Y-57913428D01*
X52832142Y-57970571D01*
X52803571Y-57999142D01*
X52746428Y-58027714D01*
X52517857Y-58027714D01*
X53117857Y-58313428D02*
X53117857Y-57913428D01*
X53117857Y-58027714D02*
X53146428Y-57970571D01*
X53175000Y-57942000D01*
X53232142Y-57913428D01*
X53289285Y-57913428D01*
X53717857Y-58284857D02*
X53660714Y-58313428D01*
X53546428Y-58313428D01*
X53489285Y-58284857D01*
X53460714Y-58227714D01*
X53460714Y-57999142D01*
X53489285Y-57942000D01*
X53546428Y-57913428D01*
X53660714Y-57913428D01*
X53717857Y-57942000D01*
X53746428Y-57999142D01*
X53746428Y-58056285D01*
X53460714Y-58113428D01*
X53975000Y-58284857D02*
X54032142Y-58313428D01*
X54146428Y-58313428D01*
X54203571Y-58284857D01*
X54232142Y-58227714D01*
X54232142Y-58199142D01*
X54203571Y-58142000D01*
X54146428Y-58113428D01*
X54060714Y-58113428D01*
X54003571Y-58084857D01*
X53975000Y-58027714D01*
X53975000Y-57999142D01*
X54003571Y-57942000D01*
X54060714Y-57913428D01*
X54146428Y-57913428D01*
X54203571Y-57942000D01*
X54460714Y-58284857D02*
X54517857Y-58313428D01*
X54632142Y-58313428D01*
X54689285Y-58284857D01*
X54717857Y-58227714D01*
X54717857Y-58199142D01*
X54689285Y-58142000D01*
X54632142Y-58113428D01*
X54546428Y-58113428D01*
X54489285Y-58084857D01*
X54460714Y-58027714D01*
X54460714Y-57999142D01*
X54489285Y-57942000D01*
X54546428Y-57913428D01*
X54632142Y-57913428D01*
X54689285Y-57942000D01*
X55346428Y-57913428D02*
X55575000Y-57913428D01*
X55432142Y-57713428D02*
X55432142Y-58227714D01*
X55460714Y-58284857D01*
X55517857Y-58313428D01*
X55575000Y-58313428D01*
X55717857Y-57913428D02*
X55832142Y-58313428D01*
X55946428Y-58027714D01*
X56060714Y-58313428D01*
X56175000Y-57913428D01*
X56403571Y-58313428D02*
X56403571Y-57913428D01*
X56403571Y-57713428D02*
X56375000Y-57742000D01*
X56403571Y-57770571D01*
X56432142Y-57742000D01*
X56403571Y-57713428D01*
X56403571Y-57770571D01*
X56946428Y-58284857D02*
X56889285Y-58313428D01*
X56775000Y-58313428D01*
X56717857Y-58284857D01*
X56689285Y-58256285D01*
X56660714Y-58199142D01*
X56660714Y-58027714D01*
X56689285Y-57970571D01*
X56717857Y-57942000D01*
X56775000Y-57913428D01*
X56889285Y-57913428D01*
X56946428Y-57942000D01*
X57432142Y-58284857D02*
X57375000Y-58313428D01*
X57260714Y-58313428D01*
X57203571Y-58284857D01*
X57175000Y-58227714D01*
X57175000Y-57999142D01*
X57203571Y-57942000D01*
X57260714Y-57913428D01*
X57375000Y-57913428D01*
X57432142Y-57942000D01*
X57460714Y-57999142D01*
X57460714Y-58056285D01*
X57175000Y-58113428D01*
X51775000Y-58879428D02*
X52003571Y-58879428D01*
X51860714Y-59279428D02*
X51860714Y-58765142D01*
X51889285Y-58708000D01*
X51946428Y-58679428D01*
X52003571Y-58679428D01*
X52289285Y-59279428D02*
X52232142Y-59250857D01*
X52203571Y-59222285D01*
X52175000Y-59165142D01*
X52175000Y-58993714D01*
X52203571Y-58936571D01*
X52232142Y-58908000D01*
X52289285Y-58879428D01*
X52375000Y-58879428D01*
X52432142Y-58908000D01*
X52460714Y-58936571D01*
X52489285Y-58993714D01*
X52489285Y-59165142D01*
X52460714Y-59222285D01*
X52432142Y-59250857D01*
X52375000Y-59279428D01*
X52289285Y-59279428D01*
X52746428Y-59279428D02*
X52746428Y-58879428D01*
X52746428Y-58993714D02*
X52775000Y-58936571D01*
X52803571Y-58908000D01*
X52860714Y-58879428D01*
X52917857Y-58879428D01*
X53575000Y-59279428D02*
X53575000Y-58679428D01*
X53575000Y-58908000D02*
X53632142Y-58879428D01*
X53746428Y-58879428D01*
X53803571Y-58908000D01*
X53832142Y-58936571D01*
X53860714Y-58993714D01*
X53860714Y-59165142D01*
X53832142Y-59222285D01*
X53803571Y-59250857D01*
X53746428Y-59279428D01*
X53632142Y-59279428D01*
X53575000Y-59250857D01*
X54203571Y-59279428D02*
X54146428Y-59250857D01*
X54117857Y-59222285D01*
X54089285Y-59165142D01*
X54089285Y-58993714D01*
X54117857Y-58936571D01*
X54146428Y-58908000D01*
X54203571Y-58879428D01*
X54289285Y-58879428D01*
X54346428Y-58908000D01*
X54375000Y-58936571D01*
X54403571Y-58993714D01*
X54403571Y-59165142D01*
X54375000Y-59222285D01*
X54346428Y-59250857D01*
X54289285Y-59279428D01*
X54203571Y-59279428D01*
X54746428Y-59279428D02*
X54689285Y-59250857D01*
X54660714Y-59222285D01*
X54632142Y-59165142D01*
X54632142Y-58993714D01*
X54660714Y-58936571D01*
X54689285Y-58908000D01*
X54746428Y-58879428D01*
X54832142Y-58879428D01*
X54889285Y-58908000D01*
X54917857Y-58936571D01*
X54946428Y-58993714D01*
X54946428Y-59165142D01*
X54917857Y-59222285D01*
X54889285Y-59250857D01*
X54832142Y-59279428D01*
X54746428Y-59279428D01*
X55117857Y-58879428D02*
X55346428Y-58879428D01*
X55203571Y-58679428D02*
X55203571Y-59193714D01*
X55232142Y-59250857D01*
X55289285Y-59279428D01*
X55346428Y-59279428D01*
X55632142Y-59279428D02*
X55575000Y-59250857D01*
X55546428Y-59193714D01*
X55546428Y-58679428D01*
X55946428Y-59279428D02*
X55889285Y-59250857D01*
X55860714Y-59222285D01*
X55832142Y-59165142D01*
X55832142Y-58993714D01*
X55860714Y-58936571D01*
X55889285Y-58908000D01*
X55946428Y-58879428D01*
X56032142Y-58879428D01*
X56089285Y-58908000D01*
X56117857Y-58936571D01*
X56146428Y-58993714D01*
X56146428Y-59165142D01*
X56117857Y-59222285D01*
X56089285Y-59250857D01*
X56032142Y-59279428D01*
X55946428Y-59279428D01*
X56660714Y-59279428D02*
X56660714Y-58965142D01*
X56632142Y-58908000D01*
X56575000Y-58879428D01*
X56460714Y-58879428D01*
X56403571Y-58908000D01*
X56660714Y-59250857D02*
X56603571Y-59279428D01*
X56460714Y-59279428D01*
X56403571Y-59250857D01*
X56375000Y-59193714D01*
X56375000Y-59136571D01*
X56403571Y-59079428D01*
X56460714Y-59050857D01*
X56603571Y-59050857D01*
X56660714Y-59022285D01*
X57203571Y-59279428D02*
X57203571Y-58679428D01*
X57203571Y-59250857D02*
X57146428Y-59279428D01*
X57032142Y-59279428D01*
X56975000Y-59250857D01*
X56946428Y-59222285D01*
X56917857Y-59165142D01*
X56917857Y-58993714D01*
X56946428Y-58936571D01*
X56975000Y-58908000D01*
X57032142Y-58879428D01*
X57146428Y-58879428D01*
X57203571Y-58908000D01*
X57717857Y-59250857D02*
X57660714Y-59279428D01*
X57546428Y-59279428D01*
X57489285Y-59250857D01*
X57460714Y-59193714D01*
X57460714Y-58965142D01*
X57489285Y-58908000D01*
X57546428Y-58879428D01*
X57660714Y-58879428D01*
X57717857Y-58908000D01*
X57746428Y-58965142D01*
X57746428Y-59022285D01*
X57460714Y-59079428D01*
X58003571Y-59279428D02*
X58003571Y-58879428D01*
X58003571Y-58993714D02*
X58032142Y-58936571D01*
X58060714Y-58908000D01*
X58117857Y-58879428D01*
X58175000Y-58879428D01*
D12*
X51503571Y-150903571D02*
X52503571Y-150903571D01*
X51503571Y-151546428D02*
X52289285Y-151546428D01*
X52432142Y-151475000D01*
X52503571Y-151332142D01*
X52503571Y-151117857D01*
X52432142Y-150975000D01*
X52360714Y-150903571D01*
X51003571Y-150189285D02*
X52217857Y-150189285D01*
X52360714Y-150117857D01*
X52432142Y-150046428D01*
X52503571Y-149903571D01*
X52503571Y-149617857D01*
X52432142Y-149475000D01*
X52360714Y-149403571D01*
X52217857Y-149332142D01*
X51003571Y-149332142D01*
X52432142Y-148689285D02*
X52503571Y-148475000D01*
X52503571Y-148117857D01*
X52432142Y-147975000D01*
X52360714Y-147903571D01*
X52217857Y-147832142D01*
X52075000Y-147832142D01*
X51932142Y-147903571D01*
X51860714Y-147975000D01*
X51789285Y-148117857D01*
X51717857Y-148403571D01*
X51646428Y-148546428D01*
X51575000Y-148617857D01*
X51432142Y-148689285D01*
X51289285Y-148689285D01*
X51146428Y-148617857D01*
X51075000Y-148546428D01*
X51003571Y-148403571D01*
X51003571Y-148046428D01*
X51075000Y-147832142D01*
X51717857Y-146689285D02*
X51789285Y-146475000D01*
X51860714Y-146403571D01*
X52003571Y-146332142D01*
X52217857Y-146332142D01*
X52360714Y-146403571D01*
X52432142Y-146475000D01*
X52503571Y-146617857D01*
X52503571Y-147189285D01*
X51003571Y-147189285D01*
X51003571Y-146689285D01*
X51075000Y-146546428D01*
X51146428Y-146475000D01*
X51289285Y-146403571D01*
X51432142Y-146403571D01*
X51575000Y-146475000D01*
X51646428Y-146546428D01*
X51717857Y-146689285D01*
X51717857Y-147189285D01*
X50428571Y-105178571D02*
X51285714Y-105178571D01*
X50857142Y-106678571D02*
X50857142Y-105178571D01*
X51642857Y-105178571D02*
X52571428Y-105178571D01*
X52071428Y-105750000D01*
X52285714Y-105750000D01*
X52428571Y-105821428D01*
X52500000Y-105892857D01*
X52571428Y-106035714D01*
X52571428Y-106392857D01*
X52500000Y-106535714D01*
X52428571Y-106607142D01*
X52285714Y-106678571D01*
X51857142Y-106678571D01*
X51714285Y-106607142D01*
X51642857Y-106535714D01*
X54285714Y-105107142D02*
X53000000Y-107035714D01*
X55500000Y-106678571D02*
X54785714Y-106678571D01*
X54785714Y-105178571D01*
X56214285Y-106678571D02*
X56071428Y-106607142D01*
X56000000Y-106535714D01*
X55928571Y-106392857D01*
X55928571Y-105964285D01*
X56000000Y-105821428D01*
X56071428Y-105750000D01*
X56214285Y-105678571D01*
X56428571Y-105678571D01*
X56571428Y-105750000D01*
X56642857Y-105821428D01*
X56714285Y-105964285D01*
X56714285Y-106392857D01*
X56642857Y-106535714D01*
X56571428Y-106607142D01*
X56428571Y-106678571D01*
X56214285Y-106678571D01*
X58000000Y-106678571D02*
X58000000Y-105892857D01*
X57928571Y-105750000D01*
X57785714Y-105678571D01*
X57500000Y-105678571D01*
X57357142Y-105750000D01*
X58000000Y-106607142D02*
X57857142Y-106678571D01*
X57500000Y-106678571D01*
X57357142Y-106607142D01*
X57285714Y-106464285D01*
X57285714Y-106321428D01*
X57357142Y-106178571D01*
X57500000Y-106107142D01*
X57857142Y-106107142D01*
X58000000Y-106035714D01*
X59357142Y-106678571D02*
X59357142Y-105178571D01*
X59357142Y-106607142D02*
X59214285Y-106678571D01*
X58928571Y-106678571D01*
X58785714Y-106607142D01*
X58714285Y-106535714D01*
X58642857Y-106392857D01*
X58642857Y-105964285D01*
X58714285Y-105821428D01*
X58785714Y-105750000D01*
X58928571Y-105678571D01*
X59214285Y-105678571D01*
X59357142Y-105750000D01*
X53857142Y-95178571D02*
X54714285Y-95178571D01*
X54285714Y-96678571D02*
X54285714Y-95178571D01*
X55142857Y-95321428D02*
X55214285Y-95250000D01*
X55357142Y-95178571D01*
X55714285Y-95178571D01*
X55857142Y-95250000D01*
X55928571Y-95321428D01*
X56000000Y-95464285D01*
X56000000Y-95607142D01*
X55928571Y-95821428D01*
X55071428Y-96678571D01*
X56000000Y-96678571D01*
X53857142Y-75178571D02*
X54714285Y-75178571D01*
X54285714Y-76678571D02*
X54285714Y-75178571D01*
X55500000Y-75178571D02*
X55642857Y-75178571D01*
X55785714Y-75250000D01*
X55857142Y-75321428D01*
X55928571Y-75464285D01*
X56000000Y-75750000D01*
X56000000Y-76107142D01*
X55928571Y-76392857D01*
X55857142Y-76535714D01*
X55785714Y-76607142D01*
X55642857Y-76678571D01*
X55500000Y-76678571D01*
X55357142Y-76607142D01*
X55285714Y-76535714D01*
X55214285Y-76392857D01*
X55142857Y-76107142D01*
X55142857Y-75750000D01*
X55214285Y-75464285D01*
X55285714Y-75321428D01*
X55357142Y-75250000D01*
X55500000Y-75178571D01*
D14*
X51975000Y-135728571D02*
X51975000Y-134228571D01*
X52332142Y-134228571D01*
X52546428Y-134300000D01*
X52689285Y-134442857D01*
X52760714Y-134585714D01*
X52832142Y-134871428D01*
X52832142Y-135085714D01*
X52760714Y-135371428D01*
X52689285Y-135514285D01*
X52546428Y-135657142D01*
X52332142Y-135728571D01*
X51975000Y-135728571D01*
X54117857Y-135728571D02*
X54117857Y-134942857D01*
X54046428Y-134800000D01*
X53903571Y-134728571D01*
X53617857Y-134728571D01*
X53475000Y-134800000D01*
X54117857Y-135657142D02*
X53975000Y-135728571D01*
X53617857Y-135728571D01*
X53475000Y-135657142D01*
X53403571Y-135514285D01*
X53403571Y-135371428D01*
X53475000Y-135228571D01*
X53617857Y-135157142D01*
X53975000Y-135157142D01*
X54117857Y-135085714D01*
X55475000Y-135728571D02*
X55475000Y-134228571D01*
X55475000Y-135657142D02*
X55332142Y-135728571D01*
X55046428Y-135728571D01*
X54903571Y-135657142D01*
X54832142Y-135585714D01*
X54760714Y-135442857D01*
X54760714Y-135014285D01*
X54832142Y-134871428D01*
X54903571Y-134800000D01*
X55046428Y-134728571D01*
X55332142Y-134728571D01*
X55475000Y-134800000D01*
X56832142Y-135728571D02*
X56832142Y-134228571D01*
X56832142Y-135657142D02*
X56689285Y-135728571D01*
X56403571Y-135728571D01*
X56260714Y-135657142D01*
X56189285Y-135585714D01*
X56117857Y-135442857D01*
X56117857Y-135014285D01*
X56189285Y-134871428D01*
X56260714Y-134800000D01*
X56403571Y-134728571D01*
X56689285Y-134728571D01*
X56832142Y-134800000D01*
X57403571Y-134728571D02*
X57760714Y-135728571D01*
X58117857Y-134728571D02*
X57760714Y-135728571D01*
X57617857Y-136085714D01*
X57546428Y-136157142D01*
X57403571Y-136228571D01*
X53192857Y-132717857D02*
X53407142Y-132789285D01*
X53478571Y-132860714D01*
X53550000Y-133003571D01*
X53550000Y-133217857D01*
X53478571Y-133360714D01*
X53407142Y-133432142D01*
X53264285Y-133503571D01*
X52692857Y-133503571D01*
X52692857Y-132003571D01*
X53192857Y-132003571D01*
X53335714Y-132075000D01*
X53407142Y-132146428D01*
X53478571Y-132289285D01*
X53478571Y-132432142D01*
X53407142Y-132575000D01*
X53335714Y-132646428D01*
X53192857Y-132717857D01*
X52692857Y-132717857D01*
X54407142Y-133503571D02*
X54264285Y-133432142D01*
X54192857Y-133360714D01*
X54121428Y-133217857D01*
X54121428Y-132789285D01*
X54192857Y-132646428D01*
X54264285Y-132575000D01*
X54407142Y-132503571D01*
X54621428Y-132503571D01*
X54764285Y-132575000D01*
X54835714Y-132646428D01*
X54907142Y-132789285D01*
X54907142Y-133217857D01*
X54835714Y-133360714D01*
X54764285Y-133432142D01*
X54621428Y-133503571D01*
X54407142Y-133503571D01*
X55550000Y-132503571D02*
X55550000Y-133503571D01*
X55550000Y-132646428D02*
X55621428Y-132575000D01*
X55764285Y-132503571D01*
X55978571Y-132503571D01*
X56121428Y-132575000D01*
X56192857Y-132717857D01*
X56192857Y-133503571D01*
X56907142Y-133503571D02*
X56907142Y-132003571D01*
X57050000Y-132932142D02*
X57478571Y-133503571D01*
X57478571Y-132503571D02*
X56907142Y-133075000D01*
D15*
%TO.C,GR1*%
X52770850Y-110948564D02*
X52810001Y-110968964D01*
X52810001Y-110968964D02*
X52831324Y-110988324D01*
X52831324Y-110988324D02*
X52874317Y-111063678D01*
X52874317Y-111063678D02*
X52883749Y-111156627D01*
X52883749Y-111156627D02*
X52858324Y-111245532D01*
X52858324Y-111245532D02*
X52847739Y-111262664D01*
X52847739Y-111262664D02*
X52805233Y-111298884D01*
X52805233Y-111298884D02*
X52729547Y-111326833D01*
X52729547Y-111326833D02*
X52638189Y-111345904D01*
X52638189Y-111345904D02*
X52365894Y-111407631D01*
X52365894Y-111407631D02*
X52137148Y-111492619D01*
X52137148Y-111492619D02*
X51949659Y-111602237D01*
X51949659Y-111602237D02*
X51801135Y-111737854D01*
X51801135Y-111737854D02*
X51689284Y-111900839D01*
X51689284Y-111900839D02*
X51680442Y-111917875D01*
X51680442Y-111917875D02*
X51621481Y-112078373D01*
X51621481Y-112078373D02*
X51588247Y-112269234D01*
X51588247Y-112269234D02*
X51583103Y-112475712D01*
X51583103Y-112475712D02*
X51585249Y-112512105D01*
X51585249Y-112512105D02*
X51592032Y-112580482D01*
X51592032Y-112580482D02*
X51606687Y-112610079D01*
X51606687Y-112610079D02*
X51640423Y-112612808D01*
X51640423Y-112612808D02*
X51674149Y-112606571D01*
X51674149Y-112606571D02*
X51947553Y-112561310D01*
X51947553Y-112561310D02*
X52248536Y-112528690D01*
X52248536Y-112528690D02*
X52562109Y-112509290D01*
X52562109Y-112509290D02*
X52873283Y-112503688D01*
X52873283Y-112503688D02*
X53167068Y-112512462D01*
X53167068Y-112512462D02*
X53428475Y-112536190D01*
X53428475Y-112536190D02*
X53444200Y-112538293D01*
X53444200Y-112538293D02*
X53858307Y-112611996D01*
X53858307Y-112611996D02*
X54271922Y-112718091D01*
X54271922Y-112718091D02*
X54668559Y-112851812D01*
X54668559Y-112851812D02*
X54973187Y-112980422D01*
X54973187Y-112980422D02*
X55086255Y-113031816D01*
X55086255Y-113031816D02*
X55162623Y-113062126D01*
X55162623Y-113062126D02*
X55210615Y-113073792D01*
X55210615Y-113073792D02*
X55238556Y-113069256D01*
X55238556Y-113069256D02*
X55248139Y-113061049D01*
X55248139Y-113061049D02*
X55285235Y-113033225D01*
X55285235Y-113033225D02*
X55357900Y-112990997D01*
X55357900Y-112990997D02*
X55454973Y-112939877D01*
X55454973Y-112939877D02*
X55565290Y-112885378D01*
X55565290Y-112885378D02*
X55677689Y-112833013D01*
X55677689Y-112833013D02*
X55781006Y-112788293D01*
X55781006Y-112788293D02*
X55864079Y-112756731D01*
X55864079Y-112756731D02*
X55865011Y-112756420D01*
X55865011Y-112756420D02*
X56006431Y-112716478D01*
X56006431Y-112716478D02*
X56168025Y-112681921D01*
X56168025Y-112681921D02*
X56329341Y-112656376D01*
X56329341Y-112656376D02*
X56469925Y-112643469D01*
X56469925Y-112643469D02*
X56507134Y-112642600D01*
X56507134Y-112642600D02*
X56603700Y-112648870D01*
X56603700Y-112648870D02*
X56666529Y-112670503D01*
X56666529Y-112670503D02*
X56694753Y-112692753D01*
X56694753Y-112692753D02*
X56752333Y-112777761D01*
X56752333Y-112777761D02*
X56762044Y-112865665D01*
X56762044Y-112865665D02*
X56727873Y-112943051D01*
X56727873Y-112943051D02*
X56696726Y-112978373D01*
X56696726Y-112978373D02*
X56657807Y-113004806D01*
X56657807Y-113004806D02*
X56601578Y-113025367D01*
X56601578Y-113025367D02*
X56518498Y-113043075D01*
X56518498Y-113043075D02*
X56399027Y-113060949D01*
X56399027Y-113060949D02*
X56324621Y-113070643D01*
X56324621Y-113070643D02*
X56173678Y-113097255D01*
X56173678Y-113097255D02*
X56014148Y-113137835D01*
X56014148Y-113137835D02*
X55862307Y-113187301D01*
X55862307Y-113187301D02*
X55734428Y-113240572D01*
X55734428Y-113240572D02*
X55672936Y-113274150D01*
X55672936Y-113274150D02*
X55596948Y-113322262D01*
X55596948Y-113322262D02*
X55758824Y-113431123D01*
X55758824Y-113431123D02*
X55859514Y-113501502D01*
X55859514Y-113501502D02*
X55963018Y-113578065D01*
X55963018Y-113578065D02*
X56040543Y-113639082D01*
X56040543Y-113639082D02*
X56160386Y-113738179D01*
X56160386Y-113738179D02*
X56308510Y-113651366D01*
X56308510Y-113651366D02*
X56613945Y-113499422D01*
X56613945Y-113499422D02*
X56928730Y-113396841D01*
X56928730Y-113396841D02*
X57256601Y-113342496D01*
X57256601Y-113342496D02*
X57356117Y-113335526D01*
X57356117Y-113335526D02*
X57563026Y-113334131D01*
X57563026Y-113334131D02*
X57741959Y-113355032D01*
X57741959Y-113355032D02*
X57912336Y-113402256D01*
X57912336Y-113402256D02*
X58093583Y-113479827D01*
X58093583Y-113479827D02*
X58123332Y-113494542D01*
X58123332Y-113494542D02*
X58377974Y-113650332D01*
X58377974Y-113650332D02*
X58606860Y-113847485D01*
X58606860Y-113847485D02*
X58806889Y-114081896D01*
X58806889Y-114081896D02*
X58974958Y-114349457D01*
X58974958Y-114349457D02*
X59107967Y-114646063D01*
X59107967Y-114646063D02*
X59187473Y-114903200D01*
X59187473Y-114903200D02*
X59210747Y-115040557D01*
X59210747Y-115040557D02*
X59222734Y-115211117D01*
X59222734Y-115211117D02*
X59223801Y-115398637D01*
X59223801Y-115398637D02*
X59214315Y-115586874D01*
X59214315Y-115586874D02*
X59194643Y-115759586D01*
X59194643Y-115759586D02*
X59165153Y-115900529D01*
X59165153Y-115900529D02*
X59164903Y-115901399D01*
X59164903Y-115901399D02*
X59053820Y-116204369D01*
X59053820Y-116204369D02*
X58901870Y-116479967D01*
X58901870Y-116479967D02*
X58706158Y-116732866D01*
X58706158Y-116732866D02*
X58554239Y-116887169D01*
X58554239Y-116887169D02*
X58463278Y-116974002D01*
X58463278Y-116974002D02*
X58405679Y-117035366D01*
X58405679Y-117035366D02*
X58375935Y-117078505D01*
X58375935Y-117078505D02*
X58368539Y-117110660D01*
X58368539Y-117110660D02*
X58372142Y-117126661D01*
X58372142Y-117126661D02*
X58384526Y-117170666D01*
X58384526Y-117170666D02*
X58404149Y-117252993D01*
X58404149Y-117252993D02*
X58428381Y-117362130D01*
X58428381Y-117362130D02*
X58454591Y-117486566D01*
X58454591Y-117486566D02*
X58456311Y-117494961D01*
X58456311Y-117494961D02*
X58538796Y-118012692D01*
X58538796Y-118012692D02*
X58571906Y-118519029D01*
X58571906Y-118519029D02*
X58555496Y-119015106D01*
X58555496Y-119015106D02*
X58489422Y-119502057D01*
X58489422Y-119502057D02*
X58373539Y-119981017D01*
X58373539Y-119981017D02*
X58207703Y-120453121D01*
X58207703Y-120453121D02*
X58029533Y-120845537D01*
X58029533Y-120845537D02*
X57792943Y-121261478D01*
X57792943Y-121261478D02*
X57511808Y-121656850D01*
X57511808Y-121656850D02*
X57189080Y-122029100D01*
X57189080Y-122029100D02*
X56827715Y-122375672D01*
X56827715Y-122375672D02*
X56430665Y-122694012D01*
X56430665Y-122694012D02*
X56000884Y-122981565D01*
X56000884Y-122981565D02*
X55541325Y-123235776D01*
X55541325Y-123235776D02*
X55054942Y-123454091D01*
X55054942Y-123454091D02*
X54979417Y-123483753D01*
X54979417Y-123483753D02*
X54696666Y-123588667D01*
X54696666Y-123588667D02*
X54441142Y-123673655D01*
X54441142Y-123673655D02*
X54195674Y-123743484D01*
X54195674Y-123743484D02*
X53943093Y-123802919D01*
X53943093Y-123802919D02*
X53666230Y-123856726D01*
X53666230Y-123856726D02*
X53583900Y-123871110D01*
X53583900Y-123871110D02*
X53398891Y-123896104D01*
X53398891Y-123896104D02*
X53176772Y-123915402D01*
X53176772Y-123915402D02*
X52930949Y-123928694D01*
X52930949Y-123928694D02*
X52674826Y-123935672D01*
X52674826Y-123935672D02*
X52421807Y-123936025D01*
X52421807Y-123936025D02*
X52185296Y-123929445D01*
X52185296Y-123929445D02*
X51978698Y-123915621D01*
X51978698Y-123915621D02*
X51920200Y-123909514D01*
X51920200Y-123909514D02*
X51404515Y-123825653D01*
X51404515Y-123825653D02*
X50900514Y-123696061D01*
X50900514Y-123696061D02*
X50415359Y-123522843D01*
X50415359Y-123522843D02*
X50067742Y-123365352D01*
X50067742Y-123365352D02*
X49659169Y-123140455D01*
X49659169Y-123140455D02*
X49280376Y-122885972D01*
X49280376Y-122885972D02*
X48923969Y-122596090D01*
X48923969Y-122596090D02*
X48582556Y-122264998D01*
X48582556Y-122264998D02*
X48369965Y-122030473D01*
X48369965Y-122030473D02*
X48310862Y-121964336D01*
X48310862Y-121964336D02*
X48273328Y-121931715D01*
X48273328Y-121931715D02*
X48246735Y-121926831D01*
X48246735Y-121926831D02*
X48220456Y-121943907D01*
X48220456Y-121943907D02*
X48216779Y-121947193D01*
X48216779Y-121947193D02*
X48157669Y-121987383D01*
X48157669Y-121987383D02*
X48062617Y-122037370D01*
X48062617Y-122037370D02*
X47944126Y-122091661D01*
X47944126Y-122091661D02*
X47814699Y-122144761D01*
X47814699Y-122144761D02*
X47686837Y-122191177D01*
X47686837Y-122191177D02*
X47600491Y-122218016D01*
X47600491Y-122218016D02*
X47436583Y-122253868D01*
X47436583Y-122253868D02*
X47249769Y-122278181D01*
X47249769Y-122278181D02*
X47057953Y-122289850D01*
X47057953Y-122289850D02*
X46879040Y-122287771D01*
X46879040Y-122287771D02*
X46734311Y-122271486D01*
X46734311Y-122271486D02*
X46455451Y-122197378D01*
X46455451Y-122197378D02*
X46204123Y-122084490D01*
X46204123Y-122084490D02*
X45973460Y-121928989D01*
X45973460Y-121928989D02*
X45756596Y-121727038D01*
X45756596Y-121727038D02*
X45753554Y-121723787D01*
X45753554Y-121723787D02*
X45581578Y-121512371D01*
X45581578Y-121512371D02*
X45456057Y-121293861D01*
X45456057Y-121293861D02*
X45372659Y-121060158D01*
X45372659Y-121060158D02*
X45353004Y-120975181D01*
X45353004Y-120975181D02*
X45322948Y-120704304D01*
X45322948Y-120704304D02*
X45330630Y-120602158D01*
X45330630Y-120602158D02*
X45731157Y-120602158D01*
X45731157Y-120602158D02*
X45732672Y-120811774D01*
X45732672Y-120811774D02*
X45777327Y-121021547D01*
X45777327Y-121021547D02*
X45868235Y-121226303D01*
X45868235Y-121226303D02*
X45879460Y-121245422D01*
X45879460Y-121245422D02*
X45995192Y-121401686D01*
X45995192Y-121401686D02*
X46145125Y-121549666D01*
X46145125Y-121549666D02*
X46316815Y-121680207D01*
X46316815Y-121680207D02*
X46497816Y-121784153D01*
X46497816Y-121784153D02*
X46675684Y-121852350D01*
X46675684Y-121852350D02*
X46718719Y-121862850D01*
X46718719Y-121862850D02*
X46849176Y-121878945D01*
X46849176Y-121878945D02*
X47010569Y-121881757D01*
X47010569Y-121881757D02*
X47185149Y-121872516D01*
X47185149Y-121872516D02*
X47355169Y-121852449D01*
X47355169Y-121852449D02*
X47502881Y-121822787D01*
X47502881Y-121822787D02*
X47564100Y-121804293D01*
X47564100Y-121804293D02*
X47743763Y-121737500D01*
X47743763Y-121737500D02*
X47878275Y-121680423D01*
X47878275Y-121680423D02*
X47966080Y-121633770D01*
X47966080Y-121633770D02*
X48000474Y-121605891D01*
X48000474Y-121605891D02*
X48010154Y-121577317D01*
X48010154Y-121577317D02*
X47998263Y-121531942D01*
X47998263Y-121531942D02*
X47961435Y-121460357D01*
X47961435Y-121460357D02*
X47928822Y-121405570D01*
X47928822Y-121405570D02*
X47869278Y-121303943D01*
X47869278Y-121303943D02*
X47799906Y-121179237D01*
X47799906Y-121179237D02*
X47733180Y-121054017D01*
X47733180Y-121054017D02*
X47715613Y-121019863D01*
X47715613Y-121019863D02*
X47663400Y-120918783D01*
X47663400Y-120918783D02*
X47626893Y-120855596D01*
X47626893Y-120855596D02*
X47599152Y-120822721D01*
X47599152Y-120822721D02*
X47573235Y-120812579D01*
X47573235Y-120812579D02*
X47542205Y-120817588D01*
X47542205Y-120817588D02*
X47532905Y-120820298D01*
X47532905Y-120820298D02*
X47412737Y-120862048D01*
X47412737Y-120862048D02*
X47328059Y-120906710D01*
X47328059Y-120906710D02*
X47280334Y-120945101D01*
X47280334Y-120945101D02*
X47221456Y-121019990D01*
X47221456Y-121019990D02*
X47207691Y-121097335D01*
X47207691Y-121097335D02*
X47237294Y-121189781D01*
X47237294Y-121189781D02*
X47244565Y-121204199D01*
X47244565Y-121204199D02*
X47290074Y-121321657D01*
X47290074Y-121321657D02*
X47292166Y-121415258D01*
X47292166Y-121415258D02*
X47250889Y-121483812D01*
X47250889Y-121483812D02*
X47232859Y-121497517D01*
X47232859Y-121497517D02*
X47160305Y-121523531D01*
X47160305Y-121523531D02*
X47091879Y-121502073D01*
X47091879Y-121502073D02*
X47025488Y-121431931D01*
X47025488Y-121431931D02*
X46977211Y-121349494D01*
X46977211Y-121349494D02*
X46919576Y-121187172D01*
X46919576Y-121187172D02*
X46911318Y-121030171D01*
X46911318Y-121030171D02*
X46951131Y-120883480D01*
X46951131Y-120883480D02*
X47037705Y-120752088D01*
X47037705Y-120752088D02*
X47161511Y-120646353D01*
X47161511Y-120646353D02*
X47230068Y-120603060D01*
X47230068Y-120603060D02*
X47281608Y-120574382D01*
X47281608Y-120574382D02*
X47300101Y-120567400D01*
X47300101Y-120567400D02*
X47335915Y-120559139D01*
X47335915Y-120559139D02*
X47388571Y-120541136D01*
X47388571Y-120541136D02*
X47457649Y-120514872D01*
X47457649Y-120514872D02*
X47383874Y-120436408D01*
X47383874Y-120436408D02*
X47283619Y-120353554D01*
X47283619Y-120353554D02*
X47166226Y-120305782D01*
X47166226Y-120305782D02*
X47019071Y-120288305D01*
X47019071Y-120288305D02*
X46992571Y-120288000D01*
X46992571Y-120288000D02*
X46814948Y-120311561D01*
X46814948Y-120311561D02*
X46658292Y-120379993D01*
X46658292Y-120379993D02*
X46527675Y-120489917D01*
X46527675Y-120489917D02*
X46428168Y-120637955D01*
X46428168Y-120637955D02*
X46410864Y-120675515D01*
X46410864Y-120675515D02*
X46352730Y-120777336D01*
X46352730Y-120777336D02*
X46286771Y-120830207D01*
X46286771Y-120830207D02*
X46214091Y-120833509D01*
X46214091Y-120833509D02*
X46168140Y-120811717D01*
X46168140Y-120811717D02*
X46117932Y-120751974D01*
X46117932Y-120751974D02*
X46104955Y-120669112D01*
X46104955Y-120669112D02*
X46125329Y-120569849D01*
X46125329Y-120569849D02*
X46175172Y-120460906D01*
X46175172Y-120460906D02*
X46250604Y-120349003D01*
X46250604Y-120349003D02*
X46347744Y-120240859D01*
X46347744Y-120240859D02*
X46462711Y-120143194D01*
X46462711Y-120143194D02*
X46591624Y-120062727D01*
X46591624Y-120062727D02*
X46604487Y-120056205D01*
X46604487Y-120056205D02*
X46664572Y-120029311D01*
X46664572Y-120029311D02*
X46723926Y-120011743D01*
X46723926Y-120011743D02*
X46795642Y-120001592D01*
X46795642Y-120001592D02*
X46892813Y-119996949D01*
X46892813Y-119996949D02*
X47018000Y-119995900D01*
X47018000Y-119995900D02*
X47310100Y-119995900D01*
X47310100Y-119995900D02*
X47259300Y-119787865D01*
X47259300Y-119787865D02*
X47234120Y-119688525D01*
X47234120Y-119688525D02*
X47209473Y-119621939D01*
X47209473Y-119621939D02*
X47175324Y-119581538D01*
X47175324Y-119581538D02*
X47121634Y-119560756D01*
X47121634Y-119560756D02*
X47038370Y-119553023D01*
X47038370Y-119553023D02*
X46915494Y-119551771D01*
X46915494Y-119551771D02*
X46898505Y-119551746D01*
X46898505Y-119551746D02*
X46666971Y-119573846D01*
X46666971Y-119573846D02*
X46453672Y-119637495D01*
X46453672Y-119637495D02*
X46261722Y-119737517D01*
X46261722Y-119737517D02*
X46094233Y-119868740D01*
X46094233Y-119868740D02*
X45954319Y-120025990D01*
X45954319Y-120025990D02*
X45845093Y-120204092D01*
X45845093Y-120204092D02*
X45769668Y-120397872D01*
X45769668Y-120397872D02*
X45731157Y-120602158D01*
X45731157Y-120602158D02*
X45330630Y-120602158D01*
X45330630Y-120602158D02*
X45342872Y-120439386D01*
X45342872Y-120439386D02*
X45412088Y-120182713D01*
X45412088Y-120182713D02*
X45529910Y-119936566D01*
X45529910Y-119936566D02*
X45695649Y-119703231D01*
X45695649Y-119703231D02*
X45756591Y-119633921D01*
X45756591Y-119633921D02*
X45922746Y-119483311D01*
X45922746Y-119483311D02*
X46119541Y-119353518D01*
X46119541Y-119353518D02*
X46223005Y-119303820D01*
X46223005Y-119303820D02*
X47566092Y-119303820D01*
X47566092Y-119303820D02*
X47575413Y-119376355D01*
X47575413Y-119376355D02*
X47595831Y-119481122D01*
X47595831Y-119481122D02*
X47625540Y-119609925D01*
X47625540Y-119609925D02*
X47662736Y-119754566D01*
X47662736Y-119754566D02*
X47705612Y-119906851D01*
X47705612Y-119906851D02*
X47720826Y-119957800D01*
X47720826Y-119957800D02*
X47893719Y-120444846D01*
X47893719Y-120444846D02*
X48107318Y-120902816D01*
X48107318Y-120902816D02*
X48359689Y-121330058D01*
X48359689Y-121330058D02*
X48648898Y-121724920D01*
X48648898Y-121724920D02*
X48973008Y-122085752D01*
X48973008Y-122085752D02*
X49330085Y-122410902D01*
X49330085Y-122410902D02*
X49718193Y-122698719D01*
X49718193Y-122698719D02*
X50135399Y-122947552D01*
X50135399Y-122947552D02*
X50579766Y-123155750D01*
X50579766Y-123155750D02*
X51049360Y-123321660D01*
X51049360Y-123321660D02*
X51542245Y-123443633D01*
X51542245Y-123443633D02*
X51869400Y-123497926D01*
X51869400Y-123497926D02*
X52051667Y-123516391D01*
X52051667Y-123516391D02*
X52269447Y-123528631D01*
X52269447Y-123528631D02*
X52507827Y-123534600D01*
X52507827Y-123534600D02*
X52751898Y-123534255D01*
X52751898Y-123534255D02*
X52986748Y-123527554D01*
X52986748Y-123527554D02*
X53197467Y-123514453D01*
X53197467Y-123514453D02*
X53317200Y-123502139D01*
X53317200Y-123502139D02*
X53851788Y-123411194D01*
X53851788Y-123411194D02*
X54373538Y-123275094D01*
X54373538Y-123275094D02*
X54878390Y-123095775D01*
X54878390Y-123095775D02*
X55362288Y-122875176D01*
X55362288Y-122875176D02*
X55821172Y-122615234D01*
X55821172Y-122615234D02*
X56250985Y-122317886D01*
X56250985Y-122317886D02*
X56647669Y-121985072D01*
X56647669Y-121985072D02*
X56799039Y-121839569D01*
X56799039Y-121839569D02*
X57117438Y-121492943D01*
X57117438Y-121492943D02*
X57389887Y-121134354D01*
X57389887Y-121134354D02*
X57621017Y-120756526D01*
X57621017Y-120756526D02*
X57815462Y-120352182D01*
X57815462Y-120352182D02*
X57924228Y-120072100D01*
X57924228Y-120072100D02*
X58039464Y-119680546D01*
X58039464Y-119680546D02*
X58117693Y-119262781D01*
X58117693Y-119262781D02*
X58158491Y-118827837D01*
X58158491Y-118827837D02*
X58161436Y-118384750D01*
X58161436Y-118384750D02*
X58126104Y-117942553D01*
X58126104Y-117942553D02*
X58052072Y-117510280D01*
X58052072Y-117510280D02*
X58045583Y-117481300D01*
X58045583Y-117481300D02*
X58024045Y-117387220D01*
X58024045Y-117387220D02*
X58003905Y-117326288D01*
X58003905Y-117326288D02*
X57975466Y-117294494D01*
X57975466Y-117294494D02*
X57929032Y-117287828D01*
X57929032Y-117287828D02*
X57854905Y-117302280D01*
X57854905Y-117302280D02*
X57743388Y-117333840D01*
X57743388Y-117333840D02*
X57711400Y-117343106D01*
X57711400Y-117343106D02*
X57600890Y-117370367D01*
X57600890Y-117370367D02*
X57485763Y-117387867D01*
X57485763Y-117387867D02*
X57349973Y-117397424D01*
X57349973Y-117397424D02*
X57203400Y-117400686D01*
X57203400Y-117400686D02*
X57070334Y-117400839D01*
X57070334Y-117400839D02*
X56965642Y-117397262D01*
X56965642Y-117397262D02*
X56873862Y-117387695D01*
X56873862Y-117387695D02*
X56779533Y-117369881D01*
X56779533Y-117369881D02*
X56667194Y-117341561D01*
X56667194Y-117341561D02*
X56525578Y-117301682D01*
X56525578Y-117301682D02*
X56514761Y-117306965D01*
X56514761Y-117306965D02*
X56523074Y-117336332D01*
X56523074Y-117336332D02*
X56552400Y-117393036D01*
X56552400Y-117393036D02*
X56604624Y-117480327D01*
X56604624Y-117480327D02*
X56681629Y-117601455D01*
X56681629Y-117601455D02*
X56785300Y-117759672D01*
X56785300Y-117759672D02*
X56830628Y-117828013D01*
X56830628Y-117828013D02*
X57004958Y-118095810D01*
X57004958Y-118095810D02*
X57154148Y-118336736D01*
X57154148Y-118336736D02*
X57277003Y-118548563D01*
X57277003Y-118548563D02*
X57372323Y-118729065D01*
X57372323Y-118729065D02*
X57438913Y-118876016D01*
X57438913Y-118876016D02*
X57475575Y-118987189D01*
X57475575Y-118987189D02*
X57482800Y-119040918D01*
X57482800Y-119040918D02*
X57458012Y-119141460D01*
X57458012Y-119141460D02*
X57384536Y-119232699D01*
X57384536Y-119232699D02*
X57263702Y-119314209D01*
X57263702Y-119314209D02*
X57096838Y-119385565D01*
X57096838Y-119385565D02*
X56885275Y-119446341D01*
X56885275Y-119446341D02*
X56630343Y-119496114D01*
X56630343Y-119496114D02*
X56333371Y-119534457D01*
X56333371Y-119534457D02*
X55995690Y-119560946D01*
X55995690Y-119560946D02*
X55831800Y-119568845D01*
X55831800Y-119568845D02*
X55686625Y-119574119D01*
X55686625Y-119574119D02*
X55583096Y-119576019D01*
X55583096Y-119576019D02*
X55512126Y-119573778D01*
X55512126Y-119573778D02*
X55464625Y-119566631D01*
X55464625Y-119566631D02*
X55431507Y-119553814D01*
X55431507Y-119553814D02*
X55403685Y-119534562D01*
X55403685Y-119534562D02*
X55401269Y-119532602D01*
X55401269Y-119532602D02*
X55351757Y-119462523D01*
X55351757Y-119462523D02*
X55337715Y-119374625D01*
X55337715Y-119374625D02*
X55359771Y-119288061D01*
X55359771Y-119288061D02*
X55391784Y-119243527D01*
X55391784Y-119243527D02*
X55417005Y-119223117D01*
X55417005Y-119223117D02*
X55451506Y-119207667D01*
X55451506Y-119207667D02*
X55503592Y-119195801D01*
X55503592Y-119195801D02*
X55581564Y-119186145D01*
X55581564Y-119186145D02*
X55693725Y-119177321D01*
X55693725Y-119177321D02*
X55847714Y-119167993D01*
X55847714Y-119167993D02*
X56075851Y-119152267D01*
X56075851Y-119152267D02*
X56294215Y-119131858D01*
X56294215Y-119131858D02*
X56496820Y-119107743D01*
X56496820Y-119107743D02*
X56677684Y-119080897D01*
X56677684Y-119080897D02*
X56830821Y-119052297D01*
X56830821Y-119052297D02*
X56950249Y-119022919D01*
X56950249Y-119022919D02*
X57029983Y-118993740D01*
X57029983Y-118993740D02*
X57062067Y-118969841D01*
X57062067Y-118969841D02*
X57056247Y-118934947D01*
X57056247Y-118934947D02*
X57021230Y-118861485D01*
X57021230Y-118861485D02*
X56958372Y-118751470D01*
X56958372Y-118751470D02*
X56869034Y-118606916D01*
X56869034Y-118606916D02*
X56754573Y-118429837D01*
X56754573Y-118429837D02*
X56616348Y-118222248D01*
X56616348Y-118222248D02*
X56455717Y-117986163D01*
X56455717Y-117986163D02*
X56274040Y-117723597D01*
X56274040Y-117723597D02*
X56072674Y-117436565D01*
X56072674Y-117436565D02*
X55852978Y-117127080D01*
X55852978Y-117127080D02*
X55616311Y-116797157D01*
X55616311Y-116797157D02*
X55364031Y-116448811D01*
X55364031Y-116448811D02*
X55334462Y-116408186D01*
X55334462Y-116408186D02*
X55247495Y-116289252D01*
X55247495Y-116289252D02*
X55183935Y-116205303D01*
X55183935Y-116205303D02*
X55137305Y-116150243D01*
X55137305Y-116150243D02*
X55101127Y-116117980D01*
X55101127Y-116117980D02*
X55068922Y-116102417D01*
X55068922Y-116102417D02*
X55034215Y-116097460D01*
X55034215Y-116097460D02*
X55003760Y-116097036D01*
X55003760Y-116097036D02*
X54886138Y-116121118D01*
X54886138Y-116121118D02*
X54770535Y-116188980D01*
X54770535Y-116188980D02*
X54664683Y-116293927D01*
X54664683Y-116293927D02*
X54576314Y-116429260D01*
X54576314Y-116429260D02*
X54546436Y-116493157D01*
X54546436Y-116493157D02*
X54529691Y-116536638D01*
X54529691Y-116536638D02*
X54523133Y-116574115D01*
X54523133Y-116574115D02*
X54529256Y-116616967D01*
X54529256Y-116616967D02*
X54550555Y-116676571D01*
X54550555Y-116676571D02*
X54589526Y-116764305D01*
X54589526Y-116764305D02*
X54620566Y-116831180D01*
X54620566Y-116831180D02*
X54746246Y-117157084D01*
X54746246Y-117157084D02*
X54823317Y-117487141D01*
X54823317Y-117487141D02*
X54852492Y-117817303D01*
X54852492Y-117817303D02*
X54834488Y-118143524D01*
X54834488Y-118143524D02*
X54770016Y-118461755D01*
X54770016Y-118461755D02*
X54659792Y-118767950D01*
X54659792Y-118767950D02*
X54504529Y-119058062D01*
X54504529Y-119058062D02*
X54304942Y-119328044D01*
X54304942Y-119328044D02*
X54151224Y-119491357D01*
X54151224Y-119491357D02*
X53889133Y-119712314D01*
X53889133Y-119712314D02*
X53607247Y-119886507D01*
X53607247Y-119886507D02*
X53305073Y-120014149D01*
X53305073Y-120014149D02*
X52982115Y-120095459D01*
X52982115Y-120095459D02*
X52694787Y-120128089D01*
X52694787Y-120128089D02*
X52346398Y-120125326D01*
X52346398Y-120125326D02*
X52019020Y-120076514D01*
X52019020Y-120076514D02*
X51710939Y-119981005D01*
X51710939Y-119981005D02*
X51420439Y-119838147D01*
X51420439Y-119838147D02*
X51145808Y-119647292D01*
X51145808Y-119647292D02*
X50939293Y-119462500D01*
X50939293Y-119462500D02*
X50710000Y-119205939D01*
X50710000Y-119205939D02*
X50529552Y-118936970D01*
X50529552Y-118936970D02*
X50397059Y-118653543D01*
X50397059Y-118653543D02*
X50311633Y-118353607D01*
X50311633Y-118353607D02*
X50272386Y-118035112D01*
X50272386Y-118035112D02*
X50269429Y-117918199D01*
X50269429Y-117918199D02*
X50675975Y-117918199D01*
X50675975Y-117918199D02*
X50680552Y-118093182D01*
X50680552Y-118093182D02*
X50697674Y-118241503D01*
X50697674Y-118241503D02*
X50731491Y-118380713D01*
X50731491Y-118380713D02*
X50786156Y-118528361D01*
X50786156Y-118528361D02*
X50857093Y-118683970D01*
X50857093Y-118683970D02*
X50925996Y-118819501D01*
X50925996Y-118819501D02*
X50990593Y-118925645D01*
X50990593Y-118925645D02*
X51063759Y-119020823D01*
X51063759Y-119020823D02*
X51158368Y-119123453D01*
X51158368Y-119123453D02*
X51178932Y-119144405D01*
X51178932Y-119144405D02*
X51277262Y-119238514D01*
X51277262Y-119238514D02*
X51379819Y-119327513D01*
X51379819Y-119327513D02*
X51477717Y-119404601D01*
X51477717Y-119404601D02*
X51562069Y-119462979D01*
X51562069Y-119462979D02*
X51623988Y-119495847D01*
X51623988Y-119495847D02*
X51644476Y-119500600D01*
X51644476Y-119500600D02*
X51648162Y-119480204D01*
X51648162Y-119480204D02*
X51633549Y-119429521D01*
X51633549Y-119429521D02*
X51626803Y-119412515D01*
X51626803Y-119412515D02*
X51592311Y-119268377D01*
X51592311Y-119268377D02*
X51602491Y-119121739D01*
X51602491Y-119121739D02*
X51652602Y-118981896D01*
X51652602Y-118981896D02*
X51737905Y-118858144D01*
X51737905Y-118858144D02*
X51853659Y-118759780D01*
X51853659Y-118759780D02*
X51991578Y-118697116D01*
X51991578Y-118697116D02*
X52157081Y-118670599D01*
X52157081Y-118670599D02*
X52308086Y-118692488D01*
X52308086Y-118692488D02*
X52447329Y-118763491D01*
X52447329Y-118763491D02*
X52533473Y-118836957D01*
X52533473Y-118836957D02*
X52637780Y-118970044D01*
X52637780Y-118970044D02*
X52692980Y-119113719D01*
X52692980Y-119113719D02*
X52700232Y-119271217D01*
X52700232Y-119271217D02*
X52697415Y-119295080D01*
X52697415Y-119295080D02*
X52664240Y-119417455D01*
X52664240Y-119417455D02*
X52604056Y-119536401D01*
X52604056Y-119536401D02*
X52527265Y-119634264D01*
X52527265Y-119634264D02*
X52470646Y-119679896D01*
X52470646Y-119679896D02*
X52390100Y-119729010D01*
X52390100Y-119729010D02*
X52593300Y-119728664D01*
X52593300Y-119728664D02*
X52722102Y-119723189D01*
X52722102Y-119723189D02*
X52860737Y-119709211D01*
X52860737Y-119709211D02*
X52973571Y-119690809D01*
X52973571Y-119690809D02*
X53202816Y-119621999D01*
X53202816Y-119621999D02*
X53436128Y-119515519D01*
X53436128Y-119515519D02*
X53658326Y-119380124D01*
X53658326Y-119380124D02*
X53854232Y-119224567D01*
X53854232Y-119224567D02*
X53951184Y-119127047D01*
X53951184Y-119127047D02*
X54117838Y-118909302D01*
X54117838Y-118909302D02*
X54257533Y-118662169D01*
X54257533Y-118662169D02*
X54364266Y-118399101D01*
X54364266Y-118399101D02*
X54432034Y-118133550D01*
X54432034Y-118133550D02*
X54448668Y-118012222D01*
X54448668Y-118012222D02*
X54453190Y-117837496D01*
X54453190Y-117837496D02*
X54438568Y-117638136D01*
X54438568Y-117638136D02*
X54407315Y-117435463D01*
X54407315Y-117435463D02*
X54361943Y-117250794D01*
X54361943Y-117250794D02*
X54357120Y-117235370D01*
X54357120Y-117235370D02*
X54268746Y-117014954D01*
X54268746Y-117014954D02*
X54147212Y-116792807D01*
X54147212Y-116792807D02*
X54002047Y-116583187D01*
X54002047Y-116583187D02*
X53842777Y-116400347D01*
X53842777Y-116400347D02*
X53730907Y-116298288D01*
X53730907Y-116298288D02*
X53497546Y-116139566D01*
X53497546Y-116139566D02*
X53247646Y-116028065D01*
X53247646Y-116028065D02*
X52983975Y-115964018D01*
X52983975Y-115964018D02*
X52709307Y-115947659D01*
X52709307Y-115947659D02*
X52426411Y-115979222D01*
X52426411Y-115979222D02*
X52138059Y-116058942D01*
X52138059Y-116058942D02*
X51928989Y-116146115D01*
X51928989Y-116146115D02*
X51720974Y-116252606D01*
X51720974Y-116252606D02*
X51546497Y-116360029D01*
X51546497Y-116360029D02*
X51389251Y-116479118D01*
X51389251Y-116479118D02*
X51289015Y-116567443D01*
X51289015Y-116567443D02*
X51072291Y-116799385D01*
X51072291Y-116799385D02*
X50901996Y-117050385D01*
X50901996Y-117050385D02*
X50778767Y-117319041D01*
X50778767Y-117319041D02*
X50703240Y-117603950D01*
X50703240Y-117603950D02*
X50676053Y-117903711D01*
X50676053Y-117903711D02*
X50675975Y-117918199D01*
X50675975Y-117918199D02*
X50269429Y-117918199D01*
X50269429Y-117918199D02*
X50269391Y-117916732D01*
X50269391Y-117916732D02*
X50267698Y-117824736D01*
X50267698Y-117824736D02*
X50261281Y-117774138D01*
X50261281Y-117774138D02*
X50247751Y-117755590D01*
X50247751Y-117755590D02*
X50228835Y-117758054D01*
X50228835Y-117758054D02*
X50200126Y-117773072D01*
X50200126Y-117773072D02*
X50132235Y-117810545D01*
X50132235Y-117810545D02*
X50029896Y-117867776D01*
X50029896Y-117867776D02*
X49897844Y-117942070D01*
X49897844Y-117942070D02*
X49740813Y-118030734D01*
X49740813Y-118030734D02*
X49563540Y-118131070D01*
X49563540Y-118131070D02*
X49370758Y-118240384D01*
X49370758Y-118240384D02*
X49167202Y-118355982D01*
X49167202Y-118355982D02*
X48957608Y-118475167D01*
X48957608Y-118475167D02*
X48746709Y-118595245D01*
X48746709Y-118595245D02*
X48539241Y-118713520D01*
X48539241Y-118713520D02*
X48339938Y-118827298D01*
X48339938Y-118827298D02*
X48153536Y-118933882D01*
X48153536Y-118933882D02*
X47984768Y-119030579D01*
X47984768Y-119030579D02*
X47838371Y-119114692D01*
X47838371Y-119114692D02*
X47719078Y-119183527D01*
X47719078Y-119183527D02*
X47631624Y-119234389D01*
X47631624Y-119234389D02*
X47580745Y-119264582D01*
X47580745Y-119264582D02*
X47569675Y-119271712D01*
X47569675Y-119271712D02*
X47566092Y-119303820D01*
X47566092Y-119303820D02*
X46223005Y-119303820D01*
X46223005Y-119303820D02*
X46334434Y-119250297D01*
X46334434Y-119250297D02*
X46554883Y-119179401D01*
X46554883Y-119179401D02*
X46768344Y-119146585D01*
X46768344Y-119146585D02*
X46822330Y-119145000D01*
X46822330Y-119145000D02*
X46923004Y-119137784D01*
X46923004Y-119137784D02*
X47011627Y-119119069D01*
X47011627Y-119119069D02*
X47045598Y-119105762D01*
X47045598Y-119105762D02*
X47094589Y-119075301D01*
X47094589Y-119075301D02*
X47110837Y-119040437D01*
X47110837Y-119040437D02*
X47103283Y-118979928D01*
X47103283Y-118979928D02*
X47101723Y-118972412D01*
X47101723Y-118972412D02*
X47092215Y-118895880D01*
X47092215Y-118895880D02*
X47085714Y-118777934D01*
X47085714Y-118777934D02*
X47082059Y-118627859D01*
X47082059Y-118627859D02*
X47081089Y-118454944D01*
X47081089Y-118454944D02*
X47081711Y-118380238D01*
X47081711Y-118380238D02*
X47474938Y-118380238D01*
X47474938Y-118380238D02*
X47477542Y-118525615D01*
X47477542Y-118525615D02*
X47483553Y-118650773D01*
X47483553Y-118650773D02*
X47492826Y-118748321D01*
X47492826Y-118748321D02*
X47505217Y-118810868D01*
X47505217Y-118810868D02*
X47520582Y-118831023D01*
X47520582Y-118831023D02*
X47522742Y-118830172D01*
X47522742Y-118830172D02*
X47547111Y-118816273D01*
X47547111Y-118816273D02*
X47611722Y-118779456D01*
X47611722Y-118779456D02*
X47712674Y-118721943D01*
X47712674Y-118721943D02*
X47846067Y-118645956D01*
X47846067Y-118645956D02*
X48007998Y-118553718D01*
X48007998Y-118553718D02*
X48194567Y-118447450D01*
X48194567Y-118447450D02*
X48401873Y-118329375D01*
X48401873Y-118329375D02*
X48626015Y-118201715D01*
X48626015Y-118201715D02*
X48846800Y-118075970D01*
X48846800Y-118075970D02*
X49086888Y-117939293D01*
X49086888Y-117939293D02*
X49316766Y-117808543D01*
X49316766Y-117808543D02*
X49532115Y-117686169D01*
X49532115Y-117686169D02*
X49728616Y-117574620D01*
X49728616Y-117574620D02*
X49901952Y-117476345D01*
X49901952Y-117476345D02*
X50047803Y-117393792D01*
X50047803Y-117393792D02*
X50161851Y-117329410D01*
X50161851Y-117329410D02*
X50239777Y-117285648D01*
X50239777Y-117285648D02*
X50274493Y-117266435D01*
X50274493Y-117266435D02*
X50356421Y-117213460D01*
X50356421Y-117213460D02*
X50407481Y-117152786D01*
X50407481Y-117152786D02*
X50437530Y-117087600D01*
X50437530Y-117087600D02*
X50524035Y-116905875D01*
X50524035Y-116905875D02*
X50647055Y-116711540D01*
X50647055Y-116711540D02*
X50797872Y-116515106D01*
X50797872Y-116515106D02*
X50967769Y-116327086D01*
X50967769Y-116327086D02*
X51148027Y-116157991D01*
X51148027Y-116157991D02*
X51316862Y-116027252D01*
X51316862Y-116027252D02*
X51626402Y-115839213D01*
X51626402Y-115839213D02*
X51940212Y-115697462D01*
X51940212Y-115697462D02*
X52255162Y-115601938D01*
X52255162Y-115601938D02*
X52568122Y-115552582D01*
X52568122Y-115552582D02*
X52875962Y-115549330D01*
X52875962Y-115549330D02*
X53175549Y-115592123D01*
X53175549Y-115592123D02*
X53463755Y-115680899D01*
X53463755Y-115680899D02*
X53737448Y-115815597D01*
X53737448Y-115815597D02*
X53993498Y-115996156D01*
X53993498Y-115996156D02*
X54090462Y-116081380D01*
X54090462Y-116081380D02*
X54155762Y-116140421D01*
X54155762Y-116140421D02*
X54206264Y-116182533D01*
X54206264Y-116182533D02*
X54231034Y-116198599D01*
X54231034Y-116198599D02*
X54231036Y-116198600D01*
X54231036Y-116198600D02*
X54252691Y-116179021D01*
X54252691Y-116179021D02*
X54285825Y-116131133D01*
X54285825Y-116131133D02*
X54290326Y-116123640D01*
X54290326Y-116123640D02*
X54405625Y-115975360D01*
X54405625Y-115975360D02*
X54556898Y-115851422D01*
X54556898Y-115851422D02*
X54732299Y-115759021D01*
X54732299Y-115759021D02*
X54919983Y-115705350D01*
X54919983Y-115705350D02*
X54993626Y-115696493D01*
X54993626Y-115696493D02*
X55169486Y-115683911D01*
X55169486Y-115683911D02*
X55169567Y-115508255D01*
X55169567Y-115508255D02*
X55568045Y-115508255D01*
X55568045Y-115508255D02*
X55577923Y-115673410D01*
X55577923Y-115673410D02*
X55602000Y-115813563D01*
X55602000Y-115813563D02*
X55614567Y-115855700D01*
X55614567Y-115855700D02*
X55698369Y-116061992D01*
X55698369Y-116061992D02*
X55797086Y-116247536D01*
X55797086Y-116247536D02*
X55903118Y-116398310D01*
X55903118Y-116398310D02*
X55918336Y-116416098D01*
X55918336Y-116416098D02*
X56027081Y-116539678D01*
X56027081Y-116539678D02*
X56025022Y-116388140D01*
X56025022Y-116388140D02*
X56038252Y-116246149D01*
X56038252Y-116246149D02*
X56086590Y-116129217D01*
X56086590Y-116129217D02*
X56176527Y-116023956D01*
X56176527Y-116023956D02*
X56219539Y-115986985D01*
X56219539Y-115986985D02*
X56341431Y-115918966D01*
X56341431Y-115918966D02*
X56477657Y-115893350D01*
X56477657Y-115893350D02*
X56617238Y-115908496D01*
X56617238Y-115908496D02*
X56749193Y-115962764D01*
X56749193Y-115962764D02*
X56862542Y-116054514D01*
X56862542Y-116054514D02*
X56889768Y-116087114D01*
X56889768Y-116087114D02*
X56933944Y-116157784D01*
X56933944Y-116157784D02*
X56958630Y-116236758D01*
X56958630Y-116236758D02*
X56970345Y-116340509D01*
X56970345Y-116340509D02*
X56973066Y-116439224D01*
X56973066Y-116439224D02*
X56962834Y-116510735D01*
X56962834Y-116510735D02*
X56934975Y-116577960D01*
X56934975Y-116577960D02*
X56914430Y-116614649D01*
X56914430Y-116614649D02*
X56815414Y-116736653D01*
X56815414Y-116736653D02*
X56686348Y-116818107D01*
X56686348Y-116818107D02*
X56593800Y-116846986D01*
X56593800Y-116846986D02*
X56536891Y-116860258D01*
X56536891Y-116860258D02*
X56525455Y-116870496D01*
X56525455Y-116870496D02*
X56555211Y-116884943D01*
X56555211Y-116884943D02*
X56568400Y-116889991D01*
X56568400Y-116889991D02*
X56829614Y-116966499D01*
X56829614Y-116966499D02*
X57098684Y-117002985D01*
X57098684Y-117002985D02*
X57364522Y-116999096D01*
X57364522Y-116999096D02*
X57616038Y-116954478D01*
X57616038Y-116954478D02*
X57707002Y-116926262D01*
X57707002Y-116926262D02*
X57977785Y-116805291D01*
X57977785Y-116805291D02*
X58217014Y-116645454D01*
X58217014Y-116645454D02*
X58422062Y-116449568D01*
X58422062Y-116449568D02*
X58590302Y-116220447D01*
X58590302Y-116220447D02*
X58719106Y-115960910D01*
X58719106Y-115960910D02*
X58781129Y-115774719D01*
X58781129Y-115774719D02*
X58817938Y-115571123D01*
X58817938Y-115571123D02*
X58826937Y-115344587D01*
X58826937Y-115344587D02*
X58808882Y-115114181D01*
X58808882Y-115114181D02*
X58764526Y-114898972D01*
X58764526Y-114898972D02*
X58743874Y-114833472D01*
X58743874Y-114833472D02*
X58626603Y-114559532D01*
X58626603Y-114559532D02*
X58478251Y-114317535D01*
X58478251Y-114317535D02*
X58302178Y-114111544D01*
X58302178Y-114111544D02*
X58101745Y-113945623D01*
X58101745Y-113945623D02*
X57926036Y-113844427D01*
X57926036Y-113844427D02*
X57823261Y-113797969D01*
X57823261Y-113797969D02*
X57739913Y-113768580D01*
X57739913Y-113768580D02*
X57656264Y-113751610D01*
X57656264Y-113751610D02*
X57552589Y-113742410D01*
X57552589Y-113742410D02*
X57478444Y-113738918D01*
X57478444Y-113738918D02*
X57343998Y-113736285D01*
X57343998Y-113736285D02*
X57236099Y-113742767D01*
X57236099Y-113742767D02*
X57130885Y-113761181D01*
X57130885Y-113761181D02*
X57004495Y-113794345D01*
X57004495Y-113794345D02*
X57001432Y-113795222D01*
X57001432Y-113795222D02*
X56705009Y-113903035D01*
X56705009Y-113903035D02*
X56432114Y-114047784D01*
X56432114Y-114047784D02*
X56187365Y-114225317D01*
X56187365Y-114225317D02*
X55975378Y-114431481D01*
X55975378Y-114431481D02*
X55800771Y-114662125D01*
X55800771Y-114662125D02*
X55668160Y-114913097D01*
X55668160Y-114913097D02*
X55622036Y-115035732D01*
X55622036Y-115035732D02*
X55590259Y-115172119D01*
X55590259Y-115172119D02*
X55572210Y-115335392D01*
X55572210Y-115335392D02*
X55568045Y-115508255D01*
X55568045Y-115508255D02*
X55169567Y-115508255D01*
X55169567Y-115508255D02*
X55169600Y-115439605D01*
X55169600Y-115439605D02*
X55191478Y-115154912D01*
X55191478Y-115154912D02*
X55254305Y-114875768D01*
X55254305Y-114875768D02*
X55312800Y-114712420D01*
X55312800Y-114712420D02*
X55374076Y-114590357D01*
X55374076Y-114590357D02*
X55461548Y-114448655D01*
X55461548Y-114448655D02*
X55564732Y-114302822D01*
X55564732Y-114302822D02*
X55673145Y-114168365D01*
X55673145Y-114168365D02*
X55703951Y-114133839D01*
X55703951Y-114133839D02*
X55759995Y-114074342D01*
X55759995Y-114074342D02*
X55796801Y-114031504D01*
X55796801Y-114031504D02*
X55811053Y-113997510D01*
X55811053Y-113997510D02*
X55799432Y-113964544D01*
X55799432Y-113964544D02*
X55758620Y-113924791D01*
X55758620Y-113924791D02*
X55685301Y-113870436D01*
X55685301Y-113870436D02*
X55576157Y-113793664D01*
X55576157Y-113793664D02*
X55552400Y-113776824D01*
X55552400Y-113776824D02*
X55435941Y-113694413D01*
X55435941Y-113694413D02*
X55352678Y-113638732D01*
X55352678Y-113638732D02*
X55294198Y-113607365D01*
X55294198Y-113607365D02*
X55252088Y-113597898D01*
X55252088Y-113597898D02*
X55217937Y-113607915D01*
X55217937Y-113607915D02*
X55183331Y-113635000D01*
X55183331Y-113635000D02*
X55154561Y-113662601D01*
X55154561Y-113662601D02*
X55040643Y-113795835D01*
X55040643Y-113795835D02*
X54939846Y-113956114D01*
X54939846Y-113956114D02*
X54877997Y-114090400D01*
X54877997Y-114090400D02*
X54820559Y-114203927D01*
X54820559Y-114203927D02*
X54750455Y-114270611D01*
X54750455Y-114270611D02*
X54664359Y-114293546D01*
X54664359Y-114293546D02*
X54659431Y-114293600D01*
X54659431Y-114293600D02*
X54582939Y-114273108D01*
X54582939Y-114273108D02*
X54514130Y-114221583D01*
X54514130Y-114221583D02*
X54469228Y-114153951D01*
X54469228Y-114153951D02*
X54460510Y-114110604D01*
X54460510Y-114110604D02*
X54473584Y-114043467D01*
X54473584Y-114043467D02*
X54508277Y-113946467D01*
X54508277Y-113946467D02*
X54558561Y-113832358D01*
X54558561Y-113832358D02*
X54618408Y-113713895D01*
X54618408Y-113713895D02*
X54681788Y-113603832D01*
X54681788Y-113603832D02*
X54741110Y-113516942D01*
X54741110Y-113516942D02*
X54793005Y-113446681D01*
X54793005Y-113446681D02*
X54827922Y-113393549D01*
X54827922Y-113393549D02*
X54838674Y-113368530D01*
X54838674Y-113368530D02*
X54838437Y-113368203D01*
X54838437Y-113368203D02*
X54802822Y-113347260D01*
X54802822Y-113347260D02*
X54730564Y-113313949D01*
X54730564Y-113313949D02*
X54632906Y-113272853D01*
X54632906Y-113272853D02*
X54521092Y-113228559D01*
X54521092Y-113228559D02*
X54406366Y-113185651D01*
X54406366Y-113185651D02*
X54301495Y-113149218D01*
X54301495Y-113149218D02*
X53818933Y-113016280D01*
X53818933Y-113016280D02*
X53330475Y-112933648D01*
X53330475Y-112933648D02*
X52836932Y-112901272D01*
X52836932Y-112901272D02*
X52339115Y-112919102D01*
X52339115Y-112919102D02*
X51837834Y-112987088D01*
X51837834Y-112987088D02*
X51333899Y-113105182D01*
X51333899Y-113105182D02*
X50828123Y-113273333D01*
X50828123Y-113273333D02*
X50571223Y-113377704D01*
X50571223Y-113377704D02*
X50154634Y-113584207D01*
X50154634Y-113584207D02*
X49753596Y-113836565D01*
X49753596Y-113836565D02*
X49372230Y-114131135D01*
X49372230Y-114131135D02*
X49014655Y-114464276D01*
X49014655Y-114464276D02*
X48684990Y-114832345D01*
X48684990Y-114832345D02*
X48387355Y-115231699D01*
X48387355Y-115231699D02*
X48270340Y-115411981D01*
X48270340Y-115411981D02*
X48055766Y-115799175D01*
X48055766Y-115799175D02*
X47870171Y-116220662D01*
X47870171Y-116220662D02*
X47716661Y-116667019D01*
X47716661Y-116667019D02*
X47598342Y-117128823D01*
X47598342Y-117128823D02*
X47518323Y-117596648D01*
X47518323Y-117596648D02*
X47501487Y-117744341D01*
X47501487Y-117744341D02*
X47489016Y-117896692D01*
X47489016Y-117896692D02*
X47480530Y-118058385D01*
X47480530Y-118058385D02*
X47475886Y-118222031D01*
X47475886Y-118222031D02*
X47474938Y-118380238D01*
X47474938Y-118380238D02*
X47081711Y-118380238D01*
X47081711Y-118380238D02*
X47082644Y-118268475D01*
X47082644Y-118268475D02*
X47086561Y-118077739D01*
X47086561Y-118077739D02*
X47092679Y-117892022D01*
X47092679Y-117892022D02*
X47100838Y-117720611D01*
X47100838Y-117720611D02*
X47110876Y-117572793D01*
X47110876Y-117572793D02*
X47122632Y-117457854D01*
X47122632Y-117457854D02*
X47128711Y-117417800D01*
X47128711Y-117417800D02*
X47175290Y-117172895D01*
X47175290Y-117172895D02*
X47224683Y-116943223D01*
X47224683Y-116943223D02*
X47274283Y-116740099D01*
X47274283Y-116740099D02*
X47321480Y-116574839D01*
X47321480Y-116574839D02*
X47326793Y-116558292D01*
X47326793Y-116558292D02*
X47350343Y-116474017D01*
X47350343Y-116474017D02*
X47361257Y-116409129D01*
X47361257Y-116409129D02*
X47357372Y-116378161D01*
X47357372Y-116378161D02*
X47322070Y-116362741D01*
X47322070Y-116362741D02*
X47253750Y-116342891D01*
X47253750Y-116342891D02*
X47191757Y-116328314D01*
X47191757Y-116328314D02*
X46974529Y-116260002D01*
X46974529Y-116260002D02*
X46758580Y-116152088D01*
X46758580Y-116152088D02*
X46556250Y-116013034D01*
X46556250Y-116013034D02*
X46379877Y-115851303D01*
X46379877Y-115851303D02*
X46243424Y-115677900D01*
X46243424Y-115677900D02*
X46153315Y-115520468D01*
X46153315Y-115520468D02*
X46093218Y-115369628D01*
X46093218Y-115369628D02*
X46058329Y-115208350D01*
X46058329Y-115208350D02*
X46043846Y-115019604D01*
X46043846Y-115019604D02*
X46042856Y-114966700D01*
X46042856Y-114966700D02*
X46043320Y-114830612D01*
X46043320Y-114830612D02*
X46049644Y-114726056D01*
X46049644Y-114726056D02*
X46064541Y-114633857D01*
X46064541Y-114633857D02*
X46090727Y-114534843D01*
X46090727Y-114534843D02*
X46114777Y-114458700D01*
X46114777Y-114458700D02*
X46175741Y-114298671D01*
X46175741Y-114298671D02*
X46239514Y-114186218D01*
X46239514Y-114186218D02*
X46308610Y-114118116D01*
X46308610Y-114118116D02*
X46385542Y-114091143D01*
X46385542Y-114091143D02*
X46402018Y-114090400D01*
X46402018Y-114090400D02*
X46483402Y-114113136D01*
X46483402Y-114113136D02*
X46533802Y-114152199D01*
X46533802Y-114152199D02*
X46566675Y-114200337D01*
X46566675Y-114200337D02*
X46580277Y-114260389D01*
X46580277Y-114260389D02*
X46573949Y-114340856D01*
X46573949Y-114340856D02*
X46547031Y-114450241D01*
X46547031Y-114450241D02*
X46499450Y-114595374D01*
X46499450Y-114595374D02*
X46443394Y-114821786D01*
X46443394Y-114821786D02*
X46435500Y-115039365D01*
X46435500Y-115039365D02*
X46474939Y-115244514D01*
X46474939Y-115244514D02*
X46560883Y-115433638D01*
X46560883Y-115433638D02*
X46692505Y-115603141D01*
X46692505Y-115603141D02*
X46742539Y-115651218D01*
X46742539Y-115651218D02*
X46894795Y-115767629D01*
X46894795Y-115767629D02*
X47064480Y-115862905D01*
X47064480Y-115862905D02*
X47237957Y-115931023D01*
X47237957Y-115931023D02*
X47401590Y-115965959D01*
X47401590Y-115965959D02*
X47462500Y-115969292D01*
X47462500Y-115969292D02*
X47497667Y-115966308D01*
X47497667Y-115966308D02*
X47526208Y-115952004D01*
X47526208Y-115952004D02*
X47554398Y-115918187D01*
X47554398Y-115918187D02*
X47588515Y-115856662D01*
X47588515Y-115856662D02*
X47634835Y-115759236D01*
X47634835Y-115759236D02*
X47651975Y-115721943D01*
X47651975Y-115721943D02*
X47865564Y-115309306D01*
X47865564Y-115309306D02*
X48124537Y-114905742D01*
X48124537Y-114905742D02*
X48431083Y-114507992D01*
X48431083Y-114507992D02*
X48592239Y-114322104D01*
X48592239Y-114322104D02*
X48685763Y-114216951D01*
X48685763Y-114216951D02*
X48748727Y-114142747D01*
X48748727Y-114142747D02*
X48785191Y-114093264D01*
X48785191Y-114093264D02*
X48799217Y-114062274D01*
X48799217Y-114062274D02*
X48794867Y-114043550D01*
X48794867Y-114043550D02*
X48780692Y-114033117D01*
X48780692Y-114033117D02*
X48720684Y-113989723D01*
X48720684Y-113989723D02*
X48640260Y-113915670D01*
X48640260Y-113915670D02*
X48548856Y-113821406D01*
X48548856Y-113821406D02*
X48455907Y-113717376D01*
X48455907Y-113717376D02*
X48370847Y-113614026D01*
X48370847Y-113614026D02*
X48303112Y-113521805D01*
X48303112Y-113521805D02*
X48270239Y-113467919D01*
X48270239Y-113467919D02*
X48160492Y-113209339D01*
X48160492Y-113209339D02*
X48099286Y-112947111D01*
X48099286Y-112947111D02*
X48085995Y-112685817D01*
X48085995Y-112685817D02*
X48119996Y-112430037D01*
X48119996Y-112430037D02*
X48200665Y-112184352D01*
X48200665Y-112184352D02*
X48327378Y-111953344D01*
X48327378Y-111953344D02*
X48499510Y-111741594D01*
X48499510Y-111741594D02*
X48506387Y-111734550D01*
X48506387Y-111734550D02*
X48614787Y-111632040D01*
X48614787Y-111632040D02*
X48702059Y-111569965D01*
X48702059Y-111569965D02*
X48774955Y-111546296D01*
X48774955Y-111546296D02*
X48840225Y-111559001D01*
X48840225Y-111559001D02*
X48904624Y-111606051D01*
X48904624Y-111606051D02*
X48911454Y-111612745D01*
X48911454Y-111612745D02*
X48957379Y-111671220D01*
X48957379Y-111671220D02*
X48971906Y-111730065D01*
X48971906Y-111730065D02*
X48952889Y-111797141D01*
X48952889Y-111797141D02*
X48898181Y-111880307D01*
X48898181Y-111880307D02*
X48810604Y-111982020D01*
X48810604Y-111982020D02*
X48653515Y-112180914D01*
X48653515Y-112180914D02*
X48546627Y-112381857D01*
X48546627Y-112381857D02*
X48489344Y-112587472D01*
X48489344Y-112587472D02*
X48481068Y-112800383D01*
X48481068Y-112800383D02*
X48521204Y-113023213D01*
X48521204Y-113023213D02*
X48552067Y-113119592D01*
X48552067Y-113119592D02*
X48632866Y-113287496D01*
X48632866Y-113287496D02*
X48749441Y-113454110D01*
X48749441Y-113454110D02*
X48888988Y-113604054D01*
X48888988Y-113604054D02*
X49038703Y-113721949D01*
X49038703Y-113721949D02*
X49068998Y-113740479D01*
X49068998Y-113740479D02*
X49144466Y-113784258D01*
X49144466Y-113784258D02*
X49332183Y-113643299D01*
X49332183Y-113643299D02*
X49764076Y-113350352D01*
X49764076Y-113350352D02*
X50224970Y-113097482D01*
X50224970Y-113097482D02*
X50709243Y-112887592D01*
X50709243Y-112887592D02*
X50978623Y-112793102D01*
X50978623Y-112793102D02*
X51192747Y-112724027D01*
X51192747Y-112724027D02*
X51187123Y-112448363D01*
X51187123Y-112448363D02*
X51201511Y-112161594D01*
X51201511Y-112161594D02*
X51257254Y-111904188D01*
X51257254Y-111904188D02*
X51354752Y-111675450D01*
X51354752Y-111675450D02*
X51494406Y-111474687D01*
X51494406Y-111474687D02*
X51676615Y-111301205D01*
X51676615Y-111301205D02*
X51901781Y-111154310D01*
X51901781Y-111154310D02*
X51947831Y-111130169D01*
X51947831Y-111130169D02*
X52057997Y-111084200D01*
X52057997Y-111084200D02*
X52201395Y-111038309D01*
X52201395Y-111038309D02*
X52360660Y-110997104D01*
X52360660Y-110997104D02*
X52518426Y-110965192D01*
X52518426Y-110965192D02*
X52627120Y-110949939D01*
X52627120Y-110949939D02*
X52715536Y-110943284D01*
X52715536Y-110943284D02*
X52770850Y-110948564D01*
X52770850Y-110948564D02*
X52770850Y-110948564D01*
G36*
X45412088Y-120182713D02*
G01*
X45529910Y-119936566D01*
X45695649Y-119703231D01*
X45756591Y-119633921D01*
X45922746Y-119483311D01*
X46119541Y-119353518D01*
X46223005Y-119303820D01*
X47566092Y-119303820D01*
X47575413Y-119376355D01*
X47595831Y-119481122D01*
X47625540Y-119609925D01*
X47662736Y-119754566D01*
X47705612Y-119906851D01*
X47720826Y-119957800D01*
X47893719Y-120444846D01*
X48107318Y-120902816D01*
X48359689Y-121330058D01*
X48648898Y-121724920D01*
X48973008Y-122085752D01*
X49330085Y-122410902D01*
X49718193Y-122698719D01*
X50135399Y-122947552D01*
X50579766Y-123155750D01*
X51049360Y-123321660D01*
X51542245Y-123443633D01*
X51869400Y-123497926D01*
X52051667Y-123516391D01*
X52269447Y-123528631D01*
X52507827Y-123534600D01*
X52751898Y-123534255D01*
X52986748Y-123527554D01*
X53197467Y-123514453D01*
X53317200Y-123502139D01*
X53851788Y-123411194D01*
X54373538Y-123275094D01*
X54878390Y-123095775D01*
X55362288Y-122875176D01*
X55821172Y-122615234D01*
X56250985Y-122317886D01*
X56647669Y-121985072D01*
X56799039Y-121839569D01*
X57117438Y-121492943D01*
X57389887Y-121134354D01*
X57621017Y-120756526D01*
X57815462Y-120352182D01*
X57924228Y-120072100D01*
X58039464Y-119680546D01*
X58117693Y-119262781D01*
X58158491Y-118827837D01*
X58161436Y-118384750D01*
X58126104Y-117942553D01*
X58052072Y-117510280D01*
X58045583Y-117481300D01*
X58024045Y-117387220D01*
X58003905Y-117326288D01*
X57975466Y-117294494D01*
X57929032Y-117287828D01*
X57854905Y-117302280D01*
X57743388Y-117333840D01*
X57711400Y-117343106D01*
X57600890Y-117370367D01*
X57485763Y-117387867D01*
X57349973Y-117397424D01*
X57203400Y-117400686D01*
X57070334Y-117400839D01*
X56965642Y-117397262D01*
X56873862Y-117387695D01*
X56779533Y-117369881D01*
X56667194Y-117341561D01*
X56525578Y-117301682D01*
X56514761Y-117306965D01*
X56523074Y-117336332D01*
X56552400Y-117393036D01*
X56604624Y-117480327D01*
X56681629Y-117601455D01*
X56785300Y-117759672D01*
X56830628Y-117828013D01*
X57004958Y-118095810D01*
X57154148Y-118336736D01*
X57277003Y-118548563D01*
X57372323Y-118729065D01*
X57438913Y-118876016D01*
X57475575Y-118987189D01*
X57482800Y-119040918D01*
X57458012Y-119141460D01*
X57384536Y-119232699D01*
X57263702Y-119314209D01*
X57096838Y-119385565D01*
X56885275Y-119446341D01*
X56630343Y-119496114D01*
X56333371Y-119534457D01*
X55995690Y-119560946D01*
X55831800Y-119568845D01*
X55686625Y-119574119D01*
X55583096Y-119576019D01*
X55512126Y-119573778D01*
X55464625Y-119566631D01*
X55431507Y-119553814D01*
X55403685Y-119534562D01*
X55401269Y-119532602D01*
X55351757Y-119462523D01*
X55337715Y-119374625D01*
X55359771Y-119288061D01*
X55391784Y-119243527D01*
X55417005Y-119223117D01*
X55451506Y-119207667D01*
X55503592Y-119195801D01*
X55581564Y-119186145D01*
X55693725Y-119177321D01*
X55847714Y-119167993D01*
X56075851Y-119152267D01*
X56294215Y-119131858D01*
X56496820Y-119107743D01*
X56677684Y-119080897D01*
X56830821Y-119052297D01*
X56950249Y-119022919D01*
X57029983Y-118993740D01*
X57062067Y-118969841D01*
X57056247Y-118934947D01*
X57021230Y-118861485D01*
X56958372Y-118751470D01*
X56869034Y-118606916D01*
X56754573Y-118429837D01*
X56616348Y-118222248D01*
X56455717Y-117986163D01*
X56274040Y-117723597D01*
X56072674Y-117436565D01*
X55852978Y-117127080D01*
X55616311Y-116797157D01*
X55364031Y-116448811D01*
X55334462Y-116408186D01*
X55247495Y-116289252D01*
X55183935Y-116205303D01*
X55137305Y-116150243D01*
X55101127Y-116117980D01*
X55068922Y-116102417D01*
X55034215Y-116097460D01*
X55003760Y-116097036D01*
X54886138Y-116121118D01*
X54770535Y-116188980D01*
X54664683Y-116293927D01*
X54576314Y-116429260D01*
X54546436Y-116493157D01*
X54529691Y-116536638D01*
X54523133Y-116574115D01*
X54529256Y-116616967D01*
X54550555Y-116676571D01*
X54589526Y-116764305D01*
X54620566Y-116831180D01*
X54746246Y-117157084D01*
X54823317Y-117487141D01*
X54852492Y-117817303D01*
X54834488Y-118143524D01*
X54770016Y-118461755D01*
X54659792Y-118767950D01*
X54504529Y-119058062D01*
X54304942Y-119328044D01*
X54151224Y-119491357D01*
X53889133Y-119712314D01*
X53607247Y-119886507D01*
X53305073Y-120014149D01*
X52982115Y-120095459D01*
X52694787Y-120128089D01*
X52346398Y-120125326D01*
X52019020Y-120076514D01*
X51710939Y-119981005D01*
X51420439Y-119838147D01*
X51145808Y-119647292D01*
X50939293Y-119462500D01*
X50710000Y-119205939D01*
X50529552Y-118936970D01*
X50397059Y-118653543D01*
X50311633Y-118353607D01*
X50272386Y-118035112D01*
X50269429Y-117918199D01*
X50675975Y-117918199D01*
X50680552Y-118093182D01*
X50697674Y-118241503D01*
X50731491Y-118380713D01*
X50786156Y-118528361D01*
X50857093Y-118683970D01*
X50925996Y-118819501D01*
X50990593Y-118925645D01*
X51063759Y-119020823D01*
X51158368Y-119123453D01*
X51178932Y-119144405D01*
X51277262Y-119238514D01*
X51379819Y-119327513D01*
X51477717Y-119404601D01*
X51562069Y-119462979D01*
X51623988Y-119495847D01*
X51644476Y-119500600D01*
X51648162Y-119480204D01*
X51633549Y-119429521D01*
X51626803Y-119412515D01*
X51592311Y-119268377D01*
X51602491Y-119121739D01*
X51652602Y-118981896D01*
X51737905Y-118858144D01*
X51853659Y-118759780D01*
X51991578Y-118697116D01*
X52157081Y-118670599D01*
X52308086Y-118692488D01*
X52447329Y-118763491D01*
X52533473Y-118836957D01*
X52637780Y-118970044D01*
X52692980Y-119113719D01*
X52700232Y-119271217D01*
X52697415Y-119295080D01*
X52664240Y-119417455D01*
X52604056Y-119536401D01*
X52527265Y-119634264D01*
X52470646Y-119679896D01*
X52390100Y-119729010D01*
X52593300Y-119728664D01*
X52722102Y-119723189D01*
X52860737Y-119709211D01*
X52973571Y-119690809D01*
X53202816Y-119621999D01*
X53436128Y-119515519D01*
X53658326Y-119380124D01*
X53854232Y-119224567D01*
X53951184Y-119127047D01*
X54117838Y-118909302D01*
X54257533Y-118662169D01*
X54364266Y-118399101D01*
X54432034Y-118133550D01*
X54448668Y-118012222D01*
X54453190Y-117837496D01*
X54438568Y-117638136D01*
X54407315Y-117435463D01*
X54361943Y-117250794D01*
X54357120Y-117235370D01*
X54268746Y-117014954D01*
X54147212Y-116792807D01*
X54002047Y-116583187D01*
X53842777Y-116400347D01*
X53730907Y-116298288D01*
X53497546Y-116139566D01*
X53247646Y-116028065D01*
X52983975Y-115964018D01*
X52709307Y-115947659D01*
X52426411Y-115979222D01*
X52138059Y-116058942D01*
X51928989Y-116146115D01*
X51720974Y-116252606D01*
X51546497Y-116360029D01*
X51389251Y-116479118D01*
X51289015Y-116567443D01*
X51072291Y-116799385D01*
X50901996Y-117050385D01*
X50778767Y-117319041D01*
X50703240Y-117603950D01*
X50676053Y-117903711D01*
X50675975Y-117918199D01*
X50269429Y-117918199D01*
X50269391Y-117916732D01*
X50267698Y-117824736D01*
X50261281Y-117774138D01*
X50247751Y-117755590D01*
X50228835Y-117758054D01*
X50200126Y-117773072D01*
X50132235Y-117810545D01*
X50029896Y-117867776D01*
X49897844Y-117942070D01*
X49740813Y-118030734D01*
X49563540Y-118131070D01*
X49370758Y-118240384D01*
X49167202Y-118355982D01*
X48957608Y-118475167D01*
X48746709Y-118595245D01*
X48539241Y-118713520D01*
X48339938Y-118827298D01*
X48153536Y-118933882D01*
X47984768Y-119030579D01*
X47838371Y-119114692D01*
X47719078Y-119183527D01*
X47631624Y-119234389D01*
X47580745Y-119264582D01*
X47569675Y-119271712D01*
X47566092Y-119303820D01*
X46223005Y-119303820D01*
X46334434Y-119250297D01*
X46554883Y-119179401D01*
X46768344Y-119146585D01*
X46822330Y-119145000D01*
X46923004Y-119137784D01*
X47011627Y-119119069D01*
X47045598Y-119105762D01*
X47094589Y-119075301D01*
X47110837Y-119040437D01*
X47103283Y-118979928D01*
X47101723Y-118972412D01*
X47092215Y-118895880D01*
X47085714Y-118777934D01*
X47082059Y-118627859D01*
X47081089Y-118454944D01*
X47081711Y-118380238D01*
X47474938Y-118380238D01*
X47477542Y-118525615D01*
X47483553Y-118650773D01*
X47492826Y-118748321D01*
X47505217Y-118810868D01*
X47520582Y-118831023D01*
X47522742Y-118830172D01*
X47547111Y-118816273D01*
X47611722Y-118779456D01*
X47712674Y-118721943D01*
X47846067Y-118645956D01*
X48007998Y-118553718D01*
X48194567Y-118447450D01*
X48401873Y-118329375D01*
X48626015Y-118201715D01*
X48846800Y-118075970D01*
X49086888Y-117939293D01*
X49316766Y-117808543D01*
X49532115Y-117686169D01*
X49728616Y-117574620D01*
X49901952Y-117476345D01*
X50047803Y-117393792D01*
X50161851Y-117329410D01*
X50239777Y-117285648D01*
X50274493Y-117266435D01*
X50356421Y-117213460D01*
X50407481Y-117152786D01*
X50437530Y-117087600D01*
X50524035Y-116905875D01*
X50647055Y-116711540D01*
X50797872Y-116515106D01*
X50967769Y-116327086D01*
X51148027Y-116157991D01*
X51316862Y-116027252D01*
X51626402Y-115839213D01*
X51940212Y-115697462D01*
X52255162Y-115601938D01*
X52568122Y-115552582D01*
X52875962Y-115549330D01*
X53175549Y-115592123D01*
X53463755Y-115680899D01*
X53737448Y-115815597D01*
X53993498Y-115996156D01*
X54090462Y-116081380D01*
X54155762Y-116140421D01*
X54206264Y-116182533D01*
X54231034Y-116198599D01*
X54231036Y-116198600D01*
X54252691Y-116179021D01*
X54285825Y-116131133D01*
X54290326Y-116123640D01*
X54405625Y-115975360D01*
X54556898Y-115851422D01*
X54732299Y-115759021D01*
X54919983Y-115705350D01*
X54993626Y-115696493D01*
X55169486Y-115683911D01*
X55169567Y-115508255D01*
X55568045Y-115508255D01*
X55577923Y-115673410D01*
X55602000Y-115813563D01*
X55614567Y-115855700D01*
X55698369Y-116061992D01*
X55797086Y-116247536D01*
X55903118Y-116398310D01*
X55918336Y-116416098D01*
X56027081Y-116539678D01*
X56025022Y-116388140D01*
X56038252Y-116246149D01*
X56086590Y-116129217D01*
X56176527Y-116023956D01*
X56219539Y-115986985D01*
X56341431Y-115918966D01*
X56477657Y-115893350D01*
X56617238Y-115908496D01*
X56749193Y-115962764D01*
X56862542Y-116054514D01*
X56889768Y-116087114D01*
X56933944Y-116157784D01*
X56958630Y-116236758D01*
X56970345Y-116340509D01*
X56973066Y-116439224D01*
X56962834Y-116510735D01*
X56934975Y-116577960D01*
X56914430Y-116614649D01*
X56815414Y-116736653D01*
X56686348Y-116818107D01*
X56593800Y-116846986D01*
X56536891Y-116860258D01*
X56525455Y-116870496D01*
X56555211Y-116884943D01*
X56568400Y-116889991D01*
X56829614Y-116966499D01*
X57098684Y-117002985D01*
X57364522Y-116999096D01*
X57616038Y-116954478D01*
X57707002Y-116926262D01*
X57977785Y-116805291D01*
X58217014Y-116645454D01*
X58422062Y-116449568D01*
X58590302Y-116220447D01*
X58719106Y-115960910D01*
X58781129Y-115774719D01*
X58817938Y-115571123D01*
X58826937Y-115344587D01*
X58808882Y-115114181D01*
X58764526Y-114898972D01*
X58743874Y-114833472D01*
X58626603Y-114559532D01*
X58478251Y-114317535D01*
X58302178Y-114111544D01*
X58101745Y-113945623D01*
X57926036Y-113844427D01*
X57823261Y-113797969D01*
X57739913Y-113768580D01*
X57656264Y-113751610D01*
X57552589Y-113742410D01*
X57478444Y-113738918D01*
X57343998Y-113736285D01*
X57236099Y-113742767D01*
X57130885Y-113761181D01*
X57004495Y-113794345D01*
X57001432Y-113795222D01*
X56705009Y-113903035D01*
X56432114Y-114047784D01*
X56187365Y-114225317D01*
X55975378Y-114431481D01*
X55800771Y-114662125D01*
X55668160Y-114913097D01*
X55622036Y-115035732D01*
X55590259Y-115172119D01*
X55572210Y-115335392D01*
X55568045Y-115508255D01*
X55169567Y-115508255D01*
X55169600Y-115439605D01*
X55191478Y-115154912D01*
X55254305Y-114875768D01*
X55312800Y-114712420D01*
X55374076Y-114590357D01*
X55461548Y-114448655D01*
X55564732Y-114302822D01*
X55673145Y-114168365D01*
X55703951Y-114133839D01*
X55759995Y-114074342D01*
X55796801Y-114031504D01*
X55811053Y-113997510D01*
X55799432Y-113964544D01*
X55758620Y-113924791D01*
X55685301Y-113870436D01*
X55576157Y-113793664D01*
X55552400Y-113776824D01*
X55435941Y-113694413D01*
X55352678Y-113638732D01*
X55294198Y-113607365D01*
X55252088Y-113597898D01*
X55217937Y-113607915D01*
X55183331Y-113635000D01*
X55154561Y-113662601D01*
X55040643Y-113795835D01*
X54939846Y-113956114D01*
X54877997Y-114090400D01*
X54820559Y-114203927D01*
X54750455Y-114270611D01*
X54664359Y-114293546D01*
X54659431Y-114293600D01*
X54582939Y-114273108D01*
X54514130Y-114221583D01*
X54469228Y-114153951D01*
X54460510Y-114110604D01*
X54473584Y-114043467D01*
X54508277Y-113946467D01*
X54558561Y-113832358D01*
X54618408Y-113713895D01*
X54681788Y-113603832D01*
X54741110Y-113516942D01*
X54793005Y-113446681D01*
X54827922Y-113393549D01*
X54838674Y-113368530D01*
X54838437Y-113368203D01*
X54802822Y-113347260D01*
X54730564Y-113313949D01*
X54632906Y-113272853D01*
X54521092Y-113228559D01*
X54406366Y-113185651D01*
X54301495Y-113149218D01*
X53818933Y-113016280D01*
X53330475Y-112933648D01*
X52836932Y-112901272D01*
X52339115Y-112919102D01*
X51837834Y-112987088D01*
X51333899Y-113105182D01*
X50828123Y-113273333D01*
X50571223Y-113377704D01*
X50154634Y-113584207D01*
X49753596Y-113836565D01*
X49372230Y-114131135D01*
X49014655Y-114464276D01*
X48684990Y-114832345D01*
X48387355Y-115231699D01*
X48270340Y-115411981D01*
X48055766Y-115799175D01*
X47870171Y-116220662D01*
X47716661Y-116667019D01*
X47598342Y-117128823D01*
X47518323Y-117596648D01*
X47501487Y-117744341D01*
X47489016Y-117896692D01*
X47480530Y-118058385D01*
X47475886Y-118222031D01*
X47474938Y-118380238D01*
X47081711Y-118380238D01*
X47082644Y-118268475D01*
X47086561Y-118077739D01*
X47092679Y-117892022D01*
X47100838Y-117720611D01*
X47110876Y-117572793D01*
X47122632Y-117457854D01*
X47128711Y-117417800D01*
X47175290Y-117172895D01*
X47224683Y-116943223D01*
X47274283Y-116740099D01*
X47321480Y-116574839D01*
X47326793Y-116558292D01*
X47350343Y-116474017D01*
X47361257Y-116409129D01*
X47357372Y-116378161D01*
X47322070Y-116362741D01*
X47253750Y-116342891D01*
X47191757Y-116328314D01*
X46974529Y-116260002D01*
X46758580Y-116152088D01*
X46556250Y-116013034D01*
X46379877Y-115851303D01*
X46243424Y-115677900D01*
X46153315Y-115520468D01*
X46093218Y-115369628D01*
X46058329Y-115208350D01*
X46043846Y-115019604D01*
X46042856Y-114966700D01*
X46043320Y-114830612D01*
X46049644Y-114726056D01*
X46064541Y-114633857D01*
X46090727Y-114534843D01*
X46114777Y-114458700D01*
X46175741Y-114298671D01*
X46239514Y-114186218D01*
X46308610Y-114118116D01*
X46385542Y-114091143D01*
X46402018Y-114090400D01*
X46483402Y-114113136D01*
X46533802Y-114152199D01*
X46566675Y-114200337D01*
X46580277Y-114260389D01*
X46573949Y-114340856D01*
X46547031Y-114450241D01*
X46499450Y-114595374D01*
X46443394Y-114821786D01*
X46435500Y-115039365D01*
X46474939Y-115244514D01*
X46560883Y-115433638D01*
X46692505Y-115603141D01*
X46742539Y-115651218D01*
X46894795Y-115767629D01*
X47064480Y-115862905D01*
X47237957Y-115931023D01*
X47401590Y-115965959D01*
X47462500Y-115969292D01*
X47497667Y-115966308D01*
X47526208Y-115952004D01*
X47554398Y-115918187D01*
X47588515Y-115856662D01*
X47634835Y-115759236D01*
X47651975Y-115721943D01*
X47865564Y-115309306D01*
X48124537Y-114905742D01*
X48431083Y-114507992D01*
X48592239Y-114322104D01*
X48685763Y-114216951D01*
X48748727Y-114142747D01*
X48785191Y-114093264D01*
X48799217Y-114062274D01*
X48794867Y-114043550D01*
X48780692Y-114033117D01*
X48720684Y-113989723D01*
X48640260Y-113915670D01*
X48548856Y-113821406D01*
X48455907Y-113717376D01*
X48370847Y-113614026D01*
X48303112Y-113521805D01*
X48270239Y-113467919D01*
X48160492Y-113209339D01*
X48099286Y-112947111D01*
X48085995Y-112685817D01*
X48119996Y-112430037D01*
X48200665Y-112184352D01*
X48327378Y-111953344D01*
X48499510Y-111741594D01*
X48506387Y-111734550D01*
X48614787Y-111632040D01*
X48702059Y-111569965D01*
X48774955Y-111546296D01*
X48840225Y-111559001D01*
X48904624Y-111606051D01*
X48911454Y-111612745D01*
X48957379Y-111671220D01*
X48971906Y-111730065D01*
X48952889Y-111797141D01*
X48898181Y-111880307D01*
X48810604Y-111982020D01*
X48653515Y-112180914D01*
X48546627Y-112381857D01*
X48489344Y-112587472D01*
X48481068Y-112800383D01*
X48521204Y-113023213D01*
X48552067Y-113119592D01*
X48632866Y-113287496D01*
X48749441Y-113454110D01*
X48888988Y-113604054D01*
X49038703Y-113721949D01*
X49068998Y-113740479D01*
X49144466Y-113784258D01*
X49332183Y-113643299D01*
X49764076Y-113350352D01*
X50224970Y-113097482D01*
X50709243Y-112887592D01*
X50978623Y-112793102D01*
X51192747Y-112724027D01*
X51187123Y-112448363D01*
X51201511Y-112161594D01*
X51257254Y-111904188D01*
X51354752Y-111675450D01*
X51494406Y-111474687D01*
X51676615Y-111301205D01*
X51901781Y-111154310D01*
X51947831Y-111130169D01*
X52057997Y-111084200D01*
X52201395Y-111038309D01*
X52360660Y-110997104D01*
X52518426Y-110965192D01*
X52627120Y-110949939D01*
X52715536Y-110943284D01*
X52770850Y-110948564D01*
X52810001Y-110968964D01*
X52831324Y-110988324D01*
X52874317Y-111063678D01*
X52883749Y-111156627D01*
X52858324Y-111245532D01*
X52847739Y-111262664D01*
X52805233Y-111298884D01*
X52729547Y-111326833D01*
X52638189Y-111345904D01*
X52365894Y-111407631D01*
X52137148Y-111492619D01*
X51949659Y-111602237D01*
X51801135Y-111737854D01*
X51689284Y-111900839D01*
X51680442Y-111917875D01*
X51621481Y-112078373D01*
X51588247Y-112269234D01*
X51583103Y-112475712D01*
X51585249Y-112512105D01*
X51592032Y-112580482D01*
X51606687Y-112610079D01*
X51640423Y-112612808D01*
X51674149Y-112606571D01*
X51947553Y-112561310D01*
X52248536Y-112528690D01*
X52562109Y-112509290D01*
X52873283Y-112503688D01*
X53167068Y-112512462D01*
X53428475Y-112536190D01*
X53444200Y-112538293D01*
X53858307Y-112611996D01*
X54271922Y-112718091D01*
X54668559Y-112851812D01*
X54973187Y-112980422D01*
X55086255Y-113031816D01*
X55162623Y-113062126D01*
X55210615Y-113073792D01*
X55238556Y-113069256D01*
X55248139Y-113061049D01*
X55285235Y-113033225D01*
X55357900Y-112990997D01*
X55454973Y-112939877D01*
X55565290Y-112885378D01*
X55677689Y-112833013D01*
X55781006Y-112788293D01*
X55864079Y-112756731D01*
X55865011Y-112756420D01*
X56006431Y-112716478D01*
X56168025Y-112681921D01*
X56329341Y-112656376D01*
X56469925Y-112643469D01*
X56507134Y-112642600D01*
X56603700Y-112648870D01*
X56666529Y-112670503D01*
X56694753Y-112692753D01*
X56752333Y-112777761D01*
X56762044Y-112865665D01*
X56727873Y-112943051D01*
X56696726Y-112978373D01*
X56657807Y-113004806D01*
X56601578Y-113025367D01*
X56518498Y-113043075D01*
X56399027Y-113060949D01*
X56324621Y-113070643D01*
X56173678Y-113097255D01*
X56014148Y-113137835D01*
X55862307Y-113187301D01*
X55734428Y-113240572D01*
X55672936Y-113274150D01*
X55596948Y-113322262D01*
X55758824Y-113431123D01*
X55859514Y-113501502D01*
X55963018Y-113578065D01*
X56040543Y-113639082D01*
X56160386Y-113738179D01*
X56308510Y-113651366D01*
X56613945Y-113499422D01*
X56928730Y-113396841D01*
X57256601Y-113342496D01*
X57356117Y-113335526D01*
X57563026Y-113334131D01*
X57741959Y-113355032D01*
X57912336Y-113402256D01*
X58093583Y-113479827D01*
X58123332Y-113494542D01*
X58377974Y-113650332D01*
X58606860Y-113847485D01*
X58806889Y-114081896D01*
X58974958Y-114349457D01*
X59107967Y-114646063D01*
X59187473Y-114903200D01*
X59210747Y-115040557D01*
X59222734Y-115211117D01*
X59223801Y-115398637D01*
X59214315Y-115586874D01*
X59194643Y-115759586D01*
X59165153Y-115900529D01*
X59164903Y-115901399D01*
X59053820Y-116204369D01*
X58901870Y-116479967D01*
X58706158Y-116732866D01*
X58554239Y-116887169D01*
X58463278Y-116974002D01*
X58405679Y-117035366D01*
X58375935Y-117078505D01*
X58368539Y-117110660D01*
X58372142Y-117126661D01*
X58384526Y-117170666D01*
X58404149Y-117252993D01*
X58428381Y-117362130D01*
X58454591Y-117486566D01*
X58456311Y-117494961D01*
X58538796Y-118012692D01*
X58571906Y-118519029D01*
X58555496Y-119015106D01*
X58489422Y-119502057D01*
X58373539Y-119981017D01*
X58207703Y-120453121D01*
X58029533Y-120845537D01*
X57792943Y-121261478D01*
X57511808Y-121656850D01*
X57189080Y-122029100D01*
X56827715Y-122375672D01*
X56430665Y-122694012D01*
X56000884Y-122981565D01*
X55541325Y-123235776D01*
X55054942Y-123454091D01*
X54979417Y-123483753D01*
X54696666Y-123588667D01*
X54441142Y-123673655D01*
X54195674Y-123743484D01*
X53943093Y-123802919D01*
X53666230Y-123856726D01*
X53583900Y-123871110D01*
X53398891Y-123896104D01*
X53176772Y-123915402D01*
X52930949Y-123928694D01*
X52674826Y-123935672D01*
X52421807Y-123936025D01*
X52185296Y-123929445D01*
X51978698Y-123915621D01*
X51920200Y-123909514D01*
X51404515Y-123825653D01*
X50900514Y-123696061D01*
X50415359Y-123522843D01*
X50067742Y-123365352D01*
X49659169Y-123140455D01*
X49280376Y-122885972D01*
X48923969Y-122596090D01*
X48582556Y-122264998D01*
X48369965Y-122030473D01*
X48310862Y-121964336D01*
X48273328Y-121931715D01*
X48246735Y-121926831D01*
X48220456Y-121943907D01*
X48216779Y-121947193D01*
X48157669Y-121987383D01*
X48062617Y-122037370D01*
X47944126Y-122091661D01*
X47814699Y-122144761D01*
X47686837Y-122191177D01*
X47600491Y-122218016D01*
X47436583Y-122253868D01*
X47249769Y-122278181D01*
X47057953Y-122289850D01*
X46879040Y-122287771D01*
X46734311Y-122271486D01*
X46455451Y-122197378D01*
X46204123Y-122084490D01*
X45973460Y-121928989D01*
X45756596Y-121727038D01*
X45753554Y-121723787D01*
X45581578Y-121512371D01*
X45456057Y-121293861D01*
X45372659Y-121060158D01*
X45353004Y-120975181D01*
X45322948Y-120704304D01*
X45330630Y-120602158D01*
X45731157Y-120602158D01*
X45732672Y-120811774D01*
X45777327Y-121021547D01*
X45868235Y-121226303D01*
X45879460Y-121245422D01*
X45995192Y-121401686D01*
X46145125Y-121549666D01*
X46316815Y-121680207D01*
X46497816Y-121784153D01*
X46675684Y-121852350D01*
X46718719Y-121862850D01*
X46849176Y-121878945D01*
X47010569Y-121881757D01*
X47185149Y-121872516D01*
X47355169Y-121852449D01*
X47502881Y-121822787D01*
X47564100Y-121804293D01*
X47743763Y-121737500D01*
X47878275Y-121680423D01*
X47966080Y-121633770D01*
X48000474Y-121605891D01*
X48010154Y-121577317D01*
X47998263Y-121531942D01*
X47961435Y-121460357D01*
X47928822Y-121405570D01*
X47869278Y-121303943D01*
X47799906Y-121179237D01*
X47733180Y-121054017D01*
X47715613Y-121019863D01*
X47663400Y-120918783D01*
X47626893Y-120855596D01*
X47599152Y-120822721D01*
X47573235Y-120812579D01*
X47542205Y-120817588D01*
X47532905Y-120820298D01*
X47412737Y-120862048D01*
X47328059Y-120906710D01*
X47280334Y-120945101D01*
X47221456Y-121019990D01*
X47207691Y-121097335D01*
X47237294Y-121189781D01*
X47244565Y-121204199D01*
X47290074Y-121321657D01*
X47292166Y-121415258D01*
X47250889Y-121483812D01*
X47232859Y-121497517D01*
X47160305Y-121523531D01*
X47091879Y-121502073D01*
X47025488Y-121431931D01*
X46977211Y-121349494D01*
X46919576Y-121187172D01*
X46911318Y-121030171D01*
X46951131Y-120883480D01*
X47037705Y-120752088D01*
X47161511Y-120646353D01*
X47230068Y-120603060D01*
X47281608Y-120574382D01*
X47300101Y-120567400D01*
X47335915Y-120559139D01*
X47388571Y-120541136D01*
X47457649Y-120514872D01*
X47383874Y-120436408D01*
X47283619Y-120353554D01*
X47166226Y-120305782D01*
X47019071Y-120288305D01*
X46992571Y-120288000D01*
X46814948Y-120311561D01*
X46658292Y-120379993D01*
X46527675Y-120489917D01*
X46428168Y-120637955D01*
X46410864Y-120675515D01*
X46352730Y-120777336D01*
X46286771Y-120830207D01*
X46214091Y-120833509D01*
X46168140Y-120811717D01*
X46117932Y-120751974D01*
X46104955Y-120669112D01*
X46125329Y-120569849D01*
X46175172Y-120460906D01*
X46250604Y-120349003D01*
X46347744Y-120240859D01*
X46462711Y-120143194D01*
X46591624Y-120062727D01*
X46604487Y-120056205D01*
X46664572Y-120029311D01*
X46723926Y-120011743D01*
X46795642Y-120001592D01*
X46892813Y-119996949D01*
X47018000Y-119995900D01*
X47310100Y-119995900D01*
X47259300Y-119787865D01*
X47234120Y-119688525D01*
X47209473Y-119621939D01*
X47175324Y-119581538D01*
X47121634Y-119560756D01*
X47038370Y-119553023D01*
X46915494Y-119551771D01*
X46898505Y-119551746D01*
X46666971Y-119573846D01*
X46453672Y-119637495D01*
X46261722Y-119737517D01*
X46094233Y-119868740D01*
X45954319Y-120025990D01*
X45845093Y-120204092D01*
X45769668Y-120397872D01*
X45731157Y-120602158D01*
X45330630Y-120602158D01*
X45342872Y-120439386D01*
X45412088Y-120182713D01*
G37*
X45412088Y-120182713D02*
X45529910Y-119936566D01*
X45695649Y-119703231D01*
X45756591Y-119633921D01*
X45922746Y-119483311D01*
X46119541Y-119353518D01*
X46223005Y-119303820D01*
X47566092Y-119303820D01*
X47575413Y-119376355D01*
X47595831Y-119481122D01*
X47625540Y-119609925D01*
X47662736Y-119754566D01*
X47705612Y-119906851D01*
X47720826Y-119957800D01*
X47893719Y-120444846D01*
X48107318Y-120902816D01*
X48359689Y-121330058D01*
X48648898Y-121724920D01*
X48973008Y-122085752D01*
X49330085Y-122410902D01*
X49718193Y-122698719D01*
X50135399Y-122947552D01*
X50579766Y-123155750D01*
X51049360Y-123321660D01*
X51542245Y-123443633D01*
X51869400Y-123497926D01*
X52051667Y-123516391D01*
X52269447Y-123528631D01*
X52507827Y-123534600D01*
X52751898Y-123534255D01*
X52986748Y-123527554D01*
X53197467Y-123514453D01*
X53317200Y-123502139D01*
X53851788Y-123411194D01*
X54373538Y-123275094D01*
X54878390Y-123095775D01*
X55362288Y-122875176D01*
X55821172Y-122615234D01*
X56250985Y-122317886D01*
X56647669Y-121985072D01*
X56799039Y-121839569D01*
X57117438Y-121492943D01*
X57389887Y-121134354D01*
X57621017Y-120756526D01*
X57815462Y-120352182D01*
X57924228Y-120072100D01*
X58039464Y-119680546D01*
X58117693Y-119262781D01*
X58158491Y-118827837D01*
X58161436Y-118384750D01*
X58126104Y-117942553D01*
X58052072Y-117510280D01*
X58045583Y-117481300D01*
X58024045Y-117387220D01*
X58003905Y-117326288D01*
X57975466Y-117294494D01*
X57929032Y-117287828D01*
X57854905Y-117302280D01*
X57743388Y-117333840D01*
X57711400Y-117343106D01*
X57600890Y-117370367D01*
X57485763Y-117387867D01*
X57349973Y-117397424D01*
X57203400Y-117400686D01*
X57070334Y-117400839D01*
X56965642Y-117397262D01*
X56873862Y-117387695D01*
X56779533Y-117369881D01*
X56667194Y-117341561D01*
X56525578Y-117301682D01*
X56514761Y-117306965D01*
X56523074Y-117336332D01*
X56552400Y-117393036D01*
X56604624Y-117480327D01*
X56681629Y-117601455D01*
X56785300Y-117759672D01*
X56830628Y-117828013D01*
X57004958Y-118095810D01*
X57154148Y-118336736D01*
X57277003Y-118548563D01*
X57372323Y-118729065D01*
X57438913Y-118876016D01*
X57475575Y-118987189D01*
X57482800Y-119040918D01*
X57458012Y-119141460D01*
X57384536Y-119232699D01*
X57263702Y-119314209D01*
X57096838Y-119385565D01*
X56885275Y-119446341D01*
X56630343Y-119496114D01*
X56333371Y-119534457D01*
X55995690Y-119560946D01*
X55831800Y-119568845D01*
X55686625Y-119574119D01*
X55583096Y-119576019D01*
X55512126Y-119573778D01*
X55464625Y-119566631D01*
X55431507Y-119553814D01*
X55403685Y-119534562D01*
X55401269Y-119532602D01*
X55351757Y-119462523D01*
X55337715Y-119374625D01*
X55359771Y-119288061D01*
X55391784Y-119243527D01*
X55417005Y-119223117D01*
X55451506Y-119207667D01*
X55503592Y-119195801D01*
X55581564Y-119186145D01*
X55693725Y-119177321D01*
X55847714Y-119167993D01*
X56075851Y-119152267D01*
X56294215Y-119131858D01*
X56496820Y-119107743D01*
X56677684Y-119080897D01*
X56830821Y-119052297D01*
X56950249Y-119022919D01*
X57029983Y-118993740D01*
X57062067Y-118969841D01*
X57056247Y-118934947D01*
X57021230Y-118861485D01*
X56958372Y-118751470D01*
X56869034Y-118606916D01*
X56754573Y-118429837D01*
X56616348Y-118222248D01*
X56455717Y-117986163D01*
X56274040Y-117723597D01*
X56072674Y-117436565D01*
X55852978Y-117127080D01*
X55616311Y-116797157D01*
X55364031Y-116448811D01*
X55334462Y-116408186D01*
X55247495Y-116289252D01*
X55183935Y-116205303D01*
X55137305Y-116150243D01*
X55101127Y-116117980D01*
X55068922Y-116102417D01*
X55034215Y-116097460D01*
X55003760Y-116097036D01*
X54886138Y-116121118D01*
X54770535Y-116188980D01*
X54664683Y-116293927D01*
X54576314Y-116429260D01*
X54546436Y-116493157D01*
X54529691Y-116536638D01*
X54523133Y-116574115D01*
X54529256Y-116616967D01*
X54550555Y-116676571D01*
X54589526Y-116764305D01*
X54620566Y-116831180D01*
X54746246Y-117157084D01*
X54823317Y-117487141D01*
X54852492Y-117817303D01*
X54834488Y-118143524D01*
X54770016Y-118461755D01*
X54659792Y-118767950D01*
X54504529Y-119058062D01*
X54304942Y-119328044D01*
X54151224Y-119491357D01*
X53889133Y-119712314D01*
X53607247Y-119886507D01*
X53305073Y-120014149D01*
X52982115Y-120095459D01*
X52694787Y-120128089D01*
X52346398Y-120125326D01*
X52019020Y-120076514D01*
X51710939Y-119981005D01*
X51420439Y-119838147D01*
X51145808Y-119647292D01*
X50939293Y-119462500D01*
X50710000Y-119205939D01*
X50529552Y-118936970D01*
X50397059Y-118653543D01*
X50311633Y-118353607D01*
X50272386Y-118035112D01*
X50269429Y-117918199D01*
X50675975Y-117918199D01*
X50680552Y-118093182D01*
X50697674Y-118241503D01*
X50731491Y-118380713D01*
X50786156Y-118528361D01*
X50857093Y-118683970D01*
X50925996Y-118819501D01*
X50990593Y-118925645D01*
X51063759Y-119020823D01*
X51158368Y-119123453D01*
X51178932Y-119144405D01*
X51277262Y-119238514D01*
X51379819Y-119327513D01*
X51477717Y-119404601D01*
X51562069Y-119462979D01*
X51623988Y-119495847D01*
X51644476Y-119500600D01*
X51648162Y-119480204D01*
X51633549Y-119429521D01*
X51626803Y-119412515D01*
X51592311Y-119268377D01*
X51602491Y-119121739D01*
X51652602Y-118981896D01*
X51737905Y-118858144D01*
X51853659Y-118759780D01*
X51991578Y-118697116D01*
X52157081Y-118670599D01*
X52308086Y-118692488D01*
X52447329Y-118763491D01*
X52533473Y-118836957D01*
X52637780Y-118970044D01*
X52692980Y-119113719D01*
X52700232Y-119271217D01*
X52697415Y-119295080D01*
X52664240Y-119417455D01*
X52604056Y-119536401D01*
X52527265Y-119634264D01*
X52470646Y-119679896D01*
X52390100Y-119729010D01*
X52593300Y-119728664D01*
X52722102Y-119723189D01*
X52860737Y-119709211D01*
X52973571Y-119690809D01*
X53202816Y-119621999D01*
X53436128Y-119515519D01*
X53658326Y-119380124D01*
X53854232Y-119224567D01*
X53951184Y-119127047D01*
X54117838Y-118909302D01*
X54257533Y-118662169D01*
X54364266Y-118399101D01*
X54432034Y-118133550D01*
X54448668Y-118012222D01*
X54453190Y-117837496D01*
X54438568Y-117638136D01*
X54407315Y-117435463D01*
X54361943Y-117250794D01*
X54357120Y-117235370D01*
X54268746Y-117014954D01*
X54147212Y-116792807D01*
X54002047Y-116583187D01*
X53842777Y-116400347D01*
X53730907Y-116298288D01*
X53497546Y-116139566D01*
X53247646Y-116028065D01*
X52983975Y-115964018D01*
X52709307Y-115947659D01*
X52426411Y-115979222D01*
X52138059Y-116058942D01*
X51928989Y-116146115D01*
X51720974Y-116252606D01*
X51546497Y-116360029D01*
X51389251Y-116479118D01*
X51289015Y-116567443D01*
X51072291Y-116799385D01*
X50901996Y-117050385D01*
X50778767Y-117319041D01*
X50703240Y-117603950D01*
X50676053Y-117903711D01*
X50675975Y-117918199D01*
X50269429Y-117918199D01*
X50269391Y-117916732D01*
X50267698Y-117824736D01*
X50261281Y-117774138D01*
X50247751Y-117755590D01*
X50228835Y-117758054D01*
X50200126Y-117773072D01*
X50132235Y-117810545D01*
X50029896Y-117867776D01*
X49897844Y-117942070D01*
X49740813Y-118030734D01*
X49563540Y-118131070D01*
X49370758Y-118240384D01*
X49167202Y-118355982D01*
X48957608Y-118475167D01*
X48746709Y-118595245D01*
X48539241Y-118713520D01*
X48339938Y-118827298D01*
X48153536Y-118933882D01*
X47984768Y-119030579D01*
X47838371Y-119114692D01*
X47719078Y-119183527D01*
X47631624Y-119234389D01*
X47580745Y-119264582D01*
X47569675Y-119271712D01*
X47566092Y-119303820D01*
X46223005Y-119303820D01*
X46334434Y-119250297D01*
X46554883Y-119179401D01*
X46768344Y-119146585D01*
X46822330Y-119145000D01*
X46923004Y-119137784D01*
X47011627Y-119119069D01*
X47045598Y-119105762D01*
X47094589Y-119075301D01*
X47110837Y-119040437D01*
X47103283Y-118979928D01*
X47101723Y-118972412D01*
X47092215Y-118895880D01*
X47085714Y-118777934D01*
X47082059Y-118627859D01*
X47081089Y-118454944D01*
X47081711Y-118380238D01*
X47474938Y-118380238D01*
X47477542Y-118525615D01*
X47483553Y-118650773D01*
X47492826Y-118748321D01*
X47505217Y-118810868D01*
X47520582Y-118831023D01*
X47522742Y-118830172D01*
X47547111Y-118816273D01*
X47611722Y-118779456D01*
X47712674Y-118721943D01*
X47846067Y-118645956D01*
X48007998Y-118553718D01*
X48194567Y-118447450D01*
X48401873Y-118329375D01*
X48626015Y-118201715D01*
X48846800Y-118075970D01*
X49086888Y-117939293D01*
X49316766Y-117808543D01*
X49532115Y-117686169D01*
X49728616Y-117574620D01*
X49901952Y-117476345D01*
X50047803Y-117393792D01*
X50161851Y-117329410D01*
X50239777Y-117285648D01*
X50274493Y-117266435D01*
X50356421Y-117213460D01*
X50407481Y-117152786D01*
X50437530Y-117087600D01*
X50524035Y-116905875D01*
X50647055Y-116711540D01*
X50797872Y-116515106D01*
X50967769Y-116327086D01*
X51148027Y-116157991D01*
X51316862Y-116027252D01*
X51626402Y-115839213D01*
X51940212Y-115697462D01*
X52255162Y-115601938D01*
X52568122Y-115552582D01*
X52875962Y-115549330D01*
X53175549Y-115592123D01*
X53463755Y-115680899D01*
X53737448Y-115815597D01*
X53993498Y-115996156D01*
X54090462Y-116081380D01*
X54155762Y-116140421D01*
X54206264Y-116182533D01*
X54231034Y-116198599D01*
X54231036Y-116198600D01*
X54252691Y-116179021D01*
X54285825Y-116131133D01*
X54290326Y-116123640D01*
X54405625Y-115975360D01*
X54556898Y-115851422D01*
X54732299Y-115759021D01*
X54919983Y-115705350D01*
X54993626Y-115696493D01*
X55169486Y-115683911D01*
X55169567Y-115508255D01*
X55568045Y-115508255D01*
X55577923Y-115673410D01*
X55602000Y-115813563D01*
X55614567Y-115855700D01*
X55698369Y-116061992D01*
X55797086Y-116247536D01*
X55903118Y-116398310D01*
X55918336Y-116416098D01*
X56027081Y-116539678D01*
X56025022Y-116388140D01*
X56038252Y-116246149D01*
X56086590Y-116129217D01*
X56176527Y-116023956D01*
X56219539Y-115986985D01*
X56341431Y-115918966D01*
X56477657Y-115893350D01*
X56617238Y-115908496D01*
X56749193Y-115962764D01*
X56862542Y-116054514D01*
X56889768Y-116087114D01*
X56933944Y-116157784D01*
X56958630Y-116236758D01*
X56970345Y-116340509D01*
X56973066Y-116439224D01*
X56962834Y-116510735D01*
X56934975Y-116577960D01*
X56914430Y-116614649D01*
X56815414Y-116736653D01*
X56686348Y-116818107D01*
X56593800Y-116846986D01*
X56536891Y-116860258D01*
X56525455Y-116870496D01*
X56555211Y-116884943D01*
X56568400Y-116889991D01*
X56829614Y-116966499D01*
X57098684Y-117002985D01*
X57364522Y-116999096D01*
X57616038Y-116954478D01*
X57707002Y-116926262D01*
X57977785Y-116805291D01*
X58217014Y-116645454D01*
X58422062Y-116449568D01*
X58590302Y-116220447D01*
X58719106Y-115960910D01*
X58781129Y-115774719D01*
X58817938Y-115571123D01*
X58826937Y-115344587D01*
X58808882Y-115114181D01*
X58764526Y-114898972D01*
X58743874Y-114833472D01*
X58626603Y-114559532D01*
X58478251Y-114317535D01*
X58302178Y-114111544D01*
X58101745Y-113945623D01*
X57926036Y-113844427D01*
X57823261Y-113797969D01*
X57739913Y-113768580D01*
X57656264Y-113751610D01*
X57552589Y-113742410D01*
X57478444Y-113738918D01*
X57343998Y-113736285D01*
X57236099Y-113742767D01*
X57130885Y-113761181D01*
X57004495Y-113794345D01*
X57001432Y-113795222D01*
X56705009Y-113903035D01*
X56432114Y-114047784D01*
X56187365Y-114225317D01*
X55975378Y-114431481D01*
X55800771Y-114662125D01*
X55668160Y-114913097D01*
X55622036Y-115035732D01*
X55590259Y-115172119D01*
X55572210Y-115335392D01*
X55568045Y-115508255D01*
X55169567Y-115508255D01*
X55169600Y-115439605D01*
X55191478Y-115154912D01*
X55254305Y-114875768D01*
X55312800Y-114712420D01*
X55374076Y-114590357D01*
X55461548Y-114448655D01*
X55564732Y-114302822D01*
X55673145Y-114168365D01*
X55703951Y-114133839D01*
X55759995Y-114074342D01*
X55796801Y-114031504D01*
X55811053Y-113997510D01*
X55799432Y-113964544D01*
X55758620Y-113924791D01*
X55685301Y-113870436D01*
X55576157Y-113793664D01*
X55552400Y-113776824D01*
X55435941Y-113694413D01*
X55352678Y-113638732D01*
X55294198Y-113607365D01*
X55252088Y-113597898D01*
X55217937Y-113607915D01*
X55183331Y-113635000D01*
X55154561Y-113662601D01*
X55040643Y-113795835D01*
X54939846Y-113956114D01*
X54877997Y-114090400D01*
X54820559Y-114203927D01*
X54750455Y-114270611D01*
X54664359Y-114293546D01*
X54659431Y-114293600D01*
X54582939Y-114273108D01*
X54514130Y-114221583D01*
X54469228Y-114153951D01*
X54460510Y-114110604D01*
X54473584Y-114043467D01*
X54508277Y-113946467D01*
X54558561Y-113832358D01*
X54618408Y-113713895D01*
X54681788Y-113603832D01*
X54741110Y-113516942D01*
X54793005Y-113446681D01*
X54827922Y-113393549D01*
X54838674Y-113368530D01*
X54838437Y-113368203D01*
X54802822Y-113347260D01*
X54730564Y-113313949D01*
X54632906Y-113272853D01*
X54521092Y-113228559D01*
X54406366Y-113185651D01*
X54301495Y-113149218D01*
X53818933Y-113016280D01*
X53330475Y-112933648D01*
X52836932Y-112901272D01*
X52339115Y-112919102D01*
X51837834Y-112987088D01*
X51333899Y-113105182D01*
X50828123Y-113273333D01*
X50571223Y-113377704D01*
X50154634Y-113584207D01*
X49753596Y-113836565D01*
X49372230Y-114131135D01*
X49014655Y-114464276D01*
X48684990Y-114832345D01*
X48387355Y-115231699D01*
X48270340Y-115411981D01*
X48055766Y-115799175D01*
X47870171Y-116220662D01*
X47716661Y-116667019D01*
X47598342Y-117128823D01*
X47518323Y-117596648D01*
X47501487Y-117744341D01*
X47489016Y-117896692D01*
X47480530Y-118058385D01*
X47475886Y-118222031D01*
X47474938Y-118380238D01*
X47081711Y-118380238D01*
X47082644Y-118268475D01*
X47086561Y-118077739D01*
X47092679Y-117892022D01*
X47100838Y-117720611D01*
X47110876Y-117572793D01*
X47122632Y-117457854D01*
X47128711Y-117417800D01*
X47175290Y-117172895D01*
X47224683Y-116943223D01*
X47274283Y-116740099D01*
X47321480Y-116574839D01*
X47326793Y-116558292D01*
X47350343Y-116474017D01*
X47361257Y-116409129D01*
X47357372Y-116378161D01*
X47322070Y-116362741D01*
X47253750Y-116342891D01*
X47191757Y-116328314D01*
X46974529Y-116260002D01*
X46758580Y-116152088D01*
X46556250Y-116013034D01*
X46379877Y-115851303D01*
X46243424Y-115677900D01*
X46153315Y-115520468D01*
X46093218Y-115369628D01*
X46058329Y-115208350D01*
X46043846Y-115019604D01*
X46042856Y-114966700D01*
X46043320Y-114830612D01*
X46049644Y-114726056D01*
X46064541Y-114633857D01*
X46090727Y-114534843D01*
X46114777Y-114458700D01*
X46175741Y-114298671D01*
X46239514Y-114186218D01*
X46308610Y-114118116D01*
X46385542Y-114091143D01*
X46402018Y-114090400D01*
X46483402Y-114113136D01*
X46533802Y-114152199D01*
X46566675Y-114200337D01*
X46580277Y-114260389D01*
X46573949Y-114340856D01*
X46547031Y-114450241D01*
X46499450Y-114595374D01*
X46443394Y-114821786D01*
X46435500Y-115039365D01*
X46474939Y-115244514D01*
X46560883Y-115433638D01*
X46692505Y-115603141D01*
X46742539Y-115651218D01*
X46894795Y-115767629D01*
X47064480Y-115862905D01*
X47237957Y-115931023D01*
X47401590Y-115965959D01*
X47462500Y-115969292D01*
X47497667Y-115966308D01*
X47526208Y-115952004D01*
X47554398Y-115918187D01*
X47588515Y-115856662D01*
X47634835Y-115759236D01*
X47651975Y-115721943D01*
X47865564Y-115309306D01*
X48124537Y-114905742D01*
X48431083Y-114507992D01*
X48592239Y-114322104D01*
X48685763Y-114216951D01*
X48748727Y-114142747D01*
X48785191Y-114093264D01*
X48799217Y-114062274D01*
X48794867Y-114043550D01*
X48780692Y-114033117D01*
X48720684Y-113989723D01*
X48640260Y-113915670D01*
X48548856Y-113821406D01*
X48455907Y-113717376D01*
X48370847Y-113614026D01*
X48303112Y-113521805D01*
X48270239Y-113467919D01*
X48160492Y-113209339D01*
X48099286Y-112947111D01*
X48085995Y-112685817D01*
X48119996Y-112430037D01*
X48200665Y-112184352D01*
X48327378Y-111953344D01*
X48499510Y-111741594D01*
X48506387Y-111734550D01*
X48614787Y-111632040D01*
X48702059Y-111569965D01*
X48774955Y-111546296D01*
X48840225Y-111559001D01*
X48904624Y-111606051D01*
X48911454Y-111612745D01*
X48957379Y-111671220D01*
X48971906Y-111730065D01*
X48952889Y-111797141D01*
X48898181Y-111880307D01*
X48810604Y-111982020D01*
X48653515Y-112180914D01*
X48546627Y-112381857D01*
X48489344Y-112587472D01*
X48481068Y-112800383D01*
X48521204Y-113023213D01*
X48552067Y-113119592D01*
X48632866Y-113287496D01*
X48749441Y-113454110D01*
X48888988Y-113604054D01*
X49038703Y-113721949D01*
X49068998Y-113740479D01*
X49144466Y-113784258D01*
X49332183Y-113643299D01*
X49764076Y-113350352D01*
X50224970Y-113097482D01*
X50709243Y-112887592D01*
X50978623Y-112793102D01*
X51192747Y-112724027D01*
X51187123Y-112448363D01*
X51201511Y-112161594D01*
X51257254Y-111904188D01*
X51354752Y-111675450D01*
X51494406Y-111474687D01*
X51676615Y-111301205D01*
X51901781Y-111154310D01*
X51947831Y-111130169D01*
X52057997Y-111084200D01*
X52201395Y-111038309D01*
X52360660Y-110997104D01*
X52518426Y-110965192D01*
X52627120Y-110949939D01*
X52715536Y-110943284D01*
X52770850Y-110948564D01*
X52810001Y-110968964D01*
X52831324Y-110988324D01*
X52874317Y-111063678D01*
X52883749Y-111156627D01*
X52858324Y-111245532D01*
X52847739Y-111262664D01*
X52805233Y-111298884D01*
X52729547Y-111326833D01*
X52638189Y-111345904D01*
X52365894Y-111407631D01*
X52137148Y-111492619D01*
X51949659Y-111602237D01*
X51801135Y-111737854D01*
X51689284Y-111900839D01*
X51680442Y-111917875D01*
X51621481Y-112078373D01*
X51588247Y-112269234D01*
X51583103Y-112475712D01*
X51585249Y-112512105D01*
X51592032Y-112580482D01*
X51606687Y-112610079D01*
X51640423Y-112612808D01*
X51674149Y-112606571D01*
X51947553Y-112561310D01*
X52248536Y-112528690D01*
X52562109Y-112509290D01*
X52873283Y-112503688D01*
X53167068Y-112512462D01*
X53428475Y-112536190D01*
X53444200Y-112538293D01*
X53858307Y-112611996D01*
X54271922Y-112718091D01*
X54668559Y-112851812D01*
X54973187Y-112980422D01*
X55086255Y-113031816D01*
X55162623Y-113062126D01*
X55210615Y-113073792D01*
X55238556Y-113069256D01*
X55248139Y-113061049D01*
X55285235Y-113033225D01*
X55357900Y-112990997D01*
X55454973Y-112939877D01*
X55565290Y-112885378D01*
X55677689Y-112833013D01*
X55781006Y-112788293D01*
X55864079Y-112756731D01*
X55865011Y-112756420D01*
X56006431Y-112716478D01*
X56168025Y-112681921D01*
X56329341Y-112656376D01*
X56469925Y-112643469D01*
X56507134Y-112642600D01*
X56603700Y-112648870D01*
X56666529Y-112670503D01*
X56694753Y-112692753D01*
X56752333Y-112777761D01*
X56762044Y-112865665D01*
X56727873Y-112943051D01*
X56696726Y-112978373D01*
X56657807Y-113004806D01*
X56601578Y-113025367D01*
X56518498Y-113043075D01*
X56399027Y-113060949D01*
X56324621Y-113070643D01*
X56173678Y-113097255D01*
X56014148Y-113137835D01*
X55862307Y-113187301D01*
X55734428Y-113240572D01*
X55672936Y-113274150D01*
X55596948Y-113322262D01*
X55758824Y-113431123D01*
X55859514Y-113501502D01*
X55963018Y-113578065D01*
X56040543Y-113639082D01*
X56160386Y-113738179D01*
X56308510Y-113651366D01*
X56613945Y-113499422D01*
X56928730Y-113396841D01*
X57256601Y-113342496D01*
X57356117Y-113335526D01*
X57563026Y-113334131D01*
X57741959Y-113355032D01*
X57912336Y-113402256D01*
X58093583Y-113479827D01*
X58123332Y-113494542D01*
X58377974Y-113650332D01*
X58606860Y-113847485D01*
X58806889Y-114081896D01*
X58974958Y-114349457D01*
X59107967Y-114646063D01*
X59187473Y-114903200D01*
X59210747Y-115040557D01*
X59222734Y-115211117D01*
X59223801Y-115398637D01*
X59214315Y-115586874D01*
X59194643Y-115759586D01*
X59165153Y-115900529D01*
X59164903Y-115901399D01*
X59053820Y-116204369D01*
X58901870Y-116479967D01*
X58706158Y-116732866D01*
X58554239Y-116887169D01*
X58463278Y-116974002D01*
X58405679Y-117035366D01*
X58375935Y-117078505D01*
X58368539Y-117110660D01*
X58372142Y-117126661D01*
X58384526Y-117170666D01*
X58404149Y-117252993D01*
X58428381Y-117362130D01*
X58454591Y-117486566D01*
X58456311Y-117494961D01*
X58538796Y-118012692D01*
X58571906Y-118519029D01*
X58555496Y-119015106D01*
X58489422Y-119502057D01*
X58373539Y-119981017D01*
X58207703Y-120453121D01*
X58029533Y-120845537D01*
X57792943Y-121261478D01*
X57511808Y-121656850D01*
X57189080Y-122029100D01*
X56827715Y-122375672D01*
X56430665Y-122694012D01*
X56000884Y-122981565D01*
X55541325Y-123235776D01*
X55054942Y-123454091D01*
X54979417Y-123483753D01*
X54696666Y-123588667D01*
X54441142Y-123673655D01*
X54195674Y-123743484D01*
X53943093Y-123802919D01*
X53666230Y-123856726D01*
X53583900Y-123871110D01*
X53398891Y-123896104D01*
X53176772Y-123915402D01*
X52930949Y-123928694D01*
X52674826Y-123935672D01*
X52421807Y-123936025D01*
X52185296Y-123929445D01*
X51978698Y-123915621D01*
X51920200Y-123909514D01*
X51404515Y-123825653D01*
X50900514Y-123696061D01*
X50415359Y-123522843D01*
X50067742Y-123365352D01*
X49659169Y-123140455D01*
X49280376Y-122885972D01*
X48923969Y-122596090D01*
X48582556Y-122264998D01*
X48369965Y-122030473D01*
X48310862Y-121964336D01*
X48273328Y-121931715D01*
X48246735Y-121926831D01*
X48220456Y-121943907D01*
X48216779Y-121947193D01*
X48157669Y-121987383D01*
X48062617Y-122037370D01*
X47944126Y-122091661D01*
X47814699Y-122144761D01*
X47686837Y-122191177D01*
X47600491Y-122218016D01*
X47436583Y-122253868D01*
X47249769Y-122278181D01*
X47057953Y-122289850D01*
X46879040Y-122287771D01*
X46734311Y-122271486D01*
X46455451Y-122197378D01*
X46204123Y-122084490D01*
X45973460Y-121928989D01*
X45756596Y-121727038D01*
X45753554Y-121723787D01*
X45581578Y-121512371D01*
X45456057Y-121293861D01*
X45372659Y-121060158D01*
X45353004Y-120975181D01*
X45322948Y-120704304D01*
X45330630Y-120602158D01*
X45731157Y-120602158D01*
X45732672Y-120811774D01*
X45777327Y-121021547D01*
X45868235Y-121226303D01*
X45879460Y-121245422D01*
X45995192Y-121401686D01*
X46145125Y-121549666D01*
X46316815Y-121680207D01*
X46497816Y-121784153D01*
X46675684Y-121852350D01*
X46718719Y-121862850D01*
X46849176Y-121878945D01*
X47010569Y-121881757D01*
X47185149Y-121872516D01*
X47355169Y-121852449D01*
X47502881Y-121822787D01*
X47564100Y-121804293D01*
X47743763Y-121737500D01*
X47878275Y-121680423D01*
X47966080Y-121633770D01*
X48000474Y-121605891D01*
X48010154Y-121577317D01*
X47998263Y-121531942D01*
X47961435Y-121460357D01*
X47928822Y-121405570D01*
X47869278Y-121303943D01*
X47799906Y-121179237D01*
X47733180Y-121054017D01*
X47715613Y-121019863D01*
X47663400Y-120918783D01*
X47626893Y-120855596D01*
X47599152Y-120822721D01*
X47573235Y-120812579D01*
X47542205Y-120817588D01*
X47532905Y-120820298D01*
X47412737Y-120862048D01*
X47328059Y-120906710D01*
X47280334Y-120945101D01*
X47221456Y-121019990D01*
X47207691Y-121097335D01*
X47237294Y-121189781D01*
X47244565Y-121204199D01*
X47290074Y-121321657D01*
X47292166Y-121415258D01*
X47250889Y-121483812D01*
X47232859Y-121497517D01*
X47160305Y-121523531D01*
X47091879Y-121502073D01*
X47025488Y-121431931D01*
X46977211Y-121349494D01*
X46919576Y-121187172D01*
X46911318Y-121030171D01*
X46951131Y-120883480D01*
X47037705Y-120752088D01*
X47161511Y-120646353D01*
X47230068Y-120603060D01*
X47281608Y-120574382D01*
X47300101Y-120567400D01*
X47335915Y-120559139D01*
X47388571Y-120541136D01*
X47457649Y-120514872D01*
X47383874Y-120436408D01*
X47283619Y-120353554D01*
X47166226Y-120305782D01*
X47019071Y-120288305D01*
X46992571Y-120288000D01*
X46814948Y-120311561D01*
X46658292Y-120379993D01*
X46527675Y-120489917D01*
X46428168Y-120637955D01*
X46410864Y-120675515D01*
X46352730Y-120777336D01*
X46286771Y-120830207D01*
X46214091Y-120833509D01*
X46168140Y-120811717D01*
X46117932Y-120751974D01*
X46104955Y-120669112D01*
X46125329Y-120569849D01*
X46175172Y-120460906D01*
X46250604Y-120349003D01*
X46347744Y-120240859D01*
X46462711Y-120143194D01*
X46591624Y-120062727D01*
X46604487Y-120056205D01*
X46664572Y-120029311D01*
X46723926Y-120011743D01*
X46795642Y-120001592D01*
X46892813Y-119996949D01*
X47018000Y-119995900D01*
X47310100Y-119995900D01*
X47259300Y-119787865D01*
X47234120Y-119688525D01*
X47209473Y-119621939D01*
X47175324Y-119581538D01*
X47121634Y-119560756D01*
X47038370Y-119553023D01*
X46915494Y-119551771D01*
X46898505Y-119551746D01*
X46666971Y-119573846D01*
X46453672Y-119637495D01*
X46261722Y-119737517D01*
X46094233Y-119868740D01*
X45954319Y-120025990D01*
X45845093Y-120204092D01*
X45769668Y-120397872D01*
X45731157Y-120602158D01*
X45330630Y-120602158D01*
X45342872Y-120439386D01*
X45412088Y-120182713D01*
X52367068Y-114590822D02*
X52430614Y-114598064D01*
X52430614Y-114598064D02*
X52475125Y-114611174D01*
X52475125Y-114611174D02*
X52511183Y-114631559D01*
X52511183Y-114631559D02*
X52521556Y-114639023D01*
X52521556Y-114639023D02*
X52579628Y-114707767D01*
X52579628Y-114707767D02*
X52603895Y-114792206D01*
X52603895Y-114792206D02*
X52591999Y-114875076D01*
X52591999Y-114875076D02*
X52560391Y-114923408D01*
X52560391Y-114923408D02*
X52533194Y-114943871D01*
X52533194Y-114943871D02*
X52493010Y-114958836D01*
X52493010Y-114958836D02*
X52430848Y-114969774D01*
X52430848Y-114969774D02*
X52337716Y-114978152D01*
X52337716Y-114978152D02*
X52204623Y-114985441D01*
X52204623Y-114985441D02*
X52171594Y-114986933D01*
X52171594Y-114986933D02*
X51963705Y-115000409D01*
X51963705Y-115000409D02*
X51791442Y-115022795D01*
X51791442Y-115022795D02*
X51639921Y-115057579D01*
X51639921Y-115057579D02*
X51494259Y-115108248D01*
X51494259Y-115108248D02*
X51339572Y-115178289D01*
X51339572Y-115178289D02*
X51325779Y-115185124D01*
X51325779Y-115185124D02*
X51097290Y-115316286D01*
X51097290Y-115316286D02*
X50877997Y-115475005D01*
X50877997Y-115475005D02*
X50674920Y-115654025D01*
X50674920Y-115654025D02*
X50495081Y-115846090D01*
X50495081Y-115846090D02*
X50345502Y-116043944D01*
X50345502Y-116043944D02*
X50233203Y-116240334D01*
X50233203Y-116240334D02*
X50182685Y-116366341D01*
X50182685Y-116366341D02*
X50131316Y-116475199D01*
X50131316Y-116475199D02*
X50063632Y-116536058D01*
X50063632Y-116536058D02*
X49979859Y-116548807D01*
X49979859Y-116548807D02*
X49883594Y-116515185D01*
X49883594Y-116515185D02*
X49815717Y-116454169D01*
X49815717Y-116454169D02*
X49787751Y-116366023D01*
X49787751Y-116366023D02*
X49799860Y-116250117D01*
X49799860Y-116250117D02*
X49852207Y-116105819D01*
X49852207Y-116105819D02*
X49944956Y-115932500D01*
X49944956Y-115932500D02*
X50078271Y-115729527D01*
X50078271Y-115729527D02*
X50092370Y-115709635D01*
X50092370Y-115709635D02*
X50288159Y-115471126D01*
X50288159Y-115471126D02*
X50522738Y-115245627D01*
X50522738Y-115245627D02*
X50784237Y-115042381D01*
X50784237Y-115042381D02*
X51060785Y-114870628D01*
X51060785Y-114870628D02*
X51336000Y-114741367D01*
X51336000Y-114741367D02*
X51530830Y-114672026D01*
X51530830Y-114672026D02*
X51707250Y-114626200D01*
X51707250Y-114626200D02*
X51886370Y-114599872D01*
X51886370Y-114599872D02*
X52089305Y-114589025D01*
X52089305Y-114589025D02*
X52140556Y-114588306D01*
X52140556Y-114588306D02*
X52273909Y-114588039D01*
X52273909Y-114588039D02*
X52367068Y-114590822D01*
X52367068Y-114590822D02*
X52367068Y-114590822D01*
G36*
X52367068Y-114590822D02*
G01*
X52430614Y-114598064D01*
X52475125Y-114611174D01*
X52511183Y-114631559D01*
X52521556Y-114639023D01*
X52579628Y-114707767D01*
X52603895Y-114792206D01*
X52591999Y-114875076D01*
X52560391Y-114923408D01*
X52533194Y-114943871D01*
X52493010Y-114958836D01*
X52430848Y-114969774D01*
X52337716Y-114978152D01*
X52204623Y-114985441D01*
X52171594Y-114986933D01*
X51963705Y-115000409D01*
X51791442Y-115022795D01*
X51639921Y-115057579D01*
X51494259Y-115108248D01*
X51339572Y-115178289D01*
X51325779Y-115185124D01*
X51097290Y-115316286D01*
X50877997Y-115475005D01*
X50674920Y-115654025D01*
X50495081Y-115846090D01*
X50345502Y-116043944D01*
X50233203Y-116240334D01*
X50182685Y-116366341D01*
X50131316Y-116475199D01*
X50063632Y-116536058D01*
X49979859Y-116548807D01*
X49883594Y-116515185D01*
X49815717Y-116454169D01*
X49787751Y-116366023D01*
X49799860Y-116250117D01*
X49852207Y-116105819D01*
X49944956Y-115932500D01*
X50078271Y-115729527D01*
X50092370Y-115709635D01*
X50288159Y-115471126D01*
X50522738Y-115245627D01*
X50784237Y-115042381D01*
X51060785Y-114870628D01*
X51336000Y-114741367D01*
X51530830Y-114672026D01*
X51707250Y-114626200D01*
X51886370Y-114599872D01*
X52089305Y-114589025D01*
X52140556Y-114588306D01*
X52273909Y-114588039D01*
X52367068Y-114590822D01*
G37*
X52367068Y-114590822D02*
X52430614Y-114598064D01*
X52475125Y-114611174D01*
X52511183Y-114631559D01*
X52521556Y-114639023D01*
X52579628Y-114707767D01*
X52603895Y-114792206D01*
X52591999Y-114875076D01*
X52560391Y-114923408D01*
X52533194Y-114943871D01*
X52493010Y-114958836D01*
X52430848Y-114969774D01*
X52337716Y-114978152D01*
X52204623Y-114985441D01*
X52171594Y-114986933D01*
X51963705Y-115000409D01*
X51791442Y-115022795D01*
X51639921Y-115057579D01*
X51494259Y-115108248D01*
X51339572Y-115178289D01*
X51325779Y-115185124D01*
X51097290Y-115316286D01*
X50877997Y-115475005D01*
X50674920Y-115654025D01*
X50495081Y-115846090D01*
X50345502Y-116043944D01*
X50233203Y-116240334D01*
X50182685Y-116366341D01*
X50131316Y-116475199D01*
X50063632Y-116536058D01*
X49979859Y-116548807D01*
X49883594Y-116515185D01*
X49815717Y-116454169D01*
X49787751Y-116366023D01*
X49799860Y-116250117D01*
X49852207Y-116105819D01*
X49944956Y-115932500D01*
X50078271Y-115729527D01*
X50092370Y-115709635D01*
X50288159Y-115471126D01*
X50522738Y-115245627D01*
X50784237Y-115042381D01*
X51060785Y-114870628D01*
X51336000Y-114741367D01*
X51530830Y-114672026D01*
X51707250Y-114626200D01*
X51886370Y-114599872D01*
X52089305Y-114589025D01*
X52140556Y-114588306D01*
X52273909Y-114588039D01*
X52367068Y-114590822D01*
X51872081Y-121695800D02*
X51962021Y-121724035D01*
X51962021Y-121724035D02*
X52051885Y-121761178D01*
X52051885Y-121761178D02*
X52238357Y-121832425D01*
X52238357Y-121832425D02*
X52465752Y-121890300D01*
X52465752Y-121890300D02*
X52736926Y-121935394D01*
X52736926Y-121935394D02*
X53050500Y-121967963D01*
X53050500Y-121967963D02*
X53303653Y-121982166D01*
X53303653Y-121982166D02*
X53521703Y-121980208D01*
X53521703Y-121980208D02*
X53718097Y-121960877D01*
X53718097Y-121960877D02*
X53906284Y-121922959D01*
X53906284Y-121922959D02*
X54066150Y-121876416D01*
X54066150Y-121876416D02*
X54173155Y-121843663D01*
X54173155Y-121843663D02*
X54246034Y-121828031D01*
X54246034Y-121828031D02*
X54297802Y-121827709D01*
X54297802Y-121827709D02*
X54336610Y-121838812D01*
X54336610Y-121838812D02*
X54406460Y-121892733D01*
X54406460Y-121892733D02*
X54445717Y-121974251D01*
X54445717Y-121974251D02*
X54446717Y-122065634D01*
X54446717Y-122065634D02*
X54441958Y-122082624D01*
X54441958Y-122082624D02*
X54394554Y-122149471D01*
X54394554Y-122149471D02*
X54302760Y-122210340D01*
X54302760Y-122210340D02*
X54172757Y-122264051D01*
X54172757Y-122264051D02*
X54010729Y-122309423D01*
X54010729Y-122309423D02*
X53822856Y-122345279D01*
X53822856Y-122345279D02*
X53615323Y-122370438D01*
X53615323Y-122370438D02*
X53394310Y-122383721D01*
X53394310Y-122383721D02*
X53166000Y-122383948D01*
X53166000Y-122383948D02*
X52936576Y-122369940D01*
X52936576Y-122369940D02*
X52936200Y-122369905D01*
X52936200Y-122369905D02*
X52703317Y-122341406D01*
X52703317Y-122341406D02*
X52474262Y-122301305D01*
X52474262Y-122301305D02*
X52257395Y-122251900D01*
X52257395Y-122251900D02*
X52061079Y-122195491D01*
X52061079Y-122195491D02*
X51893673Y-122134377D01*
X51893673Y-122134377D02*
X51763540Y-122070857D01*
X51763540Y-122070857D02*
X51705570Y-122031537D01*
X51705570Y-122031537D02*
X51647483Y-121959041D01*
X51647483Y-121959041D02*
X51627709Y-121876171D01*
X51627709Y-121876171D02*
X51642587Y-121795434D01*
X51642587Y-121795434D02*
X51688459Y-121729337D01*
X51688459Y-121729337D02*
X51761663Y-121690386D01*
X51761663Y-121690386D02*
X51806984Y-121685000D01*
X51806984Y-121685000D02*
X51872081Y-121695800D01*
X51872081Y-121695800D02*
X51872081Y-121695800D01*
G36*
X51872081Y-121695800D02*
G01*
X51962021Y-121724035D01*
X52051885Y-121761178D01*
X52238357Y-121832425D01*
X52465752Y-121890300D01*
X52736926Y-121935394D01*
X53050500Y-121967963D01*
X53303653Y-121982166D01*
X53521703Y-121980208D01*
X53718097Y-121960877D01*
X53906284Y-121922959D01*
X54066150Y-121876416D01*
X54173155Y-121843663D01*
X54246034Y-121828031D01*
X54297802Y-121827709D01*
X54336610Y-121838812D01*
X54406460Y-121892733D01*
X54445717Y-121974251D01*
X54446717Y-122065634D01*
X54441958Y-122082624D01*
X54394554Y-122149471D01*
X54302760Y-122210340D01*
X54172757Y-122264051D01*
X54010729Y-122309423D01*
X53822856Y-122345279D01*
X53615323Y-122370438D01*
X53394310Y-122383721D01*
X53166000Y-122383948D01*
X52936576Y-122369940D01*
X52936200Y-122369905D01*
X52703317Y-122341406D01*
X52474262Y-122301305D01*
X52257395Y-122251900D01*
X52061079Y-122195491D01*
X51893673Y-122134377D01*
X51763540Y-122070857D01*
X51705570Y-122031537D01*
X51647483Y-121959041D01*
X51627709Y-121876171D01*
X51642587Y-121795434D01*
X51688459Y-121729337D01*
X51761663Y-121690386D01*
X51806984Y-121685000D01*
X51872081Y-121695800D01*
G37*
X51872081Y-121695800D02*
X51962021Y-121724035D01*
X52051885Y-121761178D01*
X52238357Y-121832425D01*
X52465752Y-121890300D01*
X52736926Y-121935394D01*
X53050500Y-121967963D01*
X53303653Y-121982166D01*
X53521703Y-121980208D01*
X53718097Y-121960877D01*
X53906284Y-121922959D01*
X54066150Y-121876416D01*
X54173155Y-121843663D01*
X54246034Y-121828031D01*
X54297802Y-121827709D01*
X54336610Y-121838812D01*
X54406460Y-121892733D01*
X54445717Y-121974251D01*
X54446717Y-122065634D01*
X54441958Y-122082624D01*
X54394554Y-122149471D01*
X54302760Y-122210340D01*
X54172757Y-122264051D01*
X54010729Y-122309423D01*
X53822856Y-122345279D01*
X53615323Y-122370438D01*
X53394310Y-122383721D01*
X53166000Y-122383948D01*
X52936576Y-122369940D01*
X52936200Y-122369905D01*
X52703317Y-122341406D01*
X52474262Y-122301305D01*
X52257395Y-122251900D01*
X52061079Y-122195491D01*
X51893673Y-122134377D01*
X51763540Y-122070857D01*
X51705570Y-122031537D01*
X51647483Y-121959041D01*
X51627709Y-121876171D01*
X51642587Y-121795434D01*
X51688459Y-121729337D01*
X51761663Y-121690386D01*
X51806984Y-121685000D01*
X51872081Y-121695800D01*
%TD*%
M02*
