%TF.GenerationSoftware,KiCad,Pcbnew,(6.0.1)*%
%TF.CreationDate,2022-06-07T13:31:57-07:00*%
%TF.ProjectId,main_board,6d61696e-5f62-46f6-9172-642e6b696361,2.1*%
%TF.SameCoordinates,Original*%
%TF.FileFunction,Paste,Bot*%
%TF.FilePolarity,Positive*%
%FSLAX46Y46*%
G04 Gerber Fmt 4.6, Leading zero omitted, Abs format (unit mm)*
G04 Created by KiCad (PCBNEW (6.0.1)) date 2022-06-07 13:31:57*
%MOMM*%
%LPD*%
G01*
G04 APERTURE LIST*
G04 Aperture macros list*
%AMRoundRect*
0 Rectangle with rounded corners*
0 $1 Rounding radius*
0 $2 $3 $4 $5 $6 $7 $8 $9 X,Y pos of 4 corners*
0 Add a 4 corners polygon primitive as box body*
4,1,4,$2,$3,$4,$5,$6,$7,$8,$9,$2,$3,0*
0 Add four circle primitives for the rounded corners*
1,1,$1+$1,$2,$3*
1,1,$1+$1,$4,$5*
1,1,$1+$1,$6,$7*
1,1,$1+$1,$8,$9*
0 Add four rect primitives between the rounded corners*
20,1,$1+$1,$2,$3,$4,$5,0*
20,1,$1+$1,$4,$5,$6,$7,0*
20,1,$1+$1,$6,$7,$8,$9,0*
20,1,$1+$1,$8,$9,$2,$3,0*%
%AMFreePoly0*
4,1,9,3.862500,-0.866500,0.737500,-0.866500,0.737500,-0.450000,-0.737500,-0.450000,-0.737500,0.450000,0.737500,0.450000,0.737500,0.866500,3.862500,0.866500,3.862500,-0.866500,3.862500,-0.866500,$1*%
G04 Aperture macros list end*
%ADD10RoundRect,0.250000X-0.350000X-0.450000X0.350000X-0.450000X0.350000X0.450000X-0.350000X0.450000X0*%
%ADD11RoundRect,0.250000X0.450000X-0.350000X0.450000X0.350000X-0.450000X0.350000X-0.450000X-0.350000X0*%
%ADD12RoundRect,0.250000X0.350000X0.450000X-0.350000X0.450000X-0.350000X-0.450000X0.350000X-0.450000X0*%
%ADD13RoundRect,0.250000X0.475000X-0.337500X0.475000X0.337500X-0.475000X0.337500X-0.475000X-0.337500X0*%
%ADD14RoundRect,0.250000X0.450000X-0.325000X0.450000X0.325000X-0.450000X0.325000X-0.450000X-0.325000X0*%
%ADD15RoundRect,0.250000X-0.475000X0.337500X-0.475000X-0.337500X0.475000X-0.337500X0.475000X0.337500X0*%
%ADD16RoundRect,0.230000X-0.230000X-0.375000X0.230000X-0.375000X0.230000X0.375000X-0.230000X0.375000X0*%
%ADD17RoundRect,0.150000X-0.825000X-0.150000X0.825000X-0.150000X0.825000X0.150000X-0.825000X0.150000X0*%
%ADD18RoundRect,0.250000X-0.450000X0.350000X-0.450000X-0.350000X0.450000X-0.350000X0.450000X0.350000X0*%
%ADD19RoundRect,0.150000X0.825000X0.150000X-0.825000X0.150000X-0.825000X-0.150000X0.825000X-0.150000X0*%
%ADD20R,1.100000X0.250000*%
%ADD21RoundRect,0.250000X0.325000X0.450000X-0.325000X0.450000X-0.325000X-0.450000X0.325000X-0.450000X0*%
%ADD22RoundRect,0.230000X0.230000X0.375000X-0.230000X0.375000X-0.230000X-0.375000X0.230000X-0.375000X0*%
%ADD23RoundRect,0.250000X-0.450000X0.325000X-0.450000X-0.325000X0.450000X-0.325000X0.450000X0.325000X0*%
%ADD24RoundRect,0.230000X-0.375000X0.230000X-0.375000X-0.230000X0.375000X-0.230000X0.375000X0.230000X0*%
%ADD25RoundRect,0.150000X-0.150000X0.825000X-0.150000X-0.825000X0.150000X-0.825000X0.150000X0.825000X0*%
%ADD26RoundRect,0.250000X-0.337500X-0.475000X0.337500X-0.475000X0.337500X0.475000X-0.337500X0.475000X0*%
%ADD27RoundRect,0.250000X0.337500X0.475000X-0.337500X0.475000X-0.337500X-0.475000X0.337500X-0.475000X0*%
%ADD28RoundRect,0.250000X1.500000X0.550000X-1.500000X0.550000X-1.500000X-0.550000X1.500000X-0.550000X0*%
%ADD29RoundRect,0.100000X0.100000X-0.637500X0.100000X0.637500X-0.100000X0.637500X-0.100000X-0.637500X0*%
%ADD30RoundRect,0.230000X0.375000X-0.230000X0.375000X0.230000X-0.375000X0.230000X-0.375000X-0.230000X0*%
%ADD31RoundRect,0.150000X0.150000X-0.825000X0.150000X0.825000X-0.150000X0.825000X-0.150000X-0.825000X0*%
%ADD32RoundRect,0.250000X-0.325000X-0.450000X0.325000X-0.450000X0.325000X0.450000X-0.325000X0.450000X0*%
%ADD33RoundRect,0.150000X-0.512500X-0.150000X0.512500X-0.150000X0.512500X0.150000X-0.512500X0.150000X0*%
%ADD34R,0.900000X1.300000*%
%ADD35FreePoly0,90.000000*%
%ADD36RoundRect,0.150000X0.587500X0.150000X-0.587500X0.150000X-0.587500X-0.150000X0.587500X-0.150000X0*%
%ADD37RoundRect,0.250000X-1.500000X-0.550000X1.500000X-0.550000X1.500000X0.550000X-1.500000X0.550000X0*%
G04 APERTURE END LIST*
D10*
X104550000Y-86800000D03*
X106550000Y-86800000D03*
D11*
X110300000Y-68800000D03*
X110300000Y-66800000D03*
D10*
X98200000Y-91250000D03*
X100200000Y-91250000D03*
D12*
X113550000Y-143250000D03*
X111550000Y-143250000D03*
X88850000Y-122100000D03*
X86850000Y-122100000D03*
D13*
X83200000Y-89537500D03*
X83200000Y-87462500D03*
X80600000Y-115875000D03*
X80600000Y-113800000D03*
D12*
X88900000Y-83150000D03*
X86900000Y-83150000D03*
D10*
X66250000Y-98850000D03*
X68250000Y-98850000D03*
D12*
X114200000Y-90550000D03*
X112200000Y-90550000D03*
D14*
X63750000Y-141675000D03*
X63750000Y-139625000D03*
D10*
X98150000Y-119200000D03*
X100150000Y-119200000D03*
D15*
X69400000Y-79312500D03*
X69400000Y-81387500D03*
D16*
X94070000Y-92650000D03*
X92930000Y-92650000D03*
X94070000Y-94150000D03*
X92930000Y-94150000D03*
D17*
X91025000Y-95305000D03*
X91025000Y-94035000D03*
X91025000Y-92765000D03*
X91025000Y-91495000D03*
X95975000Y-91495000D03*
X95975000Y-92765000D03*
X95975000Y-94035000D03*
X95975000Y-95305000D03*
D18*
X117750000Y-97250000D03*
X117750000Y-99250000D03*
D10*
X111950000Y-102800000D03*
X113950000Y-102800000D03*
D12*
X88850000Y-144250000D03*
X86850000Y-144250000D03*
D19*
X88775000Y-59895000D03*
X88775000Y-61165000D03*
X88775000Y-62435000D03*
X88775000Y-63705000D03*
X83825000Y-63705000D03*
X83825000Y-62435000D03*
X83825000Y-61165000D03*
X83825000Y-59895000D03*
D12*
X88850000Y-96150000D03*
X86850000Y-96150000D03*
D15*
X81100000Y-59975000D03*
X81100000Y-62050000D03*
D10*
X80900000Y-140200000D03*
X82900000Y-140200000D03*
D12*
X78850000Y-141650000D03*
X76850000Y-141650000D03*
D10*
X112200000Y-69250000D03*
X114200000Y-69250000D03*
D11*
X96050000Y-115800000D03*
X96050000Y-113800000D03*
D12*
X82925000Y-138250000D03*
X80925000Y-138250000D03*
D10*
X98200000Y-145150000D03*
X100200000Y-145150000D03*
X98200000Y-93200000D03*
X100200000Y-93200000D03*
D12*
X109450000Y-130550000D03*
X107450000Y-130550000D03*
D15*
X96000000Y-147112500D03*
X96000000Y-149187500D03*
D18*
X119650000Y-146950000D03*
X119650000Y-148950000D03*
D10*
X111500000Y-56200000D03*
X113500000Y-56200000D03*
D20*
X97175000Y-131600000D03*
X97175000Y-131100000D03*
X97175000Y-130600000D03*
X97175000Y-130100000D03*
X97175000Y-129600000D03*
X101475000Y-129600000D03*
X101475000Y-130100000D03*
X101475000Y-130600000D03*
X101475000Y-131100000D03*
X101475000Y-131600000D03*
D18*
X61100000Y-53150000D03*
X61100000Y-55150000D03*
D10*
X111800000Y-111850000D03*
X113800000Y-111850000D03*
D16*
X92930000Y-144200000D03*
X94070000Y-142700000D03*
X94070000Y-144200000D03*
X92930000Y-142700000D03*
D17*
X91025000Y-145355000D03*
X91025000Y-144085000D03*
X91025000Y-142815000D03*
X91025000Y-141545000D03*
X95975000Y-141545000D03*
X95975000Y-142815000D03*
X95975000Y-144085000D03*
X95975000Y-145355000D03*
D10*
X98150000Y-117250000D03*
X100150000Y-117250000D03*
D12*
X113500000Y-119100000D03*
X111500000Y-119100000D03*
D10*
X112000000Y-86050000D03*
X114000000Y-86050000D03*
D12*
X114200000Y-116500000D03*
X112200000Y-116500000D03*
D21*
X78075000Y-133550000D03*
X76025000Y-133550000D03*
D15*
X64550000Y-109812500D03*
X64550000Y-111887500D03*
D10*
X111500000Y-123600000D03*
X113500000Y-123600000D03*
D12*
X88850000Y-98400000D03*
X86850000Y-98400000D03*
D11*
X96000000Y-139800000D03*
X96000000Y-137800000D03*
D10*
X63750000Y-137700000D03*
X65750000Y-137700000D03*
X99100000Y-81200000D03*
X101100000Y-81200000D03*
D11*
X115700000Y-113000000D03*
X115700000Y-111000000D03*
D15*
X67650000Y-102812500D03*
X67650000Y-104887500D03*
D12*
X88850000Y-92050000D03*
X86850000Y-92050000D03*
D22*
X69870000Y-142825000D03*
X68730000Y-144325000D03*
X69870000Y-144325000D03*
X68730000Y-142825000D03*
D19*
X71775000Y-141670000D03*
X71775000Y-142940000D03*
X71775000Y-144210000D03*
X71775000Y-145480000D03*
X66825000Y-145480000D03*
X66825000Y-144210000D03*
X66825000Y-142940000D03*
X66825000Y-141670000D03*
D16*
X92930000Y-120200000D03*
X94070000Y-118700000D03*
X92930000Y-118700000D03*
X94070000Y-120200000D03*
D17*
X91025000Y-121355000D03*
X91025000Y-120085000D03*
X91025000Y-118815000D03*
X91025000Y-117545000D03*
X95975000Y-117545000D03*
X95975000Y-118815000D03*
X95975000Y-120085000D03*
X95975000Y-121355000D03*
D23*
X64550000Y-146275000D03*
X64550000Y-148325000D03*
D12*
X117800000Y-78700000D03*
X115800000Y-78700000D03*
D24*
X117050000Y-142420000D03*
X118550000Y-141280000D03*
X118550000Y-142420000D03*
X117050000Y-141280000D03*
D25*
X115895000Y-139375000D03*
X117165000Y-139375000D03*
X118435000Y-139375000D03*
X119705000Y-139375000D03*
X119705000Y-144325000D03*
X118435000Y-144325000D03*
X117165000Y-144325000D03*
X115895000Y-144325000D03*
D24*
X117050000Y-92030000D03*
X117050000Y-93170000D03*
X118550000Y-92030000D03*
X118550000Y-93170000D03*
D25*
X115895000Y-90125000D03*
X117165000Y-90125000D03*
X118435000Y-90125000D03*
X119705000Y-90125000D03*
X119705000Y-95075000D03*
X118435000Y-95075000D03*
X117165000Y-95075000D03*
X115895000Y-95075000D03*
D13*
X88800000Y-135637500D03*
X88800000Y-133562500D03*
D15*
X72850000Y-86862500D03*
X72850000Y-88937500D03*
D10*
X98200000Y-143200000D03*
X100200000Y-143200000D03*
D22*
X86870000Y-129200000D03*
X85730000Y-129200000D03*
X85730000Y-130700000D03*
X86870000Y-130700000D03*
D19*
X88775000Y-128045000D03*
X88775000Y-129315000D03*
X88775000Y-130585000D03*
X88775000Y-131855000D03*
X83825000Y-131855000D03*
X83825000Y-130585000D03*
X83825000Y-129315000D03*
X83825000Y-128045000D03*
D11*
X117650000Y-113000000D03*
X117650000Y-111000000D03*
D15*
X119625000Y-110937500D03*
X119625000Y-113012500D03*
D26*
X88962500Y-115650000D03*
X91037500Y-115650000D03*
D12*
X88850000Y-94050000D03*
X86850000Y-94050000D03*
D18*
X117650000Y-146950000D03*
X117650000Y-148950000D03*
D26*
X88962500Y-139650000D03*
X91037500Y-139650000D03*
D10*
X111500000Y-92600000D03*
X113500000Y-92600000D03*
D18*
X70250000Y-150850000D03*
X70250000Y-152850000D03*
D27*
X80987500Y-96400000D03*
X78912500Y-96400000D03*
D11*
X117650000Y-63150000D03*
X117650000Y-61150000D03*
D12*
X88900000Y-81150000D03*
X86900000Y-81150000D03*
D10*
X63850000Y-113700000D03*
X65850000Y-113700000D03*
X75000000Y-115875000D03*
X77000000Y-115875000D03*
X107350000Y-113000000D03*
X109350000Y-113000000D03*
D11*
X115850000Y-109200000D03*
X115850000Y-107200000D03*
D10*
X110300000Y-153000000D03*
X112300000Y-153000000D03*
D14*
X58750000Y-81850000D03*
X58750000Y-79800000D03*
D10*
X76900000Y-149325000D03*
X78900000Y-149325000D03*
D12*
X113800000Y-135500000D03*
X111800000Y-135500000D03*
D10*
X86850000Y-126100000D03*
X88850000Y-126100000D03*
D24*
X118550000Y-67380000D03*
X117050000Y-67380000D03*
X118550000Y-68520000D03*
X117050000Y-68520000D03*
D25*
X115895000Y-65475000D03*
X117165000Y-65475000D03*
X118435000Y-65475000D03*
X119705000Y-65475000D03*
X119705000Y-70425000D03*
X118435000Y-70425000D03*
X117165000Y-70425000D03*
X115895000Y-70425000D03*
D12*
X87850000Y-103450000D03*
X85850000Y-103450000D03*
D14*
X82050000Y-135625000D03*
X82050000Y-133575000D03*
D10*
X98200000Y-95150000D03*
X100200000Y-95150000D03*
D18*
X65600000Y-104650000D03*
X65600000Y-106650000D03*
D11*
X74400000Y-143700000D03*
X74400000Y-141700000D03*
D26*
X78762500Y-131500000D03*
X80837500Y-131500000D03*
D14*
X65550000Y-130475000D03*
X65550000Y-128425000D03*
D18*
X60775000Y-73950000D03*
X60775000Y-75950000D03*
D15*
X70950000Y-137937500D03*
X70950000Y-140012500D03*
D12*
X88850000Y-142250000D03*
X86850000Y-142250000D03*
X87600000Y-100450000D03*
X85600000Y-100450000D03*
D28*
X64400000Y-87700000D03*
X59000000Y-87700000D03*
D12*
X60950000Y-145650000D03*
X58950000Y-145650000D03*
X113500000Y-131150000D03*
X111500000Y-131150000D03*
D11*
X70200000Y-100450000D03*
X70200000Y-98450000D03*
X77650000Y-62075000D03*
X77650000Y-60075000D03*
D23*
X63650000Y-152075000D03*
X63650000Y-154125000D03*
D12*
X92900000Y-129200000D03*
X90900000Y-129200000D03*
D15*
X96050000Y-85062500D03*
X96050000Y-87137500D03*
D12*
X88850000Y-146250000D03*
X86850000Y-146250000D03*
D10*
X98150000Y-121150000D03*
X100150000Y-121150000D03*
D16*
X94070000Y-80700000D03*
X94070000Y-82200000D03*
X92930000Y-82200000D03*
X92930000Y-80700000D03*
D17*
X91025000Y-83355000D03*
X91025000Y-82085000D03*
X91025000Y-80815000D03*
X91025000Y-79545000D03*
X95975000Y-79545000D03*
X95975000Y-80815000D03*
X95975000Y-82085000D03*
X95975000Y-83355000D03*
D15*
X119750000Y-85587500D03*
X119750000Y-87662500D03*
D29*
X75775000Y-96512500D03*
X75125000Y-96512500D03*
X74475000Y-96512500D03*
X73825000Y-96512500D03*
X73175000Y-96512500D03*
X72525000Y-96512500D03*
X71875000Y-96512500D03*
X71225000Y-96512500D03*
X71225000Y-90787500D03*
X71875000Y-90787500D03*
X72525000Y-90787500D03*
X73175000Y-90787500D03*
X73825000Y-90787500D03*
X74475000Y-90787500D03*
X75125000Y-90787500D03*
X75775000Y-90787500D03*
D10*
X112050000Y-128800000D03*
X114050000Y-128800000D03*
X72750000Y-129875000D03*
X74750000Y-129875000D03*
D15*
X119650000Y-61087500D03*
X119650000Y-63162500D03*
D18*
X78800000Y-125600000D03*
X78800000Y-127600000D03*
D10*
X99100000Y-79200000D03*
X101100000Y-79200000D03*
X76875000Y-147375000D03*
X78875000Y-147375000D03*
X86250000Y-150350000D03*
X88250000Y-150350000D03*
D27*
X95987500Y-75700000D03*
X93912500Y-75700000D03*
D15*
X115675000Y-146937500D03*
X115675000Y-149012500D03*
D12*
X90000000Y-85150000D03*
X88000000Y-85150000D03*
D30*
X79450000Y-121470000D03*
X77950000Y-121470000D03*
X79450000Y-120330000D03*
X77950000Y-120330000D03*
D31*
X80605000Y-123375000D03*
X79335000Y-123375000D03*
X78065000Y-123375000D03*
X76795000Y-123375000D03*
X76795000Y-118425000D03*
X78065000Y-118425000D03*
X79335000Y-118425000D03*
X80605000Y-118425000D03*
D11*
X115850000Y-83850000D03*
X115850000Y-81850000D03*
D27*
X69612500Y-94075000D03*
X67537500Y-94075000D03*
D18*
X119700000Y-97250000D03*
X119700000Y-99250000D03*
D11*
X72000000Y-128000000D03*
X72000000Y-126000000D03*
D18*
X117800000Y-122600000D03*
X117800000Y-124600000D03*
D26*
X88962500Y-89600000D03*
X91037500Y-89600000D03*
D15*
X96050000Y-123162500D03*
X96050000Y-125237500D03*
D12*
X80800000Y-129500000D03*
X78800000Y-129500000D03*
X113500000Y-61900000D03*
X111500000Y-61900000D03*
D15*
X66800000Y-74150000D03*
X66800000Y-76225000D03*
D14*
X69750000Y-119125000D03*
X69750000Y-117075000D03*
D13*
X76800000Y-127637500D03*
X76800000Y-125562500D03*
D12*
X88850000Y-148250000D03*
X86850000Y-148250000D03*
D10*
X76875000Y-151275000D03*
X78875000Y-151275000D03*
D18*
X119600000Y-72550000D03*
X119600000Y-74550000D03*
D26*
X82312500Y-123525000D03*
X84387500Y-123525000D03*
D18*
X119750000Y-122600000D03*
X119750000Y-124600000D03*
D12*
X113600000Y-97850000D03*
X111600000Y-97850000D03*
D11*
X65600000Y-102800000D03*
X65600000Y-100800000D03*
D18*
X58425000Y-105425000D03*
X58425000Y-107425000D03*
D10*
X61000000Y-105925000D03*
X63000000Y-105925000D03*
D23*
X63450000Y-128425000D03*
X63450000Y-130475000D03*
D10*
X112050000Y-78700000D03*
X114050000Y-78700000D03*
D13*
X77000000Y-145537500D03*
X77000000Y-143462500D03*
D10*
X111500000Y-147450000D03*
X113500000Y-147450000D03*
D12*
X117850000Y-128800000D03*
X115850000Y-128800000D03*
D10*
X62675000Y-143675000D03*
X64675000Y-143675000D03*
D15*
X119600000Y-134862500D03*
X119600000Y-136937500D03*
D12*
X96450000Y-89550000D03*
X94450000Y-89550000D03*
D26*
X105312500Y-56700000D03*
X107387500Y-56700000D03*
D18*
X87275000Y-51300000D03*
X87275000Y-53300000D03*
D27*
X101512500Y-133500000D03*
X99437500Y-133500000D03*
D15*
X96000000Y-97062500D03*
X96000000Y-99137500D03*
D12*
X88750000Y-75900000D03*
X86750000Y-75900000D03*
D21*
X75000000Y-118025000D03*
X72950000Y-118025000D03*
D12*
X114200000Y-66800000D03*
X112200000Y-66800000D03*
D10*
X90900000Y-133100000D03*
X92900000Y-133100000D03*
D32*
X72775000Y-120450000D03*
X74825000Y-120450000D03*
D18*
X82050000Y-110025000D03*
X82050000Y-112025000D03*
D11*
X72950000Y-139975000D03*
X72950000Y-137975000D03*
D12*
X101100000Y-83200000D03*
X99100000Y-83200000D03*
D11*
X94800000Y-130950000D03*
X94800000Y-128950000D03*
D32*
X52475000Y-90350000D03*
X54525000Y-90350000D03*
D12*
X117750000Y-102800000D03*
X115750000Y-102800000D03*
X88850000Y-120100000D03*
X86850000Y-120100000D03*
D10*
X58925000Y-143675000D03*
X60925000Y-143675000D03*
D24*
X117050000Y-117380000D03*
X117050000Y-118520000D03*
X118550000Y-118520000D03*
X118550000Y-117380000D03*
D25*
X115895000Y-115475000D03*
X117165000Y-115475000D03*
X118435000Y-115475000D03*
X119705000Y-115475000D03*
X119705000Y-120425000D03*
X118435000Y-120425000D03*
X117165000Y-120425000D03*
X115895000Y-120425000D03*
D12*
X97200000Y-77700000D03*
X95200000Y-77700000D03*
D14*
X69750000Y-122875000D03*
X69750000Y-120825000D03*
D15*
X77500000Y-90962500D03*
X77500000Y-93037500D03*
D10*
X112050000Y-140550000D03*
X114050000Y-140550000D03*
D17*
X58225000Y-103655000D03*
X58225000Y-102385000D03*
X58225000Y-101115000D03*
X58225000Y-99845000D03*
X63175000Y-99845000D03*
X63175000Y-101115000D03*
X63175000Y-102385000D03*
X63175000Y-103655000D03*
D10*
X63500000Y-126500000D03*
X65500000Y-126500000D03*
D33*
X68587500Y-89025000D03*
X68587500Y-88075000D03*
X68587500Y-87125000D03*
X70862500Y-87125000D03*
X70862500Y-89025000D03*
D12*
X88850000Y-118100000D03*
X86850000Y-118100000D03*
X113500000Y-74200000D03*
X111500000Y-74200000D03*
D10*
X63650000Y-150150000D03*
X65650000Y-150150000D03*
D12*
X88850000Y-124100000D03*
X86850000Y-124100000D03*
D15*
X115800000Y-97212500D03*
X115800000Y-99287500D03*
D10*
X107550000Y-148900000D03*
X109550000Y-148900000D03*
X107500000Y-124850000D03*
X109500000Y-124850000D03*
D11*
X71900000Y-116000000D03*
X71900000Y-114000000D03*
X117800000Y-87650000D03*
X117800000Y-85650000D03*
D10*
X107050000Y-63000000D03*
X109050000Y-63000000D03*
D15*
X115850000Y-122612500D03*
X115850000Y-124687500D03*
D34*
X71825000Y-77500000D03*
D35*
X70325000Y-77412500D03*
D34*
X68825000Y-77500000D03*
D12*
X111500000Y-106800000D03*
X109500000Y-106800000D03*
D11*
X83000000Y-115900000D03*
X83000000Y-113900000D03*
D26*
X52462500Y-92450000D03*
X54537500Y-92450000D03*
D12*
X116050000Y-153000000D03*
X114050000Y-153000000D03*
D10*
X104600000Y-98850000D03*
X106600000Y-98850000D03*
D11*
X115850000Y-87650000D03*
X115850000Y-85650000D03*
X115650000Y-136950000D03*
X115650000Y-134950000D03*
D10*
X111500000Y-81200000D03*
X113500000Y-81200000D03*
X94400000Y-127075000D03*
X96400000Y-127075000D03*
D11*
X115700000Y-63150000D03*
X115700000Y-61150000D03*
D15*
X115700000Y-72612500D03*
X115700000Y-74687500D03*
D11*
X72175000Y-152000000D03*
X72175000Y-150000000D03*
D10*
X98200000Y-141250000D03*
X100200000Y-141250000D03*
X107800000Y-136800000D03*
X109800000Y-136800000D03*
D26*
X90862500Y-131150000D03*
X92937500Y-131150000D03*
D15*
X72550000Y-98462500D03*
X72550000Y-100537500D03*
D36*
X64687500Y-73950000D03*
X64687500Y-75850000D03*
X62812500Y-74900000D03*
D10*
X107050000Y-73850000D03*
X109050000Y-73850000D03*
D14*
X64500000Y-135775000D03*
X64500000Y-133725000D03*
D11*
X117600000Y-136950000D03*
X117600000Y-134950000D03*
X76750000Y-131600000D03*
X76750000Y-129600000D03*
D37*
X59000000Y-95350000D03*
X64400000Y-95350000D03*
D18*
X89850000Y-51275000D03*
X89850000Y-53275000D03*
X117650000Y-72550000D03*
X117650000Y-74550000D03*
D15*
X66425000Y-89962500D03*
X66425000Y-92037500D03*
M02*
