M48
; DRILL file {KiCad (6.0.1)} date Sun Nov 27 14:44:02 2022
; FORMAT={-:-/ absolute / inch / decimal}
; #@! TF.CreationDate,2022-11-27T14:44:02-08:00
; #@! TF.GenerationSoftware,Kicad,Pcbnew,(6.0.1)
; #@! TF.FileFunction,NonPlated,1,2,NPTH
FMAT,2
INCH
; #@! TA.AperFunction,NonPlated,NPTH,ComponentDrill
T1C0.0984
; #@! TA.AperFunction,NonPlated,NPTH,ComponentDrill
T2C0.1260
; #@! TA.AperFunction,NonPlated,NPTH,ComponentDrill
T3C0.1457
; #@! TA.AperFunction,NonPlated,NPTH,ComponentDrill
T4C0.2441
; #@! TA.AperFunction,NonPlated,NPTH,ComponentDrill
T5C0.2520
%
G90
G05
T1
X2.126Y-2.0866
X2.126Y-6.1811
X4.6063Y-2.0866
X4.6063Y-6.1811
T2
X2.8846Y-4.4094
X2.8846Y-4.8819
X2.8846Y-5.3543
X2.8846Y-5.8268
X3.2626Y-4.752
X3.2626Y-4.9488
X3.2626Y-5.6969
X3.2626Y-5.8937
X4.4398Y-2.3425
X4.4398Y-2.5394
X4.4398Y-2.815
X4.4398Y-3.0098
X4.4398Y-3.2874
X4.4398Y-3.485
X4.4398Y-3.7598
X4.4398Y-3.9567
X4.4398Y-4.311
X4.4398Y-4.5079
X4.4398Y-4.7835
X4.4398Y-4.9803
X4.4398Y-5.2559
X4.4398Y-5.4528
X4.4398Y-5.7283
X4.4398Y-5.9252
T3
X2.1358Y-4.4094
X2.1358Y-4.8819
X2.1358Y-5.3543
X2.1358Y-5.8268
X2.2776Y-2.3563
X2.2776Y-2.6654
X2.7933Y-3.2579
X3.187Y-3.2579
X4.1831Y-2.4409
X4.1831Y-2.9134
X4.1831Y-3.3858
X4.1831Y-3.8583
X4.1831Y-4.4094
X4.1831Y-4.8819
X4.1831Y-5.3543
X4.1831Y-5.8268
T4
X2.5736Y-4.4094
X2.5736Y-4.8819
X2.5736Y-5.3543
X2.5736Y-5.8268
X3.2626Y-4.4094
X3.2626Y-5.3543
X3.8138Y-2.4409
X3.8138Y-2.9134
X3.8138Y-3.3858
X3.8138Y-3.8583
X3.8138Y-4.4094
X3.8138Y-4.8819
X3.8138Y-5.3543
X3.8138Y-5.8268
T5
X2.9803Y-3.6988
T0
M30
