%TF.GenerationSoftware,KiCad,Pcbnew,(6.0.1)*%
%TF.CreationDate,2022-10-21T14:46:05-07:00*%
%TF.ProjectId,BonkDaddyBoard,426f6e6b-4461-4646-9479-426f6172642e,1.2*%
%TF.SameCoordinates,Original*%
%TF.FileFunction,Copper,L1,Top*%
%TF.FilePolarity,Positive*%
%FSLAX46Y46*%
G04 Gerber Fmt 4.6, Leading zero omitted, Abs format (unit mm)*
G04 Created by KiCad (PCBNEW (6.0.1)) date 2022-10-21 14:46:05*
%MOMM*%
%LPD*%
G01*
G04 APERTURE LIST*
%TA.AperFunction,ComponentPad*%
%ADD10R,0.840000X0.840000*%
%TD*%
%TA.AperFunction,ComponentPad*%
%ADD11C,0.840000*%
%TD*%
%TA.AperFunction,ComponentPad*%
%ADD12O,0.850000X1.850000*%
%TD*%
%TA.AperFunction,ComponentPad*%
%ADD13C,2.000000*%
%TD*%
%TA.AperFunction,ComponentPad*%
%ADD14R,1.800000X1.800000*%
%TD*%
%TA.AperFunction,ComponentPad*%
%ADD15C,1.800000*%
%TD*%
%TA.AperFunction,ComponentPad*%
%ADD16C,1.600000*%
%TD*%
%TA.AperFunction,ComponentPad*%
%ADD17O,1.600000X1.600000*%
%TD*%
%TA.AperFunction,ComponentPad*%
%ADD18R,1.600000X1.600000*%
%TD*%
%TA.AperFunction,ComponentPad*%
%ADD19R,1.600000X1.500000*%
%TD*%
%TA.AperFunction,ComponentPad*%
%ADD20C,3.000000*%
%TD*%
%TA.AperFunction,ComponentPad*%
%ADD21R,1.700000X1.700000*%
%TD*%
%TA.AperFunction,ComponentPad*%
%ADD22O,1.700000X1.700000*%
%TD*%
%TA.AperFunction,ComponentPad*%
%ADD23R,1.500000X1.500000*%
%TD*%
%TA.AperFunction,ComponentPad*%
%ADD24C,1.500000*%
%TD*%
%TA.AperFunction,ViaPad*%
%ADD25C,0.400000*%
%TD*%
%TA.AperFunction,Conductor*%
%ADD26C,0.200000*%
%TD*%
%TA.AperFunction,Conductor*%
%ADD27C,0.250000*%
%TD*%
G04 APERTURE END LIST*
D10*
%TO.P,J2,1,VBUS*%
%TO.N,Net-(J2-Pad1)*%
X102700000Y-52500000D03*
D11*
%TO.P,J2,2,D-*%
%TO.N,Net-(J2-Pad2)*%
X103350000Y-53500000D03*
%TO.P,J2,3,D+*%
%TO.N,Net-(J2-Pad3)*%
X104000000Y-52500000D03*
%TO.P,J2,4,ID*%
%TO.N,unconnected-(J2-Pad4)*%
X104650000Y-53500000D03*
%TO.P,J2,5,GND*%
%TO.N,GND*%
X105300000Y-52500000D03*
D12*
%TO.P,J2,6,Shield*%
%TO.N,Net-(J2-Pad6)*%
X100425000Y-52720000D03*
X107575000Y-52720000D03*
%TD*%
D13*
%TO.P,SW1,1,1*%
%TO.N,Net-(J1-Pad1)*%
X66500000Y-52500000D03*
X60000000Y-52500000D03*
%TO.P,SW1,2,2*%
%TO.N,GND*%
X60000000Y-57000000D03*
X66500000Y-57000000D03*
%TD*%
D14*
%TO.P,D1,1,K*%
%TO.N,Net-(D1-Pad1)*%
X106280000Y-66750000D03*
D15*
%TO.P,D1,2,A*%
%TO.N,+3V3*%
X108820000Y-66750000D03*
%TD*%
D14*
%TO.P,D2,1,K*%
%TO.N,Net-(D2-Pad1)*%
X112200000Y-52750000D03*
D15*
%TO.P,D2,2,A*%
%TO.N,Net-(D2-Pad2)*%
X109660000Y-52750000D03*
%TD*%
D16*
%TO.P,R1,1*%
%TO.N,Net-(R1-Pad1)*%
X101245000Y-71225000D03*
D17*
%TO.P,R1,2*%
%TO.N,Net-(D1-Pad1)*%
X111405000Y-71225000D03*
%TD*%
D16*
%TO.P,R2,1*%
%TO.N,Net-(R2-Pad1)*%
X70580000Y-71175000D03*
D17*
%TO.P,R2,2*%
%TO.N,Net-(D4-Pad1)*%
X60420000Y-71175000D03*
%TD*%
D14*
%TO.P,D3,1,K*%
%TO.N,Net-(D3-Pad1)*%
X91510000Y-66750000D03*
D15*
%TO.P,D3,2,A*%
%TO.N,+3V3*%
X94050000Y-66750000D03*
%TD*%
D16*
%TO.P,R4,1*%
%TO.N,Net-(R4-Pad1)*%
X87895000Y-71175000D03*
D17*
%TO.P,R4,2*%
%TO.N,Net-(D3-Pad1)*%
X98055000Y-71175000D03*
%TD*%
D16*
%TO.P,R5,1*%
%TO.N,Net-(R5-Pad1)*%
X83255000Y-71075000D03*
D17*
%TO.P,R5,2*%
%TO.N,Net-(D5-Pad1)*%
X73095000Y-71075000D03*
%TD*%
D16*
%TO.P,R6,1*%
%TO.N,GND*%
X85845000Y-63000000D03*
D17*
%TO.P,R6,2*%
%TO.N,Net-(Q3-Pad2)*%
X96005000Y-63000000D03*
%TD*%
D16*
%TO.P,R8,1*%
%TO.N,Net-(Q4-Pad2)*%
X118975000Y-67005000D03*
D17*
%TO.P,R8,2*%
%TO.N,Net-(J2-Pad1)*%
X118975000Y-56845000D03*
%TD*%
D16*
%TO.P,R9,1*%
%TO.N,Net-(Q3-Pad3)*%
X73000000Y-63000000D03*
D17*
%TO.P,R9,2*%
%TO.N,Net-(Q4-Pad2)*%
X83160000Y-63000000D03*
%TD*%
D16*
%TO.P,R7,1*%
%TO.N,Net-(Q3-Pad2)*%
X116330000Y-62875000D03*
D17*
%TO.P,R7,2*%
%TO.N,+12V*%
X106170000Y-62875000D03*
%TD*%
D18*
%TO.P,C2,1*%
%TO.N,+3V3*%
X66644888Y-61980000D03*
D16*
%TO.P,C2,2*%
%TO.N,GND*%
X68644888Y-61980000D03*
%TD*%
D14*
%TO.P,D5,1,K*%
%TO.N,Net-(D5-Pad1)*%
X79290000Y-66750000D03*
D15*
%TO.P,D5,2,A*%
%TO.N,+3V3*%
X76750000Y-66750000D03*
%TD*%
D18*
%TO.P,C3,1*%
%TO.N,+12V*%
X58475113Y-67510000D03*
D16*
%TO.P,C3,2*%
%TO.N,GND*%
X56475113Y-67510000D03*
%TD*%
D14*
%TO.P,D4,1,K*%
%TO.N,Net-(D4-Pad1)*%
X64520000Y-66750000D03*
D15*
%TO.P,D4,2,A*%
%TO.N,+3V3*%
X61980000Y-66750000D03*
%TD*%
D19*
%TO.P,J3,1,VBUS*%
%TO.N,Net-(D2-Pad2)*%
X102825000Y-59695000D03*
D16*
%TO.P,J3,2,D-*%
%TO.N,Net-(J2-Pad2)*%
X105325000Y-59695000D03*
%TO.P,J3,3,D+*%
%TO.N,Net-(J2-Pad3)*%
X107325000Y-59695000D03*
%TO.P,J3,4,GND*%
%TO.N,GND*%
X109825000Y-59695000D03*
D20*
%TO.P,J3,5,Shield*%
%TO.N,Net-(J2-Pad6)*%
X112895000Y-56985000D03*
X99755000Y-56985000D03*
%TD*%
D21*
%TO.P,J1,1,Pin_1*%
%TO.N,Net-(J1-Pad1)*%
X52325000Y-60325000D03*
D22*
%TO.P,J1,2,Pin_2*%
%TO.N,GND*%
X52325000Y-62865000D03*
%TO.P,J1,3,Pin_3*%
%TO.N,Net-(J1-Pad3)*%
X54865000Y-60325000D03*
%TO.P,J1,4,Pin_4*%
%TO.N,Net-(J1-Pad4)*%
X54865000Y-62865000D03*
%TO.P,J1,5,Pin_5*%
%TO.N,+12V*%
X57405000Y-60325000D03*
%TO.P,J1,6,Pin_6*%
%TO.N,unconnected-(J1-Pad6)*%
X57405000Y-62865000D03*
%TO.P,J1,7,Pin_7*%
%TO.N,Net-(J1-Pad7)*%
X59945000Y-60325000D03*
%TO.P,J1,8,Pin_8*%
%TO.N,GND*%
X59945000Y-62865000D03*
%TO.P,J1,9,Pin_9*%
%TO.N,+3V3*%
X62485000Y-60325000D03*
%TO.P,J1,10,Pin_10*%
%TO.N,Net-(J1-Pad10)*%
X62485000Y-62865000D03*
%TD*%
D16*
%TO.P,R3,1*%
%TO.N,GND*%
X95800000Y-59320000D03*
D17*
%TO.P,R3,2*%
%TO.N,Net-(D2-Pad1)*%
X95800000Y-56780000D03*
%TD*%
D16*
%TO.P,C1,1*%
%TO.N,+3V3*%
X69600000Y-52025000D03*
%TO.P,C1,2*%
%TO.N,GND*%
X69600000Y-57025000D03*
%TD*%
D23*
%TO.P,Q3,1,S*%
%TO.N,GND*%
X96050000Y-52675000D03*
D24*
%TO.P,Q3,2,G*%
%TO.N,Net-(Q3-Pad2)*%
X93510000Y-52675000D03*
%TO.P,Q3,3,D*%
%TO.N,Net-(Q3-Pad3)*%
X90970000Y-52675000D03*
%TD*%
D18*
%TO.P,U1,1*%
%TO.N,Net-(J1-Pad7)*%
X72635000Y-51930000D03*
D17*
%TO.P,U1,2*%
%TO.N,Net-(R1-Pad1)*%
X75175000Y-51930000D03*
%TO.P,U1,3*%
%TO.N,Net-(J1-Pad3)*%
X77715000Y-51930000D03*
%TO.P,U1,4*%
%TO.N,Net-(R5-Pad1)*%
X80255000Y-51930000D03*
%TO.P,U1,5*%
%TO.N,Net-(J1-Pad4)*%
X82795000Y-51930000D03*
%TO.P,U1,6*%
%TO.N,Net-(R2-Pad1)*%
X85335000Y-51930000D03*
%TO.P,U1,7,GND*%
%TO.N,GND*%
X87875000Y-51930000D03*
%TO.P,U1,8*%
%TO.N,Net-(R4-Pad1)*%
X87875000Y-59550000D03*
%TO.P,U1,9*%
%TO.N,Net-(J1-Pad10)*%
X85335000Y-59550000D03*
%TO.P,U1,10*%
%TO.N,unconnected-(U1-Pad10)*%
X82795000Y-59550000D03*
%TO.P,U1,11*%
%TO.N,GND*%
X80255000Y-59550000D03*
%TO.P,U1,12*%
%TO.N,unconnected-(U1-Pad12)*%
X77715000Y-59550000D03*
%TO.P,U1,13*%
%TO.N,GND*%
X75175000Y-59550000D03*
%TO.P,U1,14,VCC*%
%TO.N,+3V3*%
X72635000Y-59550000D03*
%TD*%
D23*
%TO.P,Q4,1,E*%
%TO.N,Net-(J2-Pad1)*%
X98460000Y-66835000D03*
D24*
%TO.P,Q4,2,B*%
%TO.N,Net-(Q4-Pad2)*%
X101000000Y-66835000D03*
%TO.P,Q4,3,C*%
%TO.N,Net-(D2-Pad2)*%
X103540000Y-66835000D03*
%TD*%
D25*
%TO.N,Net-(J2-Pad1)*%
X101554511Y-61220489D03*
X118945489Y-61220489D03*
%TO.N,Net-(J2-Pad6)*%
X108500000Y-55675000D03*
%TO.N,+12V*%
X104849511Y-67949511D03*
%TO.N,GND*%
X105300000Y-54375000D03*
%TO.N,Net-(D1-Pad1)*%
X106280000Y-71170000D03*
%TO.N,Net-(D4-Pad1)*%
X64400000Y-71175000D03*
%TO.N,Net-(D2-Pad2)*%
X109650489Y-58199511D03*
%TO.N,Net-(J1-Pad7)*%
X72614511Y-55675489D03*
%TO.N,Net-(D5-Pad1)*%
X79300000Y-71075000D03*
%TO.N,Net-(D3-Pad1)*%
X91510000Y-71065000D03*
%TO.N,Net-(J1-Pad10)*%
X85320000Y-61250000D03*
%TO.N,Net-(J1-Pad4)*%
X82760000Y-57510000D03*
%TO.N,Net-(R1-Pad1)*%
X75274511Y-72274511D03*
%TO.N,Net-(R2-Pad1)*%
X84250000Y-69075000D03*
X70600000Y-69070000D03*
%TO.N,Net-(Q3-Pad3)*%
X73799999Y-55225001D03*
X90950000Y-55225000D03*
%TO.N,Net-(Q4-Pad2)*%
X101075000Y-64950000D03*
X101000000Y-69150000D03*
%TD*%
D26*
%TO.N,Net-(J2-Pad1)*%
X101554511Y-63740489D02*
X98460000Y-66835000D01*
X101554511Y-61220489D02*
X101554511Y-63740489D01*
X101554511Y-53645489D02*
X101554511Y-61220489D01*
X118975000Y-61190978D02*
X118975000Y-56845000D01*
X102700000Y-52500000D02*
X101554511Y-53645489D01*
X118945489Y-61220489D02*
X118975000Y-61190978D01*
%TO.N,Net-(J2-Pad2)*%
X103350000Y-53500000D02*
X105325000Y-55475000D01*
X105325000Y-55475000D02*
X105325000Y-59695000D01*
%TO.N,Net-(J2-Pad3)*%
X104000000Y-52500000D02*
X104719511Y-51780489D01*
X106800000Y-52982457D02*
X106800000Y-55460056D01*
X108000000Y-59020000D02*
X107325000Y-59695000D01*
X104719511Y-51780489D02*
X105598032Y-51780489D01*
X106800000Y-55460056D02*
X108000000Y-56660056D01*
X105598032Y-51780489D02*
X106800000Y-52982457D01*
X108000000Y-56660056D02*
X108000000Y-59020000D01*
%TO.N,Net-(J2-Pad6)*%
X100425000Y-56315000D02*
X99755000Y-56985000D01*
X100425000Y-52720000D02*
X100425000Y-56315000D01*
X107575000Y-54750000D02*
X107575000Y-52720000D01*
X108500000Y-55675000D02*
X107575000Y-54750000D01*
D27*
%TO.N,+12V*%
X57405000Y-60325000D02*
X58579511Y-61499511D01*
X58579511Y-67405602D02*
X58475113Y-67510000D01*
X58579511Y-61499511D02*
X58579511Y-67405602D01*
D26*
X104849511Y-67949511D02*
X104849511Y-64195489D01*
X104849511Y-64195489D02*
X106170000Y-62875000D01*
%TO.N,GND*%
X105720000Y-52920000D02*
X105720000Y-53955000D01*
X105300000Y-52500000D02*
X105720000Y-52920000D01*
X105300000Y-54375000D02*
X105300000Y-54525062D01*
X105720000Y-53955000D02*
X105300000Y-54375000D01*
%TO.N,Net-(D1-Pad1)*%
X106280000Y-66750000D02*
X106280000Y-71170000D01*
%TO.N,Net-(D4-Pad1)*%
X64520000Y-66750000D02*
X64520000Y-71055000D01*
X64520000Y-71055000D02*
X64400000Y-71175000D01*
%TO.N,Net-(D2-Pad2)*%
X102825000Y-66120000D02*
X103540000Y-66835000D01*
X109660000Y-58190000D02*
X109650489Y-58199511D01*
X102825000Y-59695000D02*
X102825000Y-66120000D01*
X109660000Y-52750000D02*
X109660000Y-58190000D01*
D27*
%TO.N,Net-(J1-Pad7)*%
X72635000Y-55655000D02*
X72635000Y-51930000D01*
X72614511Y-55675489D02*
X72635000Y-55655000D01*
D26*
%TO.N,Net-(D5-Pad1)*%
X79290000Y-71065000D02*
X79300000Y-71075000D01*
X79290000Y-66750000D02*
X79290000Y-71065000D01*
%TO.N,Net-(D3-Pad1)*%
X91510000Y-66750000D02*
X91510000Y-71065000D01*
D27*
%TO.N,Net-(J1-Pad10)*%
X85320000Y-59565000D02*
X85335000Y-59550000D01*
X85320000Y-61250000D02*
X85320000Y-59565000D01*
%TO.N,Net-(J1-Pad4)*%
X82760000Y-57510000D02*
X82795000Y-57475000D01*
X82795000Y-57475000D02*
X82795000Y-51930000D01*
%TO.N,Net-(R1-Pad1)*%
X75274511Y-66493768D02*
X75274511Y-72274511D01*
X76299511Y-65468768D02*
X75274511Y-66493768D01*
X76299511Y-53054511D02*
X76299511Y-65468768D01*
X75175000Y-51930000D02*
X76299511Y-53054511D01*
%TO.N,Net-(R2-Pad1)*%
X84210489Y-53054511D02*
X84210489Y-62460189D01*
X84210489Y-62460189D02*
X84284511Y-62534211D01*
X84284511Y-62534211D02*
X84284511Y-69040489D01*
X70580000Y-69090000D02*
X70600000Y-69070000D01*
X70580000Y-71175000D02*
X70580000Y-69090000D01*
X84284511Y-69040489D02*
X84250000Y-69075000D01*
X85335000Y-51930000D02*
X84210489Y-53054511D01*
D26*
%TO.N,+3V3*%
X61335489Y-61474511D02*
X61335489Y-66105489D01*
X67799511Y-53825489D02*
X67799511Y-60825377D01*
X69600000Y-52025000D02*
X67799511Y-53825489D01*
X62485000Y-60325000D02*
X61335489Y-61474511D01*
X61335489Y-66105489D02*
X61980000Y-66750000D01*
X67799511Y-60825377D02*
X66644888Y-61980000D01*
%TO.N,Net-(Q3-Pad2)*%
X93510000Y-52675000D02*
X93510000Y-60505000D01*
X93510000Y-60505000D02*
X96005000Y-63000000D01*
%TO.N,Net-(Q3-Pad3)*%
X90970000Y-55180000D02*
X90970000Y-52675000D01*
X90925000Y-55225000D02*
X90970000Y-55180000D01*
X73799999Y-62200001D02*
X73799999Y-55225001D01*
X73000000Y-63000000D02*
X73799999Y-62200001D01*
%TO.N,Net-(Q4-Pad2)*%
X101000000Y-66835000D02*
X101000000Y-65025000D01*
X101000000Y-65025000D02*
X101075000Y-64950000D01*
X101000000Y-66835000D02*
X101000000Y-69150000D01*
D27*
%TO.N,Net-(R4-Pad1)*%
X87875000Y-71155000D02*
X87895000Y-71175000D01*
X87875000Y-59550000D02*
X87875000Y-71155000D01*
%TO.N,Net-(R5-Pad1)*%
X80255000Y-51930000D02*
X81379511Y-53054511D01*
X81379511Y-53054511D02*
X81379511Y-69199511D01*
X81379511Y-69199511D02*
X83255000Y-71075000D01*
%TD*%
%TA.AperFunction,Conductor*%
%TO.N,GND*%
G36*
X69316921Y-50528002D02*
G01*
X69363414Y-50581658D01*
X69373518Y-50651932D01*
X69344024Y-50716512D01*
X69281412Y-50755707D01*
X69150757Y-50790716D01*
X69145776Y-50793039D01*
X69145775Y-50793039D01*
X68948238Y-50885151D01*
X68948233Y-50885154D01*
X68943251Y-50887477D01*
X68838389Y-50960902D01*
X68760211Y-51015643D01*
X68760208Y-51015645D01*
X68755700Y-51018802D01*
X68593802Y-51180700D01*
X68590645Y-51185208D01*
X68590643Y-51185211D01*
X68541361Y-51255593D01*
X68462477Y-51368251D01*
X68460154Y-51373233D01*
X68460151Y-51373238D01*
X68368039Y-51570775D01*
X68365716Y-51575757D01*
X68364294Y-51581065D01*
X68364293Y-51581067D01*
X68307881Y-51791598D01*
X68306457Y-51796913D01*
X68286502Y-52025000D01*
X68306457Y-52253087D01*
X68307881Y-52258400D01*
X68307881Y-52258402D01*
X68330931Y-52344425D01*
X68329241Y-52415401D01*
X68298320Y-52466131D01*
X68224762Y-52539690D01*
X68162451Y-52573714D01*
X68091635Y-52568650D01*
X68034799Y-52526104D01*
X68010055Y-52460480D01*
X67999422Y-52325378D01*
X67994535Y-52263289D01*
X67990989Y-52248515D01*
X67942929Y-52048334D01*
X67939105Y-52032406D01*
X67936763Y-52026752D01*
X67850135Y-51817611D01*
X67850133Y-51817607D01*
X67848240Y-51813037D01*
X67841717Y-51802393D01*
X67726759Y-51614798D01*
X67726755Y-51614792D01*
X67724176Y-51610584D01*
X67569969Y-51430031D01*
X67565861Y-51426522D01*
X67494124Y-51365253D01*
X67389416Y-51275824D01*
X67385208Y-51273245D01*
X67385202Y-51273241D01*
X67191183Y-51154346D01*
X67186963Y-51151760D01*
X67182393Y-51149867D01*
X67182389Y-51149865D01*
X66972167Y-51062789D01*
X66972165Y-51062788D01*
X66967594Y-51060895D01*
X66840869Y-51030471D01*
X66741524Y-51006620D01*
X66741518Y-51006619D01*
X66736711Y-51005465D01*
X66500000Y-50986835D01*
X66263289Y-51005465D01*
X66258482Y-51006619D01*
X66258476Y-51006620D01*
X66159131Y-51030471D01*
X66032406Y-51060895D01*
X66027835Y-51062788D01*
X66027833Y-51062789D01*
X65817611Y-51149865D01*
X65817607Y-51149867D01*
X65813037Y-51151760D01*
X65808817Y-51154346D01*
X65614798Y-51273241D01*
X65614792Y-51273245D01*
X65610584Y-51275824D01*
X65505876Y-51365253D01*
X65434140Y-51426522D01*
X65430031Y-51430031D01*
X65275824Y-51610584D01*
X65273245Y-51614792D01*
X65273241Y-51614798D01*
X65158283Y-51802393D01*
X65151760Y-51813037D01*
X65149867Y-51817607D01*
X65149865Y-51817611D01*
X65063237Y-52026752D01*
X65060895Y-52032406D01*
X65057071Y-52048334D01*
X65009012Y-52248515D01*
X65005465Y-52263289D01*
X64986835Y-52500000D01*
X65005465Y-52736711D01*
X65006619Y-52741518D01*
X65006620Y-52741524D01*
X65036214Y-52864789D01*
X65060895Y-52967594D01*
X65062788Y-52972165D01*
X65062789Y-52972167D01*
X65149131Y-53180615D01*
X65151760Y-53186963D01*
X65154346Y-53191183D01*
X65273241Y-53385202D01*
X65273245Y-53385208D01*
X65275824Y-53389416D01*
X65430031Y-53569969D01*
X65610584Y-53724176D01*
X65614792Y-53726755D01*
X65614798Y-53726759D01*
X65808817Y-53845654D01*
X65813037Y-53848240D01*
X65817607Y-53850133D01*
X65817611Y-53850135D01*
X66017667Y-53933000D01*
X66032406Y-53939105D01*
X66112609Y-53958360D01*
X66258476Y-53993380D01*
X66258482Y-53993381D01*
X66263289Y-53994535D01*
X66500000Y-54013165D01*
X66736711Y-53994535D01*
X66741518Y-53993381D01*
X66741524Y-53993380D01*
X66887391Y-53958360D01*
X66967594Y-53939105D01*
X66986370Y-53931328D01*
X66996565Y-53927105D01*
X67016794Y-53918726D01*
X67087382Y-53911137D01*
X67150869Y-53942916D01*
X67187097Y-54003974D01*
X67191011Y-54035135D01*
X67191011Y-55465406D01*
X67171009Y-55533527D01*
X67117353Y-55580020D01*
X67047079Y-55590124D01*
X67016793Y-55581815D01*
X66972012Y-55563266D01*
X66962627Y-55560217D01*
X66741446Y-55507115D01*
X66731699Y-55505572D01*
X66504930Y-55487725D01*
X66495070Y-55487725D01*
X66268301Y-55505572D01*
X66258554Y-55507115D01*
X66037373Y-55560217D01*
X66027988Y-55563266D01*
X65817837Y-55650313D01*
X65809042Y-55654795D01*
X65641555Y-55757432D01*
X65632093Y-55767890D01*
X65635876Y-55776666D01*
X66770115Y-56910905D01*
X66804141Y-56973217D01*
X66799076Y-57044032D01*
X66770115Y-57089095D01*
X65638920Y-58220290D01*
X65632160Y-58232670D01*
X65637887Y-58240320D01*
X65809042Y-58345205D01*
X65817837Y-58349687D01*
X66027988Y-58436734D01*
X66037373Y-58439783D01*
X66258554Y-58492885D01*
X66268301Y-58494428D01*
X66495070Y-58512275D01*
X66504930Y-58512275D01*
X66731699Y-58494428D01*
X66741446Y-58492885D01*
X66962627Y-58439783D01*
X66972012Y-58436734D01*
X67016793Y-58418185D01*
X67087383Y-58410596D01*
X67150870Y-58442375D01*
X67187097Y-58503434D01*
X67191011Y-58534594D01*
X67191011Y-60521138D01*
X67171009Y-60589259D01*
X67154106Y-60610233D01*
X67129744Y-60634595D01*
X67067432Y-60668621D01*
X67040649Y-60671500D01*
X65796754Y-60671500D01*
X65734572Y-60678255D01*
X65598183Y-60729385D01*
X65481627Y-60816739D01*
X65394273Y-60933295D01*
X65343143Y-61069684D01*
X65336388Y-61131866D01*
X65336388Y-62828134D01*
X65343143Y-62890316D01*
X65394273Y-63026705D01*
X65481627Y-63143261D01*
X65598183Y-63230615D01*
X65734572Y-63281745D01*
X65796754Y-63288500D01*
X67493022Y-63288500D01*
X67555204Y-63281745D01*
X67691593Y-63230615D01*
X67739880Y-63194426D01*
X67800966Y-63148645D01*
X67800969Y-63148642D01*
X67808149Y-63143261D01*
X67813530Y-63136081D01*
X67819881Y-63129730D01*
X67822023Y-63131872D01*
X67866734Y-63098436D01*
X67937552Y-63093406D01*
X67978923Y-63111523D01*
X67979120Y-63111182D01*
X67982186Y-63112952D01*
X67982978Y-63113299D01*
X67983877Y-63113929D01*
X67993377Y-63119414D01*
X68190835Y-63211490D01*
X68201127Y-63215236D01*
X68411576Y-63271625D01*
X68422369Y-63273528D01*
X68639413Y-63292517D01*
X68650363Y-63292517D01*
X68867407Y-63273528D01*
X68878200Y-63271625D01*
X69088649Y-63215236D01*
X69098941Y-63211490D01*
X69296399Y-63119414D01*
X69305894Y-63113931D01*
X69357936Y-63077491D01*
X69366312Y-63067012D01*
X69359244Y-63053566D01*
X68374773Y-62069095D01*
X68340747Y-62006783D01*
X68342582Y-61981132D01*
X69009296Y-61981132D01*
X69009427Y-61982965D01*
X69013678Y-61989580D01*
X69719175Y-62695077D01*
X69730950Y-62701507D01*
X69742965Y-62692211D01*
X69778819Y-62641006D01*
X69784302Y-62631511D01*
X69876378Y-62434053D01*
X69880124Y-62423761D01*
X69936513Y-62213312D01*
X69938416Y-62202519D01*
X69957405Y-61985475D01*
X69957405Y-61974525D01*
X69938416Y-61757481D01*
X69936513Y-61746688D01*
X69880124Y-61536239D01*
X69876378Y-61525947D01*
X69784302Y-61328489D01*
X69778819Y-61318994D01*
X69742379Y-61266952D01*
X69731900Y-61258576D01*
X69718454Y-61265644D01*
X69016910Y-61967188D01*
X69009296Y-61981132D01*
X68342582Y-61981132D01*
X68345812Y-61935968D01*
X68374773Y-61890905D01*
X69359965Y-60905713D01*
X69366395Y-60893938D01*
X69357099Y-60881923D01*
X69305894Y-60846069D01*
X69296399Y-60840586D01*
X69098941Y-60748510D01*
X69088649Y-60744764D01*
X68878200Y-60688375D01*
X68867407Y-60686472D01*
X68650363Y-60667483D01*
X68639414Y-60667483D01*
X68544993Y-60675744D01*
X68475388Y-60661755D01*
X68424396Y-60612356D01*
X68408011Y-60550223D01*
X68408011Y-58111062D01*
X68878493Y-58111062D01*
X68887789Y-58123077D01*
X68938994Y-58158931D01*
X68948489Y-58164414D01*
X69145947Y-58256490D01*
X69156239Y-58260236D01*
X69366688Y-58316625D01*
X69377481Y-58318528D01*
X69594525Y-58337517D01*
X69605475Y-58337517D01*
X69822519Y-58318528D01*
X69833312Y-58316625D01*
X70043761Y-58260236D01*
X70054053Y-58256490D01*
X70251511Y-58164414D01*
X70261006Y-58158931D01*
X70313048Y-58122491D01*
X70321424Y-58112012D01*
X70314356Y-58098566D01*
X69612812Y-57397022D01*
X69598868Y-57389408D01*
X69597035Y-57389539D01*
X69590420Y-57393790D01*
X68884923Y-58099287D01*
X68878493Y-58111062D01*
X68408011Y-58111062D01*
X68408011Y-57876615D01*
X68428013Y-57808494D01*
X68477379Y-57765718D01*
X68477141Y-57765266D01*
X68479073Y-57764251D01*
X68481669Y-57762001D01*
X68484116Y-57761600D01*
X68526434Y-57739356D01*
X69227978Y-57037812D01*
X69234356Y-57026132D01*
X69964408Y-57026132D01*
X69964539Y-57027965D01*
X69968790Y-57034580D01*
X70674287Y-57740077D01*
X70686062Y-57746507D01*
X70698077Y-57737211D01*
X70733931Y-57686006D01*
X70739414Y-57676511D01*
X70831490Y-57479053D01*
X70835236Y-57468761D01*
X70891625Y-57258312D01*
X70893528Y-57247519D01*
X70912517Y-57030475D01*
X70912517Y-57019525D01*
X70893528Y-56802481D01*
X70891625Y-56791688D01*
X70835236Y-56581239D01*
X70831490Y-56570947D01*
X70739414Y-56373489D01*
X70733931Y-56363994D01*
X70697491Y-56311952D01*
X70687012Y-56303576D01*
X70673566Y-56310644D01*
X69972022Y-57012188D01*
X69964408Y-57026132D01*
X69234356Y-57026132D01*
X69235592Y-57023868D01*
X69235461Y-57022035D01*
X69231210Y-57015420D01*
X68525713Y-56309923D01*
X68484293Y-56287305D01*
X68473631Y-56284986D01*
X68423426Y-56234786D01*
X68408011Y-56174396D01*
X68408011Y-55937988D01*
X68878576Y-55937988D01*
X68885644Y-55951434D01*
X69587188Y-56652978D01*
X69601132Y-56660592D01*
X69602965Y-56660461D01*
X69609580Y-56656210D01*
X70315077Y-55950713D01*
X70321507Y-55938938D01*
X70312211Y-55926923D01*
X70261006Y-55891069D01*
X70251511Y-55885586D01*
X70054053Y-55793510D01*
X70043761Y-55789764D01*
X69833312Y-55733375D01*
X69822519Y-55731472D01*
X69605475Y-55712483D01*
X69594525Y-55712483D01*
X69377481Y-55731472D01*
X69366688Y-55733375D01*
X69156239Y-55789764D01*
X69145947Y-55793510D01*
X68948489Y-55885586D01*
X68938994Y-55891069D01*
X68886952Y-55927509D01*
X68878576Y-55937988D01*
X68408011Y-55937988D01*
X68408011Y-54129728D01*
X68428013Y-54061607D01*
X68444916Y-54040633D01*
X69158868Y-53326681D01*
X69221180Y-53292655D01*
X69280574Y-53294069D01*
X69366598Y-53317119D01*
X69366600Y-53317119D01*
X69371913Y-53318543D01*
X69600000Y-53338498D01*
X69828087Y-53318543D01*
X69833400Y-53317119D01*
X69833402Y-53317119D01*
X70043933Y-53260707D01*
X70043935Y-53260706D01*
X70049243Y-53259284D01*
X70054225Y-53256961D01*
X70251762Y-53164849D01*
X70251767Y-53164846D01*
X70256749Y-53162523D01*
X70392423Y-53067523D01*
X70439789Y-53034357D01*
X70439792Y-53034355D01*
X70444300Y-53031198D01*
X70606198Y-52869300D01*
X70625530Y-52841692D01*
X70672718Y-52774300D01*
X70737523Y-52681749D01*
X70779720Y-52591257D01*
X70831961Y-52479225D01*
X70831961Y-52479224D01*
X70834284Y-52474243D01*
X70840695Y-52450319D01*
X70892119Y-52258402D01*
X70892119Y-52258400D01*
X70893543Y-52253087D01*
X70913498Y-52025000D01*
X70893543Y-51796913D01*
X70892119Y-51791598D01*
X70835707Y-51581067D01*
X70835706Y-51581065D01*
X70834284Y-51575757D01*
X70831961Y-51570775D01*
X70739849Y-51373238D01*
X70739846Y-51373233D01*
X70737523Y-51368251D01*
X70658639Y-51255593D01*
X70609357Y-51185211D01*
X70609355Y-51185208D01*
X70606198Y-51180700D01*
X70444300Y-51018802D01*
X70439792Y-51015645D01*
X70439789Y-51015643D01*
X70361611Y-50960902D01*
X70256749Y-50887477D01*
X70251767Y-50885154D01*
X70251762Y-50885151D01*
X70054225Y-50793039D01*
X70054224Y-50793039D01*
X70049243Y-50790716D01*
X69918588Y-50755707D01*
X69857966Y-50718755D01*
X69826944Y-50654894D01*
X69835373Y-50584400D01*
X69880576Y-50529653D01*
X69951200Y-50508000D01*
X71438755Y-50508000D01*
X71506876Y-50528002D01*
X71553369Y-50581658D01*
X71563473Y-50651932D01*
X71533979Y-50716512D01*
X71514324Y-50734824D01*
X71471739Y-50766739D01*
X71384385Y-50883295D01*
X71333255Y-51019684D01*
X71326500Y-51081866D01*
X71326500Y-52778134D01*
X71333255Y-52840316D01*
X71384385Y-52976705D01*
X71471739Y-53093261D01*
X71588295Y-53180615D01*
X71724684Y-53231745D01*
X71786866Y-53238500D01*
X71875500Y-53238500D01*
X71943621Y-53258502D01*
X71990114Y-53312158D01*
X72001500Y-53364500D01*
X72001500Y-55278710D01*
X71987122Y-55335951D01*
X71985521Y-55338228D01*
X71982761Y-55345307D01*
X71927729Y-55486457D01*
X71923229Y-55497998D01*
X71922237Y-55505531D01*
X71922237Y-55505532D01*
X71908084Y-55613039D01*
X71900846Y-55668015D01*
X71910255Y-55753239D01*
X71917566Y-55819459D01*
X71919664Y-55838464D01*
X71922273Y-55845595D01*
X71922274Y-55845597D01*
X71928324Y-55862128D01*
X71978596Y-55999504D01*
X71982833Y-56005810D01*
X71982835Y-56005813D01*
X72027132Y-56071733D01*
X72074241Y-56141838D01*
X72201076Y-56257249D01*
X72351779Y-56339074D01*
X72517650Y-56382590D01*
X72605097Y-56383963D01*
X72681514Y-56385164D01*
X72681517Y-56385164D01*
X72689113Y-56385283D01*
X72696517Y-56383587D01*
X72696519Y-56383587D01*
X72759357Y-56369195D01*
X72856270Y-56346999D01*
X72957300Y-56296186D01*
X73008885Y-56270242D01*
X73078729Y-56257504D01*
X73144373Y-56284548D01*
X73184975Y-56342789D01*
X73191499Y-56382807D01*
X73191499Y-58180248D01*
X73171497Y-58248369D01*
X73117841Y-58294862D01*
X73047567Y-58304966D01*
X73032888Y-58301955D01*
X72868402Y-58257881D01*
X72868400Y-58257881D01*
X72863087Y-58256457D01*
X72635000Y-58236502D01*
X72406913Y-58256457D01*
X72401600Y-58257881D01*
X72401598Y-58257881D01*
X72191067Y-58314293D01*
X72191065Y-58314294D01*
X72185757Y-58315716D01*
X72180776Y-58318039D01*
X72180775Y-58318039D01*
X71983238Y-58410151D01*
X71983233Y-58410154D01*
X71978251Y-58412477D01*
X71880256Y-58481094D01*
X71795211Y-58540643D01*
X71795208Y-58540645D01*
X71790700Y-58543802D01*
X71628802Y-58705700D01*
X71625645Y-58710208D01*
X71625643Y-58710211D01*
X71575886Y-58781271D01*
X71497477Y-58893251D01*
X71495154Y-58898233D01*
X71495151Y-58898238D01*
X71415824Y-59068357D01*
X71400716Y-59100757D01*
X71399294Y-59106065D01*
X71399293Y-59106067D01*
X71342881Y-59316598D01*
X71341457Y-59321913D01*
X71321502Y-59550000D01*
X71341457Y-59778087D01*
X71342881Y-59783400D01*
X71342881Y-59783402D01*
X71370293Y-59885702D01*
X71400716Y-59999243D01*
X71403039Y-60004224D01*
X71403039Y-60004225D01*
X71495151Y-60201762D01*
X71495154Y-60201767D01*
X71497477Y-60206749D01*
X71500634Y-60211257D01*
X71624559Y-60388240D01*
X71628802Y-60394300D01*
X71790700Y-60556198D01*
X71795208Y-60559355D01*
X71795211Y-60559357D01*
X71837916Y-60589259D01*
X71978251Y-60687523D01*
X71983233Y-60689846D01*
X71983238Y-60689849D01*
X72176349Y-60779897D01*
X72185757Y-60784284D01*
X72191065Y-60785706D01*
X72191067Y-60785707D01*
X72401598Y-60842119D01*
X72401600Y-60842119D01*
X72406913Y-60843543D01*
X72635000Y-60863498D01*
X72863087Y-60843543D01*
X72868400Y-60842119D01*
X72868402Y-60842119D01*
X73032888Y-60798045D01*
X73103864Y-60799735D01*
X73162660Y-60839529D01*
X73190608Y-60904793D01*
X73191499Y-60919752D01*
X73191499Y-61565751D01*
X73171497Y-61633872D01*
X73117841Y-61680365D01*
X73054517Y-61691271D01*
X73005486Y-61686981D01*
X73005475Y-61686981D01*
X73000000Y-61686502D01*
X72771913Y-61706457D01*
X72766600Y-61707881D01*
X72766598Y-61707881D01*
X72556067Y-61764293D01*
X72556065Y-61764294D01*
X72550757Y-61765716D01*
X72545776Y-61768039D01*
X72545775Y-61768039D01*
X72348238Y-61860151D01*
X72348233Y-61860154D01*
X72343251Y-61862477D01*
X72253014Y-61925662D01*
X72160211Y-61990643D01*
X72160208Y-61990645D01*
X72155700Y-61993802D01*
X71993802Y-62155700D01*
X71990645Y-62160208D01*
X71990643Y-62160211D01*
X71950011Y-62218240D01*
X71862477Y-62343251D01*
X71860154Y-62348233D01*
X71860151Y-62348238D01*
X71791525Y-62495409D01*
X71765716Y-62550757D01*
X71764294Y-62556065D01*
X71764293Y-62556067D01*
X71734065Y-62668879D01*
X71706457Y-62771913D01*
X71686502Y-63000000D01*
X71706457Y-63228087D01*
X71707881Y-63233400D01*
X71707881Y-63233402D01*
X71762235Y-63436250D01*
X71765716Y-63449243D01*
X71768039Y-63454224D01*
X71768039Y-63454225D01*
X71860151Y-63651762D01*
X71860154Y-63651767D01*
X71862477Y-63656749D01*
X71926714Y-63748489D01*
X71987312Y-63835031D01*
X71993802Y-63844300D01*
X72155700Y-64006198D01*
X72160208Y-64009355D01*
X72160211Y-64009357D01*
X72199174Y-64036639D01*
X72343251Y-64137523D01*
X72348233Y-64139846D01*
X72348238Y-64139849D01*
X72535520Y-64227179D01*
X72550757Y-64234284D01*
X72556065Y-64235706D01*
X72556067Y-64235707D01*
X72766598Y-64292119D01*
X72766600Y-64292119D01*
X72771913Y-64293543D01*
X73000000Y-64313498D01*
X73228087Y-64293543D01*
X73233400Y-64292119D01*
X73233402Y-64292119D01*
X73443933Y-64235707D01*
X73443935Y-64235706D01*
X73449243Y-64234284D01*
X73464480Y-64227179D01*
X73651762Y-64139849D01*
X73651767Y-64139846D01*
X73656749Y-64137523D01*
X73800826Y-64036639D01*
X73839789Y-64009357D01*
X73839792Y-64009355D01*
X73844300Y-64006198D01*
X74006198Y-63844300D01*
X74012689Y-63835031D01*
X74073286Y-63748489D01*
X74137523Y-63656749D01*
X74139846Y-63651767D01*
X74139849Y-63651762D01*
X74231961Y-63454225D01*
X74231961Y-63454224D01*
X74234284Y-63449243D01*
X74237766Y-63436250D01*
X74292119Y-63233402D01*
X74292119Y-63233400D01*
X74293543Y-63228087D01*
X74313498Y-63000000D01*
X74293543Y-62771913D01*
X74266819Y-62672177D01*
X74268509Y-62601200D01*
X74288564Y-62562862D01*
X74321948Y-62519355D01*
X74321949Y-62519353D01*
X74331522Y-62506877D01*
X74331523Y-62506876D01*
X74336710Y-62494355D01*
X74389677Y-62366480D01*
X74392837Y-62358851D01*
X74408499Y-62239886D01*
X74408499Y-62239879D01*
X74413749Y-62200001D01*
X74409577Y-62168308D01*
X74408499Y-62151865D01*
X74408499Y-60833573D01*
X74428501Y-60765452D01*
X74482157Y-60718959D01*
X74552431Y-60708855D01*
X74587749Y-60719378D01*
X74720947Y-60781490D01*
X74731239Y-60785236D01*
X74903503Y-60831394D01*
X74917599Y-60831058D01*
X74921000Y-60823116D01*
X74921000Y-58282033D01*
X74917027Y-58268502D01*
X74908478Y-58267273D01*
X74731239Y-58314764D01*
X74720947Y-58318510D01*
X74587749Y-58380622D01*
X74517558Y-58391283D01*
X74452745Y-58362303D01*
X74413888Y-58302884D01*
X74408499Y-58266427D01*
X74408499Y-55630073D01*
X74423557Y-55571428D01*
X74425423Y-55568831D01*
X74489384Y-55409721D01*
X74498739Y-55343990D01*
X74512965Y-55244032D01*
X74512965Y-55244028D01*
X74513546Y-55239948D01*
X74513703Y-55225001D01*
X74506027Y-55161571D01*
X74494014Y-55062300D01*
X74494013Y-55062297D01*
X74493101Y-55054759D01*
X74490417Y-55047654D01*
X74435170Y-54901448D01*
X74432486Y-54894345D01*
X74388351Y-54830128D01*
X74339658Y-54759279D01*
X74339657Y-54759277D01*
X74335356Y-54753020D01*
X74329685Y-54747967D01*
X74212992Y-54643997D01*
X74212989Y-54643995D01*
X74207320Y-54638944D01*
X74199324Y-54634710D01*
X74062480Y-54562255D01*
X74062481Y-54562255D01*
X74055768Y-54558701D01*
X74038195Y-54554287D01*
X73896821Y-54518776D01*
X73896817Y-54518776D01*
X73889450Y-54516925D01*
X73881851Y-54516885D01*
X73881849Y-54516885D01*
X73810393Y-54516511D01*
X73717968Y-54516027D01*
X73710588Y-54517799D01*
X73710586Y-54517799D01*
X73558601Y-54554287D01*
X73558597Y-54554288D01*
X73551222Y-54556059D01*
X73544480Y-54559539D01*
X73544474Y-54559541D01*
X73452289Y-54607121D01*
X73382582Y-54620590D01*
X73316659Y-54594234D01*
X73275449Y-54536422D01*
X73268500Y-54495155D01*
X73268500Y-53364500D01*
X73288502Y-53296379D01*
X73342158Y-53249886D01*
X73394500Y-53238500D01*
X73483134Y-53238500D01*
X73545316Y-53231745D01*
X73681705Y-53180615D01*
X73798261Y-53093261D01*
X73885615Y-52976705D01*
X73936745Y-52840316D01*
X73937917Y-52829526D01*
X73938803Y-52827394D01*
X73939425Y-52824778D01*
X73939848Y-52824879D01*
X73965155Y-52763965D01*
X74023517Y-52723537D01*
X74094471Y-52721078D01*
X74155490Y-52757371D01*
X74162489Y-52766031D01*
X74165643Y-52769789D01*
X74168802Y-52774300D01*
X74330700Y-52936198D01*
X74335208Y-52939355D01*
X74335211Y-52939357D01*
X74382069Y-52972167D01*
X74518251Y-53067523D01*
X74523233Y-53069846D01*
X74523238Y-53069849D01*
X74671067Y-53138782D01*
X74725757Y-53164284D01*
X74731065Y-53165706D01*
X74731067Y-53165707D01*
X74941598Y-53222119D01*
X74941600Y-53222119D01*
X74946913Y-53223543D01*
X75175000Y-53243498D01*
X75403087Y-53223543D01*
X75408398Y-53222120D01*
X75408409Y-53222118D01*
X75466541Y-53206541D01*
X75537517Y-53208230D01*
X75588248Y-53239152D01*
X75629106Y-53280010D01*
X75663132Y-53342322D01*
X75666011Y-53369105D01*
X75666011Y-58163218D01*
X75646009Y-58231339D01*
X75592353Y-58277832D01*
X75522079Y-58287936D01*
X75507400Y-58284925D01*
X75446497Y-58268606D01*
X75432401Y-58268942D01*
X75429000Y-58276884D01*
X75429000Y-60817967D01*
X75432973Y-60831498D01*
X75441522Y-60832727D01*
X75507400Y-60815075D01*
X75578377Y-60816765D01*
X75637172Y-60856559D01*
X75665120Y-60921824D01*
X75666011Y-60936782D01*
X75666011Y-65154173D01*
X75646009Y-65222294D01*
X75629106Y-65243269D01*
X75241141Y-65631233D01*
X74882253Y-65990121D01*
X74873974Y-65997655D01*
X74867493Y-66001768D01*
X74847591Y-66022962D01*
X74820868Y-66051419D01*
X74818113Y-66054261D01*
X74798376Y-66073998D01*
X74795896Y-66077195D01*
X74788193Y-66086215D01*
X74757925Y-66118447D01*
X74754106Y-66125393D01*
X74754104Y-66125396D01*
X74748163Y-66136202D01*
X74737312Y-66152721D01*
X74724897Y-66168727D01*
X74721752Y-66175996D01*
X74721749Y-66176000D01*
X74707337Y-66209305D01*
X74702120Y-66219955D01*
X74680816Y-66258708D01*
X74676694Y-66274764D01*
X74675778Y-66278330D01*
X74669374Y-66297034D01*
X74661330Y-66315623D01*
X74660091Y-66323446D01*
X74660088Y-66323456D01*
X74654412Y-66359292D01*
X74652006Y-66370912D01*
X74643787Y-66402924D01*
X74641011Y-66413738D01*
X74641011Y-66433992D01*
X74639460Y-66453702D01*
X74636291Y-66473711D01*
X74637037Y-66481603D01*
X74640452Y-66517729D01*
X74641011Y-66529587D01*
X74641011Y-70846755D01*
X74621009Y-70914876D01*
X74567353Y-70961369D01*
X74497079Y-70971473D01*
X74432499Y-70941979D01*
X74394115Y-70882253D01*
X74389490Y-70857737D01*
X74389022Y-70852393D01*
X74389022Y-70852391D01*
X74388543Y-70846913D01*
X74382697Y-70825096D01*
X74330707Y-70631067D01*
X74330706Y-70631065D01*
X74329284Y-70625757D01*
X74281479Y-70523238D01*
X74234849Y-70423238D01*
X74234846Y-70423233D01*
X74232523Y-70418251D01*
X74101198Y-70230700D01*
X73939300Y-70068802D01*
X73934792Y-70065645D01*
X73934789Y-70065643D01*
X73845842Y-70003362D01*
X73751749Y-69937477D01*
X73746767Y-69935154D01*
X73746762Y-69935151D01*
X73549225Y-69843039D01*
X73549224Y-69843039D01*
X73544243Y-69840716D01*
X73538935Y-69839294D01*
X73538933Y-69839293D01*
X73328402Y-69782881D01*
X73328400Y-69782881D01*
X73323087Y-69781457D01*
X73095000Y-69761502D01*
X72866913Y-69781457D01*
X72861600Y-69782881D01*
X72861598Y-69782881D01*
X72651067Y-69839293D01*
X72651065Y-69839294D01*
X72645757Y-69840716D01*
X72640776Y-69843039D01*
X72640775Y-69843039D01*
X72443238Y-69935151D01*
X72443233Y-69935154D01*
X72438251Y-69937477D01*
X72344158Y-70003362D01*
X72255211Y-70065643D01*
X72255208Y-70065645D01*
X72250700Y-70068802D01*
X72088802Y-70230700D01*
X71957477Y-70418251D01*
X71955154Y-70423233D01*
X71955151Y-70423238D01*
X71925798Y-70486187D01*
X71878881Y-70539472D01*
X71810604Y-70558933D01*
X71742644Y-70538391D01*
X71708390Y-70505208D01*
X71589357Y-70335211D01*
X71589355Y-70335208D01*
X71586198Y-70330700D01*
X71424300Y-70168802D01*
X71419792Y-70165645D01*
X71419789Y-70165643D01*
X71267229Y-70058819D01*
X71222901Y-70003362D01*
X71213500Y-69955606D01*
X71213500Y-69465977D01*
X71226753Y-69414364D01*
X71225424Y-69413830D01*
X71228997Y-69404942D01*
X71289385Y-69254720D01*
X71291010Y-69243302D01*
X71312966Y-69089031D01*
X71312966Y-69089027D01*
X71313547Y-69084947D01*
X71313651Y-69075076D01*
X71313661Y-69074133D01*
X71313661Y-69074127D01*
X71313704Y-69070000D01*
X71293102Y-68899758D01*
X71287494Y-68884915D01*
X71235171Y-68746447D01*
X71232487Y-68739344D01*
X71190768Y-68678642D01*
X71139659Y-68604278D01*
X71139658Y-68604276D01*
X71135357Y-68598019D01*
X71129686Y-68592966D01*
X71012993Y-68488996D01*
X71012990Y-68488994D01*
X71007321Y-68483943D01*
X70999325Y-68479709D01*
X70878735Y-68415860D01*
X70855769Y-68403700D01*
X70838196Y-68399286D01*
X70696822Y-68363775D01*
X70696818Y-68363775D01*
X70689451Y-68361924D01*
X70681852Y-68361884D01*
X70681850Y-68361884D01*
X70610394Y-68361510D01*
X70517969Y-68361026D01*
X70510589Y-68362798D01*
X70510587Y-68362798D01*
X70358602Y-68399286D01*
X70358598Y-68399287D01*
X70351223Y-68401058D01*
X70198839Y-68479709D01*
X70069615Y-68592439D01*
X69971010Y-68732739D01*
X69944152Y-68801625D01*
X69911679Y-68884915D01*
X69908718Y-68892509D01*
X69907726Y-68900042D01*
X69907726Y-68900043D01*
X69896239Y-68987299D01*
X69886335Y-69062526D01*
X69893737Y-69129569D01*
X69897643Y-69164947D01*
X69905153Y-69232975D01*
X69907762Y-69240106D01*
X69907763Y-69240108D01*
X69938826Y-69324992D01*
X69946500Y-69368293D01*
X69946500Y-69955606D01*
X69926498Y-70023727D01*
X69892771Y-70058819D01*
X69740211Y-70165643D01*
X69740208Y-70165645D01*
X69735700Y-70168802D01*
X69573802Y-70330700D01*
X69570645Y-70335208D01*
X69570643Y-70335211D01*
X69537578Y-70382433D01*
X69442477Y-70518251D01*
X69440154Y-70523233D01*
X69440151Y-70523238D01*
X69351575Y-70713192D01*
X69345716Y-70725757D01*
X69344294Y-70731065D01*
X69344293Y-70731067D01*
X69299825Y-70897022D01*
X69286457Y-70946913D01*
X69266502Y-71175000D01*
X69286457Y-71403087D01*
X69287881Y-71408400D01*
X69287881Y-71408402D01*
X69342722Y-71613068D01*
X69345716Y-71624243D01*
X69348039Y-71629224D01*
X69348039Y-71629225D01*
X69440151Y-71826762D01*
X69440154Y-71826767D01*
X69442477Y-71831749D01*
X69573802Y-72019300D01*
X69735700Y-72181198D01*
X69740208Y-72184355D01*
X69740211Y-72184357D01*
X69783758Y-72214849D01*
X69923251Y-72312523D01*
X69928233Y-72314846D01*
X69928238Y-72314849D01*
X70086181Y-72388498D01*
X70130757Y-72409284D01*
X70136065Y-72410706D01*
X70136067Y-72410707D01*
X70346598Y-72467119D01*
X70346600Y-72467119D01*
X70351913Y-72468543D01*
X70580000Y-72488498D01*
X70808087Y-72468543D01*
X70813400Y-72467119D01*
X70813402Y-72467119D01*
X71023933Y-72410707D01*
X71023935Y-72410706D01*
X71029243Y-72409284D01*
X71073819Y-72388498D01*
X71231762Y-72314849D01*
X71231767Y-72314846D01*
X71236749Y-72312523D01*
X71376242Y-72214849D01*
X71419789Y-72184357D01*
X71419792Y-72184355D01*
X71424300Y-72181198D01*
X71586198Y-72019300D01*
X71717523Y-71831749D01*
X71719846Y-71826767D01*
X71719849Y-71826762D01*
X71749202Y-71763813D01*
X71796119Y-71710528D01*
X71864396Y-71691067D01*
X71932356Y-71711609D01*
X71966609Y-71744791D01*
X71974990Y-71756760D01*
X72064641Y-71884794D01*
X72088802Y-71919300D01*
X72250700Y-72081198D01*
X72255208Y-72084355D01*
X72255211Y-72084357D01*
X72286001Y-72105916D01*
X72438251Y-72212523D01*
X72443233Y-72214846D01*
X72443238Y-72214849D01*
X72626143Y-72300138D01*
X72645757Y-72309284D01*
X72651065Y-72310706D01*
X72651067Y-72310707D01*
X72861598Y-72367119D01*
X72861600Y-72367119D01*
X72866913Y-72368543D01*
X73095000Y-72388498D01*
X73323087Y-72368543D01*
X73328400Y-72367119D01*
X73328402Y-72367119D01*
X73538933Y-72310707D01*
X73538935Y-72310706D01*
X73544243Y-72309284D01*
X73563857Y-72300138D01*
X73746762Y-72214849D01*
X73746767Y-72214846D01*
X73751749Y-72212523D01*
X73903999Y-72105916D01*
X73934789Y-72084357D01*
X73934792Y-72084355D01*
X73939300Y-72081198D01*
X74101198Y-71919300D01*
X74125360Y-71884794D01*
X74159098Y-71836611D01*
X74232523Y-71731749D01*
X74234846Y-71726767D01*
X74234849Y-71726762D01*
X74326961Y-71529225D01*
X74326961Y-71529224D01*
X74329284Y-71524243D01*
X74330735Y-71518830D01*
X74387119Y-71308402D01*
X74387119Y-71308400D01*
X74388543Y-71303087D01*
X74389490Y-71292263D01*
X74415354Y-71226145D01*
X74472857Y-71184505D01*
X74543745Y-71180565D01*
X74605509Y-71215575D01*
X74638541Y-71278419D01*
X74641011Y-71303245D01*
X74641011Y-71925123D01*
X74632404Y-71970893D01*
X74589398Y-72081198D01*
X74583229Y-72097020D01*
X74582237Y-72104553D01*
X74582237Y-72104554D01*
X74567717Y-72214849D01*
X74560846Y-72267037D01*
X74565868Y-72312523D01*
X74576708Y-72410707D01*
X74579664Y-72437486D01*
X74582273Y-72444617D01*
X74582274Y-72444619D01*
X74590199Y-72466275D01*
X74638596Y-72598526D01*
X74734241Y-72740860D01*
X74861076Y-72856271D01*
X75011779Y-72938096D01*
X75177650Y-72981612D01*
X75265097Y-72982985D01*
X75341514Y-72984186D01*
X75341517Y-72984186D01*
X75349113Y-72984305D01*
X75356517Y-72982609D01*
X75356519Y-72982609D01*
X75419357Y-72968217D01*
X75516270Y-72946021D01*
X75669469Y-72868970D01*
X75675240Y-72864041D01*
X75675243Y-72864039D01*
X75794089Y-72762534D01*
X75799866Y-72757600D01*
X75899935Y-72618341D01*
X75963896Y-72459231D01*
X75970802Y-72410707D01*
X75987477Y-72293542D01*
X75987477Y-72293538D01*
X75988058Y-72289458D01*
X75988215Y-72274511D01*
X75980995Y-72214849D01*
X75968526Y-72111810D01*
X75968525Y-72111807D01*
X75967613Y-72104269D01*
X75958896Y-72081198D01*
X75916145Y-71968062D01*
X75908011Y-71923524D01*
X75908011Y-68108981D01*
X75928013Y-68040860D01*
X75981669Y-67994367D01*
X76051943Y-67984263D01*
X76097581Y-68000193D01*
X76134860Y-68021977D01*
X76134863Y-68021979D01*
X76139322Y-68024584D01*
X76144147Y-68026426D01*
X76144148Y-68026427D01*
X76176463Y-68038767D01*
X76355694Y-68107209D01*
X76360760Y-68108240D01*
X76360761Y-68108240D01*
X76381631Y-68112486D01*
X76582656Y-68153385D01*
X76712089Y-68158131D01*
X76808949Y-68161683D01*
X76808953Y-68161683D01*
X76814113Y-68161872D01*
X76819233Y-68161216D01*
X76819235Y-68161216D01*
X76893166Y-68151745D01*
X77043847Y-68132442D01*
X77048795Y-68130957D01*
X77048802Y-68130956D01*
X77260747Y-68067369D01*
X77265690Y-68065886D01*
X77327481Y-68035615D01*
X77469049Y-67966262D01*
X77469052Y-67966260D01*
X77473684Y-67963991D01*
X77662243Y-67829494D01*
X77707309Y-67784585D01*
X77769681Y-67750669D01*
X77840487Y-67755857D01*
X77897249Y-67798503D01*
X77914231Y-67829607D01*
X77923075Y-67853197D01*
X77939385Y-67896705D01*
X78026739Y-68013261D01*
X78143295Y-68100615D01*
X78279684Y-68151745D01*
X78341866Y-68158500D01*
X78555500Y-68158500D01*
X78623621Y-68178502D01*
X78670114Y-68232158D01*
X78681500Y-68284500D01*
X78681500Y-70688457D01*
X78669291Y-70737069D01*
X78671010Y-70737739D01*
X78612617Y-70887509D01*
X78608718Y-70897509D01*
X78607726Y-70905042D01*
X78607726Y-70905043D01*
X78587652Y-71057526D01*
X78586335Y-71067526D01*
X78591277Y-71112289D01*
X78603721Y-71225000D01*
X78605153Y-71237975D01*
X78607762Y-71245106D01*
X78607763Y-71245108D01*
X78615688Y-71266764D01*
X78664085Y-71399015D01*
X78668322Y-71405321D01*
X78668324Y-71405324D01*
X78700420Y-71453087D01*
X78759730Y-71541349D01*
X78823147Y-71599054D01*
X78869629Y-71641349D01*
X78886565Y-71656760D01*
X79037268Y-71738585D01*
X79203139Y-71782101D01*
X79290586Y-71783474D01*
X79367003Y-71784675D01*
X79367006Y-71784675D01*
X79374602Y-71784794D01*
X79382006Y-71783098D01*
X79382008Y-71783098D01*
X79466210Y-71763813D01*
X79541759Y-71746510D01*
X79694958Y-71669459D01*
X79700729Y-71664530D01*
X79700732Y-71664528D01*
X79819578Y-71563023D01*
X79825355Y-71558089D01*
X79925424Y-71418830D01*
X79989385Y-71259720D01*
X79994503Y-71223756D01*
X80012966Y-71094031D01*
X80012966Y-71094027D01*
X80013547Y-71089947D01*
X80013621Y-71082857D01*
X80013661Y-71079133D01*
X80013661Y-71079127D01*
X80013704Y-71075000D01*
X80005511Y-71007299D01*
X79994015Y-70912299D01*
X79994014Y-70912296D01*
X79993102Y-70904758D01*
X79989324Y-70894758D01*
X79969789Y-70843060D01*
X79932487Y-70744344D01*
X79928188Y-70738090D01*
X79928185Y-70738083D01*
X79920661Y-70727136D01*
X79898500Y-70655768D01*
X79898500Y-68284500D01*
X79918502Y-68216379D01*
X79972158Y-68169886D01*
X80024500Y-68158500D01*
X80238134Y-68158500D01*
X80300316Y-68151745D01*
X80436705Y-68100615D01*
X80544447Y-68019867D01*
X80610952Y-67995019D01*
X80680334Y-68010072D01*
X80730565Y-68060246D01*
X80746011Y-68120693D01*
X80746011Y-69120744D01*
X80745484Y-69131927D01*
X80743809Y-69139420D01*
X80744058Y-69147346D01*
X80744058Y-69147347D01*
X80745949Y-69207497D01*
X80746011Y-69211456D01*
X80746011Y-69239367D01*
X80746508Y-69243301D01*
X80746508Y-69243302D01*
X80746516Y-69243367D01*
X80747449Y-69255204D01*
X80748838Y-69299400D01*
X80753462Y-69315316D01*
X80754489Y-69318850D01*
X80758498Y-69338211D01*
X80761037Y-69358308D01*
X80763956Y-69365679D01*
X80763956Y-69365681D01*
X80777315Y-69399423D01*
X80781160Y-69410653D01*
X80793493Y-69453104D01*
X80797526Y-69459923D01*
X80797528Y-69459928D01*
X80803804Y-69470539D01*
X80812499Y-69488287D01*
X80819959Y-69507128D01*
X80824621Y-69513544D01*
X80824621Y-69513545D01*
X80845947Y-69542898D01*
X80852463Y-69552818D01*
X80874969Y-69590873D01*
X80889290Y-69605194D01*
X80902130Y-69620227D01*
X80914039Y-69636618D01*
X80947776Y-69664528D01*
X80948116Y-69664809D01*
X80956895Y-69672799D01*
X81945848Y-70661752D01*
X81979874Y-70724064D01*
X81978459Y-70783459D01*
X81962882Y-70841591D01*
X81962881Y-70841598D01*
X81961457Y-70846913D01*
X81941502Y-71075000D01*
X81961457Y-71303087D01*
X81962881Y-71308400D01*
X81962881Y-71308402D01*
X82019266Y-71518830D01*
X82020716Y-71524243D01*
X82023039Y-71529224D01*
X82023039Y-71529225D01*
X82115151Y-71726762D01*
X82115154Y-71726767D01*
X82117477Y-71731749D01*
X82190902Y-71836611D01*
X82224641Y-71884794D01*
X82248802Y-71919300D01*
X82410700Y-72081198D01*
X82415208Y-72084355D01*
X82415211Y-72084357D01*
X82446001Y-72105916D01*
X82598251Y-72212523D01*
X82603233Y-72214846D01*
X82603238Y-72214849D01*
X82786143Y-72300138D01*
X82805757Y-72309284D01*
X82811065Y-72310706D01*
X82811067Y-72310707D01*
X83021598Y-72367119D01*
X83021600Y-72367119D01*
X83026913Y-72368543D01*
X83255000Y-72388498D01*
X83483087Y-72368543D01*
X83488400Y-72367119D01*
X83488402Y-72367119D01*
X83698933Y-72310707D01*
X83698935Y-72310706D01*
X83704243Y-72309284D01*
X83723857Y-72300138D01*
X83906762Y-72214849D01*
X83906767Y-72214846D01*
X83911749Y-72212523D01*
X84063999Y-72105916D01*
X84094789Y-72084357D01*
X84094792Y-72084355D01*
X84099300Y-72081198D01*
X84261198Y-71919300D01*
X84285360Y-71884794D01*
X84319098Y-71836611D01*
X84392523Y-71731749D01*
X84394846Y-71726767D01*
X84394849Y-71726762D01*
X84486961Y-71529225D01*
X84486961Y-71529224D01*
X84489284Y-71524243D01*
X84490735Y-71518830D01*
X84547119Y-71308402D01*
X84547119Y-71308400D01*
X84548543Y-71303087D01*
X84568498Y-71075000D01*
X84548543Y-70846913D01*
X84542697Y-70825096D01*
X84490707Y-70631067D01*
X84490706Y-70631065D01*
X84489284Y-70625757D01*
X84441479Y-70523238D01*
X84394849Y-70423238D01*
X84394846Y-70423233D01*
X84392523Y-70418251D01*
X84261198Y-70230700D01*
X84099300Y-70068802D01*
X84094792Y-70065645D01*
X84094789Y-70065643D01*
X84005842Y-70003362D01*
X83988790Y-69991422D01*
X83944462Y-69935965D01*
X83937153Y-69865346D01*
X83969184Y-69801985D01*
X84030385Y-69766000D01*
X84093035Y-69766333D01*
X84145453Y-69780085D01*
X84153139Y-69782101D01*
X84240586Y-69783474D01*
X84317003Y-69784675D01*
X84317006Y-69784675D01*
X84324602Y-69784794D01*
X84332006Y-69783098D01*
X84332008Y-69783098D01*
X84424209Y-69761981D01*
X84491759Y-69746510D01*
X84644958Y-69669459D01*
X84650729Y-69664530D01*
X84650732Y-69664528D01*
X84769578Y-69563023D01*
X84775355Y-69558089D01*
X84868281Y-69428771D01*
X84870992Y-69424998D01*
X84870993Y-69424997D01*
X84875424Y-69418830D01*
X84939385Y-69259720D01*
X84954412Y-69154133D01*
X84962966Y-69094031D01*
X84962966Y-69094027D01*
X84963547Y-69089947D01*
X84963704Y-69075000D01*
X84951483Y-68974010D01*
X84944015Y-68912301D01*
X84944015Y-68912300D01*
X84943102Y-68904758D01*
X84926145Y-68859882D01*
X84918011Y-68815345D01*
X84918011Y-64189732D01*
X84938013Y-64121611D01*
X84991669Y-64075118D01*
X85061943Y-64065014D01*
X85116282Y-64086519D01*
X85183993Y-64133931D01*
X85193489Y-64139414D01*
X85390947Y-64231490D01*
X85401239Y-64235236D01*
X85611688Y-64291625D01*
X85622481Y-64293528D01*
X85839525Y-64312517D01*
X85850475Y-64312517D01*
X86067519Y-64293528D01*
X86078312Y-64291625D01*
X86288761Y-64235236D01*
X86299053Y-64231490D01*
X86496511Y-64139414D01*
X86506006Y-64133931D01*
X86558048Y-64097491D01*
X86566424Y-64087012D01*
X86559356Y-64073566D01*
X85574885Y-63089095D01*
X85540859Y-63026783D01*
X85545924Y-62955968D01*
X85574885Y-62910905D01*
X86560077Y-61925713D01*
X86566507Y-61913938D01*
X86557211Y-61901923D01*
X86506006Y-61866069D01*
X86496511Y-61860586D01*
X86299053Y-61768510D01*
X86288761Y-61764764D01*
X86078313Y-61708375D01*
X86064181Y-61705883D01*
X86000569Y-61674356D01*
X85964099Y-61613442D01*
X85966352Y-61542481D01*
X85969154Y-61534801D01*
X86006551Y-61441771D01*
X86006552Y-61441768D01*
X86009385Y-61434720D01*
X86012434Y-61413297D01*
X86032966Y-61269031D01*
X86032966Y-61269027D01*
X86033547Y-61264947D01*
X86033704Y-61250000D01*
X86028173Y-61204292D01*
X86014015Y-61087299D01*
X86014014Y-61087296D01*
X86013102Y-61079758D01*
X86009296Y-61069684D01*
X85961634Y-60943551D01*
X85953500Y-60899013D01*
X85953500Y-60779897D01*
X85973502Y-60711776D01*
X86007229Y-60676684D01*
X86174789Y-60559357D01*
X86174792Y-60559355D01*
X86179300Y-60556198D01*
X86341198Y-60394300D01*
X86345442Y-60388240D01*
X86469366Y-60211257D01*
X86472523Y-60206749D01*
X86474846Y-60201767D01*
X86474849Y-60201762D01*
X86490805Y-60167543D01*
X86537722Y-60114258D01*
X86605999Y-60094797D01*
X86673959Y-60115339D01*
X86719195Y-60167543D01*
X86735151Y-60201762D01*
X86735154Y-60201767D01*
X86737477Y-60206749D01*
X86740634Y-60211257D01*
X86864559Y-60388240D01*
X86868802Y-60394300D01*
X87030700Y-60556198D01*
X87035208Y-60559355D01*
X87035211Y-60559357D01*
X87187771Y-60666181D01*
X87232099Y-60721638D01*
X87241500Y-60769394D01*
X87241500Y-62331463D01*
X87221498Y-62399584D01*
X87167842Y-62446077D01*
X87097568Y-62456181D01*
X87032988Y-62426687D01*
X87001305Y-62384713D01*
X86984414Y-62348489D01*
X86978931Y-62338994D01*
X86942491Y-62286952D01*
X86932012Y-62278576D01*
X86918566Y-62285644D01*
X86217022Y-62987188D01*
X86209408Y-63001132D01*
X86209539Y-63002965D01*
X86213790Y-63009580D01*
X86919287Y-63715077D01*
X86931062Y-63721507D01*
X86943077Y-63712211D01*
X86978931Y-63661006D01*
X86984414Y-63651511D01*
X87001305Y-63615287D01*
X87048222Y-63562002D01*
X87116500Y-63542541D01*
X87184459Y-63563083D01*
X87230525Y-63617106D01*
X87241500Y-63668537D01*
X87241500Y-69969611D01*
X87221498Y-70037732D01*
X87187772Y-70072823D01*
X87135843Y-70109184D01*
X87055211Y-70165643D01*
X87055208Y-70165645D01*
X87050700Y-70168802D01*
X86888802Y-70330700D01*
X86885645Y-70335208D01*
X86885643Y-70335211D01*
X86852578Y-70382433D01*
X86757477Y-70518251D01*
X86755154Y-70523233D01*
X86755151Y-70523238D01*
X86666575Y-70713192D01*
X86660716Y-70725757D01*
X86659294Y-70731065D01*
X86659293Y-70731067D01*
X86614825Y-70897022D01*
X86601457Y-70946913D01*
X86581502Y-71175000D01*
X86601457Y-71403087D01*
X86602881Y-71408400D01*
X86602881Y-71408402D01*
X86657722Y-71613068D01*
X86660716Y-71624243D01*
X86663039Y-71629224D01*
X86663039Y-71629225D01*
X86755151Y-71826762D01*
X86755154Y-71826767D01*
X86757477Y-71831749D01*
X86888802Y-72019300D01*
X87050700Y-72181198D01*
X87055208Y-72184355D01*
X87055211Y-72184357D01*
X87098758Y-72214849D01*
X87238251Y-72312523D01*
X87243233Y-72314846D01*
X87243238Y-72314849D01*
X87401181Y-72388498D01*
X87445757Y-72409284D01*
X87451065Y-72410706D01*
X87451067Y-72410707D01*
X87661598Y-72467119D01*
X87661600Y-72467119D01*
X87666913Y-72468543D01*
X87895000Y-72488498D01*
X88123087Y-72468543D01*
X88128400Y-72467119D01*
X88128402Y-72467119D01*
X88338933Y-72410707D01*
X88338935Y-72410706D01*
X88344243Y-72409284D01*
X88388819Y-72388498D01*
X88546762Y-72314849D01*
X88546767Y-72314846D01*
X88551749Y-72312523D01*
X88691242Y-72214849D01*
X88734789Y-72184357D01*
X88734792Y-72184355D01*
X88739300Y-72181198D01*
X88901198Y-72019300D01*
X89032523Y-71831749D01*
X89034846Y-71826767D01*
X89034849Y-71826762D01*
X89126961Y-71629225D01*
X89126961Y-71629224D01*
X89129284Y-71624243D01*
X89132279Y-71613068D01*
X89187119Y-71408402D01*
X89187119Y-71408400D01*
X89188543Y-71403087D01*
X89208498Y-71175000D01*
X89188543Y-70946913D01*
X89175175Y-70897022D01*
X89130707Y-70731067D01*
X89130706Y-70731065D01*
X89129284Y-70725757D01*
X89123425Y-70713192D01*
X89034849Y-70523238D01*
X89034846Y-70523233D01*
X89032523Y-70518251D01*
X88937422Y-70382433D01*
X88904357Y-70335211D01*
X88904355Y-70335208D01*
X88901198Y-70330700D01*
X88739300Y-70168802D01*
X88734792Y-70165645D01*
X88734789Y-70165643D01*
X88562229Y-70044815D01*
X88517901Y-69989358D01*
X88508500Y-69941602D01*
X88508500Y-67698134D01*
X90101500Y-67698134D01*
X90108255Y-67760316D01*
X90159385Y-67896705D01*
X90246739Y-68013261D01*
X90363295Y-68100615D01*
X90499684Y-68151745D01*
X90561866Y-68158500D01*
X90775500Y-68158500D01*
X90843621Y-68178502D01*
X90890114Y-68232158D01*
X90901500Y-68284500D01*
X90901500Y-70659808D01*
X90886543Y-70719351D01*
X90885377Y-70721525D01*
X90881010Y-70727739D01*
X90860218Y-70781067D01*
X90830326Y-70857737D01*
X90818718Y-70887509D01*
X90817726Y-70895042D01*
X90817726Y-70895043D01*
X90797746Y-71046812D01*
X90796335Y-71057526D01*
X90802381Y-71112289D01*
X90814170Y-71219069D01*
X90815153Y-71227975D01*
X90817762Y-71235106D01*
X90817763Y-71235108D01*
X90824019Y-71252202D01*
X90874085Y-71389015D01*
X90878322Y-71395321D01*
X90878324Y-71395324D01*
X90913457Y-71447607D01*
X90969730Y-71531349D01*
X90999117Y-71558089D01*
X91065984Y-71618933D01*
X91096565Y-71646760D01*
X91247268Y-71728585D01*
X91413139Y-71772101D01*
X91500586Y-71773474D01*
X91577003Y-71774675D01*
X91577006Y-71774675D01*
X91584602Y-71774794D01*
X91592006Y-71773098D01*
X91592008Y-71773098D01*
X91663343Y-71756760D01*
X91751759Y-71736510D01*
X91904958Y-71659459D01*
X91910729Y-71654530D01*
X91910732Y-71654528D01*
X92029578Y-71553023D01*
X92035355Y-71548089D01*
X92128238Y-71418830D01*
X92130992Y-71414998D01*
X92130993Y-71414997D01*
X92135424Y-71408830D01*
X92199385Y-71249720D01*
X92203747Y-71219069D01*
X92210019Y-71175000D01*
X96741502Y-71175000D01*
X96761457Y-71403087D01*
X96762881Y-71408400D01*
X96762881Y-71408402D01*
X96817722Y-71613068D01*
X96820716Y-71624243D01*
X96823039Y-71629224D01*
X96823039Y-71629225D01*
X96915151Y-71826762D01*
X96915154Y-71826767D01*
X96917477Y-71831749D01*
X97048802Y-72019300D01*
X97210700Y-72181198D01*
X97215208Y-72184355D01*
X97215211Y-72184357D01*
X97258758Y-72214849D01*
X97398251Y-72312523D01*
X97403233Y-72314846D01*
X97403238Y-72314849D01*
X97561181Y-72388498D01*
X97605757Y-72409284D01*
X97611065Y-72410706D01*
X97611067Y-72410707D01*
X97821598Y-72467119D01*
X97821600Y-72467119D01*
X97826913Y-72468543D01*
X98055000Y-72488498D01*
X98283087Y-72468543D01*
X98288400Y-72467119D01*
X98288402Y-72467119D01*
X98498933Y-72410707D01*
X98498935Y-72410706D01*
X98504243Y-72409284D01*
X98548819Y-72388498D01*
X98706762Y-72314849D01*
X98706767Y-72314846D01*
X98711749Y-72312523D01*
X98851242Y-72214849D01*
X98894789Y-72184357D01*
X98894792Y-72184355D01*
X98899300Y-72181198D01*
X99061198Y-72019300D01*
X99192523Y-71831749D01*
X99194846Y-71826767D01*
X99194849Y-71826762D01*
X99286961Y-71629225D01*
X99286961Y-71629224D01*
X99289284Y-71624243D01*
X99292279Y-71613068D01*
X99347119Y-71408402D01*
X99347119Y-71408400D01*
X99348543Y-71403087D01*
X99368498Y-71175000D01*
X99348543Y-70946913D01*
X99335175Y-70897022D01*
X99290707Y-70731067D01*
X99290706Y-70731065D01*
X99289284Y-70725757D01*
X99283425Y-70713192D01*
X99194849Y-70523238D01*
X99194846Y-70523233D01*
X99192523Y-70518251D01*
X99097422Y-70382433D01*
X99064357Y-70335211D01*
X99064355Y-70335208D01*
X99061198Y-70330700D01*
X98899300Y-70168802D01*
X98894792Y-70165645D01*
X98894789Y-70165643D01*
X98779834Y-70085151D01*
X98711749Y-70037477D01*
X98706767Y-70035154D01*
X98706762Y-70035151D01*
X98509225Y-69943039D01*
X98509224Y-69943039D01*
X98504243Y-69940716D01*
X98498935Y-69939294D01*
X98498933Y-69939293D01*
X98288402Y-69882881D01*
X98288400Y-69882881D01*
X98283087Y-69881457D01*
X98055000Y-69861502D01*
X97826913Y-69881457D01*
X97821600Y-69882881D01*
X97821598Y-69882881D01*
X97611067Y-69939293D01*
X97611065Y-69939294D01*
X97605757Y-69940716D01*
X97600776Y-69943039D01*
X97600775Y-69943039D01*
X97403238Y-70035151D01*
X97403233Y-70035154D01*
X97398251Y-70037477D01*
X97330166Y-70085151D01*
X97215211Y-70165643D01*
X97215208Y-70165645D01*
X97210700Y-70168802D01*
X97048802Y-70330700D01*
X97045645Y-70335208D01*
X97045643Y-70335211D01*
X97012578Y-70382433D01*
X96917477Y-70518251D01*
X96915154Y-70523233D01*
X96915151Y-70523238D01*
X96826575Y-70713192D01*
X96820716Y-70725757D01*
X96819294Y-70731065D01*
X96819293Y-70731067D01*
X96774825Y-70897022D01*
X96761457Y-70946913D01*
X96741502Y-71175000D01*
X92210019Y-71175000D01*
X92222966Y-71084031D01*
X92222966Y-71084027D01*
X92223547Y-71079947D01*
X92223642Y-71070894D01*
X92223661Y-71069133D01*
X92223661Y-71069127D01*
X92223704Y-71065000D01*
X92214949Y-70992654D01*
X92204015Y-70902299D01*
X92204014Y-70902296D01*
X92203102Y-70894758D01*
X92142487Y-70734344D01*
X92138187Y-70728087D01*
X92134665Y-70721350D01*
X92137063Y-70720096D01*
X92118500Y-70660318D01*
X92118500Y-68284500D01*
X92138502Y-68216379D01*
X92192158Y-68169886D01*
X92244500Y-68158500D01*
X92458134Y-68158500D01*
X92520316Y-68151745D01*
X92656705Y-68100615D01*
X92773261Y-68013261D01*
X92860615Y-67896705D01*
X92885180Y-67831178D01*
X92927822Y-67774414D01*
X92994383Y-67749714D01*
X93063732Y-67764921D01*
X93083647Y-67778464D01*
X93208011Y-67881713D01*
X93239349Y-67907730D01*
X93439322Y-68024584D01*
X93444147Y-68026426D01*
X93444148Y-68026427D01*
X93476463Y-68038767D01*
X93655694Y-68107209D01*
X93660760Y-68108240D01*
X93660761Y-68108240D01*
X93681631Y-68112486D01*
X93882656Y-68153385D01*
X94012089Y-68158131D01*
X94108949Y-68161683D01*
X94108953Y-68161683D01*
X94114113Y-68161872D01*
X94119233Y-68161216D01*
X94119235Y-68161216D01*
X94193166Y-68151745D01*
X94343847Y-68132442D01*
X94348795Y-68130957D01*
X94348802Y-68130956D01*
X94560747Y-68067369D01*
X94565690Y-68065886D01*
X94627481Y-68035615D01*
X94769049Y-67966262D01*
X94769052Y-67966260D01*
X94773684Y-67963991D01*
X94962243Y-67829494D01*
X95126303Y-67666005D01*
X95149923Y-67633134D01*
X97201500Y-67633134D01*
X97208255Y-67695316D01*
X97259385Y-67831705D01*
X97346739Y-67948261D01*
X97463295Y-68035615D01*
X97599684Y-68086745D01*
X97661866Y-68093500D01*
X99258134Y-68093500D01*
X99320316Y-68086745D01*
X99456705Y-68035615D01*
X99573261Y-67948261D01*
X99660615Y-67831705D01*
X99711745Y-67695316D01*
X99718500Y-67633134D01*
X99718500Y-67598576D01*
X99738502Y-67530455D01*
X99792158Y-67483962D01*
X99862432Y-67473858D01*
X99927012Y-67503352D01*
X99947712Y-67526304D01*
X99976571Y-67567519D01*
X100020123Y-67629717D01*
X100032251Y-67647038D01*
X100187962Y-67802749D01*
X100192471Y-67805906D01*
X100192473Y-67805908D01*
X100310134Y-67888295D01*
X100333170Y-67904425D01*
X100337771Y-67907647D01*
X100382099Y-67963104D01*
X100391500Y-68010860D01*
X100391500Y-68744808D01*
X100376543Y-68804351D01*
X100375377Y-68806525D01*
X100371010Y-68812739D01*
X100308718Y-68972509D01*
X100307726Y-68980042D01*
X100307726Y-68980043D01*
X100288041Y-69129569D01*
X100286335Y-69142526D01*
X100293508Y-69207497D01*
X100299274Y-69259720D01*
X100305153Y-69312975D01*
X100307762Y-69320106D01*
X100307763Y-69320108D01*
X100325396Y-69368293D01*
X100364085Y-69474015D01*
X100368322Y-69480321D01*
X100368324Y-69480324D01*
X100377400Y-69493830D01*
X100459730Y-69616349D01*
X100465346Y-69621459D01*
X100551510Y-69699862D01*
X100586565Y-69731760D01*
X100649627Y-69766000D01*
X100720110Y-69804269D01*
X100770432Y-69854352D01*
X100785688Y-69923690D01*
X100761036Y-69990269D01*
X100713238Y-70029195D01*
X100593238Y-70085151D01*
X100593233Y-70085154D01*
X100588251Y-70087477D01*
X100511580Y-70141163D01*
X100405211Y-70215643D01*
X100405208Y-70215645D01*
X100400700Y-70218802D01*
X100238802Y-70380700D01*
X100107477Y-70568251D01*
X100105154Y-70573233D01*
X100105151Y-70573238D01*
X100015584Y-70765318D01*
X100010716Y-70775757D01*
X100009294Y-70781065D01*
X100009293Y-70781067D01*
X99963386Y-70952393D01*
X99951457Y-70996913D01*
X99931502Y-71225000D01*
X99951457Y-71453087D01*
X99952881Y-71458400D01*
X99952881Y-71458402D01*
X100008181Y-71664781D01*
X100010716Y-71674243D01*
X100013039Y-71679224D01*
X100013039Y-71679225D01*
X100105151Y-71876762D01*
X100105154Y-71876767D01*
X100107477Y-71881749D01*
X100180902Y-71986611D01*
X100203792Y-72019300D01*
X100238802Y-72069300D01*
X100400700Y-72231198D01*
X100405208Y-72234355D01*
X100405211Y-72234357D01*
X100441128Y-72259506D01*
X100588251Y-72362523D01*
X100593233Y-72364846D01*
X100593238Y-72364849D01*
X100779521Y-72451713D01*
X100795757Y-72459284D01*
X100801065Y-72460706D01*
X100801067Y-72460707D01*
X101011598Y-72517119D01*
X101011600Y-72517119D01*
X101016913Y-72518543D01*
X101245000Y-72538498D01*
X101473087Y-72518543D01*
X101478400Y-72517119D01*
X101478402Y-72517119D01*
X101688933Y-72460707D01*
X101688935Y-72460706D01*
X101694243Y-72459284D01*
X101710479Y-72451713D01*
X101896762Y-72364849D01*
X101896767Y-72364846D01*
X101901749Y-72362523D01*
X102048872Y-72259506D01*
X102084789Y-72234357D01*
X102084792Y-72234355D01*
X102089300Y-72231198D01*
X102251198Y-72069300D01*
X102286209Y-72019300D01*
X102309098Y-71986611D01*
X102382523Y-71881749D01*
X102384846Y-71876767D01*
X102384849Y-71876762D01*
X102476961Y-71679225D01*
X102476961Y-71679224D01*
X102479284Y-71674243D01*
X102481820Y-71664781D01*
X102537119Y-71458402D01*
X102537119Y-71458400D01*
X102538543Y-71453087D01*
X102558498Y-71225000D01*
X102538543Y-70996913D01*
X102526614Y-70952393D01*
X102480707Y-70781067D01*
X102480706Y-70781065D01*
X102479284Y-70775757D01*
X102474416Y-70765318D01*
X102384849Y-70573238D01*
X102384846Y-70573233D01*
X102382523Y-70568251D01*
X102251198Y-70380700D01*
X102089300Y-70218802D01*
X102084792Y-70215645D01*
X102084789Y-70215643D01*
X101978420Y-70141163D01*
X101901749Y-70087477D01*
X101896767Y-70085154D01*
X101896762Y-70085151D01*
X101699225Y-69993039D01*
X101699224Y-69993039D01*
X101694243Y-69990716D01*
X101688935Y-69989294D01*
X101688933Y-69989293D01*
X101478282Y-69932849D01*
X101417659Y-69895897D01*
X101386638Y-69832036D01*
X101395066Y-69761542D01*
X101429063Y-69715331D01*
X101519575Y-69638027D01*
X101519581Y-69638021D01*
X101525355Y-69633089D01*
X101625424Y-69493830D01*
X101689385Y-69334720D01*
X101690548Y-69326548D01*
X101712966Y-69169031D01*
X101712966Y-69169027D01*
X101713547Y-69164947D01*
X101713704Y-69150000D01*
X101706326Y-69089031D01*
X101694015Y-68987299D01*
X101694014Y-68987296D01*
X101693102Y-68979758D01*
X101632487Y-68819344D01*
X101628187Y-68813087D01*
X101624665Y-68806350D01*
X101627063Y-68805096D01*
X101608500Y-68745318D01*
X101608500Y-68010860D01*
X101628502Y-67942739D01*
X101662229Y-67907647D01*
X101666831Y-67904425D01*
X101689866Y-67888295D01*
X101807527Y-67805908D01*
X101807529Y-67805906D01*
X101812038Y-67802749D01*
X101967749Y-67647038D01*
X101979878Y-67629717D01*
X102090899Y-67471162D01*
X102090900Y-67471160D01*
X102094056Y-67466653D01*
X102096379Y-67461671D01*
X102096382Y-67461666D01*
X102155805Y-67334231D01*
X102202722Y-67280946D01*
X102270999Y-67261485D01*
X102338959Y-67282027D01*
X102384195Y-67334231D01*
X102443618Y-67461666D01*
X102443621Y-67461671D01*
X102445944Y-67466653D01*
X102449100Y-67471160D01*
X102449101Y-67471162D01*
X102560123Y-67629717D01*
X102572251Y-67647038D01*
X102727962Y-67802749D01*
X102732471Y-67805906D01*
X102732473Y-67805908D01*
X102769315Y-67831705D01*
X102908346Y-67929056D01*
X103107924Y-68022120D01*
X103320629Y-68079115D01*
X103540000Y-68098307D01*
X103759371Y-68079115D01*
X103972076Y-68022120D01*
X103977890Y-68019409D01*
X103978289Y-68019348D01*
X103982230Y-68017914D01*
X103982518Y-68018706D01*
X104048082Y-68008751D01*
X104112894Y-68037733D01*
X104151748Y-68097154D01*
X104153808Y-68104836D01*
X104153830Y-68104928D01*
X104154664Y-68112486D01*
X104213596Y-68273526D01*
X104217833Y-68279832D01*
X104217835Y-68279835D01*
X104243494Y-68318019D01*
X104309241Y-68415860D01*
X104436076Y-68531271D01*
X104586779Y-68613096D01*
X104752650Y-68656612D01*
X104840097Y-68657985D01*
X104916514Y-68659186D01*
X104916517Y-68659186D01*
X104924113Y-68659305D01*
X104931517Y-68657609D01*
X104931519Y-68657609D01*
X105017581Y-68637898D01*
X105091270Y-68621021D01*
X105244469Y-68543970D01*
X105250240Y-68539041D01*
X105250243Y-68539039D01*
X105369089Y-68437534D01*
X105374866Y-68432600D01*
X105443178Y-68337535D01*
X105499173Y-68293888D01*
X105569876Y-68287442D01*
X105632840Y-68320245D01*
X105668075Y-68381882D01*
X105671500Y-68411062D01*
X105671500Y-70764808D01*
X105656543Y-70824351D01*
X105655377Y-70826525D01*
X105651010Y-70832739D01*
X105626830Y-70894758D01*
X105596920Y-70971473D01*
X105588718Y-70992509D01*
X105587726Y-71000042D01*
X105587726Y-71000043D01*
X105567498Y-71153693D01*
X105566335Y-71162526D01*
X105572628Y-71219525D01*
X105581871Y-71303245D01*
X105585153Y-71332975D01*
X105587762Y-71340106D01*
X105587763Y-71340108D01*
X105594940Y-71359720D01*
X105644085Y-71494015D01*
X105648322Y-71500321D01*
X105648324Y-71500324D01*
X105671655Y-71535043D01*
X105739730Y-71636349D01*
X105763622Y-71658089D01*
X105857046Y-71743098D01*
X105866565Y-71751760D01*
X106017268Y-71833585D01*
X106183139Y-71877101D01*
X106270586Y-71878474D01*
X106347003Y-71879675D01*
X106347006Y-71879675D01*
X106354602Y-71879794D01*
X106362006Y-71878098D01*
X106362008Y-71878098D01*
X106446105Y-71858837D01*
X106521759Y-71841510D01*
X106674958Y-71764459D01*
X106680729Y-71759530D01*
X106680732Y-71759528D01*
X106799578Y-71658023D01*
X106805355Y-71653089D01*
X106892835Y-71531349D01*
X106900992Y-71519998D01*
X106900993Y-71519997D01*
X106905424Y-71513830D01*
X106969385Y-71354720D01*
X106984985Y-71245108D01*
X106987847Y-71225000D01*
X110091502Y-71225000D01*
X110111457Y-71453087D01*
X110112881Y-71458400D01*
X110112881Y-71458402D01*
X110168181Y-71664781D01*
X110170716Y-71674243D01*
X110173039Y-71679224D01*
X110173039Y-71679225D01*
X110265151Y-71876762D01*
X110265154Y-71876767D01*
X110267477Y-71881749D01*
X110340902Y-71986611D01*
X110363792Y-72019300D01*
X110398802Y-72069300D01*
X110560700Y-72231198D01*
X110565208Y-72234355D01*
X110565211Y-72234357D01*
X110601128Y-72259506D01*
X110748251Y-72362523D01*
X110753233Y-72364846D01*
X110753238Y-72364849D01*
X110939521Y-72451713D01*
X110955757Y-72459284D01*
X110961065Y-72460706D01*
X110961067Y-72460707D01*
X111171598Y-72517119D01*
X111171600Y-72517119D01*
X111176913Y-72518543D01*
X111405000Y-72538498D01*
X111633087Y-72518543D01*
X111638400Y-72517119D01*
X111638402Y-72517119D01*
X111848933Y-72460707D01*
X111848935Y-72460706D01*
X111854243Y-72459284D01*
X111870479Y-72451713D01*
X112056762Y-72364849D01*
X112056767Y-72364846D01*
X112061749Y-72362523D01*
X112208872Y-72259506D01*
X112244789Y-72234357D01*
X112244792Y-72234355D01*
X112249300Y-72231198D01*
X112411198Y-72069300D01*
X112446209Y-72019300D01*
X112469098Y-71986611D01*
X112542523Y-71881749D01*
X112544846Y-71876767D01*
X112544849Y-71876762D01*
X112636961Y-71679225D01*
X112636961Y-71679224D01*
X112639284Y-71674243D01*
X112641820Y-71664781D01*
X112697119Y-71458402D01*
X112697119Y-71458400D01*
X112698543Y-71453087D01*
X112718498Y-71225000D01*
X112708232Y-71107655D01*
X116039858Y-71107655D01*
X116075104Y-71366638D01*
X116076412Y-71371124D01*
X116076412Y-71371126D01*
X116090317Y-71418830D01*
X116148243Y-71617567D01*
X116150203Y-71621820D01*
X116150204Y-71621821D01*
X116169892Y-71664528D01*
X116257668Y-71854928D01*
X116260231Y-71858837D01*
X116398410Y-72069596D01*
X116398414Y-72069601D01*
X116400976Y-72073509D01*
X116575018Y-72268506D01*
X116775970Y-72435637D01*
X116811111Y-72456961D01*
X116995422Y-72568804D01*
X116995426Y-72568806D01*
X116999419Y-72571229D01*
X117240455Y-72672303D01*
X117493783Y-72736641D01*
X117498434Y-72737109D01*
X117498438Y-72737110D01*
X117691308Y-72756531D01*
X117710867Y-72758500D01*
X117866354Y-72758500D01*
X117868679Y-72758327D01*
X117868685Y-72758327D01*
X118056000Y-72744407D01*
X118056004Y-72744406D01*
X118060652Y-72744061D01*
X118065200Y-72743032D01*
X118065206Y-72743031D01*
X118251601Y-72700853D01*
X118315577Y-72686377D01*
X118351769Y-72672303D01*
X118554824Y-72593340D01*
X118554827Y-72593339D01*
X118559177Y-72591647D01*
X118786098Y-72461951D01*
X118991357Y-72300138D01*
X119170443Y-72109763D01*
X119298533Y-71925123D01*
X119316759Y-71898851D01*
X119316761Y-71898848D01*
X119319424Y-71895009D01*
X119323740Y-71886257D01*
X119432960Y-71664781D01*
X119432961Y-71664778D01*
X119435025Y-71660593D01*
X119436967Y-71654528D01*
X119513280Y-71416123D01*
X119514707Y-71411665D01*
X119556721Y-71153693D01*
X119558667Y-71005043D01*
X119560081Y-70897022D01*
X119560081Y-70897019D01*
X119560142Y-70892345D01*
X119524896Y-70633362D01*
X119510473Y-70583877D01*
X119497530Y-70539472D01*
X119451757Y-70382433D01*
X119342332Y-70145072D01*
X119276601Y-70044815D01*
X119201590Y-69930404D01*
X119201586Y-69930399D01*
X119199024Y-69926491D01*
X119024982Y-69731494D01*
X118824030Y-69564363D01*
X118775712Y-69535043D01*
X118604578Y-69431196D01*
X118604574Y-69431194D01*
X118600581Y-69428771D01*
X118359545Y-69327697D01*
X118106217Y-69263359D01*
X118101566Y-69262891D01*
X118101562Y-69262890D01*
X117892271Y-69241816D01*
X117889133Y-69241500D01*
X117733646Y-69241500D01*
X117731321Y-69241673D01*
X117731315Y-69241673D01*
X117544000Y-69255593D01*
X117543996Y-69255594D01*
X117539348Y-69255939D01*
X117534800Y-69256968D01*
X117534794Y-69256969D01*
X117382276Y-69291481D01*
X117284423Y-69313623D01*
X117280071Y-69315315D01*
X117280069Y-69315316D01*
X117045176Y-69406660D01*
X117045173Y-69406661D01*
X117040823Y-69408353D01*
X116813902Y-69538049D01*
X116608643Y-69699862D01*
X116429557Y-69890237D01*
X116325222Y-70040634D01*
X116294340Y-70085151D01*
X116280576Y-70104991D01*
X116278510Y-70109181D01*
X116278508Y-70109184D01*
X116171191Y-70326803D01*
X116164975Y-70339407D01*
X116163553Y-70343850D01*
X116163552Y-70343852D01*
X116152564Y-70378179D01*
X116085293Y-70588335D01*
X116043279Y-70846307D01*
X116039858Y-71107655D01*
X112708232Y-71107655D01*
X112698543Y-70996913D01*
X112686614Y-70952393D01*
X112640707Y-70781067D01*
X112640706Y-70781065D01*
X112639284Y-70775757D01*
X112634416Y-70765318D01*
X112544849Y-70573238D01*
X112544846Y-70573233D01*
X112542523Y-70568251D01*
X112411198Y-70380700D01*
X112249300Y-70218802D01*
X112244792Y-70215645D01*
X112244789Y-70215643D01*
X112138420Y-70141163D01*
X112061749Y-70087477D01*
X112056767Y-70085154D01*
X112056762Y-70085151D01*
X111859225Y-69993039D01*
X111859224Y-69993039D01*
X111854243Y-69990716D01*
X111848935Y-69989294D01*
X111848933Y-69989293D01*
X111638402Y-69932881D01*
X111638400Y-69932881D01*
X111633087Y-69931457D01*
X111405000Y-69911502D01*
X111176913Y-69931457D01*
X111171600Y-69932881D01*
X111171598Y-69932881D01*
X110961067Y-69989293D01*
X110961065Y-69989294D01*
X110955757Y-69990716D01*
X110950776Y-69993039D01*
X110950775Y-69993039D01*
X110753238Y-70085151D01*
X110753233Y-70085154D01*
X110748251Y-70087477D01*
X110671580Y-70141163D01*
X110565211Y-70215643D01*
X110565208Y-70215645D01*
X110560700Y-70218802D01*
X110398802Y-70380700D01*
X110267477Y-70568251D01*
X110265154Y-70573233D01*
X110265151Y-70573238D01*
X110175584Y-70765318D01*
X110170716Y-70775757D01*
X110169294Y-70781065D01*
X110169293Y-70781067D01*
X110123386Y-70952393D01*
X110111457Y-70996913D01*
X110091502Y-71225000D01*
X106987847Y-71225000D01*
X106992966Y-71189031D01*
X106992966Y-71189027D01*
X106993547Y-71184947D01*
X106993651Y-71175076D01*
X106993661Y-71174133D01*
X106993661Y-71174127D01*
X106993704Y-71170000D01*
X106983517Y-71085822D01*
X106974015Y-71007299D01*
X106974014Y-71007296D01*
X106973102Y-70999758D01*
X106912487Y-70839344D01*
X106908187Y-70833087D01*
X106904665Y-70826350D01*
X106907063Y-70825096D01*
X106888500Y-70765318D01*
X106888500Y-68284500D01*
X106908502Y-68216379D01*
X106962158Y-68169886D01*
X107014500Y-68158500D01*
X107228134Y-68158500D01*
X107290316Y-68151745D01*
X107426705Y-68100615D01*
X107543261Y-68013261D01*
X107630615Y-67896705D01*
X107655180Y-67831178D01*
X107697822Y-67774414D01*
X107764383Y-67749714D01*
X107833732Y-67764921D01*
X107853647Y-67778464D01*
X107978011Y-67881713D01*
X108009349Y-67907730D01*
X108209322Y-68024584D01*
X108214147Y-68026426D01*
X108214148Y-68026427D01*
X108246463Y-68038767D01*
X108425694Y-68107209D01*
X108430760Y-68108240D01*
X108430761Y-68108240D01*
X108451631Y-68112486D01*
X108652656Y-68153385D01*
X108782089Y-68158131D01*
X108878949Y-68161683D01*
X108878953Y-68161683D01*
X108884113Y-68161872D01*
X108889233Y-68161216D01*
X108889235Y-68161216D01*
X108963166Y-68151745D01*
X109113847Y-68132442D01*
X109118795Y-68130957D01*
X109118802Y-68130956D01*
X109330747Y-68067369D01*
X109335690Y-68065886D01*
X109397481Y-68035615D01*
X109539049Y-67966262D01*
X109539052Y-67966260D01*
X109543684Y-67963991D01*
X109732243Y-67829494D01*
X109896303Y-67666005D01*
X110031458Y-67477917D01*
X110043159Y-67454243D01*
X110131784Y-67274922D01*
X110131785Y-67274920D01*
X110134078Y-67270280D01*
X110201408Y-67048671D01*
X110231640Y-66819041D01*
X110232229Y-66794923D01*
X110233245Y-66753365D01*
X110233245Y-66753361D01*
X110233327Y-66750000D01*
X110220969Y-66599684D01*
X110214773Y-66524318D01*
X110214772Y-66524312D01*
X110214349Y-66519167D01*
X110177028Y-66370586D01*
X110159184Y-66299544D01*
X110159183Y-66299540D01*
X110157925Y-66294533D01*
X110155056Y-66287934D01*
X110067630Y-66086868D01*
X110067628Y-66086865D01*
X110065570Y-66082131D01*
X109939764Y-65887665D01*
X109921395Y-65867477D01*
X109850449Y-65789509D01*
X109783887Y-65716358D01*
X109779836Y-65713159D01*
X109779832Y-65713155D01*
X109606177Y-65576011D01*
X109606172Y-65576008D01*
X109602123Y-65572810D01*
X109597607Y-65570317D01*
X109597604Y-65570315D01*
X109403879Y-65463373D01*
X109403875Y-65463371D01*
X109399355Y-65460876D01*
X109394486Y-65459152D01*
X109394482Y-65459150D01*
X109185903Y-65385288D01*
X109185899Y-65385287D01*
X109181028Y-65383562D01*
X109175935Y-65382655D01*
X109175932Y-65382654D01*
X108958095Y-65343851D01*
X108958089Y-65343850D01*
X108953006Y-65342945D01*
X108880096Y-65342054D01*
X108726581Y-65340179D01*
X108726579Y-65340179D01*
X108721411Y-65340116D01*
X108492464Y-65375150D01*
X108272314Y-65447106D01*
X108267726Y-65449494D01*
X108267722Y-65449496D01*
X108081235Y-65546575D01*
X108066872Y-65554052D01*
X108062739Y-65557155D01*
X108062736Y-65557157D01*
X107914319Y-65668592D01*
X107881655Y-65693117D01*
X107864587Y-65710978D01*
X107864170Y-65711414D01*
X107802646Y-65746844D01*
X107731733Y-65743387D01*
X107673947Y-65702141D01*
X107655094Y-65668592D01*
X107633768Y-65611705D01*
X107633767Y-65611703D01*
X107630615Y-65603295D01*
X107543261Y-65486739D01*
X107426705Y-65399385D01*
X107290316Y-65348255D01*
X107228134Y-65341500D01*
X105584011Y-65341500D01*
X105515890Y-65321498D01*
X105469397Y-65267842D01*
X105458011Y-65215500D01*
X105458011Y-64499728D01*
X105478013Y-64431607D01*
X105494916Y-64410633D01*
X105728868Y-64176681D01*
X105791180Y-64142655D01*
X105850574Y-64144069D01*
X105936598Y-64167119D01*
X105936600Y-64167119D01*
X105941913Y-64168543D01*
X106170000Y-64188498D01*
X106398087Y-64168543D01*
X106403400Y-64167119D01*
X106403402Y-64167119D01*
X106613933Y-64110707D01*
X106613935Y-64110706D01*
X106619243Y-64109284D01*
X106624225Y-64106961D01*
X106821762Y-64014849D01*
X106821767Y-64014846D01*
X106826749Y-64012523D01*
X106978632Y-63906173D01*
X107009789Y-63884357D01*
X107009792Y-63884355D01*
X107014300Y-63881198D01*
X107176198Y-63719300D01*
X107207925Y-63673990D01*
X107282786Y-63567077D01*
X107307523Y-63531749D01*
X107309846Y-63526767D01*
X107309849Y-63526762D01*
X107401961Y-63329225D01*
X107401961Y-63329224D01*
X107404284Y-63324243D01*
X107406458Y-63316132D01*
X107462119Y-63108402D01*
X107462119Y-63108400D01*
X107463543Y-63103087D01*
X107483498Y-62875000D01*
X115016502Y-62875000D01*
X115036457Y-63103087D01*
X115037881Y-63108400D01*
X115037881Y-63108402D01*
X115093543Y-63316132D01*
X115095716Y-63324243D01*
X115098039Y-63329224D01*
X115098039Y-63329225D01*
X115190151Y-63526762D01*
X115190154Y-63526767D01*
X115192477Y-63531749D01*
X115217214Y-63567077D01*
X115292076Y-63673990D01*
X115323802Y-63719300D01*
X115485700Y-63881198D01*
X115490208Y-63884355D01*
X115490211Y-63884357D01*
X115521368Y-63906173D01*
X115673251Y-64012523D01*
X115678233Y-64014846D01*
X115678238Y-64014849D01*
X115875775Y-64106961D01*
X115880757Y-64109284D01*
X115886065Y-64110706D01*
X115886067Y-64110707D01*
X116096598Y-64167119D01*
X116096600Y-64167119D01*
X116101913Y-64168543D01*
X116330000Y-64188498D01*
X116558087Y-64168543D01*
X116563400Y-64167119D01*
X116563402Y-64167119D01*
X116773933Y-64110707D01*
X116773935Y-64110706D01*
X116779243Y-64109284D01*
X116784225Y-64106961D01*
X116981762Y-64014849D01*
X116981767Y-64014846D01*
X116986749Y-64012523D01*
X117138632Y-63906173D01*
X117169789Y-63884357D01*
X117169792Y-63884355D01*
X117174300Y-63881198D01*
X117336198Y-63719300D01*
X117367925Y-63673990D01*
X117442786Y-63567077D01*
X117467523Y-63531749D01*
X117469846Y-63526767D01*
X117469849Y-63526762D01*
X117561961Y-63329225D01*
X117561961Y-63329224D01*
X117564284Y-63324243D01*
X117566458Y-63316132D01*
X117622119Y-63108402D01*
X117622119Y-63108400D01*
X117623543Y-63103087D01*
X117643498Y-62875000D01*
X117623543Y-62646913D01*
X117621960Y-62641006D01*
X117565707Y-62431067D01*
X117565706Y-62431065D01*
X117564284Y-62425757D01*
X117554766Y-62405345D01*
X117469849Y-62223238D01*
X117469846Y-62223233D01*
X117467523Y-62218251D01*
X117341258Y-62037926D01*
X117339357Y-62035211D01*
X117339355Y-62035208D01*
X117336198Y-62030700D01*
X117174300Y-61868802D01*
X117169792Y-61865645D01*
X117169789Y-61865643D01*
X117040080Y-61774820D01*
X116986749Y-61737477D01*
X116981767Y-61735154D01*
X116981762Y-61735151D01*
X116784225Y-61643039D01*
X116784224Y-61643039D01*
X116779243Y-61640716D01*
X116773935Y-61639294D01*
X116773933Y-61639293D01*
X116563402Y-61582881D01*
X116563400Y-61582881D01*
X116558087Y-61581457D01*
X116330000Y-61561502D01*
X116101913Y-61581457D01*
X116096600Y-61582881D01*
X116096598Y-61582881D01*
X115886067Y-61639293D01*
X115886065Y-61639294D01*
X115880757Y-61640716D01*
X115875776Y-61643039D01*
X115875775Y-61643039D01*
X115678238Y-61735151D01*
X115678233Y-61735154D01*
X115673251Y-61737477D01*
X115619920Y-61774820D01*
X115490211Y-61865643D01*
X115490208Y-61865645D01*
X115485700Y-61868802D01*
X115323802Y-62030700D01*
X115320645Y-62035208D01*
X115320643Y-62035211D01*
X115318742Y-62037926D01*
X115192477Y-62218251D01*
X115190154Y-62223233D01*
X115190151Y-62223238D01*
X115105234Y-62405345D01*
X115095716Y-62425757D01*
X115094294Y-62431065D01*
X115094293Y-62431067D01*
X115038040Y-62641006D01*
X115036457Y-62646913D01*
X115016502Y-62875000D01*
X107483498Y-62875000D01*
X107463543Y-62646913D01*
X107461960Y-62641006D01*
X107405707Y-62431067D01*
X107405706Y-62431065D01*
X107404284Y-62425757D01*
X107394766Y-62405345D01*
X107309849Y-62223238D01*
X107309846Y-62223233D01*
X107307523Y-62218251D01*
X107181258Y-62037926D01*
X107179357Y-62035211D01*
X107179355Y-62035208D01*
X107176198Y-62030700D01*
X107014300Y-61868802D01*
X107009792Y-61865645D01*
X107009789Y-61865643D01*
X106880080Y-61774820D01*
X106826749Y-61737477D01*
X106821767Y-61735154D01*
X106821762Y-61735151D01*
X106624225Y-61643039D01*
X106624224Y-61643039D01*
X106619243Y-61640716D01*
X106613935Y-61639294D01*
X106613933Y-61639293D01*
X106403402Y-61582881D01*
X106403400Y-61582881D01*
X106398087Y-61581457D01*
X106170000Y-61561502D01*
X105941913Y-61581457D01*
X105936600Y-61582881D01*
X105936598Y-61582881D01*
X105726067Y-61639293D01*
X105726065Y-61639294D01*
X105720757Y-61640716D01*
X105715776Y-61643039D01*
X105715775Y-61643039D01*
X105518238Y-61735151D01*
X105518233Y-61735154D01*
X105513251Y-61737477D01*
X105459920Y-61774820D01*
X105330211Y-61865643D01*
X105330208Y-61865645D01*
X105325700Y-61868802D01*
X105163802Y-62030700D01*
X105160645Y-62035208D01*
X105160643Y-62035211D01*
X105158742Y-62037926D01*
X105032477Y-62218251D01*
X105030154Y-62223233D01*
X105030151Y-62223238D01*
X104945234Y-62405345D01*
X104935716Y-62425757D01*
X104934294Y-62431065D01*
X104934293Y-62431067D01*
X104878040Y-62641006D01*
X104876457Y-62646913D01*
X104856502Y-62875000D01*
X104876457Y-63103087D01*
X104877881Y-63108400D01*
X104877881Y-63108402D01*
X104900931Y-63194426D01*
X104899241Y-63265403D01*
X104868319Y-63316132D01*
X104453277Y-63731174D01*
X104440886Y-63742041D01*
X104415524Y-63761502D01*
X104391037Y-63793414D01*
X104391034Y-63793417D01*
X104391028Y-63793425D01*
X104323677Y-63881198D01*
X104317987Y-63888613D01*
X104256673Y-64036638D01*
X104256673Y-64036639D01*
X104254925Y-64049915D01*
X104244388Y-64129953D01*
X104241011Y-64155604D01*
X104241011Y-64155609D01*
X104235761Y-64195489D01*
X104239791Y-64226097D01*
X104239933Y-64227179D01*
X104241011Y-64243625D01*
X104241011Y-65575505D01*
X104221009Y-65643626D01*
X104167353Y-65690119D01*
X104097079Y-65700223D01*
X104061762Y-65689700D01*
X103977066Y-65650206D01*
X103977058Y-65650203D01*
X103972076Y-65647880D01*
X103759371Y-65590885D01*
X103672158Y-65583255D01*
X103548518Y-65572438D01*
X103482400Y-65546575D01*
X103440761Y-65489071D01*
X103433500Y-65446917D01*
X103433500Y-61079500D01*
X103453502Y-61011379D01*
X103507158Y-60964886D01*
X103559500Y-60953500D01*
X103673134Y-60953500D01*
X103735316Y-60946745D01*
X103871705Y-60895615D01*
X103988261Y-60808261D01*
X104075615Y-60691705D01*
X104084696Y-60667483D01*
X104105636Y-60611625D01*
X104114783Y-60587223D01*
X104157424Y-60530459D01*
X104223985Y-60505759D01*
X104293334Y-60520966D01*
X104321860Y-60542358D01*
X104480700Y-60701198D01*
X104485208Y-60704355D01*
X104485211Y-60704357D01*
X104548268Y-60748510D01*
X104668251Y-60832523D01*
X104673233Y-60834846D01*
X104673238Y-60834849D01*
X104828129Y-60907075D01*
X104875757Y-60929284D01*
X104881065Y-60930706D01*
X104881067Y-60930707D01*
X105091598Y-60987119D01*
X105091600Y-60987119D01*
X105096913Y-60988543D01*
X105325000Y-61008498D01*
X105553087Y-60988543D01*
X105558400Y-60987119D01*
X105558402Y-60987119D01*
X105768933Y-60930707D01*
X105768935Y-60930706D01*
X105774243Y-60929284D01*
X105821871Y-60907075D01*
X105976762Y-60834849D01*
X105976767Y-60834846D01*
X105981749Y-60832523D01*
X106101732Y-60748510D01*
X106164789Y-60704357D01*
X106164792Y-60704355D01*
X106169300Y-60701198D01*
X106235905Y-60634593D01*
X106298217Y-60600567D01*
X106369032Y-60605632D01*
X106414095Y-60634593D01*
X106480700Y-60701198D01*
X106485208Y-60704355D01*
X106485211Y-60704357D01*
X106548268Y-60748510D01*
X106668251Y-60832523D01*
X106673233Y-60834846D01*
X106673238Y-60834849D01*
X106828129Y-60907075D01*
X106875757Y-60929284D01*
X106881065Y-60930706D01*
X106881067Y-60930707D01*
X107091598Y-60987119D01*
X107091600Y-60987119D01*
X107096913Y-60988543D01*
X107325000Y-61008498D01*
X107553087Y-60988543D01*
X107558400Y-60987119D01*
X107558402Y-60987119D01*
X107768933Y-60930707D01*
X107768935Y-60930706D01*
X107774243Y-60929284D01*
X107821871Y-60907075D01*
X107976762Y-60834849D01*
X107976767Y-60834846D01*
X107981749Y-60832523D01*
X108055243Y-60781062D01*
X109103493Y-60781062D01*
X109112789Y-60793077D01*
X109163994Y-60828931D01*
X109173489Y-60834414D01*
X109370947Y-60926490D01*
X109381239Y-60930236D01*
X109591688Y-60986625D01*
X109602481Y-60988528D01*
X109819525Y-61007517D01*
X109830475Y-61007517D01*
X110047519Y-60988528D01*
X110058312Y-60986625D01*
X110268761Y-60930236D01*
X110279053Y-60926490D01*
X110476511Y-60834414D01*
X110486006Y-60828931D01*
X110538048Y-60792491D01*
X110546424Y-60782012D01*
X110539356Y-60768566D01*
X109837812Y-60067022D01*
X109823868Y-60059408D01*
X109822035Y-60059539D01*
X109815420Y-60063790D01*
X109109923Y-60769287D01*
X109103493Y-60781062D01*
X108055243Y-60781062D01*
X108101732Y-60748510D01*
X108164789Y-60704357D01*
X108164792Y-60704355D01*
X108169300Y-60701198D01*
X108331198Y-60539300D01*
X108343916Y-60521138D01*
X108406944Y-60431124D01*
X108462523Y-60351749D01*
X108464847Y-60346765D01*
X108466171Y-60344472D01*
X108517553Y-60295479D01*
X108587267Y-60282043D01*
X108653178Y-60308429D01*
X108684409Y-60344472D01*
X108691066Y-60356002D01*
X108727509Y-60408048D01*
X108737988Y-60416424D01*
X108751434Y-60409356D01*
X109452978Y-59707812D01*
X109459356Y-59696132D01*
X110189408Y-59696132D01*
X110189539Y-59697965D01*
X110193790Y-59704580D01*
X110899287Y-60410077D01*
X110911062Y-60416507D01*
X110923077Y-60407211D01*
X110958931Y-60356006D01*
X110964414Y-60346511D01*
X111056490Y-60149053D01*
X111060236Y-60138761D01*
X111116625Y-59928312D01*
X111118528Y-59917519D01*
X111137517Y-59700475D01*
X111137517Y-59689525D01*
X111118528Y-59472481D01*
X111116625Y-59461688D01*
X111060236Y-59251239D01*
X111056490Y-59240947D01*
X110964414Y-59043489D01*
X110958931Y-59033994D01*
X110922491Y-58981952D01*
X110912012Y-58973576D01*
X110898566Y-58980644D01*
X110197022Y-59682188D01*
X110189408Y-59696132D01*
X109459356Y-59696132D01*
X109460592Y-59693868D01*
X109460461Y-59692035D01*
X109456210Y-59685420D01*
X108750713Y-58979923D01*
X108730856Y-58969080D01*
X108674115Y-58956737D01*
X108623913Y-58906535D01*
X108608500Y-58846149D01*
X108608500Y-56708192D01*
X108609578Y-56691746D01*
X108612672Y-56668244D01*
X108613750Y-56660056D01*
X108608500Y-56620178D01*
X108608500Y-56620171D01*
X108592838Y-56501206D01*
X108595486Y-56500857D01*
X108596865Y-56443096D01*
X108636664Y-56384303D01*
X108688749Y-56358651D01*
X108734358Y-56348205D01*
X108741759Y-56346510D01*
X108868885Y-56282572D01*
X108938730Y-56269834D01*
X109004374Y-56296878D01*
X109044976Y-56355119D01*
X109051500Y-56395137D01*
X109051500Y-57779714D01*
X109028586Y-57852166D01*
X109021499Y-57862250D01*
X109001180Y-57914366D01*
X108962594Y-58013334D01*
X108959207Y-58022020D01*
X108958215Y-58029553D01*
X108958215Y-58029554D01*
X108938210Y-58181510D01*
X108936824Y-58192037D01*
X108941733Y-58236502D01*
X108952629Y-58335193D01*
X108955642Y-58362486D01*
X108958251Y-58369617D01*
X108958252Y-58369619D01*
X108975407Y-58416498D01*
X109014574Y-58523526D01*
X109018811Y-58529832D01*
X109018813Y-58529835D01*
X109063110Y-58595755D01*
X109110219Y-58665860D01*
X109237054Y-58781271D01*
X109294138Y-58812265D01*
X109323111Y-58833901D01*
X109812188Y-59322978D01*
X109826132Y-59330592D01*
X109827965Y-59330461D01*
X109834580Y-59326210D01*
X110540077Y-58620713D01*
X110546507Y-58608938D01*
X110537211Y-58596923D01*
X110486006Y-58561069D01*
X110476511Y-58555586D01*
X110409216Y-58524206D01*
X110355931Y-58477288D01*
X110336470Y-58409011D01*
X110339812Y-58384386D01*
X110339874Y-58384231D01*
X110344044Y-58354936D01*
X110363455Y-58218542D01*
X110363455Y-58218538D01*
X110364036Y-58214458D01*
X110364193Y-58199511D01*
X110352405Y-58102100D01*
X110344504Y-58036810D01*
X110344503Y-58036807D01*
X110343591Y-58029269D01*
X110337738Y-58013778D01*
X110285660Y-57875958D01*
X110282976Y-57868855D01*
X110282110Y-57867595D01*
X110268500Y-57812186D01*
X110268500Y-56963918D01*
X110881917Y-56963918D01*
X110897682Y-57237320D01*
X110898507Y-57241525D01*
X110898508Y-57241533D01*
X110922641Y-57364539D01*
X110950405Y-57506053D01*
X110951792Y-57510103D01*
X110951793Y-57510108D01*
X111032731Y-57746507D01*
X111039112Y-57765144D01*
X111090762Y-57867840D01*
X111150653Y-57986919D01*
X111162160Y-58009799D01*
X111164586Y-58013328D01*
X111164589Y-58013334D01*
X111305626Y-58218542D01*
X111317274Y-58235490D01*
X111320161Y-58238663D01*
X111320162Y-58238664D01*
X111465103Y-58397953D01*
X111501582Y-58438043D01*
X111504877Y-58440798D01*
X111504878Y-58440799D01*
X111603819Y-58523526D01*
X111711675Y-58613707D01*
X111715316Y-58615991D01*
X111940024Y-58756951D01*
X111940028Y-58756953D01*
X111943664Y-58759234D01*
X112061114Y-58812265D01*
X112189345Y-58870164D01*
X112189349Y-58870166D01*
X112193257Y-58871930D01*
X112197377Y-58873150D01*
X112197376Y-58873150D01*
X112451723Y-58948491D01*
X112451727Y-58948492D01*
X112455836Y-58949709D01*
X112460070Y-58950357D01*
X112460075Y-58950358D01*
X112722298Y-58990483D01*
X112722300Y-58990483D01*
X112726540Y-58991132D01*
X112865912Y-58993322D01*
X112996071Y-58995367D01*
X112996077Y-58995367D01*
X113000362Y-58995434D01*
X113272235Y-58962534D01*
X113537127Y-58893041D01*
X113541087Y-58891401D01*
X113541092Y-58891399D01*
X113755045Y-58802776D01*
X113790136Y-58788241D01*
X114026582Y-58650073D01*
X114242089Y-58481094D01*
X114245778Y-58477288D01*
X114399644Y-58318510D01*
X114432669Y-58284431D01*
X114435202Y-58280983D01*
X114435206Y-58280978D01*
X114592257Y-58067178D01*
X114594795Y-58063723D01*
X114622154Y-58013334D01*
X114723418Y-57826830D01*
X114723419Y-57826828D01*
X114725468Y-57823054D01*
X114802275Y-57619789D01*
X114820751Y-57570895D01*
X114820752Y-57570891D01*
X114822269Y-57566877D01*
X114883407Y-57299933D01*
X114885664Y-57274650D01*
X114907531Y-57029627D01*
X114907531Y-57029625D01*
X114907751Y-57027161D01*
X114908193Y-56985000D01*
X114898276Y-56839525D01*
X114889859Y-56716055D01*
X114889858Y-56716049D01*
X114889567Y-56711778D01*
X114880552Y-56668244D01*
X114834901Y-56447809D01*
X114834032Y-56443612D01*
X114742617Y-56185465D01*
X114642952Y-55992368D01*
X114618978Y-55945919D01*
X114618978Y-55945918D01*
X114617013Y-55942112D01*
X114611787Y-55934675D01*
X114494568Y-55767890D01*
X114459545Y-55718057D01*
X114342762Y-55592383D01*
X114276046Y-55520588D01*
X114276043Y-55520585D01*
X114273125Y-55517445D01*
X114269810Y-55514731D01*
X114269806Y-55514728D01*
X114064523Y-55346706D01*
X114061205Y-55343990D01*
X113827704Y-55200901D01*
X113823768Y-55199173D01*
X113580873Y-55092549D01*
X113580869Y-55092548D01*
X113576945Y-55090825D01*
X113313566Y-55015800D01*
X113309324Y-55015196D01*
X113309318Y-55015195D01*
X113108834Y-54986662D01*
X113042443Y-54977213D01*
X112898589Y-54976460D01*
X112772877Y-54975802D01*
X112772871Y-54975802D01*
X112768591Y-54975780D01*
X112764347Y-54976339D01*
X112764343Y-54976339D01*
X112645302Y-54992011D01*
X112497078Y-55011525D01*
X112492938Y-55012658D01*
X112492936Y-55012658D01*
X112420008Y-55032609D01*
X112232928Y-55083788D01*
X112228980Y-55085472D01*
X111984982Y-55189546D01*
X111984978Y-55189548D01*
X111981030Y-55191232D01*
X111899633Y-55239947D01*
X111749725Y-55329664D01*
X111749721Y-55329667D01*
X111746043Y-55331868D01*
X111532318Y-55503094D01*
X111430185Y-55610720D01*
X111353671Y-55691349D01*
X111343808Y-55701742D01*
X111184002Y-55924136D01*
X111055857Y-56166161D01*
X111054385Y-56170184D01*
X111054383Y-56170188D01*
X110976021Y-56384320D01*
X110961743Y-56423337D01*
X110903404Y-56690907D01*
X110881917Y-56963918D01*
X110268500Y-56963918D01*
X110268500Y-54098999D01*
X110288502Y-54030878D01*
X110339065Y-53985850D01*
X110383684Y-53963991D01*
X110572243Y-53829494D01*
X110610176Y-53791693D01*
X110617309Y-53784585D01*
X110679681Y-53750669D01*
X110750487Y-53755857D01*
X110807249Y-53798503D01*
X110824231Y-53829607D01*
X110845169Y-53885458D01*
X110849385Y-53896705D01*
X110936739Y-54013261D01*
X111053295Y-54100615D01*
X111189684Y-54151745D01*
X111251866Y-54158500D01*
X113148134Y-54158500D01*
X113210316Y-54151745D01*
X113346705Y-54100615D01*
X113463261Y-54013261D01*
X113550615Y-53896705D01*
X113601745Y-53760316D01*
X113608500Y-53698134D01*
X113608500Y-53107655D01*
X116039858Y-53107655D01*
X116075104Y-53366638D01*
X116076412Y-53371124D01*
X116076412Y-53371126D01*
X116091076Y-53421434D01*
X116148243Y-53617567D01*
X116150203Y-53621820D01*
X116150204Y-53621821D01*
X116170126Y-53665034D01*
X116257668Y-53854928D01*
X116267409Y-53869786D01*
X116398410Y-54069596D01*
X116398414Y-54069601D01*
X116400976Y-54073509D01*
X116575018Y-54268506D01*
X116775970Y-54435637D01*
X116812237Y-54457645D01*
X116995422Y-54568804D01*
X116995426Y-54568806D01*
X116999419Y-54571229D01*
X117240455Y-54672303D01*
X117493783Y-54736641D01*
X117498434Y-54737109D01*
X117498438Y-54737110D01*
X117691308Y-54756531D01*
X117710867Y-54758500D01*
X117866354Y-54758500D01*
X117868679Y-54758327D01*
X117868685Y-54758327D01*
X118056000Y-54744407D01*
X118056004Y-54744406D01*
X118060652Y-54744061D01*
X118065200Y-54743032D01*
X118065206Y-54743031D01*
X118251601Y-54700853D01*
X118315577Y-54686377D01*
X118351769Y-54672303D01*
X118554824Y-54593340D01*
X118554827Y-54593339D01*
X118559177Y-54591647D01*
X118624544Y-54554287D01*
X118689983Y-54516885D01*
X118786098Y-54461951D01*
X118991357Y-54300138D01*
X119170443Y-54109763D01*
X119293923Y-53931768D01*
X119316759Y-53898851D01*
X119316761Y-53898848D01*
X119319424Y-53895009D01*
X119326957Y-53879735D01*
X119389762Y-53752377D01*
X119435025Y-53660593D01*
X119484330Y-53506565D01*
X119513280Y-53416123D01*
X119514707Y-53411665D01*
X119556721Y-53153693D01*
X119559425Y-52947115D01*
X119560081Y-52897022D01*
X119560081Y-52897019D01*
X119560142Y-52892345D01*
X119524896Y-52633362D01*
X119510473Y-52583877D01*
X119490618Y-52515761D01*
X119451757Y-52382433D01*
X119342332Y-52145072D01*
X119271620Y-52037218D01*
X119201590Y-51930404D01*
X119201586Y-51930399D01*
X119199024Y-51926491D01*
X119024982Y-51731494D01*
X118824030Y-51564363D01*
X118774974Y-51534595D01*
X118604578Y-51431196D01*
X118604574Y-51431194D01*
X118600581Y-51428771D01*
X118359545Y-51327697D01*
X118106217Y-51263359D01*
X118101566Y-51262891D01*
X118101562Y-51262890D01*
X117892271Y-51241816D01*
X117889133Y-51241500D01*
X117733646Y-51241500D01*
X117731321Y-51241673D01*
X117731315Y-51241673D01*
X117544000Y-51255593D01*
X117543996Y-51255594D01*
X117539348Y-51255939D01*
X117534800Y-51256968D01*
X117534794Y-51256969D01*
X117398225Y-51287872D01*
X117284423Y-51313623D01*
X117280071Y-51315315D01*
X117280069Y-51315316D01*
X117045176Y-51406660D01*
X117045173Y-51406661D01*
X117040823Y-51408353D01*
X117036769Y-51410670D01*
X117036767Y-51410671D01*
X117009034Y-51426522D01*
X116813902Y-51538049D01*
X116608643Y-51699862D01*
X116429557Y-51890237D01*
X116280576Y-52104991D01*
X116278510Y-52109181D01*
X116278508Y-52109184D01*
X116204886Y-52258476D01*
X116164975Y-52339407D01*
X116163553Y-52343850D01*
X116163552Y-52343852D01*
X116123514Y-52468933D01*
X116085293Y-52588335D01*
X116043279Y-52846307D01*
X116043218Y-52850980D01*
X116040054Y-53092708D01*
X116039858Y-53107655D01*
X113608500Y-53107655D01*
X113608500Y-51801866D01*
X113601745Y-51739684D01*
X113550615Y-51603295D01*
X113463261Y-51486739D01*
X113346705Y-51399385D01*
X113210316Y-51348255D01*
X113148134Y-51341500D01*
X111251866Y-51341500D01*
X111189684Y-51348255D01*
X111053295Y-51399385D01*
X110936739Y-51486739D01*
X110849385Y-51603295D01*
X110846233Y-51611703D01*
X110846232Y-51611705D01*
X110825538Y-51666906D01*
X110782897Y-51723671D01*
X110716335Y-51748371D01*
X110646986Y-51733164D01*
X110624167Y-51716666D01*
X110623887Y-51716358D01*
X110617290Y-51711148D01*
X110446177Y-51576011D01*
X110446172Y-51576008D01*
X110442123Y-51572810D01*
X110437607Y-51570317D01*
X110437604Y-51570315D01*
X110243879Y-51463373D01*
X110243875Y-51463371D01*
X110239355Y-51460876D01*
X110234486Y-51459152D01*
X110234482Y-51459150D01*
X110025903Y-51385288D01*
X110025899Y-51385287D01*
X110021028Y-51383562D01*
X110015935Y-51382655D01*
X110015932Y-51382654D01*
X109798095Y-51343851D01*
X109798089Y-51343850D01*
X109793006Y-51342945D01*
X109720096Y-51342054D01*
X109566581Y-51340179D01*
X109566579Y-51340179D01*
X109561411Y-51340116D01*
X109332464Y-51375150D01*
X109112314Y-51447106D01*
X109107726Y-51449494D01*
X109107722Y-51449496D01*
X108932058Y-51540941D01*
X108906872Y-51554052D01*
X108902739Y-51557155D01*
X108902736Y-51557157D01*
X108725790Y-51690012D01*
X108721655Y-51693117D01*
X108605324Y-51814850D01*
X108543802Y-51850279D01*
X108472890Y-51846822D01*
X108415103Y-51805576D01*
X108405113Y-51790798D01*
X108370874Y-51731494D01*
X108334377Y-51668280D01*
X108304206Y-51634771D01*
X108207496Y-51527364D01*
X108207495Y-51527363D01*
X108203074Y-51522453D01*
X108163801Y-51493919D01*
X108049663Y-51410993D01*
X108049662Y-51410992D01*
X108044321Y-51407112D01*
X108038293Y-51404428D01*
X108038291Y-51404427D01*
X107871087Y-51329983D01*
X107871086Y-51329983D01*
X107865056Y-51327298D01*
X107769085Y-51306899D01*
X107679572Y-51287872D01*
X107679568Y-51287872D01*
X107673115Y-51286500D01*
X107476885Y-51286500D01*
X107470432Y-51287872D01*
X107470428Y-51287872D01*
X107380914Y-51306899D01*
X107284944Y-51327298D01*
X107278914Y-51329983D01*
X107278913Y-51329983D01*
X107111709Y-51404427D01*
X107111707Y-51404428D01*
X107105679Y-51407112D01*
X107100338Y-51410992D01*
X107100337Y-51410993D01*
X106986200Y-51493919D01*
X106946926Y-51522453D01*
X106942505Y-51527363D01*
X106942504Y-51527364D01*
X106845795Y-51634771D01*
X106815623Y-51668280D01*
X106731001Y-51814849D01*
X106725968Y-51823567D01*
X106674586Y-51872560D01*
X106604872Y-51885996D01*
X106538961Y-51859610D01*
X106527754Y-51849662D01*
X106062347Y-51384255D01*
X106051480Y-51371864D01*
X106037045Y-51353052D01*
X106032019Y-51346502D01*
X106000107Y-51322015D01*
X106000104Y-51322012D01*
X105925168Y-51264511D01*
X105911461Y-51253993D01*
X105911459Y-51253992D01*
X105904908Y-51248965D01*
X105756883Y-51187651D01*
X105748696Y-51186573D01*
X105748695Y-51186573D01*
X105737490Y-51185098D01*
X105704083Y-51180700D01*
X105637917Y-51171989D01*
X105637914Y-51171989D01*
X105637906Y-51171988D01*
X105606221Y-51167817D01*
X105598032Y-51166739D01*
X105566339Y-51170911D01*
X105549896Y-51171989D01*
X104767647Y-51171989D01*
X104751201Y-51170911D01*
X104727699Y-51167817D01*
X104719511Y-51166739D01*
X104711323Y-51167817D01*
X104679640Y-51171988D01*
X104679631Y-51171989D01*
X104679626Y-51171989D01*
X104560661Y-51187651D01*
X104553034Y-51190810D01*
X104553031Y-51190811D01*
X104473949Y-51223568D01*
X104412635Y-51248965D01*
X104406084Y-51253992D01*
X104406082Y-51253993D01*
X104392375Y-51264511D01*
X104317439Y-51322012D01*
X104317436Y-51322015D01*
X104285524Y-51346502D01*
X104280494Y-51353057D01*
X104266059Y-51371868D01*
X104255192Y-51384259D01*
X104104856Y-51534595D01*
X104042544Y-51568621D01*
X104015761Y-51571500D01*
X103902411Y-51571500D01*
X103895958Y-51572872D01*
X103895954Y-51572872D01*
X103806954Y-51591790D01*
X103711497Y-51612080D01*
X103705464Y-51614766D01*
X103705458Y-51614768D01*
X103548316Y-51684733D01*
X103477950Y-51694168D01*
X103421502Y-51670453D01*
X103373892Y-51634771D01*
X103373890Y-51634770D01*
X103366705Y-51629385D01*
X103230316Y-51578255D01*
X103168134Y-51571500D01*
X102231866Y-51571500D01*
X102169684Y-51578255D01*
X102033295Y-51629385D01*
X101916739Y-51716739D01*
X101829385Y-51833295D01*
X101778255Y-51969684D01*
X101771500Y-52031866D01*
X101771500Y-52515761D01*
X101751498Y-52583882D01*
X101734595Y-52604856D01*
X101573595Y-52765856D01*
X101511283Y-52799882D01*
X101440468Y-52794817D01*
X101383632Y-52752270D01*
X101358821Y-52685750D01*
X101358500Y-52676761D01*
X101358500Y-52171078D01*
X101344601Y-52038838D01*
X101343820Y-52031409D01*
X101343820Y-52031408D01*
X101343130Y-52024845D01*
X101337450Y-52007362D01*
X101284534Y-51844505D01*
X101282492Y-51838220D01*
X101273502Y-51822648D01*
X101225602Y-51739684D01*
X101184377Y-51668280D01*
X101154206Y-51634771D01*
X101057496Y-51527364D01*
X101057495Y-51527363D01*
X101053074Y-51522453D01*
X101013801Y-51493919D01*
X100899663Y-51410993D01*
X100899662Y-51410992D01*
X100894321Y-51407112D01*
X100888293Y-51404428D01*
X100888291Y-51404427D01*
X100721087Y-51329983D01*
X100721086Y-51329983D01*
X100715056Y-51327298D01*
X100619085Y-51306899D01*
X100529572Y-51287872D01*
X100529568Y-51287872D01*
X100523115Y-51286500D01*
X100326885Y-51286500D01*
X100320432Y-51287872D01*
X100320428Y-51287872D01*
X100230914Y-51306899D01*
X100134944Y-51327298D01*
X100128914Y-51329983D01*
X100128913Y-51329983D01*
X99961709Y-51404427D01*
X99961707Y-51404428D01*
X99955679Y-51407112D01*
X99950338Y-51410992D01*
X99950337Y-51410993D01*
X99836200Y-51493919D01*
X99796926Y-51522453D01*
X99792505Y-51527363D01*
X99792504Y-51527364D01*
X99695795Y-51634771D01*
X99665623Y-51668280D01*
X99624398Y-51739684D01*
X99576499Y-51822648D01*
X99567508Y-51838220D01*
X99565466Y-51844505D01*
X99512551Y-52007362D01*
X99506870Y-52024845D01*
X99506180Y-52031408D01*
X99506180Y-52031409D01*
X99505399Y-52038838D01*
X99491500Y-52171078D01*
X99491500Y-53268922D01*
X99506870Y-53415155D01*
X99508910Y-53421433D01*
X99508910Y-53421434D01*
X99524583Y-53469669D01*
X99567508Y-53601780D01*
X99570811Y-53607502D01*
X99570812Y-53607503D01*
X99591161Y-53642749D01*
X99665623Y-53771720D01*
X99670041Y-53776627D01*
X99670042Y-53776628D01*
X99685040Y-53793285D01*
X99772858Y-53890816D01*
X99784136Y-53903342D01*
X99814853Y-53967349D01*
X99816500Y-53987652D01*
X99816500Y-54850102D01*
X99796498Y-54918223D01*
X99742842Y-54964716D01*
X99689842Y-54976100D01*
X99632878Y-54975802D01*
X99632872Y-54975802D01*
X99628591Y-54975780D01*
X99624347Y-54976339D01*
X99624343Y-54976339D01*
X99505302Y-54992011D01*
X99357078Y-55011525D01*
X99352938Y-55012658D01*
X99352936Y-55012658D01*
X99280008Y-55032609D01*
X99092928Y-55083788D01*
X99088980Y-55085472D01*
X98844982Y-55189546D01*
X98844978Y-55189548D01*
X98841030Y-55191232D01*
X98759633Y-55239947D01*
X98609725Y-55329664D01*
X98609721Y-55329667D01*
X98606043Y-55331868D01*
X98392318Y-55503094D01*
X98290185Y-55610720D01*
X98213671Y-55691349D01*
X98203808Y-55701742D01*
X98044002Y-55924136D01*
X97915857Y-56166161D01*
X97914385Y-56170184D01*
X97914383Y-56170188D01*
X97836021Y-56384320D01*
X97821743Y-56423337D01*
X97763404Y-56690907D01*
X97741917Y-56963918D01*
X97757682Y-57237320D01*
X97758507Y-57241525D01*
X97758508Y-57241533D01*
X97782641Y-57364539D01*
X97810405Y-57506053D01*
X97811792Y-57510103D01*
X97811793Y-57510108D01*
X97892731Y-57746507D01*
X97899112Y-57765144D01*
X97950762Y-57867840D01*
X98010653Y-57986919D01*
X98022160Y-58009799D01*
X98024586Y-58013328D01*
X98024589Y-58013334D01*
X98165626Y-58218542D01*
X98177274Y-58235490D01*
X98180161Y-58238663D01*
X98180162Y-58238664D01*
X98325103Y-58397953D01*
X98361582Y-58438043D01*
X98364877Y-58440798D01*
X98364878Y-58440799D01*
X98463819Y-58523526D01*
X98571675Y-58613707D01*
X98575316Y-58615991D01*
X98800024Y-58756951D01*
X98800028Y-58756953D01*
X98803664Y-58759234D01*
X98921114Y-58812265D01*
X99049345Y-58870164D01*
X99049349Y-58870166D01*
X99053257Y-58871930D01*
X99057377Y-58873150D01*
X99057376Y-58873150D01*
X99311723Y-58948491D01*
X99311727Y-58948492D01*
X99315836Y-58949709D01*
X99320070Y-58950357D01*
X99320075Y-58950358D01*
X99582298Y-58990483D01*
X99582300Y-58990483D01*
X99586540Y-58991132D01*
X99725912Y-58993322D01*
X99856071Y-58995367D01*
X99856077Y-58995367D01*
X99860362Y-58995434D01*
X100132235Y-58962534D01*
X100397127Y-58893041D01*
X100401087Y-58891401D01*
X100401092Y-58891399D01*
X100615045Y-58802776D01*
X100650136Y-58788241D01*
X100653835Y-58786079D01*
X100653846Y-58786074D01*
X100756441Y-58726122D01*
X100825347Y-58709023D01*
X100892560Y-58731892D01*
X100936739Y-58787469D01*
X100946011Y-58834910D01*
X100946011Y-60815297D01*
X100931054Y-60874840D01*
X100929888Y-60877014D01*
X100925521Y-60883228D01*
X100902002Y-60943551D01*
X100867799Y-61031277D01*
X100863229Y-61042998D01*
X100862237Y-61050531D01*
X100862237Y-61050532D01*
X100851080Y-61135283D01*
X100840846Y-61213015D01*
X100848828Y-61285316D01*
X100857353Y-61362529D01*
X100859664Y-61383464D01*
X100862273Y-61390595D01*
X100862274Y-61390597D01*
X100915985Y-61537368D01*
X100918596Y-61544504D01*
X100922831Y-61550807D01*
X100922836Y-61550816D01*
X100924594Y-61553432D01*
X100925227Y-61555507D01*
X100926282Y-61557579D01*
X100925915Y-61557766D01*
X100946011Y-61623705D01*
X100946011Y-63436250D01*
X100926009Y-63504371D01*
X100909106Y-63525345D01*
X98894856Y-65539595D01*
X98832544Y-65573621D01*
X98805761Y-65576500D01*
X97661866Y-65576500D01*
X97599684Y-65583255D01*
X97463295Y-65634385D01*
X97346739Y-65721739D01*
X97259385Y-65838295D01*
X97208255Y-65974684D01*
X97201500Y-66036866D01*
X97201500Y-67633134D01*
X95149923Y-67633134D01*
X95261458Y-67477917D01*
X95273159Y-67454243D01*
X95361784Y-67274922D01*
X95361785Y-67274920D01*
X95364078Y-67270280D01*
X95431408Y-67048671D01*
X95461640Y-66819041D01*
X95462229Y-66794923D01*
X95463245Y-66753365D01*
X95463245Y-66753361D01*
X95463327Y-66750000D01*
X95450969Y-66599684D01*
X95444773Y-66524318D01*
X95444772Y-66524312D01*
X95444349Y-66519167D01*
X95407028Y-66370586D01*
X95389184Y-66299544D01*
X95389183Y-66299540D01*
X95387925Y-66294533D01*
X95385056Y-66287934D01*
X95297630Y-66086868D01*
X95297628Y-66086865D01*
X95295570Y-66082131D01*
X95169764Y-65887665D01*
X95151395Y-65867477D01*
X95080449Y-65789509D01*
X95013887Y-65716358D01*
X95009836Y-65713159D01*
X95009832Y-65713155D01*
X94836177Y-65576011D01*
X94836172Y-65576008D01*
X94832123Y-65572810D01*
X94827607Y-65570317D01*
X94827604Y-65570315D01*
X94633879Y-65463373D01*
X94633875Y-65463371D01*
X94629355Y-65460876D01*
X94624486Y-65459152D01*
X94624482Y-65459150D01*
X94415903Y-65385288D01*
X94415899Y-65385287D01*
X94411028Y-65383562D01*
X94405935Y-65382655D01*
X94405932Y-65382654D01*
X94188095Y-65343851D01*
X94188089Y-65343850D01*
X94183006Y-65342945D01*
X94110096Y-65342054D01*
X93956581Y-65340179D01*
X93956579Y-65340179D01*
X93951411Y-65340116D01*
X93722464Y-65375150D01*
X93502314Y-65447106D01*
X93497726Y-65449494D01*
X93497722Y-65449496D01*
X93311235Y-65546575D01*
X93296872Y-65554052D01*
X93292739Y-65557155D01*
X93292736Y-65557157D01*
X93144319Y-65668592D01*
X93111655Y-65693117D01*
X93094587Y-65710978D01*
X93094170Y-65711414D01*
X93032646Y-65746844D01*
X92961733Y-65743387D01*
X92903947Y-65702141D01*
X92885094Y-65668592D01*
X92863768Y-65611705D01*
X92863767Y-65611703D01*
X92860615Y-65603295D01*
X92773261Y-65486739D01*
X92656705Y-65399385D01*
X92520316Y-65348255D01*
X92458134Y-65341500D01*
X90561866Y-65341500D01*
X90499684Y-65348255D01*
X90363295Y-65399385D01*
X90246739Y-65486739D01*
X90159385Y-65603295D01*
X90108255Y-65739684D01*
X90101500Y-65801866D01*
X90101500Y-67698134D01*
X88508500Y-67698134D01*
X88508500Y-60769394D01*
X88528502Y-60701273D01*
X88562229Y-60666181D01*
X88714789Y-60559357D01*
X88714792Y-60559355D01*
X88719300Y-60556198D01*
X88881198Y-60394300D01*
X88885442Y-60388240D01*
X89009366Y-60211257D01*
X89012523Y-60206749D01*
X89014846Y-60201767D01*
X89014849Y-60201762D01*
X89106961Y-60004225D01*
X89106961Y-60004224D01*
X89109284Y-59999243D01*
X89139708Y-59885702D01*
X89167119Y-59783402D01*
X89167119Y-59783400D01*
X89168543Y-59778087D01*
X89188498Y-59550000D01*
X89168543Y-59321913D01*
X89167119Y-59316598D01*
X89110707Y-59106067D01*
X89110706Y-59106065D01*
X89109284Y-59100757D01*
X89094176Y-59068357D01*
X89014849Y-58898238D01*
X89014846Y-58898233D01*
X89012523Y-58893251D01*
X88934114Y-58781271D01*
X88884357Y-58710211D01*
X88884355Y-58710208D01*
X88881198Y-58705700D01*
X88719300Y-58543802D01*
X88714792Y-58540645D01*
X88714789Y-58540643D01*
X88629744Y-58481094D01*
X88531749Y-58412477D01*
X88526767Y-58410154D01*
X88526762Y-58410151D01*
X88329225Y-58318039D01*
X88329224Y-58318039D01*
X88324243Y-58315716D01*
X88318935Y-58314294D01*
X88318933Y-58314293D01*
X88108402Y-58257881D01*
X88108400Y-58257881D01*
X88103087Y-58256457D01*
X87875000Y-58236502D01*
X87646913Y-58256457D01*
X87641600Y-58257881D01*
X87641598Y-58257881D01*
X87431067Y-58314293D01*
X87431065Y-58314294D01*
X87425757Y-58315716D01*
X87420776Y-58318039D01*
X87420775Y-58318039D01*
X87223238Y-58410151D01*
X87223233Y-58410154D01*
X87218251Y-58412477D01*
X87120256Y-58481094D01*
X87035211Y-58540643D01*
X87035208Y-58540645D01*
X87030700Y-58543802D01*
X86868802Y-58705700D01*
X86865645Y-58710208D01*
X86865643Y-58710211D01*
X86815886Y-58781271D01*
X86737477Y-58893251D01*
X86735154Y-58898233D01*
X86735151Y-58898238D01*
X86719195Y-58932457D01*
X86672278Y-58985742D01*
X86604001Y-59005203D01*
X86536041Y-58984661D01*
X86490805Y-58932457D01*
X86474849Y-58898238D01*
X86474846Y-58898233D01*
X86472523Y-58893251D01*
X86394114Y-58781271D01*
X86344357Y-58710211D01*
X86344355Y-58710208D01*
X86341198Y-58705700D01*
X86179300Y-58543802D01*
X86174792Y-58540645D01*
X86174789Y-58540643D01*
X86089744Y-58481094D01*
X85991749Y-58412477D01*
X85986767Y-58410154D01*
X85986762Y-58410151D01*
X85789225Y-58318039D01*
X85789224Y-58318039D01*
X85784243Y-58315716D01*
X85778935Y-58314294D01*
X85778933Y-58314293D01*
X85568402Y-58257881D01*
X85568400Y-58257881D01*
X85563087Y-58256457D01*
X85335000Y-58236502D01*
X85106913Y-58256457D01*
X85002599Y-58284408D01*
X84931624Y-58282718D01*
X84872828Y-58242924D01*
X84844880Y-58177660D01*
X84843989Y-58162701D01*
X84843989Y-53369105D01*
X84863991Y-53300984D01*
X84880894Y-53280010D01*
X84921752Y-53239152D01*
X84984064Y-53205126D01*
X85043459Y-53206541D01*
X85101591Y-53222118D01*
X85101602Y-53222120D01*
X85106913Y-53223543D01*
X85335000Y-53243498D01*
X85563087Y-53223543D01*
X85568400Y-53222119D01*
X85568402Y-53222119D01*
X85778933Y-53165707D01*
X85778935Y-53165706D01*
X85784243Y-53164284D01*
X85838933Y-53138782D01*
X85986762Y-53069849D01*
X85986767Y-53069846D01*
X85991749Y-53067523D01*
X86127931Y-52972167D01*
X86174789Y-52939357D01*
X86174792Y-52939355D01*
X86179300Y-52936198D01*
X86341198Y-52774300D01*
X86472523Y-52586749D01*
X86474846Y-52581767D01*
X86474849Y-52581762D01*
X86491081Y-52546951D01*
X86537998Y-52493666D01*
X86606275Y-52474205D01*
X86674235Y-52494747D01*
X86719471Y-52546951D01*
X86735586Y-52581511D01*
X86741069Y-52591007D01*
X86866028Y-52769467D01*
X86873084Y-52777875D01*
X87027125Y-52931916D01*
X87035533Y-52938972D01*
X87213993Y-53063931D01*
X87223489Y-53069414D01*
X87420947Y-53161490D01*
X87431239Y-53165236D01*
X87603503Y-53211394D01*
X87617599Y-53211058D01*
X87621000Y-53203116D01*
X87621000Y-53197967D01*
X88129000Y-53197967D01*
X88132973Y-53211498D01*
X88141522Y-53212727D01*
X88318761Y-53165236D01*
X88329053Y-53161490D01*
X88526511Y-53069414D01*
X88536007Y-53063931D01*
X88714467Y-52938972D01*
X88722875Y-52931916D01*
X88876916Y-52777875D01*
X88883972Y-52769467D01*
X88950118Y-52675000D01*
X89706693Y-52675000D01*
X89725885Y-52894371D01*
X89782880Y-53107076D01*
X89820132Y-53186963D01*
X89873618Y-53301666D01*
X89873621Y-53301671D01*
X89875944Y-53306653D01*
X89879100Y-53311160D01*
X89879101Y-53311162D01*
X89956315Y-53421434D01*
X90002251Y-53487038D01*
X90157962Y-53642749D01*
X90162471Y-53645906D01*
X90162473Y-53645908D01*
X90307771Y-53747647D01*
X90352099Y-53803104D01*
X90361500Y-53850860D01*
X90361500Y-54790279D01*
X90338586Y-54862731D01*
X90321010Y-54887739D01*
X90318250Y-54894819D01*
X90263212Y-55035983D01*
X90258718Y-55047509D01*
X90257726Y-55055042D01*
X90257726Y-55055043D01*
X90238245Y-55203019D01*
X90236335Y-55217526D01*
X90243090Y-55278710D01*
X90249664Y-55338254D01*
X90255153Y-55387975D01*
X90257762Y-55395106D01*
X90257763Y-55395108D01*
X90280802Y-55458064D01*
X90314085Y-55549015D01*
X90318322Y-55555321D01*
X90318324Y-55555324D01*
X90355549Y-55610720D01*
X90409730Y-55691349D01*
X90536565Y-55806760D01*
X90687268Y-55888585D01*
X90853139Y-55932101D01*
X90940586Y-55933474D01*
X91017003Y-55934675D01*
X91017006Y-55934675D01*
X91024602Y-55934794D01*
X91032006Y-55933098D01*
X91032008Y-55933098D01*
X91095610Y-55918531D01*
X91191759Y-55896510D01*
X91344958Y-55819459D01*
X91350729Y-55814530D01*
X91350732Y-55814528D01*
X91469578Y-55713023D01*
X91475355Y-55708089D01*
X91575424Y-55568830D01*
X91639385Y-55409720D01*
X91652702Y-55316150D01*
X91662966Y-55244031D01*
X91662966Y-55244027D01*
X91663547Y-55239947D01*
X91663704Y-55225000D01*
X91656028Y-55161571D01*
X91644015Y-55062299D01*
X91644014Y-55062296D01*
X91643102Y-55054758D01*
X91640385Y-55047566D01*
X91586634Y-54905319D01*
X91578500Y-54860781D01*
X91578500Y-53850860D01*
X91598502Y-53782739D01*
X91632229Y-53747647D01*
X91777527Y-53645908D01*
X91777529Y-53645906D01*
X91782038Y-53642749D01*
X91937749Y-53487038D01*
X91983686Y-53421434D01*
X92060899Y-53311162D01*
X92060900Y-53311160D01*
X92064056Y-53306653D01*
X92066379Y-53301671D01*
X92066382Y-53301666D01*
X92119868Y-53186963D01*
X92125805Y-53174231D01*
X92172722Y-53120946D01*
X92240999Y-53101485D01*
X92308959Y-53122027D01*
X92354195Y-53174230D01*
X92360132Y-53186963D01*
X92413618Y-53301666D01*
X92413621Y-53301671D01*
X92415944Y-53306653D01*
X92419100Y-53311160D01*
X92419101Y-53311162D01*
X92496315Y-53421434D01*
X92542251Y-53487038D01*
X92697962Y-53642749D01*
X92702471Y-53645906D01*
X92702473Y-53645908D01*
X92847771Y-53747647D01*
X92892099Y-53803104D01*
X92901500Y-53850860D01*
X92901500Y-60456864D01*
X92900422Y-60473307D01*
X92896250Y-60505000D01*
X92901500Y-60544880D01*
X92901500Y-60544885D01*
X92906610Y-60583700D01*
X92917162Y-60663851D01*
X92978476Y-60811876D01*
X92983503Y-60818427D01*
X92983504Y-60818429D01*
X93051520Y-60907069D01*
X93051526Y-60907075D01*
X93076013Y-60938987D01*
X93082568Y-60944017D01*
X93101379Y-60958452D01*
X93113770Y-60969319D01*
X94703319Y-62558868D01*
X94737345Y-62621180D01*
X94735931Y-62680574D01*
X94711457Y-62771913D01*
X94691502Y-63000000D01*
X94711457Y-63228087D01*
X94712881Y-63233400D01*
X94712881Y-63233402D01*
X94767235Y-63436250D01*
X94770716Y-63449243D01*
X94773039Y-63454224D01*
X94773039Y-63454225D01*
X94865151Y-63651762D01*
X94865154Y-63651767D01*
X94867477Y-63656749D01*
X94931714Y-63748489D01*
X94992312Y-63835031D01*
X94998802Y-63844300D01*
X95160700Y-64006198D01*
X95165208Y-64009355D01*
X95165211Y-64009357D01*
X95204174Y-64036639D01*
X95348251Y-64137523D01*
X95353233Y-64139846D01*
X95353238Y-64139849D01*
X95540520Y-64227179D01*
X95555757Y-64234284D01*
X95561065Y-64235706D01*
X95561067Y-64235707D01*
X95771598Y-64292119D01*
X95771600Y-64292119D01*
X95776913Y-64293543D01*
X96005000Y-64313498D01*
X96233087Y-64293543D01*
X96238400Y-64292119D01*
X96238402Y-64292119D01*
X96448933Y-64235707D01*
X96448935Y-64235706D01*
X96454243Y-64234284D01*
X96469480Y-64227179D01*
X96656762Y-64139849D01*
X96656767Y-64139846D01*
X96661749Y-64137523D01*
X96805826Y-64036639D01*
X96844789Y-64009357D01*
X96844792Y-64009355D01*
X96849300Y-64006198D01*
X97011198Y-63844300D01*
X97017689Y-63835031D01*
X97078286Y-63748489D01*
X97142523Y-63656749D01*
X97144846Y-63651767D01*
X97144849Y-63651762D01*
X97236961Y-63454225D01*
X97236961Y-63454224D01*
X97239284Y-63449243D01*
X97242766Y-63436250D01*
X97297119Y-63233402D01*
X97297119Y-63233400D01*
X97298543Y-63228087D01*
X97318498Y-63000000D01*
X97298543Y-62771913D01*
X97270935Y-62668879D01*
X97240707Y-62556067D01*
X97240706Y-62556065D01*
X97239284Y-62550757D01*
X97213475Y-62495409D01*
X97144849Y-62348238D01*
X97144846Y-62348233D01*
X97142523Y-62343251D01*
X97054989Y-62218240D01*
X97014357Y-62160211D01*
X97014355Y-62160208D01*
X97011198Y-62155700D01*
X96849300Y-61993802D01*
X96844792Y-61990645D01*
X96844789Y-61990643D01*
X96751986Y-61925662D01*
X96661749Y-61862477D01*
X96656767Y-61860154D01*
X96656762Y-61860151D01*
X96459225Y-61768039D01*
X96459224Y-61768039D01*
X96454243Y-61765716D01*
X96448935Y-61764294D01*
X96448933Y-61764293D01*
X96238402Y-61707881D01*
X96238400Y-61707881D01*
X96233087Y-61706457D01*
X96005000Y-61686502D01*
X95776913Y-61706457D01*
X95771600Y-61707881D01*
X95771598Y-61707881D01*
X95685574Y-61730931D01*
X95614597Y-61729241D01*
X95563868Y-61698319D01*
X94271611Y-60406062D01*
X95078493Y-60406062D01*
X95087789Y-60418077D01*
X95138994Y-60453931D01*
X95148489Y-60459414D01*
X95345947Y-60551490D01*
X95356239Y-60555236D01*
X95566688Y-60611625D01*
X95577481Y-60613528D01*
X95794525Y-60632517D01*
X95805475Y-60632517D01*
X96022519Y-60613528D01*
X96033312Y-60611625D01*
X96243761Y-60555236D01*
X96254053Y-60551490D01*
X96451511Y-60459414D01*
X96461006Y-60453931D01*
X96513048Y-60417491D01*
X96521424Y-60407012D01*
X96514356Y-60393566D01*
X95812812Y-59692022D01*
X95798868Y-59684408D01*
X95797035Y-59684539D01*
X95790420Y-59688790D01*
X95084923Y-60394287D01*
X95078493Y-60406062D01*
X94271611Y-60406062D01*
X94155405Y-60289856D01*
X94121379Y-60227544D01*
X94118500Y-60200761D01*
X94118500Y-59325475D01*
X94487483Y-59325475D01*
X94506472Y-59542519D01*
X94508375Y-59553312D01*
X94564764Y-59763761D01*
X94568510Y-59774053D01*
X94660586Y-59971511D01*
X94666069Y-59981006D01*
X94702509Y-60033048D01*
X94712988Y-60041424D01*
X94726434Y-60034356D01*
X95427978Y-59332812D01*
X95434356Y-59321132D01*
X96164408Y-59321132D01*
X96164539Y-59322965D01*
X96168790Y-59329580D01*
X96874287Y-60035077D01*
X96886062Y-60041507D01*
X96898077Y-60032211D01*
X96933931Y-59981006D01*
X96939414Y-59971511D01*
X97031490Y-59774053D01*
X97035236Y-59763761D01*
X97091625Y-59553312D01*
X97093528Y-59542519D01*
X97112517Y-59325475D01*
X97112517Y-59314525D01*
X97093528Y-59097481D01*
X97091625Y-59086688D01*
X97035236Y-58876239D01*
X97031490Y-58865947D01*
X96939414Y-58668489D01*
X96933931Y-58658994D01*
X96897491Y-58606952D01*
X96887012Y-58598576D01*
X96873566Y-58605644D01*
X96172022Y-59307188D01*
X96164408Y-59321132D01*
X95434356Y-59321132D01*
X95435592Y-59318868D01*
X95435461Y-59317035D01*
X95431210Y-59310420D01*
X94725713Y-58604923D01*
X94713938Y-58598493D01*
X94701923Y-58607789D01*
X94666069Y-58658994D01*
X94660586Y-58668489D01*
X94568510Y-58865947D01*
X94564764Y-58876239D01*
X94508375Y-59086688D01*
X94506472Y-59097481D01*
X94487483Y-59314525D01*
X94487483Y-59325475D01*
X94118500Y-59325475D01*
X94118500Y-56780000D01*
X94486502Y-56780000D01*
X94506457Y-57008087D01*
X94507881Y-57013400D01*
X94507881Y-57013402D01*
X94516089Y-57044032D01*
X94565716Y-57229243D01*
X94568039Y-57234224D01*
X94568039Y-57234225D01*
X94660151Y-57431762D01*
X94660154Y-57431767D01*
X94662477Y-57436749D01*
X94692099Y-57479053D01*
X94786852Y-57614374D01*
X94793802Y-57624300D01*
X94955700Y-57786198D01*
X94960208Y-57789355D01*
X94960211Y-57789357D01*
X95038389Y-57844098D01*
X95143251Y-57917523D01*
X95148233Y-57919846D01*
X95148238Y-57919849D01*
X95183049Y-57936081D01*
X95236334Y-57982998D01*
X95255795Y-58051275D01*
X95235253Y-58119235D01*
X95183049Y-58164471D01*
X95148489Y-58180586D01*
X95138994Y-58186069D01*
X95086952Y-58222509D01*
X95078576Y-58232988D01*
X95085644Y-58246434D01*
X95787188Y-58947978D01*
X95801132Y-58955592D01*
X95802965Y-58955461D01*
X95809580Y-58951210D01*
X96515077Y-58245713D01*
X96521507Y-58233938D01*
X96512211Y-58221923D01*
X96461006Y-58186069D01*
X96451511Y-58180586D01*
X96416951Y-58164471D01*
X96363666Y-58117554D01*
X96344205Y-58049277D01*
X96364747Y-57981317D01*
X96416951Y-57936081D01*
X96451762Y-57919849D01*
X96451767Y-57919846D01*
X96456749Y-57917523D01*
X96561611Y-57844098D01*
X96639789Y-57789357D01*
X96639792Y-57789355D01*
X96644300Y-57786198D01*
X96806198Y-57624300D01*
X96813149Y-57614374D01*
X96907901Y-57479053D01*
X96937523Y-57436749D01*
X96939846Y-57431767D01*
X96939849Y-57431762D01*
X97031961Y-57234225D01*
X97031961Y-57234224D01*
X97034284Y-57229243D01*
X97083912Y-57044032D01*
X97092119Y-57013402D01*
X97092119Y-57013400D01*
X97093543Y-57008087D01*
X97113498Y-56780000D01*
X97093543Y-56551913D01*
X97079956Y-56501206D01*
X97035707Y-56336067D01*
X97035706Y-56336065D01*
X97034284Y-56330757D01*
X97024158Y-56309042D01*
X96939849Y-56128238D01*
X96939846Y-56128233D01*
X96937523Y-56123251D01*
X96848983Y-55996803D01*
X96809357Y-55940211D01*
X96809355Y-55940208D01*
X96806198Y-55935700D01*
X96644300Y-55773802D01*
X96639792Y-55770645D01*
X96639789Y-55770643D01*
X96504003Y-55675565D01*
X96456749Y-55642477D01*
X96451767Y-55640154D01*
X96451762Y-55640151D01*
X96254225Y-55548039D01*
X96254224Y-55548039D01*
X96249243Y-55545716D01*
X96243935Y-55544294D01*
X96243933Y-55544293D01*
X96033402Y-55487881D01*
X96033400Y-55487881D01*
X96028087Y-55486457D01*
X95800000Y-55466502D01*
X95571913Y-55486457D01*
X95566600Y-55487881D01*
X95566598Y-55487881D01*
X95356067Y-55544293D01*
X95356065Y-55544294D01*
X95350757Y-55545716D01*
X95345776Y-55548039D01*
X95345775Y-55548039D01*
X95148238Y-55640151D01*
X95148233Y-55640154D01*
X95143251Y-55642477D01*
X95095997Y-55675565D01*
X94960211Y-55770643D01*
X94960208Y-55770645D01*
X94955700Y-55773802D01*
X94793802Y-55935700D01*
X94790645Y-55940208D01*
X94790643Y-55940211D01*
X94751017Y-55996803D01*
X94662477Y-56123251D01*
X94660154Y-56128233D01*
X94660151Y-56128238D01*
X94575842Y-56309042D01*
X94565716Y-56330757D01*
X94564294Y-56336065D01*
X94564293Y-56336067D01*
X94520044Y-56501206D01*
X94506457Y-56551913D01*
X94486502Y-56780000D01*
X94118500Y-56780000D01*
X94118500Y-53850860D01*
X94138502Y-53782739D01*
X94172229Y-53747647D01*
X94317527Y-53645908D01*
X94317529Y-53645906D01*
X94322038Y-53642749D01*
X94477749Y-53487038D01*
X94523686Y-53421434D01*
X94562788Y-53365590D01*
X94618245Y-53321262D01*
X94688865Y-53313953D01*
X94752225Y-53345984D01*
X94788210Y-53407185D01*
X94792001Y-53437861D01*
X94792001Y-53469669D01*
X94792371Y-53476490D01*
X94797895Y-53527352D01*
X94801521Y-53542604D01*
X94846676Y-53663054D01*
X94855214Y-53678649D01*
X94931715Y-53780724D01*
X94944276Y-53793285D01*
X95046351Y-53869786D01*
X95061946Y-53878324D01*
X95182394Y-53923478D01*
X95197649Y-53927105D01*
X95248514Y-53932631D01*
X95255328Y-53933000D01*
X95777885Y-53933000D01*
X95793124Y-53928525D01*
X95794329Y-53927135D01*
X95796000Y-53919452D01*
X95796000Y-53914884D01*
X96304000Y-53914884D01*
X96308475Y-53930123D01*
X96309865Y-53931328D01*
X96317548Y-53932999D01*
X96844669Y-53932999D01*
X96851490Y-53932629D01*
X96902352Y-53927105D01*
X96917604Y-53923479D01*
X97038054Y-53878324D01*
X97053649Y-53869786D01*
X97155724Y-53793285D01*
X97168285Y-53780724D01*
X97244786Y-53678649D01*
X97253324Y-53663054D01*
X97298478Y-53542606D01*
X97302105Y-53527351D01*
X97307631Y-53476486D01*
X97308000Y-53469672D01*
X97308000Y-52947115D01*
X97303525Y-52931876D01*
X97302135Y-52930671D01*
X97294452Y-52929000D01*
X96322115Y-52929000D01*
X96306876Y-52933475D01*
X96305671Y-52934865D01*
X96304000Y-52942548D01*
X96304000Y-53914884D01*
X95796000Y-53914884D01*
X95796000Y-52402885D01*
X96304000Y-52402885D01*
X96308475Y-52418124D01*
X96309865Y-52419329D01*
X96317548Y-52421000D01*
X97289884Y-52421000D01*
X97305123Y-52416525D01*
X97306328Y-52415135D01*
X97307999Y-52407452D01*
X97307999Y-51880331D01*
X97307629Y-51873510D01*
X97302105Y-51822648D01*
X97298479Y-51807396D01*
X97253324Y-51686946D01*
X97244786Y-51671351D01*
X97168285Y-51569276D01*
X97155724Y-51556715D01*
X97053649Y-51480214D01*
X97038054Y-51471676D01*
X96917606Y-51426522D01*
X96902351Y-51422895D01*
X96851486Y-51417369D01*
X96844672Y-51417000D01*
X96322115Y-51417000D01*
X96306876Y-51421475D01*
X96305671Y-51422865D01*
X96304000Y-51430548D01*
X96304000Y-52402885D01*
X95796000Y-52402885D01*
X95796000Y-51435116D01*
X95791525Y-51419877D01*
X95790135Y-51418672D01*
X95782452Y-51417001D01*
X95255331Y-51417001D01*
X95248510Y-51417371D01*
X95197648Y-51422895D01*
X95182396Y-51426521D01*
X95061946Y-51471676D01*
X95046351Y-51480214D01*
X94944276Y-51556715D01*
X94931715Y-51569276D01*
X94855214Y-51671351D01*
X94846676Y-51686946D01*
X94801522Y-51807394D01*
X94797895Y-51822649D01*
X94792369Y-51873514D01*
X94792000Y-51880328D01*
X94792000Y-51912138D01*
X94771998Y-51980259D01*
X94718342Y-52026752D01*
X94648068Y-52036856D01*
X94583488Y-52007362D01*
X94562787Y-51984409D01*
X94480908Y-51867473D01*
X94480906Y-51867470D01*
X94477749Y-51862962D01*
X94322038Y-51707251D01*
X94311486Y-51699862D01*
X94188934Y-51614050D01*
X94141654Y-51580944D01*
X93942076Y-51487880D01*
X93729371Y-51430885D01*
X93510000Y-51411693D01*
X93290629Y-51430885D01*
X93077924Y-51487880D01*
X93012109Y-51518570D01*
X92883334Y-51578618D01*
X92883329Y-51578621D01*
X92878347Y-51580944D01*
X92873840Y-51584100D01*
X92873838Y-51584101D01*
X92702473Y-51704092D01*
X92702470Y-51704094D01*
X92697962Y-51707251D01*
X92542251Y-51862962D01*
X92539094Y-51867470D01*
X92539092Y-51867473D01*
X92419101Y-52038838D01*
X92415944Y-52043347D01*
X92413621Y-52048329D01*
X92413618Y-52048334D01*
X92354195Y-52175769D01*
X92307278Y-52229054D01*
X92239001Y-52248515D01*
X92171041Y-52227973D01*
X92125805Y-52175769D01*
X92066382Y-52048334D01*
X92066379Y-52048329D01*
X92064056Y-52043347D01*
X92060899Y-52038838D01*
X91940908Y-51867473D01*
X91940906Y-51867470D01*
X91937749Y-51862962D01*
X91782038Y-51707251D01*
X91771486Y-51699862D01*
X91648934Y-51614050D01*
X91601654Y-51580944D01*
X91402076Y-51487880D01*
X91189371Y-51430885D01*
X90970000Y-51411693D01*
X90750629Y-51430885D01*
X90537924Y-51487880D01*
X90472109Y-51518570D01*
X90343334Y-51578618D01*
X90343329Y-51578621D01*
X90338347Y-51580944D01*
X90333840Y-51584100D01*
X90333838Y-51584101D01*
X90162473Y-51704092D01*
X90162470Y-51704094D01*
X90157962Y-51707251D01*
X90002251Y-51862962D01*
X89999094Y-51867470D01*
X89999092Y-51867473D01*
X89879101Y-52038838D01*
X89875944Y-52043347D01*
X89873621Y-52048329D01*
X89873618Y-52048334D01*
X89847199Y-52104991D01*
X89782880Y-52242924D01*
X89725885Y-52455629D01*
X89706693Y-52675000D01*
X88950118Y-52675000D01*
X89008931Y-52591007D01*
X89014414Y-52581511D01*
X89106490Y-52384053D01*
X89110236Y-52373761D01*
X89156394Y-52201497D01*
X89156058Y-52187401D01*
X89148116Y-52184000D01*
X88147115Y-52184000D01*
X88131876Y-52188475D01*
X88130671Y-52189865D01*
X88129000Y-52197548D01*
X88129000Y-53197967D01*
X87621000Y-53197967D01*
X87621000Y-51802000D01*
X87641002Y-51733879D01*
X87694658Y-51687386D01*
X87747000Y-51676000D01*
X89142967Y-51676000D01*
X89156498Y-51672027D01*
X89157727Y-51663478D01*
X89110236Y-51486239D01*
X89106490Y-51475947D01*
X89014414Y-51278489D01*
X89008931Y-51268993D01*
X88883972Y-51090533D01*
X88876916Y-51082125D01*
X88722875Y-50928084D01*
X88714467Y-50921028D01*
X88536007Y-50796069D01*
X88526511Y-50790586D01*
X88435602Y-50748195D01*
X88382317Y-50701278D01*
X88362856Y-50633000D01*
X88383398Y-50565041D01*
X88437421Y-50518975D01*
X88488852Y-50508000D01*
X120166000Y-50508000D01*
X120234121Y-50528002D01*
X120280614Y-50581658D01*
X120292000Y-50634000D01*
X120292000Y-56044950D01*
X120271998Y-56113071D01*
X120218342Y-56159564D01*
X120148068Y-56169668D01*
X120083488Y-56140174D01*
X120062787Y-56117221D01*
X119984357Y-56005211D01*
X119984355Y-56005208D01*
X119981198Y-56000700D01*
X119819300Y-55838802D01*
X119814792Y-55835645D01*
X119814789Y-55835643D01*
X119706302Y-55759680D01*
X119631749Y-55707477D01*
X119626767Y-55705154D01*
X119626762Y-55705151D01*
X119429225Y-55613039D01*
X119429224Y-55613039D01*
X119424243Y-55610716D01*
X119418935Y-55609294D01*
X119418933Y-55609293D01*
X119208402Y-55552881D01*
X119208400Y-55552881D01*
X119203087Y-55551457D01*
X118975000Y-55531502D01*
X118746913Y-55551457D01*
X118741600Y-55552881D01*
X118741598Y-55552881D01*
X118531067Y-55609293D01*
X118531065Y-55609294D01*
X118525757Y-55610716D01*
X118520776Y-55613039D01*
X118520775Y-55613039D01*
X118323238Y-55705151D01*
X118323233Y-55705154D01*
X118318251Y-55707477D01*
X118243698Y-55759680D01*
X118135211Y-55835643D01*
X118135208Y-55835645D01*
X118130700Y-55838802D01*
X117968802Y-56000700D01*
X117965645Y-56005208D01*
X117965643Y-56005211D01*
X117937818Y-56044950D01*
X117837477Y-56188251D01*
X117835154Y-56193233D01*
X117835151Y-56193238D01*
X117745600Y-56385283D01*
X117740716Y-56395757D01*
X117739294Y-56401065D01*
X117739293Y-56401067D01*
X117691016Y-56581239D01*
X117681457Y-56616913D01*
X117661502Y-56845000D01*
X117681457Y-57073087D01*
X117740716Y-57294243D01*
X117743039Y-57299224D01*
X117743039Y-57299225D01*
X117835151Y-57496762D01*
X117835154Y-57496767D01*
X117837477Y-57501749D01*
X117856174Y-57528451D01*
X117963805Y-57682163D01*
X117968802Y-57689300D01*
X118130700Y-57851198D01*
X118135208Y-57854355D01*
X118135211Y-57854357D01*
X118312771Y-57978686D01*
X118357099Y-58034143D01*
X118366500Y-58081899D01*
X118366500Y-60772235D01*
X118343587Y-60844686D01*
X118316499Y-60883228D01*
X118292980Y-60943551D01*
X118258777Y-61031277D01*
X118254207Y-61042998D01*
X118253215Y-61050531D01*
X118253215Y-61050532D01*
X118242058Y-61135283D01*
X118231824Y-61213015D01*
X118239806Y-61285316D01*
X118248331Y-61362529D01*
X118250642Y-61383464D01*
X118253251Y-61390595D01*
X118253252Y-61390597D01*
X118261177Y-61412253D01*
X118309574Y-61544504D01*
X118313811Y-61550810D01*
X118313813Y-61550813D01*
X118350829Y-61605897D01*
X118405219Y-61686838D01*
X118432330Y-61711507D01*
X118490859Y-61764764D01*
X118532054Y-61802249D01*
X118682757Y-61884074D01*
X118848628Y-61927590D01*
X118936075Y-61928963D01*
X119012492Y-61930164D01*
X119012495Y-61930164D01*
X119020091Y-61930283D01*
X119027495Y-61928587D01*
X119027497Y-61928587D01*
X119143917Y-61901923D01*
X119187248Y-61891999D01*
X119340447Y-61814948D01*
X119346218Y-61810019D01*
X119346221Y-61810017D01*
X119461560Y-61711507D01*
X119470844Y-61703578D01*
X119570913Y-61564319D01*
X119634874Y-61405209D01*
X119649224Y-61304382D01*
X119658455Y-61239520D01*
X119658455Y-61239516D01*
X119659036Y-61235436D01*
X119659193Y-61220489D01*
X119643075Y-61087299D01*
X119639504Y-61057788D01*
X119639503Y-61057785D01*
X119638591Y-61050247D01*
X119630196Y-61028028D01*
X119591634Y-60925978D01*
X119583500Y-60881440D01*
X119583500Y-58081899D01*
X119603502Y-58013778D01*
X119637229Y-57978686D01*
X119814789Y-57854357D01*
X119814792Y-57854355D01*
X119819300Y-57851198D01*
X119981198Y-57689300D01*
X119986196Y-57682163D01*
X120062787Y-57572779D01*
X120118244Y-57528451D01*
X120188863Y-57521142D01*
X120252224Y-57553173D01*
X120288209Y-57614374D01*
X120292000Y-57645050D01*
X120292000Y-66204950D01*
X120271998Y-66273071D01*
X120218342Y-66319564D01*
X120148068Y-66329668D01*
X120083488Y-66300174D01*
X120062787Y-66277221D01*
X120054070Y-66264771D01*
X120015232Y-66209305D01*
X119984357Y-66165211D01*
X119984355Y-66165208D01*
X119981198Y-66160700D01*
X119819300Y-65998802D01*
X119814792Y-65995645D01*
X119814789Y-65995643D01*
X119660580Y-65887665D01*
X119631749Y-65867477D01*
X119626767Y-65865154D01*
X119626762Y-65865151D01*
X119429225Y-65773039D01*
X119429224Y-65773039D01*
X119424243Y-65770716D01*
X119418935Y-65769294D01*
X119418933Y-65769293D01*
X119208402Y-65712881D01*
X119208400Y-65712881D01*
X119203087Y-65711457D01*
X118975000Y-65691502D01*
X118746913Y-65711457D01*
X118741600Y-65712881D01*
X118741598Y-65712881D01*
X118531067Y-65769293D01*
X118531065Y-65769294D01*
X118525757Y-65770716D01*
X118520776Y-65773039D01*
X118520775Y-65773039D01*
X118323238Y-65865151D01*
X118323233Y-65865154D01*
X118318251Y-65867477D01*
X118289420Y-65887665D01*
X118135211Y-65995643D01*
X118135208Y-65995645D01*
X118130700Y-65998802D01*
X117968802Y-66160700D01*
X117965645Y-66165208D01*
X117965643Y-66165211D01*
X117934768Y-66209305D01*
X117837477Y-66348251D01*
X117835154Y-66353233D01*
X117835151Y-66353238D01*
X117757778Y-66519167D01*
X117740716Y-66555757D01*
X117681457Y-66776913D01*
X117661502Y-67005000D01*
X117681457Y-67233087D01*
X117682881Y-67238400D01*
X117682881Y-67238402D01*
X117722762Y-67387237D01*
X117740716Y-67454243D01*
X117743039Y-67459224D01*
X117743039Y-67459225D01*
X117835151Y-67656762D01*
X117835154Y-67656767D01*
X117837477Y-67661749D01*
X117855480Y-67687460D01*
X117961514Y-67838891D01*
X117968802Y-67849300D01*
X118130700Y-68011198D01*
X118135208Y-68014355D01*
X118135211Y-68014357D01*
X118200748Y-68060246D01*
X118318251Y-68142523D01*
X118323233Y-68144846D01*
X118323238Y-68144849D01*
X118508901Y-68231424D01*
X118525757Y-68239284D01*
X118531065Y-68240706D01*
X118531067Y-68240707D01*
X118741598Y-68297119D01*
X118741600Y-68297119D01*
X118746913Y-68298543D01*
X118975000Y-68318498D01*
X119203087Y-68298543D01*
X119208400Y-68297119D01*
X119208402Y-68297119D01*
X119418933Y-68240707D01*
X119418935Y-68240706D01*
X119424243Y-68239284D01*
X119441099Y-68231424D01*
X119626762Y-68144849D01*
X119626767Y-68144846D01*
X119631749Y-68142523D01*
X119749252Y-68060246D01*
X119814789Y-68014357D01*
X119814792Y-68014355D01*
X119819300Y-68011198D01*
X119981198Y-67849300D01*
X119988487Y-67838891D01*
X120062787Y-67732779D01*
X120118244Y-67688451D01*
X120188863Y-67681142D01*
X120252224Y-67713173D01*
X120288209Y-67774374D01*
X120292000Y-67805050D01*
X120292000Y-73366000D01*
X120271998Y-73434121D01*
X120218342Y-73480614D01*
X120166000Y-73492000D01*
X50634000Y-73492000D01*
X50565879Y-73471998D01*
X50519386Y-73418342D01*
X50508000Y-73366000D01*
X50508000Y-71107655D01*
X51239858Y-71107655D01*
X51275104Y-71366638D01*
X51276412Y-71371124D01*
X51276412Y-71371126D01*
X51290317Y-71418830D01*
X51348243Y-71617567D01*
X51350203Y-71621820D01*
X51350204Y-71621821D01*
X51369892Y-71664528D01*
X51457668Y-71854928D01*
X51460231Y-71858837D01*
X51598410Y-72069596D01*
X51598414Y-72069601D01*
X51600976Y-72073509D01*
X51775018Y-72268506D01*
X51975970Y-72435637D01*
X52011111Y-72456961D01*
X52195422Y-72568804D01*
X52195426Y-72568806D01*
X52199419Y-72571229D01*
X52440455Y-72672303D01*
X52693783Y-72736641D01*
X52698434Y-72737109D01*
X52698438Y-72737110D01*
X52891308Y-72756531D01*
X52910867Y-72758500D01*
X53066354Y-72758500D01*
X53068679Y-72758327D01*
X53068685Y-72758327D01*
X53256000Y-72744407D01*
X53256004Y-72744406D01*
X53260652Y-72744061D01*
X53265200Y-72743032D01*
X53265206Y-72743031D01*
X53451601Y-72700853D01*
X53515577Y-72686377D01*
X53551769Y-72672303D01*
X53754824Y-72593340D01*
X53754827Y-72593339D01*
X53759177Y-72591647D01*
X53986098Y-72461951D01*
X54191357Y-72300138D01*
X54370443Y-72109763D01*
X54498533Y-71925123D01*
X54516759Y-71898851D01*
X54516761Y-71898848D01*
X54519424Y-71895009D01*
X54523740Y-71886257D01*
X54632960Y-71664781D01*
X54632961Y-71664778D01*
X54635025Y-71660593D01*
X54636967Y-71654528D01*
X54713280Y-71416123D01*
X54714707Y-71411665D01*
X54753251Y-71175000D01*
X59106502Y-71175000D01*
X59126457Y-71403087D01*
X59127881Y-71408400D01*
X59127881Y-71408402D01*
X59182722Y-71613068D01*
X59185716Y-71624243D01*
X59188039Y-71629224D01*
X59188039Y-71629225D01*
X59280151Y-71826762D01*
X59280154Y-71826767D01*
X59282477Y-71831749D01*
X59413802Y-72019300D01*
X59575700Y-72181198D01*
X59580208Y-72184355D01*
X59580211Y-72184357D01*
X59623758Y-72214849D01*
X59763251Y-72312523D01*
X59768233Y-72314846D01*
X59768238Y-72314849D01*
X59926181Y-72388498D01*
X59970757Y-72409284D01*
X59976065Y-72410706D01*
X59976067Y-72410707D01*
X60186598Y-72467119D01*
X60186600Y-72467119D01*
X60191913Y-72468543D01*
X60420000Y-72488498D01*
X60648087Y-72468543D01*
X60653400Y-72467119D01*
X60653402Y-72467119D01*
X60863933Y-72410707D01*
X60863935Y-72410706D01*
X60869243Y-72409284D01*
X60913819Y-72388498D01*
X61071762Y-72314849D01*
X61071767Y-72314846D01*
X61076749Y-72312523D01*
X61216242Y-72214849D01*
X61259789Y-72184357D01*
X61259792Y-72184355D01*
X61264300Y-72181198D01*
X61426198Y-72019300D01*
X61557523Y-71831749D01*
X61559846Y-71826767D01*
X61559849Y-71826762D01*
X61651961Y-71629225D01*
X61651961Y-71629224D01*
X61654284Y-71624243D01*
X61657279Y-71613068D01*
X61712119Y-71408402D01*
X61712119Y-71408400D01*
X61713543Y-71403087D01*
X61733498Y-71175000D01*
X61713543Y-70946913D01*
X61700175Y-70897022D01*
X61655707Y-70731067D01*
X61655706Y-70731065D01*
X61654284Y-70725757D01*
X61648425Y-70713192D01*
X61559849Y-70523238D01*
X61559846Y-70523233D01*
X61557523Y-70518251D01*
X61462422Y-70382433D01*
X61429357Y-70335211D01*
X61429355Y-70335208D01*
X61426198Y-70330700D01*
X61264300Y-70168802D01*
X61259792Y-70165645D01*
X61259789Y-70165643D01*
X61144834Y-70085151D01*
X61076749Y-70037477D01*
X61071767Y-70035154D01*
X61071762Y-70035151D01*
X60874225Y-69943039D01*
X60874224Y-69943039D01*
X60869243Y-69940716D01*
X60863935Y-69939294D01*
X60863933Y-69939293D01*
X60653402Y-69882881D01*
X60653400Y-69882881D01*
X60648087Y-69881457D01*
X60420000Y-69861502D01*
X60191913Y-69881457D01*
X60186600Y-69882881D01*
X60186598Y-69882881D01*
X59976067Y-69939293D01*
X59976065Y-69939294D01*
X59970757Y-69940716D01*
X59965776Y-69943039D01*
X59965775Y-69943039D01*
X59768238Y-70035151D01*
X59768233Y-70035154D01*
X59763251Y-70037477D01*
X59695166Y-70085151D01*
X59580211Y-70165643D01*
X59580208Y-70165645D01*
X59575700Y-70168802D01*
X59413802Y-70330700D01*
X59410645Y-70335208D01*
X59410643Y-70335211D01*
X59377578Y-70382433D01*
X59282477Y-70518251D01*
X59280154Y-70523233D01*
X59280151Y-70523238D01*
X59191575Y-70713192D01*
X59185716Y-70725757D01*
X59184294Y-70731065D01*
X59184293Y-70731067D01*
X59139825Y-70897022D01*
X59126457Y-70946913D01*
X59106502Y-71175000D01*
X54753251Y-71175000D01*
X54756721Y-71153693D01*
X54758667Y-71005043D01*
X54760081Y-70897022D01*
X54760081Y-70897019D01*
X54760142Y-70892345D01*
X54724896Y-70633362D01*
X54710473Y-70583877D01*
X54697530Y-70539472D01*
X54651757Y-70382433D01*
X54542332Y-70145072D01*
X54476601Y-70044815D01*
X54401590Y-69930404D01*
X54401586Y-69930399D01*
X54399024Y-69926491D01*
X54224982Y-69731494D01*
X54024030Y-69564363D01*
X53975712Y-69535043D01*
X53804578Y-69431196D01*
X53804574Y-69431194D01*
X53800581Y-69428771D01*
X53559545Y-69327697D01*
X53306217Y-69263359D01*
X53301566Y-69262891D01*
X53301562Y-69262890D01*
X53092271Y-69241816D01*
X53089133Y-69241500D01*
X52933646Y-69241500D01*
X52931321Y-69241673D01*
X52931315Y-69241673D01*
X52744000Y-69255593D01*
X52743996Y-69255594D01*
X52739348Y-69255939D01*
X52734800Y-69256968D01*
X52734794Y-69256969D01*
X52582276Y-69291481D01*
X52484423Y-69313623D01*
X52480071Y-69315315D01*
X52480069Y-69315316D01*
X52245176Y-69406660D01*
X52245173Y-69406661D01*
X52240823Y-69408353D01*
X52013902Y-69538049D01*
X51808643Y-69699862D01*
X51629557Y-69890237D01*
X51525222Y-70040634D01*
X51494340Y-70085151D01*
X51480576Y-70104991D01*
X51478510Y-70109181D01*
X51478508Y-70109184D01*
X51371191Y-70326803D01*
X51364975Y-70339407D01*
X51363553Y-70343850D01*
X51363552Y-70343852D01*
X51352564Y-70378179D01*
X51285293Y-70588335D01*
X51243279Y-70846307D01*
X51239858Y-71107655D01*
X50508000Y-71107655D01*
X50508000Y-67515475D01*
X55162596Y-67515475D01*
X55181585Y-67732519D01*
X55183488Y-67743312D01*
X55239877Y-67953761D01*
X55243623Y-67964053D01*
X55335699Y-68161511D01*
X55341182Y-68171006D01*
X55377622Y-68223048D01*
X55388101Y-68231424D01*
X55401547Y-68224356D01*
X56103091Y-67522812D01*
X56110705Y-67508868D01*
X56110574Y-67507035D01*
X56106323Y-67500420D01*
X55400826Y-66794923D01*
X55389051Y-66788493D01*
X55377036Y-66797789D01*
X55341182Y-66848994D01*
X55335699Y-66858489D01*
X55243623Y-67055947D01*
X55239877Y-67066239D01*
X55183488Y-67276688D01*
X55181585Y-67287481D01*
X55162596Y-67504525D01*
X55162596Y-67515475D01*
X50508000Y-67515475D01*
X50508000Y-63132966D01*
X50993257Y-63132966D01*
X51023565Y-63267446D01*
X51026645Y-63277275D01*
X51106770Y-63474603D01*
X51111413Y-63483794D01*
X51222694Y-63665388D01*
X51228777Y-63673699D01*
X51368213Y-63834667D01*
X51375580Y-63841883D01*
X51539434Y-63977916D01*
X51547881Y-63983831D01*
X51731756Y-64091279D01*
X51741042Y-64095729D01*
X51940001Y-64171703D01*
X51949899Y-64174579D01*
X52053250Y-64195606D01*
X52067299Y-64194410D01*
X52071000Y-64184065D01*
X52071000Y-63137115D01*
X52066525Y-63121876D01*
X52065135Y-63120671D01*
X52057452Y-63119000D01*
X51008225Y-63119000D01*
X50994694Y-63122973D01*
X50993257Y-63132966D01*
X50508000Y-63132966D01*
X50508000Y-61223134D01*
X50966500Y-61223134D01*
X50973255Y-61285316D01*
X51024385Y-61421705D01*
X51111739Y-61538261D01*
X51228295Y-61625615D01*
X51236704Y-61628767D01*
X51236705Y-61628768D01*
X51345960Y-61669726D01*
X51402725Y-61712367D01*
X51427425Y-61778929D01*
X51412218Y-61848278D01*
X51392825Y-61874759D01*
X51269590Y-62003717D01*
X51263104Y-62011727D01*
X51143098Y-62187649D01*
X51138000Y-62196623D01*
X51048338Y-62389783D01*
X51044775Y-62399470D01*
X50989389Y-62599183D01*
X50990912Y-62607607D01*
X51003292Y-62611000D01*
X52453000Y-62611000D01*
X52521121Y-62631002D01*
X52567614Y-62684658D01*
X52579000Y-62737000D01*
X52579000Y-64183517D01*
X52583064Y-64197359D01*
X52596478Y-64199393D01*
X52603184Y-64198534D01*
X52613262Y-64196392D01*
X52817255Y-64135191D01*
X52826842Y-64131433D01*
X53018095Y-64037739D01*
X53026945Y-64032464D01*
X53200328Y-63908792D01*
X53208200Y-63902139D01*
X53359052Y-63751812D01*
X53365730Y-63743965D01*
X53493022Y-63566819D01*
X53494279Y-63567722D01*
X53541373Y-63524362D01*
X53611311Y-63512145D01*
X53676751Y-63539678D01*
X53704579Y-63571511D01*
X53764987Y-63670088D01*
X53911250Y-63838938D01*
X54083126Y-63981632D01*
X54276000Y-64094338D01*
X54280825Y-64096180D01*
X54280826Y-64096181D01*
X54318866Y-64110707D01*
X54484692Y-64174030D01*
X54489760Y-64175061D01*
X54489763Y-64175062D01*
X54555804Y-64188498D01*
X54703597Y-64218567D01*
X54708772Y-64218757D01*
X54708774Y-64218757D01*
X54921673Y-64226564D01*
X54921677Y-64226564D01*
X54926837Y-64226753D01*
X54931957Y-64226097D01*
X54931959Y-64226097D01*
X55143288Y-64199025D01*
X55143289Y-64199025D01*
X55148416Y-64198368D01*
X55153376Y-64196880D01*
X55357429Y-64135661D01*
X55357434Y-64135659D01*
X55362384Y-64134174D01*
X55562994Y-64035896D01*
X55744860Y-63906173D01*
X55762482Y-63888613D01*
X55871106Y-63780367D01*
X55903096Y-63748489D01*
X55922485Y-63721507D01*
X56033453Y-63567077D01*
X56034776Y-63568028D01*
X56081645Y-63524857D01*
X56151580Y-63512625D01*
X56217026Y-63540144D01*
X56244875Y-63571994D01*
X56304987Y-63670088D01*
X56451250Y-63838938D01*
X56623126Y-63981632D01*
X56816000Y-64094338D01*
X56820825Y-64096180D01*
X56820826Y-64096181D01*
X56858866Y-64110707D01*
X57024692Y-64174030D01*
X57029760Y-64175061D01*
X57029763Y-64175062D01*
X57095804Y-64188498D01*
X57243597Y-64218567D01*
X57248772Y-64218757D01*
X57248774Y-64218757D01*
X57461673Y-64226564D01*
X57461677Y-64226564D01*
X57466837Y-64226753D01*
X57471957Y-64226097D01*
X57471959Y-64226097D01*
X57683288Y-64199025D01*
X57683289Y-64199025D01*
X57688416Y-64198368D01*
X57693373Y-64196881D01*
X57693377Y-64196880D01*
X57783803Y-64169751D01*
X57854798Y-64169333D01*
X57914749Y-64207365D01*
X57944621Y-64271772D01*
X57946011Y-64290436D01*
X57946011Y-66075500D01*
X57926009Y-66143621D01*
X57872353Y-66190114D01*
X57820011Y-66201500D01*
X57626979Y-66201500D01*
X57564797Y-66208255D01*
X57428408Y-66259385D01*
X57418309Y-66266954D01*
X57319035Y-66341355D01*
X57319032Y-66341358D01*
X57311852Y-66346739D01*
X57306471Y-66353919D01*
X57300120Y-66360270D01*
X57297978Y-66358128D01*
X57253267Y-66391564D01*
X57182449Y-66396594D01*
X57141078Y-66378477D01*
X57140881Y-66378818D01*
X57137815Y-66377048D01*
X57137023Y-66376701D01*
X57136124Y-66376071D01*
X57126624Y-66370586D01*
X56929166Y-66278510D01*
X56918874Y-66274764D01*
X56708425Y-66218375D01*
X56697632Y-66216472D01*
X56480588Y-66197483D01*
X56469638Y-66197483D01*
X56252594Y-66216472D01*
X56241801Y-66218375D01*
X56031352Y-66274764D01*
X56021060Y-66278510D01*
X55823602Y-66370586D01*
X55814107Y-66376069D01*
X55762065Y-66412509D01*
X55753689Y-66422988D01*
X55760757Y-66436434D01*
X56745228Y-67420905D01*
X56779254Y-67483217D01*
X56774189Y-67554032D01*
X56745228Y-67599095D01*
X55760036Y-68584287D01*
X55753606Y-68596062D01*
X55762902Y-68608077D01*
X55814107Y-68643931D01*
X55823602Y-68649414D01*
X56021060Y-68741490D01*
X56031352Y-68745236D01*
X56241801Y-68801625D01*
X56252594Y-68803528D01*
X56469638Y-68822517D01*
X56480588Y-68822517D01*
X56697632Y-68803528D01*
X56708425Y-68801625D01*
X56918874Y-68745236D01*
X56929166Y-68741490D01*
X57126624Y-68649414D01*
X57136124Y-68643929D01*
X57137023Y-68643299D01*
X57137483Y-68643144D01*
X57140881Y-68641182D01*
X57141275Y-68641865D01*
X57204297Y-68620612D01*
X57273157Y-68637898D01*
X57298916Y-68660934D01*
X57300120Y-68659730D01*
X57306471Y-68666081D01*
X57311852Y-68673261D01*
X57319032Y-68678642D01*
X57319035Y-68678645D01*
X57382611Y-68726292D01*
X57428408Y-68760615D01*
X57564797Y-68811745D01*
X57626979Y-68818500D01*
X59323247Y-68818500D01*
X59385429Y-68811745D01*
X59521818Y-68760615D01*
X59638374Y-68673261D01*
X59725728Y-68556705D01*
X59776858Y-68420316D01*
X59783613Y-68358134D01*
X59783613Y-66661866D01*
X59776858Y-66599684D01*
X59725728Y-66463295D01*
X59638374Y-66346739D01*
X59521818Y-66259385D01*
X59385429Y-66208255D01*
X59342948Y-66203640D01*
X59325403Y-66201734D01*
X59259841Y-66174492D01*
X59219415Y-66116129D01*
X59213011Y-66076471D01*
X59213011Y-64222190D01*
X59233013Y-64154069D01*
X59286669Y-64107576D01*
X59356943Y-64097472D01*
X59383960Y-64104480D01*
X59560001Y-64171703D01*
X59569899Y-64174579D01*
X59673250Y-64195606D01*
X59687299Y-64194410D01*
X59691000Y-64184065D01*
X59691000Y-62737000D01*
X59711002Y-62668879D01*
X59764658Y-62622386D01*
X59817000Y-62611000D01*
X60073000Y-62611000D01*
X60141121Y-62631002D01*
X60187614Y-62684658D01*
X60199000Y-62737000D01*
X60199000Y-64183517D01*
X60203064Y-64197359D01*
X60216478Y-64199393D01*
X60223184Y-64198534D01*
X60233262Y-64196392D01*
X60437255Y-64135191D01*
X60446837Y-64131435D01*
X60545557Y-64083073D01*
X60615531Y-64071067D01*
X60680888Y-64098797D01*
X60720878Y-64157460D01*
X60726989Y-64196225D01*
X60726989Y-66057353D01*
X60725911Y-66073798D01*
X60722473Y-66099915D01*
X60711838Y-66136521D01*
X60655778Y-66257290D01*
X60655772Y-66257305D01*
X60653602Y-66261981D01*
X60591707Y-66485169D01*
X60567095Y-66715469D01*
X60567392Y-66720622D01*
X60567392Y-66720625D01*
X60573067Y-66819041D01*
X60580427Y-66946697D01*
X60581564Y-66951743D01*
X60581565Y-66951749D01*
X60607367Y-67066239D01*
X60631346Y-67172642D01*
X60633288Y-67177424D01*
X60633289Y-67177428D01*
X60677977Y-67287481D01*
X60718484Y-67387237D01*
X60839501Y-67584719D01*
X60991147Y-67759784D01*
X61169349Y-67907730D01*
X61369322Y-68024584D01*
X61374147Y-68026426D01*
X61374148Y-68026427D01*
X61406463Y-68038767D01*
X61585694Y-68107209D01*
X61590760Y-68108240D01*
X61590761Y-68108240D01*
X61611631Y-68112486D01*
X61812656Y-68153385D01*
X61942089Y-68158131D01*
X62038949Y-68161683D01*
X62038953Y-68161683D01*
X62044113Y-68161872D01*
X62049233Y-68161216D01*
X62049235Y-68161216D01*
X62123166Y-68151745D01*
X62273847Y-68132442D01*
X62278795Y-68130957D01*
X62278802Y-68130956D01*
X62490747Y-68067369D01*
X62495690Y-68065886D01*
X62557481Y-68035615D01*
X62699049Y-67966262D01*
X62699052Y-67966260D01*
X62703684Y-67963991D01*
X62892243Y-67829494D01*
X62937309Y-67784585D01*
X62999681Y-67750669D01*
X63070487Y-67755857D01*
X63127249Y-67798503D01*
X63144231Y-67829607D01*
X63153075Y-67853197D01*
X63169385Y-67896705D01*
X63256739Y-68013261D01*
X63373295Y-68100615D01*
X63509684Y-68151745D01*
X63571866Y-68158500D01*
X63785500Y-68158500D01*
X63853621Y-68178502D01*
X63900114Y-68232158D01*
X63911500Y-68284500D01*
X63911500Y-70603917D01*
X63891498Y-70672038D01*
X63879137Y-70688226D01*
X63875333Y-70692451D01*
X63869615Y-70697439D01*
X63865252Y-70703647D01*
X63865251Y-70703648D01*
X63841050Y-70738083D01*
X63771010Y-70837739D01*
X63747707Y-70897509D01*
X63713428Y-70985429D01*
X63708718Y-70997509D01*
X63707726Y-71005042D01*
X63707726Y-71005043D01*
X63687549Y-71158308D01*
X63686335Y-71167526D01*
X63692076Y-71219525D01*
X63701319Y-71303245D01*
X63705153Y-71337975D01*
X63707762Y-71345106D01*
X63707763Y-71345108D01*
X63723831Y-71389015D01*
X63764085Y-71499015D01*
X63768322Y-71505321D01*
X63768324Y-71505324D01*
X63799635Y-71551919D01*
X63859730Y-71641349D01*
X63894372Y-71672871D01*
X63968708Y-71740511D01*
X63986565Y-71756760D01*
X64137268Y-71838585D01*
X64303139Y-71882101D01*
X64390586Y-71883474D01*
X64467003Y-71884675D01*
X64467006Y-71884675D01*
X64474602Y-71884794D01*
X64482006Y-71883098D01*
X64482008Y-71883098D01*
X64587936Y-71858837D01*
X64641759Y-71846510D01*
X64794958Y-71769459D01*
X64800729Y-71764530D01*
X64800732Y-71764528D01*
X64919578Y-71663023D01*
X64925355Y-71658089D01*
X65016428Y-71531349D01*
X65020992Y-71524998D01*
X65020993Y-71524997D01*
X65025424Y-71518830D01*
X65089385Y-71359720D01*
X65094266Y-71325425D01*
X65107288Y-71233926D01*
X65109981Y-71220749D01*
X65112838Y-71213851D01*
X65120587Y-71154995D01*
X65127435Y-71102978D01*
X65133751Y-71055000D01*
X65129578Y-71023301D01*
X65128500Y-71006856D01*
X65128500Y-68284500D01*
X65148502Y-68216379D01*
X65202158Y-68169886D01*
X65254500Y-68158500D01*
X65468134Y-68158500D01*
X65530316Y-68151745D01*
X65666705Y-68100615D01*
X65783261Y-68013261D01*
X65870615Y-67896705D01*
X65921745Y-67760316D01*
X65928500Y-67698134D01*
X65928500Y-65801866D01*
X65921745Y-65739684D01*
X65870615Y-65603295D01*
X65783261Y-65486739D01*
X65666705Y-65399385D01*
X65530316Y-65348255D01*
X65468134Y-65341500D01*
X63571866Y-65341500D01*
X63509684Y-65348255D01*
X63373295Y-65399385D01*
X63256739Y-65486739D01*
X63169385Y-65603295D01*
X63166233Y-65611703D01*
X63166232Y-65611705D01*
X63145538Y-65666906D01*
X63102897Y-65723671D01*
X63036335Y-65748371D01*
X62966986Y-65733164D01*
X62944167Y-65716666D01*
X62943887Y-65716358D01*
X62925885Y-65702141D01*
X62766177Y-65576011D01*
X62766172Y-65576008D01*
X62762123Y-65572810D01*
X62757607Y-65570317D01*
X62757604Y-65570315D01*
X62563879Y-65463373D01*
X62563875Y-65463371D01*
X62559355Y-65460876D01*
X62554486Y-65459152D01*
X62554482Y-65459150D01*
X62345903Y-65385288D01*
X62345899Y-65385287D01*
X62341028Y-65383562D01*
X62335935Y-65382655D01*
X62335932Y-65382654D01*
X62118095Y-65343851D01*
X62118089Y-65343850D01*
X62113006Y-65342945D01*
X62068450Y-65342401D01*
X62000579Y-65321568D01*
X61954745Y-65267349D01*
X61943989Y-65216410D01*
X61943989Y-64294716D01*
X61963991Y-64226595D01*
X62017647Y-64180102D01*
X62087921Y-64169998D01*
X62102233Y-64173091D01*
X62104692Y-64174030D01*
X62109758Y-64175061D01*
X62109759Y-64175061D01*
X62151322Y-64183517D01*
X62323597Y-64218567D01*
X62328772Y-64218757D01*
X62328774Y-64218757D01*
X62541673Y-64226564D01*
X62541677Y-64226564D01*
X62546837Y-64226753D01*
X62551957Y-64226097D01*
X62551959Y-64226097D01*
X62763288Y-64199025D01*
X62763289Y-64199025D01*
X62768416Y-64198368D01*
X62773376Y-64196880D01*
X62977429Y-64135661D01*
X62977434Y-64135659D01*
X62982384Y-64134174D01*
X63182994Y-64035896D01*
X63364860Y-63906173D01*
X63382482Y-63888613D01*
X63491106Y-63780367D01*
X63523096Y-63748489D01*
X63542485Y-63721507D01*
X63650435Y-63571277D01*
X63653453Y-63567077D01*
X63665580Y-63542541D01*
X63750136Y-63371453D01*
X63750137Y-63371451D01*
X63752430Y-63366811D01*
X63817370Y-63153069D01*
X63846529Y-62931590D01*
X63846611Y-62928240D01*
X63848074Y-62868365D01*
X63848074Y-62868361D01*
X63848156Y-62865000D01*
X63829852Y-62642361D01*
X63775431Y-62425702D01*
X63686354Y-62220840D01*
X63588186Y-62069095D01*
X63567822Y-62037617D01*
X63567820Y-62037614D01*
X63565014Y-62033277D01*
X63414670Y-61868051D01*
X63410619Y-61864852D01*
X63410615Y-61864848D01*
X63243414Y-61732800D01*
X63243410Y-61732798D01*
X63239359Y-61729598D01*
X63198053Y-61706796D01*
X63148084Y-61656364D01*
X63133312Y-61586921D01*
X63158428Y-61520516D01*
X63185780Y-61493909D01*
X63229603Y-61462650D01*
X63364860Y-61366173D01*
X63523096Y-61208489D01*
X63615784Y-61079500D01*
X63650435Y-61031277D01*
X63653453Y-61027077D01*
X63661212Y-61011379D01*
X63750136Y-60831453D01*
X63750137Y-60831451D01*
X63752430Y-60826811D01*
X63789330Y-60705359D01*
X63815865Y-60618023D01*
X63815865Y-60618021D01*
X63817370Y-60613069D01*
X63846529Y-60391590D01*
X63846611Y-60388240D01*
X63848074Y-60328365D01*
X63848074Y-60328361D01*
X63848156Y-60325000D01*
X63829852Y-60102361D01*
X63775431Y-59885702D01*
X63686354Y-59680840D01*
X63605252Y-59555475D01*
X63567822Y-59497617D01*
X63567820Y-59497614D01*
X63565014Y-59493277D01*
X63414670Y-59328051D01*
X63410619Y-59324852D01*
X63410615Y-59324848D01*
X63243414Y-59192800D01*
X63243410Y-59192798D01*
X63239359Y-59189598D01*
X63043789Y-59081638D01*
X63038920Y-59079914D01*
X63038916Y-59079912D01*
X62838087Y-59008795D01*
X62838083Y-59008794D01*
X62833212Y-59007069D01*
X62828119Y-59006162D01*
X62828116Y-59006161D01*
X62618373Y-58968800D01*
X62618367Y-58968799D01*
X62613284Y-58967894D01*
X62539452Y-58966992D01*
X62395081Y-58965228D01*
X62395079Y-58965228D01*
X62389911Y-58965165D01*
X62169091Y-58998955D01*
X61956756Y-59068357D01*
X61926443Y-59084137D01*
X61809085Y-59145230D01*
X61758607Y-59171507D01*
X61754474Y-59174610D01*
X61754471Y-59174612D01*
X61584100Y-59302530D01*
X61579965Y-59305635D01*
X61560303Y-59326210D01*
X61468729Y-59422037D01*
X61425629Y-59467138D01*
X61318201Y-59624621D01*
X61263293Y-59669621D01*
X61192768Y-59677792D01*
X61129021Y-59646538D01*
X61108324Y-59622054D01*
X61027822Y-59497617D01*
X61027820Y-59497614D01*
X61025014Y-59493277D01*
X60874670Y-59328051D01*
X60870619Y-59324852D01*
X60870615Y-59324848D01*
X60703414Y-59192800D01*
X60703410Y-59192798D01*
X60699359Y-59189598D01*
X60503789Y-59081638D01*
X60498920Y-59079914D01*
X60498916Y-59079912D01*
X60298087Y-59008795D01*
X60298083Y-59008794D01*
X60293212Y-59007069D01*
X60288119Y-59006162D01*
X60288116Y-59006161D01*
X60078373Y-58968800D01*
X60078367Y-58968799D01*
X60073284Y-58967894D01*
X59999452Y-58966992D01*
X59855081Y-58965228D01*
X59855079Y-58965228D01*
X59849911Y-58965165D01*
X59629091Y-58998955D01*
X59416756Y-59068357D01*
X59386443Y-59084137D01*
X59269085Y-59145230D01*
X59218607Y-59171507D01*
X59214474Y-59174610D01*
X59214471Y-59174612D01*
X59044100Y-59302530D01*
X59039965Y-59305635D01*
X59020303Y-59326210D01*
X58928729Y-59422037D01*
X58885629Y-59467138D01*
X58778201Y-59624621D01*
X58723293Y-59669621D01*
X58652768Y-59677792D01*
X58589021Y-59646538D01*
X58568324Y-59622054D01*
X58487822Y-59497617D01*
X58487820Y-59497614D01*
X58485014Y-59493277D01*
X58334670Y-59328051D01*
X58330619Y-59324852D01*
X58330615Y-59324848D01*
X58163414Y-59192800D01*
X58163410Y-59192798D01*
X58159359Y-59189598D01*
X57963789Y-59081638D01*
X57958920Y-59079914D01*
X57958916Y-59079912D01*
X57758087Y-59008795D01*
X57758083Y-59008794D01*
X57753212Y-59007069D01*
X57748119Y-59006162D01*
X57748116Y-59006161D01*
X57538373Y-58968800D01*
X57538367Y-58968799D01*
X57533284Y-58967894D01*
X57459452Y-58966992D01*
X57315081Y-58965228D01*
X57315079Y-58965228D01*
X57309911Y-58965165D01*
X57089091Y-58998955D01*
X56876756Y-59068357D01*
X56846443Y-59084137D01*
X56729085Y-59145230D01*
X56678607Y-59171507D01*
X56674474Y-59174610D01*
X56674471Y-59174612D01*
X56504100Y-59302530D01*
X56499965Y-59305635D01*
X56480303Y-59326210D01*
X56388729Y-59422037D01*
X56345629Y-59467138D01*
X56238201Y-59624621D01*
X56183293Y-59669621D01*
X56112768Y-59677792D01*
X56049021Y-59646538D01*
X56028324Y-59622054D01*
X55947822Y-59497617D01*
X55947820Y-59497614D01*
X55945014Y-59493277D01*
X55794670Y-59328051D01*
X55790619Y-59324852D01*
X55790615Y-59324848D01*
X55623414Y-59192800D01*
X55623410Y-59192798D01*
X55619359Y-59189598D01*
X55423789Y-59081638D01*
X55418920Y-59079914D01*
X55418916Y-59079912D01*
X55218087Y-59008795D01*
X55218083Y-59008794D01*
X55213212Y-59007069D01*
X55208119Y-59006162D01*
X55208116Y-59006161D01*
X54998373Y-58968800D01*
X54998367Y-58968799D01*
X54993284Y-58967894D01*
X54919452Y-58966992D01*
X54775081Y-58965228D01*
X54775079Y-58965228D01*
X54769911Y-58965165D01*
X54549091Y-58998955D01*
X54336756Y-59068357D01*
X54306443Y-59084137D01*
X54189085Y-59145230D01*
X54138607Y-59171507D01*
X54134474Y-59174610D01*
X54134471Y-59174612D01*
X53964100Y-59302530D01*
X53959965Y-59305635D01*
X53903537Y-59364684D01*
X53879283Y-59390064D01*
X53817759Y-59425494D01*
X53746846Y-59422037D01*
X53689060Y-59380791D01*
X53670207Y-59347243D01*
X53628767Y-59236703D01*
X53625615Y-59228295D01*
X53538261Y-59111739D01*
X53421705Y-59024385D01*
X53285316Y-58973255D01*
X53223134Y-58966500D01*
X51426866Y-58966500D01*
X51364684Y-58973255D01*
X51228295Y-59024385D01*
X51111739Y-59111739D01*
X51024385Y-59228295D01*
X50973255Y-59364684D01*
X50966500Y-59426866D01*
X50966500Y-61223134D01*
X50508000Y-61223134D01*
X50508000Y-58232670D01*
X59132160Y-58232670D01*
X59137887Y-58240320D01*
X59309042Y-58345205D01*
X59317837Y-58349687D01*
X59527988Y-58436734D01*
X59537373Y-58439783D01*
X59758554Y-58492885D01*
X59768301Y-58494428D01*
X59995070Y-58512275D01*
X60004930Y-58512275D01*
X60231699Y-58494428D01*
X60241446Y-58492885D01*
X60462627Y-58439783D01*
X60472012Y-58436734D01*
X60682163Y-58349687D01*
X60690958Y-58345205D01*
X60858445Y-58242568D01*
X60867907Y-58232110D01*
X60864124Y-58223334D01*
X60012812Y-57372022D01*
X59998868Y-57364408D01*
X59997035Y-57364539D01*
X59990420Y-57368790D01*
X59138920Y-58220290D01*
X59132160Y-58232670D01*
X50508000Y-58232670D01*
X50508000Y-57004930D01*
X58487725Y-57004930D01*
X58505572Y-57231699D01*
X58507115Y-57241446D01*
X58560217Y-57462627D01*
X58563266Y-57472012D01*
X58650313Y-57682163D01*
X58654795Y-57690958D01*
X58757432Y-57858445D01*
X58767890Y-57867907D01*
X58776666Y-57864124D01*
X59627978Y-57012812D01*
X59634356Y-57001132D01*
X60364408Y-57001132D01*
X60364539Y-57002965D01*
X60368790Y-57009580D01*
X61220290Y-57861080D01*
X61232670Y-57867840D01*
X61240320Y-57862113D01*
X61345205Y-57690958D01*
X61349687Y-57682163D01*
X61436734Y-57472012D01*
X61439783Y-57462627D01*
X61492885Y-57241446D01*
X61494428Y-57231699D01*
X61512275Y-57004930D01*
X64987725Y-57004930D01*
X65005572Y-57231699D01*
X65007115Y-57241446D01*
X65060217Y-57462627D01*
X65063266Y-57472012D01*
X65150313Y-57682163D01*
X65154795Y-57690958D01*
X65257432Y-57858445D01*
X65267890Y-57867907D01*
X65276666Y-57864124D01*
X66127978Y-57012812D01*
X66135592Y-56998868D01*
X66135461Y-56997035D01*
X66131210Y-56990420D01*
X65279710Y-56138920D01*
X65267330Y-56132160D01*
X65259680Y-56137887D01*
X65154795Y-56309042D01*
X65150313Y-56317837D01*
X65063266Y-56527988D01*
X65060217Y-56537373D01*
X65007115Y-56758554D01*
X65005572Y-56768301D01*
X64987725Y-56995070D01*
X64987725Y-57004930D01*
X61512275Y-57004930D01*
X61512275Y-56995070D01*
X61494428Y-56768301D01*
X61492885Y-56758554D01*
X61439783Y-56537373D01*
X61436734Y-56527988D01*
X61349687Y-56317837D01*
X61345205Y-56309042D01*
X61242568Y-56141555D01*
X61232110Y-56132093D01*
X61223334Y-56135876D01*
X60372022Y-56987188D01*
X60364408Y-57001132D01*
X59634356Y-57001132D01*
X59635592Y-56998868D01*
X59635461Y-56997035D01*
X59631210Y-56990420D01*
X58779710Y-56138920D01*
X58767330Y-56132160D01*
X58759680Y-56137887D01*
X58654795Y-56309042D01*
X58650313Y-56317837D01*
X58563266Y-56527988D01*
X58560217Y-56537373D01*
X58507115Y-56758554D01*
X58505572Y-56768301D01*
X58487725Y-56995070D01*
X58487725Y-57004930D01*
X50508000Y-57004930D01*
X50508000Y-55767890D01*
X59132093Y-55767890D01*
X59135876Y-55776666D01*
X59987188Y-56627978D01*
X60001132Y-56635592D01*
X60002965Y-56635461D01*
X60009580Y-56631210D01*
X60861080Y-55779710D01*
X60867840Y-55767330D01*
X60862113Y-55759680D01*
X60690958Y-55654795D01*
X60682163Y-55650313D01*
X60472012Y-55563266D01*
X60462627Y-55560217D01*
X60241446Y-55507115D01*
X60231699Y-55505572D01*
X60004930Y-55487725D01*
X59995070Y-55487725D01*
X59768301Y-55505572D01*
X59758554Y-55507115D01*
X59537373Y-55560217D01*
X59527988Y-55563266D01*
X59317837Y-55650313D01*
X59309042Y-55654795D01*
X59141555Y-55757432D01*
X59132093Y-55767890D01*
X50508000Y-55767890D01*
X50508000Y-53107655D01*
X51239858Y-53107655D01*
X51275104Y-53366638D01*
X51276412Y-53371124D01*
X51276412Y-53371126D01*
X51291076Y-53421434D01*
X51348243Y-53617567D01*
X51350203Y-53621820D01*
X51350204Y-53621821D01*
X51370126Y-53665034D01*
X51457668Y-53854928D01*
X51467409Y-53869786D01*
X51598410Y-54069596D01*
X51598414Y-54069601D01*
X51600976Y-54073509D01*
X51775018Y-54268506D01*
X51975970Y-54435637D01*
X52012237Y-54457645D01*
X52195422Y-54568804D01*
X52195426Y-54568806D01*
X52199419Y-54571229D01*
X52440455Y-54672303D01*
X52693783Y-54736641D01*
X52698434Y-54737109D01*
X52698438Y-54737110D01*
X52891308Y-54756531D01*
X52910867Y-54758500D01*
X53066354Y-54758500D01*
X53068679Y-54758327D01*
X53068685Y-54758327D01*
X53256000Y-54744407D01*
X53256004Y-54744406D01*
X53260652Y-54744061D01*
X53265200Y-54743032D01*
X53265206Y-54743031D01*
X53451601Y-54700853D01*
X53515577Y-54686377D01*
X53551769Y-54672303D01*
X53754824Y-54593340D01*
X53754827Y-54593339D01*
X53759177Y-54591647D01*
X53824544Y-54554287D01*
X53889983Y-54516885D01*
X53986098Y-54461951D01*
X54191357Y-54300138D01*
X54370443Y-54109763D01*
X54493923Y-53931768D01*
X54516759Y-53898851D01*
X54516761Y-53898848D01*
X54519424Y-53895009D01*
X54526957Y-53879735D01*
X54589762Y-53752377D01*
X54635025Y-53660593D01*
X54684330Y-53506565D01*
X54713280Y-53416123D01*
X54714707Y-53411665D01*
X54756721Y-53153693D01*
X54759425Y-52947115D01*
X54760081Y-52897022D01*
X54760081Y-52897019D01*
X54760142Y-52892345D01*
X54724896Y-52633362D01*
X54710473Y-52583877D01*
X54690618Y-52515761D01*
X54686024Y-52500000D01*
X58486835Y-52500000D01*
X58505465Y-52736711D01*
X58506619Y-52741518D01*
X58506620Y-52741524D01*
X58536214Y-52864789D01*
X58560895Y-52967594D01*
X58562788Y-52972165D01*
X58562789Y-52972167D01*
X58649131Y-53180615D01*
X58651760Y-53186963D01*
X58654346Y-53191183D01*
X58773241Y-53385202D01*
X58773245Y-53385208D01*
X58775824Y-53389416D01*
X58930031Y-53569969D01*
X59110584Y-53724176D01*
X59114792Y-53726755D01*
X59114798Y-53726759D01*
X59308817Y-53845654D01*
X59313037Y-53848240D01*
X59317607Y-53850133D01*
X59317611Y-53850135D01*
X59517667Y-53933000D01*
X59532406Y-53939105D01*
X59612609Y-53958360D01*
X59758476Y-53993380D01*
X59758482Y-53993381D01*
X59763289Y-53994535D01*
X60000000Y-54013165D01*
X60236711Y-53994535D01*
X60241518Y-53993381D01*
X60241524Y-53993380D01*
X60387391Y-53958360D01*
X60467594Y-53939105D01*
X60482333Y-53933000D01*
X60682389Y-53850135D01*
X60682393Y-53850133D01*
X60686963Y-53848240D01*
X60691183Y-53845654D01*
X60885202Y-53726759D01*
X60885208Y-53726755D01*
X60889416Y-53724176D01*
X61069969Y-53569969D01*
X61224176Y-53389416D01*
X61226755Y-53385208D01*
X61226759Y-53385202D01*
X61345654Y-53191183D01*
X61348240Y-53186963D01*
X61350870Y-53180615D01*
X61437211Y-52972167D01*
X61437212Y-52972165D01*
X61439105Y-52967594D01*
X61463786Y-52864789D01*
X61493380Y-52741524D01*
X61493381Y-52741518D01*
X61494535Y-52736711D01*
X61513165Y-52500000D01*
X61494535Y-52263289D01*
X61490989Y-52248515D01*
X61442929Y-52048334D01*
X61439105Y-52032406D01*
X61436763Y-52026752D01*
X61350135Y-51817611D01*
X61350133Y-51817607D01*
X61348240Y-51813037D01*
X61341717Y-51802393D01*
X61226759Y-51614798D01*
X61226755Y-51614792D01*
X61224176Y-51610584D01*
X61069969Y-51430031D01*
X61065861Y-51426522D01*
X60994124Y-51365253D01*
X60889416Y-51275824D01*
X60885208Y-51273245D01*
X60885202Y-51273241D01*
X60691183Y-51154346D01*
X60686963Y-51151760D01*
X60682393Y-51149867D01*
X60682389Y-51149865D01*
X60472167Y-51062789D01*
X60472165Y-51062788D01*
X60467594Y-51060895D01*
X60340869Y-51030471D01*
X60241524Y-51006620D01*
X60241518Y-51006619D01*
X60236711Y-51005465D01*
X60000000Y-50986835D01*
X59763289Y-51005465D01*
X59758482Y-51006619D01*
X59758476Y-51006620D01*
X59659131Y-51030471D01*
X59532406Y-51060895D01*
X59527835Y-51062788D01*
X59527833Y-51062789D01*
X59317611Y-51149865D01*
X59317607Y-51149867D01*
X59313037Y-51151760D01*
X59308817Y-51154346D01*
X59114798Y-51273241D01*
X59114792Y-51273245D01*
X59110584Y-51275824D01*
X59005876Y-51365253D01*
X58934140Y-51426522D01*
X58930031Y-51430031D01*
X58775824Y-51610584D01*
X58773245Y-51614792D01*
X58773241Y-51614798D01*
X58658283Y-51802393D01*
X58651760Y-51813037D01*
X58649867Y-51817607D01*
X58649865Y-51817611D01*
X58563237Y-52026752D01*
X58560895Y-52032406D01*
X58557071Y-52048334D01*
X58509012Y-52248515D01*
X58505465Y-52263289D01*
X58486835Y-52500000D01*
X54686024Y-52500000D01*
X54651757Y-52382433D01*
X54542332Y-52145072D01*
X54471620Y-52037218D01*
X54401590Y-51930404D01*
X54401586Y-51930399D01*
X54399024Y-51926491D01*
X54224982Y-51731494D01*
X54024030Y-51564363D01*
X53974974Y-51534595D01*
X53804578Y-51431196D01*
X53804574Y-51431194D01*
X53800581Y-51428771D01*
X53559545Y-51327697D01*
X53306217Y-51263359D01*
X53301566Y-51262891D01*
X53301562Y-51262890D01*
X53092271Y-51241816D01*
X53089133Y-51241500D01*
X52933646Y-51241500D01*
X52931321Y-51241673D01*
X52931315Y-51241673D01*
X52744000Y-51255593D01*
X52743996Y-51255594D01*
X52739348Y-51255939D01*
X52734800Y-51256968D01*
X52734794Y-51256969D01*
X52598225Y-51287872D01*
X52484423Y-51313623D01*
X52480071Y-51315315D01*
X52480069Y-51315316D01*
X52245176Y-51406660D01*
X52245173Y-51406661D01*
X52240823Y-51408353D01*
X52236769Y-51410670D01*
X52236767Y-51410671D01*
X52209034Y-51426522D01*
X52013902Y-51538049D01*
X51808643Y-51699862D01*
X51629557Y-51890237D01*
X51480576Y-52104991D01*
X51478510Y-52109181D01*
X51478508Y-52109184D01*
X51404886Y-52258476D01*
X51364975Y-52339407D01*
X51363553Y-52343850D01*
X51363552Y-52343852D01*
X51323514Y-52468933D01*
X51285293Y-52588335D01*
X51243279Y-52846307D01*
X51243218Y-52850980D01*
X51240054Y-53092708D01*
X51239858Y-53107655D01*
X50508000Y-53107655D01*
X50508000Y-50634000D01*
X50528002Y-50565879D01*
X50581658Y-50519386D01*
X50634000Y-50508000D01*
X69248800Y-50508000D01*
X69316921Y-50528002D01*
G37*
%TD.AperFunction*%
%TA.AperFunction,Conductor*%
G36*
X105361914Y-52408991D02*
G01*
X105382888Y-52425894D01*
X106154595Y-53197601D01*
X106188621Y-53259913D01*
X106191500Y-53286696D01*
X106191500Y-55411920D01*
X106190422Y-55428362D01*
X106189533Y-55435119D01*
X106186438Y-55458627D01*
X106183405Y-55465482D01*
X106188405Y-55476429D01*
X106191500Y-55499936D01*
X106191500Y-55499941D01*
X106199838Y-55563266D01*
X106200570Y-55568828D01*
X106200570Y-55568831D01*
X106206084Y-55610716D01*
X106207162Y-55618907D01*
X106268476Y-55766932D01*
X106273503Y-55773483D01*
X106273504Y-55773485D01*
X106341520Y-55862125D01*
X106341526Y-55862131D01*
X106366013Y-55894043D01*
X106372568Y-55899073D01*
X106391379Y-55913508D01*
X106403770Y-55924375D01*
X107354595Y-56875200D01*
X107388621Y-56937512D01*
X107391500Y-56964295D01*
X107391500Y-58260226D01*
X107371498Y-58328347D01*
X107317842Y-58374840D01*
X107276482Y-58385747D01*
X107254031Y-58387711D01*
X107102394Y-58400977D01*
X107102389Y-58400978D01*
X107096913Y-58401457D01*
X107091600Y-58402881D01*
X107091598Y-58402881D01*
X106881067Y-58459293D01*
X106881065Y-58459294D01*
X106875757Y-58460716D01*
X106870776Y-58463039D01*
X106870775Y-58463039D01*
X106673238Y-58555151D01*
X106673233Y-58555154D01*
X106668251Y-58557477D01*
X106584685Y-58615991D01*
X106485211Y-58685643D01*
X106485208Y-58685645D01*
X106480700Y-58688802D01*
X106414095Y-58755407D01*
X106351783Y-58789433D01*
X106280968Y-58784368D01*
X106235905Y-58755407D01*
X106169300Y-58688802D01*
X106164792Y-58685645D01*
X106164789Y-58685643D01*
X105987229Y-58561314D01*
X105942901Y-58505857D01*
X105933500Y-58458101D01*
X105933500Y-55523136D01*
X105934578Y-55506689D01*
X105934643Y-55506200D01*
X105937429Y-55485031D01*
X105938562Y-55476429D01*
X105941595Y-55469574D01*
X105936594Y-55458624D01*
X105933500Y-55435119D01*
X105933500Y-55435115D01*
X105918916Y-55324336D01*
X105918915Y-55324334D01*
X105917838Y-55316150D01*
X105911648Y-55301205D01*
X105856524Y-55168124D01*
X105783478Y-55072929D01*
X105783474Y-55072925D01*
X105783471Y-55072921D01*
X105764016Y-55047566D01*
X105764013Y-55047563D01*
X105758987Y-55041013D01*
X105752432Y-55035983D01*
X105733621Y-55021548D01*
X105721230Y-55010681D01*
X105164523Y-54453974D01*
X105130497Y-54391662D01*
X105135562Y-54320847D01*
X105179557Y-54262943D01*
X105269371Y-54197689D01*
X105274710Y-54193810D01*
X105306504Y-54158500D01*
X105400891Y-54053673D01*
X105400892Y-54053672D01*
X105405310Y-54048765D01*
X105419271Y-54024584D01*
X105499595Y-53885458D01*
X105499596Y-53885457D01*
X105502899Y-53879735D01*
X105537995Y-53771720D01*
X105561172Y-53700388D01*
X105561172Y-53700387D01*
X105563212Y-53694109D01*
X105570781Y-53622101D01*
X105582924Y-53506565D01*
X105583614Y-53500000D01*
X105582093Y-53485530D01*
X105594865Y-53415692D01*
X105643366Y-53363845D01*
X105656155Y-53357252D01*
X105737781Y-53320911D01*
X105748527Y-53311777D01*
X105746930Y-53306140D01*
X105435189Y-52994399D01*
X105415164Y-52968303D01*
X105408611Y-52956952D01*
X105408610Y-52956950D01*
X105405310Y-52951235D01*
X105397489Y-52942548D01*
X105279125Y-52811093D01*
X105279123Y-52811092D01*
X105274710Y-52806190D01*
X105181325Y-52738342D01*
X105166291Y-52725501D01*
X105044874Y-52604084D01*
X105010848Y-52541772D01*
X105015913Y-52470957D01*
X105058460Y-52414121D01*
X105124980Y-52389310D01*
X105133969Y-52388989D01*
X105293793Y-52388989D01*
X105361914Y-52408991D01*
G37*
%TD.AperFunction*%
%TA.AperFunction,Conductor*%
G36*
X79053959Y-52495339D02*
G01*
X79099195Y-52547543D01*
X79115151Y-52581762D01*
X79115154Y-52581767D01*
X79117477Y-52586749D01*
X79248802Y-52774300D01*
X79410700Y-52936198D01*
X79415208Y-52939355D01*
X79415211Y-52939357D01*
X79462069Y-52972167D01*
X79598251Y-53067523D01*
X79603233Y-53069846D01*
X79603238Y-53069849D01*
X79751067Y-53138782D01*
X79805757Y-53164284D01*
X79811065Y-53165706D01*
X79811067Y-53165707D01*
X80021598Y-53222119D01*
X80021600Y-53222119D01*
X80026913Y-53223543D01*
X80255000Y-53243498D01*
X80483087Y-53223543D01*
X80488398Y-53222120D01*
X80488409Y-53222118D01*
X80546541Y-53206541D01*
X80617517Y-53208230D01*
X80668248Y-53239152D01*
X80709106Y-53280010D01*
X80743132Y-53342322D01*
X80746011Y-53369105D01*
X80746011Y-58163218D01*
X80726009Y-58231339D01*
X80672353Y-58277832D01*
X80602079Y-58287936D01*
X80587400Y-58284925D01*
X80526497Y-58268606D01*
X80512401Y-58268942D01*
X80509000Y-58276884D01*
X80509000Y-60817967D01*
X80512973Y-60831498D01*
X80521522Y-60832727D01*
X80587400Y-60815075D01*
X80658377Y-60816765D01*
X80717172Y-60856559D01*
X80745120Y-60921824D01*
X80746011Y-60936782D01*
X80746011Y-65379307D01*
X80726009Y-65447428D01*
X80672353Y-65493921D01*
X80602079Y-65504025D01*
X80544447Y-65480134D01*
X80436705Y-65399385D01*
X80300316Y-65348255D01*
X80238134Y-65341500D01*
X78341866Y-65341500D01*
X78279684Y-65348255D01*
X78143295Y-65399385D01*
X78026739Y-65486739D01*
X77939385Y-65603295D01*
X77936233Y-65611703D01*
X77936232Y-65611705D01*
X77915538Y-65666906D01*
X77872897Y-65723671D01*
X77806335Y-65748371D01*
X77736986Y-65733164D01*
X77714167Y-65716666D01*
X77713887Y-65716358D01*
X77695885Y-65702141D01*
X77536177Y-65576011D01*
X77536172Y-65576008D01*
X77532123Y-65572810D01*
X77527607Y-65570317D01*
X77527604Y-65570315D01*
X77333879Y-65463373D01*
X77333875Y-65463371D01*
X77329355Y-65460876D01*
X77324486Y-65459152D01*
X77324482Y-65459150D01*
X77115903Y-65385288D01*
X77115899Y-65385287D01*
X77111028Y-65383562D01*
X77055472Y-65373666D01*
X77036914Y-65370360D01*
X76973357Y-65338722D01*
X76936994Y-65277744D01*
X76933011Y-65246313D01*
X76933011Y-60826903D01*
X76953013Y-60758782D01*
X77006669Y-60712289D01*
X77076943Y-60702185D01*
X77112260Y-60712708D01*
X77148025Y-60729385D01*
X77239918Y-60772235D01*
X77265757Y-60784284D01*
X77271065Y-60785706D01*
X77271067Y-60785707D01*
X77481598Y-60842119D01*
X77481600Y-60842119D01*
X77486913Y-60843543D01*
X77715000Y-60863498D01*
X77943087Y-60843543D01*
X77948400Y-60842119D01*
X77948402Y-60842119D01*
X78158933Y-60785707D01*
X78158935Y-60785706D01*
X78164243Y-60784284D01*
X78173651Y-60779897D01*
X78366762Y-60689849D01*
X78366767Y-60689846D01*
X78371749Y-60687523D01*
X78512084Y-60589259D01*
X78554789Y-60559357D01*
X78554792Y-60559355D01*
X78559300Y-60556198D01*
X78721198Y-60394300D01*
X78725442Y-60388240D01*
X78849366Y-60211257D01*
X78852523Y-60206749D01*
X78854846Y-60201767D01*
X78854849Y-60201762D01*
X78871081Y-60166951D01*
X78917998Y-60113666D01*
X78986275Y-60094205D01*
X79054235Y-60114747D01*
X79099471Y-60166951D01*
X79115586Y-60201511D01*
X79121069Y-60211007D01*
X79246028Y-60389467D01*
X79253084Y-60397875D01*
X79407125Y-60551916D01*
X79415533Y-60558972D01*
X79593993Y-60683931D01*
X79603489Y-60689414D01*
X79800947Y-60781490D01*
X79811239Y-60785236D01*
X79983503Y-60831394D01*
X79997599Y-60831058D01*
X80001000Y-60823116D01*
X80001000Y-58282033D01*
X79997027Y-58268502D01*
X79988478Y-58267273D01*
X79811239Y-58314764D01*
X79800947Y-58318510D01*
X79603489Y-58410586D01*
X79593993Y-58416069D01*
X79415533Y-58541028D01*
X79407125Y-58548084D01*
X79253084Y-58702125D01*
X79246028Y-58710533D01*
X79121069Y-58888993D01*
X79115586Y-58898489D01*
X79099471Y-58933049D01*
X79052554Y-58986334D01*
X78984277Y-59005795D01*
X78916317Y-58985253D01*
X78871081Y-58933049D01*
X78854849Y-58898238D01*
X78854846Y-58898233D01*
X78852523Y-58893251D01*
X78774114Y-58781271D01*
X78724357Y-58710211D01*
X78724355Y-58710208D01*
X78721198Y-58705700D01*
X78559300Y-58543802D01*
X78554792Y-58540645D01*
X78554789Y-58540643D01*
X78469744Y-58481094D01*
X78371749Y-58412477D01*
X78366767Y-58410154D01*
X78366762Y-58410151D01*
X78169225Y-58318039D01*
X78169224Y-58318039D01*
X78164243Y-58315716D01*
X78158935Y-58314294D01*
X78158933Y-58314293D01*
X77948402Y-58257881D01*
X77948400Y-58257881D01*
X77943087Y-58256457D01*
X77715000Y-58236502D01*
X77486913Y-58256457D01*
X77481600Y-58257881D01*
X77481598Y-58257881D01*
X77271067Y-58314293D01*
X77271065Y-58314294D01*
X77265757Y-58315716D01*
X77260776Y-58318039D01*
X77260775Y-58318039D01*
X77223988Y-58335193D01*
X77134959Y-58376708D01*
X77112261Y-58387292D01*
X77042069Y-58397953D01*
X76977256Y-58368973D01*
X76938400Y-58309553D01*
X76933011Y-58273097D01*
X76933011Y-53206903D01*
X76953013Y-53138782D01*
X77006669Y-53092289D01*
X77076943Y-53082185D01*
X77112260Y-53092708D01*
X77265757Y-53164284D01*
X77271065Y-53165706D01*
X77271067Y-53165707D01*
X77481598Y-53222119D01*
X77481600Y-53222119D01*
X77486913Y-53223543D01*
X77715000Y-53243498D01*
X77943087Y-53223543D01*
X77948400Y-53222119D01*
X77948402Y-53222119D01*
X78158933Y-53165707D01*
X78158935Y-53165706D01*
X78164243Y-53164284D01*
X78218933Y-53138782D01*
X78366762Y-53069849D01*
X78366767Y-53069846D01*
X78371749Y-53067523D01*
X78507931Y-52972167D01*
X78554789Y-52939357D01*
X78554792Y-52939355D01*
X78559300Y-52936198D01*
X78721198Y-52774300D01*
X78852523Y-52586749D01*
X78854846Y-52581767D01*
X78854849Y-52581762D01*
X78870805Y-52547543D01*
X78917722Y-52494258D01*
X78985999Y-52474797D01*
X79053959Y-52495339D01*
G37*
%TD.AperFunction*%
%TD*%
M02*
